<?xml version="1.0" encoding="UTF-8"?>
<svg version="1.1" xmlns="http://www.w3.org/2000/svg" width="1028" height="1024">
<path d="M0 0 C339.24 0 678.48 0 1028 0 C1028 337.92 1028 675.84 1028 1024 C688.76 1024 349.52 1024 0 1024 C0 686.08 0 348.16 0 0 Z " fill="#FDFDFD" transform="translate(0,0)"/>
<path d="M0 0 C19.47 0 38.94 0 59 0 C59 52.14 59 104.28 59 158 C46.46 158 33.92 158 21 158 C20.67 118.07 20.34 78.14 20 37 C17.339375 45.58 14.67875 54.16 11.9375 63 C7.17571166 78.35385748 2.41139961 93.70676861 -2.39453125 109.046875 C-2.73527176 110.13488403 -3.07601227 111.22289307 -3.42707825 112.34387207 C-5.02453932 117.44356257 -6.62408085 122.54258671 -8.22680664 127.640625 C-11.28722531 137.39293709 -14.24748889 147.15604401 -17 157 C-26.24 157 -35.48 157 -45 157 C-45.495 155.22625 -45.99 153.4525 -46.5 151.625 C-49.45719145 141.19254286 -52.71720317 130.84985637 -55.92236328 120.49169922 C-56.99434219 117.01833213 -58.05895933 113.54279529 -59.12109375 110.06640625 C-63.23061413 96.58127031 -63.23061413 96.58127031 -67.625 83.1875 C-69.87556983 76.55662647 -71.80752732 69.85309695 -73.68212891 63.1081543 C-75.94691445 55.00424407 -78.48478428 47.04869029 -81 39 C-81.33 78.27 -81.66 117.54 -82 158 C-92.89 158 -103.78 158 -115 158 C-115 106.19 -115 54.38 -115 1 C-95.2 1 -75.4 1 -55 1 C-53.02 8.26 -51.04 15.52 -49 23 C-46.80556585 29.63057458 -46.80556585 29.63057458 -44.56640625 36.24609375 C-42.37388042 42.77077221 -40.51866111 49.39527352 -38.61669922 56.0090332 C-36.50627666 63.32629875 -34.28153076 70.59864158 -31.953125 77.84936523 C-30.55286801 82.21280731 -29.23523294 86.58679686 -28 91 C-27.75878418 90.22100342 -27.51756836 89.44200684 -27.26904297 88.6394043 C-26.34123606 85.64399535 -25.41294879 82.64873575 -24.484375 79.65356445 C-23.89808787 77.76198984 -23.31231464 75.87025597 -22.7265625 73.97851562 C-20.79237285 67.740754 -18.8462996 61.50737173 -16.8694458 55.2829895 C-13.17987538 43.65843783 -9.6423303 31.99016374 -6.125 20.3125 C-4.10375 13.609375 -2.0825 6.90625 0 0 Z " fill="#434B4E" transform="translate(889,425)"/>
<path d="M0 0 C14.540625 -0.0825 29.08125 -0.165 44.0625 -0.25 C48.62457275 -0.28641602 53.18664551 -0.32283203 57.88696289 -0.36035156 C63.53210449 -0.37841797 63.53210449 -0.37841797 66.18919373 -0.3817749 C68.01357445 -0.38784832 69.83794089 -0.40177043 71.66221619 -0.42230225 C86.83067285 -0.58422944 101.79547341 -0.24086549 114 10 C114.93392578 10.73476563 114.93392578 10.73476563 115.88671875 11.484375 C122.84807698 17.5850013 126.73873976 25.73123375 127.58203125 34.8671875 C128.20362485 47.11582854 126.13693001 56.574419 117.75 65.9375 C113.7319704 69.62144624 108.95853059 71.83500777 104 74 C107.00254539 76.12145149 107.00254539 76.12145149 110.625 77.625 C120.07279699 82.40957242 126.89208174 89.81083463 130.44042969 99.86035156 C133.27072846 110.68266328 132.15256333 124.10525448 127 134 C119.92493096 145.51713771 109.50175394 151.58770126 96.56616211 154.8717804 C85.65701319 157.08047565 75.16791567 157.39401557 64.0625 157.29296875 C62.4108104 157.2885424 60.75911655 157.28549145 59.10742188 157.28381348 C53.07154923 157.26826432 47.03576744 157.22638198 41 157.1875 C27.47 157.125625 13.94 157.06375 0 157 C0 105.19 0 53.38 0 0 Z " fill="#434B4E" transform="translate(230,426)"/>
<path d="M0 0 C3.3 0 6.6 0 10 0 C8.6970616 3.42505093 7.1777414 6.68222542 5.53735352 9.95751953 C-4.19648364 29.74817906 -6.54072157 51.77958748 0.65185547 72.91552734 C4.53282301 83.72058362 10.32017483 92.49638735 18 101 C18.33 101 18.66 101 19 101 C18.62488281 100.35417969 18.24976563 99.70835937 17.86328125 99.04296875 C7.68635059 80.30408635 4.17980313 57.58617443 9.49365234 36.74145508 C13.30349373 23.96979424 19.59876564 13.2255024 28 3 C28.71542969 2.09507812 28.71542969 2.09507812 29.4453125 1.171875 C31.69780457 -0.52598335 33.41143358 -0.29565843 36.1875 -0.1875 C37.08855469 -0.16042969 37.98960938 -0.13335937 38.91796875 -0.10546875 C39.94857422 -0.05326172 39.94857422 -0.05326172 41 0 C39.51296093 3.32307711 37.58709958 5.84403267 35.25 8.625 C23.33533497 23.38367188 17.59161472 39.37012106 17.8125 58.25 C17.81314453 59.3121875 17.81378906 60.374375 17.81445312 61.46875 C17.84082917 66.13437942 17.96581163 70.43409701 19 75 C19.14695313 73.88625 19.29390625 72.7725 19.4453125 71.625 C22.98502202 46.78122928 33.79189916 24.72680651 54 9 C67.33679195 -0.12863728 67.33679195 -0.12863728 75.28564453 -0.11352539 C75.92967224 -0.11367142 76.57369995 -0.11381744 77.23724365 -0.1139679 C79.36913402 -0.1132704 81.50093737 -0.10548566 83.6328125 -0.09765625 C85.10968986 -0.09579149 86.58656784 -0.09436786 88.06344604 -0.09336853 C91.95312199 -0.08954792 95.84276067 -0.07972152 99.73242188 -0.06866455 C104.39801768 -0.0566435 109.06362593 -0.05204602 113.72923279 -0.04621124 C120.81951445 -0.03650953 127.90971434 -0.0173498 135 0 C135 9.57 135 19.14 135 29 C131.720625 28.2575 131.720625 28.2575 128.375 27.5 C106.106227 23.07494591 84.3491404 25.89583733 65 38 C61.11182496 40.73859027 57.50698376 43.79021826 54 47 C56.86127364 46.38420415 58.61281381 45.65823845 61.25 44.1875 C65.32947641 42.08641628 69.56759387 40.91650693 74 39.8125 C74.66418945 39.64580811 75.32837891 39.47911621 76.01269531 39.30737305 C95.03046927 34.75852711 117.78448675 34.74394955 135 45 C135 47.97 135 50.94 135 54 C129.72114988 53.24587855 125.00997614 51.71186655 120 49.9375 C114.94237502 48.35699219 110.11583612 47.87292498 104.83203125 47.8671875 C103.69185547 47.86589844 102.55167969 47.86460937 101.37695312 47.86328125 C100.20068359 47.86714844 99.02441406 47.87101562 97.8125 47.875 C96.62462891 47.87113281 95.43675781 47.86726563 94.21289062 47.86328125 C92.50842773 47.86521484 92.50842773 47.86521484 90.76953125 47.8671875 C89.73417236 47.86831543 88.69881348 47.86944336 87.63208008 47.87060547 C84.89026043 47.88698831 84.89026043 47.88698831 82 49 C83.0415625 49.14695312 84.083125 49.29390625 85.15625 49.4453125 C100.60474383 51.79320734 113.80419067 56.50861382 127 65 C127.83015625 65.44730469 128.6603125 65.89460938 129.515625 66.35546875 C131.86639182 67.75688743 133.39699401 68.77513824 135 71 C135.65039876 75.08597289 135.47744323 78.90194563 135 83 C134.56171875 82.6596875 134.1234375 82.319375 133.671875 81.96875 C131.46782044 80.28435058 129.23741717 78.63984612 127 77 C126.12859375 76.3503125 125.2571875 75.700625 124.359375 75.03125 C116.37565931 69.35975798 108.20606641 66.0842659 99 63 C100.0725 63.763125 101.145 64.52625 102.25 65.3125 C117.45526002 76.79071582 128.89680563 90.6904169 135 109 C135.08687799 110.54970448 135.1176866 112.10289707 135.11352539 113.6550293 C135.11344986 114.59577805 135.11337433 115.53652679 135.11329651 116.50578308 C135.10813522 117.51836685 135.10297394 118.53095062 135.09765625 119.57421875 C135.09553383 121.13267265 135.09553383 121.13267265 135.09336853 122.72261047 C135.08776656 126.04426948 135.07521372 129.36586133 135.0625 132.6875 C135.05748525 134.93815007 135.0529223 137.18880119 135.04882812 139.43945312 C135.03779649 144.95965837 135.02105643 150.47982439 135 156 C132.69 156 130.38 156 128 156 C128.165 154.72125 128.33 153.4425 128.5 152.125 C131.0121546 126.04292429 125.33648235 104.28223506 108.5390625 83.8359375 C108.03117188 83.23007812 107.52328125 82.62421875 107 82 C107.99801988 84.99405963 109.30444172 87.41954492 110.8125 90.1875 C120.48357098 109.76267982 120.90964983 132.36025198 114.09375 152.94140625 C113.55234375 154.45541016 113.55234375 154.45541016 113 156 C109.7 156 106.4 156 103 156 C103.6536653 151.94727515 104.90354453 148.22959303 106.28125 144.37890625 C108.04714767 138.53416885 108.19228191 132.80210307 108.1875 126.75 C108.1884668 125.49062622 108.1884668 125.49062622 108.18945312 124.20581055 C108.13861497 118.2375272 107.51951276 112.79314241 106 107 C105.89042969 107.94359375 105.78085938 108.8871875 105.66796875 109.859375 C103.79287788 125.04303766 101.14040271 145.29605715 89 156 C85.51124972 156.80588091 82.50602207 156.63489333 79 156 C80.27981945 152.54873332 81.79518261 149.63371936 83.8125 146.5625 C87.61148175 140.39265495 89.76562323 133.86131629 92 127 C91.55011719 127.66644531 91.10023438 128.33289063 90.63671875 129.01953125 C85.43767848 136.46905788 79.78836005 142.92521584 73 149 C72.18144531 149.74121094 71.36289063 150.48242188 70.51953125 151.24609375 C62.13391554 157.70756818 53.06009054 156.65677275 43 156 C46.31188765 153.34723495 49.83816147 151.39737824 53.5625 149.375 C60.36458105 145.60184457 66.15564771 141.15257181 72 136 C71.2471875 136.38671875 70.494375 136.7734375 69.71875 137.171875 C60.97170694 141.46047378 52.46780551 143.89963359 43 146 C42.34974854 146.17724609 41.69949707 146.35449219 41.02954102 146.53710938 C20.22829725 151.28138439 -1.07775399 142.59452799 -19 133 C-19.99 132.34 -20.98 131.68 -22 131 C-22.29296875 128.1796875 -22.29296875 128.1796875 -22.1875 124.875 C-22.16042969 123.77929688 -22.13335937 122.68359375 -22.10546875 121.5546875 C-22.07066406 120.71164062 -22.03585938 119.86859375 -22 119 C-21.3915625 119.42410156 -20.783125 119.84820313 -20.15625 120.28515625 C0.24073671 133.93314001 21.99630098 139.02451207 46.375 135 C47.92081812 134.68648196 49.46497821 134.36270557 51 134 C49.89785156 133.98582031 48.79570313 133.97164062 47.66015625 133.95703125 C21.28917547 133.27393636 1.50865864 122.82280942 -16.96875 104.19921875 C-19.82711806 101.10448564 -21.25835566 99.1806513 -21.1953125 94.98828125 C-21.18886719 94.23095703 -21.18242188 93.47363281 -21.17578125 92.69335938 C-21.15902344 91.90767578 -21.14226563 91.12199219 -21.125 90.3125 C-21.11597656 89.51521484 -21.10695312 88.71792969 -21.09765625 87.89648438 C-21.07411585 85.930861 -21.03824547 83.96539225 -21 82 C-18.28853355 85.3279809 -15.76733144 88.72986435 -13.3125 92.25 C-3.31316087 105.9760301 10.21069315 116.40229139 27 120 C26.3709375 119.57589844 25.741875 119.15179687 25.09375 118.71484375 C5.20487774 105.08617375 -6.51017867 87.70476698 -12 64 C-16.21687072 40.53835018 -11.24802459 20.48647655 0 0 Z " fill="#354457" transform="translate(73,426)"/>
<path d="M0 0 C20.8828125 -0.0928125 20.8828125 -0.0928125 42.1875 -0.1875 C48.74467896 -0.22846802 48.74467896 -0.22846802 55.43432617 -0.27026367 C60.83459473 -0.28381348 60.83459473 -0.28381348 63.37471008 -0.28633118 C65.12249554 -0.29089267 66.87027246 -0.30134821 68.61799622 -0.31672668 C85.45106143 -0.45724491 102.37821934 0.54239768 115.375 12.75 C125.7143136 24.0781045 128.92568614 36.52789328 128.41015625 51.55078125 C127.63648513 62.89391548 122.09198447 72.5465225 113.7265625 80.03515625 C109.95517274 83.0860978 106.58241161 85.33586105 102 87 C104.76214588 95.94894496 108.44185754 104.49868853 112.0625 113.125 C112.73458605 114.73350702 113.40654155 116.3420686 114.07836914 117.95068359 C118.35372521 128.16909193 122.70058492 138.35331672 127.20532227 148.47314453 C127.57971436 149.31989746 127.95410645 150.16665039 128.33984375 151.0390625 C128.66331787 151.76303223 128.98679199 152.48700195 129.32006836 153.23291016 C130 155 130 155 130 157 C116.14 157 102.28 157 88 157 C86.9378125 154.20015625 85.875625 151.4003125 84.78125 148.515625 C83.7224253 145.72835573 82.66299711 142.94131654 81.60351562 140.15429688 C80.88153436 138.2541444 80.16015586 136.35376277 79.43945312 134.453125 C74.43021162 121.2443988 69.27938102 108.10332857 64 95 C51.13 94.505 51.13 94.505 38 94 C38 114.46 38 134.92 38 156 C25.46 156 12.92 156 0 156 C0 104.52 0 53.04 0 0 Z " fill="#444C4F" transform="translate(366,426)"/>
<path d="M0 0 C12.21 0 24.42 0 37 0 C37 19.8 37 39.6 37 60 C53.17 60 69.34 60 86 60 C86 40.2 86 20.4 86 0 C98.21 0 110.42 0 123 0 C123 51.48 123 102.96 123 156 C110.79 156 98.58 156 86 156 C86 134.88 86 113.76 86 92 C69.83 92 53.66 92 37 92 C37 113.12 37 134.24 37 156 C24.79 156 12.58 156 0 156 C0 104.52 0 53.04 0 0 Z " fill="#424A4D" transform="translate(640,426)"/>
<path d="M0 0 C13.2 0 26.4 0 40 0 C40.0093457 3.31538818 40.01869141 6.63077637 40.02832031 10.04663086 C40.06212562 21.01503276 40.11769463 31.98324721 40.18390274 42.95149899 C40.22336921 49.59993293 40.25556193 56.24818199 40.27099609 62.89672852 C40.28616779 69.31596163 40.32062356 75.73483102 40.36830902 82.15390205 C40.38311732 84.59979652 40.39104069 87.04574291 40.39188385 89.49168205 C40.39425678 92.92445278 40.42136506 96.35622105 40.45410156 99.78881836 C40.4490712 100.79439285 40.44404083 101.79996735 40.43885803 102.83601379 C40.54904525 110.33089806 41.97340809 116.8052641 47.25 122.375 C53.69891865 126.18572466 59.48757761 127.56096801 66.875 127.5 C68.05473389 127.49359497 68.05473389 127.49359497 69.25830078 127.48706055 C77.0922229 127.25836239 82.65262852 125.08988136 88.4375 119.75 C92.60517115 112.41489877 93.44459196 105.38721947 93.43237305 97.06420898 C93.4425647 96.00950912 93.45275635 94.95480927 93.46325684 93.8681488 C93.49325135 90.41074213 93.50263223 86.95361314 93.51171875 83.49609375 C93.52857543 81.08756092 93.546727 78.67903684 93.56611633 76.27052307 C93.61351467 69.9528171 93.64338994 63.6351466 93.66955566 57.31732178 C93.69941241 50.86186725 93.7459252 44.40653479 93.79101562 37.95117188 C93.87693327 25.30083123 93.94278937 12.65050307 94 0 C104.56 0 115.12 0 126 0 C126.06790961 14.78688158 126.12309336 29.57366527 126.15543652 44.36066818 C126.17085798 51.22764447 126.19185628 58.09451647 126.22631836 64.96142578 C126.25959066 71.59446211 126.2768784 78.22741898 126.28463173 84.8605423 C126.29015369 87.38494822 126.30093651 89.90934856 126.31719017 92.43370819 C126.33912372 95.98295141 126.34196024 99.53175407 126.34057617 103.08105469 C126.351362 104.11324631 126.36214783 105.14543793 126.3732605 106.20890808 C126.31708285 119.61478809 122.62562283 133.41221695 113.25 143.375 C98.78669115 156.57824785 80.2591536 159.4459778 61.375 159.4375 C60.30868347 159.43860275 60.30868347 159.43860275 59.2208252 159.43972778 C41.89357099 159.39259242 26.31796078 155.90320443 13.125 143.6875 C-1.38468825 127.65976651 -0.56823625 107.82648097 -0.390625 87.5 C-0.38314985 84.96696421 -0.37746295 82.43392258 -0.37347412 79.90087891 C-0.35985999 73.95847672 -0.32846696 68.01634409 -0.28807616 62.07407951 C-0.24303574 55.29758048 -0.22129118 48.5210654 -0.20129442 41.74445343 C-0.15972226 27.82943894 -0.08650175 13.91480401 0 0 Z " fill="#8191A0" transform="translate(502,426)"/>
<path d="M0 0 C6.06375 -0.103125 12.1275 -0.20625 18.375 -0.3125 C21.21424072 -0.38078003 21.21424072 -0.38078003 24.11083984 -0.45043945 C33.81674415 -0.58679637 42.15866219 -0.46114766 49.65795898 6.55004883 C53.59762389 10.96770541 54.36091666 14.88440756 54.27734375 20.5859375 C53.65053313 26.04183837 51.36144159 29.82420953 47.25 33.375 C40.70881029 36.64559485 34.5229672 37.29506749 27.34375 37.1953125 C26.64411133 37.19329834 25.94447266 37.19128418 25.22363281 37.18920898 C22.64902035 37.17886805 20.07450248 37.15094709 17.5 37.125 C11.725 37.08375 5.95 37.0425 0 37 C0 24.79 0 12.58 0 0 Z " fill="#FBFBFB" transform="translate(268,516)"/>
<path d="M0 0 C8.6315625 -0.12375 8.6315625 -0.12375 17.4375 -0.25 C19.23501709 -0.28641602 21.03253418 -0.32283203 22.88452148 -0.36035156 C39.63515702 -0.5593765 39.63515702 -0.5593765 46.68139648 5.42895508 C50.42608697 9.18026513 50.37504474 13.46432548 50.5 18.5625 C50.45645858 23.87999585 49.76813958 27.43090213 47 32 C37.66953945 40.61273282 26.50543778 39.13568809 14.5 39.0625 C7.3225 39.0315625 7.3225 39.0315625 0 39 C0 26.13 0 13.26 0 0 Z " fill="#FAFAFA" transform="translate(404,454)"/>
<path d="M0 0 C4.98099986 -0.06918055 9.9603073 -0.12881819 14.94140625 -0.16479492 C16.63287022 -0.17980505 18.32429578 -0.20021963 20.015625 -0.22631836 C22.45843024 -0.26304686 24.9007173 -0.27980411 27.34375 -0.29296875 C28.46299866 -0.31619453 28.46299866 -0.31619453 29.6048584 -0.33988953 C35.30312962 -0.34168249 41.23235795 0.43590066 45.56750488 4.45222473 C49.67788613 9.28351586 50.28971927 12.30435353 50.21875 18.4609375 C49.83019489 22.97095217 47.96220472 25.84535433 45.125 29.25 C40.1645117 33.33510801 35.33284583 33.27392564 29.19921875 33.1953125 C27.9446563 33.19106766 27.9446563 33.19106766 26.66474915 33.18673706 C24.00551774 33.1755832 21.34662882 33.15048763 18.6875 33.125 C16.87956217 33.11496399 15.07161904 33.10583923 13.26367188 33.09765625 C8.84221128 33.07736501 4.42148695 33.03820776 0 33 C0 22.11 0 11.22 0 0 Z " fill="#FBFCFC" transform="translate(268,454)"/>
<path d="M0 0 C5.35755096 1.92063148 8.45837216 4.91674432 11 10 C11.72987361 14.46218182 11.94691914 18.38356901 9.61328125 22.3671875 C5.38444074 27.37574914 2.12877509 29.65867908 -4.4375 30.375 C-9.86277187 29.80391875 -12.72350337 27.41449626 -16.3125 23.4375 C-19.23041816 19.22272933 -19.67462894 15.00745703 -19 10 C-14.89224836 1.78449672 -8.88100657 -1.30743723 0 0 Z " fill="#7A807F" transform="translate(976,566)"/>
<path d="M0 0 C3.19026198 2.10267267 4.88874348 3.44792091 6.75 6.8125 C7.56979599 11.81492862 7.29823991 15.65276173 5.125 20.25 C1.48335668 24.17914148 -1.92002467 25.93467703 -7.25 26.25 C-11.49630623 26.07137909 -14.01068611 24.5998166 -17.25 21.8125 C-20.58211697 18.03610077 -20.87331052 14.19762447 -20.7421875 9.32421875 C-19.92369011 5.14728364 -17.53161205 2.42341762 -14.25 -0.1875 C-9.22141801 -1.863694 -4.90969589 -1.79392735 0 0 Z " fill="#8694A2" transform="translate(593.25,383.1875)"/>
<path d="M0 0 C3.59705851 1.91990239 5.74638748 4.61958121 8 8 C8.64847922 12.34822382 9.02965106 16.98822024 6.984375 20.984375 C4.47216861 24.04139724 1.73558281 26.7430979 -2.26953125 27.3359375 C-8.01221896 27.42415083 -11.59713062 27.08070821 -16 23 C-19.05146436 18.52451893 -19.95053785 14.29132736 -19 9 C-14.8231143 0.80092808 -8.87262772 -1.54738628 0 0 Z " fill="#8896A3" transform="translate(552,382)"/>
<path d="M0 0 C1.65 0 3.3 0 5 0 C5.33 0.66 5.66 1.32 6 2 C6.66 1.34 7.32 0.68 8 0 C11.90301669 -0.21683426 15.24130235 -0.01195706 19 1 C19.33 0.67 19.66 0.34 20 0 C27.27367267 -0.58658651 27.27367267 -0.58658651 29.74609375 1.41015625 C31.69604071 5.4376168 31.31444626 9.34268619 31.1875 13.75 C31.16719727 15.08224609 31.16719727 15.08224609 31.14648438 16.44140625 C31.11121309 18.62822578 31.06192752 20.81379966 31 23 C29.02 23 27.04 23 25 23 C24.67 17.06 24.34 11.12 24 5 C20.25724788 5.57125354 20.25724788 5.57125354 19 7 C18.76321284 9.69235776 18.57801975 12.36498156 18.4375 15.0625 C18.39431641 15.82111328 18.35113281 16.57972656 18.30664062 17.36132812 C18.20026367 19.24065438 18.09960066 21.12030244 18 23 C16.35 23 14.7 23 13 23 C12.67 17.39 12.34 11.78 12 6 C10.68 5.67 9.36 5.34 8 5 C5.88074396 7.11925604 6.58168983 11.6196093 6.4375 14.5625 C6.39431641 15.36880859 6.35113281 16.17511719 6.30664062 17.00585938 C6.20024738 19.00368805 6.09959112 21.0018207 6 23 C4.02 23 2.04 23 0 23 C0 15.41 0 7.82 0 0 Z " fill="#4C5255" transform="translate(871,638)"/>
<path d="M0 0 C1.98 0 3.96 0 6 0 C6.50636607 1.74816858 7.00484619 3.49862263 7.5 5.25 C7.7784375 6.22453125 8.056875 7.1990625 8.34375 8.203125 C9 11 9 11 9 15 C9.66 15 10.32 15 11 15 C11.04898438 14.33613281 11.09796875 13.67226563 11.1484375 12.98828125 C11.89103691 4.21792619 11.89103691 4.21792619 14 0 C16.31 0 18.62 0 21 0 C22.32 4.29 23.64 8.58 25 13 C26.32 8.71 27.64 4.42 29 0 C30.65 0 32.3 0 34 0 C32.64741104 7.88416983 30.45600648 15.39353334 28 23 C26.02 23 24.04 23 22 23 C20.33333333 18 18.66666667 13 17 8 C15.68 12.95 14.36 17.9 13 23 C10.69 23 8.38 23 6 23 C4.99572108 19.54289448 3.9973056 16.08412303 3 12.625 C2.71382812 11.64015625 2.42765625 10.6553125 2.1328125 9.640625 C1.86210938 8.69960938 1.59140625 7.75859375 1.3125 6.7890625 C1.06113281 5.91975098 0.80976562 5.05043945 0.55078125 4.15478516 C0 2 0 2 0 0 Z " fill="#4C5154" transform="translate(717,638)"/>
<path d="M0 0 C3.31115702 0.65244473 5.12558655 1.99736711 7.37890625 4.46875 C9.3464273 8.4037921 8.8431322 13.1793022 8.37890625 17.46875 C6.57772147 20.47072464 5.47557893 21.92041366 2.37890625 23.46875 C-2.21986059 24.01987923 -5.59897262 24.08628151 -9.62109375 21.65625 C-13.09039668 17.86169992 -13.03570757 13.91093678 -12.94921875 8.98828125 C-12.616243 6.43150314 -12.1838925 4.96500943 -10.74609375 2.84375 C-6.92459336 -0.0605903 -4.69445815 -0.27984847 0 0 Z " fill="#4A4F52" transform="translate(670.62109375,637.53125)"/>
<path d="M0 0 C1.98 0 3.96 0 6 0 C6 4.29 6 8.58 6 13 C6.99 12.34 7.98 11.68 9 11 C15.2296547 10.44378083 15.2296547 10.44378083 17.70043945 12.2277832 C19.38106573 14.51966112 19.34690146 15.84549017 19.29296875 18.66796875 C19.28330078 19.56064453 19.27363281 20.45332031 19.26367188 21.37304688 C19.23853516 22.30181641 19.21339844 23.23058594 19.1875 24.1875 C19.16719727 25.59805664 19.16719727 25.59805664 19.14648438 27.03710938 C19.11113096 29.35865038 19.06178674 31.67903653 19 34 C17.35 34 15.7 34 14 34 C13.67 28.39 13.34 22.78 13 17 C11.68 16.67 10.36 16.34 9 16 C6.88074396 18.11925604 7.58168983 22.6196093 7.4375 25.5625 C7.39431641 26.36880859 7.35113281 27.17511719 7.30664062 28.00585938 C7.20024738 30.00368805 7.09959112 32.0018207 7 34 C4.69 34 2.38 34 0 34 C0 22.78 0 11.56 0 0 Z " fill="#64696C" transform="translate(782,627)"/>
<path d="M0 0 C2.19556263 1.82469056 2.92007874 3.27432168 3.23217773 6.1081543 C3.29584673 8.66232957 3.26105979 11.19615514 3.1875 13.75 C3.16719727 15.08224609 3.16719727 15.08224609 3.14648438 16.44140625 C3.11121309 18.62822578 3.06192752 20.81379966 3 23 C1.35 23 -0.3 23 -2 23 C-2.33 22.34 -2.66 21.68 -3 21 C-3.66 21.66 -4.32 22.32 -5 23 C-12.16065574 23.68196721 -12.16065574 23.68196721 -15 21.375 C-16.29618989 18.296549 -16.48288863 16.31123632 -16 13 C-14.625 10.625 -14.625 10.625 -12 9 C-8.63974091 8.67345445 -5.36439507 8.76885835 -2 9 C-2.66 7.68 -3.32 6.36 -4 5 C-6.97 5 -9.94 5 -13 5 C-12.67 3.35 -12.34 1.7 -12 0 C-8.1810361 -1.43211146 -3.8388802 -1.3006473 0 0 Z " fill="#454A4D" transform="translate(552,638)"/>
<path d="M0 0 C0.95648437 -0.03738281 1.91296875 -0.07476563 2.8984375 -0.11328125 C5.625 0.3125 5.625 0.3125 7.9609375 1.72265625 C10.5166492 5.70020756 10.05231223 9.4455624 9.875 14.0625 C9.85695313 14.95066406 9.83890625 15.83882812 9.8203125 16.75390625 C9.77327374 18.94120848 9.70757009 21.12629816 9.625 23.3125 C7.975 23.3125 6.325 23.3125 4.625 23.3125 C4.295 22.6525 3.965 21.9925 3.625 21.3125 C2.965 21.9725 2.305 22.6325 1.625 23.3125 C-5.53565574 23.99446721 -5.53565574 23.99446721 -8.375 21.6875 C-9.68535305 18.57541151 -9.93241927 16.65701564 -9.375 13.3125 C-7.21246443 10.74448901 -5.6528092 9.45894024 -2.26171875 9.0703125 C-0.29783161 9.06333599 1.66559838 9.17965921 3.625 9.3125 C3.295 7.9925 2.965 6.6725 2.625 5.3125 C0.706875 5.2815625 0.706875 5.2815625 -1.25 5.25 C-1.96929688 5.23839844 -2.68859375 5.22679687 -3.4296875 5.21484375 C-5.45685404 5.18600758 -5.45685404 5.18600758 -7.375 6.3125 C-7.375 4.6625 -7.375 3.0125 -7.375 1.3125 C-4.81683084 0.03341542 -2.85652006 0.07275319 0 0 Z " fill="#464D4F" transform="translate(826.375,637.6875)"/>
<path d="M0 0 C2.77428577 1.26103899 4.48317435 2.31089914 6.3125 4.75 C7 7 7 7 7 14 C2.38 14 -2.24 14 -7 14 C-6.34 15.65 -5.68 17.3 -5 19 C0.57830016 19.12469099 0.57830016 19.12469099 6 18 C6 19.65 6 21.3 6 23 C1.65750666 24.44749778 -2.46668956 24.65794458 -7 24 C-10.34625024 21.47323961 -11.67977847 19.96066458 -13 16 C-13.34531267 10.64765358 -13.47574585 7.34468232 -10 3 C-6.8142144 -0.1857856 -4.43606442 -0.54319156 0 0 Z " fill="#474D4F" transform="translate(595,637)"/>
<path d="M0 0 C4.8125662 0.02750038 4.8125662 0.02750038 7.75 2.75 C10.22892676 7.27673581 10.1875 7.44236395 10.1875 13.375 C5.5675 13.375 0.9475 13.375 -3.8125 13.375 C-2.8225 15.025 -1.8325 16.675 -0.8125 18.375 C2.74180783 18.82874142 5.77577648 18.42476108 9.1875 17.375 C9.230221 19.04111905 9.22813832 20.70882885 9.1875 22.375 C7.39440039 24.16809961 4.86374022 23.67307043 2.4375 23.75 C-1.95599088 23.72387936 -3.3567546 23.70563882 -7 21.0625 C-9.92647623 16.72324214 -10.54992921 12.51759842 -9.8125 7.375 C-5.77969171 0.22001755 -5.77969171 0.22001755 0 0 Z " fill="#525759" transform="translate(522.8125,637.625)"/>
<path d="M0 0 C3.69059994 0.87426509 5.13063077 2.36922768 7.16015625 5.51171875 C7.55451003 8.318895 7.40233271 10.65403648 7.16015625 13.51171875 C2.54015625 13.51171875 -2.07984375 13.51171875 -6.83984375 13.51171875 C-5.84984375 15.16171875 -4.85984375 16.81171875 -3.83984375 18.51171875 C-1.33622586 19.11462715 -1.33622586 19.11462715 1.34765625 18.82421875 C2.24871094 18.77910156 3.14976562 18.73398437 4.078125 18.6875 C4.76519531 18.62949219 5.45226562 18.57148437 6.16015625 18.51171875 C6.16015625 19.83171875 6.16015625 21.15171875 6.16015625 22.51171875 C2.46025397 24.36166989 -1.80151516 23.98158717 -5.83984375 23.51171875 C-9.39664547 21.40667284 -10.53453311 20.42765067 -11.83984375 16.51171875 C-12.42123471 11.68617381 -12.77454139 7.02228855 -9.90234375 2.88671875 C-6.32804129 0.11481072 -4.42465183 -0.33240289 0 0 Z " fill="#43494C" transform="translate(941.83984375,637.48828125)"/>
<path d="M0 0 C1.98 0 3.96 0 6 0 C8.05362055 5.08940744 9.43179252 9.54520815 10 15 C10.66 15 11.32 15 12 15 C12.12375 13.824375 12.2475 12.64875 12.375 11.4375 C12.86435935 7.45879574 13.8055205 3.82233441 15 0 C16.98 0 18.96 0 21 0 C20.45403843 5.05014451 18.82078087 9.46629445 17.04296875 14.18359375 C16.09985317 16.73035903 15.25448569 19.2857173 14.4375 21.875 C13.21851023 25.59191963 11.81875759 29.18124241 9 32 C6.66702567 32.04092937 4.33294775 32.04241723 2 32 C2 30.68 2 29.36 2 28 C4.5 26.25 4.5 26.25 7 25 C5.80565506 18.92874657 4.13788804 13.34836006 1.90234375 7.578125 C1.02112271 5.06035059 0.457874 2.62451487 0 0 Z " fill="#43484B" transform="translate(634,638)"/>
<path d="M0 0 C1.65 0 3.3 0 5 0 C5.02578125 1.13179687 5.0515625 2.26359375 5.078125 3.4296875 C5.13439626 4.91149743 5.19174382 6.39326677 5.25 7.875 C5.26417969 8.62136719 5.27835938 9.36773438 5.29296875 10.13671875 C5.35986341 12.57138381 5.35986341 12.57138381 6 16 C7.90628782 17.60337399 7.90628782 17.60337399 10 18 C12.40119059 14.39821412 12.43771322 11.49133631 12.625 7.3125 C12.68300781 6.2596582 12.68300781 6.2596582 12.7421875 5.18554688 C12.8362334 3.45745345 12.9191968 1.72876325 13 0 C14.98 0 16.96 0 19 0 C19 7.59 19 15.18 19 23 C16 23 13 23 10 23 C8.2675 23.0928125 8.2675 23.0928125 6.5 23.1875 C3 23 3 23 1.29956055 21.7800293 C-0.37773744 19.48260686 -0.34695319 18.15721701 -0.29296875 15.33203125 C-0.28330078 14.43935547 -0.27363281 13.54667969 -0.26367188 12.62695312 C-0.23853516 11.69818359 -0.21339844 10.76941406 -0.1875 9.8125 C-0.17396484 8.87212891 -0.16042969 7.93175781 -0.14648438 6.96289062 C-0.11113096 4.64134962 -0.06178674 2.32096347 0 0 Z " fill="#4D5255" transform="translate(684,638)"/>
<path d="M0 0 C5.35755096 1.92063148 8.45837216 4.91674432 11 10 C11.72987361 14.46218182 11.94691914 18.38356901 9.61328125 22.3671875 C5.38444074 27.37574914 2.12877509 29.65867908 -4.4375 30.375 C-9.86277187 29.80391875 -12.72350337 27.41449626 -16.3125 23.4375 C-19.23041816 19.22272933 -19.67462894 15.00745703 -19 10 C-14.89224836 1.78449672 -8.88100657 -1.30743723 0 0 Z M-15 8 C-16.75845645 11.51691289 -16.68065337 15.17210537 -16 19 C-13.96994709 22.3792573 -11.55205232 25.22397384 -8 27 C-2.98646089 27.37838031 0.00482115 27.13135639 4 24 C7.20317953 21.05653773 8.30460583 18.82491749 8.5625 14.5625 C8.34467554 9.5441596 6.62707565 7.37402386 3 4 C-4.48122661 1.5062578 -9.56672521 2.29506147 -15 8 Z " fill="#505455" transform="translate(976,566)"/>
<path d="M0 0 C2.31 0 4.62 0 7 0 C7.508783 1.55966218 8.00663469 3.12289241 8.5 4.6875 C8.7784375 5.55761719 9.056875 6.42773438 9.34375 7.32421875 C9.99850805 9.99391677 10.11831495 12.26396684 10 15 C10.66 15 11.32 15 12 15 C12.1546875 13.515 12.1546875 13.515 12.3125 12 C12.90808706 7.71702837 14.38595027 4.00003629 16 0 C17.65 0 19.3 0 21 0 C20.42389687 5.54955043 18.97901452 10.26029497 16.9375 15.4375 C16.65583984 16.16904297 16.37417969 16.90058594 16.08398438 17.65429688 C15.39586753 19.43873546 14.69885394 21.21973905 14 23 C12.02 23 10.04 23 8 23 C0 3.38297872 0 3.38297872 0 0 Z " fill="#494D50" transform="translate(558,638)"/>
<path d="M0 0 C0.99773438 0.02320313 1.99546875 0.04640625 3.0234375 0.0703125 C4.52777344 0.09738281 4.52777344 0.09738281 6.0625 0.125 C6.83335937 0.14820313 7.60421875 0.17140625 8.3984375 0.1953125 C8.3984375 1.5153125 8.3984375 2.8353125 8.3984375 4.1953125 C5.7584375 4.1953125 3.1184375 4.1953125 0.3984375 4.1953125 C0.3984375 5.5153125 0.3984375 6.8353125 0.3984375 8.1953125 C2.038125 8.5665625 2.038125 8.5665625 3.7109375 8.9453125 C7.3984375 10.1953125 7.3984375 10.1953125 9.3359375 12.0078125 C10.6673097 14.74887292 10.99954427 16.18977863 10.3984375 19.1953125 C8.5234375 21.5078125 8.5234375 21.5078125 5.3984375 23.1953125 C2.03669275 23.51865589 -1.23605561 23.43057123 -4.6015625 23.1953125 C-4.9315625 21.5453125 -5.2615625 19.8953125 -5.6015625 18.1953125 C-2.9615625 18.1953125 -0.3215625 18.1953125 2.3984375 18.1953125 C2.7284375 16.8753125 3.0584375 15.5553125 3.3984375 14.1953125 C2.6559375 14.1128125 1.9134375 14.0303125 1.1484375 13.9453125 C-2.27692034 13.011124 -3.5935238 12.13013829 -5.6015625 9.1953125 C-5.29819871 0.39776267 -5.29819871 0.39776267 0 0 Z " fill="#5F6567" transform="translate(610.6015625,637.8046875)"/>
<path d="M0 0 C1.49080078 0.02707031 1.49080078 0.02707031 3.01171875 0.0546875 C3.77097656 0.07789063 4.53023437 0.10109375 5.3125 0.125 C5.3125 1.775 5.3125 3.425 5.3125 5.125 C2.6725 5.125 0.0325 5.125 -2.6875 5.125 C-1.97745535 8.40356999 -1.97745535 8.40356999 1.25 9.6875 C2.260625 10.161875 3.27125 10.63625 4.3125 11.125 C6.3125 13.125 6.3125 13.125 6.6875 16 C6.3125 19.125 6.3125 19.125 5 21.5 C0.70156162 24.09905576 -3.78882815 23.42905549 -8.6875 23.125 C-8.6875 21.475 -8.6875 19.825 -8.6875 18.125 C-6.0475 18.125 -3.4075 18.125 -0.6875 18.125 C-0.6875 17.135 -0.6875 16.145 -0.6875 15.125 C-2.0796875 14.4753125 -2.0796875 14.4753125 -3.5 13.8125 C-8.42434211 11.20549536 -8.42434211 11.20549536 -9.6875 9.125 C-9.5625 5.5625 -9.5625 5.5625 -8.6875 2.125 C-5.26655758 -0.15562828 -4.00562778 -0.09425007 0 0 Z " fill="#505759" transform="translate(860.6875,637.875)"/>
<path d="M0 0 C0 2.31 0 4.62 0 7 C1.65 7 3.3 7 5 7 C5 8.32 5 9.64 5 11 C3.35 11 1.7 11 0 11 C0.33 15.62 0.66 20.24 1 25 C2.32 25.33 3.64 25.66 5 26 C5 27.32 5 28.64 5 30 C-2.4422658 30.48801743 -2.4422658 30.48801743 -4.75 28.46875 C-6.46775607 25.07618175 -6.32408174 21.95521744 -6.1875 18.25 C-6.17396484 17.55261719 -6.16042969 16.85523438 -6.14648438 16.13671875 C-6.1112945 14.42414459 -6.05749155 12.71197059 -6 11 C-6.99 11 -7.98 11 -9 11 C-9 9.68 -9 8.36 -9 7 C-8.01 7 -7.02 7 -6 7 C-6 5.35 -6 3.7 -6 2 C-2.25 0 -2.25 0 0 0 Z " fill="#4E5456" transform="translate(774,631)"/>
<path d="M0 0 C1.98 0 3.96 0 6 0 C6 10.89 6 21.78 6 33 C4.02 33 2.04 33 0 33 C0 22.11 0 11.22 0 0 Z " fill="#4F5557" transform="translate(919,628)"/>
<path d="M0 0 C1.65 0 3.3 0 5 0 C5 10.89 5 21.78 5 33 C3.35 33 1.7 33 0 33 C0 22.11 0 11.22 0 0 Z " fill="#474C4E" transform="translate(503,628)"/>
<path d="M0 0 C0.07347656 1.71509766 0.07347656 1.71509766 0.1484375 3.46484375 C0.22345189 4.95575473 0.29900028 6.44663892 0.375 7.9375 C0.4059375 8.69224609 0.436875 9.44699219 0.46875 10.22460938 C0.5726315 12.15507395 0.77895614 14.07942081 1 16 C1.66 16.33 2.32 16.66 3 17 C3 14.69 3 12.38 3 10 C5.3125 10.1875 5.3125 10.1875 8 11 C9.04892238 12.63631892 10.04906703 14.30485863 11 16 C13.06700655 17.32793606 13.06700655 17.32793606 15 18 C10.89793387 20.98332082 8.04214275 21.78240146 3 21 C-0.26778393 18.87983067 -3.24076697 16.51846605 -5 13 C-5.41974782 8.81866594 -5.63782635 5.18867638 -3.625 1.4375 C-2 0 -2 0 0 0 Z " fill="#EAEBEB" transform="translate(965,572)"/>
<path d="M0 0 C2.61141534 2.53680347 4.97171867 4.9637521 7.21875 7.84375 C10.12931284 11.36686267 13.5573066 13.81481665 17.3125 16.375 C18.28026367 17.04982422 18.28026367 17.04982422 19.26757812 17.73828125 C20.83984147 18.8330424 22.4191954 19.91760876 24 21 C18.70187959 22.76604014 13.84651581 19.29695476 9 17 C-0.37083628 12.23369151 -0.37083628 12.23369151 -2.296875 8.45703125 C-3.05404623 5.81113844 -2.94332552 4.5469789 -2 2 C-1.34 2 -0.68 2 0 2 C0 1.34 0 0.68 0 0 Z " fill="#EEF2F5" transform="translate(77,525)"/>
<path d="M0 0 C0.66 0.268125 1.32 0.53625 2 0.8125 C5.64939067 2.25705047 9.32245433 3.62871178 13 5 C12.67 5.99 12.34 6.98 12 8 C12.66 8 13.32 8 14 8 C13.67 9.65 13.34 11.3 13 13 C7.8189366 14.36139053 5.2813915 13.59764648 0.625 11.0625 C-0.43460937 10.49660156 -1.49421875 9.93070313 -2.5859375 9.34765625 C-3.38257812 8.90292969 -4.17921875 8.45820312 -5 8 C-4.34 7.34 -3.68 6.68 -3 6 C-3 5.01 -3 4.02 -3 3 C-1.5 1.3125 -1.5 1.3125 0 0 Z " fill="#3C495B" transform="translate(82,540)"/>
<path d="M0 0 C1 1 1 1 1.25 3.8125 C0.97826344 7.27714111 0.31309135 8.49415104 -2 11 C-1.34 11.33 -0.68 11.66 0 12 C-1 13 -1 13 -4.875 13.3125 C-8.69113924 13.25094937 -8.69113924 13.25094937 -11 11.375 C-12.31035305 8.26291151 -12.55741927 6.34451564 -12 3 C-8.23847131 -1.445443 -5.4665356 -1.3666339 0 0 Z " fill="#4A4E51" transform="translate(829,648)"/>
<path d="M0 0 C2.45703125 1.41015625 2.45703125 1.41015625 4.8125 3.0625 C5.60269531 3.61035156 6.39289063 4.15820312 7.20703125 4.72265625 C7.79871094 5.14417969 8.39039062 5.56570313 9 6 C8.67 7.32 8.34 8.64 8 10 C7.34 10 6.68 10 6 10 C6 10.99 6 11.98 6 13 C6.66 13.33 7.32 13.66 8 14 C1.87647862 13.63258872 -0.78651436 12.21348564 -5 8 C-5 7.34 -5 6.68 -5 6 C-6.45833358 4.37485532 -6.45833358 4.37485532 -8 3 C-7.67 2.01 -7.34 1.02 -7 0 C-4.24807891 -1.37596054 -2.93420072 -0.82671641 0 0 Z " fill="#2F3D4F" transform="translate(73,533)"/>
<path d="M0 0 C1.98 0 3.96 0 6 0 C6 7.59 6 15.18 6 23 C4.02 23 2.04 23 0 23 C0 15.41 0 7.82 0 0 Z " fill="#4C5154" transform="translate(755,638)"/>
<path d="M0 0 C3 1 3 1 4.45703125 3.29296875 C8.15217999 11.18376188 8.15217999 11.18376188 7.3125 15.6875 C6.879375 16.450625 6.44625 17.21375 6 18 C4.02 18.33 2.04 18.66 0 19 C-1.98 14.38 -3.96 9.76 -6 5 C-5.01 5.33 -4.02 5.66 -3 6 C-2.01 4.02 -1.02 2.04 0 0 Z " fill="#3C4A5B" transform="translate(198,518)"/>
<path d="M0 0 C0.33 0 0.66 0 1 0 C1 40.59 1 81.18 1 123 C0.67 123 0.34 123 0 123 C-0.495 67.065 -0.495 67.065 -1 10 C-1.99 10.495 -1.99 10.495 -3 11 C-2.01 7.37 -1.02 3.74 0 0 Z " fill="#DEE0E2" transform="translate(909,459)"/>
<path d="M0 0 C9.66666667 -0.56862745 9.66666667 -0.56862745 14 3 C16.14338139 4.92165228 16.89004597 6.27323066 17.3203125 9.1171875 C17.52056193 13.18892588 17.56756339 15.2728094 15 18.5625 C14.34 19.036875 13.68 19.51125 13 20 C9.02325581 15.30021142 9.02325581 15.30021142 8.95703125 11.59765625 C9.22062894 9.37289171 9.55134117 7.19452689 10 5 C7.70370006 3.85185003 5.92301914 3.69230191 3.375 3.4375 C2.55773437 3.35371094 1.74046875 3.26992188 0.8984375 3.18359375 C0.27195312 3.12300781 -0.35453125 3.06242188 -1 3 C-0.67 2.01 -0.34 1.02 0 0 Z " fill="#F6F8F7" transform="translate(967,569)"/>
<path d="M0 0 C3.29714793 0.32971479 4.6226839 0.6226839 7 3 C7.22705078 5.06298828 7.22705078 5.06298828 7.1953125 7.5703125 C7.18564453 8.91416016 7.18564453 8.91416016 7.17578125 10.28515625 C7.15902344 11.22230469 7.14226563 12.15945313 7.125 13.125 C7.11597656 14.06988281 7.10695313 15.01476562 7.09765625 15.98828125 C7.07404522 18.32577292 7.04111516 20.66276123 7 23 C5.35 23 3.7 23 2 23 C1.96261719 21.81921875 1.92523437 20.6384375 1.88671875 19.421875 C1.82104851 17.86455212 1.75460153 16.30726186 1.6875 14.75 C1.66494141 13.97269531 1.64238281 13.19539062 1.61914062 12.39453125 C1.41539044 8.06020907 1.22824376 5.21958895 -2 2 C-1.34 1.34 -0.68 0.68 0 0 Z " fill="#484C4F" transform="translate(794,638)"/>
<path d="M0 0 C3.83968859 1.4564336 5.31006462 3.28214217 7 7 C7 8.98 7 10.96 7 13 C2.38 13 -2.24 13 -7 13 C-7 12.67 -7 12.34 -7 12 C-5.02 12 -3.04 12 -1 12 C-1 11.34 -1 10.68 -1 10 C-2.98 10 -4.96 10 -7 10 C-6.25 5.25 -6.25 5.25 -4 3 C-2.68 3 -1.36 3 0 3 C0 2.01 0 1.02 0 0 Z " fill="#565C5E" transform="translate(526,638)"/>
<path d="M0 0 C3.875 1.75 3.875 1.75 5 4 C5.13415472 6.6723621 5.04318541 9.32250488 5 12 C0.38 12 -4.24 12 -9 12 C-9 11.67 -9 11.34 -9 11 C-6.36 11 -3.72 11 -1 11 C-1 10.34 -1 9.68 -1 9 C-3.64 9 -6.28 9 -9 9 C-8.25 4.25 -8.25 4.25 -6 2 C-2.875 2.375 -2.875 2.375 0 3 C0 2.01 0 1.02 0 0 Z " fill="#495053" transform="translate(944,639)"/>
<path d="M0 0 C1.2375 0.1546875 1.2375 0.1546875 2.5 0.3125 C4.95416273 3.9937441 5.09384154 7.03511963 4.5 11.3125 C3 13.8125 3 13.8125 1.5 15.3125 C-0.9375 14.9375 -0.9375 14.9375 -3.5 14.3125 C-4.73887548 11.83474905 -4.66741669 10.07596293 -4.6875 7.3125 C-4.70167969 6.425625 -4.71585938 5.53875 -4.73046875 4.625 C-4.39202181 1.22905785 -3.33921187 0.41740148 0 0 Z " fill="#F2F3F4" transform="translate(668.5,641.6875)"/>
<path d="M0 0 C1.98507824 0.56288795 3.96302563 1.15097627 5.9375 1.75 C7.59072266 2.23726562 7.59072266 2.23726562 9.27734375 2.734375 C12 4 12 4 12.87890625 6.140625 C12.91886719 6.75421875 12.95882812 7.3678125 13 8 C5.6557377 11.8390462 5.6557377 11.8390462 3 12 C0.55357606 11.1668361 -1.66151354 10.12427234 -4 9 C-1.125 2.25 -1.125 2.25 0 0 Z " fill="#3E4B5D" transform="translate(69,556)"/>
<path d="M0 0 C1.65 0 3.3 0 5 0 C5 7.59 5 15.18 5 23 C3.35 23 1.7 23 0 23 C0 15.41 0 7.82 0 0 Z " fill="#464E4F" transform="translate(908,638)"/>
<path d="M0 0 C0.94875 0.04125 1.8975 0.0825 2.875 0.125 C3.535 2.105 4.195 4.085 4.875 6.125 C5.535 4.475 6.195 2.825 6.875 1.125 C7.205 1.125 7.535 1.125 7.875 1.125 C7.875 4.425 7.875 7.725 7.875 11.125 C6.225 11.125 4.575 11.125 2.875 11.125 C2.545 10.465 2.215 9.805 1.875 9.125 C1.215 9.785 0.555 10.445 -0.125 11.125 C-2.81339385 11.39491906 -5.41641936 11.21237357 -8.125 11.125 C-7.135 10.465 -6.145 9.805 -5.125 9.125 C-5.08333998 6.7920386 -5.08333998 4.4579614 -5.125 2.125 C-3.125 0.125 -3.125 0.125 0 0 Z " fill="#55595A" transform="translate(547.125,649.875)"/>
<path d="M0 0 C0.99 1.485 0.99 1.485 2 3 C3.32 2.67 4.64 2.34 6 2 C6.66 5.3 7.32 8.6 8 12 C12.86132495 11.50847518 12.86132495 11.50847518 15 9 C15 10.98 15 12.96 15 15 C15.66 15.33 16.32 15.66 17 16 C13.53984865 17.73007568 9.78327445 17.4835273 6 17 C2.50109996 14.88608123 1.29421314 13.88263941 0 10 C-0.06802967 8.27204648 -0.08495645 6.54164635 -0.0625 4.8125 C-0.05347656 3.91144531 -0.04445313 3.01039063 -0.03515625 2.08203125 C-0.02355469 1.39496094 -0.01195312 0.70789063 0 0 Z " fill="#515558" transform="translate(658,644)"/>
<path d="M0 0 C1.1034375 0.15339844 2.206875 0.30679688 3.34375 0.46484375 C8.3851341 1.09501676 13.42686479 1.33760084 18.5 1.5625 C19.4178125 1.60568359 20.335625 1.64886719 21.28125 1.69335938 C23.52072061 1.79833456 25.76028092 1.90049248 28 2 C22.78508313 7.21491687 12.2208628 6.11046842 5.29199219 6.13623047 C0.86077428 6.11987124 -3.56941983 6.07687873 -8 6 C-8 5.67 -8 5.34 -8 5 C-6.02 5 -4.04 5 -2 5 C-1.34 3.35 -0.68 1.7 0 0 Z " fill="#DEE6ED" transform="translate(98,557)"/>
<path d="M0 0 C4.29659053 0.85931811 5.53620742 2.30431114 8 6 C5.35751295 10.93264249 5.35751295 10.93264249 3 13 C-0.40776842 13.61912129 -3.57438913 13.41905531 -7 13 C-5.35821735 8.22390502 -2.73453298 4.20617096 0 0 Z " fill="#414D5C" transform="translate(159,569)"/>
<path d="M0 0 C0.99773438 0.02320313 1.99546875 0.04640625 3.0234375 0.0703125 C4.52777344 0.09738281 4.52777344 0.09738281 6.0625 0.125 C6.83335937 0.14820313 7.60421875 0.17140625 8.3984375 0.1953125 C8.3984375 1.5153125 8.3984375 2.8353125 8.3984375 4.1953125 C5.7584375 4.1953125 3.1184375 4.1953125 0.3984375 4.1953125 C0.3984375 5.5153125 0.3984375 6.8353125 0.3984375 8.1953125 C1.3884375 8.5253125 2.3784375 8.8553125 3.3984375 9.1953125 C3.3984375 10.5153125 3.3984375 11.8353125 3.3984375 13.1953125 C0.18980401 13.55182733 -1.24157256 13.43214799 -3.9765625 11.6328125 C-5.6015625 9.1953125 -5.6015625 9.1953125 -5.4765625 5.5703125 C-4.47436342 1.70468748 -4.10133116 0.30790775 0 0 Z " fill="#43494B" transform="translate(610.6015625,637.8046875)"/>
<path d="M0 0 C1.98 0 3.96 0 6 0 C5.448018 5.10583347 3.77216517 9.561116 1.9375 14.31640625 C1.04430519 16.87317639 0.46258436 19.33532135 0 22 C-1.5 20.625 -1.5 20.625 -3 19 C-3 18.34 -3 17.68 -3 17 C-3.66 17 -4.32 17 -5 17 C-5 16.34 -5 15.68 -5 15 C-4.34 15 -3.68 15 -3 15 C-2.87625 13.824375 -2.7525 12.64875 -2.625 11.4375 C-2.13564065 7.45879574 -1.1944795 3.82233441 0 0 Z " fill="#4E5356" transform="translate(649,638)"/>
<path d="M0 0 C0.33 0 0.66 0 1 0 C1.02886338 4.47915328 1.04675187 8.95828291 1.0625 13.4375 C1.07087891 14.71689453 1.07925781 15.99628906 1.08789062 17.31445312 C1.09111328 18.52939453 1.09433594 19.74433594 1.09765625 20.99609375 C1.10289307 22.12200928 1.10812988 23.2479248 1.11352539 24.40795898 C1 27 1 27 0 28 C-1.65 28 -3.3 28 -5 28 C-4.01 17.605 -4.01 17.605 -3 7 C-2.67 7 -2.34 7 -2 7 C-1.34 4.69 -0.68 2.38 0 0 Z " fill="#3F4C5B" transform="translate(206,553)"/>
<path d="M0 0 C0 2.31 0 4.62 0 7 C1.32 7 2.64 7 4 7 C4 7.99 4 8.98 4 10 C1.36 10 -1.28 10 -4 10 C-3.67 10.66 -3.34 11.32 -3 12 C-2.34 11.67 -1.68 11.34 -1 11 C-1 12.98 -1 14.96 -1 17 C-2.32 17.33 -3.64 17.66 -5 18 C-5 15.69 -5 13.38 -5 11 C-6.32 11 -7.64 11 -9 11 C-9 9.68 -9 8.36 -9 7 C-8.01 7 -7.02 7 -6 7 C-6 5.35 -6 3.7 -6 2 C-2.25 0 -2.25 0 0 0 Z " fill="#3F4548" transform="translate(774,631)"/>
<path d="M0 0 C1.65 0 3.3 0 5 0 C4.67 6.27 4.34 12.54 4 19 C2.35 19 0.7 19 -1 19 C-1.02683987 16.02077407 -1.04676037 13.04178705 -1.0625 10.0625 C-1.07087891 9.21236328 -1.07925781 8.36222656 -1.08789062 7.48632812 C-1.09111328 6.67744141 -1.09433594 5.86855469 -1.09765625 5.03515625 C-1.10289307 4.2862915 -1.10812988 3.53742676 -1.11352539 2.76586914 C-1 1 -1 1 0 0 Z " fill="#3E4547" transform="translate(885,642)"/>
<path d="M0 0 C1.32 0 2.64 0 4 0 C4.45375 0.825 4.9075 1.65 5.375 2.5 C5.91125 3.325 6.4475 4.15 7 5 C10.55430783 5.45374142 13.58827648 5.04976108 17 4 C17.042721 5.66611905 17.04063832 7.33382885 17 9 C15.20690039 10.79309961 12.67624022 10.29807043 10.25 10.375 C5.91578392 10.33883848 4.38755349 10.25593155 0.6875 7.8125 C-1 5 -1 5 -0.8125 2.1875 C-0.544375 1.465625 -0.27625 0.74375 0 0 Z " fill="#53585A" transform="translate(515,651)"/>
<path d="M0 0 C6.37850467 -0.49065421 6.37850467 -0.49065421 9.375 1.875 C12.2821357 5.67663899 12.08789351 8.25375043 12 13 C7.71 12.67 3.42 12.34 -1 12 C-0.67 11.34 -0.34 10.68 0 10 C2.31 10 4.62 10 7 10 C5.21190271 5.66029083 5.21190271 5.66029083 1.8125 2.625 C1.214375 2.41875 0.61625 2.2125 0 2 C0 1.34 0 0.68 0 0 Z " fill="#4A4F52" transform="translate(590,638)"/>
<path d="M0 0 C-0.99 1.485 -0.99 1.485 -2 3 C-1.505 3.4125 -1.01 3.825 -0.5 4.25 C1 6 1 6 1 10 C-1.64 10 -4.28 10 -7 10 C-7 9.34 -7 8.68 -7 8 C-8.32 8 -9.64 8 -11 8 C-11.33 8.99 -11.66 9.98 -12 11 C-12.375 8.3125 -12.375 8.3125 -12 5 C-8.19503813 0.8326608 -5.65104626 -0.6727436 0 0 Z " fill="#626468" transform="translate(595,637)"/>
<path d="M0 0 C3.73487777 0.4979837 5.81237635 0.87491756 9 3 C9.29296875 5.1640625 9.29296875 5.1640625 9.1875 7.625 C9.16042969 8.44226563 9.13335937 9.25953125 9.10546875 10.1015625 C9.07066406 10.72804688 9.03585938 11.35453125 9 12 C4.43545749 11.45660208 1.0271824 10.20536179 -3 8 C-2.319375 7.4225 -1.63875 6.845 -0.9375 6.25 C0.0215625 5.13625 0.0215625 5.13625 1 4 C0.86358623 1.78141747 0.86358623 1.78141747 0 0 Z " fill="#33404E" transform="translate(199,468)"/>
<path d="M0 0 C1.98 0 3.96 0 6 0 C7.86540627 4.70406799 9.36843005 8.94744036 10 14 C8.02 14 6.04 14 4 14 C3.32968281 12.0429132 2.66385317 10.08428887 2 8.125 C1.62875 7.03445313 1.2575 5.94390625 0.875 4.8203125 C0 2 0 2 0 0 Z " fill="#515559" transform="translate(634,638)"/>
<path d="M0 0 C0.33 1.32 0.66 2.64 1 4 C3.475 4.495 3.475 4.495 6 5 C1.60013324 7.32870997 -3.05534151 8.94455965 -7.7109375 10.68359375 C-10.90822915 11.96326986 -13.9435807 13.41638698 -17 15 C-15.4533299 10.79228881 -12.61966741 8.9534074 -9.0625 6.375 C-8.00160156 5.59898437 -6.94070312 4.82296875 -5.84765625 4.0234375 C-3.91894301 2.65296637 -1.96866087 1.31244058 0 0 Z " fill="#F2F7F9" transform="translate(143,460)"/>
<path d="M0 0 C4.95 0 9.9 0 15 0 C15 2.64 15 5.28 15 8 C14.01 8.495 14.01 8.495 13 9 C13 7.35 13 5.7 13 4 C12.46375 4.33 11.9275 4.66 11.375 5 C8.37065456 6.26498755 6.23232558 6.34386442 3 6 C1.125 4.6875 1.125 4.6875 0 3 C0 2.01 0 1.02 0 0 Z " fill="#F3F5F5" transform="translate(519,651)"/>
<path d="M0 0 C1.77915589 3.03624287 2.13598127 4.89605052 1.8125 8.375 C1.71986242 11.88943808 2.05921182 13.70807056 4.3125 16.4375 C6.91996138 19.07138316 6.91996138 19.07138316 10 21 C10 21.66 10 22.32 10 23 C11.98 23 13.96 23 16 23 C16 23.33 16 23.66 16 24 C10.26763402 24.45858928 7.44703453 23.65645061 3 20 C-1.16533738 15.38435587 -2.2255357 12.19317714 -2.16796875 5.94140625 C-1.96569543 3.60350299 -1.29922669 1.94884004 0 0 Z " fill="#555959" transform="translate(959,572)"/>
<path d="M0 0 C0.5860306 4.53941165 0.98425305 8.4060784 -1.48828125 12.41015625 C-5.91094507 17.45547254 -5.91094507 17.45547254 -9 19 C-10.54023996 19.06950541 -12.08334988 19.08452357 -13.625 19.0625 C-14.85089844 19.04896484 -14.85089844 19.04896484 -16.1015625 19.03515625 C-16.72804688 19.02355469 -17.35453125 19.01195312 -18 19 C-18 18.34 -18 17.68 -18 17 C-17.40832031 16.92523437 -16.81664062 16.85046875 -16.20703125 16.7734375 C-11.79819212 16.03982968 -9.43841443 15.38361263 -6 12.375 C-3.5866902 8.3025397 -3.39511068 5.66230604 -3 1 C-1 0 -1 0 0 0 Z " fill="#585D5D" transform="translate(987,576)"/>
<path d="M0 0 C3.37462715 0.54723683 5.08235 1.0549 8 3 C7.34 5.31 6.68 7.62 6 10 C4.375 10.75 4.375 10.75 2 11 C-1.25 9.0625 -1.25 9.0625 -4 7 C-3.67 6.01 -3.34 5.02 -3 4 C-2.01 3.67 -1.02 3.34 0 3 C0 2.01 0 1.02 0 0 Z " fill="#364355" transform="translate(61,553)"/>
<path d="M0 0 C1.65 0 3.3 0 5 0 C3.90909091 9.09090909 3.90909091 9.09090909 2 13 C-1.125 14.375 -1.125 14.375 -4 15 C-3.43179252 9.54520815 -2.05362055 5.08940744 0 0 Z " fill="#53585B" transform="translate(574,638)"/>
<path d="M0 0 C1.11772247 3.35316742 0.85096806 5.59612776 0 9 C-0.185625 9.763125 -0.37125 10.52625 -0.5625 11.3125 C-0.7790625 12.1478125 -0.7790625 12.1478125 -1 13 C-3.4375 12.625 -3.4375 12.625 -6 12 C-7.42041821 9.15916359 -7.31452272 7.14522722 -7 4 C-4.65790677 0.93105025 -3.92712226 0 0 0 Z " fill="#454E4F" transform="translate(543,647)"/>
<path d="M0 0 C0.33 5.61 0.66 11.22 1 17 C-2 17 -2 17 -3.6875 15.5625 C-5.63788144 11.75461243 -5.58535089 8.19758203 -5 4 C-2.85365854 0 -2.85365854 0 0 0 Z " fill="#F1F4F2" transform="translate(965,572)"/>
<path d="M0 0 C1.5 2.0625 1.5 2.0625 2 4 C1.01 4.99 0.02 5.98 -1 7 C-1.99 6.34 -2.98 5.68 -4 5 C-6.28648848 4.75892674 -6.28648848 4.75892674 -8.6875 4.875 C-9.49574219 4.89304687 -10.30398438 4.91109375 -11.13671875 4.9296875 C-11.75160156 4.95289063 -12.36648438 4.97609375 -13 5 C-12.67 3.35 -12.34 1.7 -12 0 C-7.85738687 -1.55347992 -4.23334718 -0.88763731 0 0 Z " fill="#4E5457" transform="translate(552,638)"/>
<path d="M0 0 C4.62 0 9.24 0 14 0 C13 4 13 4 11.375 5.25 C8.14133835 6.27115631 5.36767564 6.24945745 2 6 C1.34 5.34 0.68 4.68 0 4 C0 2.68 0 1.36 0 0 Z " fill="#F1F3F4" transform="translate(588,651)"/>
<path d="M0 0 C0 4.95 0 9.9 0 15 C-1.65 15 -3.3 15 -5 15 C-5 10.71 -5 6.42 -5 2 C-1 0 -1 0 0 0 Z " fill="#3E4447" transform="translate(788,646)"/>
<path d="M0 0 C0.96808594 -0.03738281 1.93617188 -0.07476563 2.93359375 -0.11328125 C5.5625 0.3125 5.5625 0.3125 7.41015625 2.33203125 C7.79042969 2.98558594 8.17070313 3.63914062 8.5625 4.3125 C7.5725 4.6425 6.5825 4.9725 5.5625 5.3125 C4.35367904 7.31266466 4.35367904 7.31266466 3.5625 9.3125 C3.2325 7.9925 2.9025 6.6725 2.5625 5.3125 C1.28375 5.291875 0.005 5.27125 -1.3125 5.25 C-2.03179688 5.23839844 -2.75109375 5.22679687 -3.4921875 5.21484375 C-5.51935404 5.18600758 -5.51935404 5.18600758 -7.4375 6.3125 C-7.4375 4.6625 -7.4375 3.0125 -7.4375 1.3125 C-4.86465862 0.02607931 -2.87221047 0.07247277 0 0 Z " fill="#54575A" transform="translate(826.4375,637.6875)"/>
<path d="M0 0 C0.66 0.66 1.32 1.32 2 2 C2.99 2 3.98 2 5 2 C4.01 3.485 4.01 3.485 3 5 C3.66 5.33 4.32 5.66 5 6 C-0.94 6 -6.88 6 -13 6 C-5 0 -5 0 0 0 Z " fill="#303B4A" transform="translate(129,576)"/>
<path d="M0 0 C4.35702755 1.54735558 6.58702068 4.93129807 9.25 8.5 C9.93835938 9.39138672 9.93835938 9.39138672 10.640625 10.30078125 C14 14.72995722 14 14.72995722 14 17 C12.35 17.66 10.7 18.32 9 19 C8.52820313 17.82244141 8.52820313 17.82244141 8.046875 16.62109375 C5.68774858 10.82986473 3.27173331 5.33171353 0 0 Z " fill="#E9EFF5" transform="translate(178,507)"/>
<path d="M0 0 C-0.99 0.495 -0.99 0.495 -2 1 C-2 1.66 -2 2.32 -2 3 C-2.804375 3.763125 -3.60875 4.52625 -4.4375 5.3125 C-7.07298537 8.07654563 -7.68186067 9.28837448 -8 13 C-8.66 11.68 -9.32 10.36 -10 9 C-10.99 9.495 -10.99 9.495 -12 10 C-12.31424507 6.54330418 -12.37956836 4.60098323 -10.5 1.625 C-6.86748926 -0.73613198 -4.28156703 -0.2854378 0 0 Z " fill="#43474B" transform="translate(671,638)"/>
<path d="M0 0 C9.6402439 -0.56707317 9.6402439 -0.56707317 14 3 C14.99 4.485 14.99 4.485 16 6 C14.35 7.32 12.7 8.64 11 10 C10.87625 9.195625 10.7525 8.39125 10.625 7.5625 C10.41875 6.716875 10.2125 5.87125 10 5 C7.70370006 3.85185003 5.92301914 3.69230191 3.375 3.4375 C2.55773437 3.35371094 1.74046875 3.26992188 0.8984375 3.18359375 C0.27195312 3.12300781 -0.35453125 3.06242188 -1 3 C-0.67 2.01 -0.34 1.02 0 0 Z " fill="#EEF2F2" transform="translate(967,569)"/>
<path d="M0 0 C3 2 3 2 3.75 4.9375 C4 8 4 8 3 11 C3.66 11.33 4.32 11.66 5 12 C1.80389448 12 0.58282374 11.45328458 -2.1875 10 C-2.90292969 9.62875 -3.61835938 9.2575 -4.35546875 8.875 C-4.89816406 8.58625 -5.44085938 8.2975 -6 8 C-3.375 3.125 -3.375 3.125 0 2 C0 1.34 0 0.68 0 0 Z " fill="#3D4A5B" transform="translate(191,486)"/>
<path d="M0 0 C10.56 0 21.12 0 32 0 C32 1.98 32 3.96 32 6 C31.34 4.68 30.68 3.36 30 2 C21.09 2 12.18 2 3 2 C1.5192152 4.9615696 1.64685963 7.83506295 1.4375 11.125 C1.35371094 12.40632813 1.26992188 13.68765625 1.18359375 15.0078125 C1.12300781 15.99523437 1.06242188 16.98265625 1 18 C0.67 18 0.34 18 0 18 C0 12.06 0 6.12 0 0 Z " fill="#818B93" transform="translate(596,426)"/>
<path d="M0 0 C0.99 0.99 1.98 1.98 3 3 C1.55922954 6.36179774 -0.24750021 8.59156268 -3 11 C-3.66 11 -4.32 11 -5 11 C-5.12375 10.030625 -5.2475 9.06125 -5.375 8.0625 C-5.58125 7.051875 -5.7875 6.04125 -6 5 C-6.66 4.67 -7.32 4.34 -8 4 C-7.01 3.01 -6.02 2.02 -5 1 C-5 1.66 -5 2.32 -5 3 C-4.34 3.33 -3.68 3.66 -3 4 C-2.01 2.68 -1.02 1.36 0 0 Z " fill="#303D50" transform="translate(153,560)"/>
<path d="M0 0 C4.62 0 9.24 0 14 0 C12.68 0.33 11.36 0.66 10 1 C10 2.65 10 4.3 10 6 C6.6875 6.25 6.6875 6.25 3 6 C1.0625 4.125 1.0625 4.125 0 2 C0 1.34 0 0.68 0 0 Z " fill="#EDF1F2" transform="translate(935,651)"/>
<path d="M0 0 C1.98 0 3.96 0 6 0 C6 0.66 6 1.32 6 2 C10.455 1.505 10.455 1.505 15 1 C15 1.66 15 2.32 15 3 C12.69 3.33 10.38 3.66 8 4 C9.65 4.33 11.3 4.66 13 5 C13 5.33 13 5.66 13 6 C10.69 6 8.38 6 6 6 C5.67 6.66 5.34 7.32 5 8 C4.01 7.34 3.02 6.68 2 6 C1.34 6.66 0.68 7.32 0 8 C0 5.36 0 2.72 0 0 Z " fill="#5D6063" transform="translate(582,645)"/>
<path d="M0 0 C1.79398267 0.95399078 3.58511655 1.91334026 5.375 2.875 C6.37273438 3.40867187 7.37046875 3.94234375 8.3984375 4.4921875 C11 6 11 6 13 8 C8.71 8 4.42 8 0 8 C0 5.36 0 2.72 0 0 Z " fill="#3A434E" transform="translate(52,574)"/>
<path d="M0 0 C2.31 0 4.62 0 7 0 C5.37621488 4.72373854 2.89006982 8.94181834 0 13 C-0.33 13 -0.66 13 -1 13 C-0.67 8.71 -0.34 4.42 0 0 Z " fill="#2F3943" transform="translate(52,426)"/>
<path d="M0 0 C3.15140423 0.34069235 4.60781561 0.58076841 6.8125 2.9375 C8 5 8 5 8 7 C7.34 7 6.68 7 6 7 C6 7.66 6 8.32 6 9 C5.34 9 4.68 9 4 9 C4 13.95 4 18.9 4 24 C3.67 24 3.34 24 3 24 C2.92652344 22.02966797 2.92652344 22.02966797 2.8515625 20.01953125 C2.77650532 18.28383405 2.70095877 16.54815797 2.625 14.8125 C2.5940625 13.94818359 2.563125 13.08386719 2.53125 12.19335938 C2.32654611 7.74104978 2.06277067 4.05007413 0 0 Z " fill="#EBEEEE" transform="translate(552,637)"/>
<path d="M0 0 C0.33 0.99 0.66 1.98 1 3 C-0.3125 5.1875 -0.3125 5.1875 -2 7 C-2.66 7 -3.32 7 -4 7 C-4 6.34 -4 5.68 -4 5 C-4.556875 5.556875 -5.11375 6.11375 -5.6875 6.6875 C-8.125 9.125 -10.5625 11.5625 -13 14 C-13.66 13.34 -14.32 12.68 -15 12 C-3.26213592 0 -3.26213592 0 0 0 Z " fill="#404D5A" transform="translate(129,435)"/>
<path d="M0 0 C1.32 0 2.64 0 4 0 C4 1.32 4 2.64 4 4 C4.99 4 5.98 4 7 4 C7 6.64 7 9.28 7 12 C6.71125 11.360625 6.4225 10.72125 6.125 10.0625 C5.17176549 7.84793921 5.17176549 7.84793921 3 7 C2.34 8.65 1.68 10.3 1 12 C0.67 12 0.34 12 0 12 C0 8.04 0 4.08 0 0 Z " fill="#F1F4F5" transform="translate(761,638)"/>
<path d="M0 0 C1.81242052 -0.02687279 3.62495233 -0.04633715 5.4375 -0.0625 C6.44683594 -0.07410156 7.45617187 -0.08570313 8.49609375 -0.09765625 C11 0 11 0 12 1 C12.04080783 2.99958364 12.04254356 5.00045254 12 7 C11.34 7 10.68 7 10 7 C9.79375 6.360625 9.5875 5.72125 9.375 5.0625 C8.10461791 2.65074923 8.10461791 2.65074923 4.875 2.25 C3.92625 2.1675 2.9775 2.085 2 2 C1.67 4.31 1.34 6.62 1 9 C0.67 9 0.34 9 0 9 C0 6.03 0 3.06 0 0 Z " fill="#353C3B" transform="translate(966,573)"/>
<path d="M0 0 C1.4540625 0.0309375 1.4540625 0.0309375 2.9375 0.0625 C2.1875 4.8125 2.1875 4.8125 -0.0625 7.0625 C-2.6875 6.6875 -2.6875 6.6875 -5.0625 6.0625 C-3.98897059 0.08140756 -3.98897059 0.08140756 0 0 Z " fill="#F0F2F2" transform="translate(547.0625,649.9375)"/>
<path d="M0 0 C3.3 0 6.6 0 10 0 C8.55049545 3.7910119 6.84827434 7.3874638 5 11 C4.34 9.68 3.68 8.36 3 7 C3.66 6.67 4.32 6.34 5 6 C3.27773504 2.75150023 3.27773504 2.75150023 0 2 C0 1.34 0 0.68 0 0 Z " fill="#454D5A" transform="translate(73,426)"/>
<path d="M0 0 C0.6875 1.625 0.6875 1.625 1 4 C-0.4375 7.25 -0.4375 7.25 -2 10 C-2.99 10 -3.98 10 -5 10 C-5.33 10.66 -5.66 11.32 -6 12 C-6.66 10.35 -7.32 8.7 -8 7 C-5.94766315 4.7522025 -4.99332739 3.9977758 -2 3 C-1.34 2.01 -0.68 1.02 0 0 Z " fill="#303D4E" transform="translate(173,556)"/>
<path d="M0 0 C1.96373395 2.94560093 3.49430475 5.89143197 5.0625 9.0625 C5.58972656 10.12597656 6.11695312 11.18945312 6.66015625 12.28515625 C7.10230469 13.18105469 7.54445313 14.07695313 8 15 C8.33 15.66 8.66 16.32 9 17 C3.85970212 14.85249777 0.65115978 10.81076714 -2 6 C-1.4375 2.4375 -1.4375 2.4375 0 0 Z " fill="#E8EFF2" transform="translate(85,512)"/>
<path d="M0 0 C0.33 0 0.66 0 1 0 C1 3.96 1 7.92 1 12 C-1.31 10.35 -3.62 8.7 -6 7 C-5.02433888 5.83040013 -4.044375 4.66438823 -3.0625 3.5 C-2.51722656 2.8503125 -1.97195312 2.200625 -1.41015625 1.53125 C-0.71212891 0.77328125 -0.71212891 0.77328125 0 0 Z " fill="#3C4653" transform="translate(207,497)"/>
<path d="M0 0 C0 1.65 0 3.3 0 5 C-4.455 5.495 -4.455 5.495 -9 6 C-9.66 4.68 -10.32 3.36 -11 2 C-9.5422647 1.664061 -8.08378894 1.33133376 -6.625 1 C-5.40683594 0.7215625 -5.40683594 0.7215625 -4.1640625 0.4375 C-2 0 -2 0 0 0 Z " fill="#42484B" transform="translate(601,655)"/>
<path d="M0 0 C1.98 0 3.96 0 6 0 C6 2.31 6 4.62 6 7 C4.02 7 2.04 7 0 7 C0 4.69 0 2.38 0 0 Z " fill="#656769" transform="translate(468,654)"/>
<path d="M0 0 C1.98 0 3.96 0 6 0 C6 2.31 6 4.62 6 7 C4.02 7 2.04 7 0 7 C0 4.69 0 2.38 0 0 Z " fill="#56595C" transform="translate(491,654)"/>
<path d="M0 0 C1.2065625 0.0309375 1.2065625 0.0309375 2.4375 0.0625 C2.5625 2.4375 2.5625 2.4375 2.4375 5.0625 C1.7775 5.7225 1.1175 6.3825 0.4375 7.0625 C-2.1875 6.6875 -2.1875 6.6875 -4.5625 6.0625 C-3.48963568 0.08511307 -3.48963568 0.08511307 0 0 Z " fill="#EDF1F4" transform="translate(827.5625,649.9375)"/>
<path d="M0 0 C2.31 0 4.62 0 7 0 C7 1.98 7 3.96 7 6 C4.69 6 2.38 6 0 6 C0 4.02 0 2.04 0 0 Z " fill="#5F6367" transform="translate(907,628)"/>
<path d="M0 0 C2.8992226 0.46761655 3.86675182 0.86675182 6 3 C6 3.99 6 4.98 6 6 C3.03 6 0.06 6 -3 6 C-1.125 1.125 -1.125 1.125 0 0 Z " fill="#E9EEF0" transform="translate(938,641)"/>
<path d="M0 0 C-1 3 -1 3 -4 5 C-4.38384509 7.93597539 -4.603843 10.68027373 -4.6875 13.625 C-4.72166016 14.42679688 -4.75582031 15.22859375 -4.79101562 16.0546875 C-4.87356878 18.03596318 -4.93845916 20.01796037 -5 22 C-5.33 22 -5.66 22 -6 22 C-6 15.73 -6 9.46 -6 3 C-6.66 3 -7.32 3 -8 3 C-8 2.34 -8 1.68 -8 1 C-3.375 -1.125 -3.375 -1.125 0 0 Z " fill="#6F7376" transform="translate(794,639)"/>
<path d="M0 0 C1.98 0 3.96 0 6 0 C6.33 1.32 6.66 2.64 7 4 C6.01 4.33 5.02 4.66 4 5 C4.309375 6.175625 4.309375 6.175625 4.625 7.375 C4.74875 8.24125 4.8725 9.1075 5 10 C4.34 10.66 3.68 11.32 3 12 C2.01 8.04 1.02 4.08 0 0 Z " fill="#5A5E61" transform="translate(634,638)"/>
<path d="M0 0 C0.33 1.32 0.66 2.64 1 4 C1.66 4 2.32 4 3 4 C2.67 7.63 2.34 11.26 2 15 C1.01 14.01 0.02 13.02 -1 12 C-1 11.34 -1 10.68 -1 10 C-1.66 10 -2.32 10 -3 10 C-3 9.34 -3 8.68 -3 8 C-2.34 8 -1.68 8 -1 8 C-0.67 5.36 -0.34 2.72 0 0 Z " fill="#585D60" transform="translate(647,645)"/>
<path d="M0 0 C0.33 1.65 0.66 3.3 1 5 C-1.64 5 -4.28 5 -7 5 C-6.625 2.5625 -6.625 2.5625 -6 0 C-3.50907189 -1.24546405 -2.58919267 -0.7767578 0 0 Z " fill="#F0F0F1" transform="translate(595,642)"/>
<path d="M0 0 C2.125 0.375 2.125 0.375 4 1 C4.33 2.65 4.66 4.3 5 6 C2.36 6 -0.28 6 -3 6 C-2.42655063 3.13275314 -2.1385485 2.1385485 0 0 Z " fill="#F0F2F3" transform="translate(522,641)"/>
<path d="M0 0 C0.6875 1.75 0.6875 1.75 1 4 C0 6.25 0 6.25 -2 8 C-5.6875 8.25 -5.6875 8.25 -9 8 C-9 6.35 -9 4.7 -9 3 C-6.36 3 -3.72 3 -1 3 C-0.67 2.01 -0.34 1.02 0 0 Z " fill="#4A4E51" transform="translate(861,653)"/>
<path d="M0 0 C0.66 0.99 1.32 1.98 2 3 C1.34 3 0.68 3 0 3 C-1.19351312 6.34329469 -1.19351312 6.34329469 -2 10 C-1.01 11.485 -1.01 11.485 0 13 C-0.33 13.99 -0.66 14.98 -1 16 C-2.98 12.7 -4.96 9.4 -7 6 C-6.34 5.67 -5.68 5.34 -5 5 C-4.34 5.33 -3.68 5.66 -3 6 C-2.690625 5.195625 -2.38125 4.39125 -2.0625 3.5625 C-1 1 -1 1 0 0 Z " fill="#3D4958" transform="translate(76,507)"/>
<path d="M0 0 C3 1.6875 3 1.6875 6 4 C6.375 6.75 6.375 6.75 6 9 C4.68 9.33 3.36 9.66 2 10 C0.39644899 6.49223216 -0.22036864 3.85645121 0 0 Z " fill="#404548" transform="translate(562,646)"/>
<path d="M0 0 C-0.66 1.32 -1.32 2.64 -2 4 C-8.93 3.505 -8.93 3.505 -16 3 C-16 2.67 -16 2.34 -16 2 C-10.42932723 0.40837921 -5.78898419 -0.20674944 0 0 Z " fill="#E3ECF6" transform="translate(166,473)"/>
<path d="M0 0 C1.98 0 3.96 0 6 0 C6 1.98 6 3.96 6 6 C4.02 6 2.04 6 0 6 C0 4.02 0 2.04 0 0 Z " fill="#636568" transform="translate(755,628)"/>
<path d="M0 0 C1.65 0 3.3 0 5 0 C5.33 0.99 5.66 1.98 6 3 C6.66 3 7.32 3 8 3 C11 6.46153846 11 6.46153846 11 9 C8.75 8.875 8.75 8.875 6 8 C3.8125 5.0625 3.8125 5.0625 2 2 C1.34 1.34 0.68 0.68 0 0 Z " fill="#3E4645" transform="translate(969,580)"/>
<path d="M0 0 C1.65 0 3.3 0 5 0 C5.25 2.3125 5.25 2.3125 5 5 C3.1875 6.875 3.1875 6.875 1 8 C0.01 7.67 -0.98 7.34 -2 7 C-1.34 4.69 -0.68 2.38 0 0 Z " fill="#4B5355" transform="translate(615,653)"/>
<path d="M0 0 C0.33 0.66 0.66 1.32 1 2 C0.05125 2.268125 -0.8975 2.53625 -1.875 2.8125 C-5.25267273 3.74986588 -5.25267273 3.74986588 -7 7 C-7.66 4.69 -8.32 2.38 -9 0 C-5.88173308 -1.55913346 -3.32926126 -0.66585225 0 0 Z " fill="#545A5D" transform="translate(829,648)"/>
<path d="M0 0 C-2.92209224 1.94806149 -5.84960716 3.45695045 -9 5 C-9.78375 5.391875 -10.5675 5.78375 -11.375 6.1875 C-11.91125 6.455625 -12.4475 6.72375 -13 7 C-12.64978759 4.46096004 -12.15988127 3.17906702 -10.4375 1.25 C-6.86000943 -0.58461055 -3.99371657 -0.19968583 0 0 Z " fill="#434849" transform="translate(973,567)"/>
<path d="M0 0 C0.66 0 1.32 0 2 0 C1.67 1.32 1.34 2.64 1 4 C1.66 4.33 2.32 4.66 3 5 C2.67 5.66 2.34 6.32 2 7 C1.01 7 0.02 7 -1 7 C-1 7.66 -1 8.32 -1 9 C-1.66 9 -2.32 9 -3 9 C-2.25 2.25 -2.25 2.25 0 0 Z " fill="#4C5154" transform="translate(608,638)"/>
<path d="M0 0 C1.32 0.66 2.64 1.32 4 2 C4 2.99 4 3.98 4 5 C3.34 5 2.68 5 2 5 C1.34 6.32 0.68 7.64 0 9 C-0.33 7.68 -0.66 6.36 -1 5 C-3.97 4.505 -3.97 4.505 -7 4 C-7 3.67 -7 3.34 -7 3 C-6.21625 2.87625 -5.4325 2.7525 -4.625 2.625 C-1.85942178 2.20882007 -1.85942178 2.20882007 0 0 Z " fill="#5A5E60" transform="translate(830,638)"/>
<path d="M0 0 C1.98 0 3.96 0 6 0 C6 1.65 6 3.3 6 5 C5.34 5 4.68 5 4 5 C4 5.66 4 6.32 4 7 C3.34 7 2.68 7 2 7 C1.34 4.69 0.68 2.38 0 0 Z " fill="#474C4F" transform="translate(717,638)"/>
<path d="M0 0 C1.65 0 3.3 0 5 0 C5 1.98 5 3.96 5 6 C3.35 6 1.7 6 0 6 C0 4.02 0 2.04 0 0 Z " fill="#424649" transform="translate(480,655)"/>
<path d="M0 0 C0.66 0 1.32 0 2 0 C2.33 1.65 2.66 3.3 3 5 C2.01 5.66 1.02 6.32 0 7 C1.32 7.33 2.64 7.66 4 8 C1.69 8 -0.62 8 -3 8 C-2.67 6.02 -2.34 4.04 -2 2 C-1.34 2 -0.68 2 0 2 C0 1.34 0 0.68 0 0 Z " fill="#555C5E" transform="translate(726,653)"/>
<path d="M0 0 C0.99 0 1.98 0 3 0 C4.10348268 3.31044803 3.99444068 5.65506316 3 9 C2.01 9.495 2.01 9.495 1 10 C1 8.35 1 6.7 1 5 C-0.32 4.67 -1.64 4.34 -3 4 C-1.6875 2 -1.6875 2 0 0 Z " fill="#5F6467" transform="translate(540,647)"/>
<path d="M0 0 C3.63 0 7.26 0 11 0 C11 0.66 11 1.32 11 2 C10.06027344 2.18175781 10.06027344 2.18175781 9.1015625 2.3671875 C8.28429687 2.53476562 7.46703125 2.70234375 6.625 2.875 C5.81289063 3.03742187 5.00078125 3.19984375 4.1640625 3.3671875 C1.81326077 3.86658932 1.81326077 3.86658932 0 6 C0 4.02 0 2.04 0 0 Z " fill="#404649" transform="translate(514,648)"/>
<path d="M0 0 C0.33 0 0.66 0 1 0 C1 5.61 1 11.22 1 17 C0.67 17 0.34 17 0 17 C-0.33 13.04 -0.66 9.08 -1 5 C-2.98 5.99 -2.98 5.99 -5 7 C-4.34 5.02 -3.68 3.04 -3 1 C-2.67 1.66 -2.34 2.32 -2 3 C-1.34 3 -0.68 3 0 3 C0 2.01 0 1.02 0 0 Z " fill="#EEF1F4" transform="translate(870,638)"/>
<path d="M0 0 C1.32 0.33 2.64 0.66 4 1 C3.34 2.32 2.68 3.64 2 5 C1.34 4.34 0.68 3.68 0 3 C0 2.01 0 1.02 0 0 Z M-3 4 C0 5 0 5 1.1875 7.0625 C1.455625 7.701875 1.72375 8.34125 2 9 C0.35 8.67 -1.3 8.34 -3 8 C-3 6.68 -3 5.36 -3 4 Z " fill="#2B3848" transform="translate(61,553)"/>
<path d="M0 0 C0.99 0 1.98 0 3 0 C2.39053254 5.4852071 2.39053254 5.4852071 0.625 7.8125 C-1 9 -1 9 -4 10 C-4 6.42188369 -3.13534858 5.73324619 -1 3 C-0.67 2.01 -0.34 1.02 0 0 Z " fill="#54575C" transform="translate(317,475)"/>
<path d="M0 0 C0.99 1.32 1.98 2.64 3 4 C-2.445 6.475 -2.445 6.475 -8 9 C-5.73106888 4.46213776 -3.90133466 3.05321843 0 0 Z " fill="#D9E2E9" transform="translate(134,466)"/>
<path d="M0 0 C0.33 0 0.66 0 1 0 C1 1.65 1 3.3 1 5 C-0.32 5 -1.64 5 -3 5 C-3.33 6.32 -3.66 7.64 -4 9 C-5.32 8.67 -6.64 8.34 -8 8 C-8 6.68 -8 5.36 -8 4 C-5.36 4 -2.72 4 0 4 C0 2.68 0 1.36 0 0 Z " fill="#D9DDDC" transform="translate(619,638)"/>
<path d="M0 0 C0.33 0 0.66 0 1 0 C1 2.64 1 5.28 1 8 C1.66 8 2.32 8 3 8 C2.125 15.75 2.125 15.75 1 18 C0.34 17.67 -0.32 17.34 -1 17 C-0.67 11.39 -0.34 5.78 0 0 Z " fill="#4C5662" transform="translate(203,560)"/>
<path d="M0 0 C3.74392306 1.87196153 4.60045413 2.40068119 6.75 5.625 C7.39195312 6.57246094 7.39195312 6.57246094 8.046875 7.5390625 C8.51867187 8.26222656 8.51867187 8.26222656 9 9 C8.01 9.66 7.02 10.32 6 11 C4.02 7.37 2.04 3.74 0 0 Z " fill="#D2DFE5" transform="translate(178,507)"/>
<path d="M0 0 C1.43793392 0.31049726 2.8753318 0.6234776 4.3125 0.9375 C5.11300781 1.11152344 5.91351563 1.28554688 6.73828125 1.46484375 C9 2 9 2 12 3 C11.34 4.32 10.68 5.64 10 7 C8.33073546 6.02526874 6.66464358 5.04510211 5 4.0625 C4.071875 3.51722656 3.14375 2.97195313 2.1875 2.41015625 C1.465625 1.94480469 0.74375 1.47945313 0 1 C0 0.67 0 0.34 0 0 Z " fill="#E5EDF2" transform="translate(169,488)"/>
<path d="M0 0 C1.98 0 3.96 0 6 0 C6.33 1.32 6.66 2.64 7 4 C4.69 4 2.38 4 0 4 C0 2.68 0 1.36 0 0 Z " fill="#D6DCDE" transform="translate(968,575)"/>
<path d="M0 0 C1.65 0 3.3 0 5 0 C5 1.98 5 3.96 5 6 C3.68 5.34 2.36 4.68 1 4 C0.67 4.99 0.34 5.98 0 7 C0 4.69 0 2.38 0 0 Z " fill="#3D4546" transform="translate(783,628)"/>
<path d="M0 0 C1.21386936 3.64160808 0.6674695 4.33165469 -0.9375 7.6875 C-1.31777344 8.49574219 -1.69804687 9.30398438 -2.08984375 10.13671875 C-2.39019531 10.75160156 -2.69054687 11.36648438 -3 12 C-3.99 12 -4.98 12 -6 12 C-6 8.36804504 -5.04546845 7.25286089 -3 4.3125 C-2.443125 3.50425781 -1.88625 2.69601562 -1.3125 1.86328125 C-0.879375 1.24839844 -0.44625 0.63351562 0 0 Z " fill="#D5E0E9" transform="translate(165,551)"/>
<path d="M0 0 C0.5534764 2.07553648 1 3.84365964 1 6 C1.66 6.33 2.32 6.66 3 7 C0.04335481 8.4783226 -2.74229737 8.06032783 -6 8 C-5.566875 7.608125 -5.13375 7.21625 -4.6875 6.8125 C-2.73633776 4.71680722 -1.40989838 2.48410667 0 0 Z " fill="#595E60" transform="translate(672,653)"/>
<path d="M0 0 C0 2.31 0 4.62 0 7 C-0.99 7.495 -0.99 7.495 -2 8 C-2 7.34 -2 6.68 -2 6 C-2.66 6 -3.32 6 -4 6 C-4.33 4.35 -4.66 2.7 -5 1 C-2 0 -2 0 0 0 Z " fill="#4A4F52" transform="translate(774,631)"/>
<path d="M0 0 C0.66 0.33 1.32 0.66 2 1 C2 1.99 2 2.98 2 4 C-3.2734375 7.22265625 -3.2734375 7.22265625 -5 8 C-5.66 7.67 -6.32 7.34 -7 7 C-6.67 5.68 -6.34 4.36 -6 3 C-4.35 3 -2.7 3 -1 3 C-0.67 2.01 -0.34 1.02 0 0 Z " fill="#7D8995" transform="translate(609,569)"/>
<path d="M0 0 C1.4370809 -0.05422947 2.87475462 -0.09289723 4.3125 -0.125 C5.11300781 -0.14820313 5.91351562 -0.17140625 6.73828125 -0.1953125 C9 0 9 0 12 2 C11.67 2.66 11.34 3.32 11 4 C2.83035714 3.33035714 2.83035714 3.33035714 0 0 Z " fill="#595E5F" transform="translate(967,566)"/>
<path d="M0 0 C0.33 0 0.66 0 1 0 C1 3.63 1 7.26 1 11 C0.01 11 -0.98 11 -2 11 C-2.19622241 6.78121808 -1.80230168 3.82989106 0 0 Z " fill="#444B4E" transform="translate(759,648)"/>
<path d="M0 0 C1.65 0 3.3 0 5 0 C5 0.99 5 1.98 5 3 C4.34 3 3.68 3 3 3 C2.67 3.99 2.34 4.98 2 6 C1.01 5.34 0.02 4.68 -1 4 C-0.67 2.68 -0.34 1.36 0 0 Z " fill="#464D50" transform="translate(885,642)"/>
<path d="M0 0 C0.80824219 0.28746094 1.61648437 0.57492187 2.44921875 0.87109375 C3.06410156 1.09925781 3.67898437 1.32742188 4.3125 1.5625 C4.3125 1.8925 4.3125 2.2225 4.3125 2.5625 C0.3525 2.2325 -3.6075 1.9025 -7.6875 1.5625 C-7.6875 0.9025 -7.6875 0.2425 -7.6875 -0.4375 C-4.20878379 -1.59707207 -3.34530355 -1.21206651 0 0 Z " fill="#404956" transform="translate(89.6875,569.4375)"/>
<path d="M0 0 C0.99 1.32 1.98 2.64 3 4 C1.02 8.455 1.02 8.455 -1 13 C-1.96697501 9.13209997 -1.979595 7.91837998 -1.0625 4.25 C-0.86785156 3.45078125 -0.67320312 2.6515625 -0.47265625 1.828125 C-0.31667969 1.22484375 -0.16070312 0.6215625 0 0 Z " fill="#333F4D" transform="translate(182,559)"/>
<path d="M0 0 C3.465 1.98 3.465 1.98 7 4 C6.67 4.66 6.34 5.32 6 6 C3.625 5.6875 3.625 5.6875 1 5 C0.34 4.01 -0.32 3.02 -1 2 C-0.67 1.34 -0.34 0.68 0 0 Z " fill="#4B4E51" transform="translate(342,505)"/>
<path d="M0 0 C0 1.32 0 2.64 0 4 C-1.32 4.33 -2.64 4.66 -4 5 C-4.33 4.01 -4.66 3.02 -5 2 C-5.99 1.67 -6.98 1.34 -8 1 C-5.23735711 0.40267181 -2.83967231 0 0 0 Z " fill="#4E5356" transform="translate(948,656)"/>
<path d="M0 0 C2.475 0.99 2.475 0.99 5 2 C4.67 2.99 4.34 3.98 4 5 C1.69 5 -0.62 5 -3 5 C-2.01 3.35 -1.02 1.7 0 0 Z " fill="#515759" transform="translate(614,647)"/>
<path d="M0 0 C1.97265625 0.265625 1.97265625 0.265625 4.97265625 2.265625 C1.85085224 3.23223863 -0.5481817 3.25551409 -3.77734375 2.828125 C-4.97617188 2.67537109 -4.97617188 2.67537109 -6.19921875 2.51953125 C-6.8025 2.43574219 -7.40578125 2.35195313 -8.02734375 2.265625 C-5.42029477 -0.34142398 -3.55396134 0.02657167 0 0 Z " fill="#333D4E" transform="translate(158.02734375,475.734375)"/>
<path d="M0 0 C-0.33 0.66 -0.66 1.32 -1 2 C-3.02488628 2.28926947 -5.05244016 2.57272154 -7.08984375 2.75390625 C-9.08252033 2.90406878 -9.08252033 2.90406878 -11 4 C-13.125 3.0625 -13.125 3.0625 -15 2 C-13.43883181 1.66048381 -11.87598662 1.32867456 -10.3125 1 C-9.44238281 0.814375 -8.57226562 0.62875 -7.67578125 0.4375 C-5.06287036 0.01027953 -2.64186962 -0.07616201 0 0 Z " fill="#4E5864" transform="translate(160,464)"/>
<path d="M0 0 C-4.1839665 2.06440531 -7.20635871 2.0902668 -11.8125 1.625 C-12.97394531 1.51414062 -14.13539063 1.40328125 -15.33203125 1.2890625 C-16.21246094 1.19367187 -17.09289062 1.09828125 -18 1 C-18 0.67 -18 0.34 -18 0 C-15.75067773 -0.1954625 -13.50049858 -0.38108226 -11.25 -0.5625 C-9.99703125 -0.66691406 -8.7440625 -0.77132812 -7.453125 -0.87890625 C-4.60547636 -0.97876723 -2.65713933 -0.90584295 0 0 Z " fill="#97A1A9" transform="translate(582,554)"/>
<path d="M0 0 C0.66 0.66 1.32 1.32 2 2 C2.66 1.67 3.32 1.34 4 1 C4 2.98 4 4.96 4 7 C2.68 7.33 1.36 7.66 0 8 C0 5.36 0 2.72 0 0 Z " fill="#3C4244" transform="translate(769,641)"/>
<path d="M0 0 C0.33 1.32 0.66 2.64 1 4 C1.99 4 2.98 4 4 4 C4 6.64 4 9.28 4 12 C3.71125 11.38125 3.4225 10.7625 3.125 10.125 C2.06279958 7.86674235 2.06279958 7.86674235 0 6 C-0.125 2.875 -0.125 2.875 0 0 Z " fill="#DCE0E0" transform="translate(764,638)"/>
<path d="M0 0 C1.65 0 3.3 0 5 0 C4.67 2.64 4.34 5.28 4 8 C3.34 6.68 2.68 5.36 2 4 C1.01 4.495 1.01 4.495 0 5 C0 3.35 0 1.7 0 0 Z " fill="#3C4144" transform="translate(659,643)"/>
<path d="M0 0 C-0.375 1.9375 -0.375 1.9375 -1 4 C-1.99 4.495 -1.99 4.495 -3 5 C-3 4.34 -3 3.68 -3 3 C-3.99 3.33 -4.98 3.66 -6 4 C-6 2.68 -6 1.36 -6 0 C-2.25 -1.125 -2.25 -1.125 0 0 Z " fill="#5C5F63" transform="translate(893,639)"/>
<path d="M0 0 C0.99 0 1.98 0 3 0 C3 0.99 3 1.98 3 3 C4.32 3.33 5.64 3.66 7 4 C4.36 4.33 1.72 4.66 -1 5 C-0.67 3.35 -0.34 1.7 0 0 Z " fill="#5B5F62" transform="translate(540,638)"/>
<path d="M0 0 C0 0.99 0 1.98 0 3 C-2.97 3 -5.94 3 -9 3 C-9 2.34 -9 1.68 -9 1 C-5.94152152 0.45627049 -3.11227195 0 0 0 Z " fill="#4B4E4F" transform="translate(978,592)"/>
<path d="M0 0 C0.33 1.32 0.66 2.64 1 4 C2.65 4.33 4.3 4.66 6 5 C3.36095629 6.41377341 0.92879371 7.37240135 -2 8 C-1.67 6.35 -1.34 4.7 -1 3 C-1.66 2.67 -2.32 2.34 -3 2 C-2.01 1.34 -1.02 0.68 0 0 Z " fill="#E8EFF4" transform="translate(143,460)"/>
<path d="M0 0 C0.99 0.33 1.98 0.66 3 1 C2.01 1.495 2.01 1.495 1 2 C0.27113266 4.7696959 0 7.12862585 0 10 C-0.66 9.67 -1.32 9.34 -2 9 C-1.125 1.125 -1.125 1.125 0 0 Z " fill="#303D49" transform="translate(86,455)"/>
<path d="M0 0 C0 1.65 0 3.3 0 5 C-1.65 5.33 -3.3 5.66 -5 6 C-4.625 3.5625 -4.625 3.5625 -4 1 C-2 0 -2 0 0 0 Z " fill="#5C5F62" transform="translate(601,655)"/>
<path d="M0 0 C-0.8125 2.9375 -0.8125 2.9375 -2 6 C-2.99 6.33 -3.98 6.66 -5 7 C-5.33 5.68 -5.66 4.36 -6 3 C-2.25 0 -2.25 0 0 0 Z " fill="#535659" transform="translate(570,653)"/>
<path d="M0 0 C1.98 0 3.96 0 6 0 C6.33 1.32 6.66 2.64 7 4 C4.69 3.67 2.38 3.34 0 3 C0 2.01 0 1.02 0 0 Z " fill="#484D50" transform="translate(520,638)"/>
<path d="M0 0 C1.98 0 3.96 0 6 0 C6 1.32 6 2.64 6 4 C3.03 3.505 3.03 3.505 0 3 C0 2.01 0 1.02 0 0 Z " fill="#3E4648" transform="translate(938,638)"/>
<path d="M0 0 C1 3 1 3 -0.25 6.625 C-2 10 -2 10 -5 11 C-3.77472971 6.94718288 -2.30119506 3.55639236 0 0 Z " fill="#444E57" transform="translate(72,428)"/>
<path d="M0 0 C0.99 0 1.98 0 3 0 C3.66 1.65 4.32 3.3 5 5 C3.35 4.67 1.7 4.34 0 4 C0 2.68 0 1.36 0 0 Z " fill="#5C5E60" transform="translate(605,656)"/>
<path d="M0 0 C1.32 0.66 2.64 1.32 4 2 C3.34 3.32 2.68 4.64 2 6 C0.68 5.34 -0.64 4.68 -2 4 C-1.34 3.67 -0.68 3.34 0 3 C0 2.01 0 1.02 0 0 Z " fill="#53595C" transform="translate(944,639)"/>
<path d="M0 0 C2.475 0.495 2.475 0.495 5 1 C5 1.66 5 2.32 5 3 C6.98 3 8.96 3 11 3 C11 3.33 11 3.66 11 4 C3.57142857 4.28571429 3.57142857 4.28571429 0 2 C0 1.34 0 0.68 0 0 Z " fill="#727474" transform="translate(964,592)"/>
<path d="M0 0 C0.66 0.33 1.32 0.66 2 1 C-1.625 5.875 -1.625 5.875 -5 7 C-3.75023244 3.34683329 -3.32901247 2.21934164 0 0 Z " fill="#E6E7EA" transform="translate(318,543)"/>
<path d="M0 0 C3.26954202 0.56371414 4.82575883 1.49962266 7 4 C3.25 5.125 3.25 5.125 1 4 C0.375 1.9375 0.375 1.9375 0 0 Z " fill="#404B5A" transform="translate(170,490)"/>
<path d="M0 0 C0.33 0 0.66 0 1 0 C1.25 3.25 1.25 3.25 1 7 C-0.32 8.32 -1.64 9.64 -3 11 C-2.01 7.37 -1.02 3.74 0 0 Z " fill="#D6D9DC" transform="translate(909,459)"/>
<path d="M0 0 C2.475 0.99 2.475 0.99 5 2 C4.34 3.65 3.68 5.3 3 7 C2.01 6.34 1.02 5.68 0 5 C-0.1875 2.375 -0.1875 2.375 0 0 Z " fill="#334150" transform="translate(98,438)"/>
<path d="M0 0 C1.65 0 3.3 0 5 0 C3.68 2.31 2.36 4.62 1 7 C0.67 7 0.34 7 0 7 C0 4.69 0 2.38 0 0 Z " fill="#484F56" transform="translate(51,432)"/>
<path d="M0 0 C2.31 0 4.62 0 7 0 C7 3.10551666 6.4606285 4.35261084 5 7 C4 4 4 4 5 1 C3.35 1 1.7 1 0 1 C0 0.67 0 0.34 0 0 Z " fill="#E5E7E8" transform="translate(650,637)"/>
<path d="M0 0 C1.32 1.32 2.64 2.64 4 4 C3.01 5.485 3.01 5.485 2 7 C1.01 6.67 0.02 6.34 -1 6 C-0.67 4.02 -0.34 2.04 0 0 Z " fill="#E8EDF1" transform="translate(187,576)"/>
<path d="M0 0 C0.99 0.33 1.98 0.66 3 1 C3 2.98 3 4.96 3 7 C2.34 7 1.68 7 1 7 C-0.0625 4.625 -0.0625 4.625 -1 2 C-0.67 1.34 -0.34 0.68 0 0 Z " fill="#434949" transform="translate(975,573)"/>
<path d="M0 0 C0.99 0.99 1.98 1.98 3 3 C1.68 4.32 0.36 5.64 -1 7 C-1.66 6.67 -2.32 6.34 -3 6 C-3 5.34 -3 4.68 -3 4 C-2.01 3.34 -1.02 2.68 0 2 C0 1.34 0 0.68 0 0 Z " fill="#4D5255" transform="translate(343,489)"/>
<path d="M0 0 C2.64 0 5.28 0 8 0 C7.34 1.32 6.68 2.64 6 4 C4.68 3.67 3.36 3.34 2 3 C2.66 3 3.32 3 4 3 C4 2.34 4 1.68 4 1 C2.68 0.67 1.36 0.34 0 0 Z " fill="#CBD2DC" transform="translate(158,473)"/>
<path d="M0 0 C0.66 0.33 1.32 0.66 2 1 C2 3.31 2 5.62 2 8 C0.4375 6.8125 0.4375 6.8125 -1 5 C-0.6875 2.3125 -0.6875 2.3125 0 0 Z " fill="#2B3847" transform="translate(206,470)"/>
<path d="M0 0 C0.33 0 0.66 0 1 0 C1 1.65 1 3.3 1 5 C0.01 5 -0.98 5 -2 5 C-1.125 1.125 -1.125 1.125 0 0 Z M-4 2 C-3.34 3.32 -2.68 4.64 -2 6 C-2.66 6 -3.32 6 -4 6 C-4 4.68 -4 3.36 -4 2 Z " fill="#4A5866" transform="translate(65,453)"/>
<path d="M0 0 C0.66 0 1.32 0 2 0 C2.33 1.98 2.66 3.96 3 6 C2.01 6 1.02 6 0 6 C0 4.02 0 2.04 0 0 Z " fill="#4E5658" transform="translate(536,651)"/>
<path d="M0 0 C0.99 0.33 1.98 0.66 3 1 C3 2.98 3 4.96 3 7 C2.01 6.67 1.02 6.34 0 6 C0 4.02 0 2.04 0 0 Z " fill="#616466" transform="translate(530,644)"/>
<path d="M0 0 C0.99 0 1.98 0 3 0 C3 1.32 3 2.64 3 4 C1.35 4 -0.3 4 -2 4 C-1 1 -1 1 0 0 Z " fill="#47494C" transform="translate(758,629)"/>
<path d="M0 0 C1.37562854 1.28965176 2.70766393 2.62689293 4 4 C4 4.66 4 5.32 4 6 C2.35 5.67 0.7 5.34 -1 5 C-0.67 3.35 -0.34 1.7 0 0 Z " fill="#696D6C" transform="translate(976,583)"/>
<path d="M0 0 C0.66 0.99 1.32 1.98 2 3 C0.625 5.5 0.625 5.5 -1 8 C-1.66 8 -2.32 8 -3 8 C-1.125 1.125 -1.125 1.125 0 0 Z " fill="#454F5A" transform="translate(179,573)"/>
<path d="M0 0 C0.99 0.99 1.98 1.98 3 3 C1.35 4.32 -0.3 5.64 -2 7 C-2.125 4.625 -2.125 4.625 -2 2 C-1.34 1.34 -0.68 0.68 0 0 Z " fill="#DFE3E3" transform="translate(980,572)"/>
<path d="M0 0 C2.9719385 1.12451727 5.33440687 2.22293791 8 4 C6.35 4.33 4.7 4.66 3 5 C2.67 4.01 2.34 3.02 2 2 C1.34 2 0.68 2 0 2 C0 1.34 0 0.68 0 0 Z " fill="#47525F" transform="translate(82,540)"/>
<path d="M0 0 C3.465 1.98 3.465 1.98 7 4 C3.37673261 5.2077558 2.35853631 4.54311128 -1 3 C-0.67 2.01 -0.34 1.02 0 0 Z " fill="#E4ECF1" transform="translate(94,542)"/>
<path d="M0 0 C0.99 0 1.98 0 3 0 C4.32 2.31 5.64 4.62 7 7 C3.17053157 5.54744301 1.87949705 3.57104439 0 0 Z " fill="#C5D1D9" transform="translate(87,522)"/>
<path d="M0 0 C0.66 1.32 1.32 2.64 2 4 C-2.455 3.01 -2.455 3.01 -7 2 C-4 0 -4 0 0 0 Z " fill="#DCDFE2" transform="translate(332,426)"/>
</svg>
