<?xml version="1.0" encoding="UTF-8"?>
<svg version="1.1" xmlns="http://www.w3.org/2000/svg" width="1028" height="1024">
<path d="M0 0 C339.24 0 678.48 0 1028 0 C1028 337.92 1028 675.84 1028 1024 C688.76 1024 349.52 1024 0 1024 C0 686.08 0 348.16 0 0 Z " fill="#FDFDFD" transform="translate(0,0)"/>
<path d="M0 0 C105.93 0 211.86 0 321 0 C321 28.05 321 56.1 321 85 C307.8 85 294.6 85 281 85 C267.97211812 85.78315613 267.97211812 85.78315613 255 87 C259.50159096 81.35491809 264.37160127 77.08616675 270.125 72.75 C270.92292969 72.13898438 271.72085937 71.52796875 272.54296875 70.8984375 C276.01325793 68.24502774 279.50395237 65.61934194 283 63 C281.794646 63.42522949 280.58929199 63.85045898 279.34741211 64.28857422 C274.8665738 65.85824838 270.37016655 67.37820247 265.86743164 68.88378906 C263.92208201 69.54191085 261.98119555 70.21338341 260.04516602 70.8984375 C257.25827272 71.88196281 254.45876212 72.81608718 251.65234375 73.7421875 C250.36129982 74.21517776 250.36129982 74.21517776 249.04417419 74.69772339 C246.57157816 75.48358854 244.59654523 76.02866729 242 76 C239.15345027 74.42541739 237.2077348 72.35136639 235 70 C233.36165371 68.95424705 231.70632228 67.93072125 230 67 C229.81824219 67.58007812 229.63648438 68.16015625 229.44921875 68.7578125 C229.19785156 69.53898437 228.94648437 70.32015625 228.6875 71.125 C228.44386719 71.89070313 228.20023438 72.65640625 227.94921875 73.4453125 C226.84423487 76.41921973 225.45689039 79.18416143 224 82 C224.88042969 81.6390625 225.76085937 81.278125 226.66796875 80.90625 C228.41013672 80.21015625 228.41013672 80.21015625 230.1875 79.5 C231.91033203 78.80390625 231.91033203 78.80390625 233.66796875 78.09375 C238.86217436 76.38873526 238.86217436 76.38873526 242 77 C244.67578125 79.1875 244.67578125 79.1875 247.3125 82 C248.19550781 82.928125 249.07851563 83.85625 249.98828125 84.8125 C250.65214844 85.534375 251.31601562 86.25625 252 87 C248.6061911 90.44602134 245.12168651 93.77119052 241.57983398 97.06445312 C230.43989108 107.43156984 219.70719947 118.19031666 209 129 C207.47136239 125.94272479 208.69979887 123.96419784 209.66015625 120.734375 C209.84710556 120.10452698 210.03405487 119.47467896 210.22666931 118.82574463 C210.62752392 117.48299488 211.03214686 116.14136536 211.44018555 114.80078125 C212.0465061 112.80270645 212.63644687 110.80035794 213.22460938 108.796875 C215.8818414 99.89504431 219.15877315 91.46140346 223 83 C220.49454953 83.76162098 217.98916514 84.52345775 215.48388672 85.28564453 C213.35423897 85.93322795 211.22435251 86.58002683 209.09423828 87.22607422 C203.84135315 88.82114489 198.60151498 90.44529665 193.375 92.125 C160.08401755 102.27205691 124.45090362 107.28329019 89.6875 107.25 C89.01520355 107.24940582 88.3429071 107.24881165 87.65023804 107.24819946 C77.7363445 107.21452279 67.88400174 106.70383717 58 106 C63.94647083 109.87298382 69.60818303 113.23976516 76.625 114.8125 C81.07260323 116.37739743 82.35604025 118.15424037 85 122 C85 122.66 85 123.32 85 124 C93.0797232 124.96696342 101.18217595 125.63364988 109.29077148 126.30224609 C111.66468296 126.49811737 114.0384049 126.6961688 116.41210938 126.89453125 C117.966135 127.02356808 119.52017114 127.15247824 121.07421875 127.28125 C121.76118332 127.338573 122.44814789 127.395896 123.15592957 127.45495605 C125.43685764 127.64241 127.71835175 127.82152329 130 128 C131.03642639 128.08454941 132.07285278 128.16909882 133.14068604 128.25621033 C141.81386777 128.92833272 150.45143375 129.20509539 159.1484375 129.31640625 C160.54090887 129.33705309 161.93337508 129.35805108 163.32583618 129.37937927 C166.9390842 129.43380413 170.55238098 129.48355407 174.16571045 129.53222656 C177.87353705 129.58303414 181.58129543 129.63840645 185.2890625 129.69335938 C192.52598342 129.79996285 199.76296222 129.90161243 207 130 C202.81275974 136.3930733 202.81275974 136.3930733 200.37109375 139.15625 C199.89929688 139.69620605 199.4275 140.23616211 198.94140625 140.79248047 C198.44511719 141.35596191 197.94882812 141.91944336 197.4375 142.5 C189.0452158 152.17015345 181.26210474 162.27396245 173.5625 172.5 C173.06621094 173.1585498 172.56992187 173.81709961 172.05859375 174.49560547 C169.24514158 178.25552293 166.56703097 182.06752703 164 186 C164.6084375 185.5875 165.216875 185.175 165.84375 184.75 C191.11412442 168.10128273 222.34116802 156.29286953 252.67578125 154.55859375 C254.3626001 154.45949707 254.3626001 154.45949707 256.08349609 154.35839844 C258.27120253 154.24692701 260.46078833 154.16666416 262.65087891 154.12207031 C268.12071345 153.97798529 268.12071345 153.97798529 272.8293457 151.53710938 C274.35102764 149.74943832 274.35102764 149.74943832 275.68139648 147.82055664 C277.73278834 144.98826095 280.47255626 143.09711401 283.3125 141.125 C283.90788574 140.70718262 284.50327148 140.28936523 285.11669922 139.85888672 C309.76051819 123 309.76051819 123 322 123 C322 154.35 322 185.7 322 218 C316.40114939 213.80086204 311.79763391 210.01869393 307.1875 204.9375 C306.58349365 204.27903076 305.9794873 203.62056152 305.35717773 202.94213867 C303.5600511 200.9713491 301.77682152 198.98910118 300 197 C299.5162793 196.45956055 299.03255859 195.91912109 298.53417969 195.36230469 C288.96791164 184.58214826 279.99354596 172.99031894 272 161 C267.83821865 160.58140691 264.39947085 161.25616163 260.4296875 162.46875 C258.85368774 162.94779785 258.85368774 162.94779785 257.24584961 163.43652344 C256.13346924 163.7874707 255.02108887 164.13841797 253.875 164.5 C252.13391968 165.04575684 252.13391968 165.04575684 250.35766602 165.60253906 C212.76512586 177.59118983 177.72683701 196.25755775 147 221 C146.48356934 221.4120166 145.96713867 221.8240332 145.43505859 222.24853516 C128.66080039 235.74572035 112.55645464 251.48006449 100 269 C98.53091876 271.02093165 97.0588027 273.03960073 95.5847168 275.05688477 C94.64589683 276.34680047 93.7132324 277.6412309 92.78833008 278.94116211 C87.71571539 285.99833454 82.71782247 289.96664755 74.875 293.625 C64.56167721 298.4631364 54.81051344 304.22898647 45 310 C52.75449499 310.30616243 60.50741534 310.51517103 68.26660156 310.65917969 C70.90130843 310.71925023 73.53561988 310.80093784 76.16894531 310.90527344 C92.59319802 312.33296978 92.59319802 312.33296978 106.9025116 305.93765259 C109.15444079 303.42026613 111.06502995 300.77004339 113 298 C115.20967799 295.92812051 117.51782381 294.21144151 119.9375 292.375 C120.52337891 291.92809814 121.10925781 291.48119629 121.71289062 291.02075195 C122.90644539 290.11032919 124.10219244 289.20277211 125.30029297 288.29833984 C126.8882193 287.08538491 128.44733986 285.8349761 130.00390625 284.58203125 C160.29031409 260.37659708 196.74555522 241.78265511 232 226 C232.71172363 225.67999023 233.42344727 225.35998047 234.15673828 225.03027344 C236.20019075 224.12363497 238.25263269 223.2436064 240.3125 222.375 C241.46363281 221.88773438 242.61476563 221.40046875 243.80078125 220.8984375 C247.42903442 219.87951414 249.41185596 219.88762613 253 221 C255.140625 222.609375 255.140625 222.609375 257.25 224.75 C267.52127253 234.42428352 279.42960368 242.18172776 291.375 249.625 C292.13852783 250.10227539 292.90205566 250.57955078 293.6887207 251.07128906 C302.9418491 256.73681589 312.47110392 261.75910716 322 267 C322 286.14 322 305.28 322 325 C215.74 325 109.48 325 0 325 C0 248.77 0 172.54 0 94 C11 95 11 95 16.06494141 95.52636719 C29.52783298 96.90898033 42.84720481 97.32202155 56.375 97.25 C57.40015717 97.24723053 58.42531433 97.24446106 59.48153687 97.24160767 C74.39472522 97.19441817 89.19554433 96.96973013 104 95 C104.84208008 94.89284668 105.68416016 94.78569336 106.55175781 94.67529297 C122.44854433 92.94692961 122.44854433 92.94692961 135 84 C135.33 83.01 135.66 82.02 136 81 C91.12 80.67 46.24 80.34 0 80 C0 53.6 0 27.2 0 0 Z " fill="#0F1110" transform="translate(352,281)"/>
<path d="M0 0 C4.95 0 9.9 0 15 0 C15 107.58 15 215.16 15 326 C-91.26 326 -197.52 326 -307 326 C-307 320.72 -307 315.44 -307 310 C-205.69 310 -104.38 310 0 310 C0 207.7 0 105.4 0 0 Z " fill="#929392" transform="translate(682,304)"/>
<path d="M0 0 C106.59 0 213.18 0 323 0 C323 28.38 323 56.76 323 86 C322.67 86 322.34 86 322 86 C322 57.95 322 29.9 322 1 C216.07 1 110.14 1 1 1 C1 27.4 1 53.8 1 81 C46.21 81 91.42 81 138 81 C134.43142775 89.32666858 133.37307679 89.64613849 125.62426758 93.04077148 C120.81221394 94.79968475 115.73653937 95.30239848 110.6875 96.0625 C109.60404297 96.23587891 108.52058594 96.40925781 107.40429688 96.58789062 C91.9453408 98.95433493 76.52567776 99.18655593 60.92089844 99.18530273 C57.90024549 99.18748179 54.87996349 99.20569385 51.859375 99.22460938 C34.62704936 99.27526279 17.98125364 98.08750066 1 95 C1 171.23 1 247.46 1 326 C0.67 326 0.34 326 0 326 C0 249.44 0 172.88 0 94 C-2.64 94 -5.28 94 -8 94 C-13.17026426 92.52502325 -18.24792694 89.86932534 -22 86 C-22.495 83.525 -22.495 83.525 -23 81 C-15.41 81 -7.82 81 0 81 C0 54.27 0 27.54 0 0 Z " fill="#8B8D8D" transform="translate(351,280)"/>
<path d="M0 0 C4.26421817 3.22416496 7.85431792 6.81295376 9.5625 11.9375 C9.66940101 13.56681771 9.7211376 15.20004607 9.73950195 16.83276367 C9.75875481 18.32527901 9.75875481 18.32527901 9.77839661 19.84794617 C9.78578354 20.92292862 9.79317047 21.99791107 9.80078125 23.10546875 C9.808853 24.21424881 9.81692474 25.32302887 9.82524109 26.46540833 C9.83907951 28.814895 9.84980274 31.16440175 9.85766602 33.51391602 C9.87484953 37.09365375 9.91873591 40.67246094 9.96289062 44.25195312 C9.97302035 46.53645155 9.98153558 48.82095782 9.98828125 51.10546875 C10.00578934 52.17033005 10.02329742 53.23519135 10.04133606 54.33232117 C10.02090834 61.39001093 9.13837746 67.27508879 4.04414368 72.49259949 C-1.38962789 77.16796634 -5.15980223 77.29202555 -12.16796875 77.20703125 C-16.88696139 76.81801035 -18.78557491 75.98077091 -22.4375 72.9375 C-26.59951092 67.62058552 -28.5333552 62.96099079 -28.61450195 56.20410156 C-28.62733719 55.26922913 -28.64017242 54.33435669 -28.65339661 53.37115479 C-28.66078354 52.36695496 -28.66817047 51.36275513 -28.67578125 50.328125 C-28.683853 49.28734802 -28.69192474 48.24657104 -28.70024109 47.17425537 C-28.71406328 44.97198137 -28.72479376 42.76968612 -28.73266602 40.56738281 C-28.74418561 38.32122498 -28.76463691 36.07509452 -28.79418945 33.82910156 C-28.83695938 30.57858731 -28.85304878 27.32888607 -28.86328125 24.078125 C-28.88078934 23.08202209 -28.89829742 22.08591919 -28.91633606 21.05963135 C-28.89378388 13.75583207 -27.35133223 8.56119856 -22.75390625 2.84375 C-15.97399409 -2.59225975 -8.10980767 -2.50666782 0 0 Z " fill="#151615" transform="translate(352.4375,672.0625)"/>
<path d="M0 0 C22 0 22 0 30 4 C34.88142654 8.9875445 37.28241814 13.37595409 37.3125 20.375 C37.2248787 25.38963455 36.2994396 28.57800077 34 33 C33.32723284 34.6642135 32.65793165 36.32986582 32 38 C32.639375 38.763125 33.27875 39.52625 33.9375 40.3125 C38.64219905 46.44286543 37.6910312 55.55854963 37 63 C35.57262815 68.40694664 32.36546366 72.54823803 28 76 C21 78 21 78 0 78 C0 52.26 0 26.52 0 0 Z " fill="#151615" transform="translate(273,671)"/>
<path d="M0 0 C22 0 22 0 31 5 C34.56834218 9.46042773 36.10549709 13.01605068 36.19287109 18.67993164 C36.20893402 19.62844498 36.22499695 20.57695831 36.24154663 21.55421448 C36.28623788 25.90682129 36.32709502 30.25927739 36.35009766 34.61206055 C36.36660952 36.89992478 36.39383581 39.18773846 36.43212891 41.4753418 C36.48724295 44.7872168 36.50882883 48.09788271 36.5234375 51.41015625 C36.54610687 52.42094742 36.56877625 53.43173859 36.59213257 54.47315979 C36.5713342 61.5560337 35.10895299 67.13850636 31 73 C22.19847191 80.45234862 11.00666266 78 0 78 C0 52.26 0 26.52 0 0 Z " fill="#121312" transform="translate(174,671)"/>
<path d="M0 0 C23 0 23 0 32 4 C33.9375 6.03515625 33.9375 6.03515625 35 8.0625 C35.37125 8.73410156 35.7425 9.40570312 36.125 10.09765625 C39.13993658 16.65245141 39.11878056 24.8726852 37.24609375 31.78125 C35.76172401 35.27388468 34.55192708 37.5352193 31.625 40 C31.08875 40.66 30.5525 41.32 30 42 C30.72661833 48.33195976 33.04052073 54.23686187 35.10009766 60.24560547 C37.08705156 66.08845954 38.59022846 71.98992132 40 78 C36.04 78 32.08 78 28 78 C24.02745505 67.48543421 20.89257969 56.85640548 18 46 C16.02 45.67 14.04 45.34 12 45 C12 55.89 12 66.78 12 78 C8.04 78 4.08 78 0 78 C0 52.26 0 26.52 0 0 Z " fill="#161817" transform="translate(511,671)"/>
<path d="M0 0 C3.63 0 7.26 0 11 0 C16.71085479 13.85926954 21.82163079 27.93442957 27 42 C27.33 28.14 27.66 14.28 28 0 C31.63 0 35.26 0 39 0 C39 25.74 39 51.48 39 78 C35.37 78 31.74 78 28 78 C27.62190186 76.95134766 27.24380371 75.90269531 26.85424805 74.82226562 C25.44020771 70.90085744 24.02549851 66.97969082 22.6105957 63.05859375 C22.00038947 61.3672525 21.39036033 59.67584734 20.78051758 57.984375 C19.89972677 55.54149485 19.01828182 53.09885155 18.13671875 50.65625 C17.86784348 49.91008423 17.5989682 49.16391846 17.32194519 48.3951416 C17.06190201 47.67499878 16.80185883 46.95485596 16.53393555 46.21289062 C16.30965378 45.59111938 16.08537201 44.96934814 15.85429382 44.32873535 C14.5886679 40.87874221 13.29031352 37.44083604 12 34 C11.67 48.19 11.34 62.38 11 77 C7.37 77 3.74 77 0 77 C0 51.59 0 26.18 0 0 Z " fill="#111311" transform="translate(378,671)"/>
<path d="M0 0 C26.7852349 0 26.7852349 0 32.83984375 5.74609375 C33.20207031 6.30425781 33.56429687 6.86242187 33.9375 7.4375 C34.31777344 7.99308594 34.69804688 8.54867187 35.08984375 9.12109375 C38.52025172 16.20275141 38.10763497 27.34793312 36.31640625 34.87109375 C33.59680241 41.56289905 29.42063869 44.78968066 23 48 C19.37 48 15.74 48 12 48 C12 57.9 12 67.8 12 78 C8.04 78 4.08 78 0 78 C0 52.26 0 26.52 0 0 Z " fill="#939493" transform="translate(636,671)"/>
<path d="M0 0 C6.46466276 -0.13671492 12.55428418 0.31117517 18.9375 1.3125 C19.81486816 1.44857666 20.69223633 1.58465332 21.59619141 1.72485352 C31.24616625 3.28115639 39.8679851 4.8679851 47 12 C47.83581503 17.01489018 46.27629232 19.91168724 43.5390625 23.92578125 C35.55782104 34.68222595 26.62289708 41.67323251 13.4140625 44.56640625 C8.6427145 45.17237836 3.92877964 45.10480971 -0.875 45.0625 C-2.33679688 45.05573242 -2.33679688 45.05573242 -3.828125 45.04882812 C-6.21881434 45.03710906 -8.6093744 45.02070219 -11 45 C-9.79312667 41.10867945 -8.40730242 37.65478842 -6.375 34.125 C-5.70597656 32.95324219 -5.70597656 32.95324219 -5.0234375 31.7578125 C-4.68570313 31.17773438 -4.34796875 30.59765625 -4 30 C-6.97 30 -9.94 30 -13 30 C-11.53805241 25.88685211 -9.51056838 22.54350016 -7.0625 18.9375 C-6.37285156 17.91527344 -5.68320312 16.89304687 -4.97265625 15.83984375 C-3 13 -3 13 -1.2578125 10.92578125 C0.30830314 8.52797065 0.31251887 7.08376094 0.1875 4.25 C0.125 2.83333333 0.0625 1.41666667 0 0 Z " fill="#FAFAFA" transform="translate(601,300)"/>
<path d="M0 0 C1.37478516 0.01740234 1.37478516 0.01740234 2.77734375 0.03515625 C3.69644531 0.04417969 4.61554687 0.05320312 5.5625 0.0625 C6.27277344 0.07410156 6.98304688 0.08570313 7.71484375 0.09765625 C11.46508529 14.69257183 14.95457508 29.3322434 18.23291016 44.0390625 C20.08615862 52.35034871 20.08615862 52.35034871 22.046875 60.63671875 C22.33280518 61.8124646 22.33280518 61.8124646 22.62451172 63.01196289 C23.10571429 64.97038168 23.59537432 66.92671746 24.0859375 68.8828125 C24.71484375 72.09765625 24.71484375 72.09765625 24.71484375 78.09765625 C20.75484375 78.09765625 16.79484375 78.09765625 12.71484375 78.09765625 C10.71484375 66.72265625 10.71484375 66.72265625 10.71484375 61.09765625 C5.43484375 61.09765625 0.15484375 61.09765625 -5.28515625 61.09765625 C-5.40890625 62.60328125 -5.53265625 64.10890625 -5.66015625 65.66015625 C-6.08958665 70.0353674 -6.92462389 73.925357 -8.28515625 78.09765625 C-12.24515625 78.09765625 -16.20515625 78.09765625 -20.28515625 78.09765625 C-18.50820206 68.95773292 -16.49607013 59.87284749 -14.47265625 50.78515625 C-14.29563171 49.98829407 -14.11860718 49.19143188 -13.93621826 48.37042236 C-11.65306809 38.09843922 -9.33689248 27.8368359 -6.83276367 17.6159668 C-5.65605791 12.79046198 -4.64985557 7.95525684 -3.74560547 3.07080078 C-3.09214744 0.27056334 -2.91751003 0.12467992 0 0 Z " fill="#949493" transform="translate(825.28515625,670.90234375)"/>
<path d="M0 0 C1.37478516 0.01740234 1.37478516 0.01740234 2.77734375 0.03515625 C3.69644531 0.04417969 4.61554688 0.05320312 5.5625 0.0625 C6.27277344 0.07410156 6.98304688 0.08570313 7.71484375 0.09765625 C11.97497703 17.83302395 16.14776874 35.56568779 19.72314453 53.45385742 C21.01889894 59.90561482 22.46933982 66.2786712 24.15307617 72.64111328 C24.71484375 75.09765625 24.71484375 75.09765625 24.71484375 78.09765625 C21.08484375 78.09765625 17.45484375 78.09765625 13.71484375 78.09765625 C12.00584718 72.48238182 10.82054213 66.86308351 9.71484375 61.09765625 C4.76484375 61.09765625 -0.18515625 61.09765625 -5.28515625 61.09765625 C-5.40890625 62.41765625 -5.53265625 63.73765625 -5.66015625 65.09765625 C-6.14981878 69.57558457 -7.10081981 73.75508931 -8.28515625 78.09765625 C-12.24515625 78.09765625 -16.20515625 78.09765625 -20.28515625 78.09765625 C-20.06601562 77.123125 -19.846875 76.14859375 -19.62109375 75.14453125 C-17.77498727 66.90031586 -15.97013095 58.64849854 -14.2121582 50.38500977 C-11.84191539 39.24745087 -9.43092585 28.11979051 -6.94204712 17.00814819 C-6.62989297 15.61294235 -6.31899371 14.21745513 -6.0093689 12.82168579 C-5.57765264 10.87769468 -5.1405216 8.93490843 -4.703125 6.9921875 C-4.45328857 5.87690674 -4.20345215 4.76162598 -3.94604492 3.61254883 C-3.03073938 0.12951878 -3.03073938 0.12951878 0 0 Z " fill="#161716" transform="translate(448.28515625,670.90234375)"/>
<path d="M0 0 C5.03586887 2.25667507 8.78315166 5.9142891 11 11 C12.15754721 14.99879946 12.08125251 18.85612211 12 23 C8.04 23 4.08 23 0 23 C-0.0825 21.741875 -0.165 20.48375 -0.25 19.1875 C-0.62074634 16.31802487 -0.78307684 15.25709411 -2.6875 13 C-5.71901734 11.68907358 -7.73200597 11.51327748 -11 12 C-13.08686892 13.36073536 -13.08686892 13.36073536 -14 16 C-14.52882231 20.57473269 -14.8912344 25.19899051 -12 29 C-9.41468367 30.24338644 -6.92210473 31.30252135 -4.25 32.3125 C2.87333522 35.1916428 7.41904459 37.83808919 11 45 C11.26472727 48.05599558 11.2315706 51.12130835 11.25 54.1875 C11.270625 55.02603516 11.29125 55.86457031 11.3125 56.72851562 C11.3558276 63.66634717 10.21076646 68.38198708 5.625 73.8125 C0.26402092 78.27998256 -4.97133138 78.56425324 -11.765625 78.43359375 C-16.79586596 77.75924985 -19.77311632 75.86908903 -23 72 C-26.29896093 66.8118905 -27.63595132 62.10513265 -27 56 C-26 55 -26 55 -23.49609375 54.90234375 C-22.48675781 54.91394531 -21.47742188 54.92554688 -20.4375 54.9375 C-19.42558594 54.94652344 -18.41367187 54.95554687 -17.37109375 54.96484375 C-16.19740234 54.98224609 -16.19740234 54.98224609 -15 55 C-14.86722656 55.71027344 -14.73445312 56.42054688 -14.59765625 57.15234375 C-14.42105469 58.07144531 -14.24445312 58.99054687 -14.0625 59.9375 C-13.88847656 60.85402344 -13.71445312 61.77054688 -13.53515625 62.71484375 C-13.22285012 64.95289844 -13.22285012 64.95289844 -12 66 C-7.93167569 66.51306187 -7.93167569 66.51306187 -4 66 C-1.12399955 62.4277732 -0.54572621 59.45867855 -0.5 54.9375 C-0.4690625 53.91527344 -0.438125 52.89304687 -0.40625 51.83984375 C-0.76853297 48.8420274 -0.76853297 48.8420274 -3.15625 46.78125 C-6.05211852 44.96735433 -8.7975957 43.74297811 -12 42.5625 C-18.07338349 40.11079059 -21.29764771 37.70028295 -24.8125 32.125 C-27.28873965 25.6123466 -27.42019717 16.90408112 -25.05078125 10.390625 C-19.04674911 0.3144575 -11.15559025 -1.29517258 0 0 Z " fill="#151615" transform="translate(588,671)"/>
<path d="M0 0 C10.89 0 21.78 0 33 0 C33 3.63 33 7.26 33 11 C26.07 11 19.14 11 12 11 C12 18.26 12 25.52 12 33 C18.27 33 24.54 33 31 33 C31 36.63 31 40.26 31 44 C24.4 44 17.8 44 11 44 C11 51.59 11 59.18 11 67 C18.26 67 25.52 67 33 67 C33 70.63 33 74.26 33 78 C22.11 78 11.22 78 0 78 C0 52.26 0 26.52 0 0 Z " fill="#151615" transform="translate(225,671)"/>
<path d="M0 0 C10.89 0 21.78 0 33 0 C33 12.30700143 33 12.30700143 30.98046875 16.40625 C28.5117941 21.79434779 26.35661055 27.2262788 24.30078125 32.78125 C23.81519241 34.08376709 23.81519241 34.08376709 23.3197937 35.41259766 C22.31518658 38.10759457 21.31348195 40.8036547 20.3125 43.5 C18.97780464 47.0947034 17.64017169 50.68829376 16.30078125 54.28125 C15.84763298 55.50624207 15.84763298 55.50624207 15.3853302 56.75598145 C15.10130844 57.5177771 14.81728668 58.27957275 14.5246582 59.06445312 C14.27770706 59.72997192 14.03075592 60.39549072 13.77632141 61.08117676 C12.95901151 63.10131069 11.97457032 65.05085935 11 67 C18.26 67 25.52 67 33 67 C33 70.63 33 74.26 33 78 C21.45 78 9.9 78 -2 78 C-2 65.51224415 -2 65.51224415 1.1875 58.5625 C5.53702799 48.43407935 9.28639246 38.12357452 13 27.75 C13.5938897 26.09574701 14.18788185 24.44153079 14.78198242 22.78735352 C16.1921329 18.85969868 17.59587674 14.92983278 19 11 C12.73 11 6.46 11 0 11 C0 7.37 0 3.74 0 0 Z " fill="#959594" transform="translate(762,671)"/>
<path d="M0 0 C10.89 0 21.78 0 33 0 C33 13.49526668 33 13.49526668 31.19921875 17.83984375 C30.80395996 18.82678223 30.40870117 19.8137207 30.00146484 20.83056641 C29.56785645 21.85585449 29.13424805 22.88114258 28.6875 23.9375 C27.77599522 26.19346602 26.8658963 28.45000046 25.95703125 30.70703125 C25.4770166 31.88217285 24.99700195 33.05731445 24.50244141 34.26806641 C22.10035392 40.19053933 19.86652166 46.17815964 17.61538696 52.15921021 C16.43319483 55.29802998 15.24341815 58.43396348 14.0546875 61.5703125 C13.37664063 63.36210938 12.69859375 65.15390625 12 67 C18.93 67 25.86 67 33 67 C33 70.63 33 74.26 33 78 C21.78 78 10.56 78 -1 78 C-1 64.50473332 -1 64.50473332 0.80078125 60.16015625 C1.19604004 59.17321777 1.59129883 58.1862793 1.99853516 57.16943359 C2.43214355 56.14414551 2.86575195 55.11885742 3.3125 54.0625 C4.22400478 51.80653398 5.1341037 49.54999954 6.04296875 47.29296875 C6.5229834 46.11782715 7.00299805 44.94268555 7.49755859 43.73193359 C9.89964608 37.80946067 12.13347834 31.82184036 14.38461304 25.84078979 C15.56680517 22.70197002 16.75658185 19.56603652 17.9453125 16.4296875 C18.62335937 14.63789062 19.30140625 12.84609375 20 11 C13.4 11 6.8 11 0 11 C0 7.37 0 3.74 0 0 Z " fill="#959595" transform="translate(714,671)"/>
<path d="M0 0 C3.96 0 7.92 0 12 0 C12 25.74 12 51.48 12 78 C8.37 78 4.74 78 1 78 C-0.68503699 76.31496301 -0.11965983 74.23740116 -0.12442017 71.98905945 C-0.12082489 71.27264786 -0.11722961 70.55623627 -0.11352539 69.81811523 C-0.11367142 69.06694427 -0.11381744 68.31577332 -0.1139679 67.5418396 C-0.11326863 65.04739541 -0.10547564 62.55302497 -0.09765625 60.05859375 C-0.09579212 58.33366436 -0.09436819 56.60873443 -0.09336853 54.88380432 C-0.08954297 50.33487497 -0.07971238 45.78597733 -0.06866455 41.23706055 C-0.05845124 36.59879994 -0.05387108 31.96053423 -0.04882812 27.32226562 C-0.03809014 18.21482978 -0.02101327 9.10741752 0 0 Z " fill="#979797" transform="translate(687,671)"/>
<path d="M0 0 C3.63 0 7.26 0 11 0 C11 25.74 11 51.48 11 78 C7.37 78 3.74 78 0 78 C0 52.26 0 26.52 0 0 Z " fill="#0F1110" transform="translate(485,671)"/>
<path d="M0 0 C-3.08082588 2.05388392 -5.29872722 2.74155218 -8.85546875 3.6640625 C-22.32676592 7.26116379 -34.94027887 10.89598288 -47 18 C-47.84755859 18.49193848 -48.69511719 18.98387695 -49.56835938 19.49072266 C-56.76414115 23.67399467 -63.92248116 27.92091089 -71.03955078 32.23681641 C-93.66669741 45.94264678 -118.37899189 54.71840801 -145 54 C-141.60765666 51.73843778 -139.03482209 51.20375196 -135.0625 50.3125 C-112.89714242 45.02736689 -93.32712601 35.68652206 -73.80712891 24.14990234 C-51.3544863 10.90695149 -26.71369848 -1.52407788 0 0 Z " fill="#F3F4F3" transform="translate(503,299)"/>
<path d="M0 0 C1.33417969 0.00483398 1.33417969 0.00483398 2.6953125 0.00976562 C4.07589844 0.02233398 4.07589844 0.02233398 5.484375 0.03515625 C6.88816406 0.04192383 6.88816406 0.04192383 8.3203125 0.04882812 C10.62506541 0.06058707 12.92968727 0.07702199 15.234375 0.09765625 C15.234375 0.42765625 15.234375 0.75765625 15.234375 1.09765625 C14.6674292 1.21246338 14.1004834 1.32727051 13.51635742 1.44555664 C-10.70355897 6.43380182 -31.79807633 14.43597264 -52.24316406 28.42797852 C-72.88779838 42.45090382 -100.93556087 54.50628727 -126.203125 54.16015625 C-127.50056641 54.14662109 -127.50056641 54.14662109 -128.82421875 54.1328125 C-129.46488281 54.12121094 -130.10554688 54.10960937 -130.765625 54.09765625 C-130.435625 53.43765625 -130.105625 52.77765625 -129.765625 52.09765625 C-127.32964523 51.29133013 -124.93227208 50.59950408 -122.453125 49.953125 C-120.89858931 49.52794413 -119.3445728 49.1008616 -117.79101562 48.67211914 C-116.97093018 48.44702667 -116.15084473 48.2219342 -115.3059082 47.99002075 C-98.14616175 43.22862402 -83.1698978 37.15276053 -67.765625 28.09765625 C-65.92556402 27.03717791 -64.08442909 25.97856068 -62.2421875 24.921875 C-59.59252184 23.40007842 -56.94310423 21.87797681 -54.29736328 20.34936523 C-39.72480182 11.98208368 -24.98112357 5.55592693 -8.765625 1.09765625 C-7.80305786 0.8193396 -7.80305786 0.8193396 -6.82104492 0.53540039 C-4.49261197 0.03951249 -2.3800166 -0.01525652 0 0 Z " fill="#F2F3F2" transform="translate(547.765625,291.90234375)"/>
<path d="M0 0 C2.18334961 1.37524414 2.18334961 1.37524414 4 4 C4.61593209 7.49445664 4.58411594 10.95500161 4.56640625 14.49609375 C4.57570412 16.03463768 4.57570412 16.03463768 4.58518982 17.60426331 C4.59228929 19.77205456 4.5891118 21.93990032 4.57641602 24.10766602 C4.56256307 27.4224096 4.59660562 30.73432355 4.63476562 34.04882812 C4.63571695 36.15625069 4.63385729 38.26367679 4.62890625 40.37109375 C4.64216446 41.36080673 4.65542267 42.35051971 4.66908264 43.370224 C4.60575515 48.05765435 4.52993534 50.29078854 1.65600586 54.13696289 C-1.55629452 56.39020898 -3.15389017 56.58527758 -7 56 C-10 54 -10 54 -11 51 C-11.10616487 49.4720294 -11.1585305 47.93999026 -11.17700195 46.40844727 C-11.18983719 45.48060928 -11.20267242 44.5527713 -11.21589661 43.59681702 C-11.22328354 42.59678146 -11.23067047 41.59674591 -11.23828125 40.56640625 C-11.246353 39.53692368 -11.25442474 38.5074411 -11.26274109 37.44676208 C-11.27657204 35.26880575 -11.28729861 33.09082784 -11.29516602 30.9128418 C-11.31241541 27.57884965 -11.35631516 24.24583982 -11.40039062 20.91210938 C-11.41051449 18.79688229 -11.41903155 16.68164679 -11.42578125 14.56640625 C-11.44328934 13.56839493 -11.46079742 12.57038361 -11.47883606 11.54212952 C-11.45722499 4.66493665 -11.45722499 4.66493665 -9.19213867 1.37084961 C-5.95368353 -0.65431195 -3.73559063 -0.5336558 0 0 Z " fill="#F8F8F8" transform="translate(347,682)"/>
<path d="M0 0 C9 0 9 0 12.02539062 1.86523438 C14.83303135 6.32246816 14.68365911 9.98592407 14.59375 15.15625 C14.59379028 16.13613892 14.59383057 17.11602783 14.59387207 18.12561035 C14.58852058 20.19334339 14.5709538 22.26107616 14.54199219 24.32861328 C14.50014246 27.48924075 14.50092503 30.64773593 14.5078125 33.80859375 C14.49731929 35.82032727 14.48438048 37.83204983 14.46875 39.84375 C14.46854858 40.78657837 14.46834717 41.72940674 14.46813965 42.70080566 C14.38040995 47.57702201 14.24472922 51.08011292 11 55 C9 56 9 56 0 56 C0 37.52 0 19.04 0 0 Z " fill="#F1F1F1" transform="translate(185,682)"/>
<path d="M0 0 C9 0 9 0 12.0234375 1.47265625 C14.77754514 4.99421285 14.73485223 8.14960113 14.625 12.4375 C14.64433594 13.18837891 14.66367187 13.93925781 14.68359375 14.71289062 C14.6486952 18.68085541 14.23488054 20.63932376 12.0234375 24.03515625 C9 26 9 26 0 26 C0 17.42 0 8.84 0 0 Z " fill="#F9F9F9" transform="translate(648,682)"/>
<path d="M0 0 C10 0 10 0 13.0859375 1.53515625 C15.71413391 4.91962959 15.66712786 7.18679878 15.625 11.4375 C15.63789062 12.73558594 15.65078125 14.03367187 15.6640625 15.37109375 C15 19 15 19 13.0859375 21.97265625 C10 24 10 24 0 24 C0 16.08 0 8.16 0 0 Z " fill="#F0F0F0" transform="translate(522,682)"/>
<path d="M0 0 C9.19230769 0 9.19230769 0 13 3 C14.40053506 5.80107012 14.2075504 8.18891681 14.25 11.3125 C14.28867187 13.00826172 14.28867187 13.00826172 14.328125 14.73828125 C13.94062793 18.59018663 12.75671134 21.24328866 10 24 C6.7 24 3.4 24 0 24 C0 16.08 0 8.16 0 0 Z " fill="#F6F6F5" transform="translate(285,713)"/>
<path d="M0 0 C9.26315789 0 9.26315789 0 12 2 C14.70932352 6.06398528 14.40161932 9.23913759 14 14 C13.23903224 16.98045704 12.75490385 18.39026997 10.375 20.3125 C8 21 8 21 0 21 C0 14.07 0 7.14 0 0 Z " fill="#F6F7F7" transform="translate(285,682)"/>
<path d="M0 0 C0.66 0.33 1.32 0.66 2 1 C1.34 1.99 0.68 2.98 0 4 C1.32 4.66 2.64 5.32 4 6 C-0.42906493 7.23273204 -4.8585279 8.46396666 -9.2890625 9.69140625 C-11.99462022 10.44127531 -14.69759398 11.19805254 -17.3984375 11.96484375 C-25.71222132 14.30527869 -33.3741115 15.15620321 -42 15 C-41 13 -41 13 -37.5534668 11.79492188 C-36.0209758 11.34509797 -34.48601529 10.9036369 -32.94921875 10.46875 C-31.73369072 10.11387512 -31.73369072 10.11387512 -30.49360657 9.75183105 C-27.89365541 8.99381085 -25.29084299 8.24628046 -22.6875 7.5 C-20.09529675 6.75236464 -17.50380031 6.0024694 -14.91352844 5.24816895 C-13.29982779 4.77870986 -11.68494203 4.31330094 -10.06877136 3.85241699 C-7.09724712 2.99138917 -4.3615927 2.18368013 -1.59692383 0.77929688 C-1.06993896 0.52212891 -0.5429541 0.26496094 0 0 Z " fill="#949596" transform="translate(459,331)"/>
<path d="M0 0 C0.66 0.33 1.32 0.66 2 1 C2.59423828 2.87011719 2.59423828 2.87011719 3.0703125 5.296875 C3.33134766 6.61171875 3.33134766 6.61171875 3.59765625 7.953125 C3.77167969 8.87609375 3.94570313 9.7990625 4.125 10.75 C4.30675781 11.6575 4.48851562 12.565 4.67578125 13.5 C5.51851051 17.83403622 6 21.5360692 6 26 C2.7 26 -0.6 26 -4 26 C-2.98074847 17.26046032 -1.94183957 8.59367299 0 0 Z " fill="#F6F5F5" transform="translate(827,695)"/>
<path d="M0 0 C1.9004011 2.85060165 2.42896048 4.27486675 3.0703125 7.52734375 C3.24433594 8.40197266 3.41835938 9.27660156 3.59765625 10.17773438 C3.77167969 11.08845703 3.94570313 11.99917969 4.125 12.9375 C4.30675781 13.84435547 4.48851562 14.75121094 4.67578125 15.68554688 C5.43788372 19.57914559 6 23.00954719 6 27 C2.7 27 -0.6 27 -4 27 C-3.363157 17.82946083 -1.79513145 8.99823752 0 0 Z " fill="#EFEFEF" transform="translate(450,694)"/>
<path d="M0 0 C5.25691455 1.43370397 8.51785151 4.99603099 12 9 C12 9.33 12 9.66 12 10 C9.75023648 10.64665663 7.50018033 11.29229523 5.25 11.9375 C3.99703125 12.29714844 2.7440625 12.65679687 1.453125 13.02734375 C-1.02561719 13.72554149 -3.49660162 14.39943726 -6 15 C-4.40109514 9.80355921 -2.25861997 4.93387858 0 0 Z " fill="#F0F0F0" transform="translate(582,348)"/>
<path d="M0 0 C1.86785156 0.01353516 1.86785156 0.01353516 3.7734375 0.02734375 C5.18496094 0.04474609 5.18496094 0.04474609 6.625 0.0625 C1.7984672 3.28018853 -3.75324009 4.29769897 -9.3125 5.8125 C-10.50552734 6.15410156 -11.69855469 6.49570312 -12.92773438 6.84765625 C-14.07435547 7.16089844 -15.22097656 7.47414063 -16.40234375 7.796875 C-17.97616821 8.23338379 -17.97616821 8.23338379 -19.58178711 8.67871094 C-22.75569137 9.11480721 -23.70331605 8.68768462 -26.375 7.0625 C-27.6992287 6.69465869 -29.03113912 6.35047019 -30.375 6.0625 C-27.66793656 5.24555769 -24.95948604 4.43383506 -22.25 3.625 C-21.10917969 3.27985352 -21.10917969 3.27985352 -19.9453125 2.92773438 C-13.1919926 0.91920389 -7.08635025 -0.06685236 0 0 Z " fill="#909294" transform="translate(496.375,298.9375)"/>
<path d="M0 0 C0.33 0.99 0.66 1.98 1 3 C1.99 3.66 2.98 4.32 4 5 C-6.49244885 7.13405739 -16.25269955 8.45986864 -27 8 C-23.528625 5.68575 -20.18410107 4.92758828 -16.1875 4 C-11.04068769 2.78563691 -5.1774193 0 0 0 Z " fill="#8D8D8F" transform="translate(385,345)"/>
<path d="M0 0 C0.9178125 0.00902344 1.835625 0.01804687 2.78125 0.02734375 C5.02111556 0.05067568 7.26041183 0.08340765 9.5 0.125 C9.5 0.455 9.5 0.785 9.5 1.125 C1.91 2.775 -5.68 4.425 -13.5 6.125 C-13.83 5.135 -14.16 4.145 -14.5 3.125 C-16.51508358 2.39176204 -16.51508358 2.39176204 -18.5 2.125 C-12.18911704 0.25237819 -6.56038603 -0.12396078 0 0 Z " fill="#77787A" transform="translate(553.5,291.875)"/>
<path d="M0 0 C0.33 0.99 0.66 1.98 1 3 C-0.59915881 3.69906942 -2.20455045 4.38389468 -3.8125 5.0625 C-4.70582031 5.44535156 -5.59914063 5.82820313 -6.51953125 6.22265625 C-9.88022363 7.27584961 -11.71815992 6.09394669 -15 5 C-16.32 5 -17.64 5 -19 5 C-13.41631348 1.27754232 -6.71593812 -0.53020564 0 0 Z " fill="#CED0D0" transform="translate(539,295)"/>
<path d="M0 0 C-0.99 0.66 -1.98 1.32 -3 2 C-3 3.32 -3 4.64 -3 6 C-8.445 7.485 -8.445 7.485 -14 9 C-13.34 7.35 -12.68 5.7 -12 4 C-12.66 3.34 -13.32 2.68 -14 2 C-12.04396149 1.47061343 -10.08507711 0.95173199 -8.125 0.4375 C-7.03445313 0.14746094 -5.94390625 -0.14257812 -4.8203125 -0.44140625 C-2 -1 -2 -1 0 0 Z " fill="#131314" transform="translate(625,342)"/>
<path d="M0 0 C0.66 0.99 1.32 1.98 2 3 C-3.70690634 3.99250545 -9.21408489 4.10477512 -15 4 C-14 2 -14 2 -11.85546875 1.11328125 C-10.97503906 0.84902344 -10.09460938 0.58476562 -9.1875 0.3125 C-8.31480469 0.04050781 -7.44210937 -0.23148437 -6.54296875 -0.51171875 C-3.87329575 -1.02432877 -2.48796399 -1.06318635 0 0 Z " fill="#868787" transform="translate(432,342)"/>
<path d="M0 0 C0.66 0.33 1.32 0.66 2 1 C1.01 2.485 1.01 2.485 0 4 C1.32 4.66 2.64 5.32 4 6 C1.36 6.33 -1.28 6.66 -4 7 C-4.66 5.68 -5.32 4.36 -6 3 C-4.03533587 1.93224776 -2.03144641 0.93446535 0 0 Z " fill="#BBBBBF" transform="translate(459,331)"/>
<path d="M0 0 C0.33 0.99 0.66 1.98 1 3 C1.99 3.66 2.98 4.32 4 5 C0.7 5.33 -2.6 5.66 -6 6 C-6 4.68 -6 3.36 -6 2 C-2.25 0 -2.25 0 0 0 Z " fill="#B7B7B7" transform="translate(385,345)"/>
<path d="M0 0 C0 0.99 0 1.98 0 3 C-2.31 3.66 -4.62 4.32 -7 5 C-7.33 4.01 -7.66 3.02 -8 2 C-10.01508358 1.26676204 -10.01508358 1.26676204 -12 1 C-8.0186217 -0.3271261 -4.14954773 -0.06915913 0 0 Z " fill="#9FA0A3" transform="translate(547,293)"/>
<path d="M0 0 C2.0625 0.4375 2.0625 0.4375 4 1 C3.67 1.99 3.34 2.98 3 4 C-0.0625 5.1875 -0.0625 5.1875 -3 6 C-3.99 4.35 -4.98 2.7 -6 1 C-4.7934375 1.0309375 -4.7934375 1.0309375 -3.5625 1.0625 C-1.06645115 1.29633621 -1.06645115 1.29633621 0 0 Z " fill="#E2E3E4" transform="translate(524,299)"/>
<path d="M0 0 C-2.62198774 2.15377564 -4.64404172 3.40072174 -8 4 C-8.66 2.35 -9.32 0.7 -10 -1 C-5.92224809 -1.9267618 -3.57818963 -2.33958553 0 0 Z " fill="#E3E3E3" transform="translate(474,307)"/>
<path d="M0 0 C4.62 0 9.24 0 14 0 C11.14521674 1.90318884 9.58058692 2.4619099 6.3125 3.125 C5.50425781 3.29257812 4.69601562 3.46015625 3.86328125 3.6328125 C3.24839844 3.75398438 2.63351562 3.87515625 2 4 C2 3.34 2 2.68 2 2 C1.34 1.34 0.68 0.68 0 0 Z " fill="#7F8180" transform="translate(489,299)"/>
<path d="M0 0 C-0.99 0.66 -1.98 1.32 -3 2 C-3 3.32 -3 4.64 -3 6 C-4.98 5.34 -6.96 4.68 -9 4 C-8.67 3.01 -8.34 2.02 -8 1 C-2.59770115 -1.29885057 -2.59770115 -1.29885057 0 0 Z " fill="#202121" transform="translate(625,342)"/>
<path d="M0 0 C1.32 1.65 2.64 3.3 4 5 C1.36 5.33 -1.28 5.66 -4 6 C-3.34 5.67 -2.68 5.34 -2 5 C-2 4.34 -2 3.68 -2 3 C-2.66 2.67 -3.32 2.34 -4 2 C-2.68 1.34 -1.36 0.68 0 0 Z " fill="#9FA0A4" transform="translate(452,334)"/>
<path d="M0 0 C0 0.66 0 1.32 0 2 C0.99 2.33 1.98 2.66 3 3 C-1.62 3 -6.24 3 -11 3 C-7.4144509 0.60963393 -4.2914923 0 0 0 Z " fill="#7D7E7F" transform="translate(369,350)"/>
<path d="M0 0 C-0.99 0.66 -1.98 1.32 -3 2 C-3 2.66 -3 3.32 -3 4 C-2.34 4.33 -1.68 4.66 -1 5 C-2.65 5 -4.3 5 -6 5 C-6.33 3.68 -6.66 2.36 -7 1 C-3.375 -1.125 -3.375 -1.125 0 0 Z " fill="#DEDEDE" transform="translate(392,344)"/>
<path d="M0 0 C1.98 0 3.96 0 6 0 C6.33 0.99 6.66 1.98 7 3 C5.02 3.66 3.04 4.32 1 5 C0.67 3.35 0.34 1.7 0 0 Z " fill="#C2C4C5" transform="translate(533,295)"/>
<path d="M0 0 C2.97 0 5.94 0 9 0 C8 3 8 3 6.1875 3.9375 C4 4 4 4 1.75 2.0625 C1.1725 1.381875 0.595 0.70125 0 0 Z " fill="#8A8B8D" transform="translate(483,300)"/>
<path d="M0 0 C0.99 0.33 1.98 0.66 3 1 C1.68 2.65 0.36 4.3 -1 6 C-2.32 5.67 -3.64 5.34 -5 5 C-3.35 3.35 -1.7 1.7 0 0 Z " fill="#1E201E" transform="translate(612,362)"/>
<path d="M0 0 C1.65 0 3.3 0 5 0 C4.67 1.32 4.34 2.64 4 4 C2.35 3.67 0.7 3.34 -1 3 C-0.67 2.01 -0.34 1.02 0 0 Z " fill="#9C9C9F" transform="translate(432,340)"/>
</svg>
