<?xml version="1.0" encoding="UTF-8"?>
<svg version="1.1" xmlns="http://www.w3.org/2000/svg" width="1028" height="1024">
<path d="M0 0 C339.24 0 678.48 0 1028 0 C1028 337.92 1028 675.84 1028 1024 C688.76 1024 349.52 1024 0 1024 C0 686.08 0 348.16 0 0 Z " fill="#FDFDFD" transform="translate(0,0)"/>
<path d="M0 0 C317.13 0 634.26 0 961 0 C961 71.61 961 143.22 961 217 C643.87 217 326.74 217 0 217 C0 145.39 0 73.78 0 0 Z " fill="#636463" transform="translate(31,397)"/>
<path d="M0 0 C1.24233398 0.00483398 1.24233398 0.00483398 2.50976562 0.00976562 C3.33412109 -0.00634766 4.15847656 -0.02246094 5.0078125 -0.0390625 C5.80123047 -0.03970703 6.59464844 -0.04035156 7.41210938 -0.04101562 C8.137771 -0.04399658 8.86343262 -0.04697754 9.61108398 -0.05004883 C12.1448714 0.43097019 12.98309724 1.32597917 14.57226562 3.32226562 C15.55632988 5.51391316 16.43666694 7.75272997 17.25976562 10.00976562 C17.50887695 10.68950439 17.75798828 11.36924316 18.01464844 12.06958008 C20.78008464 19.71317182 23.32080915 27.43661639 25.85620117 35.15893555 C26.34213745 36.63777222 26.34213745 36.63777222 26.83789062 38.14648438 C27.12438477 39.02393311 27.41087891 39.90138184 27.70605469 40.80541992 C28.58115869 43.34810514 29.55305457 45.83424082 30.57226562 48.32226562 C31.53807815 45.64644236 32.50336225 42.97043017 33.46801758 40.29418945 C34.2911565 38.01114376 35.1152207 35.72843146 35.94018555 33.44604492 C37.78304885 28.33797902 39.61792598 23.22953549 41.36523438 18.08789062 C41.6261084 17.32532959 41.88698242 16.56276855 42.15576172 15.77709961 C42.62563875 14.3962654 43.08873768 13.01309691 43.54345703 11.62719727 C45.01346887 7.32503714 46.43112274 3.64491917 49.57226562 0.32226562 C52.80746247 -0.45780131 55.88946932 -0.33571868 59.19726562 -0.17773438 C60.06867188 -0.16742188 60.94007813 -0.15710938 61.83789062 -0.14648438 C68.26264261 0.01264261 68.26264261 0.01264261 70.57226562 2.32226562 C70.83296204 5.09289551 70.83296204 5.09289551 70.84692383 8.66796875 C70.85203476 9.31853745 70.85714569 9.96910614 70.8624115 10.63938904 C70.87633483 12.79419094 70.87534893 14.94867404 70.87304688 17.10351562 C70.87693197 18.59802368 70.88126625 20.09253063 70.8860321 21.58703613 C70.89349994 24.72098367 70.89319876 27.85481855 70.88793945 30.98876953 C70.88214028 35.01085215 70.89908344 39.03247496 70.92228413 43.05448151 C70.93699316 46.14107981 70.93789713 49.22756659 70.9347744 52.31419373 C70.93528892 53.79740816 70.9405511 55.28062863 70.95058632 56.7638092 C70.96288102 58.83503393 70.95620267 60.905353 70.94458008 62.9765625 C70.9452095 64.15633667 70.94583893 65.33611084 70.94648743 66.55163574 C70.82299423 67.4659436 70.69950104 68.38025146 70.57226562 69.32226562 C67.33312333 71.48169382 66.3236683 71.5945954 62.57226562 71.57226562 C61.27289062 71.58 61.27289062 71.58 59.94726562 71.58789062 C57.57226562 71.32226562 57.57226562 71.32226562 54.57226562 69.32226562 C54.17353821 67.52523804 54.17353821 67.52523804 54.13989258 65.33154297 C54.12009842 64.5108432 54.10030426 63.69014343 54.07991028 62.84457397 C54.07352036 61.95807159 54.06713043 61.07156921 54.06054688 60.15820312 C54.04259567 59.25099518 54.02464447 58.34378723 54.00614929 57.40908813 C53.95187135 54.50519491 53.91809489 51.60146763 53.88476562 48.69726562 C53.85160795 46.7310966 53.81711976 44.76494954 53.78125 42.79882812 C53.69613497 37.97342674 53.62940756 33.14807607 53.57226562 28.32226562 C53.25588135 29.27927368 53.25588135 29.27927368 52.93310547 30.25561523 C50.8448807 36.5650453 48.7428851 42.86972528 46.62841797 49.17041016 C45.96696626 51.14436797 45.30803294 53.11917345 44.65283203 55.09521484 C43.86526538 57.46613289 43.06478469 59.83222749 42.25976562 62.19726562 C42.03015137 62.897146 41.80053711 63.59702637 41.56396484 64.31811523 C40.32845557 67.89765766 39.82752575 69.15209221 36.57226562 71.32226562 C33.54101562 71.65820312 33.54101562 71.65820312 30.07226562 71.69726562 C28.92757812 71.725625 27.78289063 71.75398437 26.60351562 71.78320312 C23.57226562 71.32226562 23.57226562 71.32226562 22.07885742 69.86474609 C19.88864964 66.16861519 18.72128889 62.26686996 17.43554688 58.18164062 C17.15124313 57.29945862 16.86693939 56.41727661 16.57402039 55.50836182 C15.67034002 52.69859856 14.77743164 49.88554521 13.88476562 47.07226562 C13.27284328 45.16318442 12.66022107 43.25432739 12.046875 41.34570312 C10.54721419 36.67378352 9.05720296 31.99888479 7.57226562 27.32226562 C7.55244629 28.58409668 7.53262695 29.84592773 7.51220703 31.14599609 C7.43627797 35.81645054 7.34754151 40.48658823 7.25488281 45.15673828 C7.21654041 47.18011228 7.18169691 49.20355568 7.15039062 51.22705078 C7.10485394 54.13143765 7.04684153 57.03534457 6.98632812 59.93945312 C6.96900131 61.30201736 6.96900131 61.30201736 6.95132446 62.69210815 C6.93145477 63.53282867 6.91158508 64.37354919 6.89111328 65.23974609 C6.87778961 65.98143036 6.86446594 66.72311462 6.85073853 67.48727417 C6.57226562 69.32226562 6.57226562 69.32226562 4.57226562 71.32226562 C2.04101563 71.58789062 2.04101563 71.58789062 -0.92773438 71.57226562 C-1.90742187 71.57742188 -2.88710938 71.58257813 -3.89648438 71.58789062 C-6.42773438 71.32226562 -6.42773438 71.32226562 -8.42773438 69.32226562 C-8.68170166 66.55163574 -8.68170166 66.55163574 -8.68652344 62.9765625 C-8.69002808 62.3259938 -8.69353271 61.67542511 -8.69714355 61.00514221 C-8.70596067 58.85032545 -8.700112 56.69583584 -8.69335938 54.54101562 C-8.69470604 53.04650815 -8.69664658 51.55200109 -8.69915771 50.05749512 C-8.70210894 46.9235416 -8.69781145 43.78970201 -8.68847656 40.65576172 C-8.67708194 36.63376549 -8.68364143 32.61203617 -8.69562149 28.59004974 C-8.70284018 25.50345846 -8.70055214 22.4169307 -8.69536591 19.33033752 C-8.69402943 17.84713205 -8.69567707 16.36392084 -8.70032501 14.88072205 C-8.70539049 12.80964831 -8.69768022 10.73900996 -8.68652344 8.66796875 C-8.68493225 7.48819458 -8.68334106 6.30842041 -8.68170166 5.09289551 C-8.16194389 -0.57734821 -4.66451308 0.0417491 0 0 Z " fill="#D3D4D4" transform="translate(638.427734375,441.677734375)"/>
<path d="M0 0 C0.88429688 0.53238281 1.76859375 1.06476563 2.6796875 1.61328125 C3.56914063 2.13277344 4.45859375 2.65226562 5.375 3.1875 C7.5546875 4.92578125 7.5546875 4.92578125 8.35546875 6.9296875 C8.62239004 9.60413412 8.61571484 12.2405782 8.5546875 14.92578125 C9.0909375 14.26578125 9.6271875 13.60578125 10.1796875 12.92578125 C12.5546875 10.92578125 12.5546875 10.92578125 15.8046875 10.67578125 C16.7121875 10.75828125 17.6196875 10.84078125 18.5546875 10.92578125 C18.5546875 11.91578125 18.5546875 12.90578125 18.5546875 13.92578125 C19.8746875 13.92578125 21.1946875 13.92578125 22.5546875 13.92578125 C24.80859375 16.12109375 24.80859375 16.12109375 27.1171875 19.05078125 C27.88160156 20.00210937 28.64601563 20.9534375 29.43359375 21.93359375 C36.05590865 31.2755702 36.95587883 41.76269891 35.5546875 52.92578125 C33.05775765 61.01546542 26.99599705 71.9028315 19.375 76.13671875 C18.77429688 76.39710938 18.17359375 76.6575 17.5546875 76.92578125 C16.26856074 77.98557058 16.26856074 77.98557058 16.45703125 80.4296875 C16.46863281 81.43902344 16.48023438 82.44835937 16.4921875 83.48828125 C16.50121094 84.50019531 16.51023437 85.51210938 16.51953125 86.5546875 C16.53113281 87.33714844 16.54273438 88.11960937 16.5546875 88.92578125 C2.04174363 92.53254837 -10.61565522 93.84060989 -24.4453125 86.92578125 C-23.9503125 85.93578125 -23.9503125 85.93578125 -23.4453125 84.92578125 C-22.8265625 84.82265625 -22.2078125 84.71953125 -21.5703125 84.61328125 C-18.50136863 83.62038765 -17.86987885 81.70368563 -16.4453125 78.92578125 C-18.4253125 78.92578125 -20.4053125 78.92578125 -22.4453125 78.92578125 C-21.9503125 77.44078125 -21.9503125 77.44078125 -21.4453125 75.92578125 C-21.94160156 75.53648437 -22.43789063 75.1471875 -22.94921875 74.74609375 C-32.57553141 66.81854215 -38.24427168 58.07542195 -39.72265625 45.58203125 C-40.24120176 33.80067729 -34.69244018 24.40477494 -27.0078125 15.92578125 C-24.50066797 13.5570001 -23.21111856 12.84502472 -19.8203125 11.67578125 C-16.4453125 11.92578125 -16.4453125 11.92578125 -13.5078125 13.86328125 C-11.22897602 17.24700815 -10.69909228 19.0219108 -10.953125 23.01171875 C-11.78124735 26.23219457 -13.98854044 27.80402356 -16.4453125 29.92578125 C-20.92679612 36.02557839 -22.02070982 40.37544568 -21.4453125 47.92578125 C-20.98154776 50.4215049 -20.32797214 52.52298556 -19.4453125 54.92578125 C-18.7853125 55.25578125 -18.1253125 55.58578125 -17.4453125 55.92578125 C-17.1153125 56.58578125 -16.7853125 57.24578125 -16.4453125 57.92578125 C-14.9603125 58.42078125 -14.9603125 58.42078125 -13.4453125 58.92578125 C-13.1153125 59.58578125 -12.7853125 60.24578125 -12.4453125 60.92578125 C-8.98799986 62.0782188 -6.21272037 62.09402962 -2.5703125 62.11328125 C-1.35601563 62.12746094 -0.14171875 62.14164062 1.109375 62.15625 C6.77237391 61.77743261 10.45419044 59.81046267 14.5546875 55.92578125 C18.71228433 50.33453035 18.30203432 43.5854718 17.5546875 36.92578125 C15.9614008 31.97460001 12.78337496 28.86236976 8.5546875 25.92578125 C8.54050781 26.51746094 8.52632812 27.10914063 8.51171875 27.71875 C8.25687658 31.94086488 7.89911624 34.41435675 5.4921875 37.98828125 C2.21165064 40.1520396 0.43900742 40.48448222 -3.3828125 40.4921875 C-6.5315024 39.62749046 -8.14802986 38.24305643 -10.4453125 35.92578125 C-10.95608129 33.21330985 -11.14900689 31.13070483 -11.109375 28.421875 C-11.11415863 27.70218033 -11.11894226 26.98248566 -11.12387085 26.24098206 C-11.12726496 24.72386481 -11.11809623 23.20667395 -11.09716797 21.68969727 C-11.0703479 19.36634779 -11.09694349 17.0478106 -11.12890625 14.72460938 C-11.12560282 13.24868725 -11.11919795 11.77276813 -11.109375 10.296875 C-11.11949615 9.60307236 -11.12961731 8.90926971 -11.14004517 8.19444275 C-11.09228516 6.23217773 -11.09228516 6.23217773 -10.4453125 2.92578125 C-7.22783794 0.33131281 -3.99043607 -1.75298709 0 0 Z " fill="#9B9B9B" transform="translate(555.4453125,433.07421875)"/>
<path d="M0 0 C0.87970459 -0.00524185 1.75940918 -0.0104837 2.66577148 -0.0158844 C4.53189032 -0.02231182 6.39804964 -0.0209583 8.26416016 -0.01245117 C11.08702382 -0.00401968 13.9078092 -0.03256286 16.73046875 -0.06445312 C38.10257987 -0.15111765 38.10257987 -0.15111765 45.36328125 6.47680664 C50.95030013 12.45639168 51.42531175 17.15553598 51.3359375 25.19921875 C51.01945875 30.05189286 50.15518491 33.41374057 46.58984375 36.9609375 C45.15567687 38.18489553 43.64543335 39.31860929 42.125 40.43359375 C42.53492188 40.8925 42.94484375 41.35140625 43.3671875 41.82421875 C43.90601563 42.4378125 44.44484375 43.05140625 45 43.68359375 C45.53367187 44.286875 46.06734375 44.89015625 46.6171875 45.51171875 C51.09133362 51.2145164 51.25954447 57.24823521 51.1875 64.30859375 C51.17847656 65.46101563 51.16945313 66.6134375 51.16015625 67.80078125 C51.14855469 68.66960937 51.13695312 69.5384375 51.125 70.43359375 C48.41937257 71.78640746 46.20606345 71.63968737 43.1875 71.68359375 C42.12660156 71.709375 41.06570313 71.73515625 39.97265625 71.76171875 C37.125 71.43359375 37.125 71.43359375 35.328125 70.41015625 C33.15257247 66.83603424 33.03136417 62.51235686 32.57226562 58.4140625 C31.98560264 54.45132008 31.30477156 52.15059622 28.20703125 49.48828125 C24.72541645 47.16720472 22.20158581 46.33236142 18.11328125 46.1171875 C16.97729492 46.0543457 16.97729492 46.0543457 15.81835938 45.99023438 C15.03267578 45.95091797 14.24699219 45.91160156 13.4375 45.87109375 C12.64021484 45.82791016 11.84292969 45.78472656 11.02148438 45.74023438 C9.05618553 45.63432007 7.09061504 45.53346824 5.125 45.43359375 C5.14071045 46.11462158 5.1564209 46.79564941 5.17260742 47.49731445 C5.23493222 50.58015656 5.27398258 53.66286619 5.3125 56.74609375 C5.33763672 57.81794922 5.36277344 58.88980469 5.38867188 59.99414062 C5.39833984 61.02216797 5.40800781 62.05019531 5.41796875 63.109375 C5.4336792 64.05723877 5.44938965 65.00510254 5.46557617 65.98168945 C5.125 68.43359375 5.125 68.43359375 3.76879883 70.24145508 C1.38709285 71.96874905 -0.46588406 71.83205436 -3.375 71.80859375 C-4.81359375 71.82019531 -4.81359375 71.82019531 -6.28125 71.83203125 C-8.875 71.43359375 -8.875 71.43359375 -10.5128479 70.29992676 C-12.49205787 67.58814083 -12.25619543 65.50868783 -12.26318359 62.17382812 C-12.27264008 60.88238892 -12.28209656 59.59094971 -12.2918396 58.26037598 C-12.28646992 56.84936212 -12.28031697 55.43835105 -12.2734375 54.02734375 C-12.27545835 52.58150078 -12.27836988 51.13565881 -12.28213501 49.68981934 C-12.28655789 46.66013888 -12.28012877 43.63072382 -12.26611328 40.60107422 C-12.24902105 36.71696599 -12.25886248 32.83347963 -12.27683067 28.94939423 C-12.2876697 25.96396191 -12.28422171 22.97867711 -12.2764473 19.99324036 C-12.2744456 18.56110053 -12.27690353 17.12894732 -12.28388596 15.69682312 C-12.29150144 13.69567113 -12.27783662 11.69447221 -12.26318359 9.69335938 C-12.26079681 8.55435181 -12.25841003 7.41534424 -12.25595093 6.24182129 C-11.875 3.43359375 -11.875 3.43359375 -10.59634399 1.56761169 C-7.45724004 -0.50042365 -3.64212522 -0.01262581 0 0 Z " fill="#D2D2D2" transform="translate(829.875,441.56640625)"/>
<path d="M0 0 C0.8353125 -0.00287018 1.670625 -0.00574036 2.53125 -0.00869751 C4.30322953 -0.01074001 6.07523151 -0.00519717 7.84716797 0.00732422 C10.52494646 0.02321465 13.20117815 0.00756683 15.87890625 -0.01171875 C39.2660392 -0.04232732 39.2660392 -0.04232732 47.19140625 7.75 C51.73181104 13.20883425 52.10418719 18.55204818 51.9140625 25.45703125 C51.22826716 31.19485222 49.17788612 34.97088697 44.875 38.7734375 C44.111875 39.3096875 43.34875 39.8459375 42.5625 40.3984375 C42.0675 41.3884375 42.0675 41.3884375 41.5625 42.3984375 C42.14 42.6253125 42.7175 42.8521875 43.3125 43.0859375 C47.2148656 45.36231743 49.09353285 48.27291634 50.8125 52.3984375 C52.16934038 57.86214295 52.09245724 63.82609299 51.5625 69.3984375 C49.5625 71.3984375 49.5625 71.3984375 46.84765625 71.6640625 C45.78417969 71.65890625 44.72070312 71.65375 43.625 71.6484375 C42.03365234 71.65617188 42.03365234 71.65617188 40.41015625 71.6640625 C37.5625 71.3984375 37.5625 71.3984375 34.5625 69.3984375 C33.79853849 66.0731751 33.28924978 62.80403151 32.83398438 59.42773438 C32.10040137 54.73540758 31.1239357 51.79656222 27.5625 48.3984375 C23.14891894 45.80595565 18.2420809 45.96256132 13.25 45.7734375 C12.41404297 45.73476563 11.57808594 45.69609375 10.71679688 45.65625 C8.66570741 45.56248591 6.61413485 45.47939505 4.5625 45.3984375 C4.57821045 46.11499512 4.5939209 46.83155273 4.61010742 47.56982422 C4.67231863 50.80428226 4.71144649 54.03861469 4.75 57.2734375 C4.77513672 58.40136719 4.80027344 59.52929688 4.82617188 60.69140625 C4.83583984 61.76777344 4.84550781 62.84414063 4.85546875 63.953125 C4.8711792 64.94812012 4.88688965 65.94311523 4.90307617 66.96826172 C4.79068604 67.77021973 4.6782959 68.57217773 4.5625 69.3984375 C1.32335771 71.55786569 0.31390267 71.67076728 -3.4375 71.6484375 C-4.30375 71.65359375 -5.17 71.65875 -6.0625 71.6640625 C-8.4375 71.3984375 -8.4375 71.3984375 -11.4375 69.3984375 C-11.81845093 66.67250061 -11.81845093 66.67250061 -11.82568359 63.16040039 C-11.83514008 61.8488649 -11.84459656 60.53732941 -11.8543396 59.18605042 C-11.84896953 57.74772847 -11.84281649 56.30940927 -11.8359375 54.87109375 C-11.83795771 53.40140132 -11.84086871 51.93170987 -11.84463501 50.46202087 C-11.84906228 47.37928743 -11.84261559 44.29681452 -11.82861328 41.21411133 C-11.81153583 37.26159665 -11.82135036 33.30969371 -11.83933067 29.35720158 C-11.85017067 26.32115571 -11.84672099 23.28525487 -11.8389473 20.24920464 C-11.83694509 18.79194504 -11.83940531 17.3346723 -11.84638596 15.87742805 C-11.85400139 13.8402443 -11.84033668 11.80301443 -11.82568359 9.76586914 C-11.82329681 8.60608047 -11.82091003 7.44629181 -11.81845093 6.25135803 C-11.4375 3.3984375 -11.4375 3.3984375 -10.14736938 1.5247345 C-7.10960112 -0.47625418 -3.52054414 -0.02662129 0 0 Z " fill="#D3D3D3" transform="translate(433.4375,441.6015625)"/>
<path d="M0 0 C1.84271484 0.00193359 1.84271484 0.00193359 3.72265625 0.00390625 C5.56150391 -0.02896484 5.56150391 -0.02896484 7.4375 -0.0625 C10.78515625 0.56640625 10.78515625 0.56640625 12.76611328 2.61108398 C15.14624537 6.09494118 16.78868345 9.6099144 18.4375 13.48046875 C18.77667953 14.26064362 19.11585907 15.04081848 19.46531677 15.84463501 C20.57982117 18.4152275 21.68261165 20.99066407 22.78515625 23.56640625 C23.56750698 25.37743598 24.35022779 27.18830588 25.13330078 28.99902344 C27.1535451 33.68303878 29.14947174 38.37693732 31.1340332 43.07617188 C31.95457052 45.01337282 32.7798987 46.9485504 33.60961914 48.88183594 C34.82616196 51.71751848 36.02793374 54.55905101 37.2265625 57.40234375 C37.60035538 58.26580414 37.97414825 59.12926453 38.35926819 60.01889038 C38.69389572 60.82138214 39.02852325 61.6238739 39.37329102 62.45068359 C39.82007957 63.50175797 39.82007957 63.50175797 40.27589417 64.57406616 C40.88624978 66.96190536 40.6860311 68.28622518 39.78515625 70.56640625 C36.90099742 72.00848566 34.36794097 71.66035512 31.16015625 71.62890625 C29.97164062 71.61988281 28.783125 71.61085938 27.55859375 71.6015625 C26.18574219 71.58416016 26.18574219 71.58416016 24.78515625 71.56640625 C23.99091764 70.00521203 23.19988502 68.44238661 22.41015625 66.87890625 C21.96929688 66.00878906 21.5284375 65.13867188 21.07421875 64.2421875 C19.86610195 61.73442989 18.81895703 59.15090821 17.78515625 56.56640625 C8.87515625 56.23640625 -0.03484375 55.90640625 -9.21484375 55.56640625 C-10.20484375 58.86640625 -11.19484375 62.16640625 -12.21484375 65.56640625 C-14.61210402 70.26503639 -14.61210402 70.26503639 -17.21484375 71.56640625 C-19.21209795 71.68839763 -21.21390356 71.74188137 -23.21484375 71.75390625 C-24.28734375 71.76808594 -25.35984375 71.78226563 -26.46484375 71.796875 C-29.21484375 71.56640625 -29.21484375 71.56640625 -31.21484375 69.56640625 C-30.89055997 64.41239789 -29.41314166 59.99403264 -27.40625 55.2890625 C-26.98252106 54.26831383 -26.98252106 54.26831383 -26.55023193 53.22694397 C-25.63371288 51.02425651 -24.70584183 48.82656771 -23.77734375 46.62890625 C-23.14083879 45.10754401 -22.50502033 43.58589439 -21.86987305 42.06396484 C-20.59472202 39.01094908 -19.31534521 35.95975374 -18.03320312 32.90966797 C-16.38939953 28.99284282 -14.7739454 25.06529961 -13.16796875 21.1328125 C-12.49205688 19.48430298 -12.49205688 19.48430298 -11.80249023 17.80249023 C-10.97299078 15.77868945 -10.14680128 13.75352777 -9.32446289 11.72680664 C-8.76940063 10.38283813 -8.76940063 10.38283813 -8.203125 9.01171875 C-7.88899658 8.24359863 -7.57486816 7.47547852 -7.2512207 6.68408203 C-4.35563236 0.76739574 -4.35563236 0.76739574 0 0 Z " fill="#D4D5D4" transform="translate(759.21484375,441.43359375)"/>
<path d="M0 0 C1.8262793 -0.00483398 1.8262793 -0.00483398 3.68945312 -0.00976562 C12.66111397 0.04490932 12.66111397 0.04490932 16.0625 2.3125 C16.4609375 4.58984375 16.4609375 4.58984375 16.4375 7.25 C16.44910156 8.56291016 16.44910156 8.56291016 16.4609375 9.90234375 C15.97425192 12.84631437 15.4421936 13.5491706 13.0625 15.3125 C10.33862305 15.66552734 10.33862305 15.66552734 7.07421875 15.6484375 C5.30208008 15.66777344 5.30208008 15.66777344 3.49414062 15.6875 C1.00975334 15.6875 -1.47464669 15.67976132 -3.95898438 15.6640625 C-11.18321763 15.54139838 -11.18321763 15.54139838 -17.60546875 18.3515625 C-19.63830167 20.93261334 -20.51980131 22.50179878 -21.58325195 25.49755859 C-21.84064651 26.21334076 -22.09804108 26.92912292 -22.36323547 27.66659546 C-22.64749641 28.48131821 -22.64749641 28.48131821 -22.9375 29.3125 C-21.82189697 29.30726318 -20.70629395 29.30202637 -19.55688477 29.29663086 C-15.43270667 29.27858225 -11.30853209 29.26706851 -7.18432617 29.25756836 C-5.39655979 29.25252782 -3.60879755 29.24569546 -1.82104492 29.23706055 C0.74301168 29.2249827 3.30701397 29.21926906 5.87109375 29.21484375 C6.6752623 29.20968246 7.47943085 29.20452118 8.30796814 29.19920349 C10.22651715 29.19900785 12.14495368 29.25048017 14.0625 29.3125 C15.86996134 31.11996134 15.23553483 33.81695781 15.25 36.25 C15.26417969 37.33152344 15.27835938 38.41304688 15.29296875 39.52734375 C15.0625 42.3125 15.0625 42.3125 13.0625 44.3125 C10.33764272 44.48767747 7.71590638 44.54399133 4.9921875 44.5078125 C4.19595978 44.5049826 3.39973206 44.50215271 2.57937622 44.49923706 C0.03193237 44.4880264 -2.51516211 44.46292062 -5.0625 44.4375 C-6.78775535 44.42747133 -8.51301619 44.41834528 -10.23828125 44.41015625 C-14.47148914 44.38808422 -18.7044353 44.35354867 -22.9375 44.3125 C-20.63787661 49.88570492 -18.72285568 53.83932306 -12.9375 56.3125 C-8.35391737 56.89183479 -3.80356205 56.96367212 0.8125 57 C3.2656897 57.04194573 5.71882371 57.08733741 8.171875 57.13671875 C9.25436523 57.14791748 10.33685547 57.15911621 11.45214844 57.1706543 C14.0625 57.3125 14.0625 57.3125 16.0625 58.3125 C16.11641993 60.10383978 16.15525571 61.89563899 16.1875 63.6875 C16.21070313 64.68523437 16.23390625 65.68296875 16.2578125 66.7109375 C16.0625 69.3125 16.0625 69.3125 14.0625 71.3125 C9.63110078 71.73856165 5.1837227 71.68408545 0.73413086 71.68310547 C-1.46777156 71.68743661 -3.66759884 71.72362038 -5.86914062 71.76171875 C-16.31693905 71.8460387 -24.48262358 70.36918954 -32.37109375 63.06640625 C-40.58141629 53.87330196 -41.38633801 42.77624394 -41.18359375 30.93359375 C-40.52650626 21.26502075 -37.13787478 14.24446834 -30.12109375 7.58984375 C-21.16834875 0.22869786 -11.18605203 -0.15140839 0 0 Z " fill="#D3D4D3" transform="translate(239.9375,441.6875)"/>
<path d="M0 0 C1.23041016 -0.00257813 2.46082031 -0.00515625 3.72851562 -0.0078125 C5.00017578 -0.00007813 6.27183594 0.00765625 7.58203125 0.015625 C8.86529297 0.00789063 10.14855469 0.00015625 11.47070312 -0.0078125 C12.69724609 -0.00523437 13.92378906 -0.00265625 15.1875 0 C16.30664795 0.00225586 17.4257959 0.00451172 18.57885742 0.00683594 C21.39453125 0.265625 21.39453125 0.265625 24.39453125 2.265625 C24.7578125 4.796875 24.7578125 4.796875 24.70703125 7.765625 C24.70316406 8.7453125 24.69929688 9.725 24.6953125 10.734375 C24.39453125 13.265625 24.39453125 13.265625 22.39453125 15.265625 C19.86010742 15.55273438 19.86010742 15.55273438 16.6875 15.609375 C14.97143555 15.65384766 14.97143555 15.65384766 13.22070312 15.69921875 C11.41956055 15.73208984 11.41956055 15.73208984 9.58203125 15.765625 C7.22118052 15.80913119 4.86046437 15.86090849 2.5 15.921875 C1.44965576 15.94056641 0.39931152 15.95925781 -0.68286133 15.97851562 C-5.03436824 16.40599638 -7.73575235 17.37105956 -10.79296875 20.515625 C-12.68233201 23.38224512 -13.58360903 26.00647769 -14.60546875 29.265625 C-12.93991943 29.24991455 -12.93991943 29.24991455 -11.24072266 29.23388672 C-7.12958996 29.19774551 -3.01847136 29.17474604 1.09277344 29.15576172 C2.87372192 29.14569069 4.65465382 29.13203315 6.43554688 29.11474609 C8.99222908 29.09054587 11.5486931 29.07915316 14.10546875 29.0703125 C15.30397964 29.05482864 15.30397964 29.05482864 16.52670288 29.03903198 C18.48410345 29.03863274 20.44096202 29.14321431 22.39453125 29.265625 C24.39453125 31.265625 24.39453125 31.265625 24.66015625 33.578125 C24.655 34.465 24.64984375 35.351875 24.64453125 36.265625 C24.65226562 37.5959375 24.65226562 37.5959375 24.66015625 38.953125 C24.39453125 41.265625 24.39453125 41.265625 22.39453125 43.265625 C19.66967397 43.44080247 17.04793763 43.49711633 14.32421875 43.4609375 C13.52799103 43.4581076 12.73176331 43.45527771 11.91140747 43.45236206 C9.36396362 43.4411514 6.81686914 43.41604562 4.26953125 43.390625 C2.5442759 43.38059633 0.81901506 43.37147028 -0.90625 43.36328125 C-5.13945789 43.34120922 -9.37240405 43.30667367 -13.60546875 43.265625 C-12.51366609 47.74776225 -11.45571717 51.33136567 -8.3125 54.78515625 C-2.43360888 57.1329958 3.43424767 56.90577132 9.70703125 56.953125 C12.26568841 56.99498702 14.82429143 57.0403585 17.3828125 57.08984375 C19.07724487 57.10664185 19.07724487 57.10664185 20.8059082 57.1237793 C23.39453125 57.265625 23.39453125 57.265625 24.39453125 58.265625 C24.51947741 59.88701937 24.57024749 61.51446622 24.58203125 63.140625 C24.59621094 64.02492188 24.61039063 64.90921875 24.625 65.8203125 C24.39453125 68.265625 24.39453125 68.265625 22.39453125 71.265625 C18.13630374 71.8560545 13.84293832 71.73764729 9.54833984 71.71166992 C7.42964114 71.70326429 5.31373709 71.73172463 3.1953125 71.76367188 C-7.04891892 71.81708903 -16.26848568 70.38739894 -24.0703125 63.17578125 C-30.66610939 54.96879733 -31.81744423 45.73328658 -31.91796875 35.640625 C-31.94697266 34.69316406 -31.97597656 33.74570312 -32.00585938 32.76953125 C-32.09303788 22.96530246 -29.27914594 15.12005516 -22.53125 7.953125 C-19.5204482 5.31485649 -16.33210511 3.67269144 -12.60546875 2.265625 C-11.70860352 1.9248291 -10.81173828 1.5840332 -9.88769531 1.23291016 C-6.42433407 0.21224389 -3.60272063 0.00724009 0 0 Z " fill="#D4D5D5" transform="translate(90.60546875,441.734375)"/>
<path d="M0 0 C1.89782227 -0.00483398 1.89782227 -0.00483398 3.83398438 -0.00976562 C13.16118089 0.04495393 13.16118089 0.04495393 16.5625 2.3125 C16.92578125 4.84375 16.92578125 4.84375 16.875 7.8125 C16.87113281 8.7921875 16.86726563 9.771875 16.86328125 10.78125 C16.5625 13.3125 16.5625 13.3125 14.5625 15.3125 C11.86035156 15.56787109 11.86035156 15.56787109 8.453125 15.5859375 C6.60847656 15.616875 6.60847656 15.616875 4.7265625 15.6484375 C2.13287761 15.67432258 -0.46089461 15.69264503 -3.0546875 15.703125 C-10.36375432 15.61036534 -10.36375432 15.61036534 -17.140625 17.9140625 C-22.19978152 23.19692321 -22.94665586 28.77857533 -22.8125 35.75 C-22.79944824 36.87269287 -22.79944824 36.87269287 -22.78613281 38.01806641 C-22.61998046 44.25422722 -22.16059122 49.67450538 -17.4375 54.25 C-13.58157509 56.29846011 -10.35816796 56.48048466 -6.0546875 56.59375 C-4.80558594 56.63113281 -3.55648437 56.66851562 -2.26953125 56.70703125 C0.37629655 56.77755183 3.02212993 56.84786311 5.66796875 56.91796875 C6.91449219 56.95535156 8.16101563 56.99273437 9.4453125 57.03125 C10.59402832 57.06154297 11.74274414 57.09183594 12.92626953 57.12304688 C15.5625 57.3125 15.5625 57.3125 16.5625 58.3125 C16.71341913 60.12062724 16.78419008 61.93580617 16.8125 63.75 C16.83828125 64.73871094 16.8640625 65.72742188 16.890625 66.74609375 C16.78234375 67.59300781 16.6740625 68.43992187 16.5625 69.3125 C11.6662104 72.57669307 5.89100927 71.68437509 0.15869141 71.68310547 C-2.03433929 71.68744429 -4.22529877 71.72366701 -6.41796875 71.76171875 C-16.97944627 71.8473664 -24.97774208 70.29312711 -32.9375 62.94140625 C-39.98258935 55.29087953 -40.78573371 45.78753104 -40.75 35.875 C-40.76611328 34.98490234 -40.78222656 34.09480469 -40.79882812 33.17773438 C-40.80602497 23.32525128 -38.17605608 15.57551917 -31.4375 8.3125 C-22.66247112 0.03214186 -11.45869672 -0.14912411 0 0 Z " fill="#D3D4D3" transform="translate(314.4375,441.6875)"/>
<path d="M0 0 C1.15452164 -0.00622879 2.30904327 -0.01245758 3.49855042 -0.01887512 C5.36893227 -0.0050605 5.36893227 -0.0050605 7.27709961 0.0090332 C8.55548203 0.0085347 9.83386444 0.00803619 11.15098572 0.00752258 C13.85551982 0.00986503 16.55927333 0.01803063 19.26367188 0.03613281 C22.73301976 0.0588429 26.20193247 0.05935956 29.67133427 0.05261517 C32.97745564 0.04847456 36.2834994 0.06044289 39.58959961 0.0715332 C40.83854507 0.0706218 42.08749054 0.06971039 43.37428284 0.06877136 C45.10133705 0.08306938 45.10133705 0.08306938 46.86328125 0.09765625 C47.88015518 0.10226364 48.89702911 0.10687103 49.94471741 0.11161804 C52.36694336 0.37231445 52.36694336 0.37231445 54.36694336 2.37231445 C54.63256836 4.90356445 54.63256836 4.90356445 54.61694336 7.87231445 C54.62467773 9.3418457 54.62467773 9.3418457 54.63256836 10.84106445 C54.36694336 13.37231445 54.36694336 13.37231445 52.36694336 15.37231445 C50.2121582 15.59936523 50.2121582 15.59936523 47.57788086 15.56762695 C46.63686523 15.56118164 45.69584961 15.55473633 44.72631836 15.5480957 C43.74147461 15.53133789 42.75663086 15.51458008 41.74194336 15.49731445 C40.74936523 15.48829102 39.75678711 15.47926758 38.73413086 15.4699707 C36.27816202 15.44635562 33.82267168 15.41342245 31.36694336 15.37231445 C31.37582581 16.02964066 31.38470825 16.68696686 31.39385986 17.36421204 C31.4822157 24.19324058 31.54262881 31.02210731 31.58666992 37.8515625 C31.60681032 40.40175977 31.63412433 42.95191073 31.66870117 45.50195312 C31.71711075 49.16328343 31.7398881 52.82400428 31.75756836 56.4855957 C31.7782135 57.62942215 31.79885864 58.7732486 31.82012939 59.95173645 C31.82043152 61.01260971 31.82073364 62.07348297 31.82104492 63.16650391 C31.82992737 64.10138138 31.83880981 65.03625885 31.84796143 65.99946594 C31.36694336 68.37231445 31.36694336 68.37231445 29.49310303 70.17277527 C26.92489934 71.62170735 25.23996434 71.77388025 22.30444336 71.74731445 C21.01860352 71.75891602 21.01860352 71.75891602 19.70678711 71.77075195 C16.83650442 71.28198929 16.11911594 70.66657849 14.36694336 68.37231445 C14.00617981 65.99946594 14.00617981 65.99946594 14.02636719 63.16650391 C14.02659378 62.10563065 14.02682037 61.04475739 14.02705383 59.95173645 C14.04253769 58.80791 14.05802155 57.66408356 14.07397461 56.4855957 C14.07821945 55.31345016 14.08246429 54.14130463 14.08683777 52.93363953 C14.10365264 49.18379911 14.14131104 45.43449288 14.17944336 41.68481445 C14.19448652 39.14510866 14.20817556 36.60539446 14.22045898 34.06567383 C14.2535654 27.83437127 14.30379308 21.60338102 14.36694336 15.37231445 C13.74126465 15.38278809 13.11558594 15.39326172 12.47094727 15.40405273 C9.64465326 15.44554637 6.81842325 15.47161918 3.99194336 15.49731445 C3.00709961 15.51407227 2.02225586 15.53083008 1.00756836 15.5480957 C0.06655273 15.55454102 -0.87446289 15.56098633 -1.84399414 15.56762695 C-3.14796143 15.5833374 -3.14796143 15.5833374 -4.47827148 15.59936523 C-6.63305664 15.37231445 -6.63305664 15.37231445 -8.63305664 13.37231445 C-8.93383789 11.0949707 -8.93383789 11.0949707 -8.94555664 8.43481445 C-8.96231445 7.55954102 -8.97907227 6.68426758 -8.99633789 5.7824707 C-8.18883736 0.42518223 -4.88119528 -0.003019 0 0 Z " fill="#D2D3D3" transform="translate(904.633056640625,441.627685546875)"/>
<path d="M0 0 C7.3278296 0.68364591 11.23737548 4.66553377 16 10 C20.97643777 18.17279205 21.77139736 26.58026045 21 36 C18.56166529 45.96233895 12.22010455 54.04879309 4 60 C-4.16514991 64.73578695 -13.7468936 65.25023909 -23 64 C-27.42919516 62.55851644 -31.12144074 60.55794552 -35 58 C-35.67546875 57.59007812 -36.3509375 57.18015625 -37.046875 56.7578125 C-43.61437123 52.07919793 -47.92162779 43.72968034 -49.39746094 35.88818359 C-50.72609267 24.46556957 -48.12049762 15.65147468 -41.06640625 6.48828125 C-37.85626711 2.90268724 -35.98359362 1.19349383 -31.1875 0.25 C-28 1 -28 1 -26 2.6875 C-25 5 -25 5 -25 7.5 C-26.30917904 10.77294759 -28.24756341 11.8105618 -31 14 C-35.29321456 18.57244803 -36.37583325 22.77333053 -36.5625 29 C-36.29709672 35.70681252 -35.24674018 40.62304297 -30.5390625 45.51953125 C-24.25273019 51.05597113 -18.90096129 51.60868447 -10.71484375 51.3828125 C-4.35107955 50.72703028 -1.12649105 48.06901832 3.3125 43.75 C6.82324658 38.02878335 8.94471919 31.73112422 8 25 C6.13407791 19.93649346 4.10343986 15.50164218 -0.3125 12.25 C-3 10 -3 10 -3.5625 6.9375 C-2.96438371 3.81400379 -2.13630675 2.31433231 0 0 Z " fill="#F8F8F8" transform="translate(568,447)"/>
<path d="M0 0 C1.60197487 -0.01902626 1.60197487 -0.01902626 3.23631287 -0.03843689 C4.38946487 -0.03550125 5.54261688 -0.03256561 6.73071289 -0.02954102 C8.50799522 -0.03740379 8.50799522 -0.03740379 10.32118225 -0.04542542 C12.82869686 -0.05185333 15.33624158 -0.05049874 17.84375 -0.04199219 C21.68487166 -0.03348822 25.5245041 -0.06222613 29.36547852 -0.09399414 C31.79972286 -0.09560631 34.23396984 -0.09502832 36.66821289 -0.09204102 C38.39490456 -0.10889198 38.39490456 -0.10889198 40.15647888 -0.12608337 C41.22761429 -0.11670242 42.29874969 -0.10732147 43.40234375 -0.09765625 C44.81440346 -0.097407 44.81440346 -0.097407 46.25498962 -0.09715271 C49.51443815 0.55347721 50.71346405 1.84493985 52.76586914 4.40405273 C53.22680664 6.69311523 53.22680664 6.69311523 53.14086914 9.02905273 C53.12797852 9.80506836 53.11508789 10.58108398 53.10180664 11.38061523 C52.76586914 13.40405273 52.76586914 13.40405273 50.76586914 15.40405273 C48.61108398 15.63110352 48.61108398 15.63110352 45.97680664 15.59936523 C45.03579102 15.59291992 44.09477539 15.58647461 43.12524414 15.57983398 C42.14040039 15.56307617 41.15555664 15.54631836 40.14086914 15.52905273 C39.14829102 15.5200293 38.15571289 15.51100586 37.13305664 15.50170898 C34.6770878 15.4780939 32.22159746 15.44516073 29.76586914 15.40405273 C29.77253098 16.07612762 29.77919281 16.74820251 29.78605652 17.44064331 C29.8522634 24.41553987 29.89760866 31.39034765 29.93066406 38.36547852 C29.94578022 40.97098412 29.96627346 43.57646418 29.9921875 46.18188477 C30.02844602 49.9200673 30.04556713 53.65791438 30.05883789 57.39624023 C30.07432175 58.56710175 30.0898056 59.73796326 30.10575867 60.94430542 C30.10598526 62.02527496 30.10621185 63.10624451 30.10644531 64.2199707 C30.11310715 65.17483368 30.11976898 66.12969666 30.12663269 67.11349487 C30.00758072 67.86937897 29.88852875 68.62526306 29.76586914 69.40405273 C26.43189608 71.62670144 25.17072023 71.70080737 21.26586914 71.71655273 C20.30680664 71.73331055 19.34774414 71.75006836 18.35961914 71.76733398 C15.76586914 71.40405273 15.76586914 71.40405273 14.12504578 70.20671082 C12.28929176 67.77197442 12.403685 66.23055989 12.42529297 63.19824219 C12.42551956 62.13736893 12.42574615 61.07649567 12.42597961 59.98347473 C12.44146347 58.83964828 12.45694733 57.69582184 12.47290039 56.51733398 C12.47714523 55.34518845 12.48139008 54.17304291 12.48576355 52.96537781 C12.50257842 49.21553739 12.54023682 45.46623117 12.57836914 41.71655273 C12.5934123 39.17684694 12.60710134 36.63713275 12.61938477 34.09741211 C12.65249118 27.86610955 12.70271886 21.6351193 12.76586914 15.40405273 C11.91822998 15.41976318 11.91822998 15.41976318 11.0534668 15.43579102 C8.49931261 15.47730062 5.94522932 15.50336233 3.39086914 15.52905273 C2.50141602 15.54581055 1.61196289 15.56256836 0.69555664 15.57983398 C-0.15522461 15.5862793 -1.00600586 15.59272461 -1.88256836 15.59936523 C-3.06085205 15.61507568 -3.06085205 15.61507568 -4.26293945 15.63110352 C-6.23413086 15.40405273 -6.23413086 15.40405273 -8.23413086 13.40405273 C-8.53491211 11.12670898 -8.53491211 11.12670898 -8.54663086 8.46655273 C-8.56338867 7.5912793 -8.58014648 6.71600586 -8.59741211 5.81420898 C-7.82299237 0.67639201 -4.7355903 0.02720278 0 0 Z " fill="#D2D3D2" transform="translate(352.234130859375,441.595947265625)"/>
<path d="M0 0 C0.85464844 -0.01675781 1.70929688 -0.03351563 2.58984375 -0.05078125 C5.61488438 0.393656 6.84438579 1.22826579 9.0625 3.3125 C9.56802368 5.4306488 9.56802368 5.4306488 9.57666016 7.90405273 C9.5899234 8.83189072 9.60318665 9.7597287 9.61685181 10.71568298 C9.61180634 11.71571854 9.60676086 12.71575409 9.6015625 13.74609375 C9.61335541 14.77557632 9.62514832 15.8050589 9.63729858 16.86573792 C9.67265571 20.16064488 9.68173727 23.4549186 9.6875 26.75 C9.70383529 30.04132049 9.72587518 33.33235628 9.75912476 36.62355042 C9.77876849 38.67241592 9.78808816 40.72141184 9.78604126 42.77037048 C9.79300018 43.70136063 9.79995911 44.63235077 9.80712891 45.59155273 C9.80838776 46.40857162 9.80964661 47.22559052 9.8109436 48.06736755 C10.09170186 50.57312566 10.74545098 52.17299161 12.0625 54.3125 C15.05887487 56.35279206 17.62204423 56.58103695 21.1953125 56.65625 C22.65130859 56.70072266 22.65130859 56.70072266 24.13671875 56.74609375 C26.17838172 56.79053456 28.22004843 56.8348041 30.26171875 56.87890625 C31.71384766 56.92337891 31.71384766 56.92337891 33.1953125 56.96875 C34.08105957 56.98744141 34.96680664 57.00613281 35.87939453 57.02539062 C38.0625 57.3125 38.0625 57.3125 40.0625 59.3125 C40.36328125 61.625 40.36328125 61.625 40.375 64.3125 C40.39175781 65.199375 40.40851563 66.08625 40.42578125 67 C40.30589844 67.763125 40.18601563 68.52625 40.0625 69.3125 C35.17261825 72.57242117 29.74869339 71.72261078 24 71.75 C22.80955078 71.78287109 21.61910156 71.81574219 20.39257812 71.84960938 C12.58259241 71.89683854 6.51528477 70.92207341 0.0625 66.3125 C-7.55384877 58.48887753 -8.24757044 50.47237269 -8.23828125 39.98046875 C-8.24256638 38.90751053 -8.2468515 37.83455231 -8.25126648 36.7290802 C-8.256988 34.47247014 -8.25752618 32.21584164 -8.25317383 29.95922852 C-8.24999449 26.49398916 -8.27356739 23.02958827 -8.29882812 19.56445312 C-8.30109927 17.36979275 -8.30180547 15.17513007 -8.30078125 12.98046875 C-8.309991 11.94093552 -8.31920074 10.90140228 -8.32868958 9.83036804 C-8.32246078 8.8720961 -8.31623199 7.91382416 -8.30981445 6.92651367 C-8.31044388 6.08158859 -8.3110733 5.23666351 -8.3117218 4.36613464 C-8.18822861 3.68843521 -8.06473541 3.01073578 -7.9375 2.3125 C-4.73125113 0.17500075 -3.71291897 0.01675001 0 0 Z " fill="#D3D4D3" transform="translate(143.9375,441.6875)"/>
<path d="M0 0 C3.00204281 2.42100227 3.00935621 4.07368015 3.5 7.9375 C3.37447872 11.33285074 3.09381932 11.89054413 0.75 14.625 C-0.1575 15.40875 -1.065 16.1925 -2 17 C-6.48148362 23.09979714 -7.57539732 27.44966443 -7 35 C-6.53623526 37.49572365 -5.88265964 39.59720431 -5 42 C-4.34 42.33 -3.68 42.66 -3 43 C-2.67 43.66 -2.34 44.32 -2 45 C-0.515 45.495 -0.515 45.495 1 46 C1.33 46.66 1.66 47.32 2 48 C5.45731264 49.15243755 8.23259213 49.16824837 11.875 49.1875 C13.08929687 49.20167969 14.30359375 49.21585937 15.5546875 49.23046875 C21.21768641 48.85165136 24.89950294 46.88468142 29 43 C32.13079213 38.1919978 32.63968778 33.59105176 33 28 C35.36152957 32.11894693 35.19689298 35.48325788 34 40 C30.93189367 45.79531195 26.18908272 50.57772107 20 53 C12.44194272 53.82720673 4.85731577 54.32443431 -1.421875 49.4921875 C-6.29168045 44.88756948 -9.54964633 40.58550806 -10.40625 33.765625 C-10.62817002 25.44362422 -9.78353507 20.16278327 -4 14 C-1.125 11.4375 -1.125 11.4375 1 10 C0.72459296 6.18186553 0.72459296 6.18186553 -1 3 C-4.35518934 2.46316971 -6.85169639 2.27579988 -9.80859375 4.140625 C-16.76093208 10.52005349 -21.11640997 18.77876566 -21.76416016 28.20019531 C-21.99613656 38.63679013 -19.14026547 47.45468547 -11.91796875 55.24609375 C-6.61135211 59.69217796 -0.37485307 62.41431193 6 65 C5.38640625 65.13277344 4.7728125 65.26554687 4.140625 65.40234375 C1.59336994 66.11352993 0.02817924 67.33399563 -2 69 C-2 68.01 -2 67.02 -2 66 C-3.98 66 -5.96 66 -8 66 C-7.505 64.515 -7.505 64.515 -7 63 C-7.49628906 62.61070312 -7.99257813 62.22140625 -8.50390625 61.8203125 C-18.13021891 53.8927609 -23.79895918 45.1496407 -25.27734375 32.65625 C-25.75221319 21.86721637 -21.21288321 12.7884724 -14.125 4.91796875 C-9.24148134 -0.07746388 -7.23059764 -1.64908367 0 0 Z M-10 72 C-8.35 72 -6.7 72 -5 72 C-5 72.99 -5 73.98 -5 75 C-6.65 74.67 -8.3 74.34 -10 74 C-10 73.34 -10 72.68 -10 72 Z " fill="#9E9E9E" transform="translate(541,446)"/>
<path d="M0 0 C3.91707941 -0.08085714 7.83249359 -0.14043614 11.75 -0.1875 C12.86117187 -0.21263672 13.97234375 -0.23777344 15.1171875 -0.26367188 C16.18710937 -0.27333984 17.25703125 -0.28300781 18.359375 -0.29296875 C19.34389648 -0.3086792 20.32841797 -0.32438965 21.34277344 -0.34057617 C24.42848588 0.05491895 25.77272514 0.86352221 28 3 C28.56640625 5.12109375 28.56640625 5.12109375 28.5625 7.4375 C28.58441406 8.19933594 28.60632813 8.96117187 28.62890625 9.74609375 C28 12 28 12 26.203125 14.26953125 C21.30461338 16.91592228 16.65589537 16.4237059 11.1875 16.25 C10.11306641 16.23195313 9.03863281 16.21390625 7.93164062 16.1953125 C5.28737679 16.14830337 2.64357317 16.07656366 0 16 C0 10.72 0 5.44 0 0 Z " fill="#636363" transform="translate(835,457)"/>
<path d="M0 0 C3.7501919 -0.0539165 7.49960961 -0.09363473 11.25 -0.125 C12.84521484 -0.15013672 12.84521484 -0.15013672 14.47265625 -0.17578125 C16.00986328 -0.18544922 16.00986328 -0.18544922 17.578125 -0.1953125 C18.52075195 -0.20578613 19.46337891 -0.21625977 20.43457031 -0.22705078 C23.13506607 0.01195389 24.73292865 0.53635819 27 2 C28.56700442 5.13400885 28.85164561 8.63155095 28 12 C25.77627647 14.79303569 23.98992088 15.87894273 20.43261719 16.31396484 C17.34122145 16.39424092 14.27829654 16.34818046 11.1875 16.25 C10.11306641 16.23195313 9.03863281 16.21390625 7.93164062 16.1953125 C5.28737679 16.14830337 2.64357317 16.07656366 0 16 C0 10.72 0 5.44 0 0 Z " fill="#656566" transform="translate(439,457)"/>
<path d="M0 0 C1.051875 -0.02126953 1.051875 -0.02126953 2.125 -0.04296875 C4 0.1875 4 0.1875 6 2.1875 C6.25878906 5.13671875 6.25878906 5.13671875 6.265625 8.875 C6.26753845 9.53330811 6.2694519 10.19161621 6.27142334 10.86987305 C6.2727845 12.2618854 6.26909283 13.65391047 6.26074219 15.04589844 C6.250041 17.17932589 6.26063906 19.31191131 6.2734375 21.4453125 C6.27211589 22.79687686 6.26955347 24.1484407 6.265625 25.5 C6.26336914 26.73363281 6.26111328 27.96726562 6.25878906 29.23828125 C6 32.1875 6 32.1875 4 34.1875 C1.8359375 34.3828125 1.8359375 34.3828125 -0.625 34.3125 C-1.44226563 34.29445313 -2.25953125 34.27640625 -3.1015625 34.2578125 C-3.72804688 34.23460937 -4.35453125 34.21140625 -5 34.1875 C-6.48679725 31.21390551 -6.11112605 28.52450821 -6.09765625 25.2109375 C-6.09553383 24.18306625 -6.09553383 24.18306625 -6.09336853 23.13442993 C-6.08776675 20.94374239 -6.07521406 18.7531567 -6.0625 16.5625 C-6.05748522 15.07812648 -6.05292228 13.59375135 -6.04882812 12.109375 C-6.03779677 8.46871685 -6.02053099 4.82811836 -6 1.1875 C-3.77109005 0.07304502 -2.46944894 0.02269714 0 0 Z " fill="#F9F9F9" transform="translate(554,434.8125)"/>
<path d="M0 0 C0.495 4.95 0.495 4.95 1 10 C-10.98993411 13.57146973 -21.1475382 14.40533978 -33 10 C-32.30720647 5.37087956 -31.24720853 3.15939066 -27.62109375 0.234375 C-19.20619008 -3.72853045 -8.63989901 -2.49358979 0 0 Z " fill="#C3C3C3" transform="translate(569,512)"/>
<path d="M0 0 C0.99 0 1.98 0 3 0 C3 1.98 3 3.96 3 6 C3.66 6 4.32 6 5 6 C5 6.99 5 7.98 5 9 C4.34 9 3.68 9 3 9 C3 13.29 3 17.58 3 22 C2.01 22 1.02 22 0 22 C-0.33 20.02 -0.66 18.04 -1 16 C-1.66 16 -2.32 16 -3 16 C-3.144375 16.804375 -3.28875 17.60875 -3.4375 18.4375 C-4 21 -4 21 -5 22 C-11.25223983 22.5789111 -11.25223983 22.5789111 -13.9375 20.5 C-15.45296901 16.93419056 -15.68902739 13.8131402 -15 10 C-13.4375 7.5625 -13.4375 7.5625 -11 6 C-7.375 5.3125 -7.375 5.3125 -4 5 C-3.34 4.67 -2.68 4.34 -2 4 C-2 4.66 -2 5.32 -2 6 C-1.34 6 -0.68 6 0 6 C0 4.02 0 2.04 0 0 Z " fill="#686867" transform="translate(600,577)"/>
<path d="M0 0 C0.99 0 1.98 0 3 0 C3 9.24 3 18.48 3 28 C-0.63 28 -4.26 28 -8 28 C-11.51749914 24.48250086 -11.7540851 22.90868226 -12.125 18.1640625 C-12 16 -12 16 -10.4375 13.4375 C-7.40187473 11.64725946 -5.4693615 11.61451539 -2 12 C-1.67 12.33 -1.34 12.66 -1 13 C-0.67 8.71 -0.34 4.42 0 0 Z " fill="#ABABAC" transform="translate(499,571)"/>
<path d="M0 0 C1.98 0 3.96 0 6 0 C6 0.99 6 1.98 6 3 C7.32 3 8.64 3 10 3 C12.25390625 5.1953125 12.25390625 5.1953125 14.5625 8.125 C15.32691406 9.07632812 16.09132813 10.02765625 16.87890625 11.0078125 C23.50122115 20.34978895 24.40119133 30.83691766 23 42 C20.50307015 50.08968417 14.44130955 60.97705025 6.8203125 65.2109375 C6.21960938 65.47132813 5.61890625 65.73171875 5 66 C3.71387324 67.05978933 3.71387324 67.05978933 3.90234375 69.50390625 C3.91394531 70.51324219 3.92554688 71.52257812 3.9375 72.5625 C3.94652344 73.57441406 3.95554687 74.58632813 3.96484375 75.62890625 C3.97644531 76.41136719 3.98804688 77.19382812 4 78 C3.34 78 2.68 78 2 78 C0.39274365 74.78548731 0.94251815 71.56387464 1 68 C-0.98 67.67 -2.96 67.34 -5 67 C-2 65 -2 65 0.234375 63.7734375 C9.64418566 58.54251791 16.3137454 51.56356332 19.58203125 41.14453125 C21.34730864 32.08717343 20.31451733 23.1468239 16 15 C12.15631816 9.348646 7.96636488 6.15866376 2 3 C1.34 2.01 0.68 1.02 0 0 Z " fill="#9A9A9A" transform="translate(568,444)"/>
<path d="M0 0 C2.75446456 2.75446456 3.47404432 5.99952779 4.625 9.625 C5.40875 12.05875 6.1925 14.4925 7 17 C8.98 11.72 10.96 6.44 13 1 C13.99 1 14.98 1 16 1 C13.42867609 9.69651012 10.71587276 18.347852 8 27 C7.34 27 6.68 27 6 27 C5.73445313 26.03578125 5.46890625 25.0715625 5.1953125 24.078125 C4.84210938 22.81484375 4.48890625 21.5515625 4.125 20.25 C3.77695312 18.99703125 3.42890625 17.7440625 3.0703125 16.453125 C2.04879119 12.82698023 2.04879119 12.82698023 0 9 C-1.98 14.61 -3.96 20.22 -6 26 C-8.2534872 23.7465128 -8.73648451 22.28025546 -9.7265625 19.28125 C-10.0359375 18.34925781 -10.3453125 17.41726563 -10.6640625 16.45703125 C-10.98117187 15.48121094 -11.29828125 14.50539063 -11.625 13.5 C-12.11226563 12.03626953 -12.11226563 12.03626953 -12.609375 10.54296875 C-15 3.28069196 -15 3.28069196 -15 1 C-14.01 1 -13.02 1 -12 1 C-11.65066406 2.07121094 -11.30132812 3.14242187 -10.94140625 4.24609375 C-10.48192855 5.64328104 -10.02228454 7.04041365 -9.5625 8.4375 C-9.21735352 9.49807617 -9.21735352 9.49807617 -8.86523438 10.58007812 C-7.92578853 14.06306795 -7.92578853 14.06306795 -6 17 C-5.65066406 15.85660156 -5.30132812 14.71320312 -4.94140625 13.53515625 C-4.48193537 12.04422012 -4.02229099 10.55333745 -3.5625 9.0625 C-3.33240234 8.30775391 -3.10230469 7.55300781 -2.86523438 6.77539062 C-1.11328125 1.11328125 -1.11328125 1.11328125 0 0 Z " fill="#B7B8B9" transform="translate(438,573)"/>
<path d="M0 0 C1.25554674 3.76664022 0.12785835 5.27151075 -1.2890625 8.8203125 C-3.18746718 14.64069609 -2.06346118 20.38280011 0 26 C0.66 26.33 1.32 26.66 2 27 C2.33 27.66 2.66 28.32 3 29 C3.99 29.33 4.98 29.66 6 30 C6.33 30.66 6.66 31.32 7 32 C10.45731264 33.15243755 13.23259213 33.16824837 16.875 33.1875 C18.08929687 33.20167969 19.30359375 33.21585937 20.5546875 33.23046875 C26.21768641 32.85165136 29.89950294 30.88468142 34 27 C37.13079213 22.1919978 37.63968778 17.59105176 38 12 C40.36152957 16.11894693 40.19689298 19.48325788 39 24 C35.93189367 29.79531195 31.18908272 34.57772107 25 37 C17.44194272 37.82720673 9.85731577 38.32443431 3.578125 33.4921875 C-1.31924331 28.86150756 -4.64224466 24.55675369 -5.3359375 17.66015625 C-5.46540676 5.73603747 -5.46540676 5.73603747 -1 1 C-0.67 0.67 -0.34 0.34 0 0 Z " fill="#908F8F" transform="translate(536,462)"/>
<path d="M0 0 C3.5 0.625 3.5 0.625 5.9375 2.6875 C7.88925759 6.35680427 8.09677999 8.52213759 7.5 12.625 C5.9375 15.0625 5.9375 15.0625 3.5 16.625 C0 17.1875 0 17.1875 -3.5 16.625 C-6.43307135 14.06796344 -7.36097012 12.45917929 -8 8.625 C-7.12217385 3.35804308 -5.32519911 0.95092841 0 0 Z " fill="#ADAFAE" transform="translate(380.5,582.375)"/>
<path d="M0 0 C3.32878632 2.46040728 4.79301948 3.89610387 5.5625 8 C4.84909176 11.80484394 3.9236459 13.4511805 1 16 C-2.93311127 16.63210717 -5.02467068 16.60020266 -8.4375 14.5 C-10.63559176 10.98305319 -10.81157964 8.04133533 -10 4 C-7.317936 -0.12625231 -4.78913194 -0.87963648 0 0 Z " fill="#C1C2C2" transform="translate(464,583)"/>
<path d="M0 0 C2.10358381 1.54262813 2.84054159 2.68108317 4 5 C4.4104525 8.69407253 4.22767266 10.5810823 2.4375 13.875 C0 16 0 16 -3.5 16.625 C-7 16 -7 16 -9.4375 13.9375 C-11.38925759 10.26819573 -11.59677999 8.10286241 -11 4 C-8.10582692 -0.51491 -5.12365602 -0.65210168 0 0 Z " fill="#C1C1C1" transform="translate(627,583)"/>
<path d="M0 0 C3.32274404 2.45594125 4.77618008 3.9256644 5.625 8 C4.77618008 12.0743356 3.32274404 13.54405875 0 16 C-3.65126535 16.67064058 -5.23686002 16.48198314 -8.375 14.5 C-10.65416433 10.99359333 -10.81753559 8.07099353 -10 4 C-7.317936 -0.12625231 -4.78913194 -0.87963648 0 0 Z " fill="#BCBCBB" transform="translate(523,583)"/>
<path d="M0 0 C-0.33 0.66 -0.66 1.32 -1 2 C-5.89663942 1.14488834 -10.39455237 -0.48707808 -15.0625 -2.16015625 C-17.88286719 -2.96651123 -20.08888651 -3.16589066 -23 -3 C-23 -3.66 -23 -4.32 -23 -5 C-30.35028773 -4.11796547 -37.67349017 -3.05987432 -45 -2 C-45.33 -1.01 -45.66 -0.02 -46 1 C-47.32 0.34 -48.64 -0.32 -50 -1 C-47 -3 -47 -3 -44 -3 C-43.79375 -3.61875 -43.5875 -4.2375 -43.375 -4.875 C-35.5636158 -16.94713922 -8.61921129 -5.53708168 0 0 Z " fill="#8D8D8D" transform="translate(583,431)"/>
<path d="M0 0 C3.46566672 2.73714819 4.65796074 6.57059135 6.1875 10.5625 C6.46013672 11.24763672 6.73277344 11.93277344 7.01367188 12.63867188 C9 17.71152491 9 17.71152491 9 20 C3.39 20 -2.22 20 -8 20 C-2.28571429 2.28571429 -2.28571429 2.28571429 0 0 Z " fill="#696969" transform="translate(763,463)"/>
<path d="M0 0 C2.9375 0.5 2.9375 0.5 4.75 1.625 C6.35978269 4.16676215 6.60859009 6.5398108 6.9375 9.5 C3.3075 9.5 -0.3225 9.5 -4.0625 9.5 C-3.4025 10.82 -2.7425 12.14 -2.0625 13.5 C0.70026177 12.97731534 3.2635876 12.39130413 5.9375 11.5 C5.5625 13.4375 5.5625 13.4375 4.9375 15.5 C1.8542365 17.04163175 -0.67128099 16.79747535 -4.0625 16.5 C-6.89473403 14.2159403 -7.04048242 12.67299524 -7.5 9.0625 C-6.86201335 3.86746587 -5.39045807 0.88007479 0 0 Z " fill="#B8B8B8" transform="translate(576.0625,582.5)"/>
<path d="M0 0 C0.99 0 1.98 0 3 0 C4.65 2.97 6.3 5.94 8 9 C10.22382199 6.03490401 12.14265723 3.18401617 14 0 C14.99 0.33 15.98 0.66 17 1 C16.57847656 1.72703125 16.15695312 2.4540625 15.72265625 3.203125 C11.70510163 10.57651937 10.02976358 16.60667168 10 25 C9.01 25 8.02 25 7 25 C6.99742187 24.28457031 6.99484375 23.56914063 6.9921875 22.83203125 C6.65499515 14.14370843 4.03005905 7.64109055 0 0 Z " fill="#B2B3B1" transform="translate(357,574)"/>
<path d="M0 0 C8.625 -0.25 8.625 -0.25 12 2 C12.29296875 5.2578125 12.29296875 5.2578125 12.1875 9.125 C12.16042969 10.40632812 12.13335938 11.68765625 12.10546875 13.0078125 C12.07066406 13.99523437 12.03585937 14.98265625 12 16 C11.01 16 10.02 16 9 16 C8.67 11.38 8.34 6.76 8 2 C6.02 2.99 6.02 2.99 4 4 C3.29464389 6.8786935 3.29464389 6.8786935 3.25 10.125 C3.19328125 11.22070312 3.1365625 12.31640625 3.078125 13.4453125 C3.05234375 14.28835938 3.0265625 15.13140625 3 16 C2.01 16 1.02 16 0 16 C0 10.72 0 5.44 0 0 Z " fill="#B6B6B6" transform="translate(634,583)"/>
<path d="M0 0 C3.96 0 7.92 0 12 0 C12 0.66 12 1.32 12 2 C8.7 2 5.4 2 2 2 C2 4.64 2 7.28 2 10 C4.97 10 7.94 10 11 10 C11 10.66 11 11.32 11 12 C8.03 12 5.06 12 2 12 C2 15.63 2 19.26 2 23 C4.97 23 7.94 23 11 23 C11 23.66 11 24.32 11 25 C7.37 25 3.74 25 0 25 C0 16.75 0 8.5 0 0 Z " fill="#C2C2C2" transform="translate(548,574)"/>
<path d="M0 0 C0.66 0.33 1.32 0.66 2 1 C0.67207471 4.71424647 -0.95583095 7.57638521 -3.375 10.6875 C-3.96023438 11.45449219 -4.54546875 12.22148437 -5.1484375 13.01171875 C-7.01664019 15.0178689 -8.51068745 15.92482883 -11 17 C-12.28612676 18.05978933 -12.28612676 18.05978933 -12.09765625 20.50390625 C-12.08605469 21.51324219 -12.07445312 22.52257812 -12.0625 23.5625 C-12.05347656 24.57441406 -12.04445313 25.58632813 -12.03515625 26.62890625 C-12.02355469 27.41136719 -12.01195312 28.19382812 -12 29 C-12.66 29 -13.32 29 -14 29 C-15.60725635 25.78548731 -15.05748185 22.56387464 -15 19 C-16.98 18.67 -18.96 18.34 -21 18 C-18 16 -18 16 -15.765625 14.7734375 C-9.22474102 11.13735603 -3.4254127 6.85082541 0 0 Z " fill="#A5A4A4" transform="translate(584,493)"/>
<path d="M0 0 C0.99 0.99 1.98 1.98 3 3 C0.36 3.33 -2.28 3.66 -5 4 C-5 13.9 -5 23.8 -5 34 C-5.99 33.67 -6.98 33.34 -8 33 C-8.12366555 28.92512506 -8.21436476 24.85097699 -8.2746582 20.7746582 C-8.29979219 19.38839696 -8.33390592 18.00226813 -8.37719727 16.61645508 C-8.43788396 14.62378963 -8.46354879 12.63015467 -8.48828125 10.63671875 C-8.51446533 9.43748779 -8.54064941 8.23825684 -8.56762695 7.00268555 C-8 4 -8 4 -5.65698242 2.14770508 C-3 1 -3 1 0 0 Z " fill="#A9AAAA" transform="translate(553,432)"/>
<path d="M0 0 C0.99 0 1.98 0 3 0 C3.33 4.29 3.66 8.58 4 13 C5.32 12.67 6.64 12.34 8 12 C8.33 8.04 8.66 4.08 9 0 C9.99 0 10.98 0 12 0 C12.08133791 1.91595968 12.13934367 3.83291932 12.1875 5.75 C12.22230469 6.81734375 12.25710938 7.8846875 12.29296875 8.984375 C11.96637267 12.34613734 11.42527232 13.67993356 9 16 C5.4375 16.4375 5.4375 16.4375 2 16 C-0.42130331 12.36804504 -0.21022785 10.61650652 -0.125 6.3125 C-0.09792969 4.54326172 -0.09792969 4.54326172 -0.0703125 2.73828125 C-0.04710937 1.83464844 -0.02390625 0.93101562 0 0 Z " fill="#B3B4B4" transform="translate(391,583)"/>
<path d="M0 0 C1.423125 0.4021875 1.423125 0.4021875 2.875 0.8125 C4.27435013 3.61120027 4.12765405 5.71748792 3.875 8.8125 C2.6875 10.75 2.6875 10.75 0.875 11.8125 C-1.6875 11.6875 -1.6875 11.6875 -4.125 10.8125 C-6.28002531 7.57996204 -6.59356135 6.56099077 -6.125 2.8125 C-4.327529 -0.183285 -3.52310929 -0.21138656 0 0 Z " fill="#6A6A6A" transform="translate(521.125,585.1875)"/>
<path d="M0 0 C3.29714793 0.32971479 4.6226839 0.6226839 7 3 C7.33661952 6.1642235 7.49943411 8.18513382 5.8125 10.9375 C4 12 4 12 1.4375 11.8125 C-1 11 -1 11 -3 9 C-2.53846154 2.53846154 -2.53846154 2.53846154 0 0 Z " fill="#6A6B6A" transform="translate(459,585)"/>
<path d="M0 0 C-2.34239078 3.51358617 -3.96435172 4.13284843 -7.75 5.875 C-11.32755805 7.59102964 -14.52845922 9.17027946 -17.5 11.8125 C-19.99500077 13.99562568 -20.93261211 14.30736402 -24 15 C-25.7074998 16.28062485 -27.38263741 17.6072711 -29 19 C-24.65797278 9.43919007 -14.91375738 3.83825387 -5.5 0.0625 C-2 -1 -2 -1 0 0 Z " fill="#78797A" transform="translate(541,425)"/>
<path d="M0 0 C2.375 0.6875 2.375 0.6875 3.375 1.6875 C3.74586093 7.5285596 3.74586093 7.5285596 3.375 9.6875 C0.375 11.6875 0.375 11.6875 -2.25 11.375 C-4.625 10.6875 -4.625 10.6875 -5.625 9.6875 C-5.99586093 3.8464404 -5.99586093 3.8464404 -5.625 1.6875 C-2.625 -0.3125 -2.625 -0.3125 0 0 Z " fill="#6A6A6A" transform="translate(624.625,585.3125)"/>
<path d="M0 0 C2.5 -0.375 2.5 -0.375 5 0 C7.44897847 3.67346771 7.31537716 5.66356399 7 10 C6.34 10.66 5.68 11.32 5 12 C-0.56818182 11.43181818 -0.56818182 11.43181818 -2 10 C-2.35897436 3.53846154 -2.35897436 3.53846154 0 0 Z " fill="#636463" transform="translate(378,585)"/>
<path d="M0 0 C1.9375 0.75 1.9375 0.75 3.9375 2.75 C4.2778296 5.94909824 4.45898335 7.9417008 2.6875 10.6875 C0.9375 11.75 0.9375 11.75 -1.125 11.5625 C-3.0625 10.75 -3.0625 10.75 -5.0625 8.75 C-5.375 5.25 -5.375 5.25 -5.0625 1.75 C-2.0625 -0.25 -2.0625 -0.25 0 0 Z " fill="#676767" transform="translate(495.0625,585.25)"/>
<path d="M0 0 C1.32 0 2.64 0 4 0 C4 0.99 4 1.98 4 3 C3.01 3 2.02 3 1 3 C1 5.97 1 8.94 1 12 C1.99 12 2.98 12 4 12 C4 12.66 4 13.32 4 14 C2.68 14 1.36 14 0 14 C0 18.62 0 23.24 0 28 C-0.66 28 -1.32 28 -2 28 C-2 23.38 -2 18.76 -2 14 C-2.66 14 -3.32 14 -4 14 C-4 13.34 -4 12.68 -4 12 C-3.34 12 -2.68 12 -2 12 C-2.03480469 10.95199219 -2.03480469 10.95199219 -2.0703125 9.8828125 C-2.08835937 8.97273437 -2.10640625 8.06265625 -2.125 7.125 C-2.14820313 6.22007812 -2.17140625 5.31515625 -2.1953125 4.3828125 C-2 2 -2 2 0 0 Z " fill="#B7B7B7" transform="translate(533,571)"/>
<path d="M0 0 C0.99 0 1.98 0 3 0 C3 9.24 3 18.48 3 28 C2.01 28 1.02 28 0 28 C0 18.76 0 9.52 0 0 Z " fill="#ADADAD" transform="translate(563,571)"/>
<path d="M0 0 C3.3125 1.0625 3.3125 1.0625 5.25 2.625 C6.77593653 6.12567792 7.12071071 9.35942546 6.3125 13.0625 C4.13675584 15.75355198 2.40184144 17.51782928 -0.6875 19.0625 C-1.0175 18.0725 -1.3475 17.0825 -1.6875 16.0625 C-0.676875 15.36125 0.33375 14.66 1.375 13.9375 C3.06161534 12.63572839 3.06161534 12.63572839 4.3125 11.0625 C4.31672567 7.19952641 4.31672567 7.19952641 2.3125 4.0625 C-1.95453842 3.65220784 -4.02782715 3.61336104 -7.625 6.0625 C-8.305625 6.7225 -8.98625 7.3825 -9.6875 8.0625 C-9.6875 5.0625 -9.6875 5.0625 -7.125 2.3125 C-4.38370677 0.16233872 -3.72246638 0.06309265 0 0 Z " fill="#A2A2A2" transform="translate(537.6875,444.9375)"/>
<path d="M0 0 C0.99 0 1.98 0 3 0 C3 1.98 3 3.96 3 6 C3.66 6 4.32 6 5 6 C5 6.99 5 7.98 5 9 C4.34 9 3.68 9 3 9 C3 13.29 3 17.58 3 22 C2.01 22 1.02 22 0 22 C0 17.38 0 12.76 0 8 C-0.66 8 -1.32 8 -2 8 C-2 7.34 -2 6.68 -2 6 C-1.34 6 -0.68 6 0 6 C0 4.02 0 2.04 0 0 Z " fill="#BBBCBB" transform="translate(600,577)"/>
<path d="M0 0 C0.33 0 0.66 0 1 0 C1 8.91 1 17.82 1 27 C-2.3 27 -5.6 27 -9 27 C-9.99 25.68 -10.98 24.36 -12 23 C-11.01 21.515 -11.01 21.515 -10 20 C-9.01 21.32 -8.02 22.64 -7 24 C-4.24358584 23.50243908 -4.24358584 23.50243908 -2 22 C-2 20.68 -2 19.36 -2 18 C-2 14 -2 14 -1 13 C-0.76518307 10.81707226 -0.58636677 8.62796826 -0.4375 6.4375 C-0.35371094 5.23996094 -0.26992188 4.04242187 -0.18359375 2.80859375 C-0.12300781 1.88175781 -0.06242187 0.95492187 0 0 Z " fill="#C4C6C5" transform="translate(500,572)"/>
<path d="M0 0 C0.33 1.32 0.66 2.64 1 4 C-0.11375 3.79375 -1.2275 3.5875 -2.375 3.375 C-3.57125 3.25125 -4.7675 3.1275 -6 3 C-8.31563087 4.88500271 -8.31563087 4.88500271 -8.25 8 C-8.31563087 11.11499729 -8.31563087 11.11499729 -6 13 C-2.40320934 12.67673447 -2.40320934 12.67673447 1 12 C0.34 13.32 -0.32 14.64 -1 16 C-7.3782235 16.48137536 -7.3782235 16.48137536 -9.9375 14.5 C-11.45330201 10.93340703 -11.68773382 7.81379661 -11 4 C-8.12243286 -0.60410742 -5.14365078 -0.39566544 0 0 Z " fill="#C3C4C3" transform="translate(596,583)"/>
<path d="M0 0 C1.5 1.375 1.5 1.375 3 3 C3 3.66 3 4.32 3 5 C4.43861294 4.91253716 5.87597508 4.80434652 7.3125 4.6875 C8.11300781 4.62949219 8.91351562 4.57148438 9.73828125 4.51171875 C12.38742483 3.9123443 13.20473841 2.96373189 15 1 C15.66 1 16.32 1 17 1 C16.62951193 3.5934165 15.94398898 5.08065587 14.4375 7.25 C11.58516837 9.29782784 9.46164984 9.5627656 5.97265625 9.40625 C2.94184644 8.78208323 1.14552985 7.14552985 -1 5 C-0.67 3.35 -0.34 1.7 0 0 Z " fill="#989897" transform="translate(546,464)"/>
<path d="M0 0 C0.33 0 0.66 0 1 0 C1.04938628 4.23582327 1.08571263 8.47149465 1.10986328 12.70751953 C1.11992963 14.14895547 1.1335838 15.59037095 1.15087891 17.03173828 C1.17510012 19.10193934 1.18647641 21.17187076 1.1953125 23.2421875 C1.20578613 24.4885498 1.21625977 25.73491211 1.22705078 27.01904297 C1 30 1 30 -1 32 C-3.1640625 32.1953125 -3.1640625 32.1953125 -5.625 32.125 C-6.44226563 32.10695313 -7.25953125 32.08890625 -8.1015625 32.0703125 C-8.72804688 32.04710937 -9.35453125 32.02390625 -10 32 C-9.34 30.35 -8.68 28.7 -8 27 C-6.68 27 -5.36 27 -4 27 C-2.16765038 25.92089874 -2.16765038 25.92089874 -1 24 C-0.49520343 21.3931977 -0.49520343 21.3931977 -0.48828125 18.45703125 C-0.45283203 17.38388672 -0.41738281 16.31074219 -0.38085938 15.20507812 C-0.35830078 14.08552734 -0.33574219 12.96597656 -0.3125 11.8125 C-0.27833984 10.68134766 -0.24417969 9.55019531 -0.20898438 8.38476562 C-0.12643686 5.5899426 -0.05730818 2.79543602 0 0 Z " fill="#DDDDDD" transform="translate(559,437)"/>
<path d="M0 0 C1.2065625 0.0309375 1.2065625 0.0309375 2.4375 0.0625 C2.7675 1.0525 3.0975 2.0425 3.4375 3.0625 C1.7875 2.7325 0.1375 2.4025 -1.5625 2.0625 C-0.82049346 5.2533205 -0.82049346 5.2533205 2 6.9375 C4.4375 9.0625 4.4375 9.0625 4.875 11.6875 C4.4375 14.0625 4.4375 14.0625 2.4375 16.0625 C-0.6875 16.1875 -0.6875 16.1875 -3.5625 16.0625 C-3.8925 14.7425 -4.2225 13.4225 -4.5625 12.0625 C-1.5925 12.5575 -1.5925 12.5575 1.4375 13.0625 C1.4375 12.0725 1.4375 11.0825 1.4375 10.0625 C-1.50486782 7.85081775 -1.50486782 7.85081775 -4.5625 6.0625 C-3.48963568 0.08511307 -3.48963568 0.08511307 0 0 Z " fill="#C3C3C3" transform="translate(675.5625,582.9375)"/>
<path d="M0 0 C0.66 0.33 1.32 0.66 2 1 C2 1.99 2 2.98 2 4 C1.34 4 0.68 4 0 4 C0 3.34 0 2.68 0 2 C-1.98 2.66 -3.96 3.32 -6 4 C-7.13291596 8.05172164 -7.13291596 8.05172164 -5.9375 11.875 C-3.24099753 13.44071111 -1.05869541 13.20391303 2 13 C1.67 13.99 1.34 14.98 1 16 C-2.25 16.3125 -2.25 16.3125 -6 16 C-9.22456813 13.27151928 -9.91290117 11.62057913 -10.5 7.4375 C-10 4 -10 4 -8.375 1.5625 C-5.36257342 -0.41935959 -3.54231061 -0.38503376 0 0 Z " fill="#B4B4B3" transform="translate(666,583)"/>
<path d="M0 0 C-0.33 0.66 -0.66 1.32 -1 2 C-5.89663942 1.14488834 -10.39455237 -0.48707808 -15.0625 -2.16015625 C-17.88286719 -2.96651123 -20.08888651 -3.16589066 -23 -3 C-23 -3.66 -23 -4.32 -23 -5 C-13.4821799 -7.30735033 -8.13209016 -4.9410168 0 0 Z " fill="#959596" transform="translate(583,431)"/>
<path d="M0 0 C0.66 0 1.32 0 2 0 C0.90533737 2.23142766 -0.23234645 4.41923381 -1.4375 6.59375 C-4.86768085 12.97388638 -6.79224207 18.48593615 -7.578125 25.69921875 C-7.71734375 26.45847656 -7.8565625 27.21773438 -8 28 C-8.66 28.33 -9.32 28.66 -10 29 C-10.53779446 17.88558119 -7.73504925 9.85235516 -1 1 C-0.67 0.67 -0.34 0.34 0 0 Z " fill="#929393" transform="translate(526,452)"/>
<path d="M0 0 C0.33 0 0.66 0 1 0 C1 13.86 1 27.72 1 42 C0.67 42 0.34 42 0 42 C-0.33 32.1 -0.66 22.2 -1 12 C-1.66 12 -2.32 12 -3 12 C-2.68950274 10.56206608 -2.3765224 9.1246682 -2.0625 7.6875 C-1.88847656 6.88699219 -1.71445312 6.08648437 -1.53515625 5.26171875 C-1 3 -1 3 0 0 Z " fill="#707171" transform="translate(692,467)"/>
<path d="M0 0 C2.31 0 4.62 0 7 0 C7 0.66 7 1.32 7 2 C5.68 2 4.36 2 3 2 C2.67 6.62 2.34 11.24 2 16 C1.01 16 0.02 16 -1 16 C-1.02701408 13.89590361 -1.04640223 11.79170822 -1.0625 9.6875 C-1.07410156 8.51574219 -1.08570313 7.34398437 -1.09765625 6.13671875 C-1 3 -1 3 0 0 Z " fill="#ADB0AF" transform="translate(608,583)"/>
<path d="M0 0 C0.33 0 0.66 0 1 0 C1 5.28 1 10.56 1 16 C-0.32 15.67 -1.64 15.34 -3 15 C-3 11.04 -3 7.08 -3 3 C-2.01 3 -1.02 3 0 3 C0 2.01 0 1.02 0 0 Z " fill="#595A59" transform="translate(606,583)"/>
<path d="M0 0 C2.475 0.99 2.475 0.99 5 2 C4.67 2.66 4.34 3.32 4 4 C3.77141886 6.0374763 3.58975722 8.08040303 3.4375 10.125 C3.35371094 11.22070312 3.26992188 12.31640625 3.18359375 13.4453125 C3.12300781 14.28835938 3.06242188 15.13140625 3 16 C2.01 16 1.02 16 0 16 C0 10.72 0 5.44 0 0 Z " fill="#BDBDBC" transform="translate(634,583)"/>
<path d="M0 0 C0.33 0 0.66 0 1 0 C1 5.28 1 10.56 1 16 C-1.97 15.505 -1.97 15.505 -5 15 C-4.67 14.484375 -4.34 13.96875 -4 13.4375 C-2.77071684 10.89927142 -2.77071684 10.89927142 -3.0625 7.5 C-2.99583452 3.76673317 -2.59000605 2.59000605 0 0 Z " fill="#6D6D6C" transform="translate(633,583)"/>
<path d="M0 0 C0.99 0 1.98 0 3 0 C3 5.28 3 10.56 3 16 C2.01 16 1.02 16 0 16 C0 10.72 0 5.44 0 0 Z " fill="#B2B3B1" transform="translate(650,583)"/>
<path d="M0 0 C1.32 0.66 2.64 1.32 4 2 C3.67 3.32 3.34 4.64 3 6 C0.83125748 5.49396008 -0.99967627 5.00016187 -3 4 C-3 4.99 -3 5.98 -3 7 C-3.99 7 -4.98 7 -6 7 C-6 6.34 -6 5.68 -6 5 C-6.99 4.67 -7.98 4.34 -9 4 C-8.67 3.34 -8.34 2.68 -8 2 C-5.69 2.33 -3.38 2.66 -1 3 C-0.67 2.01 -0.34 1.02 0 0 Z " fill="#727272" transform="translate(674,591)"/>
<path d="M0 0 C3.875 1.75 3.875 1.75 5 4 C5.43244838 7.8920354 5.29425531 9.54880853 3.125 12.875 C2.42375 13.57625 1.7225 14.2775 1 15 C0.34 15 -0.32 15 -1 15 C-1 14.01 -1 13.02 -1 12 C-0.34 12 0.32 12 1 12 C1.04125 10.741875 1.0825 9.48375 1.125 8.1875 C1.14820313 7.47980469 1.17140625 6.77210938 1.1953125 6.04296875 C1.13254462 3.68640281 1.13254462 3.68640281 -1 1 C-0.67 0.67 -0.34 0.34 0 0 Z " fill="#B7B8B8" transform="translate(464,584)"/>
<path d="M0 0 C2.31 0 4.62 0 7 0 C7 0.66 7 1.32 7 2 C6.03320312 2.30550781 6.03320312 2.30550781 5.046875 2.6171875 C2.68846128 3.8667935 2.68846128 3.8667935 2.390625 6.8203125 C2.34421875 7.91085937 2.2978125 9.00140625 2.25 10.125 C2.19328125 11.22070312 2.1365625 12.31640625 2.078125 13.4453125 C2.05234375 14.28835938 2.0265625 15.13140625 2 16 C1.34 16 0.68 16 0 16 C0 10.72 0 5.44 0 0 Z " fill="#C6C6C7" transform="translate(407,583)"/>
<path d="M0 0 C0.99 0 1.98 0 3 0 C1.41078475 5.36095277 -0.18972938 10.70843973 -2 16 C-2.99 16 -3.98 16 -5 16 C-3.41078475 10.63904723 -1.81027062 5.29156027 0 0 Z " fill="#B1B1B0" transform="translate(451,574)"/>
<path d="M0 0 C4.95 1.98 4.95 1.98 10 4 C8.68 4.33 7.36 4.66 6 5 C3.7927642 6.48800372 3.7927642 6.48800372 2 8 C1.87625 7.360625 1.7525 6.72125 1.625 6.0625 C1.315625 5.0415625 1.315625 5.0415625 1 4 C0.34 3.67 -0.32 3.34 -1 3 C-0.67 2.01 -0.34 1.02 0 0 Z M-6 11 C-4.35 11 -2.7 11 -1 11 C-1 11.99 -1 12.98 -1 14 C-2.65 13.67 -4.3 13.34 -6 13 C-6 12.34 -6 11.68 -6 11 Z " fill="#A0A1A0" transform="translate(537,507)"/>
<path d="M0 0 C0.99 0.33 1.98 0.66 3 1 C4.62150431 4.56561158 3.69890763 8.00642571 3.0625 11.75 C2.86785156 12.92046875 2.67320312 14.0909375 2.47265625 15.296875 C2.31667969 16.18890625 2.16070313 17.0809375 2 18 C1.67 18 1.34 18 1 18 C-0.32594359 12.03325384 -0.0884587 6.07416385 0 0 Z " fill="#A6A5A6" transform="translate(560,437)"/>
<path d="M0 0 C-3.65464013 2.43642676 -5.70168967 2.07959834 -10 2 C-10.33 2.33 -10.66 2.66 -11 3 C-12.68183948 3.23287008 -14.3712416 3.41264166 -16.0625 3.5625 C-16.98160156 3.64628906 -17.90070312 3.73007812 -18.84765625 3.81640625 C-19.91306641 3.90728516 -19.91306641 3.90728516 -21 4 C-21.33 4.99 -21.66 5.98 -22 7 C-23.32 6.34 -24.64 5.68 -26 5 C-17.15510711 0.94609076 -9.70306907 -0.32105743 0 0 Z " fill="#A2A3A2" transform="translate(559,425)"/>
<path d="M0 0 C1.4540625 0.0309375 1.4540625 0.0309375 2.9375 0.0625 C2.9375 0.7225 2.9375 1.3825 2.9375 2.0625 C1.6175 2.0625 0.2975 2.0625 -1.0625 2.0625 C-1.3925 6.6825 -1.7225 11.3025 -2.0625 16.0625 C-2.7225 16.0625 -3.3825 16.0625 -4.0625 16.0625 C-4.08935095 13.58326199 -4.10926547 11.1043116 -4.125 8.625 C-4.13756836 7.56442383 -4.13756836 7.56442383 -4.15039062 6.48242188 C-4.15903588 4.67556441 -4.11470011 2.86862397 -4.0625 1.0625 C-3.0625 0.0625 -3.0625 0.0625 0 0 Z " fill="#C2C2C3" transform="translate(476.0625,582.9375)"/>
<path d="M0 0 C0.66 0.33 1.32 0.66 2 1 C2.125 4.375 2.125 4.375 2 8 C1.34 8.66 0.68 9.32 0 10 C-2.625 9.625 -2.625 9.625 -5 9 C-4 6 -4 6 -2 4 C-1.30251417 2.68252676 -0.63040043 1.35085807 0 0 Z " fill="#5E5E5C" transform="translate(383,587)"/>
<path d="M0 0 C0.66 0 1.32 0 2 0 C1.61679443 2.68243901 0.92847619 4.09801411 -0.6875 6.3125 C-3 8 -3 8 -6.25 7.75 C-7.1575 7.5025 -8.065 7.255 -9 7 C-9 6.34 -9 5.68 -9 5 C-7.88625 4.54625 -6.7725 4.0925 -5.625 3.625 C-2.03800992 2.27534014 -2.03800992 2.27534014 0 0 Z " fill="#908F8F" transform="translate(561,465)"/>
<path d="M0 0 C0.5775 0.680625 1.155 1.36125 1.75 2.0625 C2.86375 3.0215625 2.86375 3.0215625 4 4 C6.39788436 3.78842197 7.85584361 3.07207819 10 2 C10.33 3.65 10.66 5.3 11 7 C2.73161984 7.62402869 2.73161984 7.62402869 -0.125 5.1875 C-1 3 -1 3 0 0 Z " fill="#B8B9B9" transform="translate(489,592)"/>
<path d="M0 0 C1.2065625 0.0309375 1.2065625 0.0309375 2.4375 0.0625 C2.7675 1.0525 3.0975 2.0425 3.4375 3.0625 C1.7875 2.7325 0.1375 2.4025 -1.5625 2.0625 C-0.7861068 5.1370356 -0.7861068 5.1370356 1.4375 7.0625 C-0.4375 7.6875 -0.4375 7.6875 -2.5625 8.0625 C-3.2225 7.4025 -3.8825 6.7425 -4.5625 6.0625 C-3.83457637 0.09352625 -3.83457637 0.09352625 0 0 Z " fill="#ABAEAD" transform="translate(675.5625,582.9375)"/>
<path d="M0 0 C2 1 2 1 2 1 Z M-2 1 C-1.34 1.33 -0.68 1.66 0 2 C-0.1875 3.875 -0.1875 3.875 -1 6 C-2.64034193 6.72904086 -4.31301918 7.38655243 -6 8 C-7.70294787 9.28667172 -9.37946188 10.61096733 -11 12 C-9.59155282 8.78475695 -7.89655214 6.67816132 -5.375 4.25 C-4.74335937 3.63640625 -4.11171875 3.0228125 -3.4609375 2.390625 C-2.73777344 1.70226562 -2.73777344 1.70226562 -2 1 Z " fill="#747574" transform="translate(523,432)"/>
<path d="M0 0 C0.66 0 1.32 0 2 0 C2.32523926 3.57763189 2.42956587 5.39542581 0.3125 8.375 C-2.38790237 10.27258004 -3.77060081 10.35882213 -7 10 C-7 9.34 -7 8.68 -7 8 C-6.21625 7.79375 -5.4325 7.5875 -4.625 7.375 C-1.69083714 6.19323388 -1.69083714 6.19323388 -0.6875 2.875 C-0.460625 1.92625 -0.23375 0.9775 0 0 Z " fill="#BCBCBB" transform="translate(386,589)"/>
<path d="M0 0 C3.375 -0.125 3.375 -0.125 7 0 C7.66 0.66 8.32 1.32 9 2 C7.8125 3.5625 7.8125 3.5625 6 5 C3.3125 4.6875 3.3125 4.6875 1 4 C0.67 2.68 0.34 1.36 0 0 Z " fill="#6C6C6C" transform="translate(572,592)"/>
<path d="M0 0 C0.99 0 1.98 0 3 0 C3.86646667 1.43011973 4.71781829 2.86940619 5.5625 4.3125 C6.03816406 5.11300781 6.51382812 5.91351562 7.00390625 6.73828125 C8 9 8 9 7 12 C4.39954125 9.6975881 3.15260817 7.50103323 1.8125 4.3125 C1.46832031 3.50425781 1.12414062 2.69601562 0.76953125 1.86328125 C0.51558594 1.24839844 0.26164062 0.63351562 0 0 Z " fill="#BEBEBE" transform="translate(357,574)"/>
<path d="M0 0 C1.23593891 3.70781672 0.5678132 4.67510253 -0.9375 8.1875 C-1.31777344 9.08855469 -1.69804688 9.98960937 -2.08984375 10.91796875 C-2.54037109 11.94857422 -2.54037109 11.94857422 -3 13 C-3.66 12.67 -4.32 12.34 -5 12 C-4.58525633 6.71201818 -3.64775386 3.88309282 0 0 Z " fill="#979797" transform="translate(536,462)"/>
<path d="M0 0 C1.8871875 0.0309375 1.8871875 0.0309375 3.8125 0.0625 C3.8125 0.7225 3.8125 1.3825 3.8125 2.0625 C-0.4775 3.0525 -4.7675 4.0425 -9.1875 5.0625 C-6.70449965 0.09649929 -5.14839055 -0.08439985 0 0 Z " fill="#939393" transform="translate(548.1875,422.9375)"/>
<path d="M0 0 C6.32597793 -0.35807422 6.32597793 -0.35807422 9 1.0625 C10.58495594 4.13335213 9.68036707 6.72186775 9 10 C8.67 10 8.34 10 8 10 C7.34 7.69 6.68 5.38 6 3 C3.69 3 1.38 3 -1 3 C-0.67 2.01 -0.34 1.02 0 0 Z " fill="#B7B8B8" transform="translate(620,583)"/>
<path d="M0 0 C0.99 0.33 1.98 0.66 3 1 C1.02 4.63 -0.96 8.26 -3 12 C-3.33 12 -3.66 12 -4 12 C-3.5317879 7.22423661 -2.75668002 3.95523655 0 0 Z " fill="#BFC0C0" transform="translate(371,574)"/>
<path d="M0 0 C1.32 0 2.64 0 4 0 C4 0.99 4 1.98 4 3 C3.01 3.33 2.02 3.66 1 4 C0.67 6.64 0.34 9.28 0 12 C-2 10 -2 10 -2.265625 8.125 C-2.26046875 7.42375 -2.2553125 6.7225 -2.25 6 C-2.25515625 5.29875 -2.2603125 4.5975 -2.265625 3.875 C-2 2 -2 2 0 0 Z " fill="#C0C0C1" transform="translate(533,571)"/>
<path d="M0 0 C0.33 0 0.66 0 1 0 C1.48468708 6.42210386 1.48468708 6.42210386 -0.625 8.9375 C-3.56030453 10.25066255 -5.81863606 10.21691118 -9 10 C-9.33 9.34 -9.66 8.68 -10 8 C-7.36 7.67 -4.72 7.34 -2 7 C-1.34 4.69 -0.68 2.38 0 0 Z " fill="#C5C5C5" transform="translate(526,589)"/>
<path d="M0 0 C0.99 0 1.98 0 3 0 C3 3.96 3 7.92 3 12 C2.01 11.34 1.02 10.68 0 10 C-0.29296875 7.6171875 -0.29296875 7.6171875 -0.1875 4.875 C-0.16042969 3.96492187 -0.13335937 3.05484375 -0.10546875 2.1171875 C-0.07066406 1.41851563 -0.03585937 0.71984375 0 0 Z " fill="#ADAFAF" transform="translate(400,583)"/>
<path d="M0 0 C0.66 0.33 1.32 0.66 2 1 C1.67 1.33 1.34 1.66 1 2 C0.92773498 3.85287502 0.9161878 5.70833878 0.9375 7.5625 C0.94652344 8.57441406 0.95554687 9.58632813 0.96484375 10.62890625 C0.97644531 11.41136719 0.98804688 12.19382812 1 13 C0.34 13 -0.32 13 -1 13 C-1.41694996 11.40119187 -1.80790856 9.79558739 -2.1875 8.1875 C-2.40792969 7.29417969 -2.62835937 6.40085937 -2.85546875 5.48046875 C-3 3 -3 3 -1.55078125 1.17578125 C-1.03902344 0.78777344 -0.52726563 0.39976562 0 0 Z " fill="#9B9B9B" transform="translate(571,509)"/>
<path d="M0 0 C0.6875 1.75 0.6875 1.75 1 4 C-0.125 6.25 -0.125 6.25 -2 8 C-4.6875 8.25 -4.6875 8.25 -7 8 C-5.50902342 4.2047869 -3.24299151 2.38957269 0 0 Z " fill="#CBCBCB" transform="translate(287,447)"/>
<path d="M0 0 C0.66 0 1.32 0 2 0 C1.625 1.9375 1.625 1.9375 1 4 C-1.95664519 5.4783226 -4.74229737 5.06032783 -8 5 C-8.33 3.68 -8.66 2.36 -9 1 C-7.88625 1.20625 -6.7725 1.4125 -5.625 1.625 C-3.830625 1.810625 -3.830625 1.810625 -2 2 C-1.34 1.34 -0.68 0.68 0 0 Z " fill="#C7C7C6" transform="translate(580,594)"/>
<path d="M0 0 C0.05391993 1.79133978 0.09275571 3.58313899 0.125 5.375 C0.14820313 6.37273438 0.17140625 7.37046875 0.1953125 8.3984375 C0 11 0 11 -2 13 C-3.3271261 9.0186217 -3.06915913 5.14954773 -3 1 C-1 0 -1 0 0 0 Z " fill="#5D5E5B" transform="translate(531,586)"/>
<path d="M0 0 C0.99 0 1.98 0 3 0 C3 1.98 3 3.96 3 6 C3.66 6 4.32 6 5 6 C5 6.99 5 7.98 5 9 C4.34 9 3.68 9 3 9 C3 13.29 3 17.58 3 22 C2.67 22 2.34 22 2 22 C2 15.07 2 8.14 2 1 C1.34 0.67 0.68 0.34 0 0 Z " fill="#B0B0AF" transform="translate(600,577)"/>
<path d="M0 0 C3.65882521 3.3621637 6.14420341 6.36050852 8 11 C7.67 11.66 7.34 12.32 7 13 C3.70759125 10.20145256 1.96437054 6.79326725 0 3 C0 2.01 0 1.02 0 0 Z " fill="#929292" transform="translate(582,453)"/>
<path d="M0 0 C3.45925163 1.2491742 6.14693203 2.67527795 9 5 C7.375 5.6875 7.375 5.6875 5 6 C1.75 4.5625 1.75 4.5625 -1 3 C-0.67 2.01 -0.34 1.02 0 0 Z " fill="#7F7E7F" transform="translate(574,427)"/>
<path d="M0 0 C-2.59692816 3.89539223 -4.83425768 4.91712884 -9 7 C-9.66 6.67 -10.32 6.34 -11 6 C-8.34806708 2.26764996 -4.95872866 -2.47936433 0 0 Z " fill="#848486" transform="translate(541,425)"/>
<path d="M0 0 C1.485 0.99 1.485 0.99 3 2 C6.63939932 1.68269476 6.63939932 1.68269476 10 1 C9.34 2.32 8.68 3.64 8 5 C4.625 5.1875 4.625 5.1875 1 5 C0.34 4.01 -0.32 3.02 -1 2 C-0.67 1.34 -0.34 0.68 0 0 Z " fill="#B6B6B6" transform="translate(587,594)"/>
<path d="M0 0 C1.28783719 3.86351156 1.03500835 6.06696827 0 10 C-3.0625 12.4375 -3.0625 12.4375 -6 14 C-6 12.35 -6 10.7 -6 9 C-5.360625 8.773125 -4.72125 8.54625 -4.0625 8.3125 C-1.74346259 7.16086307 -1.74346259 7.16086307 -1.3125 4.5 C-1.1578125 3.2625 -1.1578125 3.2625 -1 2 C-0.67 1.34 -0.34 0.68 0 0 Z " fill="#5B5C5A" transform="translate(373,585)"/>
<path d="M0 0 C1.27617188 0.02320313 2.55234375 0.04640625 3.8671875 0.0703125 C5.78917969 0.09738281 5.78917969 0.09738281 7.75 0.125 C9.23113281 0.15980469 9.23113281 0.15980469 10.7421875 0.1953125 C10.7421875 0.5253125 10.7421875 0.8553125 10.7421875 1.1953125 C9.83855469 1.20949219 8.93492187 1.22367187 8.00390625 1.23828125 C6.23466797 1.30982422 6.23466797 1.30982422 4.4296875 1.3828125 C3.25792969 1.41761719 2.08617187 1.45242188 0.87890625 1.48828125 C-2.44317067 1.87292384 -2.44317067 1.87292384 -4.05078125 4.68359375 C-4.44910156 5.51246094 -4.84742188 6.34132813 -5.2578125 7.1953125 C-6.2478125 7.6903125 -6.2478125 7.6903125 -7.2578125 8.1953125 C-4.85212006 0.29089449 -4.85212006 0.29089449 0 0 Z " fill="#C0C2C1" transform="translate(759.2578125,441.8046875)"/>
<path d="M0 0 C2.15657783 3.72197022 2.12598588 6.00954978 1.4921875 10.16015625 C0.87644423 12.46186324 -0.04850921 13.64244119 -2 15 C-2.33 14.34 -2.66 13.68 -3 13 C-2.34249689 11.66212411 -1.6743074 10.32948552 -1 9 C-0.55188863 6.64435404 -0.55188863 6.64435404 -0.375 4.25 C-0.30023437 3.45078125 -0.22546875 2.6515625 -0.1484375 1.828125 C-0.09945312 1.22484375 -0.05046875 0.6215625 0 0 Z " fill="#898988" transform="translate(574,474)"/>
<path d="M0 0 C1.65 0.33 3.3 0.66 5 1 C5.33 1.99 5.66 2.98 6 4 C3.36 4 0.72 4 -2 4 C-1.34 2.68 -0.68 1.36 0 0 Z " fill="#6B6B6B" transform="translate(574,585)"/>
<path d="M0 0 C0.33 0 0.66 0 1 0 C1.125 2.375 1.125 2.375 1 5 C-1 7 -1 7 -4.125 7.125 C-5.548125 7.063125 -5.548125 7.063125 -7 7 C-7 6.34 -7 5.68 -7 5 C-6.21625 4.731875 -5.4325 4.46375 -4.625 4.1875 C-1.71885077 3.15185568 -1.71885077 3.15185568 0 0 Z " fill="#C7C7C7" transform="translate(401,592)"/>
<path d="M0 0 C0.33 1.32 0.66 2.64 1 4 C-0.98 5.32 -2.96 6.64 -5 8 C-5.33 7.01 -5.66 6.02 -6 5 C-4.02 3.35 -2.04 1.7 0 0 Z " fill="#A9A9A9" transform="translate(542,456)"/>
<path d="M0 0 C3.25543229 0.34879632 4.01873107 1.02133261 6.25 3.5625 C6.8275 4.366875 7.405 5.17125 8 6 C4.06830895 6 2.83572772 4.60580385 0 2 C0 1.34 0 0.68 0 0 Z " fill="#A4A4A4" transform="translate(564,457)"/>
<path d="M0 0 C0.33 0 0.66 0 1 0 C1 4.62 1 9.24 1 14 C0.67 14 0.34 14 0 14 C-2 6.375 -2 6.375 -2 3 C-1.34 3 -0.68 3 0 3 C0 2.01 0 1.02 0 0 Z " fill="#7B7B7B" transform="translate(544,442)"/>
<path d="M0 0 C0.598125 0.226875 1.19625 0.45375 1.8125 0.6875 C1.02875 1.43 0.245 2.1725 -0.5625 2.9375 C-2.75254531 5.23183318 -4.01481386 6.80908858 -5.1875 9.6875 C-5.5508218 3.26881488 -5.5508218 3.26881488 -3.9375 0.6875 C-2.1875 -0.3125 -2.1875 -0.3125 0 0 Z " fill="#A1A1A2" transform="translate(569.1875,445.3125)"/>
<path d="M0 0 C0.33 0 0.66 0 1 0 C1.125 2.875 1.125 2.875 1 6 C0.34 6.66 -0.32 7.32 -1 8 C-1 7.34 -1 6.68 -1 6 C-1.99 5.67 -2.98 5.34 -4 5 C-2.69254251 3.31295807 -1.35827971 1.64639965 0 0 Z " fill="#6B6B6B" transform="translate(480,577)"/>
<path d="M0 0 C0.99 0.33 1.98 0.66 3 1 C1.35 2.98 -0.3 4.96 -2 7 C-2.66 5.68 -3.32 4.36 -4 3 C-2.1875 1.4375 -2.1875 1.4375 0 0 Z " fill="#CDCFCE" transform="translate(214,446)"/>
<path d="M0 0 C3 1 3 1 4 3 C4.039992 4.99960012 4.04346799 7.00047242 4 9 C3.01 8.67 2.02 8.34 1 8 C0.67 5.36 0.34 2.72 0 0 Z " fill="#A6A8A6" transform="translate(524,585)"/>
<path d="M0 0 C0.99 0 1.98 0 3 0 C2.40138258 2.35171131 1.73075648 4.6859378 1 7 C0.01 7.495 0.01 7.495 -1 8 C-1.125 2.25 -1.125 2.25 0 0 Z " fill="#BCBDBC" transform="translate(451,574)"/>
<path d="M0 0 C1.32 0 2.64 0 4 0 C3.67 1.32 3.34 2.64 3 4 C2.34 4 1.68 4 1 4 C0.67 5.65 0.34 7.3 0 9 C-0.33 9 -0.66 9 -1 9 C-1.09765625 2.84765625 -1.09765625 2.84765625 -1 1 C-0.67 0.67 -0.34 0.34 0 0 Z " fill="#5A5B5C" transform="translate(647,483)"/>
<path d="M0 0 C1.32 0 2.64 0 4 0 C3.60196439 2.88575819 3.20990931 3.82189513 0.9375 5.75 C0.298125 6.1625 -0.34125 6.575 -1 7 C-1.04254356 5.00045254 -1.04080783 2.99958364 -1 1 C-0.67 0.67 -0.34 0.34 0 0 Z " fill="#DADADA" transform="translate(820,443)"/>
<path d="M0 0 C1.65 1.65 3.3 3.3 5 5 C4.01 5.495 4.01 5.495 3 6 C2.67 7.32 2.34 8.64 2 10 C1.34 6.7 0.68 3.4 0 0 Z " fill="#ABADAD" transform="translate(383,583)"/>
<path d="M0 0 C2.31 0 4.62 0 7 0 C7 0.66 7 1.32 7 2 C5.02 2.66 3.04 3.32 1 4 C0.67 2.68 0.34 1.36 0 0 Z " fill="#BABBBB" transform="translate(407,583)"/>
<path d="M0 0 C2.475 0.99 2.475 0.99 5 2 C5 2.99 5 3.98 5 5 C3.35 5 1.7 5 0 5 C0 3.35 0 1.7 0 0 Z " fill="#545353" transform="translate(564,460)"/>
<path d="M0 0 C0.99 0 1.98 0 3 0 C2.40072174 3.35595828 1.15377564 5.37801226 -1 8 C-1.04241723 5.66705225 -1.04092937 3.33297433 -1 1 C-0.67 0.67 -0.34 0.34 0 0 Z " fill="#7E7E7E" transform="translate(564,443)"/>
<path d="M0 0 C-0.33 0.99 -0.66 1.98 -1 3 C-3.31 3 -5.62 3 -8 3 C-8.33 2.34 -8.66 1.68 -9 1 C-2.25 0 -2.25 0 0 0 Z " fill="#BEC0BD" transform="translate(668,596)"/>
<path d="M0 0 C0.33 0 0.66 0 1 0 C1 1.98 1 3.96 1 6 C1.66 6 2.32 6 3 6 C4.625 8 4.625 8 6 10 C3.5625 9.625 3.5625 9.625 1 9 C-0.4783226 6.04335481 -0.06032783 3.25770263 0 0 Z " fill="#A9A9A8" transform="translate(656,587)"/>
<path d="M0 0 C0.33 0 0.66 0 1 0 C1 2.64 1 5.28 1 8 C0.01 7.67 -0.98 7.34 -2 7 C-2 5.35 -2 3.7 -2 2 C-1.34 2 -0.68 2 0 2 C0 1.34 0 0.68 0 0 Z " fill="#5A5A5A" transform="translate(599,591)"/>
<path d="M0 0 C1.98 0 3.96 0 6 0 C6 0.66 6 1.32 6 2 C3.36 2.66 0.72 3.32 -2 4 C-1.34 2.68 -0.68 1.36 0 0 Z " fill="#C2C3C2" transform="translate(377,583)"/>
<path d="M0 0 C0.66 0.33 1.32 0.66 2 1 C0.35 2.65 -1.3 4.3 -3 6 C-3.66 5.01 -4.32 4.02 -5 3 C-2.625 1.4375 -2.625 1.4375 0 0 Z " fill="#999999" transform="translate(579,502)"/>
<path d="M0 0 C2.31 0 4.62 0 7 0 C5.68 0.33 4.36 0.66 3 1 C3 1.66 3 2.32 3 3 C4.32 3.33 5.64 3.66 7 4 C5.02 4 3.04 4 1 4 C0.67 2.68 0.34 1.36 0 0 Z " fill="#9F9F9E" transform="translate(549,469)"/>
<path d="M0 0 C0.99 0.99 1.98 1.98 3 3 C-0.3 3.33 -3.6 3.66 -7 4 C-6 2 -6 2 -2.9375 0.875 C-1.4834375 0.441875 -1.4834375 0.441875 0 0 Z " fill="#B2B2B2" transform="translate(553,432)"/>
<path d="M0 0 C1.65 0 3.3 0 5 0 C5.33 0.99 5.66 1.98 6 3 C3.69 3 1.38 3 -1 3 C-0.67 2.01 -0.34 1.02 0 0 Z " fill="#B2B3B2" transform="translate(673,583)"/>
<path d="M0 0 C1.9451 2.91765 2.45276317 4.62537285 3 8 C2.01 8 1.02 8 0 8 C-0.98120464 4.94736336 -0.98120464 3.05263664 0 0 Z " fill="#ACADAC" transform="translate(440,578)"/>
<path d="M0 0 C0.66 0 1.32 0 2 0 C2 0.66 2 1.32 2 2 C2.66 2.66 3.32 3.32 4 4 C2.35 4.66 0.7 5.32 -1 6 C-1.33 5.01 -1.66 4.02 -2 3 C-1.34 2.01 -0.68 1.02 0 0 Z " fill="#868785" transform="translate(578,513)"/>
</svg>
