<?xml version="1.0" encoding="UTF-8"?>
<svg version="1.1" xmlns="http://www.w3.org/2000/svg" width="1024" height="1024">
<path d="M0 0 C337.92 0 675.84 0 1024 0 C1024 337.92 1024 675.84 1024 1024 C686.08 1024 348.16 1024 0 1024 C0 686.08 0 348.16 0 0 Z " fill="#FEFEFE" transform="translate(0,0)"/>
<path d="M0 0 C0 119.46 0 238.92 0 362 C-5 363 -5 363 -6.70222473 362.03276062 C-7.20630356 361.52139053 -7.71038239 361.01002045 -8.22973633 360.4831543 C-8.80996048 359.90893234 -9.39018463 359.33471039 -9.98799133 358.74308777 C-10.59652451 358.10986099 -11.20505768 357.47663422 -11.83203125 356.82421875 C-12.46864182 356.18386185 -13.10525238 355.54350494 -13.76115417 354.88374329 C-15.10361158 353.52784203 -16.4388538 352.16476468 -17.76733398 350.79516602 C-19.80803111 348.69210546 -21.86935927 346.61119611 -23.93554688 344.53320312 C-25.23563215 343.21478015 -26.5345031 341.8951584 -27.83203125 340.57421875 C-28.45068558 339.94706467 -29.0693399 339.31991058 -29.70674133 338.67375183 C-34 334.23434489 -34 334.23434489 -34 332 C-34.66 332 -35.32 332 -36 332 C-36 331.34 -36 330.68 -36 330 C-36.99 329.67 -37.98 329.34 -39 329 C-40.6875 327.5625 -40.6875 327.5625 -42 326 C-42 325.34 -42 324.68 -42 324 C-42.66 324 -43.32 324 -44 324 C-45.41015625 322.56640625 -45.41015625 322.56640625 -47.0625 320.5625 C-50.54078035 316.41503675 -54.35372668 312.79360445 -58.375 309.17578125 C-60 307 -60 307 -60.0390625 304.7578125 C-58.54350609 300.78840339 -56.49619543 297.22800319 -54.375 293.5625 C-53.46028729 291.94381001 -52.54754286 290.32400626 -51.63671875 288.703125 C-50.96261963 287.50526367 -50.96261963 287.50526367 -50.27490234 286.28320312 C-42.88790345 273.05393969 -37.8182161 259.753365 -34.75 244.9375 C-34.58669189 244.15938965 -34.42338379 243.3812793 -34.25512695 242.57958984 C-31.80046034 229.91262084 -31.84559801 216.98275079 -31.81054688 204.12817383 C-31.80258259 202.48567503 -31.79419301 200.84317825 -31.78541565 199.20068359 C-31.76751699 195.69504712 -31.75244746 192.1894146 -31.73963928 188.68375587 C-31.7192492 183.14116683 -31.69162794 177.59862763 -31.66296387 172.05607605 C-31.59809897 159.30719655 -31.54226337 146.55828077 -31.48697662 133.80935669 C-31.43610448 122.08667737 -31.38330249 110.36401665 -31.32245111 98.6413843 C-31.29411429 93.12940363 -31.27051725 87.6174291 -31.25052643 82.10541213 C-31.23715993 78.68767571 -31.21974894 75.26996871 -31.20121574 71.85225677 C-31.19344936 70.26514363 -31.18738431 68.67802113 -31.18312263 67.0908947 C-31.17709013 64.92938673 -31.16504946 62.76799351 -31.15148926 60.60652161 C-31.14633553 59.39595502 -31.14118179 58.18538843 -31.13587189 56.93813801 C-31 54 -31 54 -30 51 C-30.0041238 49.04944206 -30.01334489 47.09854188 -30.06567383 45.14868164 C-30.25537231 37.87846781 -30.1914095 31.67409844 -27 25 C-26.41992188 23.68708984 -26.41992188 23.68708984 -25.828125 22.34765625 C-22.22981294 14.60684297 -22.22981294 14.60684297 -18 12 C-17.34 12 -16.68 12 -16 12 C-16 11.34 -16 10.68 -16 10 C-15.01 9.67 -14.02 9.34 -13 9 C-12.67 8.34 -12.34 7.68 -12 7 C-11.34 7 -10.68 7 -10 7 C-9.7525 6.236875 -9.505 5.47375 -9.25 4.6875 C-6.97653289 -0.20045428 -5.27857429 -1.31964357 0 0 Z " fill="#696969" transform="translate(225,283)"/>
<path d="M0 0 C0.66 0.33 1.32 0.66 2 1 C2 1.66 2 2.32 2 3 C2.556875 3.061875 3.11375 3.12375 3.6875 3.1875 C7.04072809 4.36566122 8.60149402 6.37837719 11 9 C11.57234375 9.58007812 12.1446875 10.16015625 12.734375 10.7578125 C19.46865317 17.86621724 22.28510609 25.23391564 22.82421875 34.96875 C22.8801646 37.06735773 22.8801646 37.06735773 24 39 C24.10246093 41.30095465 24.13789595 43.60496329 24.14476013 45.90818787 C24.14828698 46.62744684 24.15181382 47.34670581 24.15544754 48.08776051 C24.166167 50.51090599 24.16982138 52.93401219 24.17358398 55.35717773 C24.17988758 57.09017097 24.18665316 58.82316258 24.19384766 60.55615234 C24.20854294 64.29769491 24.22025823 68.03923111 24.22979546 71.78079033 C24.24525271 77.71326998 24.26920861 83.64569632 24.29469299 89.57814026 C24.36586083 106.45188005 24.42538469 123.32565185 24.47680664 140.19946289 C24.50526157 149.51193067 24.54073466 158.82434684 24.58346039 168.13676029 C24.61001567 174.0156104 24.62805478 179.89440211 24.63949764 185.77330005 C24.64873256 189.46279788 24.66614522 193.15222611 24.68567657 196.84168243 C24.69304685 198.53171486 24.69722663 200.2217653 24.69767189 201.91181374 C24.71137038 230.72227091 28.7643214 257.77189882 42.375 283.359375 C42.97054687 284.48480713 43.56609375 285.61023926 44.1796875 286.76977539 C45.37678377 289.01738143 46.58993621 291.25652201 47.8203125 293.48608398 C48.37460937 294.51548096 48.92890625 295.54487793 49.5 296.60546875 C50.0053125 297.52481201 50.510625 298.44415527 51.03125 299.39135742 C52.16606156 302.4471693 52.01792286 303.93643113 51 307 C49.328125 309.02734375 49.328125 309.02734375 47.25 310.9375 C44.68836377 313.3568231 42.30898232 315.73405832 40.125 318.5 C39.073125 319.7375 39.073125 319.7375 38 321 C37.34 321 36.68 321 36 321 C35.6596875 321.8353125 35.6596875 321.8353125 35.3125 322.6875 C33.98049755 325.03436146 32.42307985 326.63978082 30.50759888 328.51641846 C28.86537599 330.13247933 27.25649434 331.77748454 25.65014648 333.42919922 C22.31125428 336.8568115 18.95738359 340.26933131 15.59790039 343.67675781 C14.1513769 345.14861876 12.70934505 346.62490685 11.27172852 348.10546875 C9.19144978 350.24613122 7.09566436 352.37046536 4.99609375 354.4921875 C4.35433701 355.15975067 3.71258026 355.82731384 3.05137634 356.5151062 C2.44717361 357.11968658 1.84297089 357.72426697 1.22045898 358.34716797 C0.69371078 358.88501923 0.16696259 359.42287048 -0.37574768 359.97702026 C-2 361 -2 361 -4.10151577 360.56393623 C-4.72801557 360.37783728 -5.35451536 360.19173832 -6 360 C-6.02293773 317.85889797 -6.04053441 275.71779667 -6.05106533 233.57668963 C-6.05231589 228.59051443 -6.05361023 223.60433924 -6.05493164 218.61816406 C-6.05519395 217.62559418 -6.05545626 216.6330243 -6.05572652 215.61037654 C-6.06006626 199.58313605 -6.06794441 183.55589918 -6.0771528 167.52866083 C-6.08653663 151.05748442 -6.09206559 134.58630988 -6.09408849 118.1151309 C-6.09545393 107.96878879 -6.09975108 97.82245691 -6.10791647 87.67611796 C-6.11324239 80.69851845 -6.11479114 73.72092417 -6.11350138 66.74332279 C-6.11286704 62.73031452 -6.11377109 58.71732403 -6.11920547 54.704319 C-6.14189393 37.1146024 -5.9449248 19.56955782 -5 2 C-2.625 0.9375 -2.625 0.9375 0 0 Z " fill="#6B6B6B" transform="translate(243,285)"/>
<path d="M0 0 C0.04701001 20.02120839 0.08212938 40.04240536 0.10362434 60.06365776 C0.11387626 69.36276993 0.12781802 78.66184754 0.15087891 87.9609375 C0.17100145 96.07913366 0.18376045 104.19730476 0.18817699 112.31552517 C0.19075294 116.60213463 0.19667537 120.88867247 0.21146011 125.17525864 C0.52810764 220.8035222 0.52810764 220.8035222 -27 250 C-31.54704504 248.59140452 -34.2961666 246.0663327 -37.5 242.6875 C-38.4178125 241.74261719 -39.335625 240.79773438 -40.28125 239.82421875 C-41.1784375 238.89222656 -42.075625 237.96023438 -43 237 C-43.86625 236.13503906 -44.7325 235.27007813 -45.625 234.37890625 C-52.31472597 227.67817744 -52.31472597 227.67817744 -54 224 C-53.870362 220.64237582 -52.46345745 217.98599859 -51 215 C-47.10574129 206.80445554 -44.26539506 198.9589701 -42.25 190.125 C-42.05164551 189.26495361 -41.85329102 188.40490723 -41.64892578 187.51879883 C-37.94571969 170.41720935 -37.72732438 153.69709425 -37.75994086 136.26394701 C-37.7629578 132.80666285 -37.750717 129.34944178 -37.7389679 125.8921814 C-37.70154228 114.16427775 -37.68305888 102.43645708 -37.69458008 90.70849609 C-37.70081389 84.20165259 -37.68914233 77.69508712 -37.65813476 71.18831193 C-37.64262496 67.75967548 -37.6363433 64.33158708 -37.65271568 60.90294266 C-37.66708086 57.08411111 -37.65073399 53.26651752 -37.62768555 49.44775391 C-37.64533714 47.77209854 -37.64533714 47.77209854 -37.66334534 46.06259155 C-37.54151903 35.73635215 -33.82651923 28.09394048 -26.625 20.8125 C-25.8659436 20.02335205 -25.8659436 20.02335205 -25.09155273 19.21826172 C-23.99496813 18.08347608 -22.89280738 16.95405712 -21.78564453 15.82958984 C-19.84882786 13.84510747 -17.95410082 11.82471897 -16.05859375 9.80078125 C-14.7278851 8.40758968 -13.39587419 7.01564069 -12.0625 5.625 C-11.43617676 4.95186768 -10.80985352 4.27873535 -10.16455078 3.58520508 C-9.56497559 2.97185303 -8.96540039 2.35850098 -8.34765625 1.7265625 C-7.55887085 0.90019287 -7.55887085 0.90019287 -6.75415039 0.05712891 C-4.26865127 -1.44074321 -2.73666822 -0.64807965 0 0 Z " fill="#727373" transform="translate(181,327)"/>
<path d="M0 0 C4.91073687 0.75322619 6.63648129 2.31030406 10 6 C11.71869852 7.68627653 13.43880756 9.37111635 15.16015625 11.0546875 C16.62690022 12.49930984 18.09220231 13.94537748 19.55688477 15.39208984 C20.55975055 16.37983215 21.56528713 17.36487015 22.57348633 18.34716797 C36.62639648 32.0498427 36.62639648 32.0498427 37.12749195 41.37173653 C37.12874923 42.25607306 37.1300065 43.14040958 37.13130188 44.05154419 C37.13531006 45.07123795 37.13931824 46.0909317 37.14344788 47.14152527 C37.14291916 48.25513931 37.14239044 49.36875336 37.1418457 50.51611328 C37.14532013 51.6941301 37.14879456 52.87214691 37.15237427 54.08586121 C37.15973322 56.64980725 37.16507786 59.21375968 37.16866493 61.77771378 C37.17461097 65.85981664 37.19119444 69.94183386 37.21000671 74.02389526 C37.216345 75.42751497 37.22267062 76.83113474 37.22898388 78.23475456 C37.23214969 78.93802809 37.2353155 79.64130161 37.23857725 80.36588645 C37.28040521 89.86142107 37.31348971 99.3569187 37.32592773 108.85253906 C37.33441223 115.26421821 37.35729022 121.67568716 37.3952834 128.08726108 C37.41472937 131.46626471 37.42528817 134.84469027 37.42244911 138.22378922 C37.40554968 164.94132303 39.58136291 191.5854088 50.71411133 216.19360352 C51.00954834 216.86319092 51.30498535 217.53277832 51.609375 218.22265625 C51.87717773 218.80797119 52.14498047 219.39328613 52.42089844 219.99633789 C53.24956234 222.86347308 53.35026835 225.02519232 53 228 C51.15161133 230.57714844 51.15161133 230.57714844 48.58203125 233.109375 C47.65712891 234.02847656 46.73222656 234.94757813 45.77929688 235.89453125 C45.29195068 236.3632666 44.80460449 236.83200195 44.30249023 237.31494141 C42.8188061 238.74392639 41.36049227 240.19541029 39.90429688 241.65234375 C32.06798681 249.34223141 32.06798681 249.34223141 27 251 C1.79496053 226.34632076 0.24203586 182.40699854 -0.1741333 149.40002441 C-0.25927379 140.68562054 -0.23274919 131.97079909 -0.20278788 123.25617313 C-0.19004106 118.90278355 -0.18909161 114.54938925 -0.18673706 110.19598389 C-0.18059103 102.00163514 -0.16427638 93.80734159 -0.14403808 85.61301684 C-0.12146109 76.26309738 -0.11063161 66.91317487 -0.10064721 57.56323481 C-0.07990158 38.37545891 -0.04486386 19.18773394 0 0 Z " fill="#737373" transform="translate(280,326)"/>
<path d="M0 0 C7.59 0 15.18 0 23 0 C23.33 17.82 23.66 35.64 24 54 C33.4513989 40.67148793 33.4513989 40.67148793 37.1875 32.0625 C39.04296875 29.14453125 39.04296875 29.14453125 42 27 C49.55047764 25.53655274 57.39466983 26.27015778 65 27 C63.75350536 30.34318686 62.34786311 33.22264655 60.35546875 36.1796875 C59.84306641 36.94410156 59.33066406 37.70851563 58.80273438 38.49609375 C58.26970703 39.28113281 57.73667969 40.06617188 57.1875 40.875 C56.66607422 41.65230469 56.14464844 42.42960937 55.60742188 43.23046875 C55.09115234 43.99746094 54.57488281 44.76445312 54.04296875 45.5546875 C53.53685059 46.30717773 53.03073242 47.05966797 52.50927734 47.83496094 C51.53271657 49.23582489 50.5189391 50.61175905 49.46337891 51.95410156 C46.73790915 55.23471586 46.73790915 55.23471586 46.13989258 59.28442383 C47.22270831 62.70314633 48.87820407 65.63420728 50.7109375 68.69140625 C51.0797403 69.31853012 51.44854309 69.94565399 51.82852173 70.59178162 C52.60692713 71.9123785 53.38876793 73.23095576 54.17382812 74.54760742 C55.37076913 76.55540297 56.55735182 78.56902627 57.7421875 80.58398438 C58.5020063 81.87014506 59.2624038 83.15596407 60.0234375 84.44140625 C60.37667084 85.03941544 60.72990417 85.63742462 61.09384155 86.2535553 C62.54926448 88.69076765 64.02223274 91.0290528 65.74853516 93.28491211 C67 95 67 95 67 97 C45.81377539 99.51813412 45.81377539 99.51813412 39.96337891 95.65527344 C36.67308775 92.03626039 34.78973494 87.72509345 32.95751953 83.23339844 C31.72171028 80.35089384 30.1856655 77.71196927 28.57788086 75.02392578 C27.0046283 72.37682537 25.50967543 69.68386742 24 67 C23.67 76.9 23.34 86.8 23 97 C15.41 97 7.82 97 0 97 C0 64.99 0 32.98 0 0 Z " fill="#343434" transform="translate(575,354)"/>
<path d="M0 0 C5.69245441 3.46179241 8.65710029 7.9628856 10.4375 14.375 C10.67800903 17.26046753 10.67800903 17.26046753 10.66455078 20.28857422 C10.66439972 21.42930389 10.66424866 22.57003357 10.66409302 23.74533081 C10.65377045 24.96116852 10.64344788 26.17700623 10.6328125 27.4296875 C10.6299826 28.68637238 10.62715271 29.94305725 10.62423706 31.23782349 C10.61496123 34.56200864 10.59702381 37.88591424 10.5748291 41.21002197 C10.55428812 44.60874021 10.54521778 48.00748744 10.53515625 51.40625 C10.51313376 58.06258662 10.47862308 64.71875508 10.4375 71.375 C2.8475 71.375 -4.7425 71.375 -12.5625 71.375 C-12.61857422 66.01314453 -12.61857422 66.01314453 -12.67578125 60.54296875 C-12.72196877 57.08774633 -12.77321262 53.63263345 -12.82495117 50.17749023 C-12.85824176 47.77293533 -12.88626067 45.36830149 -12.90893555 42.96362305 C-12.9424051 39.51056221 -12.99471797 36.05822739 -13.05078125 32.60546875 C-13.05717117 31.52726364 -13.0635611 30.44905853 -13.07014465 29.33818054 C-13.09983589 27.83696404 -13.09983589 27.83696404 -13.13012695 26.30541992 C-13.14678154 24.98304573 -13.14678154 24.98304573 -13.16377258 23.63395691 C-13.64708226 20.89580625 -14.32472452 19.99150688 -16.5625 18.375 C-19.92409777 17.97291394 -19.92409777 17.97291394 -23.625 18.125 C-25.49865234 18.14820313 -25.49865234 18.14820313 -27.41015625 18.171875 C-30.4635085 18.16351514 -30.4635085 18.16351514 -32.5625 19.375 C-32.8925 36.205 -33.2225 53.035 -33.5625 70.375 C-41.1525 70.375 -48.7425 70.375 -56.5625 70.375 C-56.5625 47.275 -56.5625 24.175 -56.5625 0.375 C-49.3025 0.375 -42.0425 0.375 -34.5625 0.375 C-34.5625 2.355 -34.5625 4.335 -34.5625 6.375 C-33.91023437 5.96507812 -33.25796875 5.55515625 -32.5859375 5.1328125 C-31.71195313 4.59398437 -30.83796875 4.05515625 -29.9375 3.5 C-29.07898438 2.96632813 -28.22046875 2.43265625 -27.3359375 1.8828125 C-19.2841146 -2.49465742 -8.55544621 -3.91106112 0 0 Z " fill="#363636" transform="translate(790.5625,380.625)"/>
<path d="M0 0 C1.22460938 -0.03738281 2.44921875 -0.07476562 3.7109375 -0.11328125 C11.59342588 -0.18923671 17.74615352 0.67604489 24.25 5.375 C28.70104567 10.06875937 30.37788607 14.46570029 30.36352539 20.85620117 C30.36344986 21.97713669 30.36337433 23.0980722 30.36329651 24.25297546 C30.35813522 25.46242325 30.35297394 26.67187103 30.34765625 27.91796875 C30.3462413 29.15670242 30.34482635 30.3954361 30.34336853 31.67170715 C30.33871602 34.96131537 30.3297339 38.2508746 30.31866455 41.54046631 C30.30842629 44.89871623 30.30386574 48.25697333 30.29882812 51.61523438 C30.28779145 58.20184212 30.27104767 64.78841705 30.25 71.375 C27.49940619 71.45607646 24.75120979 71.51552813 22 71.5625 C21.22269531 71.58763672 20.44539062 71.61277344 19.64453125 71.63867188 C13.82002825 71.71334499 13.82002825 71.71334499 10.703125 69.86328125 C10.22359375 69.37214844 9.7440625 68.88101563 9.25 68.375 C8.63511719 68.65214844 8.02023437 68.92929687 7.38671875 69.21484375 C6.17435547 69.75818359 6.17435547 69.75818359 4.9375 70.3125 C3.73673828 70.85197266 3.73673828 70.85197266 2.51171875 71.40234375 C-3.97005385 74.18984181 -11.2565301 74.49342443 -18 72.25 C-22.76511544 70.18119473 -27.00834561 66.96709432 -29.91796875 62.63671875 C-32.066623 56.79601072 -31.78909523 48.71422835 -29.9453125 42.7890625 C-26.56406487 36.70281677 -20.93641229 33.66203891 -14.4375 31.6640625 C-7.32901409 30.05062326 -0.00842325 29.77243528 7.25 29.375 C6.92 26.075 6.59 22.775 6.25 19.375 C3.52522977 18.46674326 1.91959058 18.24655942 -0.8828125 18.2421875 C-1.68976562 18.24089844 -2.49671875 18.23960937 -3.328125 18.23828125 C-4.16859375 18.24214844 -5.0090625 18.24601562 -5.875 18.25 C-6.69226563 18.24613281 -7.50953125 18.24226563 -8.3515625 18.23828125 C-13.89064221 18.24704562 -19.25479183 18.67842432 -24.75 19.375 C-24.75 14.095 -24.75 8.815 -24.75 3.375 C-16.51437178 0.08074871 -8.77135462 0.10029615 0 0 Z " fill="#353535" transform="translate(528.75,379.625)"/>
<path d="M0 0 C20.79 0 41.58 0 63 0 C63 6.27 63 12.54 63 19 C50.13 19 37.26 19 24 19 C24 25.93 24 32.86 24 40 C33.57 40 43.14 40 53 40 C53 45.94 53 51.88 53 58 C43.43 58 33.86 58 24 58 C24 69.22 24 80.44 24 92 C16.08 92 8.16 92 0 92 C0 61.64 0 31.28 0 0 Z " fill="#353535" transform="translate(386,359)"/>
<path d="M0 0 C7.92 0 15.84 0 24 0 C25.67312088 4.58957012 27.34573702 9.17931786 29.01708984 13.76953125 C29.58515629 15.32920828 30.15351167 16.88878012 30.72216797 18.44824219 C31.54211209 20.69698562 32.36099728 22.94611231 33.1796875 25.1953125 C33.43185028 25.8861795 33.68401306 26.57704651 33.94381714 27.28884888 C35.35659973 31.17377879 36.71202114 35.0719317 38 39 C38.35827881 37.92516357 38.71655762 36.85032715 39.08569336 35.74291992 C43.05712891 23.82861328 47.02856445 11.91430664 51 0 C58.26 0 65.52 0 73 0 C72.27172638 3.64136812 71.52062596 6.5720995 70.2421875 9.98828125 C69.6857959 11.48379517 69.6857959 11.48379517 69.11816406 13.00952148 C68.70791992 14.09950439 68.29767578 15.1894873 67.875 16.3125 C67.20988817 18.08957235 66.54477977 19.86664598 65.87976074 21.64375305 C65.39442386 22.93961618 64.90848312 24.23525327 64.42199707 25.53068542 C62.66353536 30.21527439 60.92362347 34.90646729 59.19180298 39.60096741 C57.87640236 43.16395923 56.55508615 46.72474278 55.23297119 50.2852478 C54.58438607 52.03525974 53.93797609 53.78607956 53.29388428 55.53775024 C42.48450351 84.91097588 42.48450351 84.91097588 32.9765625 90.10546875 C28.48184098 91.45624464 24.10245019 91.2481667 19.4375 91.1875 C18.01920898 91.1865332 18.01920898 91.1865332 16.57226562 91.18554688 C12.43618433 91.15923964 9.04742462 91.01185616 5 90 C5 84.72 5 79.44 5 74 C10.22460938 74.14648438 10.22460938 74.14648438 15.44921875 74.29296875 C19.31602769 73.97392511 21.13616997 73.61942153 24 71 C25.48078967 65.27401169 24.45628121 61.36720292 22.16796875 56.1015625 C21.86027557 55.35698288 21.5525824 54.61240326 21.23556519 53.84526062 C20.23451535 51.43194671 19.211093 49.02882708 18.1875 46.625 C17.49554598 44.96582432 16.80536981 43.30590611 16.11694336 41.64526367 C14.73893204 38.32514745 13.35361013 35.00825002 11.96191406 31.69384766 C9.26494796 25.25877711 6.65556583 18.79006679 4.0625 12.3125 C3.64444092 11.28141113 3.22638184 10.25032227 2.7956543 9.18798828 C2.42093994 8.25583496 2.04622559 7.32368164 1.66015625 6.36328125 C1.17494507 5.16119019 1.17494507 5.16119019 0.67993164 3.93481445 C0 2 0 2 0 0 Z " fill="#353535" transform="translate(650,381)"/>
<path d="M0 0 C18.48 0 36.96 0 56 0 C56 17.80260509 56 17.80260509 52.7487793 21.57202148 C52.27480713 22.04325439 51.80083496 22.5144873 51.3125 23 C50.30402871 24.13613432 49.29624603 25.27288017 48.2890625 26.41015625 C47.75442383 26.98652832 47.21978516 27.56290039 46.66894531 28.15673828 C43.68422884 31.45319957 40.96090237 34.963402 38.1875 38.4375 C37.14183022 39.72989726 36.09373342 41.02033541 35.04296875 42.30859375 C34.59977295 42.85314209 34.15657715 43.39769043 33.69995117 43.95874023 C31.16669252 47.00061523 28.5762136 49.99441746 26 53 C40.85 53.495 40.85 53.495 56 54 C56 59.28 56 64.56 56 70 C36.86 70 17.72 70 -2 70 C-2 52.20409085 -2 52.20409085 2.26635742 47.71801758 C2.85908447 47.17169678 3.45181152 46.62537598 4.0625 46.0625 C5.26962199 44.81905896 6.47536341 43.57427611 7.6796875 42.328125 C8.25944336 41.75384766 8.83919922 41.17957031 9.43652344 40.58789062 C11.37187684 38.62231622 13.0411067 36.52359825 14.6875 34.3125 C18.93382514 28.71507141 23.48450063 23.38148555 28 18 C14.14 17.505 14.14 17.505 0 17 C0 11.39 0 5.78 0 0 Z " fill="#353535" transform="translate(815,381)"/>
<path d="M0 0 C7.92 0 15.84 0 24 0 C24 32.34 24 64.68 24 98 C16.08 98 8.16 98 0 98 C0 65.66 0 33.32 0 0 Z " fill="#3B3B3B" transform="translate(462,354)"/>
<path d="M0 0 C5.84634206 3.49656227 10.59295118 8.92582314 12.7734375 15.4296875 C14.60133862 25.00507721 14.86487963 36.73008366 9.28125 45.08984375 C4.24820973 50.93574229 -1.4786413 54.41041312 -9.12890625 55.40234375 C-16.32383156 55.75819786 -22.30329682 54.14717175 -27.73046875 49.2890625 C-34.13437552 42.37499125 -36.29178331 36.04702708 -36.21875 26.77734375 C-36.21302979 25.93792236 -36.20730957 25.09850098 -36.20141602 24.23364258 C-35.98001582 16.54278125 -34.33214602 10.9210114 -28.96875 5.234375 C-27.27531083 3.69787093 -25.62417263 2.35160012 -23.71875 1.08984375 C-23.15800781 0.71730469 -22.59726562 0.34476562 -22.01953125 -0.0390625 C-15.77578452 -2.40299378 -6.3358155 -2.12104168 0 0 Z " fill="#FBFBFB" transform="translate(538.71875,493.91015625)"/>
<path d="M0 0 C3.86796606 0.5567692 5.58543048 2.24591201 8.265625 5.0078125 C9.07386719 5.83023437 9.88210938 6.65265625 10.71484375 7.5 C11.55144531 8.36625 12.38804687 9.2325 13.25 10.125 C18.40524624 15.41782738 23.55175047 20.59602236 29.16455078 25.40478516 C31.99498653 27.86475685 34.65999888 30.4759753 37.3125 33.125 C37.82361328 33.62386719 38.33472656 34.12273437 38.86132812 34.63671875 C41.76588962 37.52994905 44.36696375 40.21512898 46 44 C45.94288494 49.22275081 43.98163147 51.58713866 40.4651947 55.10128784 C39.83601639 55.70465973 39.20683807 56.30803162 38.55859375 56.9296875 C37.91632339 57.56488312 37.27405304 58.20007874 36.61231995 58.85452271 C34.56551426 60.87342073 32.50199079 62.8742058 30.4375 64.875 C29.04378144 66.2436313 27.65118948 67.61341085 26.25976562 68.984375 C22.85275579 72.33636332 19.43064908 75.67221659 16 79 C12.4914959 77.83049863 12.31676235 77.4077456 10.6875 74.25 C-0.48014668 50.5610525 -0.34155997 25.57495968 0 0 Z " fill="#606060" transform="translate(330,461)"/>
<path d="M0 0 C0.99 0.33 1.98 0.66 3 1 C3.71967412 24.24270619 3.11596382 48.24400966 -6 70 C-6.52787109 71.30517578 -6.52787109 71.30517578 -7.06640625 72.63671875 C-9.32264963 77.70663034 -9.32264963 77.70663034 -11.93978882 78.84014893 C-14 79 -14 79 -16.90087891 76.68261719 C-18.02248484 75.56699964 -19.13021016 74.43731962 -20.2265625 73.296875 C-20.81545258 72.70328186 -21.40434265 72.10968872 -22.01107788 71.49810791 C-23.89434743 69.59344786 -25.75930777 67.67186465 -27.625 65.75 C-28.88952871 64.46896899 -30.15514139 63.18900701 -31.421875 61.91015625 C-42.82862773 50.33621127 -42.82862773 50.33621127 -43.3717041 46.10177612 C-42.90621503 42.21738829 -41.81944833 41.09003935 -39.05273438 38.37158203 C-38.19184204 37.51114288 -37.33094971 36.65070374 -36.44396973 35.76419067 C-35.50339722 34.85458588 -34.56282471 33.94498108 -33.59375 33.0078125 C-32.62837528 32.05363489 -31.66432163 31.098119 -30.70153809 30.1413269 C-28.16966886 27.63231551 -25.62030255 25.1418462 -23.0668335 22.65484619 C-20.46210527 20.11160623 -17.87437794 17.55119574 -15.28515625 14.9921875 C-10.20658996 9.97787957 -5.10933533 4.98296783 0 0 Z " fill="#606060" transform="translate(128,460)"/>
<path d="M0 0 C1.02867187 -0.01740234 1.02867187 -0.01740234 2.078125 -0.03515625 C7.78541303 -0.00248094 11.72438086 1.38217625 16.01171875 5.13671875 C23.07365002 13.25217823 24 18.07724844 24 29.375 C10.47 29.375 -3.06 29.375 -17 29.375 C-14.7209598 41.11455061 -14.7209598 41.11455061 -7.375 48.1875 C-2.22475232 49.99962418 2.84186622 50.41789119 8.09375 48.68359375 C12.44161766 46.48202517 14.27605167 43.83698391 16 39.375 C18.31 39.375 20.62 39.375 23 39.375 C22.31596761 45.18927531 19.72189996 48.99748004 15.1875 52.625 C8.09926711 56.51657884 0.487032 57.78927578 -7.39453125 55.7578125 C-14.16303962 53.15187912 -18.57496283 48.69864278 -22.09765625 42.41796875 C-25.42686396 34.31947744 -25.7053777 22.43639204 -22.375 14.3125 C-17.23298817 4.84323174 -11.15860584 -0.18877341 0 0 Z " fill="#373737" transform="translate(755,492.625)"/>
<path d="M0 0 C2.31 0 4.62 0 7 0 C7.33 1.98 7.66 3.96 8 6 C8.41507813 5.566875 8.83015625 5.13375 9.2578125 4.6875 C14.7774017 -0.30091534 19.45987126 -0.78571688 26.77734375 -0.46484375 C32.49485065 0.35986331 35.03119092 3.00831594 39 7 C39.48210938 6.57847656 39.96421875 6.15695312 40.4609375 5.72265625 C41.09257813 5.17480469 41.72421875 4.62695312 42.375 4.0625 C43.00148438 3.51722656 43.62796875 2.97195313 44.2734375 2.41015625 C48.98984542 -1.44193257 55.21325947 -0.38061387 61 0 C66.28975342 1.67044845 68.30904041 4.21607185 71 9 C71.92687325 11.78061975 72.12193396 13.42051859 72.11352539 16.2878418 C72.11341209 17.57884041 72.11341209 17.57884041 72.11329651 18.8959198 C72.10813522 19.82100845 72.10297394 20.74609711 72.09765625 21.69921875 C72.0962413 22.64940384 72.09482635 23.59958893 72.09336853 24.5785675 C72.08776875 27.61491029 72.07521632 30.65117948 72.0625 33.6875 C72.05748497 35.74544164 72.05292207 37.80338444 72.04882812 39.86132812 C72.0377994 44.90758046 72.02053493 49.95377775 72 55 C69.69 55 67.38 55 65 55 C64.98541748 53.78417236 64.97083496 52.56834473 64.95581055 51.31567383 C64.89774902 46.79600922 64.8205164 42.27683873 64.73754883 37.75756836 C64.70433646 35.80322298 64.67629305 33.84878253 64.65356445 31.89428711 C64.61995067 29.08145718 64.56763146 26.26949553 64.51171875 23.45703125 C64.50532883 22.58601273 64.4989389 21.7149942 64.49235535 20.81758118 C64.37775077 16.06719075 64.05856039 12.87006362 61 9 C57.96645726 6.64057787 54.7365388 6.64082606 50.9609375 6.74609375 C47.06275554 7.25083843 44.77203274 9.11767687 42.25 12 C39.55343337 16.31450661 39.78436051 20.68714628 39.68359375 25.60546875 C39.66281265 26.44467361 39.64203156 27.28387848 39.62062073 28.14851379 C39.55525982 30.82809294 39.49630286 33.50776969 39.4375 36.1875 C39.39430198 38.00456737 39.35068727 39.82162488 39.30664062 41.63867188 C39.1995922 46.09234799 39.09828681 50.54612226 39 55 C36.69 55 34.38 55 32 55 C31.98541748 53.71834961 31.97083496 52.43669922 31.95581055 51.11621094 C31.8978268 46.35990535 31.82059367 41.60407315 31.73754883 36.84814453 C31.70429989 34.78995447 31.67626786 32.73167324 31.65356445 30.67333984 C31.6200181 27.71412309 31.56770198 24.75574183 31.51171875 21.796875 C31.50532883 20.87694763 31.4989389 19.95702026 31.49235535 19.00921631 C31.39544747 14.03468075 31.39544747 14.03468075 29.65551758 9.45019531 C26.54003253 6.72110209 23.07964253 6.65619617 19.0625 6.72265625 C15.57495927 7.1916248 13.5958851 8.70596201 11 11 C7.83729207 16.01143603 7.53412069 20.15777943 7.48828125 25.8984375 C7.46135445 27.15087753 7.46135445 27.15087753 7.43388367 28.42861938 C7.38000078 31.07736261 7.34595639 33.72592794 7.3125 36.375 C7.27930741 38.17841005 7.24481596 39.9817967 7.20898438 41.78515625 C7.12428725 46.18997534 7.05737166 50.5947437 7 55 C4.69 55 2.38 55 0 55 C0 36.85 0 18.7 0 0 Z " fill="#363636" transform="translate(605,493)"/>
<path d="M0 0 C2.64 0 5.28 0 8 0 C8 10.23 8 20.46 8 31 C21.53 31 35.06 31 49 31 C49 20.77 49 10.54 49 0 C51.31 0 53.62 0 56 0 C56 24.75 56 49.5 56 75 C53.69 75 51.38 75 49 75 C49 62.79 49 50.58 49 38 C35.14 38 21.28 38 7 38 C7 50.21 7 62.42 7 75 C4.69 75 2.38 75 0 75 C0 50.25 0 25.5 0 0 Z " fill="#3C3C3C" transform="translate(390,473)"/>
<path d="M0 0 C5.84634206 3.49656227 10.59295118 8.92582314 12.7734375 15.4296875 C14.60133862 25.00507721 14.86487963 36.73008366 9.28125 45.08984375 C4.24820973 50.93574229 -1.4786413 54.41041312 -9.12890625 55.40234375 C-16.32383156 55.75819786 -22.30329682 54.14717175 -27.73046875 49.2890625 C-34.13437552 42.37499125 -36.29178331 36.04702708 -36.21875 26.77734375 C-36.21302979 25.93792236 -36.20730957 25.09850098 -36.20141602 24.23364258 C-35.98001582 16.54278125 -34.33214602 10.9210114 -28.96875 5.234375 C-27.27531083 3.69787093 -25.62417263 2.35160012 -23.71875 1.08984375 C-23.15800781 0.71730469 -22.59726562 0.34476562 -22.01953125 -0.0390625 C-15.77578452 -2.40299378 -6.3358155 -2.12104168 0 0 Z M-26.02734375 11.640625 C-30.23358556 18.20469093 -29.56966836 26.64615791 -28.71875 34.08984375 C-27.18742713 39.28982524 -24.92420461 42.85498781 -21.15625 46.71484375 C-15.44877729 48.99783283 -9.46246075 49.15756874 -3.52734375 47.46484375 C1.45238779 45.05564318 3.47869534 41.05171465 5.28125 36.08984375 C7.56385258 28.85646125 7.67263299 19.77069188 4.21875 12.96484375 C1.62935936 9.10233604 -1.16610392 6.34574612 -5.71875 5.08984375 C-14.5084402 3.84613248 -20.27380147 4.82224803 -26.02734375 11.640625 Z " fill="#363636" transform="translate(538.71875,493.91015625)"/>
<path d="M0 0 C3.43782524 2.15244368 5.45731529 4.71493538 7.25 8.375 C7.5 11.25 7.5 11.25 7.25 13.375 C4.94 13.375 2.63 13.375 0.25 13.375 C0.0025 12.611875 -0.245 11.84875 -0.5 11.0625 C-1.93937384 7.96784624 -2.81375446 7.06674412 -5.75 5.375 C-9.11509272 4.86222984 -9.11509272 4.86222984 -12.75 4.9375 C-13.966875 4.91816406 -15.18375 4.89882813 -16.4375 4.87890625 C-19.8053174 5.11151666 -19.8053174 5.11151666 -22.16015625 7.2109375 C-24.29759836 10.12037959 -24.27583556 11.84438982 -23.75 15.375 C-21.55901522 18.1991573 -19.48446285 18.97189654 -16.07421875 19.83984375 C-15.16349609 20.08283203 -14.25277344 20.32582031 -13.31445312 20.57617188 C-11.40842079 21.06400228 -9.50217315 21.55099228 -7.59570312 22.03710938 C-1.3543399 23.70411196 3.50177237 25.52799886 8.09765625 30.2890625 C10.35447469 34.37428639 9.81974458 38.86288492 9.25 43.375 C6.74468362 49.11635005 2.82203277 51.14389858 -2.75 53.375 C-9.13964799 55.50488266 -16.44087085 55.28014727 -22.6875 52.75 C-26.87684386 50.583098 -29.23777319 48.37886148 -31.75 44.375 C-32.625 40.5625 -32.625 40.5625 -32.75 37.375 C-31.75 36.375 -31.75 36.375 -29.5 35.8125 C-26.75 36.375 -26.75 36.375 -25.484375 38.0546875 C-24.6481174 39.4996136 -23.81487267 40.94628686 -22.984375 42.39453125 C-21.24564366 45.18420464 -19.84396083 46.24992333 -16.75 47.375 C-10.6640552 48.17880403 -6.13609571 47.23292834 -0.75 44.375 C1.43331689 42.61363645 1.43331689 42.61363645 1.4453125 40.4296875 C1.42210937 39.71039062 1.39890625 38.99109375 1.375 38.25 C1.33375 36.97125 1.2925 35.6925 1.25 34.375 C-4.00038835 31.76369574 -9.20884136 29.90050425 -14.875 28.375 C-21.75168832 26.47593613 -27.80747531 24.73317565 -31.75 18.375 C-32.6354767 13.54077586 -32.2473672 9.44931316 -30.1875 5 C-22.71384494 -3.0485516 -10.12713235 -4.53909134 0 0 Z " fill="#373737" transform="translate(861.75,494.625)"/>
<path d="M0 0 C2.89740622 -0.13539281 5.78845621 -0.23426829 8.6875 -0.3125 C9.50412109 -0.35439453 10.32074219 -0.39628906 11.16210938 -0.43945312 C15.67197805 -0.53074601 17.39474402 -0.49250454 21.01953125 2.45703125 C21.67308594 3.29621094 22.32664062 4.13539063 23 5 C23.33 5.33 23.66 5.66 24 6 C24.44009364 9.87282401 24.28338319 11.56547911 22.125 14.875 C21.42375 15.57625 20.7225 16.2775 20 17 C19.34 17 18.68 17 18 17 C18 17.66 18 18.32 18 19 C18.99 19.33 19.98 19.66 21 20 C22.61540873 23.23081745 22.5896275 26.50759098 22 30 C20.04342803 33.52787301 17.89144937 35.70285021 14 37 C12.37280518 37.08143855 10.74248281 37.1075302 9.11328125 37.09765625 C8.17548828 37.09443359 7.23769531 37.09121094 6.27148438 37.08789062 C4.80678711 37.07532227 4.80678711 37.07532227 3.3125 37.0625 C1.83040039 37.05573242 1.83040039 37.05573242 0.31835938 37.04882812 C-2.12115474 37.03704303 -4.56054689 37.02059011 -7 37 C-6.31137469 28.9892828 -4.66689417 21.28196777 -2.9375 13.4375 C-2.652578 12.12964802 -2.36806969 10.82170585 -2.08398438 9.51367188 C-1.39337262 6.3415399 -0.69861189 3.1703779 0 0 Z " fill="#353535" transform="translate(394,575)"/>
<path d="M0 0 C2.87602455 -0.10852923 5.74790832 -0.1875515 8.625 -0.25 C9.43324219 -0.28351562 10.24148438 -0.31703125 11.07421875 -0.3515625 C16.55800755 -0.4407298 19.66486302 0.30761203 24 4 C25.5547669 7.10953379 25.28644437 9.56266761 25 13 C22.11128994 18.56344159 18.86377351 21.04540883 13 23 C8.66328697 23.13501597 4.33988266 23.04296914 0 23 C-0.99 27.95 -1.98 32.9 -3 38 C-4.65 38 -6.3 38 -8 38 C-7.29625864 31.36585394 -6.0040992 24.94781241 -4.5625 18.4375 C-4.34529297 17.43525391 -4.12808594 16.43300781 -3.90429688 15.40039062 C-2.7660745 10.2083192 -1.53465555 5.08934608 0 0 Z " fill="#404040" transform="translate(655,575)"/>
<path d="M0 0 C2.69990662 1.79993774 4.5418865 3.083773 6 6 C6.98970861 13.47936935 5.59236154 19.00336261 1 25 C-2.85066765 28.34400086 -6.00589125 28.2937711 -11 28 C-11.66 26.68 -12.32 25.36 -13 24 C-13.66 24 -14.32 24 -15 24 C-15.06058594 24.77085937 -15.12117187 25.54171875 -15.18359375 26.3359375 C-15.30927734 27.84027344 -15.30927734 27.84027344 -15.4375 29.375 C-15.51871094 30.37273438 -15.59992187 31.37046875 -15.68359375 32.3984375 C-16 35 -16 35 -17 37 C-18.32 37 -19.64 37 -21 37 C-20.47030818 28.92998936 -19.16333777 21.20687839 -17.4375 13.3125 C-17.20353516 12.21744141 -16.96957031 11.12238281 -16.72851562 9.99414062 C-16.15806137 7.32814011 -15.58181776 4.66353929 -15 2 C-10.25 1 -10.25 1 -8 1 C-5.14675563 -0.42662219 -3.16545451 -0.31033868 0 0 Z " fill="#323232" transform="translate(744,585)"/>
<path d="M0 0 C3.86937033 1.68233493 5.41179591 3.15487432 7 7 C8.03852338 13.42435392 6.67101391 18.67515047 3 24 C-0.21242749 27.01773491 -2.97003869 27.90463321 -7.375 28.3125 C-11.59334314 27.94884973 -13.04884992 26.95115008 -16 24 C-18.09182531 19.81634937 -17.42935408 14.55592381 -17 10 C-13.37378286 2.47895703 -8.33098636 -1.39974062 0 0 Z " fill="#3B3B3B" transform="translate(715,585)"/>
<path d="M0 0 C1.98 0 3.96 0 6 0 C6 10.23 6 20.46 6 31 C19.86 31 33.72 31 48 31 C48 31.33 48 31.66 48 32 C35.13 32.33 22.26 32.66 9 33 C9 33.66 9 34.32 9 35 C25.335 35.495 25.335 35.495 42 36 C42 36.33 42 36.66 42 37 C30.12 37 18.24 37 6 37 C6 48.88 6 60.76 6 73 C4.02 73 2.04 73 0 73 C0 48.91 0 24.82 0 0 Z " fill="#2E2E2D" transform="translate(391,474)"/>
<path d="M0 0 C5.37620434 2.30408757 8.74680549 6.64617058 11 12 C11 13.65 11 15.3 11 17 C-0.22 17 -11.44 17 -23 17 C-21.97318672 9.81230705 -20.87601638 6.75555496 -15.76171875 1.85546875 C-10.89997928 -1.41090501 -5.63914897 -0.68267125 0 0 Z " fill="#F9F9F9" transform="translate(761,499)"/>
<path d="M0 0 C2.7890625 1.64453125 2.7890625 1.64453125 5 4 C5.3046875 6.8828125 5.3046875 6.8828125 4.875 10.125 C4.73964844 11.26582031 4.60429688 12.40664063 4.46484375 13.58203125 C4.31144531 14.70996094 4.15804687 15.83789062 4 17 C3.80557991 18.93681784 3.6172224 20.87426308 3.4375 22.8125 C3.2932396 24.20849677 3.14806573 25.60440171 3 27 C0.33333333 27 -2.33333333 27 -5 27 C-5.66 27.33 -6.32 27.66 -7 28 C-14.14136126 28.69109948 -14.14136126 28.69109948 -17.5625 25.9375 C-19.45332378 22.07364271 -19.19248952 20.09918272 -18 16 C-15.66287066 12.85168257 -14.45852801 12.08091671 -10.546875 11.390625 C-9.29390625 11.34421875 -8.0409375 11.2978125 -6.75 11.25 C-5.48671875 11.19328125 -4.2234375 11.1365625 -2.921875 11.078125 C-1.47554687 11.03945313 -1.47554687 11.03945313 0 11 C0 9.35 0 7.7 0 6 C-2.7459726 4.6270137 -4.9589047 4.87587366 -8 5 C-8.99 5.33 -9.98 5.66 -11 6 C-11 6.66 -11 7.32 -11 8 C-12.65 8 -14.3 8 -16 8 C-15.10368306 4.98511576 -14.32087126 3.28197778 -11.9375 1.1875 C-7.9796405 -0.41248575 -4.20129481 -0.91363774 0 0 Z " fill="#373737" transform="translate(520,585)"/>
<path d="M0 0 C2.97 0.495 2.97 0.495 6 1 C6.33 1.99 6.66 2.98 7 4 C5.68 4.33 4.36 4.66 3 5 C2.03189149 23.31272185 1.83133665 41.60551479 1.79939139 59.93839049 C1.7912453 64.00754654 1.77759864 68.07668506 1.76467896 72.14582825 C1.74311351 79.16646767 1.72489827 86.18710905 1.70907402 93.20776367 C1.68619086 103.35797878 1.65807558 113.50817433 1.62875474 123.65837264 C1.58130226 140.13340508 1.53797887 156.60844561 1.49731445 173.08349609 C1.45784491 189.07080716 1.41639199 205.0581111 1.37231445 221.04541016 C1.36959018 222.03377432 1.36686591 223.02213848 1.36405908 224.04045308 C1.35037772 228.99965367 1.33665782 233.95885415 1.32291877 238.91805458 C1.20930577 279.94535477 1.10242013 320.97267043 1 362 C0.67 362 0.34 362 0 362 C0 242.54 0 123.08 0 0 Z " fill="#C4C4C3" transform="translate(236,282)"/>
<path d="M0 0 C4.44649022 2.38204833 4.44649022 2.38204833 6 5 C6.50101996 8.49114971 6.28446619 11.44417263 6 15 C0.06 15 -5.88 15 -12 15 C-11.34 17.64 -10.68 20.28 -10 23 C-6.62563814 23.33380814 -6.62563814 23.33380814 -3 23 C-1.36323743 21.0399719 -1.36323743 21.0399719 0 19 C2.6875 18.75 2.6875 18.75 5 19 C1.64516129 25.47004608 1.64516129 25.47004608 -0.75 27.4375 C-4.22650865 28.30662716 -7.4869786 28.71096862 -11 28 C-13.9375 25.5625 -13.9375 25.5625 -16 23 C-16.33 22.67 -16.66 22.34 -17 22 C-17.82898184 15.26156193 -17.42017167 10.1296484 -13.34765625 4.59375 C-9.51056571 0.05597337 -5.96624058 -1.16581712 0 0 Z " fill="#393939" transform="translate(841,585)"/>
<path d="M0 0 C0.33 0.66 0.66 1.32 1 2 C1.66 2 2.32 2 3 2 C1.56246045 5.31002696 -0.22483544 7.43889464 -2.8125 9.9375 C-3.52921875 10.63488281 -4.2459375 11.33226562 -4.984375 12.05078125 C-5.64953125 12.69402344 -6.3146875 13.33726562 -7 14 C-7.845625 14.86625 -8.69125 15.7325 -9.5625 16.625 C-11.53103138 18.54305622 -13.52105238 20.30115763 -15.625 22.0625 C-19.27567492 25.13104216 -19.27567492 25.13104216 -22 29 C-21.88042943 32.82625839 -19.62989247 34.45494277 -17 37 C-17 37.66 -17 38.32 -17 39 C-16.34 39 -15.68 39 -15 39 C-15 39.66 -15 40.32 -15 41 C-13.515 41.495 -13.515 41.495 -12 42 C-13.875 47.75 -13.875 47.75 -15 50 C-17.29577636 47.73328976 -19.58588522 45.46093591 -21.875 43.1875 C-22.52597656 42.54490234 -23.17695312 41.90230469 -23.84765625 41.24023438 C-24.78544922 40.30727539 -24.78544922 40.30727539 -25.7421875 39.35546875 C-26.3182373 38.78465576 -26.89428711 38.21384277 -27.48779297 37.62573242 C-29.74674566 35.19719416 -30.93271565 33.45952688 -31.41699219 30.15209961 C-30.86201249 25.95693396 -29.29969964 24.53931655 -26.328125 21.56640625 C-25.84929871 21.08421127 -25.37047241 20.6020163 -24.87713623 20.10520935 C-23.86545729 19.09382844 -22.84631861 18.08986114 -21.8203125 17.09301758 C-20.24937774 15.56189351 -18.71004961 14.00341131 -17.171875 12.43945312 C-16.18403932 11.45917323 -15.19451122 10.48059523 -14.203125 9.50390625 C-13.30239258 8.61517822 -12.40166016 7.7264502 -11.47363281 6.81079102 C-9 5 -9 5 -6.67480469 5.21850586 C-6.12211914 5.47639893 -5.56943359 5.73429199 -5 6 C-4.67 5.01 -4.34 4.02 -4 3 C-3.01 3 -2.02 3 -1 3 C-0.67 2.01 -0.34 1.02 0 0 Z " fill="#595959" transform="translate(116,476)"/>
<path d="M0 0 C4.40858601 2.40468328 4.40858601 2.40468328 6 5 C6.50634261 8.49109904 6.28451545 11.44355688 6 15 C-0.27 15 -6.54 15 -13 15 C-11.79321679 21.36866419 -11.79321679 21.36866419 -10 23 C-7.12635209 23.41746608 -7.12635209 23.41746608 -4 23 C-2.62689293 21.70766393 -1.28965176 20.37562854 0 19 C1.32 19 2.64 19 4 19 C3.45712148 22.80014965 1.88535357 24.53896313 -1 27 C-4.60572704 28.20190901 -7.2102435 28.32670315 -11 28 C-14.38939556 25.86320715 -15.72582557 24.8225233 -17 21 C-17.73127952 14.14275595 -17.20583127 9.53398851 -13 4 C-8.72265407 0.29296686 -5.63730231 -0.90599501 0 0 Z " fill="#2E2E2E" transform="translate(771,585)"/>
<path d="M0 0 C-0.33 2.97 -0.66 5.94 -1 9 C-0.01 9 0.98 9 2 9 C2 9.99 2 10.98 2 12 C0.68 12.33 -0.64 12.66 -2 13 C-2.50509208 15.24886238 -3.00389179 17.49913869 -3.5 19.75 C-3.7784375 21.00296875 -4.056875 22.2559375 -4.34375 23.546875 C-5.12446903 27.06912245 -5.12446903 27.06912245 -5 31 C-3.68 31.33 -2.36 31.66 -1 32 C-1.33 33.32 -1.66 34.64 -2 36 C-4.875 36.125 -4.875 36.125 -8 36 C-10 34 -10 34 -10.3125 30.6875 C-10.1896975 24.64784961 -8.49071458 18.82088551 -7 13 C-8.41279706 12.83698495 -9.83108128 12.7211203 -11.25 12.625 C-12.43335938 12.52058594 -12.43335938 12.52058594 -13.640625 12.4140625 C-16.26366356 12.82650828 -16.26366356 12.82650828 -18.15625 15.46875 C-20.29700355 19.56883731 -21.31934226 23.37427816 -22.25 27.875 C-22.42273438 28.65875 -22.59546875 29.4425 -22.7734375 30.25 C-23.19363055 32.1642128 -23.59841627 34.08179684 -24 36 C-25.32 36 -26.64 36 -28 36 C-28.25668426 30.08824064 -27.2956568 24.81854288 -26 19.0625 C-25.71382812 17.75055664 -25.71382812 17.75055664 -25.421875 16.41210938 C-24.95436066 14.27323127 -24.48028183 12.13604065 -24 10 C-21.23735711 9.40267181 -18.83967231 9 -16 9 C-15.67 8.67 -15.34 8.34 -15 8 C-13.48071962 7.92820036 -11.95832518 7.91607993 -10.4375 7.9375 C-9.61121094 7.94652344 -8.78492188 7.95554687 -7.93359375 7.96484375 C-7.29550781 7.97644531 -6.65742187 7.98804688 -6 8 C-5.896875 7.05125 -5.79375 6.1025 -5.6875 5.125 C-4.89960329 1.54365133 -3.89650761 0 0 0 Z " fill="#313131" transform="translate(809,577)"/>
<path d="M0 0 C0.9583374 0.00523682 1.9166748 0.01047363 2.90405273 0.01586914 C4.45576172 0.02070312 4.45576172 0.02070312 6.03881836 0.02563477 C7.12743164 0.03401367 8.21604492 0.04239258 9.33764648 0.05102539 C10.97636719 0.05779297 10.97636719 0.05779297 12.64819336 0.06469727 C15.35723144 0.07652713 18.06616248 0.09300996 20.77514648 0.11352539 C20.77514648 1.76352539 20.77514648 3.41352539 20.77514648 5.11352539 C14.17514648 5.11352539 7.57514648 5.11352539 0.77514648 5.11352539 C0.44514648 8.74352539 0.11514648 12.37352539 -0.22485352 16.11352539 C5.71514648 16.11352539 11.65514648 16.11352539 17.77514648 16.11352539 C17.44514648 17.76352539 17.11514648 19.41352539 16.77514648 21.11352539 C10.50514648 21.11352539 4.23514648 21.11352539 -2.22485352 21.11352539 C-2.53422852 23.38227539 -2.84360352 25.65102539 -3.16235352 27.98852539 C-4.09985352 34.86352539 -4.09985352 34.86352539 -5.22485352 37.11352539 C-6.87485352 37.11352539 -8.52485352 37.11352539 -10.22485352 37.11352539 C-10.0838623 36.41380615 -9.94287109 35.71408691 -9.79760742 34.99316406 C-9.14729962 31.76266284 -8.49856892 28.53184675 -7.84985352 25.30102539 C-7.62813477 24.20081055 -7.40641602 23.1005957 -7.17797852 21.96704102 C-5.92257264 15.70847351 -4.73055464 9.44820018 -3.66772461 3.15380859 C-3.05668523 0.33878318 -2.90966516 0.14846859 0 0 Z " fill="#535353" transform="translate(469.224853515625,574.886474609375)"/>
<path d="M0 0 C4.49535679 1.99793635 6.14889978 4.3884093 8.17956543 8.65869141 C9.63101155 12.80074417 9.49037752 16.84237753 9.390625 21.1875 C9.38496521 22.13061035 9.37930542 23.0737207 9.37347412 24.04541016 C9.35124585 27.03080978 9.3010756 30.01496874 9.25 33 C9.22991746 35.03513881 9.21166978 37.07029659 9.1953125 39.10546875 C9.15142557 44.07078391 9.08249314 49.03518227 9 54 C6.69 54 4.38 54 2 54 C1.97494385 52.78940918 1.9498877 51.57881836 1.92407227 50.33154297 C1.82965116 45.82509413 1.72951612 41.318787 1.62768555 36.8125 C1.58446764 34.86494266 1.54278369 32.91735063 1.50268555 30.96972656 C1.44466342 28.16460738 1.38106216 25.35966067 1.31640625 22.5546875 C1.29969376 21.68883026 1.28298126 20.82297302 1.26576233 19.93087769 C1.15839452 15.51456685 0.77079085 11.35985124 0 7 C0.3062434 5.66018514 0.63451555 4.32488113 1 3 C0.67 2.01 0.34 1.02 0 0 Z " fill="#3A3A3A" transform="translate(668,494)"/>
<path d="M0 0 C1.65 0 3.3 0 5 0 C4.86722656 0.60585938 4.73445312 1.21171875 4.59765625 1.8359375 C3.32432636 7.87728368 2.49744596 13.84737892 2 20 C3.29243468 18.8758824 4.58392075 17.75067408 5.875 16.625 C6.59429688 15.99851562 7.31359375 15.37203125 8.0546875 14.7265625 C9.4076598 13.52573166 10.7208345 12.2791655 12 11 C14.625 10.875 14.625 10.875 17 11 C17 11.66 17 12.32 17 13 C15.67801832 14.12238269 14.31713863 15.19929751 12.9375 16.25 C10.73506874 18.06017645 10.73506874 18.06017645 9 20 C8.75816697 23.86932843 10.02882629 26.066877 11.5625 29.625 C13 33 13 33 13 37 C11.68 37 10.36 37 9 37 C8.3291288 35.3767313 7.66342971 33.75132422 7 32.125 C6.62875 31.22007812 6.2575 30.31515625 5.875 29.3828125 C5 27 5 27 5 25 C2.02877247 26.2045517 0.34472323 27.24053164 -1 30.203125 C-1.73674598 32.45586752 -2.40824692 34.70515269 -3 37 C-4.32 37 -5.64 37 -7 37 C-6.46580429 28.98008785 -5.19716477 21.28809934 -3.5 13.4375 C-3.27441406 12.35919922 -3.04882812 11.28089844 -2.81640625 10.16992188 C-1.14405841 2.28811682 -1.14405841 2.28811682 0 0 Z " fill="#313131" transform="translate(536,575)"/>
<path d="M0 0 C1.32 0 2.64 0 4 0 C2.46013476 5.37241872 -0.00825589 9.92335634 -2.75 14.75 C-3.19811035 15.5455127 -3.6462207 16.34102539 -4.10791016 17.16064453 C-5.39856485 19.4443255 -6.69776004 21.72291053 -8 24 C-8.61101562 25.07507813 -9.22203125 26.15015625 -9.8515625 27.2578125 C-12.23015561 31.34411349 -14.37959033 34.87895718 -18 38 C-21.25 38.25 -21.25 38.25 -24 38 C-23.8125 35.625 -23.8125 35.625 -23 33 C-20.5 31.75 -20.5 31.75 -18 31 C-16.25183649 29.25183649 -16.82748158 26.8730822 -16.8125 24.5 C-16.84042422 19.78639106 -17.37512199 15.65710051 -18.5546875 11.11328125 C-19.27139496 7.71206428 -19.1259578 4.46383962 -19 1 C-17.68 1 -16.36 1 -15 1 C-13.68 6.94 -12.36 12.88 -11 19 C-10.28972656 17.71222656 -9.57945312 16.42445313 -8.84765625 15.09765625 C-7.91935996 13.41922154 -6.99096969 11.7408388 -6.0625 10.0625 C-5.59392578 9.21236328 -5.12535156 8.36222656 -4.64257812 7.48632812 C-3.9706543 6.27299805 -3.9706543 6.27299805 -3.28515625 5.03515625 C-2.87144775 4.2862915 -2.45773926 3.53742676 -2.03149414 2.76586914 C-1 1 -1 1 0 0 Z " fill="#414141" transform="translate(442,585)"/>
<path d="M0 0 C1.65 0 3.3 0 5 0 C5.13277344 1.03640625 5.26554688 2.0728125 5.40234375 3.140625 C5.58060639 4.51043265 5.75899862 5.88022344 5.9375 7.25 C6.02451172 7.93191406 6.11152344 8.61382813 6.20117188 9.31640625 C6.63255149 12.60767292 7.15460153 15.79182119 8 19 C8.55429687 17.87980469 9.10859375 16.75960937 9.6796875 15.60546875 C10.41135191 14.13275962 11.14312861 12.66010628 11.875 11.1875 C12.23980469 10.44951172 12.60460937 9.71152344 12.98046875 8.95117188 C13.33496094 8.23896484 13.68945312 7.52675781 14.0546875 6.79296875 C14.37937012 6.1383667 14.70405273 5.48376465 15.03857422 4.80932617 C16 3 16 3 18 0 C20.625 -0.1875 20.625 -0.1875 23 0 C19.07135711 8.21931089 14.84329009 16.22175258 10.3125 24.125 C9.84932373 24.94202393 9.38614746 25.75904785 8.90893555 26.60083008 C4.44122236 34.31311657 4.44122236 34.31311657 1 37 C-2.25 37.25 -2.25 37.25 -5 37 C-4.8125 34.625 -4.8125 34.625 -4 32 C-1.5 30.75 -1.5 30.75 1 30 C2.81566671 28.18433329 2.17336216 25.44301931 2.1875 23 C2.1606071 18.08397812 1.68903116 13.75011168 0.4453125 9.01171875 C-0.23011371 5.96045124 -0.13246499 3.11292732 0 0 Z " fill="#373737" transform="translate(557,586)"/>
<path d="M0 0 C3.50343434 0.80458619 5.10987643 2.65215722 7.16015625 5.49609375 C7.16015625 6.48609375 7.16015625 7.47609375 7.16015625 8.49609375 C5.84015625 8.82609375 4.52015625 9.15609375 3.16015625 9.49609375 C2.50015625 8.17609375 1.84015625 6.85609375 1.16015625 5.49609375 C-1.14984375 5.49609375 -3.45984375 5.49609375 -5.83984375 5.49609375 C-5.83984375 6.81609375 -5.83984375 8.13609375 -5.83984375 9.49609375 C-3.6679278 11.27061124 -3.6679278 11.27061124 -0.90234375 12.68359375 C4.16015625 15.49609375 4.16015625 15.49609375 5.16015625 16.49609375 C5.75004389 22.74890274 5.75004389 22.74890274 3.28515625 25.87109375 C-0.90267031 29.07354935 -4.69763457 29.12665826 -9.83984375 28.49609375 C-12.83984375 26.87109375 -12.83984375 26.87109375 -14.83984375 24.49609375 C-15.65234375 21.24609375 -15.65234375 21.24609375 -15.83984375 18.49609375 C-14.18984375 18.49609375 -12.53984375 18.49609375 -10.83984375 18.49609375 C-10.50984375 20.14609375 -10.17984375 21.79609375 -9.83984375 23.49609375 C-6.86984375 23.49609375 -3.89984375 23.49609375 -0.83984375 23.49609375 C-0.50984375 22.17609375 -0.17984375 20.85609375 0.16015625 19.49609375 C-0.53851562 19.08617187 -1.2371875 18.67625 -1.95703125 18.25390625 C-2.86710938 17.71507812 -3.7771875 17.17625 -4.71484375 16.62109375 C-6.07222656 15.82058594 -6.07222656 15.82058594 -7.45703125 15.00390625 C-9.83984375 13.49609375 -9.83984375 13.49609375 -11.83984375 11.49609375 C-12.45222359 7.55936623 -12.14761809 5.95279116 -9.90234375 2.62109375 C-6.31972236 0.13519319 -4.27458697 -0.23549477 0 0 Z " fill="#3A3A3A" transform="translate(866.83984375,584.50390625)"/>
<path d="M0 0 C2.16015625 1.21875 2.16015625 1.21875 4 3 C5.73980216 10.86335781 3.0235461 19.42374703 1 27 C-0.65 27 -2.3 27 -4 27 C-3.7834375 25.99839844 -3.566875 24.99679687 -3.34375 23.96484375 C-3.06213368 22.62247263 -2.78090434 21.28002029 -2.5 19.9375 C-2.35691406 19.28072266 -2.21382812 18.62394531 -2.06640625 17.94726562 C-1.16047545 13.56860012 -0.85968854 9.49581296 -1 5 C-5.29512693 4.60335704 -5.29512693 4.60335704 -9.0625 6.4375 C-11.83092234 10.0989618 -12.40163015 13.79953523 -13.25 18.25 C-13.50910156 19.51070312 -13.50910156 19.51070312 -13.7734375 20.796875 C-14.19582121 22.86186204 -14.5997475 24.93060941 -15 27 C-16.65 27 -18.3 27 -20 27 C-19.3567559 21.49531492 -18.53169401 16.06948422 -17.5 10.625 C-17.36980469 9.91472656 -17.23960937 9.20445312 -17.10546875 8.47265625 C-16.12397891 3.24795783 -16.12397891 3.24795783 -15 1 C-13.68 1 -12.36 1 -11 1 C-10.67 1.66 -10.34 2.32 -10 3 C-9.195625 2.2575 -9.195625 2.2575 -8.375 1.5 C-5.31754465 -0.43102443 -3.561827 -0.44522837 0 0 Z " fill="#3B3B3B" transform="translate(599,585)"/>
<path d="M0 0 C6.6 0 13.2 0 20 0 C18.91904072 4.32383711 17.64591075 5.95702027 14.8125 9.3125 C14.00554688 10.27414062 13.19859375 11.23578125 12.3671875 12.2265625 C11.58601562 13.14179687 10.80484375 14.05703125 10 15 C9.04480469 16.12535156 9.04480469 16.12535156 8.0703125 17.2734375 C6.72090962 18.85527341 5.36173478 20.42876756 4 22 C8.62 22 13.24 22 18 22 C17.67 23.65 17.34 25.3 17 27 C10.07 27 3.14 27 -4 27 C-1.73393114 17.93572454 6.84878595 10.71901842 13 4 C8.71 3.67 4.42 3.34 0 3 C0 2.01 0 1.02 0 0 Z " fill="#606060" transform="translate(610,586)"/>
<path d="M0 0 C1.21236328 0.01353516 1.21236328 0.01353516 2.44921875 0.02734375 C3.37154297 0.04474609 3.37154297 0.04474609 4.3125 0.0625 C4.39326963 2.52148655 4.45287143 4.97783742 4.5 7.4375 C4.52513672 8.13617188 4.55027344 8.83484375 4.57617188 9.5546875 C4.60546875 11.5859375 4.60546875 11.5859375 4.3125 15.0625 C0.08556373 17.88045751 -3.72431892 17.85043546 -8.6875 17.0625 C-11.81887045 14.52758106 -12.51404449 12.98759607 -13.25 9.0625 C-12.49674535 5.04514186 -10.81246313 3.60607464 -7.6875 1.0625 C-4.80538698 0.10179566 -2.98899956 -0.04331883 0 0 Z " fill="#EFEFEF" transform="translate(532.6875,420.9375)"/>
<path d="M0 0 C0.33 0 0.66 0 1 0 C1.02505615 0.86052979 1.0501123 1.72105957 1.07592773 2.60766602 C1.17251572 5.87873523 1.27162969 9.14970954 1.37231445 12.4206543 C1.41495327 13.82166671 1.45665799 15.22270795 1.49731445 16.6237793 C1.70928032 23.90650783 1.9862623 31.16228731 2.52734375 38.4296875 C3.11405975 46.81440245 3.1513261 55.16192624 3.125 63.5625 C3.12411377 64.38508301 3.12322754 65.20766602 3.12231445 66.05517578 C3.09191511 90.70670483 2.52536715 115.35504381 2 140 C1.34 140.33 0.68 140.66 0 141 C0 94.47 0 47.94 0 0 Z " fill="#3C3C3C" transform="translate(237,502)"/>
<path d="M0 0 C3.0625 0.3125 3.0625 0.3125 4.7265625 1.53125 C6.92900995 4.4678466 6.52447766 7.24380408 6.42578125 10.796875 C5.87875426 14.58488985 4.56300323 16.44427571 2.0625 19.3125 C-0.76633747 20.72691874 -2.81126745 20.63150332 -5.9375 20.3125 C-8.90927572 17.93507942 -8.94614592 16.23592182 -9.375 12.4375 C-9.17593654 6.82181504 -5.89324772 0.62694125 0 0 Z " fill="#F7F7F7" transform="translate(710.9375,588.6875)"/>
<path d="M0 0 C1.0725 0.33 2.145 0.66 3.25 1 C4.97544052 4.45088104 4.61851655 8.21952848 4.25 12 C2.90784949 15.35537627 1.79210798 17.45789202 -0.75 20 C-3.75 20.25 -3.75 20.25 -6.75 20 C-9.39824509 17.35175491 -9.10941487 15.94296725 -9.1875 12.25 C-9.11222489 8.34039877 -9.00504042 5.41223552 -6.6875 2.1875 C-3.75 0 -3.75 0 0 0 Z " fill="#F8F8F7" transform="translate(740.75,589)"/>
<path d="M0 0 C2.45862401 -0.05383848 4.9160755 -0.09359038 7.375 -0.125 C8.42300781 -0.15013672 8.42300781 -0.15013672 9.4921875 -0.17578125 C11.32897486 -0.19344267 13.16601963 -0.10303261 15 0 C17 2 17 2 17.3125 4.875 C16.96903084 8.30969162 16.41312854 9.58687146 14 12 C10.57767028 13.14077657 7.91326783 13.09815117 4.3125 13.0625 C2.54326172 13.04896484 2.54326172 13.04896484 0.73828125 13.03515625 C-0.16535156 13.02355469 -1.06898438 13.01195312 -2 13 C-1.39172088 8.65514916 -0.72918276 4.32607587 0 0 Z " fill="#F7F7F7" transform="translate(658,580)"/>
<path d="M0 0 C2.10353495 -0.0810206 4.20795952 -0.13919907 6.3125 -0.1875 C7.48425781 -0.22230469 8.65601563 -0.25710938 9.86328125 -0.29296875 C13 0 13 0 14.890625 1.328125 C16.65267427 3.98360771 16.44272216 5.90094491 16 9 C14.42578125 11.17578125 14.42578125 11.17578125 12 13 C8.546875 13.390625 8.546875 13.390625 4.75 13.25 C3.48671875 13.21390625 2.2234375 13.1778125 0.921875 13.140625 C-0.52445312 13.07101562 -0.52445312 13.07101562 -2 13 C-1.85915204 11.20793453 -1.71216299 9.41635083 -1.5625 7.625 C-1.48128906 6.62726562 -1.40007812 5.62953125 -1.31640625 4.6015625 C-1 2 -1 2 0 0 Z " fill="#F5F5F5" transform="translate(395,595)"/>
<path d="M0 0 C2.75 0.5625 2.75 0.5625 4.015625 2.2421875 C4.8518826 3.6871136 5.68512733 5.13378686 6.515625 6.58203125 C8.25435634 9.37170464 9.65603917 10.43742333 12.75 11.5625 C17.84210553 12.05376064 22.7430242 11.58957196 27.75 10.5625 C27.75 11.2225 27.75 11.8825 27.75 12.5625 C26.76 12.8925 25.77 13.2225 24.75 13.5625 C23.08289654 15.06235609 23.08289654 15.06235609 21.75 16.5625 C22.41 17.2225 23.07 17.8825 23.75 18.5625 C15.18330267 19.08432928 7.95463093 18.89345188 1.12109375 13.20703125 C-2.21861436 9.6579967 -3.06260616 6.34104302 -3.25 1.5625 C-2.25 0.5625 -2.25 0.5625 0 0 Z " fill="#3E3E3E" transform="translate(832.25,530.4375)"/>
<path d="M0 0 C1.32 0 2.64 0 4 0 C2.33820449 12.13424269 -0.12680177 24.09966123 -3 36 C-5.475 36.495 -5.475 36.495 -8 37 C-7.23351674 29.40223472 -5.6124439 22.02005303 -4 14.5625 C-3.72671875 13.27150391 -3.4534375 11.98050781 -3.171875 10.65039062 C-2.90890625 9.42642578 -2.6459375 8.20246094 -2.375 6.94140625 C-2.13523437 5.82451416 -1.89546875 4.70762207 -1.6484375 3.55688477 C-1 1 -1 1 0 0 Z " fill="#363636" transform="translate(497,575)"/>
<path d="M0 0 C1.23556641 0.01740234 1.23556641 0.01740234 2.49609375 0.03515625 C3.32238281 0.04417969 4.14867187 0.05320312 5 0.0625 C5.63808594 0.07410156 6.27617188 0.08570313 6.93359375 0.09765625 C4.95359375 1.08765625 4.95359375 1.08765625 2.93359375 2.09765625 C2.93359375 2.75765625 2.93359375 3.41765625 2.93359375 4.09765625 C3.92359375 4.42765625 4.91359375 4.75765625 5.93359375 5.09765625 C5.3303125 5.02804687 4.72703125 4.9584375 4.10546875 4.88671875 C3.30625 4.83257813 2.50703125 4.7784375 1.68359375 4.72265625 C0.8946875 4.65304687 0.10578125 4.5834375 -0.70703125 4.51171875 C-3.33006981 4.92416453 -3.33006981 4.92416453 -5.22265625 7.56640625 C-7.3634098 11.66649356 -8.38574851 15.47193441 -9.31640625 19.97265625 C-9.48914063 20.75640625 -9.661875 21.54015625 -9.83984375 22.34765625 C-10.2600368 24.26186905 -10.66482252 26.17945309 -11.06640625 28.09765625 C-12.38640625 28.09765625 -13.70640625 28.09765625 -15.06640625 28.09765625 C-15.32309051 22.18589689 -14.36206305 16.91619913 -13.06640625 11.16015625 C-12.875625 10.28552734 -12.68484375 9.41089844 -12.48828125 8.50976562 C-12.02076691 6.37088752 -11.54668808 4.2336969 -11.06640625 2.09765625 C-8.30376336 1.50032806 -5.90607856 1.09765625 -3.06640625 1.09765625 C-2.06640625 0.09765625 -2.06640625 0.09765625 0 0 Z " fill="#2B2B2B" transform="translate(796.06640625,584.90234375)"/>
<path d="M0 0 C0.7425 0.0825 1.485 0.165 2.25 0.25 C2.25 1.9 2.25 3.55 2.25 5.25 C1.156875 5.476875 0.06375 5.70375 -1.0625 5.9375 C-4.76617885 6.88277185 -4.76617885 6.88277185 -6.375 9.34375 C-8.02597794 12.833317 -8.77684531 16.28990903 -9.4375 20.0625 C-9.56705078 20.75537109 -9.69660156 21.44824219 -9.83007812 22.16210938 C-10.14557559 23.85644764 -10.44902647 25.55302158 -10.75 27.25 C-12.4 27.58 -14.05 27.91 -15.75 28.25 C-15.16117785 18.97605107 -12.99113144 10.2353735 -10.75 1.25 C-9.43 1.25 -8.11 1.25 -6.75 1.25 C-6.75 2.24 -6.75 3.23 -6.75 4.25 C-6.193125 3.59 -5.63625 2.93 -5.0625 2.25 C-2.75 0.25 -2.75 0.25 0 0 Z " fill="#393939" transform="translate(695.75,584.75)"/>
<path d="M0 0 C2.12472576 -0.05386629 4.24983652 -0.09273071 6.375 -0.125 C7.55835938 -0.14820313 8.74171875 -0.17140625 9.9609375 -0.1953125 C13 0 13 0 15 2 C14.85938584 5.30443272 14.70775391 7.28560051 12.3359375 9.6796875 C9.3078732 11.39120211 7.20469646 11.30015315 3.75 11.1875 C2.13351562 11.14689453 2.13351562 11.14689453 0.484375 11.10546875 C-0.33546875 11.07066406 -1.1553125 11.03585937 -2 11 C-1.85892253 9.54119891 -1.71197585 8.08296449 -1.5625 6.625 C-1.48128906 5.81289063 -1.40007812 5.00078125 -1.31640625 4.1640625 C-1 2 -1 2 0 0 Z " fill="#F7F7F7" transform="translate(398,580)"/>
<path d="M0 0 C7.1528877 -0.47335286 13.11996095 -0.49650045 19 4 C21.61025477 7.06704936 22.90048203 8.85554335 23.25 12.875 C23.1675 13.57625 23.085 14.2775 23 15 C20.69 15 18.38 15 16 15 C15.79375 14.2575 15.5875 13.515 15.375 12.75 C13.52480405 9.04960809 11.65907083 7.89729599 8 6 C5.29810806 5.41685786 2.77125594 5.1911211 0 5 C0.66 4.67 1.32 4.34 2 4 C2 3.34 2 2.68 2 2 C1.34 1.34 0.68 0.68 0 0 Z " fill="#343434" transform="translate(846,493)"/>
<path d="M0 0 C0.33 0 0.66 0 1 0 C0.67 3.3 0.34 6.6 0 10 C3.63 10 7.26 10 11 10 C11 10.99 11 11.98 11 13 C7.04 13 3.08 13 -1 13 C-1.309375 14.8975 -1.61875 16.795 -1.9375 18.75 C-2.50163573 22.21003249 -3.08767571 25.61371526 -4 29 C-5.65 29 -7.3 29 -9 29 C-8.1774785 21.46021962 -7.14687988 13.96809117 -4 7 C-3.01 7.33 -2.02 7.66 -1 8 C-0.67 5.36 -0.34 2.72 0 0 Z " fill="#2E2E2F" transform="translate(656,584)"/>
<path d="M0 0 C0.66 0 1.32 0 2 0 C2.33 0.66 2.66 1.32 3 2 C3.99 2 4.98 2 6 2 C5.75873283 5.25710685 4.79730672 6.20269328 2.4375 8.5625 C-4.25686021 13.71445418 -10.72552894 14.45780885 -19 14 C-17.68 13.34 -16.36 12.68 -15 12 C-15 11.01 -15 10.02 -15 9 C-15.99 8.34 -16.98 7.68 -18 7 C-16.67935547 6.87044922 -16.67935547 6.87044922 -15.33203125 6.73828125 C-7.88315236 6.17643976 -7.88315236 6.17643976 -1.8125 2.375 C-1.214375 1.59125 -0.61625 0.8075 0 0 Z " fill="#3F3F3F" transform="translate(541,535)"/>
<path d="M0 0 C0.9583374 0.00523682 1.9166748 0.01047363 2.90405273 0.01586914 C4.45576172 0.02070312 4.45576172 0.02070312 6.03881836 0.02563477 C7.12743164 0.03401367 8.21604492 0.04239258 9.33764648 0.05102539 C10.97636719 0.05779297 10.97636719 0.05779297 12.64819336 0.06469727 C15.35723144 0.07652713 18.06616248 0.09300996 20.77514648 0.11352539 C20.77514648 1.76352539 20.77514648 3.41352539 20.77514648 5.11352539 C14.17514648 5.11352539 7.57514648 5.11352539 0.77514648 5.11352539 C0.77514648 6.76352539 0.77514648 8.41352539 0.77514648 10.11352539 C0.44514648 9.45352539 0.11514648 8.79352539 -0.22485352 8.11352539 C-2.20485352 9.10352539 -2.20485352 9.10352539 -4.22485352 10.11352539 C-4.08435834 8.63384215 -3.93730525 7.15478023 -3.78735352 5.67602539 C-3.70614258 4.85231445 -3.62493164 4.02860352 -3.54125977 3.17993164 C-3.102823 0.31656064 -2.915147 0.14874831 0 0 Z " fill="#595959" transform="translate(469.224853515625,574.886474609375)"/>
<path d="M0 0 C0.33 0 0.66 0 1 0 C1.05447047 1.41623216 1.09300508 2.83308191 1.125 4.25 C1.14820313 5.03890625 1.17140625 5.8278125 1.1953125 6.640625 C0.9828378 9.20731941 0.28654105 10.7916067 -1 13 C-2.65 12.67 -4.3 12.34 -6 12 C-6.309375 12.639375 -6.61875 13.27875 -6.9375 13.9375 C-8 16 -8 16 -9 17 C-12.4375 17.25 -12.4375 17.25 -16 17 C-18 14 -18 14 -18 8 C-12.06 8 -6.12 8 0 8 C0 5.36 0 2.72 0 0 Z " fill="#EBEBEB" transform="translate(847,592)"/>
<path d="M0 0 C6.6 0 13.2 0 20 0 C18.9034947 4.38602119 17.48557542 6.19045799 14.625 9.625 C13.43777344 11.06746094 13.43777344 11.06746094 12.2265625 12.5390625 C10 15 10 15 7 17 C6.34 15.68 5.68 14.36 5 13 C7.64 10.03 10.28 7.06 13 4 C8.71 3.67 4.42 3.34 0 3 C0 2.01 0 1.02 0 0 Z " fill="#303030" transform="translate(610,586)"/>
<path d="M0 0 C6.27 0 12.54 0 19 0 C18.34 0.66 17.68 1.32 17 2 C17 2.99 17 3.98 17 5 C15.68 5 14.36 5 13 5 C12.071875 5.99 12.071875 5.99 11.125 7 C9 9 9 9 5.9375 9.5 C3 9 3 9 1.125 7.3125 C0 5 0 5 0 0 Z " fill="#EAE9EA" transform="translate(758,600)"/>
<path d="M0 0 C1.65 0 3.3 0 5 0 C4.3581369 3.93815795 3.71083121 7.87540214 3.0625 11.8125 C2.88009766 12.93205078 2.69769531 14.05160156 2.50976562 15.20507812 C2.33251953 16.27822266 2.15527344 17.35136719 1.97265625 18.45703125 C1.81031494 19.44678955 1.64797363 20.43654785 1.48071289 21.45629883 C1 24 1 24 0 27 C-1.32 27 -2.64 27 -4 27 C-4.23341328 20.69784145 -3.39477733 15.13513544 -2 9 C-1.80921875 8.12988281 -1.6184375 7.25976562 -1.421875 6.36328125 C-0.95533903 4.2405426 -0.47871537 2.12002519 0 0 Z " fill="#393939" transform="translate(816,586)"/>
<path d="M0 0 C4.93964062 3.17076485 8.48673831 3.9370722 14.3125 4.125 C14.3125 4.455 14.3125 4.785 14.3125 5.125 C12.3325 5.455 10.3525 5.785 8.3125 6.125 C9.3025 7.61 9.3025 7.61 10.3125 9.125 C4.44875749 9.43361803 0.59927207 9.01776207 -4.6875 6.125 C-7.625 3.4375 -7.625 3.4375 -9.6875 1.125 C-9.3575 0.135 -9.0275 -0.855 -8.6875 -1.875 C-4.96277168 -3.70036355 -3.19235762 -2.23105186 0 0 Z " fill="#323232" transform="translate(517.6875,538.875)"/>
<path d="M0 0 C2 2 2 2 2.23046875 4.78515625 C2.21628906 5.86667969 2.20210937 6.94820313 2.1875 8.0625 C2.18105469 9.14660156 2.17460937 10.23070312 2.16796875 11.34765625 C2 14 2 14 1 15 C0.87476921 17.82960718 0.81390772 20.63599337 0.79467773 23.46704102 C0.78477814 24.35476196 0.77487854 25.24248291 0.76467896 26.15710449 C0.73296516 29.10601082 0.70826766 32.05493329 0.68359375 35.00390625 C0.66303274 37.0427239 0.64203651 39.08153721 0.62062073 41.12034607 C0.5653119 46.49779755 0.51594162 51.87528806 0.46777344 57.25280762 C0.41762258 62.73563121 0.36190311 68.21839784 0.30664062 73.70117188 C0.19895135 84.4673993 0.09753046 95.2336761 0 106 C-0.33 106 -0.66 106 -1 106 C-1.023233 93.80352019 -1.04097077 81.6070457 -1.05181217 69.41054821 C-1.0570171 63.74642845 -1.06407108 58.0823239 -1.07543945 52.41821289 C-1.08635359 46.94578719 -1.09229483 41.47337607 -1.09487724 36.00094032 C-1.09671618 33.91950565 -1.10030702 31.83807172 -1.10573006 29.7566433 C-1.1581055 8.80959552 -1.1581055 8.80959552 0 0 Z " fill="#F0F0EF" transform="translate(194,322)"/>
<path d="M0 0 C0.66 0 1.32 0 2 0 C3.04892238 1.63631892 4.04906703 3.30485863 5 5 C6.09923541 6.30746709 6.09923541 6.30746709 8.8125 6.3125 C12.71392803 5.93000706 13.40108246 4.77217871 16 2 C17.32 2 18.64 2 20 2 C19.45712148 5.80014965 17.88535357 7.53896313 15 10 C11.39427296 11.20190901 8.7897565 11.32670315 5 11 C2.125 9.375 2.125 9.375 0 7 C-0.875 3.8125 -0.875 3.8125 -1 1 C-0.67 0.67 -0.34 0.34 0 0 Z " fill="#393839" transform="translate(755,602)"/>
<path d="M0 0 C1.65 0 3.3 0 5 0 C4.68872484 1.58357459 4.37592711 3.16684993 4.0625 4.75 C3.88847656 5.63171875 3.71445312 6.5134375 3.53515625 7.421875 C3.2113908 8.98162097 2.85153891 10.53526788 2.42578125 12.0703125 C1.9593531 14.18421622 2.00203719 15.96905204 2.125 18.125 C2.08375 19.40375 2.0425 20.6825 2 22 C1.01 22.66 0.02 23.32 -1 24 C-0.67 22.35 -0.34 20.7 0 19 C-1.32 19.33 -2.64 19.66 -4 20 C-3.7155186 17.79072956 -3.4220904 15.58261021 -3.125 13.375 C-2.96257813 12.14523437 -2.80015625 10.91546875 -2.6328125 9.6484375 C-2.04516311 6.26038483 -1.18011878 3.22301349 0 0 Z " fill="#434343" transform="translate(536,575)"/>
<path d="M0 0 C0.33 0 0.66 0 1 0 C1.66 2.64 2.32 5.28 3 8 C6.37436186 8.33380814 6.37436186 8.33380814 10 8 C11.63676257 6.0399719 11.63676257 6.0399719 13 4 C15.6875 3.75 15.6875 3.75 18 4 C14.64516129 10.47004608 14.64516129 10.47004608 12.25 12.4375 C8.77453482 13.30636629 5.51138644 13.71618377 2 13 C-1 10.5 -1 10.5 -3 8 C-2.01 5.36 -1.02 2.72 0 0 Z " fill="#4A4A4B" transform="translate(828,600)"/>
<path d="M0 0 C8.81299886 -0.44811859 8.81299886 -0.44811859 13 3 C14.86974095 6.01236042 15.22846849 8.23207128 15.125 11.75 C15.10695313 12.54921875 15.08890625 13.3484375 15.0703125 14.171875 C15.03550781 15.07679688 15.03550781 15.07679688 15 16 C13.02 16.99 13.02 16.99 11 18 C9.18884044 16.18884044 9.61800552 13.38721773 9.4375 10.9375 C9.35371094 9.83277344 9.26992188 8.72804688 9.18359375 7.58984375 C9.12300781 6.73519531 9.06242188 5.88054688 9 5 C6.03 4.505 6.03 4.505 3 4 C3.66 3.67 4.32 3.34 5 3 C5 2.34 5 1.68 5 1 C3.35 1 1.7 1 0 1 C0 0.67 0 0.34 0 0 Z " fill="#373737" transform="translate(707,585)"/>
<path d="M0 0 C0.90105469 0.02707031 1.80210937 0.05414062 2.73046875 0.08203125 C3.76107422 0.13423828 3.76107422 0.13423828 4.8125 0.1875 C3.1875 6.9375 3.1875 6.9375 -0.1875 9.1875 C-3.8125 9.375 -3.8125 9.375 -7.1875 9.1875 C-8.1875 8.1875 -8.1875 8.1875 -8.4375 5.8125 C-8.1875 3.1875 -8.1875 3.1875 -6.99609375 1.53515625 C-4.56251223 -0.27820363 -2.99915581 -0.11685023 0 0 Z " fill="#F5F5F4" transform="translate(514.1875,599.8125)"/>
<path d="M0 0 C7.87155963 -0.60550459 7.87155963 -0.60550459 11.5625 1.375 C13.84762396 5.54783505 13.24778453 9.29209397 13 14 C7.39 13.67 1.78 13.34 -4 13 C-4 12.34 -4 11.68 -4 11 C0.29 11 4.58 11 9 11 C8.34 8.03 7.68 5.06 7 2 C4.69 1.67 2.38 1.34 0 1 C0 0.67 0 0.34 0 0 Z " fill="#303030" transform="translate(834,586)"/>
<path d="M0 0 C0 0.66 0 1.32 0 2 C-0.928125 2.598125 -1.85625 3.19625 -2.8125 3.8125 C-6.17202585 6.11805696 -7.43336221 7.28954208 -9 11 C-9.51388133 13.99260304 -9.80861214 16.97079219 -10 20 C-10.66 19.34 -11.32 18.68 -12 18 C-12.66 18.33 -13.32 18.66 -14 19 C-14.46747982 12.42931136 -14.47616445 8.24350693 -10 3 C-9.566875 2.38125 -9.13375 1.7625 -8.6875 1.125 C-5.93940904 -0.70706064 -3.19562441 -0.1808844 0 0 Z " fill="#373737" transform="translate(712,586)"/>
<path d="M0 0 C2 2 2 2 2 8 C-2.62 8 -7.24 8 -12 8 C-9.11575223 0.78938057 -7.94645582 -0.72240507 0 0 Z " fill="#ECECEC" transform="translate(771,589)"/>
<path d="M0 0 C1.875 1.1875 1.875 1.1875 3 3 C3 4.65 3 6.3 3 8 C-1.29 8 -5.58 8 -10 8 C-9 3 -9 3 -7.8125 1.1875 C-5.11075568 -0.58260835 -3.15326426 -0.39415803 0 0 Z " fill="#F1F1F0" transform="translate(840,589)"/>
<path d="M0 0 C1.65 0.33 3.3 0.66 5 1 C4.46658977 5.53398697 2.69245939 8.35726083 0 12 C-0.45375 12.61875 -0.9075 13.2375 -1.375 13.875 C-3.84877359 15.58761248 -6.08211895 15.1945254 -9 15 C-8.8125 12.625 -8.8125 12.625 -8 10 C-5.5625 8.875 -5.5625 8.875 -3 8 C-1.0549 5.08235 -0.54723683 3.37462715 0 0 Z " fill="#424242" transform="translate(561,608)"/>
<path d="M0 0 C0.66 0.33 1.32 0.66 2 1 C1.67 4.3 1.34 7.6 1 11 C2.32 11.33 3.64 11.66 5 12 C4.67 13.32 4.34 14.64 4 16 C1.125 16.125 1.125 16.125 -2 16 C-4 14 -4 14 -4.1875 10.1875 C-4.11266813 7.02729249 -3.76920251 4.07681004 -3 1 C-2.01 0.67 -1.02 0.34 0 0 Z " fill="#363636" transform="translate(803,597)"/>
<path d="M0 0 C3.83473284 -0.35671933 5.55342875 -0.29771416 8.8125 1.875 C11.22747889 4.22097949 11.96092986 5.04668849 12.09765625 8.3828125 C12.08605469 9.28773438 12.07445312 10.19265625 12.0625 11.125 C12.05347656 12.03507813 12.04445313 12.94515625 12.03515625 13.8828125 C12.02355469 14.58148437 12.01195312 15.28015625 12 16 C10 16 10 16 8.4375 15 C6.19187539 11.87565271 6.31165434 8.80218292 6 5 C4.35 4.67 2.7 4.34 1 4 C1.66 3.34 2.32 2.68 3 2 C2.01 1.34 1.02 0.68 0 0 Z " fill="#444444" transform="translate(738,585)"/>
<path d="M0 0 C0.33 0.99 0.66 1.98 1 3 C8.92 2.505 8.92 2.505 17 2 C17.33 2.99 17.66 3.98 18 5 C17 6 17 6 14.95874023 6.11352539 C14.08419189 6.10828857 13.20964355 6.10305176 12.30859375 6.09765625 C11.36435547 6.09443359 10.42011719 6.09121094 9.44726562 6.08789062 C8.45404297 6.07951172 7.46082031 6.07113281 6.4375 6.0625 C5.44041016 6.05798828 4.44332031 6.05347656 3.41601562 6.04882812 C0.94395151 6.03700007 -1.52799518 6.02051849 -4 6 C-4 4.68 -4 3.36 -4 2 C-2.68 1.34 -1.36 0.68 0 0 Z " fill="#292929" transform="translate(391,606)"/>
<path d="M0 0 C2.89740622 -0.13539281 5.78845621 -0.23426829 8.6875 -0.3125 C9.50412109 -0.35439453 10.32074219 -0.39628906 11.16210938 -0.43945312 C15.67197805 -0.53074601 17.39474402 -0.49250454 21.01953125 2.45703125 C21.67308594 3.29621094 22.32664062 4.13539063 23 5 C23.33 5.33 23.66 5.66 24 6 C24.04080783 7.99958364 24.04254356 10.00045254 24 12 C23.34 12 22.68 12 22 12 C22 10.02 22 8.04 22 6 C21.67 6.66 21.34 7.32 21 8 C20.47921875 7.68289063 19.9584375 7.36578125 19.421875 7.0390625 C16.32591291 5.71079489 13.60595879 5.57635753 10.25 5.375 C9.07953125 5.30023437 7.9090625 5.22546875 6.703125 5.1484375 C5.81109375 5.09945312 4.9190625 5.05046875 4 5 C4 4.67 4 4.34 4 4 C9.445 3.505 9.445 3.505 15 3 C15 2.67 15 2.34 15 2 C10.05 1.67 5.1 1.34 0 1 C0 0.67 0 0.34 0 0 Z " fill="#585859" transform="translate(394,575)"/>
<path d="M0 0 C-0.625 1.875 -0.625 1.875 -2 4 C-3.99571323 4.67939174 -5.99594773 5.34561559 -8 6 C-9.03647024 7.30518475 -10.04422943 8.63461347 -11 10 C-11.99 10 -12.98 10 -14 10 C-14.33 11.32 -14.66 12.64 -15 14 C-15.66 14 -16.32 14 -17 14 C-16.61104749 8.55466487 -14.7851047 5.87313039 -11 2 C-7.53571026 -0.54047914 -4.18972863 -0.16114341 0 0 Z " fill="#404040" transform="translate(771,585)"/>
<path d="M0 0 C0.99 0 1.98 0 3 0 C3.8125 2 3.8125 2 4 5 C2.34859485 8.51419016 0.55035599 12.22482201 -3 14 C-5.6723621 14.13415472 -8.32250488 14.04318541 -11 14 C-10 12 -10 12 -7.1875 10.9375 C-2.73581612 8.2315745 -1.70175932 4.77493644 0 0 Z " fill="#3C3C3C" transform="translate(745,598)"/>
<path d="M0 0 C3.0625 2.3125 3.0625 2.3125 5 5 C5 5.99 5 6.98 5 8 C3.68 8.33 2.36 8.66 1 9 C0.34 7.68 -0.32 6.36 -1 5 C-3.64 5 -6.28 5 -9 5 C-9.66 3.68 -10.32 2.36 -11 1 C-7.52416014 -0.73791993 -3.79170912 -0.59490609 0 0 Z " fill="#3C3C3B" transform="translate(869,585)"/>
<path d="M0 0 C3 1 3 1 5 3 C5.125 6.625 5.125 6.625 5 10 C2.33333333 10 -0.33333333 10 -3 10 C-3.99 10.495 -3.99 10.495 -5 11 C-7.6723621 11.13415472 -10.32250488 11.04318541 -13 11 C-13 10.67 -13 10.34 -13 10 C-11.02 9.67 -9.04 9.34 -7 9 C-7.66 8.34 -8.32 7.68 -9 7 C-7.88625 6.773125 -6.7725 6.54625 -5.625 6.3125 C-1.83961627 5.39376342 -1.83961627 5.39376342 -0.5625 2.375 C-0.376875 1.59125 -0.19125 0.8075 0 0 Z " fill="#434344" transform="translate(518,602)"/>
<path d="M0 0 C0.54817383 0.26675537 1.09634766 0.53351074 1.66113281 0.80834961 C0.77425781 1.34459961 -0.11261719 1.88084961 -1.02636719 2.43334961 C-4.5329816 4.75730869 -6.74373224 7.51182684 -9.33886719 10.80834961 C-9.91636719 11.36522461 -10.49386719 11.92209961 -11.08886719 12.49584961 C-12.60682024 13.9034224 -12.60682024 13.9034224 -13.33886719 16.80834961 C-14.98958115 17.8344691 -16.65856725 18.83143104 -18.33886719 19.80834961 C-19.70870917 21.10414608 -21.05397209 22.4282771 -22.33886719 23.80834961 C-23.32886719 23.47834961 -24.31886719 23.14834961 -25.33886719 22.80834961 C-22.15254345 19.49856912 -18.95023947 16.2054492 -15.73193359 12.92675781 C-14.63915117 11.80880729 -13.55089515 10.68641377 -12.46728516 9.55957031 C-10.91009375 7.94182938 -9.33739673 6.34069246 -7.76074219 4.74194336 C-7.27829041 4.23368515 -6.79583862 3.72542694 -6.29876709 3.20176697 C-2.86505136 -0.23476673 -2.86505136 -0.23476673 0 0 Z " fill="#A4A4A4" transform="translate(178.3388671875,326.191650390625)"/>
<path d="M0 0 C0.33 0 0.66 0 1 0 C2 3 3 6 4 9 C2.46830664 11.78327158 0.44989109 13.98816891 -2 16 C-5.375 16.4375 -5.375 16.4375 -8 16 C-7.8125 13.625 -7.8125 13.625 -7 11 C-4.5 9.75 -4.5 9.75 -2 9 C-0.50256881 7.50256881 -0.66797307 6.01175761 -0.4375 3.9375 C-0.293125 2.638125 -0.14875 1.33875 0 0 Z " fill="#434343" transform="translate(426,607)"/>
<path d="M0 0 C1.65312636 2.47968954 2.89803633 4.74272424 4.125 7.4375 C4.65480469 8.58025391 4.65480469 8.58025391 5.1953125 9.74609375 C6 12 6 12 6 16 C4.68 16 3.36 16 2 16 C1.3291288 14.3767313 0.66342971 12.75132422 0 11.125 C-0.37125 10.22007812 -0.7425 9.31515625 -1.125 8.3828125 C-2 6 -2 6 -2 4 C-2.66 3.67 -3.32 3.34 -4 3 C-2.68 2.01 -1.36 1.02 0 0 Z " fill="#3B3B3B" transform="translate(543,596)"/>
<path d="M0 0 C2.38825352 3.64429796 1.94295451 6.0693436 1.125 10.25 C0.92132812 11.32765625 0.71765625 12.4053125 0.5078125 13.515625 C0.34023438 14.33546875 0.17265625 15.1553125 0 16 C-1.65 16 -3.3 16 -5 16 C-4.76544178 14.05651759 -4.52862312 12.11326629 -4.27734375 10.171875 C-4.04152351 8.32517001 -3.83059048 6.47531432 -3.625 4.625 C-3 2 -3 2 0 0 Z " fill="#424242" transform="translate(652,597)"/>
<path d="M0 0 C1.66666667 0.33333333 3.33333333 0.66666667 5 1 C5.33 0.67 5.66 0.34 6 0 C7.99958364 -0.04080783 10.00045254 -0.04254356 12 0 C9.52855875 2.60151711 6.79879958 4.76096034 4 7 C2.9826127 7.98230498 1.97403883 8.97469597 1 10 C0.34 9.67 -0.32 9.34 -1 9 C-1.09765625 2.84765625 -1.09765625 2.84765625 -1 1 C-0.67 0.67 -0.34 0.34 0 0 Z " fill="#373737" transform="translate(730,586)"/>
<path d="M0 0 C2.5 0.125 2.5 0.125 3.5 1.125 C3.479375 2.094375 3.45875 3.06375 3.4375 4.0625 C3.14862426 7.23531214 3.14862426 7.23531214 5.5 9.125 C3.00935112 9.81207555 1.12113708 10.125 -1.5 10.125 C-3.35064319 7.00203962 -3.79356154 4.74559232 -3.5 1.125 C-2.5 0.125 -2.5 0.125 0 0 Z " fill="#393838" transform="translate(832.5,530.875)"/>
<path d="M0 0 C1.32 0 2.64 0 4 0 C3.33333333 4.66666667 2.66666667 9.33333333 2 14 C1.67 13.34 1.34 12.68 1 12 C-0.32 12.33 -1.64 12.66 -3 13 C-2.45144652 8.428721 -1.58255197 4.32564205 0 0 Z " fill="#424242" transform="translate(497,575)"/>
<path d="M0 0 C2.475 0.99 2.475 0.99 5 2 C4.67 4.97 4.34 7.94 4 11 C7.96 11 11.92 11 16 11 C16 11.33 16 11.66 16 12 C13.91673869 12.02709444 11.83337559 12.04643873 9.75 12.0625 C8.00976562 12.07990234 8.00976562 12.07990234 6.234375 12.09765625 C3 12 3 12 -1 11 C-0.67 7.37 -0.34 3.74 0 0 Z " fill="#505051" transform="translate(389,597)"/>
<path d="M0 0 C1.8871875 0.061875 1.8871875 0.061875 3.8125 0.125 C3.8125 0.455 3.8125 0.785 3.8125 1.125 C2.1625 1.455 0.5125 1.785 -1.1875 2.125 C0.4625 2.455 2.1125 2.785 3.8125 3.125 C3.4825 3.785 3.1525 4.445 2.8125 5.125 C1.905 5.0425 0.9975 4.96 0.0625 4.875 C-3.28791408 4.81475201 -3.28791408 4.81475201 -5.5625 7.125 C-6.09875 7.785 -6.635 8.445 -7.1875 9.125 C-7.8475 8.795 -8.5075 8.465 -9.1875 8.125 C-9.5175 8.785 -9.8475 9.445 -10.1875 10.125 C-10.5175 9.135 -10.8475 8.145 -11.1875 7.125 C-8.14486626 2.66971488 -5.57419797 -0.18276059 0 0 Z " fill="#3B3B3B" transform="translate(837.1875,584.875)"/>
<path d="M0 0 C1.65 0 3.3 0 5 0 C5.33 1.65 5.66 3.3 6 5 C7.98 5.66 9.96 6.32 12 7 C10 9 10 9 7.0625 9.3125 C4 9 4 9 2.1875 7.875 C0.57771731 5.33323785 0.32890991 2.9601892 0 0 Z " fill="#343434" transform="translate(851,603)"/>
<path d="M0 0 C2.95064148 -0.2208564 5.68368231 -0.28060989 8.625 -0.1875 C9.42679687 -0.17396484 10.22859375 -0.16042969 11.0546875 -0.14648438 C13.03674378 -0.11109051 15.01845551 -0.05728234 17 0 C17 0.99 17 1.98 17 3 C10.73 3 4.46 3 -2 3 C-1.34 2.01 -0.68 1.02 0 0 Z " fill="#2C2C2D" transform="translate(469,592)"/>
<path d="M0 0 C0 0.33 0 0.66 0 1 C-1.65 1.33 -3.3 1.66 -5 2 C-4.34 2.66 -3.68 3.32 -3 4 C-5.64 4.66 -8.28 5.32 -11 6 C-11 6.66 -11 7.32 -11 8 C-12.65 8 -14.3 8 -16 8 C-15.10368306 4.98511576 -14.32087126 3.28197778 -11.9375 1.1875 C-7.9099584 -0.44065511 -4.28776332 -0.25222137 0 0 Z " fill="#4B4B4B" transform="translate(520,585)"/>
<path d="M0 0 C0.99 0 1.98 0 3 0 C4.35439668 2.70879335 4.06501451 5.00933268 4 8 C3.01 8.495 3.01 8.495 2 9 C1.34444881 11.52733235 1.34444881 11.52733235 1 14 C0.34 14 -0.32 14 -1 14 C-1.66 14.66 -2.32 15.32 -3 16 C-2.52013969 10.43109483 -1.70084819 5.32932432 0 0 Z " fill="#373737" transform="translate(654,578)"/>
<path d="M0 0 C5.61 0 11.22 0 17 0 C17 0.99 17 1.98 17 3 C11.06 3 5.12 3 -1 3 C-0.67 2.01 -0.34 1.02 0 0 Z " fill="#2D2E2E" transform="translate(473,576)"/>
<path d="M0 0 C2.72869407 0.03287583 5.2966618 0.56397771 8 1 C7.67 1.99 7.34 2.98 7 4 C9.97 4.495 9.97 4.495 13 5 C13 5.33 13 5.66 13 6 C6.565 6.495 6.565 6.495 0 7 C-0.66 5.35 -1.32 3.7 -2 2 C-1.34 1.34 -0.68 0.68 0 0 Z " fill="#474747" transform="translate(841,493)"/>
<path d="M0 0 C0.66 0 1.32 0 2 0 C3.34721372 7.47091243 3.34721372 7.47091243 1.6875 10 C0 11 0 11 -2 11 C-2 11.66 -2 12.32 -2 13 C-2.99 13 -3.98 13 -5 13 C-5.75 11.25 -5.75 11.25 -6 9 C-4.71182656 7.62298702 -3.37195574 6.29355827 -2 5 C-0.74563813 2.36777038 -0.74563813 2.36777038 0 0 Z " fill="#3B3B3B" transform="translate(414,581)"/>
<path d="M0 0 C4.95 0 9.9 0 15 0 C15 0.99 15 1.98 15 3 C8.4 3 1.8 3 -5 3 C-5 2.67 -5 2.34 -5 2 C-3.35 2 -1.7 2 0 2 C0 1.34 0 0.68 0 0 Z " fill="#272727" transform="translate(612,609)"/>
<path d="M0 0 C3.97674419 3.85623679 3.97674419 3.85623679 4.04296875 7.11328125 C3.7798228 9.08863015 3.39718314 11.04718291 3 13 C1.35 13.33 -0.3 13.66 -2 14 C-1.43393721 9.30976546 -0.81462495 4.65499974 0 0 Z " fill="#393939" transform="translate(491,598)"/>
<path d="M0 0 C1.32 0 2.64 0 4 0 C4.33 0.99 4.66 1.98 5 3 C3.02 3.99 3.02 3.99 1 5 C1 6.98 1 8.96 1 11 C0.34 11 -0.32 11 -1 11 C-1.66 13.97 -2.32 16.94 -3 20 C-4.09485401 15.62058395 -3.55452883 12.59730174 -2.625 8.3125 C-2.48578125 7.62349609 -2.3465625 6.93449219 -2.203125 6.22460938 C-1.14405085 1.14405085 -1.14405085 1.14405085 0 0 Z " fill="#474747" transform="translate(786,586)"/>
<path d="M0 0 C2.475 0.495 2.475 0.495 5 1 C5.33 1.99 5.66 2.98 6 4 C4.68 4.33 3.36 4.66 2 5 C1.67 12.92 1.34 20.84 1 29 C0.67 29 0.34 29 0 29 C0 19.43 0 9.86 0 0 Z " fill="#B1B2B1" transform="translate(237,282)"/>
<path d="M0 0 C0.33 0 0.66 0 1 0 C1 2.64 1 5.28 1 8 C1.66 8 2.32 8 3 8 C3 8.66 3 9.32 3 10 C3.66 10 4.32 10 5 10 C3.25 14.875 3.25 14.875 1 16 C-1.14867155 12.77699268 -1.40779872 11.21681119 -1.75 7.4375 C-1.84796875 6.46683594 -1.9459375 5.49617187 -2.046875 4.49609375 C-2 2 -2 2 0 0 Z " fill="#313131" transform="translate(428,599)"/>
<path d="M0 0 C6.11232017 -0.31079594 7.38723621 -0.36765828 13 3 C12.34 6.96 11.68 10.92 11 15 C10.67 15 10.34 15 10 15 C9.67 11.7 9.34 8.4 9 5 C6.03 4.505 6.03 4.505 3 4 C3.66 3.67 4.32 3.34 5 3 C5 2.34 5 1.68 5 1 C3.35 1 1.7 1 0 1 C0 0.67 0 0.34 0 0 Z " fill="#535353" transform="translate(707,585)"/>
<path d="M0 0 C2 2 2 2 2.23046875 4.78515625 C2.21628906 5.86667969 2.20210937 6.94820313 2.1875 8.0625 C2.18105469 9.14660156 2.17460937 10.23070312 2.16796875 11.34765625 C2 14 2 14 1 15 C0.84259395 16.70563778 0.74906608 18.41727244 0.68359375 20.12890625 C0.64169922 21.16337891 0.59980469 22.19785156 0.55664062 23.26367188 C0.51732422 24.35228516 0.47800781 25.44089844 0.4375 26.5625 C0.39431641 27.65498047 0.35113281 28.74746094 0.30664062 29.87304688 C0.20017932 32.58189564 0.09816484 35.29083992 0 38 C-0.33 38 -0.66 38 -1 38 C-1.02941647 33.72918152 -1.04693715 29.45838966 -1.0625 25.1875 C-1.07087891 23.99189453 -1.07925781 22.79628906 -1.08789062 21.56445312 C-1.10764411 14.31492441 -0.81793065 7.20461349 0 0 Z " fill="#D3D3D3" transform="translate(194,322)"/>
<path d="M0 0 C0.66 1.32 1.32 2.64 2 4 C2.66 3.01 3.32 2.02 4 1 C5.1875 3.25 5.1875 3.25 6 6 C4.8125 8.3125 4.8125 8.3125 3 10 C2.01 10 1.02 10 0 10 C-0.99 10.66 -1.98 11.32 -3 12 C-3 9.69 -3 7.38 -3 5 C-2.34 4.67 -1.68 4.34 -1 4 C-0.34786708 1.97536745 -0.34786708 1.97536745 0 0 Z " fill="#4B4B4B" transform="translate(563,601)"/>
<path d="M0 0 C4 4 4 4 4.3125 7.125 C4 10 4 10 3 12 C1.35 12 -0.3 12 -2 12 C-1.34 8.04 -0.68 4.08 0 0 Z " fill="#424242" transform="translate(461,600)"/>
<path d="M0 0 C5.28 0 10.56 0 16 0 C16 0.99 16 1.98 16 3 C12.04 3 8.08 3 4 3 C4 2.34 4 1.68 4 1 C3.34 1 2.68 1 2 1 C1.34 2.32 0.68 3.64 0 5 C0 3.35 0 1.7 0 0 Z " fill="#2A2A2A" transform="translate(394,576)"/>
<path d="M0 0 C-0.3125 1.9375 -0.3125 1.9375 -1 4 C-4.42232972 5.14077657 -7.08673217 5.09815117 -10.6875 5.0625 C-12.45673828 5.04896484 -12.45673828 5.04896484 -14.26171875 5.03515625 C-15.16535156 5.02355469 -16.06898438 5.01195312 -17 5 C-17 4.67 -17 4.34 -17 4 C-13.04 4 -9.08 4 -5 4 C-5 3.01 -5 2.02 -5 1 C-8.63 1 -12.26 1 -16 1 C-16 0.67 -16 0.34 -16 0 C-13.89651926 -0.19504458 -11.79217415 -0.38078496 -9.6875 -0.5625 C-8.51574219 -0.66691406 -7.34398437 -0.77132812 -6.13671875 -0.87890625 C-3 -1 -3 -1 0 0 Z " fill="#585858" transform="translate(672,593)"/>
<path d="M0 0 C0.33 0.99 0.66 1.98 1 3 C-0.21484375 5.04296875 -0.21484375 5.04296875 -1.9375 7.1875 C-2.50339844 7.90292969 -3.06929687 8.61835937 -3.65234375 9.35546875 C-4.09707031 9.89816406 -4.54179687 10.44085937 -5 11 C-8.93673644 9.68775452 -11.22719294 8.08089673 -14 5 C-13.67 4.01 -13.34 3.02 -13 2 C-12.1028125 2.9590625 -12.1028125 2.9590625 -11.1875 3.9375 C-9.09189663 6.20310389 -9.09189663 6.20310389 -6 7 C-5.38125 6.360625 -4.7625 5.72125 -4.125 5.0625 C-2 3 -2 3 0 2 C0 1.34 0 0.68 0 0 Z " fill="#484747" transform="translate(159,566)"/>
<path d="M0 0 C0.99 0.33 1.98 0.66 3 1 C4.125 7.625 4.125 7.625 3 11 C1.68 11 0.36 11 -1 11 C-1.125 3.375 -1.125 3.375 0 0 Z " fill="#414141" transform="translate(813,602)"/>
<path d="M0 0 C0.125 6.625 0.125 6.625 -1 10 C-3.0625 10.6875 -3.0625 10.6875 -5 11 C-5.36637589 4.64948454 -5.36637589 4.64948454 -3.625 1.5625 C-2 0 -2 0 0 0 Z " fill="#2E2E2E" transform="translate(469,583)"/>
<path d="M0 0 C4.29 0 8.58 0 13 0 C13 0.33 13 0.66 13 1 C11.02 1.33 9.04 1.66 7 2 C7.99 3.485 7.99 3.485 9 5 C2.9453125 5.1953125 2.9453125 5.1953125 1 5 C0.34 4.34 -0.32 3.68 -1 3 C-0.67 2.01 -0.34 1.02 0 0 Z " fill="#2C2C2C" transform="translate(519,543)"/>
<path d="M0 0 C0.33 0.99 0.66 1.98 1 3 C1.66 3 2.32 3 3 3 C4.125 8.625 4.125 8.625 3 12 C1.35 12 -0.3 12 -2 12 C-1.34 8.04 -0.68 4.08 0 0 Z " fill="#414141" transform="translate(597,600)"/>
<path d="M0 0 C0.66 0.33 1.32 0.66 2 1 C1.46930939 4.82097239 0.50298434 7.06171403 -2 10 C-2.33 9.67 -2.66 9.34 -3 9 C-3.66 9.66 -4.32 10.32 -5 11 C-4.50769231 4.6 -4.50769231 4.6 -1.9375 1.5625 C-0.9784375 0.7890625 -0.9784375 0.7890625 0 0 Z " fill="#3F3F3F" transform="translate(506,597)"/>
<path d="M0 0 C0.66 0 1.32 0 2 0 C1.71125 0.845625 1.4225 1.69125 1.125 2.5625 C-0.0712613 6.01863261 -0.0712613 6.01863261 -0.8125 9.75 C-2 13 -2 13 -4.625 14.4375 C-5.40875 14.623125 -6.1925 14.80875 -7 15 C-5.45454854 9.52067211 -2.84456788 4.88570819 0 0 Z " fill="#3D3D3D" transform="translate(174,571)"/>
<path d="M0 0 C1.134375 0.020625 2.26875 0.04125 3.4375 0.0625 C3.4375 0.7225 3.4375 1.3825 3.4375 2.0625 C0.84509181 3.9222711 -1.70660847 5.63455423 -4.5625 7.0625 C-5.2225 6.4025 -5.8825 5.7425 -6.5625 5.0625 C-4.14811644 0.07277397 -4.14811644 0.07277397 0 0 Z " fill="#404040" transform="translate(708.5625,585.9375)"/>
<path d="M0 0 C2 2 2 2 2.1875 5 C2 8 2 8 1 10 C-0.32 10 -1.64 10 -3 10 C-2.67 7.69 -2.34 5.38 -2 3 C-1.34 3 -0.68 3 0 3 C0 2.01 0 1.02 0 0 Z " fill="#343434" transform="translate(726,612)"/>
<path d="M0 0 C1.65 0 3.3 0 5 0 C5 1.98 5 3.96 5 6 C4.01 6 3.02 6 2 6 C1.67 7.32 1.34 8.64 1 10 C-0.1577506 6.52674819 -0.06866652 3.63932552 0 0 Z " fill="#484848" transform="translate(557,586)"/>
<path d="M0 0 C0.66 0 1.32 0 2 0 C2.66 1.32 3.32 2.64 4 4 C6.64 4 9.28 4 12 4 C11.67 4.99 11.34 5.98 11 7 C8.4375 8.1875 8.4375 8.1875 6 9 C4.99406757 7.8803014 3.9954151 6.7540588 3 5.625 C2.443125 4.99851562 1.88625 4.37203125 1.3125 3.7265625 C0 2 0 2 0 0 Z " fill="#444444" transform="translate(301,568)"/>
<path d="M0 0 C0.66 0.66 1.32 1.32 2 2 C1.34 2 0.68 2 0 2 C0 1.34 0 0.68 0 0 Z M-4 3 C-3.34 3.66 -2.68 4.32 -2 5 C-4.97 8.3 -7.94 11.6 -11 15 C-11.66 14.67 -12.32 14.34 -13 14 C-10.03 10.37 -7.06 6.74 -4 3 Z " fill="#3C3C3C" transform="translate(828,419)"/>
<path d="M0 0 C0.33 1.32 0.66 2.64 1 4 C1.99 4.33 2.98 4.66 4 5 C3.67 6.98 3.34 8.96 3 11 C1.68 11 0.36 11 -1 11 C-0.67 7.37 -0.34 3.74 0 0 Z " fill="#3F3F3F" transform="translate(530,601)"/>
<path d="M0 0 C1.21236328 0.02707031 1.21236328 0.02707031 2.44921875 0.0546875 C3.37154297 0.08949219 3.37154297 0.08949219 4.3125 0.125 C2.3325 1.115 2.3325 1.115 0.3125 2.125 C0.3125 2.785 0.3125 3.445 0.3125 4.125 C1.3025 4.455 2.2925 4.785 3.3125 5.125 C-3.0875 5.49423077 -3.0875 5.49423077 -6.125 3.625 C-6.640625 3.13 -7.15625 2.635 -7.6875 2.125 C-4.48369983 -0.01086678 -3.66810033 -0.10632175 0 0 Z " fill="#535353" transform="translate(798.6875,584.875)"/>
<path d="M0 0 C0.33 0.99 0.66 1.98 1 3 C1.66 3 2.32 3 3 3 C3.33 4.98 3.66 6.96 4 9 C2.35 9.33 0.7 9.66 -1 10 C-0.67 6.7 -0.34 3.4 0 0 Z " fill="#4F4F4F" transform="translate(681,603)"/>
<path d="M0 0 C2.64 0 5.28 0 8 0 C8.33 0.99 8.66 1.98 9 3 C7 5 7 5 3.375 5.125 C2.26125 5.08375 1.1475 5.0425 0 5 C0.66 4.67 1.32 4.34 2 4 C2 3.34 2 2.68 2 2 C1.34 1.34 0.68 0.68 0 0 Z " fill="#2B2B2B" transform="translate(846,493)"/>
<path d="M0 0 C1.98 0 3.96 0 6 0 C5.67 1.98 5.34 3.96 5 6 C3.35 6 1.7 6 0 6 C0 4.02 0 2.04 0 0 Z " fill="#5D5D5D" transform="translate(818,575)"/>
<path d="M0 0 C0 0.99 0 1.98 0 3 C0.0825 3.825 0.165 4.65 0.25 5.5 C0 8 0 8 -2 9.8125 C-2.66 10.204375 -3.32 10.59625 -4 11 C-4.66 9.68 -5.32 8.36 -6 7 C-4.02 4.69 -2.04 2.38 0 0 Z " fill="#3D3D3D" transform="translate(621,592)"/>
<path d="M0 0 C0.99 0.66 1.98 1.32 3 2 C3.1875 5.125 3.1875 5.125 3 8 C2.34 8 1.68 8 1 8 C0.34 9.32 -0.32 10.64 -1 12 C-1.2226746 10.56465159 -1.42761906 9.12654475 -1.625 7.6875 C-1.74101563 6.88699219 -1.85703125 6.08648438 -1.9765625 5.26171875 C-2 3 -2 3 0 0 Z " fill="#313131" transform="translate(600,586)"/>
<path d="M0 0 C1.66666667 0 3.33333333 0 5 0 C4.67 2.31 4.34 4.62 4 7 C2.68 7 1.36 7 0 7 C0 4.69 0 2.38 0 0 Z " fill="#525252" transform="translate(781,606)"/>
<path d="M0 0 C1.32 0 2.64 0 4 0 C3.67 1.32 3.34 2.64 3 4 C2.01 4 1.02 4 0 4 C-0.33 5.32 -0.66 6.64 -1 8 C-1.66 8 -2.32 8 -3 8 C-2.25 2.25 -2.25 2.25 0 0 Z " fill="#3A393A" transform="translate(757,591)"/>
<path d="M0 0 C1.32 0 2.64 0 4 0 C3.39816251 2.02045442 2.72693904 4.02111039 2 6 C1.01 6.495 1.01 6.495 0 7 C-0.99 6.01 -1.98 5.02 -3 4 C-1.75 2 -1.75 2 0 0 Z " fill="#484848" transform="translate(442,585)"/>
<path d="M0 0 C1.65 0 3.3 0 5 0 C5 1.65 5 3.3 5 5 C3.02 5 1.04 5 -1 5 C-0.67 3.35 -0.34 1.7 0 0 Z " fill="#444243" transform="translate(693,585)"/>
<path d="M0 0 C-0.33 2.31 -0.66 4.62 -1 7 C-1.66 7 -2.32 7 -3 7 C-3.66 7.66 -4.32 8.32 -5 9 C-5.36666667 3.5 -5.36666667 3.5 -3.625 1.125 C-2 0 -2 0 0 0 Z " fill="#303030" transform="translate(498,587)"/>
<path d="M0 0 C0.99 0 1.98 0 3 0 C2.77139942 1.46184058 2.51629608 2.91955419 2.25 4.375 C2.04117188 5.59316406 2.04117188 5.59316406 1.828125 6.8359375 C1 9 1 9 -3 11 C-2.01 7.37 -1.02 3.74 0 0 Z " fill="#313131" transform="translate(785,597)"/>
<path d="M0 0 C-0.33 2.97 -0.66 5.94 -1 9 C-1.99 8.01 -2.98 7.02 -4 6 C-4.99 6.495 -4.99 6.495 -6 7 C-5.39816251 4.97954558 -4.72693904 2.97888961 -4 1 C-2 0 -2 0 0 0 Z " fill="#3F3F3F" transform="translate(809,577)"/>
<path d="M0 0 C0.33 0 0.66 0 1 0 C1.33 3.96 1.66 7.92 2 12 C-2 10 -2 10 -3 7 C-2.07796291 4.63477442 -1.08301035 2.29598193 0 0 Z " fill="#484747" transform="translate(828,600)"/>
<path d="M0 0 C0.99 1.485 0.99 1.485 2 3 C2.66 2.34 3.32 1.68 4 1 C4 1.66 4 2.32 4 3 C4.66 3 5.32 3 6 3 C5.67 4.65 5.34 6.3 5 8 C4.01 8 3.02 8 2 8 C2 7.34 2 6.68 2 6 C1.34 6 0.68 6 0 6 C0 4.02 0 2.04 0 0 Z " fill="#424242" transform="translate(429,601)"/>
<path d="M0 0 C2.0877193 3.43859649 2.0877193 3.43859649 1.6875 6 C1.460625 6.66 1.23375 7.32 1 8 C0.814375 8.7425 0.62875 9.485 0.4375 10.25 C0.293125 10.8275 0.14875 11.405 0 12 C-0.99 11.67 -1.98 11.34 -3 11 C-3.33 10.01 -3.66 9.02 -4 8 C-3.525625 7.608125 -3.05125 7.21625 -2.5625 6.8125 C-0.64820367 4.59191626 -0.38733012 2.86624291 0 0 Z " fill="#424242" transform="translate(411,599)"/>
<path d="M0 0 C2.64 0 5.28 0 8 0 C8 0.33 8 0.66 8 1 C6.35 1.33 4.7 1.66 3 2 C4.65 2.33 6.3 2.66 8 3 C7.67 3.66 7.34 4.32 7 5 C4 5 1 5 -2 5 C-1.34 3.35 -0.68 1.7 0 0 Z " fill="#504F50" transform="translate(833,585)"/>
<path d="M0 0 C0 3 0 3 -1 6 C-2.84765625 7.60546875 -2.84765625 7.60546875 -5.0625 9.1875 C-5.79597656 9.71730469 -6.52945313 10.24710937 -7.28515625 10.79296875 C-7.85105469 11.19128906 -8.41695313 11.58960938 -9 12 C-9.66 11.67 -10.32 11.34 -11 11 C-7.37 7.37 -3.74 3.74 0 0 Z " fill="#686868" transform="translate(123,465)"/>
<path d="M0 0 C1.13199353 0.9080162 2.25532363 1.82683826 3.375 2.75 C4.00148438 3.26046875 4.62796875 3.7709375 5.2734375 4.296875 C7.08312318 6.08199481 8.00117455 7.67949644 9 10 C8.34 10 7.68 10 7 10 C6.34 10.66 5.68 11.32 5 12 C3.875 8.25 3.875 8.25 5 6 C4.34 6 3.68 6 3 6 C0 2.53846154 0 2.53846154 0 0 Z " fill="#9D9E9F" transform="translate(289,332)"/>
<path d="M0 0 C0.33 0.99 0.66 1.98 1 3 C-2.90028225 5.60018816 -6.47434569 5.15085514 -11 5 C-11 4.67 -11 4.34 -11 4 C-9.02 3.67 -7.04 3.34 -5 3 C-5.66 2.34 -6.32 1.68 -7 1 C-2.25 0 -2.25 0 0 0 Z " fill="#4D4D4D" transform="translate(516,608)"/>
<path d="M0 0 C0.66 1.32 1.32 2.64 2 4 C2.66 4 3.32 4 4 4 C4 5.32 4 6.64 4 8 C2.35 8 0.7 8 -1 8 C-0.67 5.36 -0.34 2.72 0 0 Z " fill="#464646" transform="translate(580,604)"/>
<path d="M0 0 C3 1 3 1 4 3 C4.06950541 4.54023996 4.08452357 6.08334988 4.0625 7.625 C4.05347656 8.44226563 4.04445313 9.25953125 4.03515625 10.1015625 C4.02355469 10.72804688 4.01195312 11.35453125 4 12 C3.67 12 3.34 12 3 12 C3 9.69 3 7.38 3 5 C1.02 5.99 1.02 5.99 -1 7 C-0.67 4.69 -0.34 2.38 0 0 Z " fill="#5E5E5E" transform="translate(728,593)"/>
<path d="M0 0 C1.98567708 0.09765625 3.97135417 0.1953125 5.95703125 0.29296875 C5.95703125 1.28296875 5.95703125 2.27296875 5.95703125 3.29296875 C2.32703125 3.29296875 -1.30296875 3.29296875 -5.04296875 3.29296875 C-2.04296875 0.29296875 -2.04296875 0.29296875 0 0 Z " fill="#262628" transform="translate(661.04296875,593.70703125)"/>
<path d="M0 0 C2.475 0.495 2.475 0.495 5 1 C4.125 5.75 4.125 5.75 3 8 C2.34 8 1.68 8 1 8 C-0.35439668 5.29120665 -0.06501451 2.99066732 0 0 Z " fill="#2D2D2D" transform="translate(561,608)"/>
<path d="M0 0 C0 2.97 0 5.94 0 9 C-0.66 8.34 -1.32 7.68 -2 7 C-2.99 7.495 -2.99 7.495 -4 8 C-4.1875 5.125 -4.1875 5.125 -4 2 C-1 0 -1 0 0 0 Z " fill="#292929" transform="translate(702,597)"/>
<path d="M0 0 C0.66 0.33 1.32 0.66 2 1 C1.67 1.66 1.34 2.32 1 3 C0.34 3 -0.32 3 -1 3 C-1.33 3.99 -1.66 4.98 -2 6 C-2.99 6 -3.98 6 -5 6 C-5 6.66 -5 7.32 -5 8 C-5.66 8 -6.32 8 -7 8 C-5.50902342 4.2047869 -3.24299151 2.38957269 0 0 Z M-9 8 C-8.01 8.495 -8.01 8.495 -7 9 C-7.99 9.495 -7.99 9.495 -9 10 C-9 9.34 -9 8.68 -9 8 Z " fill="#B6B6B6" transform="translate(214,287)"/>
<path d="M0 0 C3.465 1.485 3.465 1.485 7 3 C6.67 3.99 6.34 4.98 6 6 C4.35 6 2.7 6 1 6 C0.67 4.02 0.34 2.04 0 0 Z " fill="#39383A" transform="translate(829,607)"/>
<path d="M0 0 C1.65 0 3.3 0 5 0 C5.33 1.32 5.66 2.64 6 4 C4.35 4.66 2.7 5.32 1 6 C0.67 4.02 0.34 2.04 0 0 Z " fill="#464546" transform="translate(851,603)"/>
<path d="M0 0 C0.99 0.33 1.98 0.66 3 1 C3 1.66 3 2.32 3 3 C2.34 3 1.68 3 1 3 C0.5978125 4.2065625 0.5978125 4.2065625 0.1875 5.4375 C-0.4003125 6.7059375 -0.4003125 6.7059375 -1 8 C-1.99 8.33 -2.98 8.66 -4 9 C-2.94124926 5.59687262 -1.99097846 2.98646769 0 0 Z " fill="#2F3030" transform="translate(439,590)"/>
<path d="M0 0 C1.22589844 0.01353516 1.22589844 0.01353516 2.4765625 0.02734375 C3.41628906 0.04474609 3.41628906 0.04474609 4.375 0.0625 C4.375 0.3925 4.375 0.7225 4.375 1.0625 C2.065 1.0625 -0.245 1.0625 -2.625 1.0625 C-2.625 1.7225 -2.625 2.3825 -2.625 3.0625 C-1.305 3.3925 0.015 3.7225 1.375 4.0625 C-0.605 4.3925 -2.585 4.7225 -4.625 5.0625 C-5.285 3.7425 -5.945 2.4225 -6.625 1.0625 C-4.21954362 -0.14022819 -2.67503047 -0.03821472 0 0 Z " fill="#5F5E5E" transform="translate(864.625,584.9375)"/>
<path d="M0 0 C1.65 0 3.3 0 5 0 C4.25 4.75 4.25 4.75 2 7 C0 5 0 5 -0.125 2.375 C-0.08375 1.59125 -0.0425 0.8075 0 0 Z " fill="#4B4B4B" transform="translate(536,575)"/>
<path d="M0 0 C0.33 0 0.66 0 1 0 C1 3.96 1 7.92 1 12 C0.01 12.495 0.01 12.495 -1 13 C-1.22151549 11.20991533 -1.42682213 9.41781838 -1.625 7.625 C-1.74101562 6.62726562 -1.85703125 5.62953125 -1.9765625 4.6015625 C-1.98429687 3.74304688 -1.99203125 2.88453125 -2 2 C-1.34 1.34 -0.68 0.68 0 0 Z " fill="#2A2A2A" transform="translate(428,599)"/>
<path d="M0 0 C0.99 0.33 1.98 0.66 3 1 C1.50902342 4.7952131 -0.75700849 6.61042731 -4 9 C-4.33 8.34 -4.66 7.68 -5 7 C-4.34 6.67 -3.68 6.34 -3 6 C-1.95191959 4.02477154 -0.9479589 2.02518491 0 0 Z " fill="#3A3A3A" transform="translate(291,589)"/>
<path d="M0 0 C1.32 0 2.64 0 4 0 C4 1.65 4 3.3 4 5 C2.68 5.33 1.36 5.66 0 6 C0 4.02 0 2.04 0 0 Z " fill="#303031" transform="translate(584,586)"/>
<path d="M0 0 C0.66 0 1.32 0 2 0 C2.625 2.375 2.625 2.375 3 5 C2.34 5.66 1.68 6.32 1 7 C0.67 7.99 0.34 8.98 0 10 C-1.60339848 6.88228073 -2.18974141 5.60988311 -1.125 2.1875 C-0.75375 1.465625 -0.3825 0.74375 0 0 Z " fill="#4B4B4B" transform="translate(129,544)"/>
<path d="M0 0 C0.66 0 1.32 0 2 0 C0.55922954 3.36179774 -1.24750021 5.59156268 -4 8 C-4.66 8 -5.32 8 -6 8 C-5.67 6.35 -5.34 4.7 -5 3 C-4.360625 2.87625 -3.72125 2.7525 -3.0625 2.625 C-2.0415625 2.315625 -2.0415625 2.315625 -1 2 C-0.67 1.34 -0.34 0.68 0 0 Z " fill="#4F4F4F" transform="translate(364,518)"/>
<path d="M0 0 C1.65 0 3.3 0 5 0 C4.67 1.32 4.34 2.64 4 4 C2.02 4 0.04 4 -2 4 C-1.34 2.68 -0.68 1.36 0 0 Z " fill="#4C4C4C" transform="translate(803,609)"/>
<path d="M0 0 C1.65 0 3.3 0 5 0 C3.75 2.5 3.75 2.5 2 5 C0.68 5 -0.64 5 -2 5 C-1.34 3.35 -0.68 1.7 0 0 Z " fill="#333333" transform="translate(841,604)"/>
<path d="M0 0 C2.0625 2.1875 2.0625 2.1875 4 5 C3.75 7.8125 3.75 7.8125 3 10 C2.01 9.34 1.02 8.68 0 8 C-0.40843923 5.28796348 -0.13336867 2.7562858 0 0 Z " fill="#404040" transform="translate(491,598)"/>
<path d="M0 0 C1.32 0 2.64 0 4 0 C4.1875 2.375 4.1875 2.375 4 5 C3.01 5.66 2.02 6.32 1 7 C0.67 4.69 0.34 2.38 0 0 Z " fill="#2F2F2F" transform="translate(423,586)"/>
<path d="M0 0 C0 0.99 0 1.98 0 3 C-2.64 3 -5.28 3 -8 3 C-7 1 -7 1 -4.5625 -0.1875 C-2 -1 -2 -1 0 0 Z " fill="#303030" transform="translate(742,609)"/>
<path d="M0 0 C0.66 1.32 1.32 2.64 2 4 C-1.75 6 -1.75 6 -4 6 C-4 4.68 -4 3.36 -4 2 C-2.68 1.34 -1.36 0.68 0 0 Z " fill="#363637" transform="translate(391,606)"/>
<path d="M0 0 C0.99 0 1.98 0 3 0 C4.125 4.75 4.125 4.75 3 7 C2.01 6.67 1.02 6.34 0 6 C0 4.02 0 2.04 0 0 Z " fill="#363636" transform="translate(745,598)"/>
<path d="M0 0 C0.33 1.32 0.66 2.64 1 4 C3.99332739 3.0022242 4.94766315 2.2477975 7 0 C7.33 0.99 7.66 1.98 8 3 C6.25 4.5625 6.25 4.5625 4 6 C1.75 5.6875 1.75 5.6875 0 5 C0 3.35 0 1.7 0 0 Z " fill="#4A4A4A" transform="translate(583,588)"/>
<path d="M0 0 C2.31 0 4.62 0 7 0 C6.34 1.32 5.68 2.64 5 4 C3.02 4 1.04 4 -1 4 C-0.67 2.68 -0.34 1.36 0 0 Z " fill="#4D4D4D" transform="translate(764,585)"/>
<path d="M0 0 C6.0546875 -0.1953125 6.0546875 -0.1953125 8 0 C8.66 0.66 9.32 1.32 10 2 C9.34 2 8.68 2 8 2 C8 2.66 8 3.32 8 4 C6.35 4 4.7 4 3 4 C3.66 3.67 4.32 3.34 5 3 C5 2.34 5 1.68 5 1 C3.35 1 1.7 1 0 1 C0 0.67 0 0.34 0 0 Z " fill="#4C4C4C" transform="translate(707,585)"/>
<path d="M0 0 C0 0.66 0 1.32 0 2 C-1.95927063 3.7143618 -3.95880212 5.38405168 -6 7 C-6.66 6.67 -7.32 6.34 -8 6 C-6.98565881 3.46414701 -6.34981128 2.21863205 -4 0.75 C-2 0 -2 0 0 0 Z " fill="#39393A" transform="translate(747,494)"/>
<path d="M0 0 C-0.33 2.31 -0.66 4.62 -1 7 C-1.33 6.34 -1.66 5.68 -2 5 C-2.66 5 -3.32 5 -4 5 C-4 3.68 -4 2.36 -4 1 C-2 0 -2 0 0 0 Z " fill="#313131" transform="translate(686,601)"/>
<path d="M0 0 C2 3 2 3 1.625 5.6875 C1.41875 6.450625 1.2125 7.21375 1 8 C0.01 7.34 -0.98 6.68 -2 6 C-2.1875 3.375 -2.1875 3.375 -2 1 C-1.34 0.67 -0.68 0.34 0 0 Z " fill="#323232" transform="translate(816,598)"/>
<path d="M0 0 C0.66 0 1.32 0 2 0 C2.33 2.31 2.66 4.62 3 7 C2.34 7 1.68 7 1 7 C0.34 7.66 -0.32 8.32 -1 9 C-0.67 6.03 -0.34 3.06 0 0 Z " fill="#4A4A4A" transform="translate(652,585)"/>
<path d="M0 0 C0.66 0 1.32 0 2 0 C2 2.31 2 4.62 2 7 C1.01 7.495 1.01 7.495 0 8 C-0.33 7.34 -0.66 6.68 -1 6 C-1.66 5.67 -2.32 5.34 -3 5 C-1.625 2.5 -1.625 2.5 0 0 Z " fill="#3B3B3C" transform="translate(678,581)"/>
<path d="M0 0 C0.99 0.33 1.98 0.66 3 1 C2.67 1.66 2.34 2.32 2 3 C1.77049681 5.204364 1.58924067 7.41392173 1.4375 9.625 C1.35371094 10.81351562 1.26992187 12.00203125 1.18359375 13.2265625 C1.12300781 14.14179688 1.06242188 15.05703125 1 16 C0.67 16 0.34 16 0 16 C0 10.72 0 5.44 0 0 Z " fill="#626264" transform="translate(145,456)"/>
<path d="M0 0 C0.33 0.66 0.66 1.32 1 2 C1.66 2 2.32 2 3 2 C3.33 3.32 3.66 4.64 4 6 C2.35 6.33 0.7 6.66 -1 7 C-0.67 4.69 -0.34 2.38 0 0 Z " fill="#454544" transform="translate(725,608)"/>
<path d="M0 0 C1.32 0.33 2.64 0.66 4 1 C3.67 1.99 3.34 2.98 3 4 C1.35 4 -0.3 4 -2 4 C-1.34 2.68 -0.68 1.36 0 0 Z " fill="#373736" transform="translate(506,589)"/>
<path d="M0 0 C1.32 0 2.64 0 4 0 C4.66 1.32 5.32 2.64 6 4 C3.03 4 0.06 4 -3 4 C-1.68 3.34 -0.36 2.68 1 2 C0.67 1.34 0.34 0.68 0 0 Z " fill="#555557" transform="translate(860,609)"/>
<path d="M0 0 C1.67542976 0.28604898 3.34385343 0.61781233 5 1 C4.01 1.66 3.02 2.32 2 3 C3.65 3.33 5.3 3.66 7 4 C7 4.33 7 4.66 7 5 C4.69 5 2.38 5 0 5 C-0.5625 3.0625 -0.5625 3.0625 -1 1 C-0.67 0.67 -0.34 0.34 0 0 Z " fill="#555554" transform="translate(733,608)"/>
<path d="M0 0 C0 1.65 0 3.3 0 5 C-1.65 5 -3.3 5 -5 5 C-4.6875 3.0625 -4.6875 3.0625 -4 1 C-1 0 -1 0 0 0 Z " fill="#323232" transform="translate(464,607)"/>
<path d="M0 0 C1.2065625 0.0309375 1.2065625 0.0309375 2.4375 0.0625 C2.4375 0.7225 2.4375 1.3825 2.4375 2.0625 C0.4575 2.7225 -1.5225 3.3825 -3.5625 4.0625 C-3.5625 0.08689024 -3.5625 0.08689024 0 0 Z " fill="#2E2E2E" transform="translate(709.5625,585.9375)"/>
<path d="M0 0 C0.33 0.66 0.66 1.32 1 2 C2.32 1.34 3.64 0.68 5 0 C5.625 1.875 5.625 1.875 6 4 C5.34 4.66 4.68 5.32 4 6 C2 4.6875 2 4.6875 0 3 C0 2.01 0 1.02 0 0 Z " fill="#303030" transform="translate(504,527)"/>
<path d="M0 0 C1.32 0 2.64 0 4 0 C3.34 1.32 2.68 2.64 2 4 C0.68 3.67 -0.64 3.34 -2 3 C-1.34 2.01 -0.68 1.02 0 0 Z " fill="#393A3A" transform="translate(239,642)"/>
<path d="M0 0 C0.33 0 0.66 0 1 0 C2 3 3 6 4 9 C3.34 9.66 2.68 10.32 2 11 C-0.32590854 7.36576791 -0.16265833 4.22911669 0 0 Z " fill="#585858" transform="translate(426,607)"/>
<path d="M0 0 C-0.33 3.3 -0.66 6.6 -1 10 C-1.33 10 -1.66 10 -2 10 C-2.144375 9.05125 -2.28875 8.1025 -2.4375 7.125 C-2.82935399 4.1065506 -2.82935399 4.1065506 -4 2 C-1 0 -1 0 0 0 Z " fill="#2B2B2B" transform="translate(523,600)"/>
<path d="M0 0 C0.99 0 1.98 0 3 0 C2.625 2.4375 2.625 2.4375 2 5 C1.01 5.495 1.01 5.495 0 6 C-0.38218767 4.34385343 -0.71395102 2.67542976 -1 1 C-0.67 0.67 -0.34 0.34 0 0 Z " fill="#333333" transform="translate(568,600)"/>
<path d="M0 0 C-0.3125 2.375 -0.3125 2.375 -1 5 C-1.99 5.66 -2.98 6.32 -4 7 C-4 5.02 -4 3.04 -4 1 C-2 0 -2 0 0 0 Z " fill="#383837" transform="translate(847,590)"/>
<path d="M0 0 C0.99 0.33 1.98 0.66 3 1 C-1.75 5.875 -1.75 5.875 -4 7 C-2.79618552 4.50638429 -1.54571278 2.31856917 0 0 Z " fill="#3B3B3B" transform="translate(867,539)"/>
<path d="M0 0 C0.66 0.33 1.32 0.66 2 1 C2 2.65 2 4.3 2 6 C1.01 6 0.02 6 -1 6 C-1.625 4.125 -1.625 4.125 -2 2 C-1.34 1.34 -0.68 0.68 0 0 Z " fill="#2E2E2E" transform="translate(840,514)"/>
<path d="M0 0 C0.99 0.33 1.98 0.66 3 1 C1.73293765 3.53412471 0.59334288 3.97838008 -2 5 C-2.66 4.67 -3.32 4.34 -4 4 C-2.68 2.68 -1.36 1.36 0 0 Z " fill="#727272" transform="translate(128,460)"/>
</svg>
