<?xml version="1.0" encoding="UTF-8"?>
<svg version="1.1" xmlns="http://www.w3.org/2000/svg" width="1028" height="1024">
<path d="M0 0 C339.24 0 678.48 0 1028 0 C1028 337.92 1028 675.84 1028 1024 C688.76 1024 349.52 1024 0 1024 C0 686.08 0 348.16 0 0 Z " fill="#FEFEFE" transform="translate(0,0)"/>
<path d="M0 0 C6.84181549 4.71620291 10.0765339 10.43571942 12.01171875 18.38671875 C12.443711 21.58813156 12.53689322 24.72115081 12.51171875 27.94921875 C12.50599854 28.81691895 12.50027832 29.68461914 12.49438477 30.57861328 C12.26170915 39.12572107 10.31125984 46.54109778 7.01171875 54.38671875 C6.74939453 55.01336426 6.48707031 55.64000977 6.21679688 56.28564453 C1.0095513 68.34535055 -5.80917463 77.78396231 -17.98828125 83.38671875 C-27.03207626 86.4971877 -38.90623842 87.11577439 -47.94921875 83.51953125 C-51.98264244 81.27874031 -55.50430067 78.39299041 -58.98828125 75.38671875 C-59.03291504 75.95269775 -59.07754883 76.51867676 -59.12353516 77.10180664 C-59.77190054 84.43067718 -60.99400935 91.59886436 -62.36328125 98.82421875 C-62.57210937 99.99404297 -62.7809375 101.16386719 -62.99609375 102.36914062 C-63.2075 103.48740234 -63.41890625 104.60566406 -63.63671875 105.7578125 C-63.91781494 107.27266235 -63.91781494 107.27266235 -64.20458984 108.81811523 C-65.03857352 111.5515552 -65.69922559 112.71020261 -67.98828125 114.38671875 C-70.87109375 114.71484375 -70.87109375 114.71484375 -74.11328125 114.63671875 C-75.18835938 114.62125 -76.2634375 114.60578125 -77.37109375 114.58984375 C-79.98828125 114.38671875 -79.98828125 114.38671875 -80.98828125 113.38671875 C-80.81473643 106.09867079 -79.47019361 98.93996363 -77.98828125 91.82421875 C-77.77606934 90.78322021 -77.56385742 89.74222168 -77.34521484 88.66967773 C-74.79703825 76.27212247 -72.11880336 63.9008376 -69.44091797 51.53076172 C-67.54889204 42.77596971 -65.69485347 34.01729639 -63.95703125 25.23046875 C-63.64111345 23.64510088 -63.32519548 22.05973304 -63.00927734 20.47436523 C-62.42144562 17.52043402 -61.84860632 14.56410089 -61.28369141 11.60571289 C-61.02169062 10.28391141 -60.75918845 8.96220918 -60.49609375 7.640625 C-60.2758252 6.49924072 -60.05555664 5.35785645 -59.82861328 4.18188477 C-58.97108307 1.32951308 -58.38482516 0.10858345 -55.98828125 -1.61328125 C-53.32421875 -1.94140625 -53.32421875 -1.94140625 -50.36328125 -1.86328125 C-49.38101563 -1.8478125 -48.39875 -1.83234375 -47.38671875 -1.81640625 C-44.98828125 -1.61328125 -44.98828125 -1.61328125 -43.98828125 -0.61328125 C-43.91648161 0.90599913 -43.90436118 2.42839357 -43.92578125 3.94921875 C-43.93480469 4.77550781 -43.94382812 5.60179687 -43.953125 6.453125 C-43.96472656 7.09121094 -43.97632813 7.72929687 -43.98828125 8.38671875 C-43.59898437 7.9278125 -43.2096875 7.46890625 -42.80859375 6.99609375 C-32.61542371 -4.1835121 -13.6778999 -6.80314393 0 0 Z " fill="#5E5E5E" transform="translate(694.98828125,478.61328125)"/>
<path d="M0 0 C7.67835471 6.08007057 11.78996932 14.03972091 13.1328125 23.69140625 C13.35885229 27.4007771 13.42648987 31.10063466 13.4453125 34.81640625 C13.45087158 35.74662598 13.45643066 36.6768457 13.4621582 37.63525391 C13.33799359 49.59538417 10.71512449 60.90950561 2.1328125 69.69140625 C-8.60732573 79.26413815 -22.25876095 80.56656097 -36.02734375 80.04296875 C-47.5805212 79.33766823 -57.6530554 75.46081133 -65.7421875 66.94140625 C-73.333667 57.59529234 -74.04727664 46.947255 -74.0546875 35.37890625 C-74.06693359 34.38439453 -74.07917969 33.38988281 -74.09179688 32.36523438 C-74.11428688 20.94780973 -72.06750668 12.77425162 -64.8671875 3.69140625 C-48.68792368 -12.51781917 -18.33181198 -12.84760881 0 0 Z " fill="#676867" transform="translate(438.8671875,484.30859375)"/>
<path d="M0 0 C1.1288562 0.00737183 1.1288562 0.00737183 2.28051758 0.01489258 C11.10887588 0.2009838 17.29576114 2.08055461 23.6875 8.3125 C24.1825 9.3025 24.1825 9.3025 24.6875 10.3125 C24.89246094 9.74660156 25.09742188 9.18070312 25.30859375 8.59765625 C25.57800781 7.86417969 25.84742188 7.13070313 26.125 6.375 C26.39183594 5.64410156 26.65867187 4.91320312 26.93359375 4.16015625 C27.6875 2.3125 27.6875 2.3125 28.6875 1.3125 C30.49677281 1.18762242 32.31146107 1.13679154 34.125 1.125 C35.11371094 1.11082031 36.10242188 1.09664063 37.12109375 1.08203125 C39.6875 1.3125 39.6875 1.3125 41.6875 3.3125 C41.90926203 10.61130172 39.8288702 18.15389964 38.32421875 25.25 C37.97433647 26.92932617 37.97433647 26.92932617 37.61738586 28.64257812 C36.87476544 32.20025167 36.12487249 35.75634882 35.375 39.3125 C34.88301359 41.66787481 34.39147346 44.02334288 33.90039062 46.37890625 C32.72596345 52.00293201 31.53444574 57.62315881 30.33636475 63.2421875 C29.72654611 66.12774074 29.13367972 69.01623995 28.54541016 71.90625 C28.20381431 73.54174269 27.86188103 75.17716496 27.51953125 76.8125 C27.30389778 77.90691406 27.30389778 77.90691406 27.08390808 79.0234375 C25.76134838 85.22210878 25.76134838 85.22210878 22.6875 87.3125 C20.05859375 87.67578125 20.05859375 87.67578125 17.125 87.625 C16.15433594 87.62113281 15.18367187 87.61726562 14.18359375 87.61328125 C11.6875 87.3125 11.6875 87.3125 9.6875 85.3125 C9.5625 82.1875 9.5625 82.1875 9.6875 79.3125 C9.130625 79.71082031 8.57375 80.10914063 8 80.51953125 C-2.39645238 87.73733856 -11.74301994 89.94610089 -24.3125 88.3125 C-31.89535123 86.11102706 -36.3534434 82.06847545 -40.49609375 75.41015625 C-46.34610332 63.89231734 -44.38577288 47.92107432 -40.7109375 35.984375 C-35.02388715 21.05189642 -28.80383694 10.0262875 -14.3125 2.3125 C-9.54698766 0.32192638 -5.1093264 -0.03918456 0 0 Z " fill="#5D5D5C" transform="translate(752.3125,475.6875)"/>
<path d="M0 0 C1.01126953 -0.02900391 2.02253906 -0.05800781 3.06445312 -0.08789062 C4.5272168 -0.10045898 4.5272168 -0.10045898 6.01953125 -0.11328125 C6.91389893 -0.12786377 7.8082666 -0.14244629 8.72973633 -0.1574707 C12.1280791 0.49235644 13.09858766 1.55606688 15.1875 4.3125 C16.49631103 6.9769514 17.50121741 9.72240822 18.5 12.515625 C18.79559814 13.31224548 19.09119629 14.10886597 19.39575195 14.92962646 C20.33677046 17.47021491 21.26294587 20.0158788 22.1875 22.5625 C23.11426233 25.09394308 24.04424838 27.62411443 24.97924805 30.15252686 C25.55892766 31.72223573 26.13364588 33.29378952 26.70239258 34.86749268 C28.54308082 39.87968952 30.72699041 44.57240064 33.1875 49.3125 C33.47882812 48.59408936 33.77015625 47.87567871 34.0703125 47.13549805 C36.9511006 40.03600867 39.8418313 32.94063467 42.7421875 25.84912109 C43.64526047 23.63933816 44.54659461 21.42884288 45.4453125 19.21728516 C46.51860647 16.57922716 47.60135974 13.94528932 48.6875 11.3125 C49.00074219 10.53737061 49.31398438 9.76224121 49.63671875 8.96362305 C52.32816464 2.49137147 52.32816464 2.49137147 55.1875 0.3125 C57.51586914 -0.05981445 57.51586914 -0.05981445 60.22265625 -0.05078125 C61.19654297 -0.05013672 62.17042969 -0.04949219 63.17382812 -0.04882812 C64.18896484 -0.03271484 65.20410156 -0.01660156 66.25 0 C67.77850586 -0.00483398 67.77850586 -0.00483398 69.33789062 -0.00976562 C76.92050859 0.04550859 76.92050859 0.04550859 79.1875 2.3125 C79.06250258 9.32197061 75.7900799 15.43992356 73 21.75 C72.46067721 22.98632737 71.92212081 24.2229893 71.38427734 25.45996094 C69.95264729 28.74695966 68.5107589 32.02936174 67.0668335 35.31097412 C65.62799659 38.58603337 64.19912238 41.86542832 62.76953125 45.14453125 C60.15498569 51.13785414 57.53154442 57.12723356 54.90441895 63.11505127 C52.71923839 68.09674443 50.54004454 73.08103 48.36328125 78.06640625 C47.73097285 79.5140043 47.0986488 80.96159552 46.46630859 82.40917969 C45.55944453 84.4852224 44.65276967 86.56134614 43.74688721 88.63781738 C41.90193807 92.86633689 40.04778059 97.09069486 38.1875 101.3125 C37.72359863 102.37388184 37.25969727 103.43526367 36.78173828 104.52880859 C36.34974121 105.50285645 35.91774414 106.4769043 35.47265625 107.48046875 C35.10148682 108.32246826 34.73031738 109.16446777 34.34790039 110.03198242 C33.12101386 112.44316423 32.08320667 114.37038915 30.1875 116.3125 C27.76733398 116.79833984 27.76733398 116.79833984 24.93359375 116.7734375 C23.40508789 116.76763672 23.40508789 116.76763672 21.84570312 116.76171875 C20.78287109 116.73722656 19.72003906 116.71273437 18.625 116.6875 C17.02495117 116.68556641 17.02495117 116.68556641 15.39257812 116.68359375 C7.46825953 116.59325953 7.46825953 116.59325953 5.1875 114.3125 C5.58113082 110.5439689 6.90270057 107.28121839 8.375 103.8125 C8.81457031 102.76707031 9.25414062 101.72164062 9.70703125 100.64453125 C10.71786504 98.36948845 11.78050714 96.11694308 12.88671875 93.88671875 C13.43972656 92.76910156 13.99273438 91.65148437 14.5625 90.5 C15.08585938 89.48292969 15.60921875 88.46585938 16.1484375 87.41796875 C18.22733825 81.20471275 15.73122779 75.5685257 13.23046875 69.80859375 C12.93116455 69.10006256 12.63186035 68.39153137 12.32348633 67.66152954 C11.68096382 66.1424965 11.03481205 64.62499431 10.38534546 63.10891724 C8.66737495 59.09786318 6.97607151 55.07556391 5.28125 51.0546875 C4.93740768 50.24095169 4.59356537 49.42721588 4.23930359 48.58882141 C0.85201605 40.55688912 -2.40471036 32.47507843 -5.625 24.375 C-5.87698151 23.74197968 -6.12896301 23.10895935 -6.38858032 22.45675659 C-7.50181241 19.65958861 -8.61303852 16.86163821 -9.72192383 14.06274414 C-10.44541564 12.23822315 -11.19646421 10.42437619 -11.9753418 8.62280273 C-13.00465601 5.78220769 -12.6850916 4.16825432 -11.8125 1.3125 C-9.38793794 -1.11206206 -3.25350444 0.03075146 0 0 Z " fill="#686868" transform="translate(546.8125,476.6875)"/>
<path d="M0 0 C0.99837891 -0.04125 1.99675781 -0.0825 3.02539062 -0.125 C3.99283203 -0.1353125 4.96027344 -0.145625 5.95703125 -0.15625 C7.28118042 -0.18428711 7.28118042 -0.18428711 8.63208008 -0.21289062 C12.41757425 0.84315628 14.19563319 3.28313033 16.1875 6.5 C17.40483443 9.06701443 18.29820041 11.6861081 19.16015625 14.390625 C19.40994736 15.13528015 19.65973846 15.8799353 19.917099 16.64715576 C20.70740218 19.01078505 21.47938674 21.37988668 22.25 23.75 C23.27770948 26.86099091 24.31244473 29.96962375 25.34765625 33.078125 C25.59270905 33.81840942 25.83776184 34.55869385 26.09024048 35.32141113 C27.91645439 40.80151796 29.92224313 46.18424148 32.1875 51.5 C34.52284859 47.99697712 35.85365766 44.35020645 37.3046875 40.4296875 C37.60311554 39.63402374 37.90154358 38.83835999 38.20901489 38.01858521 C39.16379449 35.47205986 40.11359112 32.92371822 41.0625 30.375 C42.00462451 27.84784406 42.94792989 25.32115606 43.89456177 22.79568481 C44.48278538 21.22612204 45.06847403 19.65560586 45.65109253 18.08395386 C47.09938385 14.21663585 48.6102894 10.37752509 50.21142578 6.57080078 C50.5173465 5.83870392 50.82326721 5.10660706 51.13845825 4.35232544 C52.1875 2.5 52.1875 2.5 55.1875 0.5 C57.42407227 0.24121094 57.42407227 0.24121094 60.00390625 0.234375 C60.93267578 0.23179687 61.86144531 0.22921875 62.81835938 0.2265625 C63.78580078 0.23429687 64.75324219 0.24203125 65.75 0.25 C66.72130859 0.24226563 67.69261719 0.23453125 68.69335938 0.2265625 C69.62083984 0.22914063 70.54832031 0.23171875 71.50390625 0.234375 C72.35412354 0.23663086 73.20434082 0.23888672 74.08032227 0.24121094 C76.1875 0.5 76.1875 0.5 78.1875 2.5 C77.94508509 8.99325649 75.35918289 14.66875729 72.9375 20.625 C72.16100759 22.56492381 71.38496941 24.50502949 70.609375 26.4453125 C70.21032959 27.43748779 69.81128418 28.42966309 69.40014648 29.4519043 C68.18390924 32.50902569 67.00407745 35.57803368 65.83203125 38.65234375 C63.00218623 46.03435689 60.04482607 53.36175212 57.04858398 60.67749023 C56.42821535 62.19553211 55.81074266 63.7147604 55.19604492 65.23510742 C54.29205689 67.4706099 53.37942806 69.70240885 52.46484375 71.93359375 C52.05999001 72.94153236 52.05999001 72.94153236 51.6469574 73.96983337 C49.79351377 78.45359008 47.66746376 83.02003624 44.1875 86.5 C40.42568467 86.83568667 36.64986606 86.82500177 32.875 86.875 C31.28655273 86.93107422 31.28655273 86.93107422 29.66601562 86.98828125 C21.91518041 87.07641456 21.91518041 87.07641456 18.70703125 84.53515625 C16.73052434 80.58722343 14.87655323 76.64256078 13.1875 72.5625 C12.80722656 71.65935059 12.42695313 70.75620117 12.03515625 69.82568359 C7.35007687 58.62377854 2.8565374 47.34217759 -1.61004639 36.05169678 C-3.24966399 31.90924282 -4.90921646 27.7752605 -6.578125 23.64453125 C-7.40656537 21.57564709 -8.2347085 19.50664387 -9.0625 17.4375 C-9.44535156 16.4985791 -9.82820313 15.5596582 -10.22265625 14.59228516 C-10.56683594 13.72522949 -10.91101563 12.85817383 -11.265625 11.96484375 C-11.56629883 11.218396 -11.86697266 10.47194824 -12.17675781 9.70288086 C-12.90955846 7.16368721 -13.06100147 5.1297914 -12.8125 2.5 C-9.38894504 -0.92355496 -4.64439916 0.04742207 0 0 Z " fill="#6B6B6B" transform="translate(284.8125,476.5)"/>
<path d="M0 0 C0.92876953 -0.00257813 1.85753906 -0.00515625 2.81445312 -0.0078125 C3.78189453 -0.00007813 4.74933594 0.00765625 5.74609375 0.015625 C6.71740234 0.00789063 7.68871094 0.00015625 8.68945312 -0.0078125 C9.61693359 -0.00523437 10.54441406 -0.00265625 11.5 0 C12.35021729 0.00225586 13.20043457 0.00451172 14.07641602 0.00683594 C16.18359375 0.265625 16.18359375 0.265625 18.18359375 2.265625 C18.30859375 5.890625 18.30859375 5.890625 18.18359375 9.265625 C18.83585937 8.78351563 19.488125 8.30140625 20.16015625 7.8046875 C21.03414063 7.17304688 21.908125 6.54140625 22.80859375 5.890625 C23.66710937 5.26414062 24.525625 4.63765625 25.41015625 3.9921875 C31.16411102 0.41014805 36.28063518 -0.05261098 42.87109375 0.015625 C44.00901367 0.00402344 44.00901367 0.00402344 45.16992188 -0.0078125 C49.02710369 0.00580509 50.90450564 0.07956626 54.18359375 2.265625 C54.57177734 4.28100586 54.57177734 4.28100586 54.58203125 6.73046875 C54.58783203 8.05401367 54.58783203 8.05401367 54.59375 9.40429688 C54.58214844 10.32791016 54.57054687 11.25152344 54.55859375 12.203125 C54.57019531 13.12287109 54.58179688 14.04261719 54.59375 14.99023438 C54.58988281 15.87388672 54.58601562 16.75753906 54.58203125 17.66796875 C54.57864746 18.47741943 54.57526367 19.28687012 54.57177734 20.12084961 C54.08121613 22.83127745 53.43958172 23.69934419 51.18359375 25.265625 C48.90283203 25.65039062 48.90283203 25.65039062 46.25390625 25.671875 C45.29355469 25.69378906 44.33320312 25.71570313 43.34375 25.73828125 C42.34214844 25.74730469 41.34054687 25.75632812 40.30859375 25.765625 C31.60905946 25.45935398 31.60905946 25.45935398 24.18359375 29.265625 C22.52932147 32.7096603 21.93147719 35.47990566 21.91235352 39.28369141 C21.9021669 40.25464752 21.89198029 41.22560364 21.88148499 42.22598267 C21.87934494 43.26258026 21.8772049 44.29917786 21.875 45.3671875 C21.84985524 47.57031532 21.82445701 49.77344026 21.79882812 51.9765625 C21.77000668 55.44400378 21.74598182 58.91139533 21.72729492 62.37890625 C21.7057139 65.72941934 21.66629763 69.07936811 21.625 72.4296875 C21.62488419 73.47033356 21.62476837 74.51097961 21.62464905 75.5831604 C21.61131027 76.54781219 21.5979715 77.51246399 21.58422852 78.50634766 C21.57662254 79.77945297 21.57662254 79.77945297 21.56886292 81.07827759 C21.09705905 83.75692166 20.33659465 84.64713004 18.18359375 86.265625 C15.67163086 86.65380859 15.67163086 86.65380859 12.7109375 86.6640625 C11.64681641 86.66792969 10.58269531 86.67179688 9.48632812 86.67578125 C8.37580078 86.66417969 7.26527344 86.65257812 6.12109375 86.640625 C4.44950195 86.65802734 4.44950195 86.65802734 2.74414062 86.67578125 C1.68130859 86.67191406 0.61847656 86.66804687 -0.4765625 86.6640625 C-1.45246338 86.66067871 -2.42836426 86.65729492 -3.43383789 86.65380859 C-4.61320923 86.46165771 -4.61320923 86.46165771 -5.81640625 86.265625 C-8.27411625 82.57906 -8.1052742 79.78563729 -8.09106445 75.52124023 C-8.09873085 74.34034317 -8.09873085 74.34034317 -8.10655212 73.1355896 C-8.12045986 70.53172215 -8.11949087 67.92811894 -8.1171875 65.32421875 C-8.12107301 63.51725668 -8.12540738 61.71029553 -8.13017273 59.90333557 C-8.13763691 56.11627236 -8.13734167 52.32930238 -8.13208008 48.54223633 C-8.12627688 43.68058227 -8.14323589 38.81930813 -8.16642475 33.95771694 C-8.18112747 30.22689062 -8.18203868 26.49615662 -8.17891502 22.76530647 C-8.17942971 20.972283 -8.18469493 19.17925456 -8.19472694 17.38625908 C-8.207011 14.88412325 -8.20034931 12.38273829 -8.1887207 9.88061523 C-8.19636444 9.1351091 -8.20400818 8.38960297 -8.21188354 7.62150574 C-8.19062805 5.5610199 -8.19062805 5.5610199 -7.81640625 2.265625 C-4.60049575 0.12168466 -3.70609691 0.00982026 0 0 Z " fill="#6A6A6A" transform="translate(472.81640625,476.734375)"/>
<path d="M0 0 C1.0725 0.00515625 2.145 0.0103125 3.25 0.015625 C4.85875 0.00789063 4.85875 0.00789063 6.5 0 C9.25 0.265625 9.25 0.265625 11.25 2.265625 C11.77403259 4.08906555 11.77403259 4.08906555 12.16381836 6.32543945 C12.31415024 7.16424149 12.46448212 8.00304352 12.61936951 8.86726379 C12.77462601 9.7786058 12.92988251 10.68994781 13.08984375 11.62890625 C13.25746719 12.57187057 13.42509064 13.5148349 13.59779358 14.4863739 C14.13518554 17.51569219 14.66194325 20.54673291 15.1875 23.578125 C15.87960938 27.53335569 16.57647244 31.48771899 17.27734375 35.44140625 C17.44503265 36.38944122 17.61272156 37.3374762 17.78549194 38.3142395 C19.04767348 45.35836532 20.50780761 52.32253684 22.25 59.265625 C22.91 59.265625 23.57 59.265625 24.25 59.265625 C25.90292155 57.02647534 27.43331862 54.78969547 28.9375 52.453125 C29.34677734 51.82986328 29.75605469 51.20660156 30.17773438 50.56445312 C35.12108516 43.0089477 39.92580232 35.3623076 44.75 27.73046875 C45.91666667 25.88802083 47.08333333 24.04557292 48.25 22.203125 C48.8275 21.28724609 49.405 20.37136719 50 19.42773438 C60.24613153 3.26949347 60.24613153 3.26949347 63.25 0.265625 C65.26964199 0.19318447 67.29167124 0.18185312 69.3125 0.203125 C70.41722656 0.21214844 71.52195312 0.22117187 72.66015625 0.23046875 C73.51480469 0.24207031 74.36945313 0.25367188 75.25 0.265625 C76.41430664 1.95922852 76.41430664 1.95922852 77.25 4.265625 C76.30639648 6.58959961 76.30639648 6.58959961 74.62109375 9.16796875 C74.00451904 10.13033447 73.38794434 11.0927002 72.75268555 12.08422852 C72.07117432 13.11346436 71.38966309 14.1427002 70.6875 15.203125 C69.28574825 17.37714649 67.88471973 19.55163445 66.484375 21.7265625 C65.77216797 22.82194336 65.05996094 23.91732422 64.32617188 25.04589844 C61.28640453 29.7599685 58.36450703 34.54359428 55.4375 39.328125 C51.49923798 45.71805553 47.47318716 52.02706773 43.26831055 58.24438477 C39.15404403 64.34897587 35.20662024 70.55809286 31.25 76.765625 C9.22044942 111.29517558 9.22044942 111.29517558 4.25 116.265625 C1.2109375 116.4609375 1.2109375 116.4609375 -2.375 116.390625 C-3.56351563 116.37257813 -4.75203125 116.35453125 -5.9765625 116.3359375 C-6.89179687 116.31273437 -7.80703125 116.28953125 -8.75 116.265625 C-9.41796875 114.55078125 -9.41796875 114.55078125 -9.75 112.265625 C-8.73828125 110.13671875 -8.73828125 110.13671875 -7.0625 107.703125 C-6.42828125 106.74535156 -5.7940625 105.78757812 -5.140625 104.80078125 C-3.84406035 102.87799624 -2.54151738 100.95942455 -1.23632812 99.04248047 C0.42398262 96.58739312 2.05603954 94.11495442 3.6875 91.640625 C4.23172607 90.85357178 4.77595215 90.06651855 5.33666992 89.25561523 C9.47510464 82.94030459 10.18968052 78.4562967 8.85620117 71.09033203 C8.33885164 68.75489795 7.74199023 66.45168093 7.125 64.140625 C4.47210254 53.6515508 2.3993341 43.08115935 0.39404297 32.45458984 C0.15830566 31.20758301 -0.07743164 29.96057617 -0.3203125 28.67578125 C-0.55137695 27.45262207 -0.78244141 26.22946289 -1.02050781 24.96923828 C-1.98853669 20.05458032 -3.07947026 15.17000874 -4.19482422 10.28686523 C-4.7085436 7.49122875 -5.01356877 5.0938729 -4.75 2.265625 C-2.75 0.265625 -2.75 0.265625 0 0 Z " fill="#5E5E5D" transform="translate(804.75,476.734375)"/>
<path d="M0 0 C0.99 0 1.98 0 3 0 C14.09207346 20.20412566 23.1041953 40.69169516 29 63 C29.29197266 64.07000244 29.29197266 64.07000244 29.58984375 65.16162109 C31.49833434 72.16721605 33.2545994 78.66376536 33 86 C31.3962669 86.64690922 29.79199694 87.29248764 28.1875 87.9375 C27.29417969 88.29714844 26.40085937 88.65679688 25.48046875 89.02734375 C22.07969196 90.36087669 19.44932714 91.12212012 15.8125 91.0625 C14.554375 91.041875 13.29625 91.02125 12 91 C11.07380859 89.25976562 11.07380859 89.25976562 10.12890625 87.484375 C5.03479773 78.03721137 -0.2382166 69.36199193 -7 61 C-7.68320313 60.11441406 -8.36640625 59.22882812 -9.0703125 58.31640625 C-14.033781 52.00675718 -19.4826441 46.37028942 -25.3034668 40.85791016 C-28.49233288 37.78038159 -30.75864455 35.389959 -32 31 C-31.195625 30.38125 -30.39125 29.7625 -29.5625 29.125 C-26.96125481 27.25835959 -26.96125481 27.25835959 -26 25 C-23 26 -23 26 -21 28.5625 C-20.01 29.7690625 -20.01 29.7690625 -19 31 C-18.01 31 -17.02 31 -16 31 C-16.45036291 27.33625187 -16.45036291 27.33625187 -18.5625 24.4375 C-19.036875 23.963125 -19.51125 23.48875 -20 23 C-20 21.68 -20 20.36 -20 19 C-17 17 -17 17 -14 17 C-12.46484375 18.86328125 -12.46484375 18.86328125 -10.9375 21.3125 C-10.43089844 22.11300781 -9.92429688 22.91351563 -9.40234375 23.73828125 C-8.93957031 24.48464844 -8.47679687 25.23101562 -8 26 C-7.34 26.99 -6.68 27.98 -6 29 C-5.01 29 -4.02 29 -3 29 C-3.65934816 23.73450131 -6.13014672 21.10041317 -9.50390625 17.18359375 C-11 15 -11 15 -11 11 C-8.84765625 8.7109375 -8.84765625 8.7109375 -6.0625 6.375 C-2.53196761 3.58529376 -2.53196761 3.58529376 0 0 Z " fill="#787878" transform="translate(252,477)"/>
<path d="M0 0 C3.67846164 1.8793887 4.88373315 4.60271257 6.375 8.375 C6.71827079 11.0896998 6.89981816 13.48012203 6.875 16.1875 C6.86927979 16.92307129 6.86355957 17.65864258 6.85766602 18.41650391 C6.44695013 31.43495304 2.22809808 45.89830313 -7.41796875 55.08203125 C-14.57055705 60.56094547 -21.90647372 61.14146385 -30.625 60.375 C-35.39733575 58.75581466 -37.88388217 56.5845738 -40.625 52.375 C-44.98461594 41.14663666 -42.66279395 29.39481266 -38.625 18.375 C-34.60495932 9.66855321 -28.81783659 4.25417338 -20.625 -0.625 C-14.22405026 -2.75864991 -6.20971117 -2.78685362 0 0 Z " fill="#FCFCFC" transform="translate(684.625,490.625)"/>
<path d="M0 0 C4.77737779 2.1183549 6.45954845 4.35733531 8.41796875 9.30859375 C10.08297868 24.6201557 6.5928293 39.0010476 -2.24609375 51.69921875 C-6.85093728 57.3764231 -11.38944464 60.86159003 -18.76953125 61.6484375 C-29.97963787 61.96690644 -29.97963787 61.96690644 -34.58203125 58.30859375 C-36.20087127 56.03801295 -37.34228842 53.83399581 -38.58203125 51.30859375 C-38.91203125 50.64859375 -39.24203125 49.98859375 -39.58203125 49.30859375 C-40.88858055 34.33682394 -37.48131775 19.00884624 -27.8515625 7.18359375 C-20.180211 -0.94499062 -10.84372918 -2.90369148 0 0 Z " fill="#FCFCFC" transform="translate(763.58203125,489.69140625)"/>
<path d="M0 0 C4.50627453 1.49086092 7.90664366 3.99970385 11.5625 6.9375 C12.17818848 7.42839111 12.79387695 7.91928223 13.42822266 8.42504883 C22.67951551 15.88111913 31.18068624 24.09405045 39.625 32.4375 C40.3247998 33.12416748 41.02459961 33.81083496 41.74560547 34.51831055 C42.39932129 35.170979 43.05303711 35.82364746 43.7265625 36.49609375 C44.31002441 37.07544678 44.89348633 37.6547998 45.49462891 38.25170898 C47.08354588 40.09702758 48.12605538 41.72721997 49 44 C48.505 44.99 48.505 44.99 48 46 C43.08190142 44.12024597 39.93890744 40.00358825 36.421875 36.25585938 C33.68545912 33.41924645 31.88324057 31.7130038 28 31 C30.59076836 35.85548764 34.17829454 39.28204504 38.1484375 42.98242188 C42.63364133 47.29279922 42.63364133 47.29279922 43 51 C41.68 51.66 40.36 52.32 39 53 C38.48614746 52.48091064 37.97229492 51.96182129 37.44287109 51.42700195 C35.08960613 49.05281554 32.73234415 46.68263594 30.375 44.3125 C29.16263672 43.08756836 29.16263672 43.08756836 27.92578125 41.83789062 C21.74530789 35.59973689 21.74530789 35.59973689 15 30 C12.70291681 29.88394923 12.70291681 29.88394923 11 31 C10.67 31.66 10.34 32.32 10 33 C10.54398438 33.226875 11.08796875 33.45375 11.6484375 33.6875 C14.69541454 35.38813835 17.09710019 37.62835998 19.625 40 C20.14481445 40.48186768 20.66462891 40.96373535 21.20019531 41.46020508 C26.26001759 46.18049881 31.1555795 51.0591198 36 56 C34.85996765 59.42009706 33.77829802 60.28869442 31.0625 62.5625 C28.96656037 64.33130568 26.94005112 66.05994888 25 68 C21.2591381 67.72387483 19.48367042 65.82336405 16.953125 63.2109375 C15.8084375 62.04498047 15.8084375 62.04498047 14.640625 60.85546875 C13.85171875 60.03691406 13.0628125 59.21835937 12.25 58.375 C7.22111381 53.2036287 2.17799131 48.1897182 -3.29882812 43.4921875 C-5.31639463 41.7224736 -7.12341806 39.8448379 -8.875 37.8125 C-9.42929688 37.17957031 -9.98359375 36.54664063 -10.5546875 35.89453125 C-13.59394925 31.91063409 -14.62239059 28.60096278 -14.5078125 23.625 C-12.79044497 14.74753091 -5.64883046 6.79920019 0 0 Z " fill="#4D4D4C" transform="translate(192,435)"/>
<path d="M0 0 C1.11246094 -0.01933594 2.22492188 -0.03867187 3.37109375 -0.05859375 C7.32313151 0.5557377 8.82311843 1.53836033 11.5625 4.4375 C15.16831143 10.51293721 15.04705669 16.37377669 15 23.3125 C15.0299707 24.86904297 15.0299707 24.86904297 15.06054688 26.45703125 C15.05632543 33.15225064 14.22540673 38.71355715 10.5625 44.4375 C5.79917013 48.18011633 0.38394695 48.12008172 -5.4375 47.4375 C-9.91089551 45.88153634 -11.55317977 43.16547799 -13.58642578 38.96533203 C-15.29298444 33.89656889 -15.00923517 28.66845803 -14.9375 23.375 C-14.95296875 22.22966797 -14.9684375 21.08433594 -14.984375 19.90429688 C-14.94805981 12.05567673 -14.17200385 7.29832956 -8.58984375 1.52734375 C-5.64394456 0.03568155 -3.29052334 0.00380407 0 0 Z " fill="#FAFAFA" transform="translate(408.4375,496.5625)"/>
<path d="M0 0 C3.62912661 -0.51457765 4.95303354 -0.03012495 8.09375 1.984375 C9.24035315 2.89229887 10.37520669 3.81519279 11.5 4.75 C12.10875977 5.24226074 12.71751953 5.73452148 13.34472656 6.24169922 C19.29653824 11.11541787 24.92009044 16.32974082 30.51123047 21.60839844 C32.74340932 23.694889 35.02850611 25.7205581 37.3125 27.75 C40.42264608 30.5552298 43.52639913 33.36462754 46.5625 36.25 C47.20316406 36.85328125 47.84382813 37.4565625 48.50390625 38.078125 C50.28283488 40.36332835 50.64205258 42.15603416 51 45 C48 47 48 47 44 47 C42.02734375 44.98046875 42.02734375 44.98046875 39.9375 42.1875 C32.78108179 33.06335959 24.63937178 25.28806456 15.5703125 18.06640625 C13.21035598 16.16911597 10.94283139 14.20700777 8.6875 12.1875 C5.61561293 9.46397126 2.47973782 7.17483614 -1 5 C-0.67 3.35 -0.34 1.7 0 0 Z " fill="#4E4E4E" transform="translate(198,428)"/>
<path d="M0 0 C5.2639909 2.98506801 9.89039766 7.73369298 11.8125 13.5 C11.88220052 15.89490986 11.89698003 18.29167691 11.875 20.6875 C11.86597656 21.95980469 11.85695312 23.23210937 11.84765625 24.54296875 C11.83605469 25.51878906 11.82445312 26.49460937 11.8125 27.5 C7.88892552 25.88386099 5.09862468 23.18664661 2.0625 20.3125 C0.9928035 19.31574476 -0.07750982 18.31965107 -1.1484375 17.32421875 C-1.66760742 16.84001465 -2.18677734 16.35581055 -2.72167969 15.85693359 C-7.72241558 11.22767142 -12.9321829 6.83563661 -18.1875 2.5 C-17.8575 1.51 -17.5275 0.52 -17.1875 -0.5 C-11.55502643 -2.37749119 -5.48141528 -2.43023685 0 0 Z " fill="#4F4F4E" transform="translate(234.1875,430.5)"/>
<path d="M0 0 C0.04938149 4.37823917 0.0857104 8.75633146 0.10986328 13.13476562 C0.11993043 14.6247032 0.13358518 16.11462097 0.15087891 17.60449219 C0.17509653 19.74419028 0.18647564 21.88362753 0.1953125 24.0234375 C0.20578613 25.31169434 0.21625977 26.59995117 0.22705078 27.92724609 C0 31 0 31 -2 33 C-4.5 33.3125 -4.5 33.3125 -7 33 C-9.84997168 28.72504249 -10.26063885 24.24884078 -11.21875 19.25 C-11.83143039 15.87925165 -11.83143039 15.87925165 -14 13 C-14.4140625 10.73828125 -14.4140625 10.73828125 -14.625 8.3125 C-14.69976562 7.50425781 -14.77453125 6.69601562 -14.8515625 5.86328125 C-14.90054687 5.24839844 -14.94953125 4.63351562 -15 4 C-13.25307205 3.32532438 -11.50231475 2.66055844 -9.75 2 C-8.77546875 1.62875 -7.8009375 1.2575 -6.796875 0.875 C-4 0 -4 0 0 0 Z " fill="#838484" transform="translate(288,584)"/>
<path d="M0 0 C0 2.64 0 5.28 0 8 C-1.72681437 8.50806447 -3.45657979 9.00610467 -5.1875 9.5 C-6.15042969 9.7784375 -7.11335938 10.056875 -8.10546875 10.34375 C-10.85345876 10.96677608 -13.19598416 11.12302812 -16 11 C-16.66 9.02 -17.32 7.04 -18 5 C-16.41800369 4.35089846 -14.83434276 3.70585306 -13.25 3.0625 C-12.36828125 2.70285156 -11.4865625 2.34320312 -10.578125 1.97265625 C-6.76133592 0.53268582 -4.131151 0 0 0 Z " fill="#888887" transform="translate(286,570)"/>
<path d="M0 0 C2.37948772 0.17625835 3.70225849 0.69719773 5.37890625 2.40234375 C6.62115486 3.90649092 7.81376056 5.45129851 9 7 C8.34 8.32 7.68 9.64 7 11 C3.63426067 9.55754029 1.24989611 7.916532 -1 5 C-0.75 2.25 -0.75 2.25 0 0 Z " fill="#575757" transform="translate(226,477)"/>
<path d="M0 0 C0.33 0 0.66 0 1 0 C1.33 2.64 1.66 5.28 2 8 C2.33 8 2.66 8 3 8 C3.02689216 9.47906892 3.04634621 10.95827483 3.0625 12.4375 C3.07410156 13.26121094 3.08570313 14.08492187 3.09765625 14.93359375 C3 17 3 17 2 18 C-0.5 18.125 -0.5 18.125 -3 18 C-4 17 -4 17 -4.0625 14.4375 C-4.041875 13.633125 -4.02125 12.82875 -4 12 C-3.01 11.67 -2.02 11.34 -1 11 C-0.67 7.37 -0.34 3.74 0 0 Z " fill="#767777" transform="translate(284,599)"/>
<path d="M0 0 C3.11728368 1.36508501 5.08663738 2.86919698 7.3125 5.4375 C7.84488281 6.03433594 8.37726563 6.63117188 8.92578125 7.24609375 C9.45751953 8.11427734 9.45751953 8.11427734 10 9 C9.67 9.99 9.34 10.98 9 12 C5.54798361 10.52278578 3.35038064 8.56205999 0.75 5.875 C0.04359375 5.15054687 -0.6628125 4.42609375 -1.390625 3.6796875 C-1.92171875 3.12539063 -2.4528125 2.57109375 -3 2 C-2.01 1.34 -1.02 0.68 0 0 Z " fill="#5A5A5A" transform="translate(231,469)"/>
<path d="M0 0 C0.66 0 1.32 0 2 0 C2 2.97 2 5.94 2 9 C1.34 9 0.68 9 0 9 C-0.103125 9.598125 -0.20625 10.19625 -0.3125 10.8125 C-1.08876455 13.28243264 -2.07088921 14.32251235 -4 16 C-5.16161779 13.13421241 -4.9946154 11.98369837 -4.00390625 8.984375 C-3.52824219 7.91703125 -3.05257812 6.8496875 -2.5625 5.75 C-2.08941406 4.67234375 -1.61632812 3.5946875 -1.12890625 2.484375 C-0.75636719 1.66453125 -0.38382813 0.8446875 0 0 Z " fill="#737373" transform="translate(557,576)"/>
<path d="M0 0 C3.3 0 6.6 0 10 0 C10.33 0.99 10.66 1.98 11 3 C7.69005287 4.65497356 4.00877 4.10084335 0.375 4.0625 C-0.42679688 4.05798828 -1.22859375 4.05347656 -2.0546875 4.04882812 C-4.03649006 4.03703168 -6.01825433 4.01909605 -8 4 C-8 3.67 -8 3.34 -8 3 C-6.865625 2.87625 -5.73125 2.7525 -4.5625 2.625 C-3.386875 2.41875 -2.21125 2.2125 -1 2 C-0.67 1.34 -0.34 0.68 0 0 Z " fill="#737372" transform="translate(736,560)"/>
<path d="M0 0 C2.6015625 -0.29296875 2.6015625 -0.29296875 5.625 -0.1875 C7.12933594 -0.14689453 7.12933594 -0.14689453 8.6640625 -0.10546875 C9.43492187 -0.07066406 10.20578125 -0.03585937 11 0 C11 0.99 11 1.98 11 3 C6.71 3 2.42 3 -2 3 C-1.34 2.01 -0.68 1.02 0 0 Z " fill="#585858" transform="translate(640,478)"/>
<path d="M0 0 C1.22589844 0.01353516 1.22589844 0.01353516 2.4765625 0.02734375 C3.41628906 0.04474609 3.41628906 0.04474609 4.375 0.0625 C4.705 1.0525 5.035 2.0425 5.375 3.0625 C1.745 3.0625 -1.885 3.0625 -5.625 3.0625 C-5.955 2.4025 -6.285 1.7425 -6.625 1.0625 C-4.21954362 -0.14022819 -2.67503047 -0.03821472 0 0 Z " fill="#757574" transform="translate(769.625,559.9375)"/>
<path d="M0 0 C3.96 0 7.92 0 12 0 C12.33 1.65 12.66 3.3 13 5 C12.67 4.34 12.34 3.68 12 3 C11.38511719 3.03480469 10.77023437 3.06960938 10.13671875 3.10546875 C8.92435547 3.14607422 8.92435547 3.14607422 7.6875 3.1875 C6.48673828 3.23970703 6.48673828 3.23970703 5.26171875 3.29296875 C3 3 3 3 0 0 Z " fill="#767675" transform="translate(802,477)"/>
<path d="M0 0 C1.32 0 2.64 0 4 0 C3.67 0.99 3.34 1.98 3 3 C-2.28 3 -7.56 3 -13 3 C-13 2.67 -13 2.34 -13 2 C-6.565 1.505 -6.565 1.505 0 1 C0 0.67 0 0.34 0 0 Z " fill="#626262" transform="translate(292,478)"/>
<path d="M0 0 C-0.99 0.66 -1.98 1.32 -3 2 C-3 2.33 -3 2.66 -3 3 C-5.97 3 -8.94 3 -12 3 C-8.61613364 -0.38386636 -4.56431325 -1.75550509 0 0 Z " fill="#797979" transform="translate(397,478)"/>
<path d="M0 0 C2 3 2 3 1.75 5.5 C1 8 1 8 -1 11 C-1.125 3.375 -1.125 3.375 0 0 Z " fill="#797979" transform="translate(710,520)"/>
</svg>
