<?xml version="1.0" encoding="UTF-8"?>
<svg version="1.1" xmlns="http://www.w3.org/2000/svg" width="2062" height="512">
<path d="M0 0 C680.46 0 1360.92 0 2062 0 C2062 168.96 2062 337.92 2062 512 C1381.54 512 701.08 512 0 512 C0 343.04 0 174.08 0 0 Z " fill="#FEFEFE" transform="translate(0,0)"/>
<path d="M0 0 C54.5325 -0.061875 109.065 -0.12375 165.25 -0.1875 C182.43223633 -0.21481201 199.61447266 -0.24212402 217.31738281 -0.27026367 C238.39208984 -0.28381348 238.39208984 -0.28381348 248.27606201 -0.28633118 C255.13986339 -0.28911212 262.00359027 -0.30004528 268.86737061 -0.31672668 C276.80725741 -0.33599444 284.74707358 -0.3444683 292.68698387 -0.34033485 C296.73760358 -0.33854862 300.78806601 -0.34112392 304.83865595 -0.35764539 C324.08944275 -0.43235042 342.88332446 0.50131477 362 3 C363.77599042 3.22298691 365.55207191 3.44525028 367.32826614 3.66660786 C371.51718028 4.19158525 375.69681667 4.77099682 379.875 5.375 C380.60527405 5.47949463 381.3355481 5.58398926 382.08795166 5.69165039 C393.70348589 7.36665114 405.1198965 9.51624552 416.50244141 12.38818359 C419.08050176 13.01972018 421.66637507 13.58855691 424.26171875 14.14453125 C437.01335348 16.91932825 448.99243985 20.89002705 461 26 C461.69802734 26.29664551 462.39605469 26.59329102 463.11523438 26.89892578 C477.27339901 33.06582784 486.92253275 41.72401212 493 56 C499.04540325 71.59610255 503.6182794 87.63212153 507 104 C507.2057666 104.98226562 507.4115332 105.96453125 507.62353516 106.9765625 C517.98893184 156.99371475 521.427986 207.53809382 521.31805801 258.50432968 C521.31239867 261.17277842 521.30959061 263.84122077 521.30697632 266.50967407 C521.271634 291.33383692 521.09293407 316.07509263 518.25646973 340.76696777 C517.98484529 343.1319491 517.72418633 345.49800708 517.46386719 347.86425781 C515.26713486 367.54611011 512.18907403 386.83792278 507.65820312 406.13037109 C507.07555279 408.67060553 506.54454776 411.21155904 506.046875 413.76953125 C501.58583322 436.38832812 494.75074157 466.10328963 474.98046875 480.14453125 C445.91845511 497.83886552 407.29752435 504.28097379 374 509 C373.15177776 509.12407907 372.30355551 509.24815814 371.42962956 509.37599719 C352.77078876 512.04142901 334.37225995 512.42149421 315.57653949 512.34821819 C311.26458891 512.33489624 306.95264588 512.33951634 302.64068031 512.34167194 C294.31160878 512.34325189 285.98263612 512.32954829 277.65358982 512.31016796 C267.99732216 512.28838179 258.34111203 512.28617362 248.68481445 512.28381348 C223.24819421 512.26812739 197.81159557 512.22624359 172.375 512.1875 C87.049375 512.0946875 87.049375 512.0946875 0 512 C0 343.04 0 174.08 0 0 Z " fill="#70706F" transform="translate(0,0)"/>
<path d="M0 0 C1.04368744 0.00444122 2.08737488 0.00888245 3.16268921 0.01345825 C4.93429916 0.01368484 4.93429916 0.01368484 6.74169922 0.01391602 C8.02192963 0.02423859 9.30216003 0.03456116 10.6211853 0.04519653 C12.58129044 0.04944138 12.58129044 0.04944138 14.58099365 0.05377197 C18.05644361 0.06141127 21.53172663 0.08106213 25.0071106 0.10317993 C28.55292502 0.12363208 32.0987664 0.13277233 35.6446228 0.14285278 C42.60302475 0.16430787 49.56131576 0.1984473 56.5196228 0.24050903 C59.33235225 5.01082421 61.77543543 9.7961531 63.9961853 14.86550903 C64.31909546 15.59346176 64.64200562 16.32141449 64.97470093 17.07142639 C65.67091126 18.64105203 66.36563004 20.21133995 67.05899048 21.78222656 C68.93218931 26.02385768 70.81897905 30.25941966 72.7071228 34.49441528 C73.29464828 35.81234825 73.29464828 35.81234825 73.89404297 37.15690613 C78.2319591 46.86698631 82.67903679 56.52611865 87.1446228 66.17800903 C87.51549011 66.98004761 87.88635742 67.78208618 88.26846313 68.60842896 C89.34361589 70.93275385 90.41968079 73.25665368 91.4961853 75.58035278 C92.00346664 76.67602066 92.00346664 76.67602066 92.52099609 77.79382324 C94.1986079 81.41203923 95.88765273 85.0242658 97.59677124 88.62771606 C97.92486786 89.32208267 98.25296448 90.01644928 98.59100342 90.7318573 C99.20979786 92.03993007 99.83171884 93.34652999 100.45727539 94.65138245 C102.5196228 99.01718384 102.5196228 99.01718384 102.5196228 101.24050903 C103.1796228 101.24050903 103.8396228 101.24050903 104.5196228 101.24050903 C104.68687866 100.6952356 104.85413452 100.14996216 105.02645874 99.58816528 C106.84330776 93.88155226 109.12394328 88.60543431 111.7696228 83.24050903 C115.94398892 74.63338991 119.94117017 65.9572934 123.8742981 57.23834229 C130.8469698 41.78476373 138.04381342 26.45818022 145.5196228 11.24050903 C145.9949646 10.27226196 146.4703064 9.30401489 146.96005249 8.306427 C147.41025757 7.39651001 147.86046265 6.48659302 148.3243103 5.54910278 C148.92348267 4.33758545 148.92348267 4.33758545 149.53475952 3.10159302 C150.5196228 1.24050903 150.5196228 1.24050903 151.5196228 0.24050903 C153.3192594 0.13627967 155.1229888 0.10196802 156.92562866 0.09524536 C158.65763771 0.08567558 158.65763771 0.08567558 160.42463684 0.07591248 C161.68188065 0.07479965 162.93912445 0.07368683 164.23446655 0.07254028 C165.51567886 0.06921188 166.79689117 0.06588348 168.1169281 0.06245422 C170.8331181 0.05645712 173.54927625 0.05461491 176.26547241 0.0552063 C179.75052872 0.05530794 183.23538135 0.04165687 186.72038937 0.02443409 C190.03758513 0.01065837 193.3547425 0.01122579 196.67196655 0.01004028 C198.55479591 -0.00073799 198.55479591 -0.00073799 200.47566223 -0.01173401 C201.63348709 -0.00865738 202.79131195 -0.00558075 203.98422241 -0.00241089 C205.51858192 -0.00454842 205.51858192 -0.00454842 207.0839386 -0.00672913 C209.5196228 0.24050903 209.5196228 0.24050903 211.5196228 2.24050903 C211.92303467 4.08071899 211.92303467 4.08071899 212.1421814 6.35574341 C212.22936432 7.21706375 212.31654724 8.07838409 212.40637207 8.96580505 C212.49272919 9.91239487 212.5790863 10.85898468 212.6680603 11.83425903 C212.76545502 12.82866501 212.86284973 13.82307098 212.9631958 14.84761047 C213.28299536 18.14442228 213.5891368 21.44234239 213.8946228 24.74050903 C214.11270572 27.02675583 214.33113446 29.31296967 214.54989624 31.59915161 C216.30777557 50.16469276 217.83671165 68.74836973 219.26327515 87.34207153 C219.34111237 88.35183548 219.41894958 89.36159943 219.49914551 90.40196228 C219.64272675 92.2723299 219.78454198 94.1428344 219.9241333 96.01350403 C220.21259281 99.78531278 220.53707453 103.53234202 221.0418396 107.2817688 C221.5746269 111.69625324 221.786238 116.06632534 221.96102905 120.50613403 C222.3817709 129.87023691 223.20229582 139.15695836 224.19088745 148.47628784 C224.64984582 152.81050886 225.08947362 157.14670563 225.53134155 161.48269653 C225.61796051 162.32901642 225.70457947 163.1753363 225.79382324 164.04730225 C226.50945446 171.06542893 227.17282157 178.08613675 227.7696228 185.11550903 C227.84946411 186.02139771 227.92930542 186.92728638 228.01156616 187.86062622 C229.04738964 200.41504621 229.04738964 200.41504621 228.5196228 205.24050903 C226.15515485 207.60497699 225.68181958 207.49776052 222.47225952 207.53103638 C221.63733978 207.54379608 220.80242004 207.55655579 219.94219971 207.56970215 C219.0370462 207.5719278 218.1318927 207.57415344 217.1993103 207.57644653 C216.26668365 207.58310333 215.33405701 207.58976013 214.37316895 207.59661865 C212.39433771 207.60675973 210.41547218 207.61143522 208.43661499 207.6111145 C205.42723944 207.61546191 202.41936114 207.65169401 199.4102478 207.68972778 C197.48577363 207.69560101 195.56129252 207.69956701 193.6368103 207.70144653 C192.74380219 207.71581757 191.85079407 207.7301886 190.9307251 207.74499512 C184.96899257 207.7020311 180.51304742 206.58166378 175.5196228 203.24050903 C173.4961853 201.12722778 173.4961853 201.12722778 172.1446228 198.92800903 C171.68313843 198.21000122 171.22165405 197.49199341 170.7461853 196.75222778 C167.17987196 189.44923581 167.07584068 182.22089734 166.77352905 174.21707153 C166.68827764 172.25737671 166.60301542 170.29768232 166.5172739 168.33800888 C166.42791978 166.26584399 166.34238486 164.19355177 166.25784302 162.1211853 C165.96588532 154.9932711 165.63992601 147.86687254 165.31259155 140.74050903 C165.2802668 140.0326186 165.24794205 139.32472816 165.21463776 138.59538651 C164.62159825 125.67218833 163.85012747 112.76713945 162.8946228 99.86550903 C162.83227448 99.00016541 162.76992615 98.13482178 162.70568848 97.24325562 C162.88153088 89.12430055 162.88153088 89.12430055 160.5196228 82.24050903 C160.29524536 82.86465698 160.07086792 83.48880493 159.83969116 84.13186646 C153.05393148 102.92073082 145.66521406 121.42740709 138.09286499 139.9105835 C136.32858865 144.22678515 134.60304183 148.55506898 132.92196655 152.90457153 C132.55861206 153.84051147 132.19525757 154.77645142 131.82089233 155.74075317 C131.18938966 157.37720269 130.56584319 159.01675963 129.95272827 160.66018677 C128.37252496 164.73775129 127.0584435 167.62661537 123.5196228 170.24050903 C120.53202704 170.83410744 117.59279384 170.80109121 114.55477905 170.77175903 C113.68445541 170.77558594 112.81413177 170.77941284 111.91743469 170.78335571 C110.07917116 170.7860742 108.24086891 170.77871738 106.40267944 170.76199341 C103.59507528 170.74060769 100.79003743 170.76178276 97.98251343 170.78738403 C96.19409634 170.78474024 94.40568084 170.77961419 92.61727905 170.77175903 C91.78068253 170.77985596 90.944086 170.78795288 90.08213806 170.79629517 C86.27104794 170.73527913 84.01024045 170.51636716 80.63778687 168.62014771 C78.09425125 165.76262792 76.91308238 163.20435533 75.53134155 159.63504028 C75.27092072 158.97480865 75.01049988 158.31457703 74.7421875 157.63433838 C73.88293595 155.44582085 73.04502527 153.24977933 72.2071228 151.05300903 C71.60646358 149.50961113 71.00446648 147.96673331 70.4012146 146.42434692 C69.11228564 143.12220364 67.83216385 139.81681898 66.55770874 136.50906372 C64.44995892 131.04671534 62.30278434 125.60026066 60.1524353 120.15457153 C59.06559313 117.39568544 57.97956147 114.63648236 56.89404297 111.8770752 C56.19172458 110.09200335 55.48875263 108.30718848 54.78509521 106.52264404 C53.79266535 104.00183606 52.80579961 101.4789175 51.82040405 98.95535278 C51.53033478 98.22116119 51.2402655 97.4869696 50.94140625 96.73052979 C48.83592725 91.31559409 47.12292052 85.82354285 45.5196228 80.24050903 C44.77853295 89.7978623 44.04650077 99.35588299 43.3212204 108.91444778 C43.20383976 110.46053092 43.08627191 112.00659986 42.96851349 113.55265427 C41.39617157 134.20054628 39.90507986 154.83384492 39.24081421 175.53543091 C38.87508298 185.72316771 38.24128032 194.77868544 31.4102478 202.76785278 C25.56204413 207.32316846 19.85416661 207.67878157 12.71884155 207.60379028 C11.34246269 207.60453804 11.34246269 207.60453804 9.9382782 207.6053009 C8.01118793 207.60297183 6.08409396 207.59331265 4.15707397 207.57669067 C1.19887385 207.55294281 -1.75843309 207.5561577 -4.71670532 207.56277466 C-6.59236176 207.55720244 -8.4680144 207.55009544 -10.34365845 207.54129028 C-11.67328362 207.54265739 -11.67328362 207.54265739 -13.0297699 207.54405212 C-19.24929797 207.47158826 -19.24929797 207.47158826 -21.4803772 205.24050903 C-22.66557697 195.01891784 -20.85494729 184.05478251 -19.98428345 173.83425903 C-19.82939863 171.97771988 -19.67485855 170.12115193 -19.52064514 168.26455688 C-19.19841886 164.39819809 -18.8728072 160.53214469 -18.54458618 156.66629028 C-18.12418058 151.71266433 -17.71119891 146.75845327 -17.30056858 141.80400848 C-16.98310893 137.98113791 -16.6623516 134.15854981 -16.34052849 130.33604431 C-16.18694931 128.50847249 -16.03425917 126.68082573 -15.88247871 124.85310364 C-15.67041194 122.3068198 -15.45404962 119.76093723 -15.23648071 117.21511841 C-15.17462082 116.46289001 -15.11276093 115.71066162 -15.04902649 114.93563843 C-14.76080578 111.61250419 -14.39268927 108.45171171 -13.4803772 105.24050903 C-13.31442736 103.61083658 -13.18686351 101.97705383 -13.08584595 100.34207153 C-13.01953979 99.32894897 -12.95323364 98.31582642 -12.88491821 97.27200317 C-12.81329468 96.14786011 -12.74167114 95.02371704 -12.6678772 93.86550903 C-11.25149614 72.96511506 -9.37981247 52.10173807 -7.4803772 31.24050903 C-7.40563171 30.41710022 -7.33088623 29.59369141 -7.25387573 28.74533081 C-6.80553362 23.82520301 -6.33744244 18.90744827 -5.8553772 13.99050903 C-5.74459839 12.80207397 -5.63381958 11.61363892 -5.51968384 10.38919067 C-5.41132202 9.32434448 -5.30296021 8.25949829 -5.1913147 7.16238403 C-5.10156372 6.25069458 -5.01181274 5.33900513 -4.91934204 4.39968872 C-4.26318172 1.17216823 -3.26103237 0.31620503 0 0 Z " fill="#FDFDFD" transform="translate(156.48037719726563,152.75949096679688)"/>
<path d="M0 0 C0.94470657 -0.00953201 1.88941315 -0.01906403 2.86274719 -0.02888489 C4.39864754 -0.02751778 4.39864754 -0.02751778 5.96557617 -0.02612305 C7.01629807 -0.03040817 8.06701996 -0.0346933 9.14958191 -0.03910828 C11.37640664 -0.04485984 13.60325017 -0.04534579 15.83007812 -0.04101562 C19.23429608 -0.03786424 22.63763818 -0.06127532 26.04174805 -0.08666992 C28.20385632 -0.08894371 30.36596694 -0.08964604 32.52807617 -0.08862305 C33.54593704 -0.09783279 34.56379791 -0.10704254 35.61250305 -0.11653137 C44.64326747 -0.05757841 44.64326747 -0.05757841 48.44604492 3.2746582 C49.88470447 5.99178395 51.0258115 8.5489562 52.13354492 11.3996582 C52.91038607 13.29936911 53.6906625 15.19767699 54.47338867 17.0949707 C54.92697754 18.20130859 55.38056641 19.30764648 55.84790039 20.44750977 C58.79020647 27.54663879 61.92182192 34.56621352 65.01828003 41.59902954 C66.1966933 44.27613117 67.3724982 46.95436623 68.54785156 49.6328125 C72.16591553 57.87079421 75.80255675 66.09963496 79.50073242 74.30200195 C79.80934204 74.98694733 80.11795166 75.6718927 80.43591309 76.37759399 C81.86400084 79.54459369 83.29706604 82.70920286 84.73803711 85.87036133 C85.23207031 86.96155273 85.72610352 88.05274414 86.23510742 89.17700195 C86.6651709 90.12051514 87.09523438 91.06402832 87.53833008 92.03613281 C88.44604492 94.2746582 88.44604492 94.2746582 88.44604492 96.2746582 C91.28257618 93.82151153 92.47457058 91.33334903 93.91479492 87.89575195 C94.39408447 86.7675 94.87337402 85.63924805 95.3671875 84.47680664 C95.62303619 83.86639526 95.87888489 83.25598389 96.14248657 82.6270752 C97.55275326 79.26634397 98.98945661 75.91697211 100.42651367 72.56762695 C100.73852219 71.83971954 101.0505307 71.11181213 101.37199402 70.36184692 C106.29482017 58.92414341 111.49376946 47.60838141 116.64526367 36.27246094 C117.03056244 35.42380966 117.41586121 34.57515839 117.81283569 33.70079041 C118.57526586 32.02378918 119.33973981 30.34771549 120.10635376 28.67262268 C122.00621594 24.50945111 123.85550314 20.33367281 125.62329102 16.11254883 C126.15015755 14.87235992 126.15015755 14.87235992 126.68766785 13.6071167 C127.34824735 12.04610448 127.99648806 10.4797892 128.62983704 8.90753174 C129.94061018 5.83136741 131.06548178 3.64466538 133.47924805 1.29785156 C138.16532072 -0.31828821 142.7339887 -0.0911268 147.65307617 -0.01831055 C148.73360764 -0.0140657 149.8141391 -0.00982086 150.92741394 -0.00544739 C154.37137998 0.01131691 157.81475636 0.04896595 161.25854492 0.0871582 C163.59642708 0.1022079 165.93431844 0.11589581 168.2722168 0.12817383 C173.99702664 0.16121309 179.72149365 0.21139055 185.44604492 0.2746582 C185.44604492 0.9346582 185.44604492 1.5946582 185.44604492 2.2746582 C186.10604492 2.2746582 186.76604492 2.2746582 187.44604492 2.2746582 C187.51455154 3.15644493 187.51455154 3.15644493 187.58444214 4.05604553 C188.0700914 10.30438925 188.55723793 16.55261508 189.04516602 22.80078125 C189.22587066 25.11715897 189.40622247 27.43356425 189.58618164 29.75 C190.49045952 41.38689444 191.41259323 53.02024883 192.45385742 64.64575195 C193.31844222 74.35565143 194.00315275 84.07339859 194.65748596 93.79948425 C195.57146656 107.31090218 196.61817806 120.81117471 197.67822266 134.31176758 C197.95802765 137.87580708 198.23523183 141.44004385 198.51178074 145.00433731 C198.7294955 147.80641946 198.94861001 150.60839084 199.16813469 153.41033173 C199.32014491 155.3538335 199.47095179 157.29742927 199.62171936 159.24102783 C200.12314929 165.60206167 200.70880196 171.93672724 201.44604492 178.2746582 C201.56624415 179.89734782 201.66029234 181.52291569 201.69604492 183.1496582 C201.7347168 184.22860352 201.7347168 184.22860352 201.77416992 185.3293457 C201.44604492 187.2746582 201.44604492 187.2746582 200.45019531 188.86914062 C197.26507731 191.10287486 193.80638335 190.72208427 190.05151367 190.70825195 C189.22653885 190.7134938 188.40156403 190.71873566 187.55158997 190.72413635 C185.80572636 190.73055902 184.0598195 190.72921636 182.31396484 190.72070312 C179.65342161 190.71222157 176.99504627 190.74090242 174.3347168 190.77270508 C172.63614973 190.77431802 170.93757888 190.77373778 169.23901367 190.77075195 C168.44818893 190.78198593 167.6573642 190.79321991 166.84257507 190.80479431 C161.58541846 190.73909528 158.64533497 189.70337752 154.44604492 186.2746582 C150.62550632 182.04477618 149.25221503 177.46895258 148.84838867 171.85668945 C148.76975586 170.78547852 148.69112305 169.71426758 148.61010742 168.6105957 C148.5353418 167.44786133 148.46057617 166.28512695 148.38354492 165.0871582 C148.29975586 163.85610352 148.2159668 162.62504883 148.12963867 161.35668945 C147.47518485 151.1308485 147.14843831 140.90685048 146.89352417 130.66436768 C146.59930581 118.91825252 146.094511 107.19403996 145.44604492 95.4621582 C145.40406982 94.68018066 145.36209473 93.89820313 145.31884766 93.0925293 C145.19891988 90.87562561 145.07358259 88.65910451 144.94604492 86.44262695 C144.87385742 85.17700928 144.80166992 83.9113916 144.72729492 82.60742188 C144.48555091 79.74279735 144.03675615 77.08077941 143.44604492 74.2746582 C143.12896576 75.0988752 143.12896576 75.0988752 142.80548096 75.93974304 C124.89441288 122.4805658 124.89441288 122.4805658 117.50854492 140.5246582 C117.04416016 141.67409912 116.57977539 142.82354004 116.10131836 144.0078125 C115.66980469 145.04977783 115.23829102 146.09174316 114.79370117 147.1652832 C114.43284424 148.04216797 114.0719873 148.91905273 113.70019531 149.82250977 C112.1583499 152.83716722 110.95216145 154.95397239 108.44604492 157.2746582 C105.520875 158.0210391 102.67160583 157.99949017 99.66479492 157.97387695 C98.38904602 157.98460991 98.38904602 157.98460991 97.08752441 157.99555969 C95.29216561 158.00333239 93.49671222 157.99833351 91.70141602 157.98144531 C88.95432351 157.96221615 86.21228863 158.00160263 83.46557617 158.04614258 C81.71947941 158.04643294 79.97337801 158.04329289 78.22729492 158.03637695 C77.40741089 158.05165939 76.58752686 158.06694183 75.74279785 158.08268738 C73.50005705 158.03685861 71.59951196 157.9026689 69.44604492 157.2746582 C65.41473704 152.98883131 63.61977028 147.16026818 61.53979492 141.71606445 C61.17792084 140.78621231 60.81604675 139.85636017 60.44320679 138.89833069 C59.27064162 135.88054263 58.10826143 132.858945 56.94604492 129.8371582 C56.14216545 127.76252655 55.33763717 125.68814618 54.5324707 123.61401367 C52.53471308 118.4632596 50.5449559 113.30945851 48.55749512 108.15472412 C46.90839754 103.88146945 45.25177633 99.61114557 43.59448242 95.34106445 C40.87114608 88.32169531 38.15515325 81.29953336 35.44604492 74.2746582 C34.68879426 80.53090693 34.21940566 86.72513493 33.98120117 93.02075195 C33.90376724 94.91316896 33.82629161 96.80558425 33.7487793 98.69799805 C33.70970459 99.67967957 33.67062988 100.66136108 33.63037109 101.67279053 C33.03732238 116.46840524 32.40924796 131.26321556 31.56564331 146.04690552 C31.4506607 148.06850462 31.34094277 150.09040107 31.23144531 152.11230469 C29.48537132 181.71906426 29.48537132 181.71906426 23.44604492 187.2746582 C18.4240876 190.35118122 14.54106194 190.70598352 8.83666992 190.63793945 C8.02864929 190.63843796 7.22062866 190.63893646 6.38812256 190.63945007 C4.69044519 190.63712041 2.99276365 190.62745765 1.29516602 190.61083984 C-1.30980008 190.58710495 -3.91375103 190.59030456 -6.51879883 190.59692383 C-8.1711487 190.59135116 -9.82349427 190.58424388 -11.47583008 190.57543945 C-12.25601501 190.57635086 -13.03619995 190.57726227 -13.84002686 190.57820129 C-19.32287302 190.50574027 -19.32287302 190.50574027 -21.55395508 188.2746582 C-22.79568421 175.51388479 -20.83714882 162.18096775 -19.80395508 149.4621582 C-19.62265263 147.18045766 -19.44183441 144.8987186 -19.26147461 142.61694336 C-18.88658325 137.88621264 -18.50817843 133.15578116 -18.12719727 128.42553711 C-17.65485761 122.55190044 -17.19247341 116.67754117 -16.73474121 110.80274963 C-16.38558402 106.32233185 -16.0337172 101.8421294 -15.68127441 97.36196899 C-15.51559092 95.25263053 -15.35061071 93.14323669 -15.18640137 91.03378296 C-14.43826447 81.44839947 -13.66398028 71.88154125 -12.53051758 62.33325195 C-11.1213357 50.37008755 -10.5541097 38.33886934 -9.87670898 26.31640625 C-9.70349192 23.27466715 -9.51998445 20.23368236 -9.33520508 17.19262695 C-9.28618042 16.26870651 -9.23715576 15.34478607 -9.18664551 14.39286804 C-8.29742946 0.04588315 -8.29742946 0.04588315 0 0 Z " fill="#727272" transform="translate(678.553955078125,158.725341796875)"/>
<path d="M0 0 C12.78205901 10.19521373 21.6258502 28.58755424 23.4453125 44.6796875 C24.44668779 62.55609086 24.59260076 79.95384466 16.65625 96.4453125 C16.22441406 97.34894531 15.79257813 98.25257813 15.34765625 99.18359375 C7.80636954 113.95961081 -4.50351548 124.01089032 -20.16015625 129.41796875 C-34.05594552 133.23354307 -50.07826184 133.33637263 -63.34375 127.4453125 C-65.32662993 126.27043466 -67.28477821 125.05272973 -69.21484375 123.79296875 C-70.66588501 122.85142944 -70.66588501 122.85142944 -72.14624023 121.89086914 C-72.87141846 121.41383545 -73.59659668 120.93680176 -74.34375 120.4453125 C-74.33708817 121.54738541 -74.33708817 121.54738541 -74.33029175 122.67172241 C-74.29025724 129.58766618 -74.25978712 136.50359267 -74.24012566 143.41962242 C-74.22967776 146.97543649 -74.21550041 150.531155 -74.19287109 154.08691406 C-74.16703168 158.1725355 -74.15728556 162.25805619 -74.1484375 166.34375 C-74.13811493 167.62398041 -74.12779236 168.90421082 -74.11715698 170.22323608 C-74.11693039 171.99484604 -74.11693039 171.99484604 -74.11669922 173.80224609 C-74.112258 174.84593353 -74.10781677 175.88962097 -74.10324097 176.9649353 C-74.34375 179.4453125 -74.34375 179.4453125 -76.34375 181.4453125 C-79.40553773 181.64545403 -82.37494292 181.72502322 -85.4375 181.7109375 C-86.3399646 181.71285095 -87.2424292 181.7147644 -88.17224121 181.71673584 C-90.08211546 181.71809809 -91.99199896 181.71439888 -93.90185547 181.70605469 C-96.8319165 181.69535571 -99.76136438 181.70594861 -102.69140625 181.71875 C-104.54427219 181.71742841 -106.39713775 181.71486603 -108.25 181.7109375 C-109.57034241 181.71701019 -109.57034241 181.71701019 -110.9173584 181.72320557 C-117.1138334 181.6752291 -117.1138334 181.6752291 -119.34375 179.4453125 C-119.54540693 177.02098161 -119.62185573 174.71019893 -119.61117554 172.28433228 C-119.61570665 171.53815561 -119.62023776 170.79197894 -119.62490618 170.02319086 C-119.6376197 167.50970194 -119.63592537 164.99642777 -119.63427734 162.48291016 C-119.64025829 160.68616963 -119.64706282 158.88943168 -119.65463257 157.09269714 C-119.67234451 152.20219344 -119.67699014 147.31175965 -119.67826414 142.42122698 C-119.68015995 138.34307243 -119.68751385 134.2649343 -119.69460833 130.18678606 C-119.71090981 120.56722396 -119.7157757 110.94769932 -119.71435547 101.328125 C-119.71315373 91.3953731 -119.7342579 81.46283839 -119.7658428 71.53014147 C-119.79196969 63.01120275 -119.80272427 54.49233511 -119.80144465 45.9733566 C-119.80093394 40.88147888 -119.80667719 35.78979402 -119.82780075 30.69795609 C-119.84712271 25.90938928 -119.84734919 21.12120052 -119.83276749 16.33262062 C-119.83067072 14.57338092 -119.83543169 12.81411793 -119.8474884 11.05491829 C-119.86286503 8.6562504 -119.85368431 6.2588984 -119.83822632 3.86026001 C-119.84851344 3.16123208 -119.85880057 2.46220414 -119.86939943 1.74199355 C-119.82205953 -1.57365645 -119.5329813 -3.30232135 -117.52085304 -5.98577309 C-114.37082339 -8.25582041 -111.9450615 -8.07251161 -108.09375 -8.0859375 C-107.05105957 -8.09167786 -107.05105957 -8.09167786 -105.98730469 -8.09753418 C-104.52146959 -8.1002493 -103.05558572 -8.09291585 -101.58984375 -8.07617188 C-99.35046025 -8.05475169 -97.11428413 -8.07598193 -94.875 -8.1015625 C-93.44790961 -8.09891915 -92.02082121 -8.093794 -90.59375 -8.0859375 C-88.65242188 -8.07916992 -88.65242188 -8.07916992 -86.671875 -8.07226562 C-82.83003862 -7.47479694 -81.62646659 -6.64607311 -79.34375 -3.5546875 C-78.953125 -0.9765625 -78.953125 -0.9765625 -79.09375 1.6953125 C-79.12984375 2.58734375 -79.1659375 3.479375 -79.203125 4.3984375 C-79.24953125 5.07390625 -79.2959375 5.749375 -79.34375 6.4453125 C-78.68375 6.4453125 -78.02375 6.4453125 -77.34375 6.4453125 C-77.08464844 5.85621094 -76.82554688 5.26710937 -76.55859375 4.66015625 C-71.80294194 -4.0101157 -61.56563112 -8.00706263 -52.57421875 -10.671875 C-34.35460584 -15.00445685 -15.32665909 -10.16668386 0 0 Z " fill="#727272" transform="translate(1554.34375,221.5546875)"/>
<path d="M0 0 C13.28045697 11.29577818 22.78101088 25.59014358 25.45703125 43.08984375 C26.63822939 58.00383882 26.47415844 72.24697309 20.45703125 86.08984375 C20.13476562 86.8890625 19.8125 87.68828125 19.48046875 88.51171875 C12.43901827 104.30905982 -2.28798764 115.45130319 -17.85546875 121.90234375 C-39.86346429 129.69464839 -65.19571616 129.9283697 -86.54296875 120.08984375 C-94.97687772 115.87288926 -101.86833633 110.72953045 -108.54296875 104.08984375 C-109.16816406 103.49945313 -109.79335938 102.9090625 -110.4375 102.30078125 C-123.08106809 89.34326452 -127.08047371 71.14234506 -126.96313477 53.62744141 C-126.41908499 35.33833036 -119.49768325 18.20254257 -106.54296875 5.08984375 C-77.66801291 -21.02048866 -31.17089367 -24.34787946 0 0 Z " fill="#727272" transform="translate(1018.54296875,225.91015625)"/>
<path d="M0 0 C0.6084375 0.43441406 1.216875 0.86882812 1.84375 1.31640625 C13.97304762 10.55121239 22.58037675 28.2787126 24.625 43 C26.59627709 64.03890272 23.18339928 82.76865762 10.0234375 99.609375 C-2.1735193 114.01967917 -19.13828416 123.5661139 -38 126 C-61.25427828 127.79577015 -82.53486908 124.55761155 -101.4375 110.125 C-114.1725831 99.09932403 -124.439906 84.24835267 -126 67 C-126.16384233 63.06162176 -126.1850595 59.12891425 -126.1875 55.1875 C-126.19974609 54.15818359 -126.21199219 53.12886719 -126.22460938 52.06835938 C-126.24326675 42.23592498 -124.96629354 33.80766282 -120.375 25.0625 C-120.02163574 24.37792725 -119.66827148 23.69335449 -119.30419922 22.98803711 C-110.08478707 5.55701108 -96.45823207 -6.85837932 -77.75 -13.375 C-75.84007489 -13.93997785 -73.92367116 -14.48376056 -72 -15 C-71.25234375 -15.22429687 -70.5046875 -15.44859375 -69.734375 -15.6796875 C-45.94786729 -21.75106884 -18.96441478 -15.03708261 0 0 Z " fill="#727272" transform="translate(1718,227)"/>
<path d="M0 0 C13.69260313 10.59851928 21.85622507 25.76480399 24.0625 42.9375 C24.35830809 46.87728116 24.46969831 50.79982027 24.5 54.75 C24.51015137 55.71147949 24.52030273 56.67295898 24.53076172 57.66357422 C24.51932129 58.56479004 24.50788086 59.46600586 24.49609375 60.39453125 C24.48634521 61.19866455 24.47659668 62.00279785 24.46655273 62.83129883 C23.93211396 65.61716187 23.3942625 66.29452136 21.0625 67.9375 C18.33189835 68.21801469 15.83215708 68.31654158 13.1027832 68.27807617 C12.29279877 68.27851425 11.48281433 68.27895233 10.64828491 68.27940369 C7.96970556 68.27731284 5.29175132 68.25396814 2.61328125 68.23046875 C0.75669191 68.22487384 -1.09990185 68.22060325 -2.95649719 68.21760559 C-7.84416929 68.20614854 -12.73157415 68.17667394 -17.61914062 68.14349365 C-22.60608301 68.11281132 -27.59306856 68.09910418 -32.58007812 68.08398438 C-42.36600286 68.05180508 -52.15172921 68.00059831 -61.9375 67.9375 C-61.48602593 69.35162596 -61.02924062 70.76405675 -60.5703125 72.17578125 C-60.18963623 73.35587769 -60.18963623 73.35587769 -59.80126953 74.55981445 C-56.91336864 82.5092963 -52.36415101 86.99735706 -44.9375 90.9375 C-35.10018647 95.18104701 -22.72404763 93.71549773 -12.9375 89.9375 C-7.73382437 87.58644173 -2.69224025 85.10732683 2.0625 81.9375 C4.94358864 82.11197586 6.49462092 82.36214882 8.546875 84.44140625 C10.07576371 86.9282098 11.5883966 89.41746957 13.0625 91.9375 C13.63750244 92.88375244 13.63750244 92.88375244 14.22412109 93.84912109 C15.50090832 95.95162691 16.75323089 98.06707365 18 100.1875 C18.41411133 100.87271729 18.82822266 101.55793457 19.25488281 102.26391602 C20.97854324 105.27078661 22.06770512 107.19837271 22.04296875 110.7109375 C18.20690079 119.4223269 5.44134171 123.61798437 -2.9375 126.9375 C-24.34019545 134.53052486 -48.58554946 135.02224175 -69.43383789 125.55932617 C-87.43885495 116.91624028 -98.76948575 102.74543019 -105.859375 84.40625 C-111.78082935 65.35461427 -110.62235539 44.73255949 -102.1875 26.6875 C-93.22893685 10.00217614 -80.36321755 -2.62873982 -62.0625 -8.4375 C-41.76884763 -14.28654767 -17.37865444 -12.85320617 0 0 Z " fill="#727272" transform="translate(1389.9375,221.0625)"/>
<path d="M0 0 C11.04105441 8.90407614 15.39267604 19.91903669 17.1796875 33.7578125 C17.71379416 41.01736479 17.60323197 48.30767829 17.578125 55.58203125 C17.58014977 57.66233929 17.58306455 59.74264664 17.58682251 61.82295227 C17.59121608 66.15213882 17.58490395 70.48113813 17.57080078 74.81030273 C17.55359233 80.3632022 17.56364201 85.91567031 17.58151817 91.4685545 C17.5923362 95.7501402 17.58892083 100.03162271 17.5811348 104.31321144 C17.57913339 106.36218123 17.58158998 108.41116038 17.58857346 110.46011925 C17.59616811 113.31050071 17.58461707 116.16016988 17.56787109 119.01049805 C17.57394379 119.85668701 17.58001648 120.70287598 17.58627319 121.57470703 C17.5236724 127.30845519 17.5236724 127.30845519 15.86727333 129.47225666 C13.10393071 131.57729404 9.96192 131.20515425 6.625 131.19140625 C5.88643768 131.1966481 5.14787537 131.20188995 4.38693237 131.20729065 C2.82518774 131.21371008 1.26339476 131.21237481 -0.29833984 131.20385742 C-2.6802461 131.19536621 -5.05973815 131.22407423 -7.44140625 131.25585938 C-8.96093678 131.25747208 -10.48047154 131.25689253 -12 131.25390625 C-12.70849091 131.26514023 -13.41698181 131.27637421 -14.14694214 131.28794861 C-17.41854513 131.24218557 -19.66551927 130.84081137 -22.55908203 129.28930664 C-29.43227885 121.59462107 -29.38865588 113.11232508 -29.33673286 103.28513527 C-29.32398914 100.85862418 -29.33549297 98.43323167 -29.35276794 96.00675964 C-29.37934047 91.73309596 -29.38506818 87.45971148 -29.38366699 83.18597412 C-29.38142939 76.33652262 -29.39564831 69.4874148 -29.43925285 62.63809776 C-29.44905381 60.25494937 -29.44039697 57.87234873 -29.43055725 55.48921204 C-29.4367031 54.0225082 -29.44361538 52.5558073 -29.45141602 51.08911133 C-29.45045425 49.81497879 -29.44949249 48.54084625 -29.44850159 47.22810364 C-29.8569925 43.4154603 -30.82918128 41.01512828 -32.8203125 37.7578125 C-37.52343815 34.04481857 -42.86540535 34.19426958 -48.6328125 34.3515625 C-55.83784749 35.26985127 -60.74931162 39.8533766 -65.17530823 45.39086914 C-70.94517714 53.69294661 -71.39244441 62.80755578 -71.33673286 72.60766602 C-71.32393935 74.86971399 -71.33553356 77.13057105 -71.35276794 79.39257812 C-71.37925785 83.36980452 -71.38507066 87.34673058 -71.38366699 91.32403564 C-71.38142261 97.71650945 -71.39551415 104.10861703 -71.43925285 110.50094604 C-71.44908477 112.72747251 -71.44038567 114.9534173 -71.43055725 117.17993164 C-71.43669813 118.53922917 -71.44360875 119.89852352 -71.45141602 121.2578125 C-71.45045425 122.44375 -71.44949249 123.6296875 -71.44850159 124.8515625 C-71.8203125 127.7578125 -71.8203125 127.7578125 -73.09457397 129.63980103 C-76.26700932 131.69504813 -80.12867261 131.18233102 -83.79296875 131.15625 C-85.11124916 131.16055527 -85.11124916 131.16055527 -86.4561615 131.16494751 C-88.31298467 131.16698828 -90.16982933 131.16145749 -92.02661133 131.14892578 C-94.87564888 131.13285291 -97.7232719 131.14878361 -100.57226562 131.16796875 C-102.37500314 131.1659867 -104.17773978 131.16214381 -105.98046875 131.15625 C-107.26329491 131.16535904 -107.26329491 131.16535904 -108.57203674 131.1746521 C-110.96899414 131.14599609 -110.96899414 131.14599609 -114.8203125 130.7578125 C-117.03009227 127.44314285 -117.0739222 126.42264809 -117.08773804 122.56459045 C-117.09626801 121.48923538 -117.10479797 120.41388031 -117.11358643 119.30593872 C-117.11268005 118.1261142 -117.11177368 116.94628967 -117.11083984 115.73071289 C-117.11755707 114.48824295 -117.12427429 113.24577301 -117.13119507 111.96565247 C-117.14695554 108.55650472 -117.15355107 105.14760056 -117.15482664 101.73843312 C-117.15672548 98.89294798 -117.16408273 96.04748623 -117.17117083 93.2020101 C-117.18745814 86.48923491 -117.19233943 79.77651338 -117.19091797 73.0637207 C-117.18971607 66.13752966 -117.21082651 59.21165 -117.2424053 52.28553778 C-117.2685488 46.3398015 -117.2792861 40.39416706 -117.27800715 34.44837373 C-117.27749699 30.89684286 -117.28320964 27.34558873 -117.30436325 23.79411507 C-117.32730656 19.83405486 -117.31823647 15.87442255 -117.30615234 11.91430664 C-117.31739136 10.73650635 -117.32863037 9.55870605 -117.34020996 8.34521484 C-117.33182098 7.26703995 -117.32343201 6.18886505 -117.31478882 5.07801819 C-117.31587835 4.1416858 -117.31696789 3.20535341 -117.31809044 2.24064732 C-116.66363741 -1.02365716 -115.41455149 -2.21573765 -112.8203125 -4.2421875 C-109.50805664 -4.75976562 -109.50805664 -4.75976562 -105.60546875 -4.7734375 C-104.91271347 -4.7772644 -104.21995819 -4.78109131 -103.50621033 -4.78503418 C-102.04457136 -4.78774962 -100.58288349 -4.78041389 -99.12133789 -4.76367188 C-96.89293096 -4.74228461 -94.66775914 -4.76346393 -92.43945312 -4.7890625 C-91.01561793 -4.78641852 -89.59178474 -4.78129207 -88.16796875 -4.7734375 C-86.87898682 -4.76892578 -85.59000488 -4.76441406 -84.26196289 -4.75976562 C-80.2867086 -4.16194062 -78.64129715 -3.04778198 -75.8203125 -0.2421875 C-74.53584331 2.32675088 -74.49054106 4.52357587 -74.2578125 7.3828125 C-74.17402344 8.38570312 -74.09023437 9.38859375 -74.00390625 10.421875 C-73.94332031 11.19273437 -73.88273437 11.96359375 -73.8203125 12.7578125 C-73.27503906 12.10554688 -72.72976563 11.45328125 -72.16796875 10.78125 C-54.4863757 -9.71126297 -23.29526196 -15.60860987 0 0 Z " fill="#737373" transform="translate(1177.8203125,218.2421875)"/>
<path d="M0 0 C10.06376463 9.45952203 14.41249386 22.57051238 14.98383331 36.0676384 C15.02918861 38.47376519 15.0446203 40.87811851 15.04785156 43.28466797 C15.05281647 44.18824539 15.05778137 45.09182281 15.06289673 46.02278137 C15.07737309 48.97873724 15.08429131 51.93463969 15.08984375 54.890625 C15.09408482 56.41167028 15.09408482 56.41167028 15.09841156 57.96344376 C15.11333522 63.31612657 15.12261121 68.66878284 15.12695312 74.02148438 C15.13246736 79.55318593 15.15657636 85.08464501 15.18492508 90.61627007 C15.20350699 94.87296274 15.2087544 99.12959602 15.210289 103.38632584 C15.21331967 105.42693552 15.2213621 107.46754405 15.23447418 109.50811386 C15.25146207 112.35179304 15.24967379 115.1948654 15.24316406 118.03857422 C15.25237885 118.88326767 15.26159363 119.72796112 15.27108765 120.59825134 C15.22986282 126.32496173 15.22986282 126.32496173 13.57514572 128.48761177 C10.81111395 130.59256699 7.66948325 130.22078144 4.33203125 130.20703125 C3.59346893 130.2122731 2.85490662 130.21751495 2.09396362 130.22291565 C0.53221899 130.22933508 -1.02957399 130.22799981 -2.59130859 130.21948242 C-4.97321485 130.21099121 -7.3527069 130.23969923 -9.734375 130.27148438 C-11.25390553 130.27309708 -12.77344029 130.27251753 -14.29296875 130.26953125 C-15.00145966 130.28076523 -15.70995056 130.29199921 -16.43991089 130.30357361 C-19.80563927 130.25649395 -21.97461398 129.85231856 -24.91455078 128.17993164 C-29.62919531 123.01978828 -30.48716187 117.91985701 -30.48217773 111.09741211 C-30.48782745 109.99842842 -30.48782745 109.99842842 -30.49359131 108.87724304 C-30.4999889 107.2987845 -30.49972675 105.72028739 -30.4934063 104.14182854 C-30.48424393 101.63999271 -30.49457676 99.138898 -30.51002502 96.63710022 C-30.54999032 89.52882939 -30.55132536 82.42062043 -30.54907227 75.31225586 C-30.5490211 70.95332074 -30.56821463 66.59478847 -30.59840584 62.23596382 C-30.60920321 59.77739788 -30.59712031 57.31960936 -30.58457947 54.86106873 C-30.59348601 53.3473942 -30.60356113 51.83372594 -30.61499023 50.32006836 C-30.61482407 49.00437363 -30.6146579 47.68867889 -30.61448669 46.33311462 C-31.32618289 41.25405226 -33.44581084 38.08897948 -37.4453125 34.93359375 C-43.52217843 32.29109129 -50.8517905 32.62385998 -57.0390625 34.8046875 C-65.37012987 39.35580169 -70.10653008 46.91064525 -73.11328125 55.7734375 C-73.55739102 59.27411443 -73.55739102 59.27411443 -73.49804688 62.93041992 C-73.50341965 63.60776688 -73.50879242 64.28511383 -73.514328 64.98298645 C-73.5240445 66.44029594 -73.52706886 67.89766286 -73.52397156 69.35500145 C-73.51946452 71.66307789 -73.53357127 73.97039938 -73.55236816 76.27839661 C-73.59522344 82.00471288 -73.60641125 87.73100993 -73.61859131 93.4574585 C-73.63012139 98.30972282 -73.6536701 103.16163893 -73.69328308 108.01375771 C-73.70684405 110.28505243 -73.702686 112.55587497 -73.69787598 114.82719421 C-73.70721547 116.21968183 -73.71738401 117.61216422 -73.72851562 119.00463867 C-73.73057007 120.21818527 -73.73262451 121.43173187 -73.73474121 122.68205261 C-74.14692493 126.04819193 -74.64296147 127.47131268 -77.11328125 129.7734375 C-78.97914124 130.26791382 -78.97914124 130.26791382 -81.09399414 130.25927734 C-82.28521629 130.26850723 -82.28521629 130.26850723 -83.50050354 130.27792358 C-84.35369675 130.26355255 -85.20688995 130.24918152 -86.0859375 130.234375 C-86.96479111 130.23345856 -87.84364471 130.23254211 -88.74913025 130.2315979 C-90.60600184 130.22555789 -92.4628635 130.20979982 -94.31958008 130.18505859 C-97.16849474 130.14853092 -100.01610994 130.1440393 -102.86523438 130.14453125 C-104.66798004 130.13470102 -106.47071686 130.12304443 -108.2734375 130.109375 C-109.12865494 130.10714935 -109.98387238 130.10492371 -110.86500549 130.10263062 C-116.88113546 130.00558329 -116.88113546 130.00558329 -119.11328125 127.7734375 C-119.36775684 125.48705292 -119.36775684 125.48705292 -119.37397766 122.57312012 C-119.38106247 121.47100693 -119.38814728 120.36889374 -119.39544678 119.23338318 C-119.39296936 118.01876907 -119.39049194 116.80415497 -119.38793945 115.55273438 C-119.39305038 114.27793716 -119.39816132 113.00313995 -119.40342712 111.68971252 C-119.4168446 108.18771322 -119.41739284 104.68582166 -119.41486382 101.18380165 C-119.41379611 98.26362023 -119.41867226 95.34346078 -119.42346925 92.42328405 C-119.43457363 85.53656726 -119.43499642 78.64990501 -119.42895508 71.76318359 C-119.42291134 64.65014233 -119.43523419 57.53729868 -119.45652515 50.42429113 C-119.47411566 44.32404487 -119.48014662 38.22386165 -119.4768874 32.12359095 C-119.47507053 28.47715034 -119.47775072 24.83085072 -119.49160194 21.18443298 C-119.50645958 17.12087072 -119.49723265 13.0577133 -119.4855957 8.99414062 C-119.49323944 7.77952652 -119.50088318 6.56491241 -119.50875854 5.31349182 C-119.50174423 4.21137863 -119.49472992 3.10926544 -119.48750305 1.97375488 C-119.48767079 1.01215706 -119.48783854 0.05055923 -119.48801136 -0.94017792 C-119.36435042 -1.69468483 -119.24068949 -2.44919174 -119.11328125 -3.2265625 C-114.18229767 -6.51388489 -108.3203168 -5.63750986 -102.54467773 -5.65209961 C-100.31836996 -5.66396873 -98.0948611 -5.71312654 -95.86914062 -5.76367188 C-94.44402388 -5.77314026 -93.01889018 -5.78037331 -91.59375 -5.78515625 C-90.30364014 -5.79861084 -89.01353027 -5.81206543 -87.68432617 -5.82592773 C-82.97280132 -5.03514401 -81.3920354 -3.65580969 -78.11328125 -0.2265625 C-77.52734375 3.32421875 -77.52734375 3.32421875 -77.73828125 7.0859375 C-77.79242187 8.34019531 -77.8465625 9.59445313 -77.90234375 10.88671875 C-77.97195313 11.83933594 -78.0415625 12.79195312 -78.11328125 13.7734375 C-77.45328125 13.7734375 -76.79328125 13.7734375 -76.11328125 13.7734375 C-75.90703125 13.0928125 -75.70078125 12.4121875 -75.48828125 11.7109375 C-71.36368577 2.8993017 -63.39930374 -2.53535912 -54.61328125 -6.296875 C-37.36249218 -12.29968336 -14.98708296 -11.24744892 0 0 Z " fill="#727272" transform="translate(1949.11328125,219.2265625)"/>
<path d="M0 0 C0.78295441 -0.00524185 1.56590881 -0.0104837 2.37258911 -0.0158844 C4.02849137 -0.02230518 5.68443923 -0.02096682 7.34033203 -0.01245117 C9.86704408 -0.00395925 12.39148118 -0.03266876 14.91796875 -0.06445312 C16.52864516 -0.06606578 18.13932555 -0.06548637 19.75 -0.0625 C20.50223846 -0.07373398 21.25447693 -0.08496796 22.0295105 -0.09654236 C25.50650665 -0.05064654 27.89162061 0.37359278 30.9934082 1.9753418 C33.72937931 5.31414838 33.64334035 8.13605583 33.49609375 12.26171875 C33.48901901 13.01072449 33.48194427 13.75973022 33.47465515 14.53143311 C33.44673388 16.91651612 33.38400785 19.29922431 33.3203125 21.68359375 C33.29522632 23.30335143 33.2724137 24.92314603 33.25195312 26.54296875 C33.2011695 30.5081542 33.10333794 34.46822671 33.0078125 38.43359375 C39.6078125 38.43359375 46.2078125 38.43359375 53.0078125 38.43359375 C53.0078125 83.31359375 53.0078125 128.19359375 53.0078125 174.43359375 C30.58838426 174.43359375 14.78670261 173.93218396 -1.5078125 158.2734375 C-11.88865934 146.40728081 -13.26508604 133.69150773 -13.40625 118.55078125 C-13.43529922 116.60765549 -13.43529922 116.60765549 -13.4649353 114.62527466 C-13.51580225 111.21584951 -13.55566784 107.80638534 -13.59307861 104.39678955 C-13.63340681 100.9037548 -13.68436613 97.41087594 -13.734375 93.91796875 C-13.83059448 87.08995825 -13.91516811 80.26184714 -13.9921875 73.43359375 C-14.89582031 73.39621094 -15.79945312 73.35882813 -16.73046875 73.3203125 C-17.90996094 73.25457031 -19.08945313 73.18882812 -20.3046875 73.12109375 C-21.47644531 73.06308594 -22.64820313 73.00507813 -23.85546875 72.9453125 C-26.9921875 72.43359375 -26.9921875 72.43359375 -28.88589478 71.06285095 C-30.59229077 68.54981086 -30.38129725 66.37964695 -30.390625 63.375 C-30.39642578 61.58932617 -30.39642578 61.58932617 -30.40234375 59.76757812 C-30.39074219 58.52298828 -30.37914062 57.27839844 -30.3671875 55.99609375 C-30.37878906 54.75537109 -30.39039063 53.51464844 -30.40234375 52.23632812 C-30.39847656 51.04458984 -30.39460938 49.85285156 -30.390625 48.625 C-30.38724121 47.53388916 -30.38385742 46.44277832 -30.38037109 45.31860352 C-29.92946863 41.96746235 -29.57935326 40.62961622 -26.9921875 38.43359375 C-24.30690286 37.97577473 -21.99567036 37.73887071 -19.3046875 37.68359375 C-18.60279297 37.65394531 -17.90089844 37.62429687 -17.17773438 37.59375 C-15.44983326 37.52322342 -13.7210043 37.47612307 -11.9921875 37.43359375 C-11.97760498 36.41934326 -11.96302246 35.40509277 -11.94799805 34.36010742 C-11.89002497 30.59705346 -11.81279291 26.83459854 -11.72973633 23.07202148 C-11.69648214 21.44353966 -11.66845166 19.81494244 -11.64575195 18.1862793 C-11.61221393 15.84504014 -11.55990165 13.50485889 -11.50390625 11.1640625 C-11.49751633 10.43583786 -11.4911264 9.70761322 -11.48454285 8.95732117 C-11.40430966 6.19908335 -11.26052278 3.94196506 -9.9597168 1.47753906 C-6.78536749 -0.20672917 -3.50814853 -0.01361739 0 0 Z " fill="#727272" transform="translate(2008.9921875,175.56640625)"/>
<path d="M0 0 C0.7347757 -0.00761353 1.46955139 -0.01522705 2.22659302 -0.02307129 C3.77814342 -0.03385523 5.32976632 -0.0367323 6.88134766 -0.03222656 C9.24375893 -0.03125578 11.60290258 -0.07285492 13.96484375 -0.1171875 C15.47655577 -0.12239636 16.98827901 -0.12508266 18.5 -0.125 C19.55028885 -0.1495929 19.55028885 -0.1495929 20.62179565 -0.17468262 C24.89774058 -0.11505879 27.90576621 0.7590497 31.13075447 3.62425423 C33.91377472 7.72411938 33.17041302 12.98826962 33.09570312 17.75463867 C33.10183624 19.62360054 33.10183624 19.62360054 33.10809326 21.53031921 C33.11307415 24.93997015 33.0913419 28.34743265 33.05703926 31.75678039 C33.02692687 35.32458357 33.0293145 38.89237238 33.02770996 42.46028137 C33.02033136 48.44825903 32.99042654 54.43577723 32.9453125 60.42358398 C32.88748551 68.11450285 32.86685769 75.80505263 32.8579483 83.49616528 C32.84999534 90.10588744 32.82499712 96.71552909 32.79725456 103.32519364 C32.78905252 105.45180659 32.78320353 107.57841669 32.77766418 109.70503807 C32.7660768 113.6604904 32.73673386 117.6156999 32.70507812 121.57104492 C32.70284241 122.75289368 32.70060669 123.93474243 32.69830322 125.15240479 C32.68688293 126.22494003 32.67546265 127.29747528 32.66369629 128.4025116 C32.6547723 129.8058791 32.6547723 129.8058791 32.64566803 131.23759747 C32.3828125 133.46875 32.3828125 133.46875 30.3828125 135.46875 C27.47706204 135.68103452 24.66907321 135.77271095 21.76171875 135.76953125 C20.4781675 135.77595894 20.4781675 135.77595894 19.16868591 135.78251648 C17.35717657 135.78826468 15.54564414 135.78875644 13.73413086 135.78442383 C10.95972345 135.7812664 8.18638464 135.80470741 5.41210938 135.83007812 C3.65364718 135.83235129 1.89518211 135.83305453 0.13671875 135.83203125 C-0.69460068 135.841241 -1.5259201 135.85045074 -2.38243103 135.85993958 C-8.12131129 135.81376335 -8.12131129 135.81376335 -10.33601475 134.27285004 C-12.07082187 131.82995887 -11.99718789 130.21632589 -12.00486755 127.23083496 C-12.01477219 126.14562057 -12.02467682 125.06040619 -12.03488159 123.94230652 C-12.03037994 122.75156021 -12.0258783 121.5608139 -12.02124023 120.33398438 C-12.02810349 119.08015457 -12.03496674 117.82632477 -12.04203796 116.53450012 C-12.05722065 113.09432094 -12.05879545 109.65468276 -12.05309558 106.21450996 C-12.05000863 103.34406932 -12.05609056 100.47367794 -12.06213433 97.6032443 C-12.07618793 90.83294813 -12.07461103 84.06277813 -12.06323242 77.29248047 C-12.05174643 70.30377081 -12.06583271 63.31544468 -12.0926289 56.32678556 C-12.11476536 50.32924807 -12.12142807 44.33183115 -12.11555248 38.3342557 C-12.11217719 34.75091653 -12.11463566 31.16782332 -12.13180351 27.58451843 C-12.15010273 23.59069704 -12.13610665 19.59734972 -12.11889648 15.60351562 C-12.12856445 14.41276932 -12.13823242 13.22202301 -12.14819336 11.99519348 C-12.13835922 10.9099791 -12.12852509 9.82476471 -12.11839294 8.70666504 C-12.11818366 7.76203651 -12.11797438 6.81740799 -12.11775875 5.84415436 C-11.6171875 3.46875 -11.6171875 3.46875 -9.80336094 1.66762543 C-6.62429536 -0.07574202 -3.53744365 0.00101172 0 0 Z " fill="#727272" transform="translate(1229.6171875,213.53125)"/>
<path d="M0 0 C0.76075836 -0.00524185 1.52151672 -0.0104837 2.30532837 -0.0158844 C3.91415182 -0.02230452 5.52302222 -0.02096766 7.13183594 -0.01245117 C9.58614434 -0.00395959 12.03811022 -0.03266839 14.4921875 -0.06445312 C16.05729097 -0.06606581 17.62239855 -0.06548632 19.1875 -0.0625 C20.28304703 -0.07935097 20.28304703 -0.07935097 21.40072632 -0.09654236 C26.28981946 -0.03013635 28.79921438 0.94978659 32.2265625 4.43359375 C33.47797937 6.93642748 33.35797965 8.63580398 33.36700439 11.43736267 C33.37271454 12.49595993 33.37842468 13.55455719 33.38430786 14.64523315 C33.38542572 15.81152252 33.38654358 16.97781189 33.38769531 18.17944336 C33.39514267 20.01607796 33.39514267 20.01607796 33.40274048 21.88981628 C33.41486142 25.25344432 33.42231024 28.61701009 33.42675114 31.98065257 C33.42968051 34.0809263 33.43378502 36.18119455 33.43825531 38.28146553 C33.45193054 44.84941106 33.46159754 51.41734409 33.4654572 57.98530287 C33.46994066 65.57350916 33.48750163 73.16153556 33.5164578 80.74968714 C33.53805125 86.61130073 33.5481602 92.47286362 33.54949832 98.33451658 C33.55054788 101.83736396 33.55648748 105.34004224 33.57431793 108.84284782 C33.59381021 112.7480746 33.58951898 116.65307523 33.58300781 120.55834961 C33.59682999 122.30474731 33.59682999 122.30474731 33.6109314 124.08642578 C33.60536224 125.14784286 33.59979309 126.20925995 33.59405518 127.30284119 C33.59552174 128.2266455 33.5969883 129.15044981 33.5984993 130.10224819 C33.2265625 132.43359375 33.2265625 132.43359375 31.93319321 134.22901249 C28.97555641 136.31658413 25.47356978 135.88031243 21.98046875 135.8671875 C21.17294662 135.87242935 20.3654245 135.8776712 19.53343201 135.8830719 C17.82625477 135.88949261 16.1190333 135.88815443 14.41186523 135.87963867 C11.80176825 135.87113514 9.1938647 135.89987588 6.58398438 135.93164062 C4.92447982 135.93325293 3.2649714 135.93267454 1.60546875 135.9296875 C0.82619522 135.94092148 0.04692169 135.95215546 -0.75596619 135.96372986 C-4.12640229 135.92046406 -6.2653568 135.82480348 -8.97979832 133.73474979 C-11.15325138 130.94631012 -11.27386042 129.61438999 -11.27464294 126.11338806 C-11.28447708 125.03521317 -11.29431122 123.95703827 -11.30444336 122.84619141 C-11.29477539 121.66839111 -11.28510742 120.49059082 -11.27514648 119.27709961 C-11.28054947 118.03287735 -11.28595245 116.78865509 -11.29151917 115.50672913 C-11.30188417 112.09743057 -11.29430425 108.6891023 -11.27780795 105.27988887 C-11.26395537 101.71251325 -11.27041764 98.14516686 -11.27394104 94.57777405 C-11.27664266 88.5881436 -11.26317067 82.59871361 -11.23999023 76.60913086 C-11.2133685 69.68236066 -11.21163733 62.75592537 -11.2233786 55.82912153 C-11.23415312 49.16662681 -11.22797272 42.50425335 -11.21382332 35.84176826 C-11.20806185 33.00568339 -11.20814739 30.16968719 -11.21288872 27.333601 C-11.21854172 23.3758359 -11.19935216 19.41840678 -11.17749023 15.46069336 C-11.18199188 14.28086884 -11.18649353 13.10104431 -11.19113159 11.88546753 C-11.18122696 10.81011246 -11.17132233 9.73475739 -11.16111755 8.6268158 C-11.15868766 7.69086043 -11.15625776 6.75490507 -11.15375423 5.79058743 C-10.7734375 3.43359375 -10.7734375 3.43359375 -9.46634007 1.63427067 C-6.62033986 -0.38423106 -3.3642545 -0.01344779 0 0 Z " fill="#727272" transform="translate(1772.7734375,213.56640625)"/>
<path d="M0 0 C62.04 0 124.08 0 188 0 C188 0.33 188 0.66 188 1 C187.30890137 1.06993164 186.61780273 1.13986328 185.90576172 1.21191406 C107.67194745 6.41531536 107.67194745 6.41531536 39.75 39.9375 C3.37522729 85.16221741 3.63172275 170.83010488 1 226 C0.67 226 0.34 226 0 226 C0 151.42 0 76.84 0 0 Z " fill="#FDFDFD" transform="translate(0,0)"/>
<path d="M0 0 C0.33 0 0.66 0 1 0 C1.01981934 0.78947021 1.03963867 1.57894043 1.06005859 2.39233398 C1.42734726 16.33002563 1.83418459 30.13163377 3.73828125 43.95703125 C4.23258602 47.81555954 4.57029732 51.69021529 4.9375 55.5625 C6.77691454 74.17527911 9.14084378 92.45172744 13.26123047 110.71142578 C14.05857982 114.26076343 14.82740799 117.81578265 15.59765625 121.37109375 C23.3655965 159.99865219 23.3655965 159.99865219 46.23828125 190.70703125 C48.76169578 192.31438269 51.31867481 193.67214046 54 195 C55.05832031 195.54011719 56.11664063 196.08023438 57.20703125 196.63671875 C92.29290528 213.65829165 135.44982477 219.11014798 174 223 C174 223.33 174 223.66 174 224 C116.58 224 59.16 224 0 224 C0 150.08 0 76.16 0 0 Z " fill="#FCFDFC" transform="translate(0,288)"/>
<path d="M0 0 C7.92687672 5.23472991 12.418597 13.05807132 14.5234375 22.1875 C16.36143914 33.03472276 14.44677719 42.48627733 8.16796875 51.68359375 C3.23908724 57.60408456 -1.70253019 60.56751006 -9 63 C-19.56682183 63.89657882 -27.52698641 63.14842007 -36.0234375 56.390625 C-42.52229258 50.41277518 -46.54076127 42.28583015 -47.1875 33.43359375 C-47.42194229 22.89834351 -45.57186971 14.45953442 -39 6 C-27.51980641 -5.12535124 -14.34124133 -7.08900385 0 0 Z " fill="#FCFCFC" transform="translate(1683,252)"/>
<path d="M0 0 C8.82562562 5.60917539 13.65863399 13.60090198 16.9375 23.4375 C17.72375365 35.06498188 16.5830446 44.76142095 9.74609375 54.39453125 C4.73507554 60.05492547 -2.17416291 64.04073091 -9.69921875 64.80859375 C-19.51580386 65.10932329 -26.63690149 64.15417884 -34.3046875 57.48828125 C-41.68673492 49.95751126 -44.40671617 41.89218938 -44.5625 31.4375 C-44.38457259 20.35794701 -41.3196917 12.54953959 -33.53125 4.609375 C-24.03669936 -3.74342588 -11.54555587 -5.85142614 0 0 Z " fill="#FDFDFD" transform="translate(982.0625,250.5625)"/>
<path d="M0 0 C7.77035524 4.43308728 11.67468663 11.78237322 14.625 20 C17.57595247 31.31198447 15.47961866 42.4211612 10.1796875 52.59765625 C6.6525537 58.04787557 1.83476596 62.04914432 -4.375 64 C-13.84405253 64.92293297 -20.8499781 63.88162612 -28.5 58.0625 C-34.52561443 52.59849623 -38.08982445 43.3804834 -38.61328125 35.33984375 C-38.90656633 23.75508297 -37.50604114 15.07995375 -30.08984375 5.7578125 C-22.07333317 -2.45956737 -10.53702491 -4.76484586 0 0 Z " fill="#FCFCFC" transform="translate(1517.375,251)"/>
<path d="M0 0 C1.26714844 -0.02449219 2.53429688 -0.04898438 3.83984375 -0.07421875 C15.47712368 -0.11092941 15.47712368 -0.11092941 20.125 4.375 C23.42244644 9.32116966 22.45260021 14.93944104 22.4375 20.75 C22.45361328 21.98234375 22.46972656 23.2146875 22.48632812 24.484375 C22.48697266 25.67289063 22.48761719 26.86140625 22.48828125 28.0859375 C22.49126221 29.17181152 22.49424316 30.25768555 22.49731445 31.37646484 C21.92551384 35.98161571 19.67065814 39.42028488 16.125 42.375 C10.73016531 44.17327823 4.95853616 43.68761286 -0.6875 43.75 C-1.95916016 43.78738281 -3.23082031 43.82476562 -4.54101562 43.86328125 C-15.02592291 43.96214365 -15.02592291 43.96214365 -18.69921875 40.9765625 C-23.27026445 35.51100337 -22.13605278 29.49834926 -22.1875 22.625 C-22.21650391 21.34882813 -22.24550781 20.07265625 -22.27539062 18.7578125 C-22.34688196 8.22108929 -22.34688196 8.22108929 -20.10546875 4.609375 C-14.38195734 -1.12416007 -7.65879789 0.00774398 0 0 Z " fill="#747474" transform="translate(1239.875,155.625)"/>
<path d="M0 0 C1.26779297 -0.02900391 2.53558594 -0.05800781 3.84179688 -0.08789062 C15.82588249 -0.16941502 15.82588249 -0.16941502 21.3125 4.3125 C24.58863328 9.34821821 23.64073199 15.47006553 23.625 21.25 C23.64111328 22.43013672 23.65722656 23.61027344 23.67382812 24.82617188 C23.67447266 25.96505859 23.67511719 27.10394531 23.67578125 28.27734375 C23.67876221 29.3149585 23.68174316 30.35257324 23.68481445 31.42163086 C23.10018805 35.96101529 20.80736776 39.4001102 17.3125 42.3125 C12.06207952 44.06264016 6.49572851 43.58199743 1 43.625 C-0.83594727 43.66850586 -0.83594727 43.66850586 -2.70898438 43.71289062 C-13.99742796 43.7926893 -13.99742796 43.7926893 -18.6875 39.3125 C-21.83057068 34.59789398 -21.09751233 29.57608241 -21.11303711 24.02563477 C-21.12489705 22.01743151 -21.17459063 20.0095684 -21.22460938 18.00195312 C-21.2849332 7.14914922 -21.2849332 7.14914922 -18.28515625 3.45703125 C-12.81580613 -1.05826682 -6.84822441 0.05143884 0 0 Z " fill="#737373" transform="translate(1782.6875,155.6875)"/>
<path d="M0 0 C6.6 0 13.2 0 20 0 C20 20.79 20 41.58 20 63 C6.27272727 60.25454545 6.27272727 60.25454545 1.125 53.5625 C-1.4955591 47.59344872 -1.1467583 41.21996599 -1.1328125 34.82421875 C-1.13376923 33.85845413 -1.13472595 32.89268951 -1.13571167 31.8976593 C-1.1363898 29.86626113 -1.1345612 27.83486076 -1.13037109 25.8034668 C-1.12498841 22.68077809 -1.13034342 19.55823131 -1.13671875 16.43554688 C-1.13605848 14.46093718 -1.13477837 12.48632758 -1.1328125 10.51171875 C-1.13483673 9.57325607 -1.13686096 8.6347934 -1.13894653 7.66789246 C-1.13579437 6.80642105 -1.13264221 5.94494965 -1.12939453 5.05737305 C-1.12859894 4.29603561 -1.12780334 3.53469818 -1.12698364 2.75028992 C-1 1 -1 1 0 0 Z " fill="#FBFBFB" transform="translate(2042,248)"/>
<path d="M0 0 C3.58407911 2.46903228 6.64512602 5.12518094 8.8125 8.9375 C9.3075 12.4025 9.3075 12.4025 9.8125 15.9375 C-2.7275 15.9375 -15.2675 15.9375 -28.1875 15.9375 C-26.86429594 9.32147968 -23.70193917 5.49669607 -18.26171875 1.53515625 C-12.26253474 -1.84314176 -6.49190848 -2.16396949 0 0 Z " fill="#F9F9F9" transform="translate(1358.1875,246.0625)"/>
<path d="M0 0 C4 2 4 2 6 4 C4.35 3.67 2.7 3.34 1 3 C1 21.15 1 39.3 1 58 C0.67 58 0.34 58 0 58 C0 38.86 0 19.72 0 0 Z " fill="#EDEDED" transform="translate(1480,342)"/>
<path d="M0 0 C1.98 0.99 1.98 0.99 4 2 C4.33 2.99 4.66 3.98 5 5 C3.125 8.1875 3.125 8.1875 1 11 C0.67 11 0.34 11 0 11 C0 7.37 0 3.74 0 0 Z " fill="#F6F7F6" transform="translate(1103,222)"/>
<path d="M0 0 C2 1 4 2 6 3 C6 3.99 6 4.98 6 6 C4.02 6.99 4.02 6.99 2 8 C1.34 5.36 0.68 2.72 0 0 Z " fill="#777978" transform="translate(234,319)"/>
<path d="M0 0 C4.95 0 9.9 0 15 0 C15 0.33 15 0.66 15 1 C10.38 1 5.76 1 1 1 C0.67 1.99 0.34 2.98 0 4 C-0.66 4 -1.32 4 -2 4 C-1.34 2.68 -0.68 1.36 0 0 Z " fill="#808080" transform="translate(1982,214)"/>
<path d="M0 0 C0.99 0.33 1.98 0.66 3 1 C0.14723863 3.93200474 -2.65079784 6.64315404 -6 9 C-6 6 -6 6 -4.6875 4.39453125 C-4.130625 3.87246094 -3.57375 3.35039062 -3 2.8125 C-2.443125 2.28269531 -1.88625 1.75289062 -1.3125 1.20703125 C-0.6628125 0.60955078 -0.6628125 0.60955078 0 0 Z " fill="#7F7F7F" transform="translate(1615,228)"/>
<path d="M0 0 C1.98 0.66 3.96 1.32 6 2 C5.01 2.99 4.02 3.98 3 5 C1.68 4.34 0.36 3.68 -1 3 C-0.67 2.01 -0.34 1.02 0 0 Z " fill="#787878" transform="translate(1332,305)"/>
<path d="M0 0 C1.65 1.32 3.3 2.64 5 4 C3.625 6 3.625 6 2 8 C1.34 8 0.68 8 0 8 C0 5.36 0 2.72 0 0 Z " fill="#E6E6E5" transform="translate(1475,220)"/>
<path d="M0 0 C4 2 4 2 6 4 C4.35 3.67 2.7 3.34 1 3 C1 4.98 1 6.96 1 9 C0.67 9 0.34 9 0 9 C0 6.03 0 3.06 0 0 Z " fill="#E6E6E6" transform="translate(1480,342)"/>
<path d="M0 0 C0.66 0.66 1.32 1.32 2 2 C1.34 2 0.68 2 0 2 C-0.0825 2.61875 -0.165 3.2375 -0.25 3.875 C-1 6 -1 6 -3.0625 7.25 C-4.0215625 7.62125 -4.0215625 7.62125 -5 8 C-1.125 1.125 -1.125 1.125 0 0 Z " fill="#7B7A7B" transform="translate(907,237)"/>
<path d="M0 0 C2.475 0.495 2.475 0.495 5 1 C5 2.32 5 3.64 5 5 C3.0625 4.1875 3.0625 4.1875 1 3 C0.67 2.01 0.34 1.02 0 0 Z " fill="#787878" transform="translate(1171,216)"/>
<path d="M0 0 C2 2 2 2 2 5 C0.35 5.33 -1.3 5.66 -3 6 C-1.125 1.125 -1.125 1.125 0 0 Z " fill="#7E7D7D" transform="translate(732,176)"/>
</svg>
