<?xml version="1.0" encoding="UTF-8"?>
<svg version="1.1" xmlns="http://www.w3.org/2000/svg" width="1024" height="1024">
<path d="M0 0 C337.92 0 675.84 0 1024 0 C1024 337.92 1024 675.84 1024 1024 C686.08 1024 348.16 1024 0 1024 C0 686.08 0 348.16 0 0 Z " fill="#FEFEFE" transform="translate(0,0)"/>
<path d="M0 0 C0 5.28 0 10.56 0 16 C-5.94 16 -11.88 16 -18 16 C-17.505 17.216875 -17.01 18.43375 -16.5 19.6875 C-14.03880035 27.20125854 -13.32466492 35.57432868 -16.9375 42.8125 C-21.87134168 50.38051139 -28.34946689 55.5599211 -37 58 C-38.08152344 58.3403125 -39.16304687 58.680625 -40.27734375 59.03125 C-46.8710076 60.66763373 -53.74301152 60.47265832 -60.5 60.625 C-61.90887638 60.66325297 -63.3177312 60.70230875 -64.7265625 60.7421875 C-68.15091327 60.83600533 -71.57526508 60.92170216 -75 61 C-75.66 62.32 -76.32 63.64 -77 65 C-75.83654053 65.0501123 -74.67308105 65.10022461 -73.47436523 65.15185547 C-69.0848896 65.34271343 -64.69585222 65.54244854 -60.30688477 65.74462891 C-58.42092262 65.83031799 -56.5348549 65.91371978 -54.64868164 65.99462891 C-13.51663489 67.76539467 -13.51663489 67.76539467 -4.1875 77.3125 C-1.98240726 80.4184538 -1.01618907 83.13349101 -1.37890625 86.953125 C-2.73558263 91.42418427 -5.30279109 94.22857695 -9 97 C-23.35976981 104.17080793 -39.25316654 104.35366986 -54.95678711 104.31567383 C-57.66626704 104.31252468 -60.37463921 104.33602551 -63.08398438 104.36132812 C-71.92506936 104.39494747 -80.57940911 104.03663286 -89.33203125 102.73046875 C-90.08892746 102.62237381 -90.84582367 102.51427887 -91.62565613 102.40290833 C-96.75413588 101.54190334 -101.75794753 100.11522584 -106 97 C-108.10193113 93.57420686 -108.57350462 91.01453236 -108 87 C-105.5625 84.1875 -105.5625 84.1875 -103 82 C-102.505 81.505 -102.505 81.505 -102 81 C-100.48530552 80.76807135 -98.96245438 80.58784762 -97.4375 80.4375 C-96.19806641 80.31181641 -96.19806641 80.31181641 -94.93359375 80.18359375 C-94.29550781 80.12300781 -93.65742187 80.06242188 -93 80 C-93 79.34 -93 78.68 -93 78 C-93.9075 77.773125 -94.815 77.54625 -95.75 77.3125 C-99.55860907 75.77440787 -100.92108323 74.51816683 -103 71 C-103.62966542 67.2220075 -103.36134528 65.59760951 -101.375 62.3125 C-97.46358529 58.50401726 -93.36373193 56.78878411 -88 56 C-88.515625 55.62875 -89.03125 55.2575 -89.5625 54.875 C-90.366875 54.25625 -91.17125 53.6375 -92 53 C-92.54398438 52.60941406 -93.08796875 52.21882812 -93.6484375 51.81640625 C-99.39630954 47.3862778 -103.27592073 42.26715245 -104.28662109 34.91503906 C-104.94121726 27.20828224 -105.59453923 18.79763313 -100.48828125 12.46875 C-99.99714844 11.9840625 -99.50601563 11.499375 -99 11 C-98.51917969 10.5153125 -98.03835938 10.030625 -97.54296875 9.53125 C-88.28467982 1.12794817 -77.39848277 0.62664673 -65.54858398 0.62939453 C-63.46577753 0.62505886 -61.38516227 0.58876466 -59.30273438 0.55078125 C-47.8133345 0.4538616 -36.9847852 1.91964105 -27 8 C-22.84931212 7.78714421 -19.62793303 5.92502569 -16 4 C-10.29205755 0.97129584 -6.48486085 0 0 0 Z " fill="#434343" transform="translate(640,549)"/>
<path d="M0 0 C9.9 0 19.8 0 30 0 C30 33.33 30 66.66 30 101 C20.76 101 11.52 101 2 101 C2 98.36 2 95.72 2 93 C1.23816406 93.48210937 0.47632813 93.96421875 -0.30859375 94.4609375 C-1.34113281 95.09257813 -2.37367188 95.72421875 -3.4375 96.375 C-4.44683594 97.00148438 -5.45617187 97.62796875 -6.49609375 98.2734375 C-14.54911615 102.24159347 -22.70954853 102.36444192 -31.5625 102.375 C-32.64724609 102.39949219 -33.73199219 102.42398438 -34.84960938 102.44921875 C-42.76946194 102.47807067 -48.2675217 101.32931862 -54.2421875 96 C-54.78101563 95.34 -55.31984375 94.68 -55.875 94 C-56.42929687 93.34 -56.98359375 92.68 -57.5546875 92 C-63.46385698 83.82298709 -62.28303449 73.44989859 -62.35009766 63.80639648 C-62.36664944 62.06570051 -62.39392956 60.32507229 -62.43212891 58.5847168 C-62.85105759 39.34496145 -62.85105759 39.34496145 -55.32250977 31.1809082 C-48.17762863 24.11145819 -39.58844563 23.5280897 -30.02075195 23.57373047 C-18.95505974 23.90507283 -9.93344817 27.03327592 0 32 C0 21.44 0 10.88 0 0 Z " fill="#454645" transform="translate(325,525)"/>
<path d="M0 0 C4.84474014 3.85768093 7.34226097 6.96202102 9 13 C9.20836944 15.8448557 9.32756978 18.58976068 9.3359375 21.43359375 C9.3459227 22.62783714 9.3459227 22.62783714 9.35610962 23.84620667 C9.3661924 25.52285466 9.370928 27.19954243 9.37060547 28.8762207 C9.37498134 31.42662206 9.41135212 33.9752945 9.44921875 36.52539062 C9.45508755 38.16145247 9.45905652 39.79752246 9.4609375 41.43359375 C9.47530853 42.18797226 9.48967957 42.94235077 9.50448608 43.71958923 C9.45097407 49.98868329 7.54407771 54.0597642 3.39453125 58.85546875 C-8.51534456 68.88329011 -23.23199179 70.50852147 -38.3125 70.375 C-39.61123047 70.38660156 -40.90996094 70.39820313 -42.24804688 70.41015625 C-54.73288925 70.3729066 -68.30181619 69.7445967 -78 61 C-83.72095257 55.1676003 -86.31032718 50.95433787 -86.30078125 42.640625 C-86.30506638 41.81802185 -86.3093515 40.9954187 -86.31376648 40.14788818 C-86.31950936 38.40621866 -86.32001034 36.66452515 -86.31567383 34.92285156 C-86.3125281 32.27366464 -86.33592292 29.62561019 -86.36132812 26.9765625 C-86.36360273 25.2812514 -86.36430387 23.58593732 -86.36328125 21.890625 C-86.372491 21.10496155 -86.38170074 20.3192981 -86.39118958 19.50982666 C-86.33071024 12.22199347 -84.26918141 6.26918141 -79 1 C-59.0127345 -14.6315885 -20.79613319 -13.86408879 0 0 Z " fill="#454545" transform="translate(857,406)"/>
<path d="M0 0 C2.36931865 2.13377235 4.29235127 4.30953185 6 7 C6.34401855 7.51780029 6.68803711 8.03560059 7.04248047 8.5690918 C8.46338299 12.17641622 8.36581896 15.78011231 8.40625 19.60546875 C8.41765015 20.44410965 8.42905029 21.28275055 8.4407959 22.14680481 C8.45966537 23.92114239 8.47275178 25.69554957 8.48046875 27.4699707 C8.49981381 30.16159347 8.5618414 32.85011399 8.625 35.54101562 C8.82138615 51.32073896 8.82138615 51.32073896 3.60009766 57.4831543 C-10.08323502 70.45455282 -30.25523135 70.49632389 -47.9453125 70.27734375 C-60.28241302 69.89000273 -71.83422595 67.16577405 -80.80078125 58.19921875 C-85.90976838 52.50495386 -87.31818559 48.33166225 -87.37109375 40.61328125 C-87.38012222 39.7968364 -87.3891507 38.98039154 -87.39845276 38.13920593 C-87.41294325 36.41193294 -87.42183902 34.68460521 -87.42553711 32.95727539 C-87.4373829 30.3383896 -87.48653282 27.72190086 -87.53710938 25.10351562 C-87.70153455 8.46790769 -87.70153455 8.46790769 -82 2 C-63.94247036 -16.18078922 -19.81163404 -13.12635229 0 0 Z " fill="#444544" transform="translate(233,558)"/>
<path d="M0 0 C0.96292969 0.44601562 1.92585937 0.89203125 2.91796875 1.3515625 C9.92595869 5.05741242 10.97954189 7.46931284 16 15 C16 22.92 16 30.84 16 39 C-5.78 39 -27.56 39 -50 39 C-49.65830483 48.95632664 -49.65830483 48.95632664 -45 56 C-41.12276275 58.76671992 -36.69641185 58.36761484 -32.125 58.375 C-31.33480469 58.39949219 -30.54460938 58.42398438 -29.73046875 58.44921875 C-24.37433104 58.47595488 -21.14093429 57.71037843 -17 54 C-16.34 52.35 -15.68 50.7 -15 49 C-5.1 49 4.8 49 15 49 C15 56.01561636 13.70449424 58.16565772 9 63 C-2.89692872 72.32526938 -16.45611028 73.37368062 -30.99389648 73.37060547 C-33.29811932 73.37497274 -35.60041174 73.41138167 -37.90429688 73.44921875 C-50.50745543 73.54550874 -62.4638101 72.03786169 -72 63 C-79.52041127 55.47958873 -80.40407329 47.32932006 -80.5078125 37.03320312 C-80.50523437 35.72287109 -80.50265625 34.41253906 -80.5 33.0625 C-80.52835938 31.75603516 -80.55671875 30.44957031 -80.5859375 29.10351562 C-80.60478811 19.73947266 -79.2837076 12.66055082 -72.82421875 5.6328125 C-72.11910156 5.13523437 -71.41398438 4.63765625 -70.6875 4.125 C-69.99011719 3.61195313 -69.29273438 3.09890625 -68.57421875 2.5703125 C-62.2535435 -1.28539532 -56.92436749 -3.6398549 -49.5 -4.25 C-48.6946582 -4.32226807 -47.88931641 -4.39453613 -47.05957031 -4.46899414 C-14.96795679 -7.04593732 -14.96795679 -7.04593732 0 0 Z " fill="#434343" transform="translate(850,555)"/>
<path d="M0 0 C2.20267323 0.01830476 4.40492438 0.02050861 6.60766602 0.02026367 C21.5758924 0.0562658 32.30880239 0.83540812 43.79321289 11.20581055 C47.31300399 15.01581698 47.89490357 18.02587549 47.9597168 23.16772461 C47.97958649 24.3686676 47.99945618 25.5696106 48.01992798 26.8069458 C48.03147919 28.09872742 48.0430304 29.39050903 48.05493164 30.72143555 C48.07364901 32.0609455 48.09322285 33.40044373 48.11361694 34.7399292 C48.16488438 38.25794558 48.20453866 41.77600017 48.24176025 45.29418945 C48.28183388 48.88722136 48.33291085 52.48009509 48.38305664 56.07299805 C48.47975192 63.11715297 48.56417704 70.16140715 48.64086914 77.20581055 C44.52914354 77.230468 40.41744636 77.24865013 36.30566406 77.26074219 C34.90591686 77.26578134 33.50617494 77.27261271 32.10644531 77.28125 C30.09841137 77.29333374 28.09033957 77.29850861 26.08227539 77.3034668 C24.8725708 77.30870361 23.66286621 77.31394043 22.41650391 77.31933594 C19.64086914 77.20581055 19.64086914 77.20581055 18.64086914 76.20581055 C18.60006131 74.20622691 18.59832558 72.20535801 18.64086914 70.20581055 C17.72047852 70.60413086 16.80008789 71.00245117 15.85180664 71.4128418 C0.08434423 78.0847423 -19.37033101 83.47810599 -36.24194336 77.3190918 C-41.0832712 74.77337513 -45.03962677 71.40498403 -47.85913086 66.70581055 C-49.01542404 60.92434467 -48.72955677 56.39075067 -45.85522461 51.2487793 C-34.18977604 35.31919809 -10.90664489 32.90534923 7.05102539 29.57299805 C10.62567881 29.06618444 14.03413192 29.14362542 17.64086914 29.20581055 C18.05403507 19.54852948 18.05403507 19.54852948 14.07836914 11.26831055 C7.91643119 9.00421644 0.09358658 9.45815748 -6.35913086 10.20581055 C-10.09490646 11.95148086 -10.09490646 11.95148086 -12.35913086 15.20581055 C-12.68913086 18.17581055 -13.01913086 21.14581055 -13.35913086 24.20581055 C-23.58913086 24.20581055 -33.81913086 24.20581055 -44.35913086 24.20581055 C-42.86223148 15.22441429 -38.46931719 10.50148808 -31.35913086 5.20581055 C-21.54232481 -0.06617789 -10.86910877 -0.09333349 0 0 Z " fill="#454545" transform="translate(316.359130859375,396.794189453125)"/>
<path d="M0 0 C3.59240785 2.94160932 5.04320947 6.91016585 6.125 11.3125 C6.52686096 16.02454656 6.47456512 20.71130744 6.41796875 25.4375 C6.41236341 26.79369637 6.40809775 28.14989887 6.40510559 29.50610352 C6.39373039 33.05061035 6.36432807 36.59473988 6.33099365 40.13909912 C6.30013326 43.765857 6.2864012 47.39267852 6.27148438 51.01953125 C6.24104703 58.11751914 6.18231061 65.21447518 6.125 72.3125 C-4.435 72.3125 -14.995 72.3125 -25.875 72.3125 C-25.91238281 67.93226563 -25.94976562 63.55203125 -25.98828125 59.0390625 C-26.02637314 55.5518795 -26.067446 52.06476007 -26.1105423 48.57763672 C-26.1552519 44.89357562 -26.19467674 41.20962957 -26.22143555 37.52539062 C-26.24739869 33.97847997 -26.28774991 30.43200106 -26.33818626 26.8853569 C-26.35490265 25.53059626 -26.36638716 24.17576087 -26.37261391 22.82091141 C-26.38220236 20.92687481 -26.41192843 19.03297223 -26.44262695 17.13916016 C-26.45928154 15.52033432 -26.45928154 15.52033432 -26.47627258 13.86880493 C-26.60785263 13.0252243 -26.73943268 12.18164368 -26.875 11.3125 C-31.5790995 8.17643366 -36.36719398 8.75102463 -41.875 9.3125 C-46.64968598 10.6730288 -50.74983495 12.56238997 -54.875 15.3125 C-55.35235558 17.77231426 -55.35235558 17.77231426 -55.30737305 20.68017578 C-55.32716721 21.80118683 -55.34696136 22.92219788 -55.36735535 24.07717896 C-55.37374527 25.29178802 -55.38013519 26.50639709 -55.38671875 27.7578125 C-55.40466995 28.99796112 -55.42262115 30.23810974 -55.44111633 31.51583862 C-55.48619974 34.81366068 -55.51844894 38.11128507 -55.54455566 41.40930176 C-55.5743273 44.77430709 -55.62070682 48.13908016 -55.66601562 51.50390625 C-55.75370062 58.10679051 -55.81358296 64.70910939 -55.875 71.3125 C-65.445 71.3125 -75.015 71.3125 -84.875 71.3125 C-84.875 46.5625 -84.875 21.8125 -84.875 -3.6875 C-75.305 -3.6875 -65.735 -3.6875 -55.875 -3.6875 C-55.545 -0.7175 -55.215 2.2525 -54.875 5.3125 C-54.15054688 4.91417969 -53.42609375 4.51585937 -52.6796875 4.10546875 C-50.68181949 3.01063708 -48.68034841 1.92236096 -46.67578125 0.83984375 C-44.74189624 -0.21475742 -42.82988345 -1.31012263 -40.9375 -2.4375 C-28.43371617 -7.54108524 -11.13839858 -8.51623391 0 0 Z " fill="#474747" transform="translate(243.875,401.6875)"/>
<path d="M0 0 C7.1465625 -0.0309375 7.1465625 -0.0309375 14.4375 -0.0625 C15.9423999 -0.071604 17.4472998 -0.08070801 18.99780273 -0.09008789 C20.17286377 -0.09258545 21.3479248 -0.09508301 22.55859375 -0.09765625 C24.37315063 -0.10551147 24.37315063 -0.10551147 26.22436523 -0.11352539 C29 0 29 0 30 1 C30.09492722 3.34253782 30.12559791 5.65546104 30.11352539 7.99829102 C30.11367142 8.72995483 30.11381744 9.46161865 30.1139679 10.2154541 C30.11326867 12.64496784 30.10547585 15.07440583 30.09765625 17.50390625 C30.0957921 19.18399514 30.09436819 20.86408457 30.09336853 22.54417419 C30.08954307 26.97473643 30.07971256 31.4052661 30.06866455 35.83581543 C30.05845103 40.35342976 30.05387104 44.87104934 30.04882812 49.38867188 C30.03809031 58.25913123 30.02049329 67.12955781 30 76 C20.1 76 10.2 76 0 76 C0 73.36 0 70.72 0 68 C-0.80824219 68.40992188 -1.61648438 68.81984375 -2.44921875 69.2421875 C-3.51785156 69.78101563 -4.58648438 70.31984375 -5.6875 70.875 C-6.74324219 71.40867187 -7.79898438 71.94234375 -8.88671875 72.4921875 C-17.36408639 76.59791386 -24.92683253 77.24301179 -34.25 77.375 C-35.72919922 77.43107422 -35.72919922 77.43107422 -37.23828125 77.48828125 C-44.25994562 77.57154209 -50.44476402 76.57102175 -56 72 C-62.19718301 65.4428673 -61.656493 57.97669606 -61.48828125 49.4375 C-61.47893984 48.03647125 -61.47183001 46.63542601 -61.46684265 45.234375 C-61.44787645 41.57120582 -61.39886935 37.90904957 -61.34332275 34.24627686 C-61.29190319 30.49896183 -61.26900532 26.75147605 -61.24414062 23.00390625 C-61.19339681 15.66838028 -61.09551595 8.33562495 -61 1 C-51.1 1 -41.2 1 -31 1 C-30.98582031 5.05667969 -30.97164062 9.11335937 -30.95703125 13.29296875 C-30.93177443 16.53419652 -30.90154542 19.77529333 -30.86795807 23.01644135 C-30.83390092 26.43430953 -30.80854174 29.85172881 -30.80444336 33.26977539 C-30.79933358 37.1945785 -30.75420084 41.11843673 -30.70703125 45.04296875 C-30.7109639 46.26396774 -30.71489655 47.48496674 -30.71894836 48.7429657 C-30.83356639 55.57786608 -30.83356639 55.57786608 -27.59667969 61.26831055 C-23.32591015 64.11642717 -19.95525864 63.87926873 -15 63 C-10.15445108 61.36149309 -5.570552 59.285276 -1 57 C-0.67 38.19 -0.34 19.38 0 0 Z " fill="#454545" transform="translate(717,551)"/>
<path d="M0 0 C1.09513916 0.00491455 2.19027832 0.0098291 3.31860352 0.01489258 C18.45409094 0.23205247 33.67519168 2.11269168 44.875 13.3125 C48.77902296 18.42162329 49.01658979 21.44521831 49.875 28.3125 C39.315 28.3125 28.755 28.3125 17.875 28.3125 C17.38 22.8675 17.38 22.8675 16.875 17.3125 C14.18792442 13.68131678 12.25138297 12.08525294 7.875 11.3125 C5.73148652 11.1947847 3.58420747 11.13740871 1.4375 11.125 C0.32503906 11.11082031 -0.78742187 11.09664063 -1.93359375 11.08203125 C-5.12390558 11.31242097 -7.24385156 11.98311933 -10.125 13.3125 C-11.115 13.6425 -12.105 13.9725 -13.125 14.3125 C-14.04274984 17.06574953 -14.26516282 18.76903823 -14.30200195 21.61279297 C-14.31483719 22.477341 -14.32767242 23.34188904 -14.34089661 24.2326355 C-14.34828354 25.16391266 -14.35567047 26.09518982 -14.36328125 27.0546875 C-14.371353 28.01521027 -14.37942474 28.97573303 -14.38774109 29.96536255 C-14.40157066 31.99788615 -14.41229785 34.03043286 -14.42016602 36.06298828 C-14.43739593 39.16874142 -14.48129421 42.27343462 -14.52539062 45.37890625 C-14.53551638 47.35415885 -14.54403285 49.32942048 -14.55078125 51.3046875 C-14.56828934 52.2319162 -14.58579742 53.1591449 -14.60383606 54.11447144 C-14.58950996 58.37891484 -14.52586096 60.67431544 -12.21240234 64.35742188 C-7.12785811 69.11964763 -2.32392144 68.73137086 4.44140625 68.6328125 C9.08299009 68.19980923 11.28561271 67.24927142 14.875 64.3125 C16.65626735 61.4171754 17.17597495 58.99143942 17.4375 55.625 C17.77535587 51.41214413 17.77535587 51.41214413 18.875 50.3125 C21.16651417 50.22459025 23.46072524 50.20555962 25.75390625 50.21484375 C26.78389992 50.21696617 26.78389992 50.21696617 27.83470154 50.21913147 C30.03567801 50.22474521 32.23655409 50.23729993 34.4375 50.25 C35.92643083 50.25501324 37.41536324 50.25957645 38.90429688 50.26367188 C42.56123075 50.27471907 46.21810558 50.29199287 49.875 50.3125 C48.88833361 59.49903466 46.71723208 65.68739641 39.34765625 71.70703125 C27.8021298 79.20341572 15.17703917 79.53505617 1.88647461 79.60766602 C0.42934431 79.61915222 -1.02774502 79.6395509 -2.48461914 79.66918945 C-15.9495835 79.9418706 -28.42177848 78.31750683 -39.125 69.3125 C-44.37650925 64.2158264 -46.32072939 59.46847986 -46.47984314 52.15751648 C-46.48520584 51.37721573 -46.49056854 50.59691498 -46.49609375 49.79296875 C-46.50512222 48.97556717 -46.5141507 48.15816559 -46.52345276 47.31599426 C-46.53792262 45.59050133 -46.54683387 43.86495393 -46.55053711 42.1394043 C-46.56241655 39.51841283 -46.61161579 36.89979092 -46.66210938 34.27929688 C-46.67157705 32.59636556 -46.67881044 30.9134199 -46.68359375 29.23046875 C-46.70312607 28.45624069 -46.72265839 27.68201263 -46.74278259 26.88432312 C-46.68667184 20.01514857 -43.95056173 15.29305035 -39.2734375 10.359375 C-27.70690468 1.90102941 -14.00118476 -0.07444569 0 0 Z " fill="#454545" transform="translate(534.125,395.6875)"/>
<path d="M0 0 C1.90942383 -0.0309375 1.90942383 -0.0309375 3.85742188 -0.0625 C14.85586712 -0.10769135 24.12776024 1.30017743 33.3125 7.5625 C33.88871094 7.92794922 34.46492187 8.29339844 35.05859375 8.66992188 C39.14383607 11.36394842 42.10887445 14.24013194 44.9375 18.25 C44.9375 19.57 44.9375 20.89 44.9375 22.25 C42.27147504 22.58931227 39.60486986 22.92157176 36.9375 23.25 C36.19371094 23.34539062 35.44992187 23.44078125 34.68359375 23.5390625 C29.72861949 24.14227676 24.92907504 24.34075591 19.9375 24.25 C19.72996094 23.71890625 19.52242187 23.1878125 19.30859375 22.640625 C16.82268238 16.94071106 14.56744407 14.85645559 8.9375 12.25 C8.2775 11.92 7.6175 11.59 6.9375 11.25 C-1.26551731 10.40901763 -1.26551731 10.40901763 -8.75 13.1875 C-11.70611436 15.53049291 -11.70611436 15.53049291 -12.5 19 C-12.3424405 22.3908265 -12.3424405 22.3908265 -9.875 24.8125 C-2.53712602 30.17745503 6.83707301 32.57634614 15.6953125 33.890625 C17.9375 34.25 17.9375 34.25 20.9375 35.25 C20.9375 35.91 20.9375 36.57 20.9375 37.25 C22.29875 37.3428125 22.29875 37.3428125 23.6875 37.4375 C30.73964899 38.48598651 38.43129538 41.25590659 43.6875 46.1875 C46.92409376 50.5931321 46.81707104 55.5709159 46.59765625 60.859375 C45.57619979 66.10567208 43.01355223 68.96099038 38.9375 72.25 C38.30972656 72.77980469 37.68195313 73.30960937 37.03515625 73.85546875 C34.59983742 75.47447959 32.45287658 76.14703177 29.625 76.875 C28.72136719 77.11476563 27.81773437 77.35453125 26.88671875 77.6015625 C18.81712321 79.3758047 10.91226212 79.46673504 2.6875 79.5 C1.42808594 79.520625 0.16867187 79.54125 -1.12890625 79.5625 C-15.10087126 79.62053516 -28.08372673 76.39212246 -38.58984375 66.73046875 C-44.0625 61.22877984 -44.0625 61.22877984 -44.0625 57.25 C-42.78375 57.12625 -41.505 57.0025 -40.1875 56.875 C-36.73176453 56.50067387 -33.3949391 55.92964948 -30 55.1875 C-28.35641613 54.86337709 -26.71058889 54.55037749 -25.0625 54.25 C-23.95648437 54.04697266 -23.95648437 54.04697266 -22.828125 53.83984375 C-20.75 53.625 -20.75 53.625 -17.0625 54.25 C-15.50444769 56.09906783 -14.46551082 58.00299461 -13.33984375 60.140625 C-10.89794328 64.17312119 -7.13867343 66.52053366 -2.75 68.0625 C-1.863125 68.124375 -0.97625 68.18625 -0.0625 68.25 C0.69160156 68.311875 1.44570313 68.37375 2.22265625 68.4375 C8.3242537 68.73199641 12.1695801 68.20635906 16.9375 64.25 C18.25776414 60.76305609 18.25776414 60.76305609 17.9375 57.25 C13.19505791 50.79769784 1.66796129 49.10516111 -5.625 47.25 C-12.4262668 45.50590584 -18.70798488 43.22639645 -25.0625 40.25 C-26.31546875 39.68152344 -26.31546875 39.68152344 -27.59375 39.1015625 C-33.16651885 36.33375397 -37.41055203 33.00422674 -40.0625 27.25 C-41.05031954 22.29558725 -40.68817936 18.55141308 -38.5 14 C-32.42493 7.14607488 -26.89692429 3.8881512 -18.0625 1.25 C-17.48081055 1.073479 -16.89912109 0.89695801 -16.29980469 0.71508789 C-10.99591357 -0.38747786 -5.39475055 0.02139713 0 0 Z " fill="#444444" transform="translate(706.0625,396.75)"/>
<path d="M0 0 C28.05 0 56.1 0 85 0 C85 5.94 85 11.88 85 18 C80.4375 22.3125 80.4375 22.3125 77.39453125 24.03125 C73.34701493 26.37871631 70.09808603 29.20241382 66.625 32.3125 C65.3369153 33.4451234 64.04785357 34.57663663 62.7578125 35.70703125 C62.12649414 36.26213379 61.49517578 36.81723633 60.84472656 37.38916016 C58.0915046 39.79331031 55.29811373 42.14840759 52.5 44.5 C46.89156499 49.21739984 41.3555156 54.01517617 35.84765625 58.84960938 C31.21710467 62.89144766 31.21710467 62.89144766 29 64 C47.15 64.33 65.3 64.66 84 65 C84 68.63 84 72.26 84 76 C54.63 76 25.26 76 -5 76 C-5 61 -5 61 -0.1875 55.625 C1.84690668 54.04644629 3.91009889 52.50431238 6 51 C7.84214041 49.51082915 9.67573093 48.01101074 11.5 46.5 C12.4075 45.7678125 13.315 45.035625 14.25 44.28125 C17.08099578 41.93281032 19.79383598 39.49090098 22.5 37 C26.9578056 32.89729698 31.56215839 29.04697026 36.28125 25.25 C39.98289705 22.18656796 43.4966566 18.93512942 47.00390625 15.65234375 C49 14 49 14 51 14 C51 13.34 51 12.68 51 12 C34.17 12 17.34 12 0 12 C0 8.04 0 4.08 0 0 Z " fill="#464646" transform="translate(888,551)"/>
<path d="M0 0 C1.01513672 -0.02449219 2.03027344 -0.04898438 3.07617188 -0.07421875 C9.20493082 -0.0982374 12.7945459 0.26033074 17.4375 4.375 C19.875 7.3125 19.875 7.3125 21.4375 10.375 C21.03515625 13.06640625 21.03515625 13.06640625 20.4375 15.375 C16.83713863 16.40959685 13.23171232 17.4252864 9.625 18.4375 C8.60083984 18.73205078 7.57667969 19.02660156 6.52148438 19.33007812 C5.53857422 19.60400391 4.55566406 19.87792969 3.54296875 20.16015625 C2.63699951 20.41676025 1.73103027 20.67336426 0.79760742 20.93774414 C-1.5625 21.375 -1.5625 21.375 -4.5625 20.375 C-5.26461894 18.72295544 -5.93221413 17.05576231 -6.5625 15.375 C-12.4115244 12.4504878 -19.76539588 14.94819439 -25.73046875 16.42578125 C-28.77947796 17.44772503 -30.99577205 18.42654237 -33.5625 20.375 C-34.32400701 22.99913933 -34.32400701 22.99913933 -34.22192383 26.03979492 C-34.24156693 27.20077194 -34.26121002 28.36174896 -34.28144836 29.5579071 C-34.27554939 31.43770012 -34.27554939 31.43770012 -34.26953125 33.35546875 C-34.28465256 34.63859451 -34.29977386 35.92172028 -34.31535339 37.24372864 C-34.35523752 40.65179198 -34.3653958 44.05932113 -34.36938477 47.46759033 C-34.37871011 50.94665512 -34.41584846 54.4254149 -34.45117188 57.90429688 C-34.51841316 64.72826887 -34.5391926 71.55016944 -34.5625 78.375 C-44.4625 78.375 -54.3625 78.375 -64.5625 78.375 C-64.5625 52.965 -64.5625 27.555 -64.5625 1.375 C-54.6625 1.375 -44.7625 1.375 -34.5625 1.375 C-34.5625 4.345 -34.5625 7.315 -34.5625 10.375 C-32.95181641 9.54355469 -32.95181641 9.54355469 -31.30859375 8.6953125 C-29.87256109 7.96321742 -28.43635382 7.23146477 -27 6.5 C-26.29552734 6.13519531 -25.59105469 5.77039063 -24.86523438 5.39453125 C-16.53284363 1.1707387 -9.28371606 0.01183393 0 0 Z " fill="#4B4B4B" transform="translate(115.5625,548.625)"/>
<path d="M0 0 C0.83225098 0.00757324 1.66450195 0.01514648 2.52197266 0.02294922 C10.25072323 0.2309317 16.07791044 1.60251635 21.5625 7.3125 C23.73307937 10.81343447 23.67308833 12.428551 23.5 16.4375 C20.10833365 17.30882361 16.71117918 18.15648318 13.3125 19 C12.35279297 19.24685547 11.39308594 19.49371094 10.40429688 19.74804688 C9.47294922 19.97685547 8.54160156 20.20566406 7.58203125 20.44140625 C6.72843018 20.65611572 5.8748291 20.8708252 4.99536133 21.09204102 C2.2368025 21.47393718 0.18152472 21.12835484 -2.5 20.4375 C-2.5 19.1175 -2.5 17.7975 -2.5 16.4375 C-7.71866753 13.46742885 -11.48918923 13.88548677 -17.5 14.4375 C-22.12 16.7475 -26.74 19.0575 -31.5 21.4375 C-31.83 39.9175 -32.16 58.3975 -32.5 77.4375 C-42.4 77.4375 -52.3 77.4375 -62.5 77.4375 C-62.5 52.3575 -62.5 27.2775 -62.5 1.4375 C-52.93 1.4375 -43.36 1.4375 -33.5 1.4375 C-32.5 2.4375 -32.5 2.4375 -32.40234375 4.50390625 C-32.41394531 5.32761719 -32.42554688 6.15132813 -32.4375 7 C-32.44652344 7.82628906 -32.45554687 8.65257812 -32.46484375 9.50390625 C-32.47644531 10.14199219 -32.48804688 10.78007812 -32.5 11.4375 C-31.14068359 10.62345703 -31.14068359 10.62345703 -29.75390625 9.79296875 C-28.52369795 9.06986921 -27.29321416 8.34723822 -26.0625 7.625 C-25.47017578 7.26857422 -24.87785156 6.91214844 -24.26757812 6.54492188 C-16.41868948 1.96990122 -9.09132631 -0.11610654 0 0 Z " fill="#474747" transform="translate(453.5,396.5625)"/>
<path d="M0 0 C0.7329126 -0.01466309 1.4658252 -0.02932617 2.22094727 -0.04443359 C8.86460107 0.08079027 14.1735658 2.29607524 19 6.875 C20.88633385 10.11949422 21.27112852 12.84751365 21.5625 16.5625 C20.43714844 16.72685547 20.43714844 16.72685547 19.2890625 16.89453125 C13.21773933 17.83505109 7.51913076 19.03441818 1.71875 21.07421875 C-0.73960925 21.63091242 -2.10324403 21.4819006 -4.4375 20.5625 C-5.5 18.625 -5.5 18.625 -6.4375 16.5625 C-10.73526563 13.69732291 -14.3903805 13.96368921 -19.4375 14.5625 C-22.91044229 15.62646498 -26.14266991 17.0452169 -29.4375 18.5625 C-31.0875 19.2225 -32.7375 19.8825 -34.4375 20.5625 C-34.4375 39.7025 -34.4375 58.8425 -34.4375 78.5625 C-44.3375 78.5625 -54.2375 78.5625 -64.4375 78.5625 C-64.4375 53.4825 -64.4375 28.4025 -64.4375 2.5625 C-54.8675 2.5625 -45.2975 2.5625 -35.4375 2.5625 C-35.4375 5.5325 -35.4375 8.5025 -35.4375 11.5625 C-34.81746094 11.18738281 -34.19742187 10.81226563 -33.55859375 10.42578125 C-22.77831319 4.19612858 -12.4684377 0.15222718 0 0 Z " fill="#444444" transform="translate(445.4375,548.4375)"/>
<path d="M0 0 C9.9 0 19.8 0 30 0 C30 25.08 30 50.16 30 76 C20.1 76 10.2 76 0 76 C0 50.92 0 25.84 0 0 Z " fill="#444545" transform="translate(480,551)"/>
<path d="M0 0 C9.9 0 19.8 0 30 0 C30 25.08 30 50.16 30 76 C20.1 76 10.2 76 0 76 C0 50.92 0 25.84 0 0 Z " fill="#434342" transform="translate(610,398)"/>
<path d="M0 0 C4.2100723 5.05053752 4.59297256 8.83482672 4.53125 15.125 C4.5350769 15.99012207 4.53890381 16.85524414 4.54284668 17.74658203 C4.54555865 19.56869679 4.53824766 21.39085096 4.52148438 23.21289062 C4.50006341 25.99177369 4.52130922 28.76807173 4.546875 31.546875 C4.5442316 33.32292234 4.53910635 35.09896807 4.53125 36.875 C4.53934692 37.70016113 4.54744385 38.52532227 4.55578613 39.37548828 C4.46958074 44.71526504 3.52975205 47.76044339 0 52 C-5.52731902 56.56604614 -10.69500563 56.60713132 -17.74609375 56.3828125 C-23.2688371 55.73307799 -25.68054644 53.59996131 -29.11303711 49.43774414 C-31.55274555 44.99298615 -31.59549318 41.60688893 -31.56640625 36.62109375 C-31.57260483 35.73140396 -31.57880341 34.84171417 -31.58518982 33.92506409 C-31.59226812 32.05169769 -31.58914884 30.17826813 -31.57641602 28.30493164 C-31.56252352 25.44234586 -31.5966801 22.58301454 -31.63476562 19.72070312 C-31.63571667 17.89583254 -31.6338588 16.07095787 -31.62890625 14.24609375 C-31.64216446 13.39389755 -31.65542267 12.54170135 -31.66908264 11.66368103 C-31.60044117 7.27617022 -31.45491683 5.55639793 -28.58569336 2.04711914 C-27.73241455 1.37156982 -26.87913574 0.69602051 -26 0 C-25.34 -0.66 -24.68 -1.32 -24 -2 C-16.5698419 -3.95530476 -6.37198744 -4.77899058 0 0 Z " fill="#FBFBFB" transform="translate(832,410)"/>
<path d="M0 0 C0.76578369 0.00088623 1.53156738 0.00177246 2.32055664 0.00268555 C8.11929748 0.12453642 12.00467484 0.94083917 16.8125 4.375 C18.82308236 7.39087355 19.06624912 7.98835702 19.10302734 11.36816406 C19.11578705 12.16619446 19.12854675 12.96422485 19.14169312 13.78643799 C19.14391876 14.6458197 19.14614441 15.50520142 19.1484375 16.390625 C19.1550943 17.27981628 19.1617511 18.16900757 19.16860962 19.08514404 C19.17873669 20.96803723 19.18342662 22.85096632 19.18310547 24.73388672 C19.18746283 27.60054613 19.22373705 30.4656459 19.26171875 33.33203125 C19.26759024 35.16405726 19.27155741 36.99609055 19.2734375 38.828125 C19.28780853 39.67940979 19.30217957 40.53069458 19.31698608 41.40777588 C19.27288515 47.21769554 18.18961434 50.61172218 14.8125 55.375 C10.33979292 58.48175251 6.12606364 58.86743346 0.8125 58.8125 C-0.21617187 58.8424707 -0.21617187 58.8424707 -1.265625 58.87304688 C-6.38987835 58.86815732 -9.34649359 57.73029775 -13.1875 54.375 C-16.41173864 49.30566294 -16.65482993 45.06772326 -16.65625 39.25 C-16.66767029 37.95231689 -16.66767029 37.95231689 -16.67932129 36.62841797 C-16.69008674 34.80634435 -16.6929899 32.98420921 -16.68847656 31.16210938 C-16.68750283 28.38306535 -16.72919153 25.60677197 -16.7734375 22.828125 C-16.77864417 21.05208906 -16.7813327 19.27604357 -16.78125 17.5 C-16.79764526 16.67483887 -16.81404053 15.84967773 -16.83093262 14.99951172 C-16.78177039 10.87329001 -16.4735668 8.20142503 -13.83789062 4.9296875 C-9.26031464 0.5174035 -6.13133431 -0.0124554 0 0 Z " fill="#FBFBFB" transform="translate(192.1875,558.625)"/>
<path d="M0 0 C6.54179038 2.58475913 6.54179038 2.58475913 8.09375 4.13671875 C8.18249135 7.23923076 8.20893455 10.31939995 8.19140625 13.421875 C8.1899913 14.35269394 8.18857635 15.28351288 8.18711853 16.24253845 C8.18150172 19.22813066 8.1689464 22.21364904 8.15625 25.19921875 C8.15123716 27.21809788 8.14667388 29.23697818 8.14257812 31.25585938 C8.13152683 36.21617447 8.11425095 41.17643407 8.09375 46.13671875 C6.6803764 46.96442475 5.26157775 47.78287133 3.84057617 48.59741211 C3.05108078 49.05417831 2.26158539 49.51094452 1.44816589 49.98155212 C-1.94621816 51.64696697 -4.84402185 51.76582834 -8.59375 51.69921875 C-9.83511719 51.70050781 -11.07648438 51.70179688 -12.35546875 51.703125 C-16.51165549 51.04014692 -18.68313725 49.81242143 -21.90625 47.13671875 C-24.41874037 43.50260969 -24.26236271 39.60054805 -24.3125 35.3359375 C-24.32390015 34.58133743 -24.33530029 33.82673737 -24.3470459 33.04927063 C-24.36590187 31.45486012 -24.37899641 29.86037244 -24.38671875 28.26586914 C-24.4061089 25.84185818 -24.46816217 23.4212604 -24.53125 20.99804688 C-24.71012088 8.01461011 -24.71012088 8.01461011 -21.125 3.65625 C-15.11571216 -1.88894475 -7.6372532 -2.26859268 0 0 Z " fill="#FAFAFA" transform="translate(316.90625,562.86328125)"/>
<path d="M0 0 C3.58915567 1.17575789 5.20529189 2.06708179 7.6171875 4.8984375 C9.74254572 9.66548389 9.51294205 14.27685881 9.5 19.4375 C9.52835938 20.46166016 9.55671875 21.48582031 9.5859375 22.54101562 C9.60770206 30.94757523 9.60770206 30.94757523 6.65625 34.66015625 C2.58324127 38.24799777 -0.60202476 38.18311236 -5.875 38.25 C-7.08929687 38.27578125 -8.30359375 38.3015625 -9.5546875 38.328125 C-13.28646181 37.97271792 -15.08510788 37.31937653 -18 35 C-21.07801401 30.12355793 -20.36839797 24.63791065 -20.375 19.0625 C-20.39949219 17.97775391 -20.42398438 16.89300781 -20.44921875 15.77539062 C-20.47857258 7.81560987 -20.47857258 7.81560987 -18.1640625 3.87109375 C-12.43589295 -1.08160158 -7.30329017 -0.57492075 0 0 Z " fill="#FBFBFB" transform="translate(585,559)"/>
<path d="M0 0 C0.76127197 0.00088623 1.52254395 0.00177246 2.30688477 0.00268555 C8.0852295 0.12483749 11.95926059 0.95304328 16.75 4.375 C18.75 7.375 18.75 7.375 18.75 23.375 C6.87 23.375 -5.01 23.375 -17.25 23.375 C-17.25 7.375 -17.25 7.375 -12.25 2.375 C-8.55487746 -0.27584878 -4.38873104 -0.00901567 0 0 Z " fill="#F6F6F6" transform="translate(817.25,558.625)"/>
<path d="M0 0 C0 7.26 0 14.52 0 22 C-8.05125672 26.02562836 -12.34268276 27.18610836 -21 27.25 C-22.04800781 27.2809375 -22.04800781 27.2809375 -23.1171875 27.3125 C-27.59463371 27.34629205 -30.49608132 26.85064571 -34 24 C-35.1875 20.75 -35.1875 20.75 -35 17 C-30.68421764 8.54825954 -21.16831935 5.62365852 -12.73388672 2.87548828 C-3.65844571 0 -3.65844571 0 0 0 Z " fill="#F7F7F7" transform="translate(334,435)"/>
<path d="M0 0 C0.99153076 -0.01466309 1.98306152 -0.02932617 3.00463867 -0.04443359 C8.82588695 0.03775805 12.4428801 0.59036696 17 4.5625 C19.4375 7.5 19.4375 7.5 21 10.5625 C20.59765625 13.25390625 20.59765625 13.25390625 20 15.5625 C16.39963863 16.59709685 12.79421232 17.6127864 9.1875 18.625 C8.16333984 18.91955078 7.13917969 19.21410156 6.08398438 19.51757812 C5.10107422 19.79150391 4.11816406 20.06542969 3.10546875 20.34765625 C2.19949951 20.60426025 1.29353027 20.86086426 0.36010742 21.12524414 C-2 21.5625 -2 21.5625 -5 20.5625 C-5.4640625 19.3559375 -5.4640625 19.3559375 -5.9375 18.125 C-6.74875269 15.50345607 -6.74875269 15.50345607 -8.7109375 14.40625 C-11.51984489 13.37088482 -13.69946147 13.40235168 -16.6875 13.5 C-21.25070695 13.5891469 -25.55433888 13.37518665 -30.0625 12.68359375 C-32.2380481 12.54762199 -33.92303204 12.93662796 -36 13.5625 C-36 12.9025 -36 12.2425 -36 11.5625 C-25.28349526 3.14238913 -13.3127592 0.12354743 0 0 Z " fill="#424242" transform="translate(116,548.4375)"/>
<path d="M0 0 C1.2689209 -0.00064453 2.5378418 -0.00128906 3.84521484 -0.00195312 C5.20411418 0.01462132 6.56300141 0.03221575 7.921875 0.05078125 C9.29247947 0.05940524 10.66308496 0.06786887 12.03369141 0.07617188 C21.03789616 0.16453146 29.82548919 0.62504404 38.671875 2.36328125 C39.166875 4.83828125 39.166875 4.83828125 39.671875 7.36328125 C34.51876683 9.90388342 30.31751843 10.81106513 24.54296875 10.76171875 C23.79024185 10.76458893 23.03751495 10.76745911 22.26197815 10.77041626 C20.68123618 10.77244526 19.10046842 10.76699742 17.51977539 10.75439453 C15.11221845 10.73830026 12.70633411 10.7542933 10.29882812 10.7734375 C8.75520466 10.7714553 7.21158223 10.7676121 5.66796875 10.76171875 C4.95531357 10.76779144 4.24265839 10.77386414 3.50840759 10.78012085 C-1.15234919 10.71508365 -4.37212964 9.82952244 -8.328125 7.36328125 C-9.390625 5.36328125 -9.390625 5.36328125 -9.328125 3.36328125 C-6.8159217 -0.26834656 -4.19661203 -0.01091945 0 0 Z " fill="#F3F3F3" transform="translate(569.328125,630.63671875)"/>
<path d="M0 0 C9.57 0 19.14 0 29 0 C29 19.47 29 38.94 29 59 C28.34 59 27.68 59 27 59 C27 39.86 27 20.72 27 1 C19.41 1 11.82 1 4 1 C4 23.11 4 45.22 4 68 C0.04787244 64.04787244 0.04787244 64.04787244 -0.12025452 60.36776733 C-0.11803391 59.25302032 -0.11581329 58.13827332 -0.11352539 56.98974609 C-0.11344986 55.72858978 -0.11337433 54.46743347 -0.11329651 53.1680603 C-0.10818949 51.78651897 -0.10297349 50.40497804 -0.09765625 49.0234375 C-0.09579144 47.6138209 -0.09436783 46.20420366 -0.09336853 44.79458618 C-0.08954833 41.08246068 -0.07972228 37.37037422 -0.06866455 33.65826416 C-0.05664239 29.20542203 -0.05204582 24.75256685 -0.04621124 20.29971313 C-0.03651027 13.53311492 -0.01735026 6.76660241 0 0 Z " fill="#393939" transform="translate(656,552)"/>
<path d="M0 0 C9.9 0 19.8 0 30 0 C30 3.63 30 7.26 30 11 C20.1 11 10.2 11 0 11 C0 7.37 0 3.74 0 0 Z " fill="#454545" transform="translate(480,523)"/>
<path d="M0 0 C9.9 0 19.8 0 30 0 C30 3.63 30 7.26 30 11 C20.1 11 10.2 11 0 11 C0 7.37 0 3.74 0 0 Z " fill="#414140" transform="translate(610,371)"/>
<path d="M0 0 C8.58 0 17.16 0 26 0 C25.67 0.99 25.34 1.98 25 3 C17.41 3 9.82 3 2 3 C2.01047363 4.98362549 2.02094727 6.96725098 2.03173828 9.01098633 C2.06397293 15.56083057 2.0869625 22.11065606 2.10362434 28.66055775 C2.11406689 32.63223 2.12823463 36.60381654 2.15087891 40.57543945 C2.17259058 44.40742016 2.18456508 48.23931835 2.18975449 52.07135582 C2.19345326 53.53421007 2.20067596 54.99705975 2.21146011 56.45987892 C2.22595298 58.50696236 2.2279789 60.55370369 2.22705078 62.60083008 C2.231492 63.76665115 2.23593323 64.93247223 2.24050903 66.13362122 C2 69 2 69 0 72 C0 48.24 0 24.48 0 0 Z " fill="#3B3B3B" transform="translate(392,399)"/>
<path d="M0 0 C0.33 0 0.66 0 1 0 C1 6.27 1 12.54 1 19 C-8.24 19 -17.48 19 -27 19 C-26.505 17.515 -26.505 17.515 -26 16 C-17.42 16 -8.84 16 0 16 C0 10.72 0 5.44 0 0 Z " fill="#3C3C3C" transform="translate(79,606)"/>
<path d="M0 0 C0.66 0.33 1.32 0.66 2 1 C2 11.23 2 21.46 2 32 C1.34 32 0.68 32 0 32 C-0.33 32.66 -0.66 33.32 -1 34 C-1.02465288 29.31860746 -1.04283739 24.63725241 -1.05493164 19.95581055 C-1.05997157 18.36205386 -1.0668035 16.76830181 -1.07543945 15.17456055 C-1.08751999 12.88849747 -1.09323155 10.60249533 -1.09765625 8.31640625 C-1.10281754 7.59973282 -1.10797882 6.88305939 -1.11329651 6.14466858 C-1.11349263 4.42936328 -1.06192007 2.71418734 -1 1 C-0.67 0.67 -0.34 0.34 0 0 Z " fill="#3B3B3B" transform="translate(418,429)"/>
<path d="M0 0 C0.66 0 1.32 0 2 0 C2 1.32 2 2.64 2 4 C2.66 4 3.32 4 4 4 C3.91944192 8.1258197 3.80657315 12.25012631 3.6875 16.375 C3.66494141 17.550625 3.64238281 18.72625 3.61914062 19.9375 C3.58369141 21.05898438 3.54824219 22.18046875 3.51171875 23.3359375 C3.48553467 24.37282715 3.45935059 25.4097168 3.43237305 26.47802734 C3.21834839 27.72640381 3.21834839 27.72640381 3 29 C2.01 29.66 1.02 30.32 0 31 C0 20.77 0 10.54 0 0 Z " fill="#383838" transform="translate(561,561)"/>
<path d="M0 0 C0.33 0 0.66 0 1 0 C1 1.65 1 3.3 1 5 C-8.57 5 -18.14 5 -28 5 C-27.67 3.68 -27.34 2.36 -27 1 C-27 1.66 -27 2.32 -27 3 C-26.34 2.67 -25.68 2.34 -25 2 C-23.18658158 1.91528636 -21.37005839 1.89278917 -19.5546875 1.90234375 C-18.47832031 1.90556641 -17.40195313 1.90878906 -16.29296875 1.91210938 C-15.16503906 1.92048828 -14.03710938 1.92886719 -12.875 1.9375 C-11.73933594 1.94201172 -10.60367188 1.94652344 -9.43359375 1.95117188 C-6.62234362 1.96298385 -3.8111977 1.97945493 -1 2 C-0.67 1.34 -0.34 0.68 0 0 Z " fill="#393939" transform="translate(248,468)"/>
<path d="M0 0 C0.8146875 -0.00773438 1.629375 -0.01546875 2.46875 -0.0234375 C8.49652201 -0.00347799 8.49652201 -0.00347799 10.75 2.25 C7.78 2.91 4.81 3.57 1.75 4.25 C1.75 4.58 1.75 4.91 1.75 5.25 C-4.36090483 5.34945415 -10.22403427 5.3212828 -16.25 4.25 C-15.25 2.25 -15.25 2.25 -12.765625 1.140625 C-8.42693203 0.04148945 -4.45424398 -0.04310559 0 0 Z " fill="#4A4A4A" transform="translate(445.25,548.75)"/>
<path d="M0 0 C6.6 0 13.2 0 20 0 C20 0.33 20 0.66 20 1 C14.39 1 8.78 1 3 1 C3.33 2.98 3.66 4.96 4 7 C11.59 7.33 19.18 7.66 27 8 C27 5.36 27 2.72 27 0 C27.33 0 27.66 0 28 0 C28 2.97 28 5.94 28 9 C18.76 9 9.52 9 0 9 C0 6.03 0 3.06 0 0 Z " fill="#323231" transform="translate(611,372)"/>
<path d="M0 0 C3.39576062 -0.05830787 6.7913915 -0.09369946 10.1875 -0.125 C11.14720703 -0.14175781 12.10691406 -0.15851562 13.09570312 -0.17578125 C14.02705078 -0.18222656 14.95839844 -0.18867187 15.91796875 -0.1953125 C16.77156982 -0.20578613 17.6251709 -0.21625977 18.50463867 -0.22705078 C21.30726815 0.02795806 23.44729419 0.84458578 26 2 C26 2.33 26 2.66 26 3 C17.42 3 8.84 3 0 3 C0 2.01 0 1.02 0 0 Z " fill="#393939" transform="translate(286,550)"/>
<path d="M0 0 C1.63001953 0.01353516 1.63001953 0.01353516 3.29296875 0.02734375 C4.12441406 0.03894531 4.95585938 0.05054688 5.8125 0.0625 C6.1425 0.7225 6.4725 1.3825 6.8125 2.0625 C9.84184491 2.72022428 9.84184491 2.72022428 12.8125 3.0625 C12.8125 3.3925 12.8125 3.7225 12.8125 4.0625 C4.8925 4.0625 -3.0275 4.0625 -11.1875 4.0625 C-8.11354407 -0.54843389 -5.19401656 -0.05584964 0 0 Z " fill="#414041" transform="translate(114.1875,548.9375)"/>
<path d="M0 0 C0.33 0 0.66 0 1 0 C1 10.23 1 20.46 1 31 C-0.32 30.01 -1.64 29.02 -3 28 C-2.84080078 27.43539062 -2.68160156 26.87078125 -2.51757812 26.2890625 C-1.98582832 23.93732374 -1.81089033 21.78241122 -1.71875 19.375 C-1.68136719 18.50359375 -1.64398438 17.6321875 -1.60546875 16.734375 C-1.57066406 15.83203125 -1.53585937 14.9296875 -1.5 14 C-1.43088704 12.20818258 -1.35810438 10.41650208 -1.28125 8.625 C-1.23581055 7.43777344 -1.23581055 7.43777344 -1.18945312 6.2265625 C-1.00453846 4.0533386 -0.59093635 2.09579047 0 0 Z " fill="#3E3E3E" transform="translate(291,573)"/>
<path d="M0 0 C9.24 0 18.48 0 28 0 C28 0.66 28 1.32 28 2 C27.01 2 26.02 2 25 2 C24.67 2.66 24.34 3.32 24 4 C24 3.34 24 2.68 24 2 C16.41 2.33 8.82 2.66 1 3 C0.67 2.01 0.34 1.02 0 0 Z " fill="#343434" transform="translate(52,551)"/>
<path d="M0 0 C0.66 0.33 1.32 0.66 2 1 C1.0919838 2.13199353 0.17316174 3.25532363 -0.75 4.375 C-1.26046875 5.00148438 -1.7709375 5.62796875 -2.296875 6.2734375 C-4 8 -4 8 -6.03125 9 C-8.38651895 10.19632709 -9.29546852 11.44320278 -10.75 13.625 C-11.39195312 14.57246094 -11.39195312 14.57246094 -12.046875 15.5390625 C-12.36140625 16.02117187 -12.6759375 16.50328125 -13 17 C-13.65234375 15.24609375 -13.65234375 15.24609375 -14 13 C-11.21545006 7.13962921 -5.976435 2.46326037 0 0 Z " fill="#4F4F4F" transform="translate(786,402)"/>
<path d="M0 0 C0.33 3.96 0.66 7.92 1 12 C0.01 12.33 -0.98 12.66 -2 13 C-2 13.66 -2 14.32 -2 15 C-2.66 15 -3.32 15 -4 15 C-4.08078641 12.87561661 -4.13909141 10.7503677 -4.1875 8.625 C-4.22230469 7.44164062 -4.25710938 6.25828125 -4.29296875 5.0390625 C-4.19628906 4.03617188 -4.09960938 3.03328125 -4 2 C-1 0 -1 0 0 0 Z " fill="#3B3A3A" transform="translate(887,611)"/>
<path d="M0 0 C0 4.95 0 9.9 0 15 C-0.99 15 -1.98 15 -3 15 C-4.71683157 11.56633687 -4.39429424 7.76250266 -4 4 C-1.75609756 0 -1.75609756 0 0 0 Z " fill="#3C3C3C" transform="translate(273,451)"/>
<path d="M0 0 C0.33 0 0.66 0 1 0 C1 5.61 1 11.22 1 17 C0.01 17 -0.98 17 -2 17 C-3.4783226 14.04335481 -3.06032783 11.25770263 -3 8 C-2.67 8 -2.34 8 -2 8 C-1.855625 6.865625 -1.71125 5.73125 -1.5625 4.5625 C-1 1 -1 1 0 0 Z " fill="#383838" transform="translate(492,442)"/>
<path d="M0 0 C2.76276177 0.52268466 5.3260876 1.10869587 8 2 C8 2.66 8 3.32 8 4 C9.65 4 11.3 4 13 4 C13 4.66 13 5.32 13 6 C2.44191344 5.22095672 2.44191344 5.22095672 -2 3 C-1.34 2.67 -0.68 2.34 0 2 C0 1.34 0 0.68 0 0 Z " fill="#515252" transform="translate(539,645)"/>
<path d="M0 0 C0.33 0.99 0.66 1.98 1 3 C-0.16015625 2.98259766 -0.16015625 2.98259766 -1.34375 2.96484375 C-7.33936364 2.91290155 -13.07302983 3.08815844 -19 4 C-19 3.01 -19 2.02 -19 1 C-12.62694402 0.25492456 -6.41688675 -0.10349817 0 0 Z " fill="#333332" transform="translate(437,560)"/>
<path d="M0 0 C0 0.99 0 1.98 0 3 C-5.28 3 -10.56 3 -16 3 C-16 2.34 -16 1.68 -16 1 C-10.59255982 0.22750855 -5.46137814 -0.09752461 0 0 Z " fill="#4B4B4B" transform="translate(689,451)"/>
<path d="M0 0 C3.3 0.33 6.6 0.66 10 1 C9.67 2.32 9.34 3.64 9 5 C5.7 5 2.4 5 -1 5 C-0.67 3.35 -0.34 1.7 0 0 Z " fill="#3B3B3B" transform="translate(563,640)"/>
<path d="M0 0 C3.63 0 7.26 0 11 0 C11 0.99 11 1.98 11 3 C3.375 4.25 3.375 4.25 0 2 C0 1.34 0 0.68 0 0 Z " fill="#3A3A3B" transform="translate(697,621)"/>
<path d="M0 0 C0.66 0.33 1.32 0.66 2 1 C1.04956626 2.33897583 0.08940853 3.67105427 -0.875 5 C-1.40867187 5.7425 -1.94234375 6.485 -2.4921875 7.25 C-2.98976563 7.8275 -3.48734375 8.405 -4 9 C-4.66 9 -5.32 9 -6 9 C-6.12375 9.804375 -6.2475 10.60875 -6.375 11.4375 C-6.58125 12.283125 -6.7875 13.12875 -7 14 C-7.99 14.495 -7.99 14.495 -9 15 C-7.30742769 8.31879351 -5.22573114 4.52896699 0 0 Z " fill="#4C4D4C" transform="translate(273,553)"/>
<path d="M0 0 C0.99 0.33 1.98 0.66 3 1 C6.2295853 1.06898981 9.44622012 0.99751507 12.67578125 0.9375 C15.8892678 0.99791808 18.84922346 1.38986476 22 2 C22 2.33 22 2.66 22 3 C14.08 3 6.16 3 -2 3 C-1.34 2.01 -0.68 1.02 0 0 Z " fill="#353535" transform="translate(105,550)"/>
<path d="M0 0 C1.32 0.33 2.64 0.66 4 1 C3.38125 1.7425 2.7625 2.485 2.125 3.25 C0.39562719 5.48801188 -0.86106661 7.43739987 -2 10 C-2.33 10 -2.66 10 -3 10 C-3.36923077 4.58461538 -3.36923077 4.58461538 -1.5 1.625 C-1.005 1.08875 -0.51 0.5525 0 0 Z " fill="#4C4C4B" transform="translate(535,632)"/>
<path d="M0 0 C0 0.99 0 1.98 0 3 C-4.22857143 7 -4.22857143 7 -8 7 C-8.33 5.68 -8.66 4.36 -9 3 C-8.43410156 2.86722656 -7.86820313 2.73445312 -7.28515625 2.59765625 C-6.18494141 2.33275391 -6.18494141 2.33275391 -5.0625 2.0625 C-4.33160156 1.88847656 -3.60070312 1.71445312 -2.84765625 1.53515625 C-1.00030102 1.16112431 -1.00030102 1.16112431 0 0 Z " fill="#3B3B3B" transform="translate(616,597)"/>
<path d="M0 0 C-4.65492322 3.56877447 -9.34849564 3.68175995 -15 4 C-10.64294134 0.52199704 -5.57552484 -2.23020993 0 0 Z " fill="#575857" transform="translate(108,550)"/>
<path d="M0 0 C0.99 0 1.98 0 3 0 C5 3 5 3 5 7 C5.66 7 6.32 7 7 7 C6.67 7.99 6.34 8.98 6 10 C4.99106869 8.90398831 3.99311775 7.79786082 3 6.6875 C2.1646875 5.76517578 2.1646875 5.76517578 1.3125 4.82421875 C0 3 0 3 0 0 Z " fill="#494949" transform="translate(662,454)"/>
<path d="M0 0 C-2.61331914 1.41554787 -5.30718129 2.58131312 -8.0625 3.6875 C-8.73410156 3.95949219 -9.40570313 4.23148437 -10.09765625 4.51171875 C-12 5 -12 5 -15 4 C-9.29096151 0.54452933 -6.62703209 -0.10688761 0 0 Z " fill="#3A3B3B" transform="translate(206,409)"/>
<path d="M0 0 C0.66 0 1.32 0 2 0 C2 1.32 2 2.64 2 4 C2.66 4 3.32 4 4 4 C3.625 6.4375 3.625 6.4375 3 9 C2.01 9.495 2.01 9.495 1 10 C-0.1577506 6.52674819 -0.06866652 3.63932552 0 0 Z " fill="#3B3B3B" transform="translate(796,563)"/>
<path d="M0 0 C5.75 0.75 5.75 0.75 8 3 C4.78548731 4.60725635 1.56387464 4.05748185 -2 4 C-1.34 2.68 -0.68 1.36 0 0 Z " fill="#3B3B3B" transform="translate(707,428)"/>
<path d="M0 0 C2.97 0.495 2.97 0.495 6 1 C6 1.66 6 2.32 6 3 C8.31 3.33 10.62 3.66 13 4 C13 4.66 13 5.32 13 6 C7.55084591 4.89169747 4.15984612 3.89985574 0 0 Z " fill="#525352" transform="translate(156,619)"/>
<path d="M0 0 C0.66 0 1.32 0 2 0 C3.42944945 2.35438733 4.08661261 3.48032433 3.625 6.25 C3.41875 6.8275 3.2125 7.405 3 8 C2.01 7.67 1.02 7.34 0 7 C-1.125 2.25 -1.125 2.25 0 0 Z " fill="#515151" transform="translate(579,412)"/>
<path d="M0 0 C1.08667969 0.01804687 2.17335938 0.03609375 3.29296875 0.0546875 C4.54013672 0.08949219 4.54013672 0.08949219 5.8125 0.125 C5.8125 0.455 5.8125 0.785 5.8125 1.125 C4.25283408 1.49144578 2.68957349 1.84260862 1.125 2.1875 C0.25488281 2.38472656 -0.61523438 2.58195313 -1.51171875 2.78515625 C-4.34751276 3.14532279 -6.43539982 2.83409969 -9.1875 2.125 C-5.66070901 -0.22619399 -4.15870515 -0.08943452 0 0 Z " fill="#333433" transform="translate(808.1875,550.875)"/>
<path d="M0 0 C3.63 0 7.26 0 11 0 C11 0.66 11 1.32 11 2 C5.25 3.125 5.25 3.125 3 2 C2.01 2 1.02 2 0 2 C0 1.34 0 0.68 0 0 Z " fill="#3B3C3C" transform="translate(618,645)"/>
<path d="M0 0 C2.62386487 3.06117568 3 3.73173127 3 8 C1.35 7.67 -0.3 7.34 -2 7 C-1.34 4.69 -0.68 2.38 0 0 Z " fill="#4F4F4F" transform="translate(134,555)"/>
<path d="M0 0 C0.66 0 1.32 0 2 0 C1.38722388 2.96175123 0.74627478 4.38058783 -1 7 C-1.39013716 8.9896995 -1.73202649 10.99019869 -2 13 C-2.33 13 -2.66 13 -3 13 C-3.31563182 7.73946963 -2.66590937 4.55426184 0 0 Z " fill="#6F7070" transform="translate(271,448)"/>
<path d="M0 0 C0 1.32 0 2.64 0 4 C-2.64 4 -5.28 4 -8 4 C-7.34 3.67 -6.68 3.34 -6 3 C-6 2.34 -6 1.68 -6 1 C-3 0 -3 0 0 0 Z " fill="#323233" transform="translate(735,416)"/>
<path d="M0 0 C0 0.66 0 1.32 0 2 C-1.65848177 3.01351664 -3.32665961 4.01120795 -5 5 C-6.36984198 6.29579647 -7.7151049 7.61992749 -9 9 C-9 6 -9 6 -7.5390625 4.39453125 C-6.59160156 3.61142578 -6.59160156 3.61142578 -5.625 2.8125 C-4.68527344 2.01779297 -4.68527344 2.01779297 -3.7265625 1.20703125 C-2 0 -2 0 0 0 Z " fill="#535353" transform="translate(549,555)"/>
<path d="M0 0 C0.66 0.33 1.32 0.66 2 1 C2 2.65 2 4.3 2 6 C1.01 6.33 0.02 6.66 -1 7 C-1.625 4.625 -1.625 4.625 -2 2 C-1.34 1.34 -0.68 0.68 0 0 Z " fill="#3A3A3A" transform="translate(727,456)"/>
<path d="M0 0 C0.66 0.33 1.32 0.66 2 1 C-2.82142857 7.29464286 -2.82142857 7.29464286 -7 8 C-6.02133662 6.85373678 -5.04205413 5.70800212 -4.0625 4.5625 C-3.51722656 3.92441406 -2.97195313 3.28632813 -2.41015625 2.62890625 C-1.63204305 1.73008851 -0.84063472 0.84063472 0 0 Z " fill="#4D4E4D" transform="translate(282,404)"/>
<path d="M0 0 C0.99 0 1.98 0 3 0 C3 3.63 3 7.26 3 11 C0.9683772 6.93675441 0 4.47525541 0 0 Z " fill="#323232" transform="translate(636,550)"/>
<path d="M0 0 C0.66 0.66 1.32 1.32 2 2 C0.35 3.32 -1.3 4.64 -3 6 C-3 5.34 -3 4.68 -3 4 C-4.32 4.33 -5.64 4.66 -7 5 C-5.49336217 1.98672434 -2.96833589 1.38943382 0 0 Z " fill="#575758" transform="translate(549,460)"/>
<path d="M0 0 C0.66 0 1.32 0 2 0 C2 3.3 2 6.6 2 10 C0.35835645 6.7167129 -0.52087355 4.54553576 -1 1 C-0.67 0.67 -0.34 0.34 0 0 Z " fill="#3B3C3B" transform="translate(552,409)"/>
<path d="M0 0 C0 0.66 0 1.32 0 2 C-1.96147874 3.38938077 -3.96166576 4.7260411 -6 6 C-6.66 5.34 -7.32 4.68 -8 4 C-2.25 0 -2.25 0 0 0 Z " fill="#565655" transform="translate(505,401)"/>
<path d="M0 0 C-2.90092502 1.93395001 -3.89674737 2.30131941 -7.1875 2.625 C-8.445625 2.74875 -9.70375 2.8725 -11 3 C-8.89427904 -1.21144191 -4.11694326 -0.07767817 0 0 Z " fill="#393939" transform="translate(303,399)"/>
<path d="M0 0 C1.98 0 3.96 0 6 0 C5.67 1.32 5.34 2.64 5 4 C3.0625 3.6875 3.0625 3.6875 1 3 C0.67 2.01 0.34 1.02 0 0 Z " fill="#3C3C3C" transform="translate(153,615)"/>
<path d="M0 0 C4.75 0.75 4.75 0.75 7 3 C6.01 3.66 5.02 4.32 4 5 C2.64567325 3.68799596 1.31266518 2.35368596 0 1 C0 0.67 0 0.34 0 0 Z " fill="#484948" transform="translate(849,556)"/>
<path d="M0 0 C0.33 1.32 0.66 2.64 1 4 C2.32 3.67 3.64 3.34 5 3 C5.33 3.99 5.66 4.98 6 6 C4.02 6 2.04 6 0 6 C0 4.02 0 2.04 0 0 Z " fill="#323232" transform="translate(336,467)"/>
<path d="M0 0 C0.99 0.33 1.98 0.66 3 1 C3 2.32 3 3.64 3 5 C1.0625 4.6875 1.0625 4.6875 -1 4 C-1.33 3.01 -1.66 2.02 -2 1 C-1.34 0.67 -0.68 0.34 0 0 Z " fill="#3A3A3A" transform="translate(779,614)"/>
<path d="M0 0 C2.64 0 5.28 0 8 0 C8 0.33 8 0.66 8 1 C7.21625 1.0825 6.4325 1.165 5.625 1.25 C2.85250896 1.72806339 2.85250896 1.72806339 1.6875 4.0625 C1.460625 4.701875 1.23375 5.34125 1 6 C0.67 4.02 0.34 2.04 0 0 Z " fill="#DDDDDC" transform="translate(622,565)"/>
<path d="M0 0 C-0.99 0.495 -0.99 0.495 -2 1 C-1.67 1.66 -1.34 2.32 -1 3 C-3.97 2.505 -3.97 2.505 -7 2 C-7 1.34 -7 0.68 -7 0 C-3.86650268 -1.04449911 -3.01031744 -0.93423645 0 0 Z " fill="#4E4E4D" transform="translate(285,471)"/>
<path d="M0 0 C3.625 -0.1875 3.625 -0.1875 7 0 C6.67 0.66 6.34 1.32 6 2 C3.35139573 2.59355614 0.70802678 2.74209269 -2 3 C-1.34 2.01 -0.68 1.02 0 0 Z " fill="#3E3E3E" transform="translate(310,403)"/>
</svg>
