<?xml version="1.0" encoding="UTF-8"?>
<svg version="1.1" xmlns="http://www.w3.org/2000/svg" width="1028" height="1024">
<path d="M0 0 C339.24 0 678.48 0 1028 0 C1028 337.92 1028 675.84 1028 1024 C688.76 1024 349.52 1024 0 1024 C0 686.08 0 348.16 0 0 Z " fill="#FEFEFE" transform="translate(0,0)"/>
<path d="M0 0 C10.5919526 7.00896055 16.9223544 15.70663863 20 28 C20.41277668 31.28420865 20.47788819 34.50515606 20.4375 37.8125 C20.42992676 38.6876123 20.42235352 39.56272461 20.41455078 40.46435547 C20.2353256 47.54047965 19.08679821 53.57560123 16 60 C15.5875 60.87914062 15.175 61.75828125 14.75 62.6640625 C9.95318246 71.68535004 2.09433645 78.29881607 -7.6953125 81.36328125 C-11.91678273 82.17663781 -16.01911711 82.54368815 -20.3125 82.6875 C-21.05814209 82.73132813 -21.80378418 82.77515625 -22.57202148 82.8203125 C-30.65211118 82.83408783 -37.11285469 78.81328801 -44 75 C-43.99214478 76.76428345 -43.99214478 76.76428345 -43.98413086 78.56420898 C-43.96608337 82.91202031 -43.95456892 87.2598283 -43.94506836 91.60766602 C-43.94002756 93.4924373 -43.93319502 95.37720465 -43.92456055 97.26196289 C-43.91248383 99.96501636 -43.90676932 102.66801831 -43.90234375 105.37109375 C-43.89718246 106.21900986 -43.89202118 107.06692596 -43.88670349 107.9405365 C-43.88650805 109.96071068 -43.93793789 111.98077934 -44 114 C-45.68516954 115.68516954 -47.78767788 115.13008019 -50.09375 115.1328125 C-51.12371094 115.13410156 -52.15367187 115.13539063 -53.21484375 115.13671875 C-54.84099609 115.13091797 -54.84099609 115.13091797 -56.5 115.125 C-57.58410156 115.12886719 -58.66820312 115.13273438 -59.78515625 115.13671875 C-60.81511719 115.13542969 -61.84507812 115.13414062 -62.90625 115.1328125 C-63.85822266 115.13168457 -64.81019531 115.13055664 -65.79101562 115.12939453 C-68 115 -68 115 -69 114 C-69.09788264 112.50948732 -69.12631782 111.01435295 -69.12698364 109.52062988 C-69.12980347 108.55307266 -69.13262329 107.58551544 -69.13552856 106.58863831 C-69.13350433 105.5184697 -69.1314801 104.44830109 -69.12939453 103.34570312 C-69.13114685 102.22550278 -69.13289917 101.10530243 -69.13470459 99.95115662 C-69.13912577 96.22783891 -69.13618417 92.50456824 -69.1328125 88.78125 C-69.13348546 86.20674633 -69.13445542 83.63224271 -69.13571167 81.05773926 C-69.137189 75.65388325 -69.13512754 70.2500451 -69.13037109 64.84619141 C-69.1249285 58.59038528 -69.12669117 52.33461174 -69.1321975 46.0788064 C-69.13727434 40.0714895 -69.13674708 34.0641886 -69.13381577 28.05686951 C-69.13314623 25.49547827 -69.13397584 22.9340862 -69.13629532 20.37269592 C-69.13882027 16.79987347 -69.13498346 13.22711457 -69.12939453 9.65429688 C-69.13141876 8.58412827 -69.13344299 7.51395966 -69.13552856 6.41136169 C-69.13270874 5.44380447 -69.12988892 4.47624725 -69.12698364 3.47937012 C-69.12660662 2.63354118 -69.12622959 1.78771225 -69.12584114 0.91625214 C-69 -1 -69 -1 -68 -2 C-66.30441274 -2.09932153 -64.60474253 -2.13080007 -62.90625 -2.1328125 C-61.87628906 -2.13410156 -60.84632813 -2.13539063 -59.78515625 -2.13671875 C-58.15900391 -2.13091797 -58.15900391 -2.13091797 -56.5 -2.125 C-55.41589844 -2.12886719 -54.33179688 -2.13273437 -53.21484375 -2.13671875 C-52.18488281 -2.13542969 -51.15492188 -2.13414062 -50.09375 -2.1328125 C-48.66579102 -2.13112061 -48.66579102 -2.13112061 -47.20898438 -2.12939453 C-45 -2 -45 -2 -44 -1 C-43.95936168 0.66617115 -43.957279 2.33388095 -44 4 C-43.41992188 3.59007812 -42.83984375 3.18015625 -42.2421875 2.7578125 C-41.46101563 2.21898437 -40.67984375 1.68015625 -39.875 1.125 C-39.10929687 0.59132813 -38.34359375 0.05765625 -37.5546875 -0.4921875 C-27.04096457 -6.69753467 -10.45711756 -6.00555823 0 0 Z " fill="#3D3E40" transform="translate(335,472)"/>
<path d="M0 0 C0.792854 0.00016113 1.58570801 0.00032227 2.40258789 0.00048828 C9.93928244 0.14770448 14.91931687 2.23787791 21.125 6.375 C21.51163818 5.72450684 21.89827637 5.07401367 22.29663086 4.40380859 C24.125 2.375 24.125 2.375 26.54516602 1.88916016 C27.48030029 1.89737793 28.41543457 1.9055957 29.37890625 1.9140625 C30.39791016 1.91792969 31.41691406 1.92179687 32.46679688 1.92578125 C33.52962891 1.95027344 34.59246094 1.97476562 35.6875 2 C36.75419922 2.00128906 37.82089844 2.00257813 38.91992188 2.00390625 C46.84424047 2.09424047 46.84424047 2.09424047 49.125 4.375 C49.32319282 6.83342922 49.39781958 9.17919599 49.38378906 11.63867188 C49.3872937 12.38677628 49.39079834 13.13488068 49.39440918 13.90565491 C49.4032309 16.38511359 49.39737589 18.86428828 49.390625 21.34375 C49.39197153 23.06245987 49.39391195 24.78116937 49.39642334 26.49987793 C49.3993752 30.1046104 49.39507501 33.70924386 49.38574219 37.31396484 C49.37434759 41.9412906 49.38090674 46.56838436 49.39288712 51.1957016 C49.40010407 54.74552162 49.39781855 58.29528637 49.39263153 61.84510803 C49.39129458 63.55160042 49.39294435 65.25809777 49.39759064 66.96458435 C49.40265322 69.34696805 49.39494966 71.72897275 49.38378906 74.11132812 C49.38783752 74.82100235 49.39188599 75.53067657 49.39605713 76.26185608 C49.35352906 81.14647094 49.35352906 81.14647094 47.125 83.375 C43.49961122 83.85398442 39.8409522 83.7453783 36.1875 83.75 C35.17236328 83.77449219 34.15722656 83.79898438 33.11132812 83.82421875 C32.13744141 83.82808594 31.16355469 83.83195313 30.16015625 83.8359375 C28.82029663 83.84826416 28.82029663 83.84826416 27.45336914 83.86083984 C25.125 83.375 25.125 83.375 23.31030273 81.34619141 C22.91915283 80.69569824 22.52800293 80.04520508 22.125 79.375 C21.43792969 79.79652344 20.75085938 80.21804688 20.04296875 80.65234375 C19.14191406 81.20019531 18.24085938 81.74804688 17.3125 82.3125 C16.41917969 82.85777344 15.52585937 83.40304687 14.60546875 83.96484375 C7.08095162 88.24256136 -4.83929912 87.96581529 -13.0703125 85.79638672 C-17.3630643 84.20659555 -21.10194698 81.97317917 -24.875 79.375 C-25.57753906 78.89289063 -26.28007813 78.41078125 -27.00390625 77.9140625 C-33.69908117 72.25237096 -39.1344754 60.84507499 -40.875 52.375 C-41.73225213 38.19520651 -40.32078111 27.19386397 -31.875 15.375 C-31.17375 14.364375 -30.4725 13.35375 -29.75 12.3125 C-22.06155902 3.43186405 -11.36873102 -0.02158392 0 0 Z " fill="#3E3F41" transform="translate(734.875,467.625)"/>
<path d="M0 0 C0.495 0.495 0.495 0.495 1 1 C1.39566162 0.34950684 1.79132324 -0.30098633 2.19897461 -0.97119141 C4 -3 4 -3 6.23657227 -3.48583984 C7.08791748 -3.47762207 7.9392627 -3.4694043 8.81640625 -3.4609375 C9.74517578 -3.45707031 10.67394531 -3.45320313 11.63085938 -3.44921875 C12.59830078 -3.42472656 13.56574219 -3.40023438 14.5625 -3.375 C15.53380859 -3.37371094 16.50511719 -3.37242187 17.50585938 -3.37109375 C24.71913485 -3.28086515 24.71913485 -3.28086515 27 -1 C27.19296679 1.4587515 27.26239399 3.8043383 27.24291992 6.26367188 C27.24481827 7.01177628 27.24671661 7.75988068 27.24867249 8.53065491 C27.25238524 11.01012564 27.24166901 13.48930518 27.23046875 15.96875 C27.2292771 17.68745896 27.22882376 19.40616858 27.2290802 21.12487793 C27.22751446 24.72961495 27.21921803 28.33425278 27.20581055 31.93896484 C27.18882058 36.56623762 27.18499616 41.19340129 27.18575573 45.8207016 C27.18548416 49.37051439 27.18000512 52.9203032 27.17275429 56.47010803 C27.16956568 58.17659829 27.16759977 59.88309127 27.16686058 61.58958435 C27.16469905 63.97187964 27.15595887 66.35405787 27.14526367 68.73632812 C27.14571686 69.44600235 27.14617004 70.15567657 27.14663696 70.88685608 C27.11447792 75.77104416 27.11447792 75.77104416 26 78 C22.37515001 78.08681476 18.75056557 78.14032721 15.125 78.1875 C14.09246094 78.21263672 13.05992187 78.23777344 11.99609375 78.26367188 C10.51689453 78.27817383 10.51689453 78.27817383 9.0078125 78.29296875 C8.09660645 78.3086792 7.18540039 78.32438965 6.24658203 78.34057617 C5.50520996 78.22818604 4.76383789 78.1157959 4 78 C3.34 77.01 2.68 76.02 2 75 C1.44441406 75.28746094 0.88882813 75.57492187 0.31640625 75.87109375 C-2.10729401 77.05229 -4.55651937 78.06842322 -7.0625 79.0625 C-8.34833984 79.57490234 -8.34833984 79.57490234 -9.66015625 80.09765625 C-19.64400497 83.94785501 -29.31807688 82.07217362 -39 78 C-50.51205259 71.73655541 -55.66656548 63.08527556 -60 51 C-63.35748524 39.16799025 -62.34608684 25.92079923 -56.40185547 15.20849609 C-50.69378718 5.74920052 -42.60332951 -1.57380154 -31.7421875 -4.63671875 C-20.82143327 -6.08348534 -9.24188347 -6.80863396 0 0 Z " fill="#3E3F41" transform="translate(423,473)"/>
<path d="M0 0 C1.11503906 -0.020625 2.23007812 -0.04125 3.37890625 -0.0625 C4.44753906 -0.06765625 5.51617187 -0.0728125 6.6171875 -0.078125 C8.09227783 -0.09214355 8.09227783 -0.09214355 9.59716797 -0.10644531 C12.125 0.25 12.125 0.25 13.84326172 1.40844727 C15.54154609 3.84847755 16.27884194 6.19614774 17.140625 9.04296875 C17.50164307 10.22028564 17.86266113 11.39760254 18.23461914 12.6105957 C18.61094482 13.87347412 18.98727051 15.13635254 19.375 16.4375 C19.76940577 17.73743442 20.16451327 19.03715613 20.56030273 20.33666992 C24.18400803 32.27717562 27.68567725 44.2552149 31.125 56.25 C33.76323811 53.61176189 34.09545902 51.35722443 35.078125 47.7578125 C35.25897141 47.10369385 35.43981781 46.4495752 35.62614441 45.77563477 C36.01367467 44.37172966 36.39827596 42.96701341 36.78024292 41.56158447 C37.57457847 38.64126317 38.38463286 35.72539076 39.19432068 32.80929565 C39.59859924 31.35320116 40.00221473 29.8969224 40.40516663 28.44046021 C42.07603609 22.40432773 43.78714998 16.381335 45.5625 10.375 C45.79678711 9.56305176 46.03107422 8.75110352 46.27246094 7.91455078 C47.88996763 2.48503237 47.88996763 2.48503237 50.125 0.25 C52.44750977 0.00708008 52.44750977 0.00708008 55.31640625 0.01953125 C56.34314453 0.02146484 57.36988281 0.02339844 58.42773438 0.02539062 C59.50345703 0.03763672 60.57917969 0.04988281 61.6875 0.0625 C62.76708984 0.06314453 63.84667969 0.06378906 64.95898438 0.06445312 C72.98485402 0.10985402 72.98485402 0.10985402 74.125 1.25 C74.93652166 8.82420213 72.83235662 15.28095693 70.60546875 22.41796875 C69.02440763 27.49049643 67.67163197 32.61447867 66.3125 37.75 C63.82968236 47.0166821 60.99285792 56.14366867 58.01855469 65.26342773 C56.29265437 70.56233885 54.63625531 75.8612716 53.14257812 81.23022461 C51.34609478 87.67896471 49.21786692 93.85017303 46.5625 100 C46.28140381 100.65621338 46.00030762 101.31242676 45.71069336 101.98852539 C43.09344782 107.82043949 40.06398912 111.96188399 34.6875 115.4375 C33.57568359 116.17033203 33.57568359 116.17033203 32.44140625 116.91796875 C26.64242813 120.25262564 21.95807836 120.5868457 15.375 120.5625 C14.5190625 120.57861328 13.663125 120.59472656 12.78125 120.61132812 C4.11504834 120.61789343 -2.95759774 118.48023098 -9.875 113.25 C-10.535 112.59 -11.195 111.93 -11.875 111.25 C-11.61098242 106.53068572 -10.15560008 103.6924497 -7.375 99.9375 C-6.7459375 99.07511719 -6.116875 98.21273437 -5.46875 97.32421875 C-3.875 95.25 -3.875 95.25 -2.875 94.25 C3.37701072 94.83981233 3.37701072 94.83981233 6.0625 96.3125 C9.2899251 97.77951141 12.67733263 97.84708206 16.125 97.25 C19.44761425 95.76775592 20.83301658 94.82811043 22.48828125 91.55078125 C22.80152344 90.56464844 23.11476563 89.57851563 23.4375 88.5625 C23.76363281 87.56863281 24.08976562 86.57476563 24.42578125 85.55078125 C24.77189453 84.41189453 24.77189453 84.41189453 25.125 83.25 C24.22136719 83.23582031 23.31773437 83.22164062 22.38671875 83.20703125 C20.61748047 83.13548828 20.61748047 83.13548828 18.8125 83.0625 C17.64074219 83.02769531 16.46898437 82.99289062 15.26171875 82.95703125 C12.125 82.25 12.125 82.25 10.56152344 80.07470703 C9.10024553 77.20132407 8.01558117 74.40743295 7.00390625 71.34765625 C6.62556641 70.20876953 6.24722656 69.06988281 5.85742188 67.89648438 C5.47134766 66.71376953 5.08527344 65.53105469 4.6875 64.3125 C4.30529297 63.16458984 3.92308594 62.01667969 3.52929688 60.83398438 C1.23162929 53.87076427 -0.86112348 46.87229169 -2.84594727 39.81420898 C-3.91670888 36.10553786 -5.06273319 32.4279902 -6.234375 28.75 C-6.62753906 27.51378906 -7.02070313 26.27757812 -7.42578125 25.00390625 C-8.03092516 23.1096284 -8.6362219 21.21538671 -9.24951172 19.32373047 C-9.85648269 17.44750835 -10.45182638 15.56753732 -11.046875 13.6875 C-11.3984668 12.59308594 -11.75005859 11.49867188 -12.11230469 10.37109375 C-12.88958997 7.19029506 -13.09166391 4.51073204 -12.875 1.25 C-10.33772367 -1.28727633 -3.41013244 0.01566077 0 0 Z " fill="#3E3F40" transform="translate(469.875,469.75)"/>
<path d="M0 0 C1.46566406 -0.00386719 1.46566406 -0.00386719 2.9609375 -0.0078125 C3.98445312 -0.00007813 5.00796875 0.00765625 6.0625 0.015625 C7.08601562 0.00789063 8.10953125 0.00015625 9.1640625 -0.0078125 C10.14117188 -0.00523437 11.11828125 -0.00265625 12.125 0 C13.02347656 0.00225586 13.92195312 0.00451172 14.84765625 0.00683594 C17.0625 0.265625 17.0625 0.265625 19.0625 2.265625 C19.30300903 4.8598938 19.30300903 4.8598938 19.28955078 8.18408203 C19.28939972 9.42521759 19.28924866 10.66635315 19.28909302 11.94509888 C19.278879 13.3045467 19.268447 14.6639929 19.2578125 16.0234375 C19.25408284 17.41063229 19.25123565 18.79782971 19.24923706 20.18502808 C19.24159684 23.83802551 19.22194516 27.49086417 19.1998291 31.14379883 C19.17937896 34.87058362 19.17023713 38.59739404 19.16015625 42.32421875 C19.13869951 49.63809325 19.10455903 56.95183689 19.0625 64.265625 C22.46539835 63.66353593 22.97275467 63.3742804 25.32421875 60.52734375 C26.14332688 59.34314166 26.95133116 58.15120713 27.75 56.953125 C28.62628651 55.68138274 29.50391916 54.4105671 30.3828125 53.140625 C30.8252832 52.49609375 31.26775391 51.8515625 31.72363281 51.1875 C33.7883091 48.22376335 35.94916306 45.3357653 38.125 42.453125 C38.85847656 41.47730469 39.59195313 40.50148438 40.34765625 39.49609375 C42.0625 37.265625 42.0625 37.265625 43.0625 36.265625 C44.89235622 36.16600263 46.72602878 36.13482048 48.55859375 36.1328125 C49.67427734 36.13152344 50.78996094 36.13023437 51.93945312 36.12890625 C53.70192383 36.13470703 53.70192383 36.13470703 55.5 36.140625 C56.67111328 36.13675781 57.84222656 36.13289063 59.04882812 36.12890625 C60.72428711 36.13083984 60.72428711 36.13083984 62.43359375 36.1328125 C63.46411865 36.13394043 64.49464355 36.13506836 65.55639648 36.13623047 C68.0625 36.265625 68.0625 36.265625 70.0625 37.265625 C69.76232463 43.43374463 66.72376187 46.84630256 63 51.453125 C61.81849254 52.96183417 60.63750299 54.47094906 59.45703125 55.98046875 C57.85701387 58.00335105 56.25439061 60.02412009 54.64990234 62.04345703 C53.48216793 63.52355025 52.33392231 65.01896355 51.1875 66.515625 C50.55070313 67.32515625 49.91390625 68.1346875 49.2578125 68.96875 C47.66757947 72.02449189 48.03915236 72.98079841 49.0625 76.265625 C50.52705456 78.86564741 52.2246264 81.28517049 53.9375 83.7265625 C54.9325203 85.1821354 55.92730467 86.6378696 56.921875 88.09375 C58.49105728 90.36994807 60.06428647 92.6431943 61.64257812 94.91308594 C63.16865368 97.1143401 64.67870041 99.32594528 66.1875 101.5390625 C66.6604248 102.20908295 67.13334961 102.87910339 67.62060547 103.56942749 C70.53968235 107.86983403 71.72572559 111.06330238 72.0625 116.265625 C67.54115176 119.27985716 63.13770968 118.79164341 57.8125 118.890625 C56.78769531 118.94863281 55.76289062 119.00664063 54.70703125 119.06640625 C47.33406017 119.18976355 47.33406017 119.18976355 43.96533203 116.74145508 C42.10759972 114.68179534 40.57813579 112.58749208 39.0625 110.265625 C38.57330078 109.55986328 38.08410156 108.85410156 37.58007812 108.12695312 C36.14962021 106.01346619 34.78632296 103.86947582 33.4375 101.703125 C31.65970537 98.88151095 29.87069735 96.06786106 28.0625 93.265625 C27.63098633 92.58902832 27.19947266 91.91243164 26.75488281 91.21533203 C24.49481739 87.59607866 24.49481739 87.59607866 20.91162109 85.57592773 C20.30141113 85.47352783 19.69120117 85.37112793 19.0625 85.265625 C19.07821045 86.12317383 19.0939209 86.98072266 19.11010742 87.86425781 C19.16132423 91.05482747 19.19889312 94.24518715 19.22729492 97.43603516 C19.24235422 98.81533718 19.26280613 100.19459153 19.28881836 101.57373047 C19.32532415 103.55935903 19.34064853 105.54534118 19.35546875 107.53125 C19.3711792 108.72524414 19.38688965 109.91923828 19.40307617 111.14941406 C19.02956732 114.56695311 18.60792599 115.96979159 16.0625 118.265625 C13.82592773 118.75146484 13.82592773 118.75146484 11.24609375 118.7265625 C10.31732422 118.72269531 9.38855469 118.71882812 8.43164062 118.71484375 C7.46419922 118.69035156 6.49675781 118.66585937 5.5 118.640625 C4.52869141 118.63933594 3.55738281 118.63804687 2.55664062 118.63671875 C-4.65663485 118.54649015 -4.65663485 118.54649015 -6.9375 116.265625 C-7.18918228 114.24473572 -7.18918228 114.24473572 -7.19146729 111.71069336 C-7.19710693 110.75162079 -7.20274658 109.79254822 -7.20855713 108.80441284 C-7.20450867 107.74876129 -7.20046021 106.69310974 -7.19628906 105.60546875 C-7.20154602 103.94198898 -7.20154602 103.94198898 -7.20690918 102.24490356 C-7.21574095 98.56424779 -7.20987217 94.88378287 -7.203125 91.203125 C-7.20447123 88.65486616 -7.20641141 86.10660757 -7.20892334 83.55834961 C-7.21187657 78.21172407 -7.20776017 72.8651675 -7.19824219 67.51855469 C-7.18735732 61.33258229 -7.1908828 55.14674172 -7.201895 48.96077251 C-7.21205536 43.01592088 -7.21099164 37.0711103 -7.20513153 31.12625122 C-7.20379354 28.59359723 -7.20544793 26.06093989 -7.21009064 23.52828979 C-7.21514698 19.99402848 -7.20745804 16.46002339 -7.19628906 12.92578125 C-7.20033752 11.8701297 -7.20438599 10.81447815 -7.20855713 9.72683716 C-7.20291748 8.76776459 -7.19727783 7.80869202 -7.19146729 6.82055664 C-7.19071323 5.98432266 -7.18995918 5.14808868 -7.18918228 4.28651428 C-6.63488541 -0.16422656 -3.7726984 0.00947234 0 0 Z " fill="#3F4042" transform="translate(887.9375,433.734375)"/>
<path d="M0 0 C1.43956055 -0.01836914 1.43956055 -0.01836914 2.90820312 -0.03710938 C13.5820649 -0.05896711 24.13313776 2.34229368 32.3125 9.6875 C34.53351275 12.64885034 34.69975071 13.57534038 34.1875 17.1875 C32.39453125 19.828125 32.39453125 19.828125 30 22.4375 C29.22269531 23.30890625 28.44539062 24.1803125 27.64453125 25.078125 C24.95869467 27.38393065 23.71170184 28.16026506 20.1875 28.1875 C17.671875 26.97265625 17.671875 26.97265625 14.9375 25.25 C7.15799766 21.03934436 -0.23742113 21.63885751 -8.8125 22.1875 C-9.23030879 24.56055578 -9.23030879 24.56055578 -8.8125 27.1875 C-4.97536846 30.51099976 -0.4301175 30.98059125 4.4375 31.6875 C15.02424944 33.40791706 24.9833281 35.57247242 32.5625 43.75 C37.30229547 50.8596932 36.83057743 57.90169462 36.1875 66.1875 C34.59736023 72.83992019 29.79975469 77.52652591 24.1875 81.1875 C20.59432574 82.80737364 16.95903179 84.05421258 13.1875 85.1875 C12.1975 85.5175 11.2075 85.8475 10.1875 86.1875 C-7.29827679 87.62449707 -21.41899923 85.83187397 -35.8125 75.1875 C-37.8125 73.1875 -37.8125 73.1875 -38.375 70.5625 C-37.53448651 65.51941909 -34.44517144 62.64126042 -30.8125 59.1875 C-27.16107269 56.75321513 -26.13538211 56.55871715 -21.8125 57.1875 C-19.18506528 58.58025401 -16.69927062 60.13383619 -14.18359375 61.71875 C-8.08033421 65.49935229 -1.8546119 65.91085893 5.1875 65.1875 C7.45356465 64.25953483 7.45356465 64.25953483 9.1875 63.1875 C9.1875 61.5375 9.1875 59.8875 9.1875 58.1875 C4.05888347 56.2880124 -0.97494618 54.91771042 -6.328125 53.85083008 C-15.75105683 51.95044782 -24.2258786 49.65945587 -31.3125 42.75 C-35.87423518 34.95703574 -37.21307919 28.51811794 -35.2265625 19.5390625 C-32.70120344 12.0093222 -27.69313989 6.98198169 -20.84765625 3.0625 C-14.05157561 -0.03068331 -7.3094704 0.00485035 0 0 Z " fill="#3E3F41" transform="translate(583.8125,467.8125)"/>
<path d="M0 0 C4.1294116 3.40742492 8.16947583 7.46380882 10.625 12.25 C10.38034245 15.57734263 10.0658079 16.8091921 7.6875 19.1875 C6.676875 19.868125 5.66625 20.54875 4.625 21.25 C3.83996094 21.78367187 3.05492187 22.31734375 2.24609375 22.8671875 C-4.61166874 27.30275966 -4.61166874 27.30275966 -8.03125 27.06640625 C-11.32458066 25.9192294 -12.99063662 23.75358155 -15.375 21.25 C-21.24526737 17.33648842 -26.41310652 16.3630032 -33.375 17.25 C-38.08316442 18.96643473 -41.35782367 21.59845129 -43.875 25.9375 C-46.16029851 31.35488174 -46.42530418 36.86896464 -44.6796875 42.48828125 C-42.50420646 47.34198054 -39.70302802 50.21117181 -35.375 53.25 C-29.19996145 55.30834618 -24.00161438 54.86465245 -18.125 52.0625 C-14.97336778 50.36509314 -13.14168866 49.0060836 -10.625 46.375 C-9.8825 45.67375 -9.14 44.9725 -8.375 44.25 C-3.36280129 44.46148518 -0.48415709 46.24572097 3.4375 49.25 C4.39269531 49.971875 5.34789062 50.69375 6.33203125 51.4375 C8.625 53.25 8.625 53.25 9.625 54.25 C10.03390689 57.88875369 9.96058405 59.72242696 7.97265625 62.84765625 C2.99888364 68.21252893 -1.60933658 72.37214959 -8.375 75.25 C-9.55449219 75.77722656 -10.73398437 76.30445313 -11.94921875 76.84765625 C-17.11433217 78.74635651 -22.17058177 78.78489253 -27.625 78.75 C-29.15362671 78.74250732 -29.15362671 78.74250732 -30.71313477 78.73486328 C-38.46141495 78.555376 -44.71131683 77.41755103 -51.375 73.25 C-52.11492188 72.79238281 -52.85484375 72.33476563 -53.6171875 71.86328125 C-63.59881371 64.98914245 -69.7578083 55.63874634 -72.05859375 43.76171875 C-73.80304407 29.91379831 -71.04771483 19.72821682 -63.375 8.25 C-62.7975 7.363125 -62.22 6.47625 -61.625 5.5625 C-45.44015631 -11.07192268 -18.98982466 -12.92463352 0 0 Z " fill="#3D3E40" transform="translate(863.375,475.75)"/>
<path d="M0 0 C0.88365234 0.00064453 1.76730469 0.00128906 2.67773438 0.00195312 C3.59748047 0.01806641 4.51722656 0.03417969 5.46484375 0.05078125 C6.38845703 0.04755859 7.31207031 0.04433594 8.26367188 0.04101562 C15.13529202 0.09622952 15.13529202 0.09622952 17.40234375 2.36328125 C17.62939453 4.79345703 17.62939453 4.79345703 17.59765625 7.80859375 C17.59121094 8.88496094 17.58476563 9.96132813 17.578125 11.0703125 C17.56136719 12.19824219 17.54460938 13.32617188 17.52734375 14.48828125 C17.51832031 15.62394531 17.50929688 16.75960938 17.5 17.9296875 C17.47637473 20.74109424 17.44343388 23.55208423 17.40234375 26.36328125 C18.11890137 26.35280762 18.83545898 26.34233398 19.57373047 26.33154297 C22.8082328 26.29006826 26.04267928 26.26398233 29.27734375 26.23828125 C30.40527344 26.22152344 31.53320312 26.20476562 32.6953125 26.1875 C33.77167969 26.18105469 34.84804688 26.17460937 35.95703125 26.16796875 C36.95202637 26.15749512 37.94702148 26.14702148 38.97216797 26.13623047 C41.40234375 26.36328125 41.40234375 26.36328125 43.40234375 28.36328125 C43.66113281 30.2109375 43.66113281 30.2109375 43.66796875 32.42578125 C43.67183594 33.62074219 43.67183594 33.62074219 43.67578125 34.83984375 C43.66804687 35.67257812 43.6603125 36.5053125 43.65234375 37.36328125 C43.66394531 38.61238281 43.66394531 38.61238281 43.67578125 39.88671875 C43.67320312 40.68335938 43.670625 41.48 43.66796875 42.30078125 C43.66571289 43.03167969 43.66345703 43.76257813 43.66113281 44.515625 C43.40234375 46.36328125 43.40234375 46.36328125 41.40234375 48.36328125 C38.97216797 48.59033203 38.97216797 48.59033203 35.95703125 48.55859375 C34.88066406 48.55214844 33.80429687 48.54570312 32.6953125 48.5390625 C31.00341797 48.51392578 31.00341797 48.51392578 29.27734375 48.48828125 C28.14167969 48.47925781 27.00601563 48.47023438 25.8359375 48.4609375 C23.02453076 48.43731223 20.21354077 48.40437138 17.40234375 48.36328125 C17.42180204 52.82991173 17.47362971 57.29466484 17.55493164 61.76049805 C17.57806826 63.27829293 17.59249723 64.79624738 17.59790039 66.31420898 C17.60722297 68.50214555 17.64827526 70.68758812 17.6953125 72.875 C17.71102295 74.18944092 17.7267334 75.50388184 17.74291992 76.8581543 C18.56053029 81.20411213 19.89780414 82.73273905 23.40234375 85.36328125 C28.47406331 85.28277776 32.64329985 84.14792271 37.40234375 82.36328125 C42.37225744 87.06250248 46.98935224 92.7151896 47.77734375 99.67578125 C45.25545494 104.60492757 40.91691735 106.37484823 35.91796875 108.33984375 C26.06486183 111.45902257 15.10117576 112.16388024 5.5859375 107.6796875 C-0.47597891 104.02518691 -4.27053367 99.36717566 -6.79931641 92.77880859 C-8.66543219 84.79502884 -7.99545746 76.38686855 -7.84765625 68.23828125 C-7.82756228 66.30861227 -7.80931664 64.3789231 -7.79296875 62.44921875 C-7.7491986 57.75340237 -7.68033093 53.05856722 -7.59765625 48.36328125 C-8.86222656 48.39808594 -8.86222656 48.39808594 -10.15234375 48.43359375 C-11.79589844 48.46066406 -11.79589844 48.46066406 -13.47265625 48.48828125 C-14.56320312 48.51148438 -15.65375 48.5346875 -16.77734375 48.55859375 C-19.59765625 48.36328125 -19.59765625 48.36328125 -21.59765625 46.36328125 C-21.85644531 44.515625 -21.85644531 44.515625 -21.86328125 42.30078125 C-21.86585938 41.50414062 -21.8684375 40.7075 -21.87109375 39.88671875 C-21.86335937 39.05398438 -21.855625 38.22125 -21.84765625 37.36328125 C-21.85539063 36.53054688 -21.863125 35.6978125 -21.87109375 34.83984375 C-21.86851562 34.04320312 -21.8659375 33.2465625 -21.86328125 32.42578125 C-21.86102539 31.69488281 -21.85876953 30.96398437 -21.85644531 30.2109375 C-21.59765625 28.36328125 -21.59765625 28.36328125 -19.59765625 26.36328125 C-16.77734375 26.16796875 -16.77734375 26.16796875 -13.47265625 26.23828125 C-12.37695312 26.25632812 -11.28125 26.274375 -10.15234375 26.29296875 C-9.30929687 26.31617188 -8.46625 26.339375 -7.59765625 26.36328125 C-7.6133667 25.68225342 -7.62907715 25.00122559 -7.64526367 24.29956055 C-7.70758847 21.21671844 -7.74663883 18.13400881 -7.78515625 15.05078125 C-7.81029297 13.97892578 -7.83542969 12.90707031 -7.86132812 11.80273438 C-7.87583008 10.26069336 -7.87583008 10.26069336 -7.890625 8.6875 C-7.90633545 7.73963623 -7.9220459 6.79177246 -7.93823242 5.81518555 C-7.59765625 3.36328125 -7.59765625 3.36328125 -6.36669922 1.55322266 C-4.10434545 0.03145723 -2.7151881 -0.0099992 0 0 Z " fill="#3E3F41" transform="translate(646.59765625,443.63671875)"/>
<path d="M0 0 C1.11038635 -0.0112793 2.22077271 -0.02255859 3.36480713 -0.03417969 C5.18525543 -0.0220343 5.18525543 -0.0220343 7.04248047 -0.00964355 C8.96492584 -0.02015747 8.96492584 -0.02015747 10.9262085 -0.03088379 C14.43867886 -0.049114 17.9506791 -0.04205128 21.46315765 -0.02936745 C25.13951379 -0.01923803 28.81582977 -0.02863295 32.4921875 -0.03491211 C38.66592636 -0.04218872 44.8394738 -0.0326006 51.01318359 -0.0135498 C58.1501633 0.00821916 65.28668593 0.00116778 72.42365456 -0.02085543 C78.55202458 -0.03900918 84.68025703 -0.04156794 90.80864525 -0.03110075 C94.46855537 -0.0248656 98.12825067 -0.02403054 101.78814697 -0.0372467 C105.8679917 -0.05095032 109.94704887 -0.03195615 114.02685547 -0.00964355 C115.84730377 -0.02178894 115.84730377 -0.02178894 117.70452881 -0.03417969 C118.81491516 -0.02290039 119.92530151 -0.01162109 121.06933594 0 C122.03386688 0.0015081 122.99839783 0.0030162 123.99215698 0.00457001 C127.27271282 0.65405218 128.46981164 1.93273292 130.53466797 4.50793457 C131.03637695 6.73449707 131.03637695 6.73449707 131.03076172 9.13293457 C131.03140625 10.00434082 131.03205078 10.87574707 131.03271484 11.77355957 C131.01273438 12.67590332 130.99275391 13.57824707 130.97216797 14.50793457 C130.97925781 15.41027832 130.98634766 16.31262207 130.99365234 17.24230957 C130.91933656 24.97115107 130.91933656 24.97115107 127.53466797 28.50793457 C125.09958744 29.01129913 125.09958744 29.01129913 122.15162659 29.01586914 C121.03420074 29.02714844 119.9167749 29.03842773 118.76548767 29.05004883 C117.53890945 29.0419519 116.31233124 29.03385498 115.04858398 29.0255127 C113.75734619 29.03252197 112.4661084 29.03953125 111.13574219 29.04675293 C107.59222351 29.06500686 104.04917006 29.05791016 100.50564313 29.04523659 C96.79858463 29.03511729 93.09156627 29.04449947 89.38450623 29.05078125 C83.15771323 29.05806173 76.93110991 29.04846056 70.7043457 29.02941895 C63.50547209 29.0076588 56.30705175 29.01469341 49.10818917 29.03672457 C42.92888464 29.05487871 36.74971656 29.05743659 30.57039398 29.04696989 C26.87917047 29.04073373 23.18815997 29.03990226 19.49695015 29.05311584 C15.38107611 29.06681986 11.26598273 29.04782457 7.15014648 29.0255127 C5.9255925 29.03360962 4.70103851 29.04170654 3.43937683 29.05004883 C1.75900833 29.03312988 1.75900833 29.03312988 0.04469299 29.01586914 C-0.92851111 29.01436104 -1.90171522 29.01285294 -2.90441036 29.01129913 C-6.19873666 28.36377948 -7.39359936 27.09446963 -9.46533203 24.50793457 C-9.98291016 22.28137207 -9.98291016 22.28137207 -9.99658203 19.88293457 C-10.00173828 19.01152832 -10.00689453 18.14012207 -10.01220703 17.24230957 C-9.99673828 16.33996582 -9.98126953 15.43762207 -9.96533203 14.50793457 C-9.98080078 13.60559082 -9.99626953 12.70324707 -10.01220703 11.77355957 C-10.00447266 10.4664502 -10.00447266 10.4664502 -9.99658203 9.13293457 C-9.99207031 8.3414502 -9.98755859 7.54996582 -9.98291016 6.73449707 C-8.7423889 1.39791505 -5.05403187 0.00790228 0 0 Z " fill="#929292" transform="translate(80.46533203125,485.4920654296875)"/>
<path d="M0 0 C1.05148727 -0.0112793 2.10297455 -0.02255859 3.18632507 -0.03417969 C4.90859062 -0.0220343 4.90859062 -0.0220343 6.66564941 -0.00964355 C7.87900467 -0.01665283 9.09235992 -0.02366211 10.34248352 -0.03088379 C13.66713987 -0.04547281 16.99080052 -0.04205387 20.31540108 -0.02936745 C23.7955674 -0.01923545 27.27569137 -0.02863366 30.75585938 -0.03491211 C36.60005324 -0.04218798 42.44404486 -0.03260258 48.28820801 -0.0135498 C55.04347551 0.00821907 61.79826011 0.00116764 68.55351591 -0.02085543 C74.35492697 -0.03901133 80.15619271 -0.0415669 85.957623 -0.03110075 C89.42191768 -0.02486677 92.88598543 -0.02402728 96.3502655 -0.0372467 C100.21209463 -0.05095396 104.07338349 -0.03195228 107.93518066 -0.00964355 C109.0833577 -0.01774048 110.23153473 -0.0258374 111.414505 -0.03417969 C112.99173592 -0.01726074 112.99173592 -0.01726074 114.60083008 0 C115.51374062 0.0015081 116.42665115 0.0030162 117.36722565 0.00457001 C120.56561552 0.66623495 121.77213308 2.004424 123.80041504 4.50793457 C124.31799316 6.73449707 124.31799316 6.73449707 124.33166504 9.13293457 C124.33939941 10.44004395 124.33939941 10.44004395 124.34729004 11.77355957 C124.33182129 12.67590332 124.31635254 13.57824707 124.30041504 14.50793457 C124.32361816 15.8614502 124.32361816 15.8614502 124.34729004 17.24230957 C124.34213379 18.11371582 124.33697754 18.98512207 124.33166504 19.88293457 C124.32715332 20.67441895 124.3226416 21.46590332 124.31799316 22.28137207 C123.59878702 25.37531547 122.23109075 26.50264655 119.80041504 28.50793457 C117.36443233 29.00571251 117.36443233 29.00571251 114.59410095 29.00241089 C113.54116852 29.01079987 112.48823608 29.01918884 111.40339661 29.02783203 C109.67877449 29.01097351 109.67877449 29.01097351 107.91931152 28.99377441 C106.0968692 28.99946945 106.0968692 28.99946945 104.23760986 29.00527954 C100.90886863 29.01141927 97.58112094 28.99968116 94.25249743 28.97937346 C90.76921378 28.96179561 87.28594653 28.96532765 83.80262756 28.96609497 C77.95422383 28.96422255 72.10602779 28.94686566 66.25769043 28.91955566 C59.49456224 28.88809072 52.73166137 28.87756001 45.96846527 28.87902677 C39.46295925 28.88024714 32.9575273 28.870039 26.45204353 28.85344315 C23.68296798 28.84637946 20.91391864 28.84271694 18.14483452 28.84165573 C14.28051582 28.83927507 10.41638646 28.81985733 6.55212402 28.79846191 C4.82446556 28.79982147 4.82446556 28.79982147 3.06190491 28.8012085 C2.0117923 28.79267853 0.96167969 28.78414856 -0.12025452 28.77536011 C-1.49100301 28.77033257 -1.49100301 28.77033257 -2.8894434 28.76520348 C-5.19958496 28.50793457 -5.19958496 28.50793457 -8.19958496 26.50793457 C-9.58499812 22.3516951 -9.46330779 18.42460998 -9.51208496 14.07043457 C-9.55559082 12.78169434 -9.55559082 12.78169434 -9.59997559 11.46691895 C-9.60835449 10.63611816 -9.6167334 9.80531738 -9.62536621 8.94934082 C-9.63994873 8.19338623 -9.65453125 7.43743164 -9.66955566 6.65856934 C-8.54367788 1.5064356 -4.8627419 0.00803311 0 0 Z " fill="#939393" transform="translate(80.1995849609375,522.4920654296875)"/>
<path d="M0 0 C1.21017288 -0.00058411 2.42034576 -0.00116821 3.66719055 -0.00177002 C6.97709986 0.00053603 10.28600592 0.02056718 13.5957377 0.04852581 C17.05770668 0.07356521 20.51968966 0.07588345 23.98173523 0.08062744 C30.53365112 0.09304984 37.08529939 0.12586121 43.63709754 0.1660254 C51.09773501 0.21076624 58.5583854 0.23273592 66.01912367 0.25280714 C81.36275751 0.29459472 96.70612449 0.36493213 112.04956055 0.45410156 C112.04956055 1.11410156 112.04956055 1.77410156 112.04956055 2.45410156 C113.03956055 2.78410156 114.02956055 3.11410156 115.04956055 3.45410156 C116.73262878 6.82023803 116.3184158 10.56843664 116.36206055 14.26660156 C116.39106445 15.07419922 116.42006836 15.88179688 116.44995117 16.71386719 C116.45833008 17.50083984 116.46670898 18.2878125 116.4753418 19.09863281 C116.49721558 20.17141479 116.49721558 20.17141479 116.51953125 21.26586914 C115.76822104 24.76404755 114.76425908 26.04921225 112.04956055 28.45410156 C108.107775 29.23163444 104.19051491 29.12600119 100.18432617 29.08520508 C98.97097092 29.09236038 97.75761566 29.09951569 96.50749207 29.10688782 C93.18262568 29.12090046 89.85931419 29.11246636 86.53457451 29.09279752 C83.0544123 29.07640808 79.57430077 29.0852243 76.09411621 29.09031677 C70.24986971 29.09483745 64.4059433 29.07896993 58.56176758 29.05102539 C51.80648618 29.01897322 45.05178206 29.01898906 38.29645967 29.03624016 C31.79625496 29.05210786 25.29626175 29.04537025 18.79606628 29.02830315 C16.0305569 29.02143318 13.26521708 29.02246441 10.49971008 29.0298481 C6.63784808 29.03893658 2.77657858 29.01496987 -1.08520508 28.98754883 C-2.80747063 28.99733765 -2.80747063 28.99733765 -4.56452942 29.00732422 C-5.61601669 28.99459976 -6.66750397 28.98187531 -7.75085449 28.96876526 C-8.66376503 28.96595834 -9.57667557 28.96315142 -10.51725006 28.96025944 C-13.71403132 28.29525736 -14.92165194 26.95628286 -16.95043945 24.45410156 C-17.74091415 21.15472893 -17.55402729 17.83780589 -17.51293945 14.45410156 C-17.53678711 13.55175781 -17.56063477 12.64941406 -17.58520508 11.71972656 C-17.58327148 10.84832031 -17.58133789 9.97691406 -17.5793457 9.07910156 C-17.5800708 8.28761719 -17.5807959 7.49613281 -17.58154297 6.68066406 C-15.30813692 -1.34001803 -6.65946309 -0.08389764 0 0 Z " fill="#949494" transform="translate(87.950439453125,448.5458984375)"/>
<path d="M0 0 C0.70456329 -0.00861557 1.40912659 -0.01723114 2.13504028 -0.02610779 C4.45962465 -0.04877494 6.78300406 -0.042028 9.10766602 -0.03295898 C10.72665261 -0.03819462 12.34563614 -0.04447088 13.96461487 -0.05174255 C17.35660156 -0.06214832 20.74816879 -0.05758357 24.14013672 -0.04296875 C28.48278497 -0.02578766 32.82410928 -0.04926547 37.16660976 -0.08445835 C40.50987991 -0.1064417 43.85283378 -0.10498861 47.19615364 -0.09669304 C48.79691074 -0.09587388 50.39769115 -0.10273069 51.99838066 -0.11746407 C54.23932588 -0.13492733 56.47789931 -0.1203571 58.71875 -0.09765625 C60.62925392 -0.09621361 60.62925392 -0.09621361 62.57835388 -0.09474182 C66.79216023 0.69643868 68.27100909 2.24032681 70.92407227 5.53344727 C71.57104492 7.67407227 71.57104492 7.67407227 71.58813477 9.78344727 C71.59458008 10.55688477 71.60102539 11.33032227 71.60766602 12.12719727 C71.57866211 13.31829102 71.57866211 13.31829102 71.54907227 14.53344727 C71.5684082 15.32750977 71.58774414 16.12157227 71.60766602 16.93969727 C71.6012207 17.71313477 71.59477539 18.48657227 71.58813477 19.28344727 C71.58249512 19.97954102 71.57685547 20.67563477 71.57104492 21.39282227 C70.54660504 24.78236525 68.6244248 26.30102576 65.92407227 28.53344727 C62.57835388 29.16163635 62.57835388 29.16163635 58.71875 29.16455078 C57.65927658 29.17528374 57.65927658 29.17528374 56.57839966 29.18623352 C54.25415482 29.20308102 51.93184959 29.18374622 49.60766602 29.16235352 C47.98771505 29.1631825 46.36776418 29.165643 44.74781799 29.16966248 C41.35749914 29.17251761 37.96784199 29.1578463 34.57763672 29.13037109 C30.23391356 29.09626075 25.89137119 29.10231781 21.54759121 29.12103367 C18.20435252 29.13160532 14.86138829 29.12266496 11.51817513 29.10764885 C9.91661456 29.10246957 8.3150253 29.10294578 6.71346855 29.1091938 C4.47501914 29.11464943 2.23825705 29.09426448 0 29.06689453 C-1.90931053 29.05759666 -1.90931053 29.05759666 -3.85719299 29.04811096 C-7.62112343 28.44627251 -8.80730148 27.53785479 -11.07592773 24.53344727 C-11.59350586 22.30688477 -11.59350586 22.30688477 -11.60717773 19.90844727 C-11.61233398 19.03704102 -11.61749023 18.16563477 -11.62280273 17.26782227 C-11.60733398 16.36547852 -11.59186523 15.46313477 -11.57592773 14.53344727 C-11.59139648 13.63110352 -11.60686523 12.72875977 -11.62280273 11.79907227 C-11.61506836 10.49196289 -11.61506836 10.49196289 -11.60717773 9.15844727 C-11.60266602 8.36696289 -11.5981543 7.57547852 -11.59350586 6.76000977 C-10.15274869 0.56203551 -5.63659682 0.02744882 0 0 Z " fill="#959595" transform="translate(82.075927734375,559.466552734375)"/>
<path d="M0 0 C5.71192506 2.64203275 9.26361973 6.45334702 11.7109375 12.27734375 C12.65978189 19.26882876 12.31940713 24.90716857 8.0703125 30.66015625 C4.25110681 35.20369405 1.50563274 37.7181255 -4.515625 38.60546875 C-10.63455067 39.02223768 -14.49776333 37.7487817 -19.37109375 34.03125 C-23.24432394 30.48933482 -24.97150272 27.70082625 -25.66015625 22.4453125 C-25.93178858 15.90144281 -25.26598971 10.605654 -21.2890625 5.27734375 C-15.09070019 -0.61110044 -8.32161801 -2.62713196 0 0 Z " fill="#FBFBFB" transform="translate(413.2890625,492.72265625)"/>
<path d="M0 0 C5.07925838 2.87760266 8.76071425 6.62141612 10.7421875 12.1640625 C11.746508 18.76769197 11.37373815 24.72820893 7.9453125 30.546875 C5.02963432 34.46600087 1.4209158 36.88804569 -3.2578125 38.1640625 C-9.36925832 39.04382917 -13.48227933 38.15598949 -18.53515625 34.58984375 C-23.12900037 30.78768252 -25.78878386 26.46701157 -26.62890625 20.55078125 C-26.79506284 13.7970045 -25.86384627 9.24989145 -21.2578125 4.1640625 C-14.95264219 -0.75397034 -7.75869048 -2.87259475 0 0 Z " fill="#FBFBFB" transform="translate(318.2578125,492.8359375)"/>
<path d="M0 0 C4.36775158 3.14884416 7.96773395 6.77820184 9.6875 11.9375 C10.61379819 19.89043162 9.53883389 26.42872785 4.6875 32.9375 C-0.00456526 36.81846426 -5.22714964 38.26588456 -11.26171875 38.14453125 C-17.11158291 37.55397353 -20.41170046 34.094893 -24.015625 29.8515625 C-27.79004721 24.28087912 -28.32385223 18.47996442 -27.3125 11.9375 C-25.06717812 6.67178072 -21.59816009 2.05755311 -16.3671875 -0.4765625 C-10.878118 -2.0418865 -5.38855972 -1.72840595 0 0 Z " fill="#FBFBFB" transform="translate(747.3125,493.0625)"/>
<path d="M0 0 C-1.39176632 0.96423026 -2.7886223 1.92111602 -4.1875 2.875 C-4.96480469 3.40867187 -5.74210938 3.94234375 -6.54296875 4.4921875 C-8.9676609 5.98015439 -11.3333499 7.02428078 -14 8 C-10.75150679 3.32216978 -6.05825152 -2.01941717 0 0 Z " fill="#494B4B" transform="translate(568,471)"/>
<path d="M0 0 C0.66 0.33 1.32 0.66 2 1 C1.505 1.556875 1.01 2.11375 0.5 2.6875 C-1.24754367 5.38162983 -1.26218749 6.85375007 -1 10 C-1.99 9.34 -2.98 8.68 -4 8 C-4.99 8 -5.98 8 -7 8 C-4.69 5.36 -2.38 2.72 0 0 Z " fill="#4D4E4E" transform="translate(553,527)"/>
<path d="M0 0 C2.96175123 0.61277612 4.38058783 1.25372522 7 3 C2.56923077 5.09230769 2.56923077 5.09230769 -0.3125 4.625 C-0.869375 4.41875 -1.42625 4.2125 -2 4 C-1.34 2.68 -0.68 1.36 0 0 Z " fill="#444546" transform="translate(299,490)"/>
<path d="M0 0 C0.66 0.33 1.32 0.66 2 1 C0.73058503 4.91402949 -0.51167694 6.79072873 -4 9 C-4.66 8.67 -5.32 8.34 -6 8 C-4.02 5.36 -2.04 2.72 0 0 Z " fill="#444546" transform="translate(924,479)"/>
<path d="M0 0 C0.66 1.32 1.32 2.64 2 4 C0.7260411 6.03833424 -0.61061923 8.03852126 -2 10 C-2.66 10 -3.32 10 -4 10 C-2.8905928 6.51329166 -1.73662334 3.22515763 0 0 Z " fill="#48494B" transform="translate(797,488)"/>
<path d="M0 0 C0 0.99 0 1.98 0 3 C-0.66 3 -1.32 3 -2 3 C-2 3.66 -2 4.32 -2 5 C-3.8125 6.6875 -3.8125 6.6875 -6 8 C-6.99 7.67 -7.98 7.34 -9 7 C-6.03 4.69 -3.06 2.38 0 0 Z " fill="#494A4C" transform="translate(714,473)"/>
<path d="M0 0 C1.9375 0.625 1.9375 0.625 4 2 C4.75 5.125 4.75 5.125 5 8 C2.5 6.25 2.5 6.25 0 4 C0 2.68 0 1.36 0 0 Z " fill="#444446" transform="translate(458,577)"/>
<path d="M0 0 C0.66 0.33 1.32 0.66 2 1 C1.3125 2.9375 1.3125 2.9375 0 5 C-2.625 5.75 -2.625 5.75 -5 6 C-5 5.34 -5 4.68 -5 4 C-4.01 4 -3.02 4 -2 4 C-1.34 2.68 -0.68 1.36 0 0 Z " fill="#4A4B4D" transform="translate(609,490)"/>
<path d="M0 0 C2.95409701 1.37154504 5.44008376 2.98863724 8 5 C6.25 5.75 6.25 5.75 4 6 C1.75 4.1875 1.75 4.1875 0 2 C0 1.34 0 0.68 0 0 Z " fill="#4C4D4E" transform="translate(296,525)"/>
</svg>
