<?xml version="1.0" encoding="UTF-8"?>
<svg version="1.1" xmlns="http://www.w3.org/2000/svg" width="1028" height="1024">
<path d="M0 0 C339.24 0 678.48 0 1028 0 C1028 337.92 1028 675.84 1028 1024 C688.76 1024 349.52 1024 0 1024 C0 686.08 0 348.16 0 0 Z " fill="#FEFEFE" transform="translate(0,0)"/>
<path d="M0 0 C0.72053558 -0.0065712 1.44107117 -0.0131424 2.18344116 -0.01991272 C4.5829071 -0.03971539 6.98230981 -0.0513325 9.38183594 -0.0612793 C10.20316765 -0.06535482 11.02449936 -0.06943035 11.87071991 -0.07362938 C16.22989147 -0.09453394 20.58903127 -0.10880849 24.94824219 -0.11816406 C29.42332557 -0.12915168 33.89790105 -0.16344864 38.37280655 -0.20333576 C41.83385037 -0.22968475 45.29477753 -0.23787265 48.75591278 -0.24144554 C50.40310795 -0.24627581 52.05029919 -0.25778637 53.69739532 -0.27648354 C69.33124887 -0.44271358 84.74886869 2.05862561 96.46777344 13.46606445 C106.82320543 25.68314714 109.06130373 38.32165664 108.33837891 53.82104492 C107.37550981 64.03168974 101.45711497 74.62734297 93.69042969 81.2434082 C89.07869294 84.59548999 84.45928326 87.20238827 79.11621094 89.17700195 C81.36987512 93.21728806 84.08844121 96.64252407 87.11621094 100.11450195 C91.5723871 105.29760908 95.85241202 110.58723409 100.03540039 115.99267578 C102.30600295 118.91494578 104.61148405 121.78573089 107.03027344 124.5871582 C107.49618896 125.12912842 107.96210449 125.67109863 108.44213867 126.22949219 C109.72512665 127.71124323 111.0199104 129.18275717 112.31542969 130.65356445 C114.11621094 133.17700195 114.11621094 133.17700195 114.11621094 137.17700195 C109.17280845 137.45129442 104.23392628 137.64954436 99.28466797 137.78125 C97.60614825 137.83619099 95.92814586 137.91098332 94.25146484 138.00683594 C80.41595151 138.77730675 80.41595151 138.77730675 74.94702148 134.97167969 C72.37317515 132.17387309 70.23187015 129.3319094 68.11621094 126.17700195 C66.97978107 124.73697766 65.83610257 123.30261977 64.68261719 121.8762207 C63.6761662 120.54285205 62.674842 119.20559795 61.67871094 117.86450195 C60.58202311 116.40674165 59.48434871 114.94972308 58.38574219 113.4934082 C57.57484131 112.41663818 57.57484131 112.41663818 56.74755859 111.31811523 C53.71896016 107.34313645 50.59501615 103.44155909 47.4543457 99.5546875 C45.48958174 97.08990987 44.12276844 95.19667445 43.11621094 92.17700195 C36.84621094 92.17700195 30.57621094 92.17700195 24.11621094 92.17700195 C24.13941406 95.25786133 24.16261719 98.3387207 24.18652344 101.51293945 C24.20210922 104.48819568 24.21426008 107.4634474 24.22607422 110.4387207 C24.23614806 112.51068143 24.2498076 114.58262788 24.26708984 116.65454102 C24.29127758 119.62820959 24.30268002 122.60169065 24.31152344 125.57543945 C24.32184601 126.50568939 24.33216858 127.43593933 24.34280396 128.39437866 C24.34303055 129.68549057 24.34303055 129.68549057 24.34326172 131.00268555 C24.34770294 131.7621347 24.35214417 132.52158386 24.35671997 133.30404663 C24.11621094 135.17700195 24.11621094 135.17700195 22.11621094 137.17700195 C19.35058594 137.43579102 19.35058594 137.43579102 15.86621094 137.44262695 C13.99449219 137.44649414 13.99449219 137.44649414 12.08496094 137.45043945 C10.77527344 137.44270508 9.46558594 137.4349707 8.11621094 137.42700195 C6.80652344 137.43473633 5.49683594 137.4424707 4.14746094 137.45043945 C2.89964844 137.44786133 1.65183594 137.4452832 0.36621094 137.44262695 C-1.35855469 137.43924316 -1.35855469 137.43924316 -3.11816406 137.43579102 C-5.88378906 137.17700195 -5.88378906 137.17700195 -7.88378906 135.17700195 C-8.13267803 132.84097195 -8.13267803 132.84097195 -8.13102722 129.85606384 C-8.13522171 128.72726303 -8.1394162 127.59846222 -8.14373779 126.43545532 C-8.13811829 125.19121796 -8.13249878 123.94698059 -8.12670898 122.66503906 C-8.12860733 121.35937485 -8.13050568 120.05371063 -8.13246155 118.70848083 C-8.13731754 115.12182331 -8.12964523 111.53528979 -8.1195085 107.94864726 C-8.11074178 104.20148907 -8.11248517 100.45433493 -8.11286926 96.70716858 C-8.11193209 90.41478391 -8.10324043 84.1224474 -8.08959961 77.83007812 C-8.07386671 70.5455345 -8.06860171 63.26104363 -8.06933516 55.97648424 C-8.0699446 48.97977904 -8.06484734 41.98309109 -8.05654335 34.98639107 C-8.05300441 32.00354439 -8.05117923 29.02070382 -8.05064964 26.03785515 C-8.04946258 21.8784013 -8.03976661 17.71901051 -8.02905273 13.55957031 C-8.02950592 12.31330872 -8.02995911 11.06704712 -8.03042603 9.78302002 C-8.02616104 8.65703903 -8.02189606 7.53105804 -8.01750183 6.37095642 C-8.01582599 5.38631377 -8.01415014 4.40167112 -8.01242352 3.38719082 C-7.73668415 -1.35054521 -3.96248876 0.02980633 0 0 Z " fill="#4C4C4C" transform="translate(316.8837890625,451.822998046875)"/>
<path d="M0 0 C4.40672201 0.8813444 5.64768201 1.14152133 8.91796875 3.65234375 C9.61470703 4.18150391 10.31144531 4.71066406 11.02929688 5.25585938 C11.74150391 5.81080078 12.45371094 6.36574219 13.1875 6.9375 C13.91130859 7.48857422 14.63511719 8.03964844 15.38085938 8.60742188 C18.04883459 10.64997406 20.62184808 12.62184808 23 15 C22.6938055 18.58471615 20.96365817 20.44408944 18.5625 23 C16.17699754 25.54984814 14.42142963 27.79999762 13 31 C13.40992188 31.556875 13.81984375 32.11375 14.2421875 32.6875 C14.78101563 33.450625 15.31984375 34.21375 15.875 35 C16.40867187 35.7425 16.94234375 36.485 17.4921875 37.25 C22.74051024 46.82207049 22.25360206 59.83175198 20.41796875 70.328125 C17.94012639 78.24816908 12.39744587 84.80733382 5.71875 89.65625 C4.86796875 90.32140625 4.86796875 90.32140625 4 91 C4 91.66 4 92.32 4 93 C5.59568142 94.11637438 5.59568142 94.11637438 7.625 95.1875 C14.43334851 99.3254362 18.59326942 104.62905273 21.3046875 112.13671875 C23.92452021 122.92513098 22.21031416 134.01916824 16.4921875 143.5 C8.41741995 154.61688927 -2.70210237 160.64196658 -15.953125 163.45703125 C-34.12643001 166.29367974 -53.56557589 164.67010027 -69 154 C-76.45282393 148.20912984 -82.37768799 139.44222045 -84 130 C-84.09199024 127.9599812 -84.13001741 125.91708563 -84.125 123.875 C-84.12886719 122.29332031 -84.12886719 122.29332031 -84.1328125 120.6796875 C-84 118 -84 118 -83 116 C-78.54172074 115.9421696 -74.0835372 115.90646145 -69.625 115.875 C-67.71847656 115.84986328 -67.71847656 115.84986328 -65.7734375 115.82421875 C-64.56171875 115.81777344 -63.35 115.81132813 -62.1015625 115.8046875 C-60.98088379 115.79421387 -59.86020508 115.78374023 -58.70556641 115.77294922 C-56 116 -56 116 -54 118 C-53.51318262 119.5898949 -53.08222495 121.19727582 -52.6875 122.8125 C-51.00790988 128.64067773 -48.53716606 131.50109786 -43.2890625 134.6015625 C-36.79763961 137.36157366 -28.88432462 137.07809826 -22.12890625 135.203125 C-18.47849096 133.64465542 -15.60578132 132.0426329 -13 129 C-11.23441557 123.7032467 -11.25173696 118.88847339 -13.3125 113.6875 C-20.20968612 106.79031388 -29.19592883 106.69595009 -38.4375 106.0625 C-53.5763984 105.00052297 -64.08630511 100.36968902 -74.6875 89.375 C-84.38215864 77.78208652 -86.26152829 63.61328996 -85 49 C-82.63838678 36.09648681 -76.40901097 25.99171038 -66.05078125 18.01171875 C-55.48354874 11.04356927 -46.61048464 8.81991036 -34.25 8.8125 C-33.19039062 8.80025391 -32.13078125 8.78800781 -31.0390625 8.77539062 C-24.96523212 8.76408697 -19.81998253 9.27579813 -14 11 C-12.35 11.33 -10.7 11.66 -9 12 C-6.03 8.04 -3.06 4.08 0 0 Z " fill="#4C4C4C" transform="translate(782,481)"/>
<path d="M0 0 C4.929375 -0.020625 9.85875 -0.04125 14.9375 -0.0625 C16.49460693 -0.071604 18.05171387 -0.08070801 19.65600586 -0.09008789 C21.47950562 -0.09383423 21.47950562 -0.09383423 23.33984375 -0.09765625 C24.59144287 -0.10289307 25.84304199 -0.10812988 27.13256836 -0.11352539 C30 0 30 0 31 1 C31.09847473 2.74395071 31.12632065 4.49191883 31.12698364 6.23864746 C31.13121338 7.94240791 31.13121338 7.94240791 31.13552856 9.68058777 C31.13249222 11.56636284 31.13249222 11.56636284 31.12939453 13.49023438 C31.13202301 15.46314201 31.13202301 15.46314201 31.13470459 17.47590637 C31.13927865 21.09357682 31.13748948 24.71121888 31.1343255 28.32888985 C31.13180176 32.10675256 31.13413948 35.88461278 31.13571167 39.66247559 C31.13753332 46.00789834 31.13512717 52.35330948 31.13037109 58.69873047 C31.12492848 66.04516643 31.12669114 73.39157464 31.1321975 80.73800993 C31.13672875 87.03438667 31.13737912 93.33075504 31.13475883 99.62713289 C31.13319612 103.3925551 31.13300212 107.15796424 31.13629532 110.92338562 C31.13970802 115.11886247 31.13498411 119.31429113 31.12939453 123.50976562 C31.13141876 124.76694901 31.13344299 126.02413239 31.13552856 127.31941223 C31.13270874 128.45525253 31.12988892 129.59109283 31.12698364 130.76135254 C31.1264181 132.25132626 31.1264181 132.25132626 31.12584114 133.77140045 C31 136 31 136 30 137 C25.69352364 137.25342236 21.37554946 137.18522638 17.0625 137.1875 C15.84369141 137.19974609 14.62488281 137.21199219 13.36914062 137.22460938 C11.62600586 137.22750977 11.62600586 137.22750977 9.84765625 137.23046875 C8.77523682 137.23457764 7.70281738 137.23868652 6.59790039 137.24291992 C4 137 4 137 2 135 C1.43479997 132.34462628 1.26211802 129.70855287 1 127 C0.28714844 127.54269531 -0.42570313 128.08539062 -1.16015625 128.64453125 C-13.2141387 137.64851545 -22.8419861 140.0345232 -38 139 C-50.4949012 136.79831707 -60.72046193 130.14437369 -68.20703125 119.91015625 C-76.8449753 105.88996383 -78.53044457 89.94800608 -75.59570312 73.77148438 C-74.60172535 69.86343521 -73.02246545 66.47147234 -71 63 C-70.48050781 62.10539063 -69.96101563 61.21078125 -69.42578125 60.2890625 C-62.18870094 49.05387488 -51.90249171 41.50055597 -39 38 C-36.03608522 37.72476664 -33.0997819 37.72020252 -30.125 37.75 C-28.97837891 37.73839844 -28.97837891 37.73839844 -27.80859375 37.7265625 C-20.39680116 37.75172988 -14.04879738 38.94175605 -7.6875 43 C-6.45580078 43.7734375 -6.45580078 43.7734375 -5.19921875 44.5625 C-3.46015657 45.6992227 -1.72867851 46.84754766 0 48 C0 32.16 0 16.32 0 0 Z " fill="#4C4C4C" transform="translate(548,452)"/>
<path d="M0 0 C10.58392781 3.71971376 19.06157107 12.69738736 27.08984375 20.27734375 C29.30568215 22.35041672 31.53230661 24.3265806 33.875 26.25 C37.68148244 29.47015385 40.7990699 33.19121651 44 37 C44.75152344 37.85207031 45.50304687 38.70414062 46.27734375 39.58203125 C52.96058549 47.29996129 58.53209999 55.52170385 63.87841797 64.20654297 C64.83212173 65.73155556 65.84930507 67.21657213 66.87890625 68.69140625 C68 71 68 71 67.91015625 73.51171875 C66.83547515 76.44979541 65.39888407 78.37516363 63.4375 80.8125 C48.22276512 101.11695836 41.34782417 125.84493231 41.5625 150.9375 C41.56554138 151.69602264 41.56858276 152.45454529 41.57171631 153.23605347 C41.6833193 172.17210579 44.26509785 189.88524929 50.828125 207.7109375 C52 211 52 211 52 213 C47.47851089 211.56998608 44.53894862 209.03992119 41.1875 205.8125 C40.13495279 204.81942334 39.08156485 203.82723702 38.02734375 202.8359375 C37.5154248 202.3522168 37.00350586 201.86849609 36.47607422 201.37011719 C33.84515573 198.92805392 31.08786603 196.63401871 28.328125 194.33984375 C27 193 27 193 27 191 C26.34 191 25.68 191 25 191 C22.41772066 188.58007954 20.25133843 185.72427585 18 183 C17.32904297 182.1953833 17.32904297 182.1953833 16.64453125 181.37451172 C1.56179288 163.2236694 -10.31507828 143.77899642 -17 121 C-17.31759277 119.92782227 -17.31759277 119.92782227 -17.64160156 118.83398438 C-24.54012687 94.27917007 -22.25145011 67.37133814 -16 43 C-15.62226258 41.40007778 -15.24587721 39.79983551 -14.87109375 38.19921875 C-11.60528732 24.89594476 -6.18363704 12.20177948 0 0 Z " fill="#AEAEAE" transform="translate(118,392)"/>
<path d="M0 0 C1.11652954 0.00737183 1.11652954 0.00737183 2.25561523 0.01489258 C12.00123316 0.22054083 19.84073448 2.56199871 27.75 8.3125 C28.575 8.910625 29.4 9.50875 30.25 10.125 C30.745 10.516875 31.24 10.90875 31.75 11.3125 C31.894375 10.013125 32.03875 8.71375 32.1875 7.375 C32.625 3.4375 32.625 3.4375 33.75 2.3125 C35.73757028 2.21266942 37.7286752 2.18169247 39.71875 2.1796875 C40.92917969 2.17839844 42.13960937 2.17710937 43.38671875 2.17578125 C44.66160156 2.17964844 45.93648437 2.18351562 47.25 2.1875 C49.16232422 2.18169922 49.16232422 2.18169922 51.11328125 2.17578125 C52.92892578 2.17771484 52.92892578 2.17771484 54.78125 2.1796875 C55.90080078 2.18081543 57.02035156 2.18194336 58.17382812 2.18310547 C60.75 2.3125 60.75 2.3125 61.75 3.3125 C61.85059769 6.25959415 61.8861505 9.18329141 61.87939453 12.13085938 C61.88202301 13.51855278 61.88202301 13.51855278 61.88470459 14.9342804 C61.88912467 18.00828905 61.88618457 21.0822407 61.8828125 24.15625 C61.88348549 26.28234875 61.88445548 28.40844742 61.88571167 30.5345459 C61.88718886 34.9968336 61.88503342 39.45910133 61.88037109 43.92138672 C61.8746738 49.65520569 61.87795269 55.38897785 61.88394356 61.1227951 C61.88754861 65.51495723 61.88641084 69.90710817 61.88381577 74.29927063 C61.88314634 76.41408799 61.88397545 78.52890634 61.88629532 80.64372253 C61.88882093 83.59388946 61.88498254 86.54397946 61.87939453 89.49414062 C61.88141876 90.37729446 61.88344299 91.2604483 61.88552856 92.17036438 C61.86426234 98.19823766 61.86426234 98.19823766 60.75 99.3125 C58.83541718 99.41221786 56.91717683 99.44330589 55 99.4453125 C53.8346875 99.44660156 52.669375 99.44789063 51.46875 99.44921875 C50.2415625 99.44535156 49.014375 99.44148437 47.75 99.4375 C45.90921875 99.44330078 45.90921875 99.44330078 44.03125 99.44921875 C42.8659375 99.44792969 41.700625 99.44664062 40.5 99.4453125 C39.42234375 99.44418457 38.3446875 99.44305664 37.234375 99.44189453 C34.75 99.3125 34.75 99.3125 33.75 98.3125 C33.67773498 96.45962498 33.6661878 94.60416122 33.6875 92.75 C33.69652344 91.73808594 33.70554687 90.72617187 33.71484375 89.68359375 C33.72644531 88.90113281 33.73804688 88.11867188 33.75 87.3125 C33.09 87.3125 32.43 87.3125 31.75 87.3125 C31.52570313 87.89902344 31.30140625 88.48554687 31.0703125 89.08984375 C29.36019805 91.96870505 27.45925363 93.11049948 24.625 94.875 C23.71492187 95.45378906 22.80484375 96.03257812 21.8671875 96.62890625 C15.03318993 100.31995005 9.27920688 101.84971313 1.5 101.75 C0.25210693 101.73864014 0.25210693 101.73864014 -1.02099609 101.72705078 C-14.75092305 101.36230384 -25.87469439 95.62781845 -35.328125 85.77734375 C-45.95747091 72.14499158 -47.8221204 56.0388302 -46.25 39.3125 C-43.91083651 26.19900771 -35.85295817 15.07877768 -25.25 7.3125 C-17.22908543 2.48521144 -9.3658562 -0.07344517 0 0 Z " fill="#4C4C4C" transform="translate(630.25,489.6875)"/>
<path d="M0 0 C0.70825928 0.00418945 1.41651855 0.00837891 2.14624023 0.01269531 C10.94147466 0.20108589 17.90216252 2.6407655 25.3125 7.3125 C25.3125 5.6625 25.3125 4.0125 25.3125 2.3125 C29.56664623 2.28784378 33.82075498 2.26966101 38.07495117 2.25756836 C39.52320073 2.25252899 40.97144517 2.24569747 42.41967773 2.23706055 C44.49724588 2.22497753 46.57474697 2.21926789 48.65234375 2.21484375 C49.90394287 2.20960693 51.15554199 2.20437012 52.44506836 2.19897461 C55.3125 2.3125 55.3125 2.3125 56.3125 3.3125 C56.41841102 6.22370549 56.4592766 9.11131505 56.45776367 12.02319336 C56.46112228 12.93696243 56.4644809 13.85073151 56.46794128 14.79219055 C56.47748185 17.82892191 56.47939594 20.86559832 56.48046875 23.90234375 C56.48367913 26.00362674 56.48704303 28.10490951 56.49055481 30.20619202 C56.49655383 34.61720295 56.49839391 39.02819426 56.49780273 43.43920898 C56.49770106 49.10346267 56.51135544 54.76759116 56.52857494 60.43181515 C56.53966976 64.77340782 56.54172272 69.11496999 56.54119301 73.45657539 C56.54237685 75.54545079 56.54682109 77.63432688 56.55452538 79.7231884 C56.56427477 82.63968661 56.56146733 85.55590988 56.55541992 88.47241211 C56.56103943 89.34261993 56.56665894 90.21282776 56.57244873 91.10940552 C56.54081525 97.08418475 56.54081525 97.08418475 54.3125 99.3125 C51.63867188 99.57128906 51.63867188 99.57128906 48.28125 99.578125 C47.07855469 99.58070313 45.87585938 99.58328125 44.63671875 99.5859375 C43.37472656 99.57820312 42.11273437 99.57046875 40.8125 99.5625 C39.55050781 99.57023438 38.28851562 99.57796875 36.98828125 99.5859375 C35.78558594 99.58335937 34.58289063 99.58078125 33.34375 99.578125 C32.23580078 99.57586914 31.12785156 99.57361328 29.98632812 99.57128906 C27.3125 99.3125 27.3125 99.3125 25.3125 97.3125 C25.09500521 94.63398908 25.00109445 92.05575065 24.99365234 89.37451172 C24.98360672 88.55491974 24.9735611 87.73532776 24.96321106 86.89089966 C24.93225466 84.17466959 24.91530952 81.45853861 24.8984375 78.7421875 C24.87973585 76.86173645 24.86016321 74.98129387 24.8397522 73.1008606 C24.78831892 68.14594511 24.74875327 63.19100238 24.71160889 58.23596191 C24.67163925 53.18197835 24.62051489 48.1281092 24.5703125 43.07421875 C24.47342066 33.15371802 24.39008902 23.2331705 24.3125 13.3125 C20.6825 19.5825 17.0525 25.8525 13.3125 32.3125 C9.3125 31.3125 9.3125 31.3125 6.99609375 30.2734375 C0.63109184 27.99426651 -7.18933397 28.19263247 -13.3125 30.9375 C-21.73025936 39.35525936 -21.97495238 48.74536947 -22.06640625 60.09375 C-22.08340073 61.18844604 -22.1003952 62.28314209 -22.11790466 63.41101074 C-22.17068287 66.87811658 -22.21121224 70.34521168 -22.25 73.8125 C-22.29391343 77.30829672 -22.34050071 80.80400113 -22.39280701 84.29968262 C-22.42480684 86.46863813 -22.4516835 88.63767625 -22.47303772 90.8067627 C-22.48652756 91.77867554 -22.5000174 92.75058838 -22.51391602 93.75195312 C-22.52342789 94.6108313 -22.53293976 95.46970947 -22.54273987 96.35461426 C-22.6875 98.3125 -22.6875 98.3125 -23.6875 99.3125 C-28.32765325 99.5666555 -32.97871306 99.49772798 -37.625 99.5 C-38.93919922 99.51224609 -40.25339844 99.52449219 -41.60742188 99.53710938 C-42.85974609 99.53904297 -44.11207031 99.54097656 -45.40234375 99.54296875 C-47.13665649 99.54913208 -47.13665649 99.54913208 -48.90600586 99.55541992 C-51.6875 99.3125 -51.6875 99.3125 -53.6875 97.3125 C-53.88110567 94.33495395 -53.94965291 91.45073354 -53.93041992 88.47241211 C-53.93231827 87.55689072 -53.93421661 86.64136932 -53.93617249 85.69810486 C-53.93988722 82.66193163 -53.9291669 79.62599584 -53.91796875 76.58984375 C-53.91677733 74.48759489 -53.91632371 72.38534549 -53.9165802 70.28309631 C-53.91501417 65.87383703 -53.90671484 61.46465881 -53.89331055 57.05541992 C-53.87631013 51.39000485 -53.87249643 45.72467888 -53.87325573 40.05924129 C-53.87298445 35.71768842 -53.86751012 31.3761552 -53.86025429 27.03460884 C-53.85706161 24.94491284 -53.85509882 22.85521459 -53.85436058 20.76551628 C-53.85220393 17.85136962 -53.84347471 14.93731946 -53.83276367 12.02319336 C-53.83321686 11.1509613 -53.83367004 10.27872925 -53.83413696 9.38006592 C-53.8019741 3.4269741 -53.8019741 3.4269741 -52.6875 2.3125 C-50.68785018 2.22491997 -48.6851389 2.20553424 -46.68359375 2.21484375 C-45.46865234 2.21806641 -44.25371094 2.22128906 -43.00195312 2.22460938 C-41.72255859 2.23298828 -40.44316406 2.24136719 -39.125 2.25 C-37.84173828 2.25451172 -36.55847656 2.25902344 -35.23632812 2.26367188 C-32.05333978 2.27550455 -28.87044238 2.29198932 -25.6875 2.3125 C-24.48477181 4.71795638 -24.58678528 6.26246953 -24.625 8.9375 C-24.63402344 9.75476563 -24.64304687 10.57203125 -24.65234375 11.4140625 C-24.66394531 12.04054688 -24.67554688 12.66703125 -24.6875 13.3125 C-24.0275 13.3125 -23.3675 13.3125 -22.6875 13.3125 C-22.5225 12.61125 -22.3575 11.91 -22.1875 11.1875 C-19.66496867 6.35264829 -15.20177089 3.58685648 -10.40625 1.15625 C-6.92167812 0.07483114 -3.61368428 -0.02903587 0 0 Z " fill="#4D4D4D" transform="translate(864.6875,489.6875)"/>
<path d="M0 0 C1.29873658 26.40764372 -8.43640685 53.39406 -26.08984375 72.96484375 C-41.34084679 89.2001132 -65.03131925 102.32135569 -87.53125 104.3125 C-90.04500367 104.3125 -92.49914442 104.24306372 -95 104 C-96.08825501 77.21683492 -85.64500112 50.16023246 -68.0625 30.125 C-51.24175369 12.56065363 -24.93347648 -1.10815451 0 0 Z " fill="#575757" transform="translate(284,505)"/>
<path d="M0 0 C7.10076825 18.10788533 14.33674785 37.75415448 14.0625 57.5 C14.05347656 58.3559375 14.04445313 59.211875 14.03515625 60.09375 C14.02355469 60.7228125 14.01195312 61.351875 14 62 C13.04480469 62.43570313 12.08960938 62.87140625 11.10546875 63.3203125 C-0.90000956 68.83120275 -11.88052137 74.36625233 -22 83 C-22.73863281 83.58136719 -23.47726563 84.16273438 -24.23828125 84.76171875 C-36.16470306 94.5274034 -43.84742582 108.09314844 -50 122 C-50.48210937 123.08925781 -50.96421875 124.17851563 -51.4609375 125.30078125 C-55.01671912 133.95318319 -57.04541428 142.88223978 -59 152 C-59.66 152 -60.32 152 -61 152 C-70.30386817 115.2045305 -71.36588308 81.34191061 -51.42578125 47.828125 C-42.01458521 32.62630692 -29.8137751 20.34021974 -15.875 9.3125 C-15.28895996 8.84859863 -14.70291992 8.38469727 -14.09912109 7.90673828 C-4.0000211 0 -4.0000211 0 0 0 Z " fill="#838383" transform="translate(238,437)"/>
<path d="M0 0 C1.30066406 -0.00128906 2.60132813 -0.00257813 3.94140625 -0.00390625 C4.96258545 -0.00076416 4.96258545 -0.00076416 6.00439453 0.00244141 C8.08503515 0.0077901 10.16545989 0.0024957 12.24609375 -0.00390625 C14.19708984 -0.00197266 14.19708984 -0.00197266 16.1875 0 C17.39083984 0.00112793 18.59417969 0.00225586 19.83398438 0.00341797 C22.59375 0.1328125 22.59375 0.1328125 23.59375 1.1328125 C23.69434769 4.07990665 23.7299005 7.00360391 23.72314453 9.95117188 C23.72489685 10.87630081 23.72664917 11.80142975 23.72845459 12.7545929 C23.73287467 15.82860155 23.72993457 18.9025532 23.7265625 21.9765625 C23.72723549 24.10266125 23.72820548 26.22875992 23.72946167 28.3548584 C23.73093886 32.8171461 23.72878342 37.27941383 23.72412109 41.74169922 C23.7184238 47.47551819 23.72170269 53.20929035 23.72769356 58.9431076 C23.73129861 63.33526973 23.73016084 67.72742067 23.72756577 72.11958313 C23.72689634 74.23440049 23.72772545 76.34921884 23.73004532 78.46403503 C23.73257093 81.41420196 23.72873254 84.36429196 23.72314453 87.31445312 C23.72516876 88.19760696 23.72719299 89.0807608 23.72927856 89.99067688 C23.70801234 96.01855016 23.70801234 96.01855016 22.59375 97.1328125 C17.95359675 97.386968 13.30253694 97.31804048 8.65625 97.3203125 C7.34205078 97.33255859 6.02785156 97.34480469 4.67382812 97.35742188 C3.42150391 97.35935547 2.16917969 97.36128906 0.87890625 97.36328125 C-0.85540649 97.36944458 -0.85540649 97.36944458 -2.62475586 97.37573242 C-5.40625 97.1328125 -5.40625 97.1328125 -7.40625 95.1328125 C-7.59985567 92.15526645 -7.66840291 89.27104604 -7.64916992 86.29272461 C-7.65106827 85.37720322 -7.65296661 84.46168182 -7.65492249 83.51841736 C-7.65863722 80.48224413 -7.6479169 77.44630834 -7.63671875 74.41015625 C-7.63552733 72.30790739 -7.63507371 70.20565799 -7.6353302 68.10340881 C-7.63376417 63.69414953 -7.62546484 59.28497131 -7.61206055 54.87573242 C-7.59506013 49.21031735 -7.59124643 43.54499138 -7.59200573 37.87955379 C-7.59173445 33.53800092 -7.58626012 29.1964677 -7.57900429 24.85492134 C-7.57581161 22.76522534 -7.57384882 20.67552709 -7.57311058 18.58582878 C-7.57095393 15.67168212 -7.56222471 12.75763196 -7.55151367 9.84350586 C-7.55196686 8.9712738 -7.55242004 8.09904175 -7.55288696 7.20037842 C-7.51367555 -0.05734394 -7.13468293 0.00668757 0 0 Z " fill="#4C4C4C" transform="translate(442.40625,491.8671875)"/>
<path d="M0 0 C5.58758173 -0.09201873 11.17251711 -0.17159791 16.76025391 -0.21972656 C18.65943325 -0.23979629 20.55855115 -0.26705851 22.45751953 -0.30175781 C25.19318839 -0.35048109 27.92803771 -0.37301507 30.6640625 -0.390625 C31.50804596 -0.41127014 32.35202942 -0.43191528 33.22158813 -0.45318604 C38.65328787 -0.45523638 41.68012495 0.40519086 46 4 C51.10033851 9.52536672 52.43945707 14.17661 52.2421875 21.57421875 C51.62383506 27.76771656 48.25807539 31.00805543 43.71875 34.80078125 C39.57180941 37.6942148 35.00430684 37.12740982 30.17578125 37.09765625 C29.31438034 37.0962413 28.45297943 37.09482635 27.56547546 37.09336853 C24.81444831 37.0877714 22.06350256 37.07521946 19.3125 37.0625 C17.4472668 37.05748463 15.58203233 37.05292179 13.71679688 37.04882812 C9.14447466 37.03865384 4.57232845 37.01907787 0 37 C0 24.79 0 12.58 0 0 Z " fill="#FDFDFD" transform="translate(341,480)"/>
<path d="M0 0 C5.79570492 3.05434729 8.91538964 7.88707504 11.375 13.8125 C12.79840626 22.21059693 13.00332876 29.31489182 8 36.5 C3.6261641 41.84579943 -1.238154 44.98637248 -8.08984375 45.921875 C-15.53072364 46.23444405 -21.18045029 45.32330112 -27 40.5 C-32.31877688 34.99826765 -34.03413424 28.73468567 -34.4375 21.1875 C-34.28547018 14.27014299 -31.93148224 8.65599401 -27.21484375 3.578125 C-19.84257076 -2.99587639 -9.16393171 -3.54985068 0 0 Z " fill="#FCFCFC" transform="translate(649,518.5)"/>
<path d="M0 0 C5.04386064 3.0715818 8.80872588 7.67185895 10.92578125 13.203125 C12.84044872 21.32949992 12.15606965 29.03562456 7.9921875 36.28125 C4.33326086 41.20884969 -0.57515803 44.10844689 -6.5625 45.375 C-13.74677713 46.09342771 -19.62070233 45.73322062 -25.5625 41.375 C-31.3044869 35.76061281 -33.66457182 29.92728603 -34 22 C-33.76581235 15.23666054 -32.23549658 9.32766624 -27.62109375 4.23046875 C-20.14653098 -2.52829796 -9.46517822 -4.3699386 0 0 Z " fill="#FBFBFB" transform="translate(536.5625,518.625)"/>
<path d="M0 0 C5.68312707 2.97550929 10.18468249 6.87045371 12.2578125 13.08984375 C13.45882401 29.687429 13.45882401 29.687429 8.2578125 36.08984375 C3.96599352 40.61557703 -0.23728626 43.67408995 -6.57421875 44.42578125 C-14.26124439 44.52652864 -19.73065518 43.78797511 -25.4921875 38.4765625 C-31.20904961 32.2787144 -32.22528372 26.35259369 -32.05078125 18.05859375 C-31.31406323 10.97117993 -27.9283867 6.71406946 -22.5234375 2.31640625 C-15.93390104 -2.22112544 -7.57003048 -2.51255997 0 0 Z " fill="#FCFCFC" transform="translate(759.7421875,516.91015625)"/>
<path d="M0 0 C-0.52540731 13.58177908 -4.60522866 23.97598385 -14 34 C-17.16780499 36.42990383 -20.37745052 38.33266762 -24 40 C-24.80308594 40.37640625 -25.60617187 40.7528125 -26.43359375 41.140625 C-29.37242772 42.12470943 -31.72228648 42.19946298 -34.8125 42.125 C-35.78832031 42.10695313 -36.76414062 42.08890625 -37.76953125 42.0703125 C-38.87361328 42.03550781 -38.87361328 42.03550781 -40 42 C-39.23764112 30.37402715 -35.35151052 20.24342894 -27.75 11.375 C-19.4851652 4.23718813 -11.16337171 0 0 0 Z " fill="#4D4D4D" transform="translate(940,442)"/>
<path d="M0 0 C1.04543537 11.23843026 -4.07188897 22.40528572 -11 31 C-17.48182282 37.69746076 -26.98706336 42.77166063 -36.39453125 43.12890625 C-37.25433594 43.08636719 -38.11414063 43.04382813 -39 43 C-39.83930438 32.08904309 -35.51912661 21.64366341 -29 13 C-21.58411857 4.62816511 -11.28579791 -0.31349439 0 0 Z " fill="#4F4F4F" transform="translate(483,442)"/>
<path d="M0 0 C1.084021 0.00523682 2.16804199 0.01047363 3.28491211 0.01586914 C5.03964844 0.02070313 5.03964844 0.02070313 6.82983398 0.02563477 C8.67738281 0.03820312 8.67738281 0.03820312 10.56225586 0.05102539 C12.41560547 0.05779297 12.41560547 0.05779297 14.30639648 0.06469727 C17.37089703 0.07652931 20.43530307 0.09301366 23.49975586 0.11352539 C23.16975586 0.77352539 22.83975586 1.43352539 22.49975586 2.11352539 C14.57975586 2.11352539 6.65975586 2.11352539 -1.50024414 2.11352539 C-1.50024414 41.38352539 -1.50024414 80.65352539 -1.50024414 121.11352539 C-2.49024414 121.60852539 -2.49024414 121.60852539 -3.50024414 122.11352539 C-3.52357345 106.35435795 -3.54122347 90.59519515 -3.55205631 74.83601475 C-3.5572192 67.51925137 -3.56426177 60.2024987 -3.57568359 52.88574219 C-3.58563065 46.51069521 -3.59209762 40.13565598 -3.59433264 33.76060146 C-3.59563971 30.38304525 -3.59872533 27.00551123 -3.6059742 23.62796211 C-3.61318027 19.86345196 -3.61423527 16.09898854 -3.61376953 12.33447266 C-3.61916245 10.64270653 -3.61916245 10.64270653 -3.62466431 8.91676331 C-3.62328964 7.897276 -3.62191498 6.8777887 -3.62049866 5.82740784 C-3.62142045 4.93603402 -3.62234224 4.04466021 -3.62329197 3.12627506 C-3.4383866 0.1016932 -3.04338224 0.13818697 0 0 Z " fill="#444444" transform="translate(312.500244140625,451.886474609375)"/>
<path d="M0 0 C0 1.98 0 3.96 0 6 C-0.99 6.495 -0.99 6.495 -2 7 C-2 5.35 -2 3.7 -2 2 C-2.93972656 2.25136719 -2.93972656 2.25136719 -3.8984375 2.5078125 C-4.71570313 2.71148437 -5.53296875 2.91515625 -6.375 3.125 C-7.59316406 3.43824219 -7.59316406 3.43824219 -8.8359375 3.7578125 C-9.55007813 3.83773438 -10.26421875 3.91765625 -11 4 C-11.66 3.34 -12.32 2.68 -13 2 C-11.58461283 1.66127487 -10.16762037 1.32925376 -8.75 1 C-7.56664062 0.7215625 -7.56664062 0.7215625 -6.359375 0.4375 C-4 0 -4 0 0 0 Z " fill="#636463" transform="translate(940,442)"/>
</svg>
