<?xml version="1.0" encoding="UTF-8"?>
<svg version="1.1" xmlns="http://www.w3.org/2000/svg" width="1028" height="1024">
<path d="M0 0 C339.24 0 678.48 0 1028 0 C1028 337.92 1028 675.84 1028 1024 C688.76 1024 349.52 1024 0 1024 C0 686.08 0 348.16 0 0 Z " fill="#FEFEFE" transform="translate(0,0)"/>
<path d="M0 0 C14.2173371 10.4043316 23.30517101 26.55020705 26.51586914 43.76611328 C26.94587109 46.54864985 27.32862487 49.3324416 27.6875 52.125 C27.88182617 53.55972656 27.88182617 53.55972656 28.08007812 55.0234375 C28.39390751 57.34809962 28.70043369 59.67346463 29 62 C30.6498007 58.70039859 30.38258361 55.00872116 30.5625 51.375 C30.62727539 50.17230469 30.62727539 50.17230469 30.69335938 48.9453125 C30.79951457 46.9637489 30.90026855 44.98189729 31 43 C44.27528321 59.99696666 47.45356347 84.04986759 46 105 C44.79137535 110.93759078 42.15780637 115.88154403 39 121 C38.44699219 121.93585938 37.89398438 122.87171875 37.32421875 123.8359375 C28.44082851 137.61685314 15.83937624 147.28215538 -0.09375 151.3359375 C-12.79824943 153.4957024 -24.39091098 153.01128171 -36 147 C-37.31871094 146.33097656 -37.31871094 146.33097656 -38.6640625 145.6484375 C-48.82484439 140.0175398 -58.06181132 131.28443606 -65 122 C-65 121.01 -65 120.02 -65 119 C-64.01 119 -63.02 119 -62 119 C-61.67 117.02 -61.34 115.04 -61 113 C-61.99 113 -62.98 113 -64 113 C-61.82612532 97.36660335 -52.48683705 85.26178656 -41 75 C-40.24066162 74.51740723 -39.48132324 74.03481445 -38.69897461 73.53759766 C-33.8450273 70.40966374 -33.8450273 70.40966374 -31.24511719 65.4621582 C-31.03954203 62.51050181 -31.11431267 59.70164427 -31.3125 56.75 C-31.34827148 55.29013672 -31.34827148 55.29013672 -31.38476562 53.80078125 C-31.70373786 44.73715496 -32.5853224 35.70919759 -36.9375 27.625 C-37.44152344 26.66851562 -37.94554687 25.71203125 -38.46484375 24.7265625 C-39.96034657 21.98943673 -39.96034657 21.98943673 -41.69921875 19.45703125 C-43.89968082 15.3006029 -42.9262439 11.46607525 -42 7 C-40.14904808 1.83681832 -37.49541957 -0.88778645 -33 -4 C-21.52981444 -8.81747793 -10.41134776 -5.9371503 0 0 Z " fill="#CECDCE" transform="translate(261,474)"/>
<path d="M0 0 C8.04375 -0.061875 16.0875 -0.12375 24.375 -0.1875 C26.89431152 -0.21481201 29.41362305 -0.24212402 32.00927734 -0.27026367 C34.03482587 -0.27903604 36.06037974 -0.2866782 38.0859375 -0.29296875 C39.11436768 -0.30831665 40.14279785 -0.32366455 41.20239258 -0.33947754 C51.72963092 -0.34324175 60.14589612 1.82014634 68 9 C73.21426823 14.63704673 75.55516798 20.06572926 75.4375 27.75 C75.42847656 28.45374756 75.41945313 29.15749512 75.41015625 29.88256836 C75.17848785 36.897777 73.94323959 42.77329266 69.09375 48.08984375 C65.16309808 51.67583029 61.50382924 55 56 55 C56.6501709 56.12643921 56.6501709 56.12643921 57.31347656 57.27563477 C58.93875866 60.09164665 60.5639058 62.90773635 62.18896484 65.72387695 C62.88910701 66.93712377 63.58930122 68.15034056 64.28955078 69.36352539 C64.62841309 69.95061279 64.96727539 70.5377002 65.31640625 71.14257812 C65.65103882 71.72228363 65.98567139 72.30198914 66.33044434 72.89926147 C67.30936696 74.59638609 68.28653673 76.29452138 69.26367188 77.99267578 C70.29374239 79.77676022 71.32935912 81.55769141 72.37695312 83.33154297 C75 87.79234182 75 87.79234182 75 90 C64.77 90 54.54 90 44 90 C39.05 80.76 34.1 71.52 29 62 C28.67 71.24 28.34 80.48 28 90 C18.76 90 9.52 90 0 90 C0 60.3 0 30.6 0 0 Z " fill="#545454" transform="translate(339,463)"/>
<path d="M0 0 C9.57 0 19.14 0 29 0 C29 31.35 29 62.7 29 95 C19.43 95 9.86 95 0 95 C0 93.02 0 91.04 0 89 C-1.051875 89.78375 -2.10375 90.5675 -3.1875 91.375 C-10.28806427 96.66561652 -17.36219615 96.8958421 -26 96 C-33.39256062 93.85216144 -38.82056691 89.40846408 -43 83 C-44.60653265 79.74160932 -45.86028093 76.44616476 -47 73 C-47.35964844 72.06027344 -47.71929687 71.12054687 -48.08984375 70.15234375 C-51.18941522 59.4169181 -49.26559098 47.24516936 -44.4375 37.375 C-40.47250491 30.44597672 -34.67693825 25.40736358 -27 23 C-24.38045424 22.7073762 -21.9323588 22.53995971 -19.3125 22.5 C-18.65572266 22.45875 -17.99894531 22.4175 -17.32226562 22.375 C-9.99202377 22.26168225 -8.21085352 24.67348789 -1 29 C-0.67 19.43 -0.34 9.86 0 0 Z " fill="#545454" transform="translate(507,458)"/>
<path d="M0 0 C9.57 0 19.14 0 29 0 C29.495 14.355 29.495 14.355 30 29 C32.97 27.02 35.94 25.04 39 23 C42.19107939 22.46285903 44.43644652 22.21891213 47.5625 22.375 C48.30338867 22.3946582 49.04427734 22.41431641 49.80761719 22.43457031 C55.44828653 22.70103902 59.29392408 23.74194744 64 27 C64.86625 27.53625 65.7325 28.0725 66.625 28.625 C70.23342266 32.23342266 72.6352493 36.49934544 75 41 C75.3815625 41.70898438 75.763125 42.41796875 76.15625 43.1484375 C77.48088588 47.62521618 77.32804863 52.04468017 77.3125 56.6875 C77.32861328 57.63044922 77.34472656 58.57339844 77.36132812 59.54492188 C77.36873473 70.32152943 74.64645208 79.96580872 67.1796875 87.9453125 C60.05458058 94.62335389 53.64235489 96.61362305 43.90625 96.35546875 C37.68327153 95.59432488 33.06607342 92.74375233 29 88 C28.67 90.31 28.34 92.62 28 95 C18.76 95 9.52 95 0 95 C0 63.65 0 32.3 0 0 Z " fill="#535353" transform="translate(718,458)"/>
<path d="M0 0 C0.66 0.66 1.32 1.32 2 2 C1.875 4.4375 1.875 4.4375 1 7 C0.34 7.474375 -0.32 7.94875 -1 8.4375 C-3.33318708 9.92423827 -3.33318708 9.92423827 -3.75 13.1875 C-3.8325 14.115625 -3.915 15.04375 -4 16 C-1.35247996 13.42215154 0.94432065 11.08351902 3 8 C4.32 8 5.64 8 7 8 C8.90867651 12.01196317 9.10885799 15.09083981 9.0625 19.5 C9.19333085 24.06734266 9.19333085 24.06734266 11.7109375 27.5703125 C13.26048195 28.30430724 14.83210678 28.99270452 16.41796875 29.64453125 C19.67515371 31.35443016 21.4001431 33.49344091 23.75 36.3125 C29.10387117 42.50996086 34.85366457 46.05559408 42 50 C43.43813707 50.83223342 44.87578704 51.66531049 46.3125 52.5 C47.199375 52.995 48.08625 53.49 49 54 C48.96854824 62.41334627 47.26733686 67.47794374 42 74 C41.33484375 74.90685547 41.33484375 74.90685547 40.65625 75.83203125 C35.11165788 82.97230541 26.46639525 90.10581143 17.31640625 91.37109375 C8.96678731 91.57243208 8.96678731 91.57243208 5.5625 88.75 C4.09456508 87.17465521 2.62928387 85.5968066 1.171875 84.01171875 C-1.18793177 81.8259265 -3.45267524 80.52274998 -6.3125 79.0625 C-10.84696819 76.67369839 -14.91428795 74.08698244 -19 71 C-17.8796427 76.24682179 -14.96138729 79.31120852 -10.8125 82.5625 C-7.24802111 85.65171504 -7.24802111 85.65171504 -7 89 C-17.0231205 92.24432585 -28.39510398 93.31856712 -38.06030273 88.48779297 C-41.12139328 86.77511102 -44.06756422 84.92272954 -47 83 C-48.11375 82.31035156 -49.2275 81.62070312 -50.375 80.91015625 C-52.94252077 79.30873067 -55.48079097 77.67598106 -58 76 C-58.495 76.99 -58.495 76.99 -59 78 C-59 77.01 -59 76.02 -59 75 C-58.01 75 -57.02 75 -56 75 C-55.67 73.02 -55.34 71.04 -55 69 C-55.99 69 -56.98 69 -58 69 C-55.88830835 53.81379194 -46.71516131 40.58061921 -35 31 C-31.91376668 29.21224289 -28.83347486 27.68085278 -25.56640625 26.25390625 C-21.15285472 24.09751349 -19.7441115 21.87610187 -18.125 17.3125 C-15.07338198 9.39447598 -10.36930945 -1.72821824 0 0 Z " fill="#A5A5A5" transform="translate(255,518)"/>
<path d="M0 0 C10.52308754 3.05459725 17.67293231 10.6708713 23 20 C28.14706889 29.64095645 29.98728143 39.40073518 26.81640625 50.06640625 C21.78887501 61.97371708 12.54258093 68.10959071 1 73 C-9.78600382 76.87852877 -21.407561 75.31502615 -32.36914062 73.08081055 C-40.20695433 71.50113342 -46.83215788 70.72686335 -54 75 C-59.59302183 81.12815663 -60.51548222 87.51978977 -61.75 95.5625 C-61.96116455 96.86413086 -62.1723291 98.16576172 -62.38989258 99.50683594 C-64.09549573 110.53921531 -64.62104242 121.52543196 -64.72363281 132.67797852 C-64.73620117 133.87221436 -64.74876953 135.0664502 -64.76171875 136.296875 C-64.76131592 137.35229492 -64.76091309 138.40771484 -64.76049805 139.49511719 C-65 142 -65 142 -67 144 C-69.25 144.4375 -69.25 144.4375 -72 144 C-78.90851064 139.12340426 -78.90851064 139.12340426 -80 135 C-80.27095741 128.36154342 -76.79122469 124.54020871 -72.8125 119.453125 C-70.48916548 116.3086119 -69.88405828 113.79710738 -69.68359375 109.98828125 C-69.64169922 109.23095703 -69.59980469 108.47363281 -69.55664062 107.69335938 C-69.51732422 106.90767578 -69.47800781 106.12199219 -69.4375 105.3125 C-69.39431641 104.51521484 -69.35113281 103.71792969 -69.30664062 102.89648438 C-69.20072632 100.93118553 -69.09987449 98.96561504 -69 97 C-72.96 97 -76.92 97 -81 97 C-81 96.34 -81 95.68 -81 95 C-78.8046875 93.4140625 -78.8046875 93.4140625 -75.875 91.625 C-74.37646484 90.69880859 -74.37646484 90.69880859 -72.84765625 89.75390625 C-71.90792969 89.17511719 -70.96820313 88.59632813 -70 88 C-67.98565937 86.68629959 -65.99267604 85.34640273 -64 84 C-68.14526645 80.71582754 -72.71198085 78.28769772 -77.3203125 75.71875 C-80 74 -80 74 -82 71 C-82.4375 68.125 -82.4375 68.125 -82 65 C-79.35876871 61.77182842 -76.85139418 59.57170865 -73 58 C-70.640625 57.8046875 -70.640625 57.8046875 -68.25 57.875 C-67.05117187 57.90207031 -67.05117187 57.90207031 -65.828125 57.9296875 C-65.22484375 57.95289063 -64.6215625 57.97609375 -64 58 C-64.97943991 52.7110245 -66.04365091 48.56890313 -69 44 C-69 43.01 -69 42.02 -69 41 C-59.96630045 39.74087816 -54.37523712 43.03248634 -47 48 C-46.27277798 41.30955744 -48.51295972 36.66026652 -52 31 C-54.14380218 28.60084402 -54.14380218 28.60084402 -56 27 C-56 26.34 -56 25.68 -56 25 C-47.91279334 24.55887964 -41.29041031 25.72192726 -35.0625 31.1875 C-34.51722656 31.71730469 -33.97195312 32.24710937 -33.41015625 32.79296875 C-32.05613204 34.2167571 -32.05613204 34.2167571 -30 34 C-27.76447606 29.52895212 -28.40222594 23.855971 -29.89453125 19.22265625 C-30.60583377 17.51100602 -31.34722164 15.81139208 -32.125 14.12890625 C-33 12 -33 12 -33 9 C-24.1377379 9.45447498 -17.52781726 16.01196655 -11.6640625 22.09765625 C-9.78161466 24.24965648 -8.27954385 26.4409123 -7 29 C-5.05767612 28.83363976 -5.05767612 28.83363976 -3 28 C2.59293817 19.61059274 1.68139802 9.45786384 0 0 Z " fill="#7E7E7E" transform="translate(279,391)"/>
<path d="M0 0 C2.5625 1.75 2.5625 1.75 4 3 C4 0.69 4 -1.62 4 -4 C13.57 -4 23.14 -4 33 -4 C33 19.76 33 43.52 33 68 C23.43 68 13.86 68 4 68 C3.67 66.02 3.34 64.04 3 62 C2.319375 62.598125 1.63875 63.19625 0.9375 63.8125 C-6.65605237 69.46727304 -13.6430503 70.09285842 -23 69 C-31.72897037 66.37079206 -37.02683325 60.92313884 -41.25 53.0625 C-44.857654 45.86301504 -45.36361206 38.46003381 -45.375 30.5625 C-45.39949219 29.67240234 -45.42398438 28.78230469 -45.44921875 27.86523438 C-45.4899164 18.57938758 -42.00822566 10.10839017 -35.4375 3.40625 C-25.37732682 -5.75569344 -11.82028859 -7.24804509 0 0 Z " fill="#535353" transform="translate(674,485)"/>
<path d="M0 0 C5.67428944 3.4926583 9.84872749 8.02917484 12.1640625 14.33203125 C12.6590625 18.29203125 12.6590625 18.29203125 13.1640625 22.33203125 C4.9140625 22.33203125 -3.3359375 22.33203125 -11.8359375 22.33203125 C-12.4959375 21.01203125 -13.1559375 19.69203125 -13.8359375 18.33203125 C-17.39800411 17.5133294 -17.39800411 17.5133294 -20.8359375 17.33203125 C-21.1659375 18.65203125 -21.4959375 19.97203125 -21.8359375 21.33203125 C-20.27746094 21.69554687 -20.27746094 21.69554687 -18.6875 22.06640625 C4.89876772 27.68339763 4.89876772 27.68339763 11.4765625 36.39453125 C14.35466784 41.88055244 14.05672595 47.95681266 12.50390625 53.828125 C9.67905637 61.07979591 4.81776487 65.24420042 -2.0234375 68.70703125 C-11.31316301 72.10327498 -24.47095384 72.1207484 -33.7109375 68.58203125 C-35.10887468 67.8757051 -36.48850975 67.13050696 -37.8359375 66.33203125 C-39.4446875 65.46578125 -39.4446875 65.46578125 -41.0859375 64.58203125 C-46.35730456 60.26909456 -50.30736967 55.05772972 -51.8359375 48.33203125 C-51.8359375 47.01203125 -51.8359375 45.69203125 -51.8359375 44.33203125 C-42.5959375 44.33203125 -33.3559375 44.33203125 -23.8359375 44.33203125 C-23.1759375 45.65203125 -22.5159375 46.97203125 -21.8359375 48.33203125 C-18.27387089 49.1507331 -18.27387089 49.1507331 -14.8359375 49.33203125 C-14.5059375 48.01203125 -14.1759375 46.69203125 -13.8359375 45.33203125 C-18.61431075 43.3644658 -23.13759794 42.02819521 -28.2109375 41.01953125 C-35.55215873 39.37393811 -42.92726715 36.63562585 -47.4609375 30.26953125 C-50.17111085 24.43422978 -50.05392504 16.93914821 -48.0234375 10.92578125 C-39.23909367 -4.93483955 -15.13324748 -6.79795085 0 0 Z " fill="#545454" transform="translate(851.8359375,483.66796875)"/>
<path d="M0 0 C9.24 0 18.48 0 28 0 C28 22.44 28 44.88 28 68 C37.24 68 46.48 68 56 68 C56 75.26 56 82.52 56 90 C37.52 90 19.04 90 0 90 C0 60.3 0 30.6 0 0 Z " fill="#525252" transform="translate(569,463)"/>
<path d="M0 0 C9.57 0 19.14 0 29 0 C29 23.76 29 47.52 29 72 C19.43 72 9.86 72 0 72 C0 48.24 0 24.48 0 0 Z " fill="#535353" transform="translate(422,481)"/>
<path d="M0 0 C14.96445925 8.53359679 24.16900172 24.20731414 28.828125 40.42578125 C30.26872126 47.45145837 30.46593902 54.25756786 30.3984375 61.40234375 C30.39392578 62.32015625 30.38941406 63.23796875 30.38476562 64.18359375 C30.37310076 66.42324766 30.35673364 68.6627592 30.3359375 70.90234375 C27.01149384 67.83506851 25.41627341 64.19204441 23.5234375 60.15234375 C20.71165637 54.30274147 17.84068547 49.63232912 13.3359375 44.90234375 C13.3359375 44.24234375 13.3359375 43.58234375 13.3359375 42.90234375 C12.49289062 42.50402344 12.49289062 42.50402344 11.6328125 42.09765625 C9.15663528 40.80903341 6.89748868 39.34104014 4.5859375 37.77734375 C3.78671875 37.23851562 2.9875 36.6996875 2.1640625 36.14453125 C1.56078125 35.73460937 0.9575 35.3246875 0.3359375 34.90234375 C0.3359375 37.54234375 0.3359375 40.18234375 0.3359375 42.90234375 C-2.81232147 41.98103051 -4.32029092 41.45788622 -6.078125 38.6171875 C-6.47773438 37.70066406 -6.87734375 36.78414063 -7.2890625 35.83984375 C-10.22794945 29.99260374 -13.95823628 26.94074413 -19.1015625 23.02734375 C-24.15468386 18.83695043 -27.20105255 13.28638718 -28.6640625 6.90234375 C-28.80599668 4.21048869 -28.75714931 1.60186133 -28.6640625 -1.09765625 C-19.52225622 -7.19219377 -9.30937982 -4.36698281 0 0 Z " fill="#656565" transform="translate(257.6640625,472.09765625)"/>
<path d="M0 0 C1.22897708 3.68693125 0.32998059 5.05537137 -1.29882812 8.44555664 C-1.8315332 9.4934436 -1.8315332 9.4934436 -2.375 10.5625 C-2.91930664 11.63842407 -2.91930664 11.63842407 -3.47460938 12.73608398 C-6.79543239 19.04351897 -10.83724245 24.07482068 -16 29 C-16.63550781 29.64324219 -17.27101563 30.28648437 -17.92578125 30.94921875 C-29.20007946 41.70998785 -43.69080499 45.53973123 -58.86914062 45.4921875 C-66.29772518 45.25654644 -72.38552949 43.4250272 -79 40 C-80.31871094 39.33097656 -80.31871094 39.33097656 -81.6640625 38.6484375 C-91.35970625 33.27530985 -100.52263712 25.01040981 -107 16 C-107 15.01 -107 14.02 -107 13 C-102.87058446 14.48628314 -99.38787894 16.52625648 -95.6875 18.875 C-93.47058726 20.2816298 -91.25627857 21.66048107 -89 23 C-88.37891357 23.37568115 -87.75782715 23.7513623 -87.11791992 24.13842773 C-81.9575145 27.02024581 -77.78940651 27.53585521 -71.9375 27.3125 C-71.17373047 27.30283203 -70.40996094 27.29316406 -69.62304688 27.28320312 C-65.00605264 27.19236406 -60.55592461 26.74419486 -56 26 C-58.06958728 22.57722103 -59.92990865 19.88263547 -63.0625 17.375 C-65.58121343 15.3385934 -67.45059985 13.82537674 -69 11 C-68.56640625 8.87890625 -68.56640625 8.87890625 -68 7 C-67.0821875 7.59167969 -66.164375 8.18335938 -65.21875 8.79296875 C-64.62763428 9.17356445 -64.03651855 9.55416016 -63.42749023 9.94628906 C-62.13749702 10.77698261 -60.84794929 11.60836835 -59.55883789 12.44042969 C-56.2135161 14.59531629 -52.8511754 16.70442573 -49.4375 18.75 C-46.12488306 20.79728257 -43.62877224 23.13224846 -41 26 C-39.31002987 27.68997013 -37.25136714 27.25202754 -34.9375 27.3125 C-25.03938318 27.17219164 -17.99830927 21.68776622 -11 15 C-8.11366042 11.46899574 -5.54298134 7.78217086 -3 4 C-2.00865309 2.66022051 -1.01184248 1.32436875 0 0 Z " fill="#636363" transform="translate(304,581)"/>
<path d="M0 0 C0.33 1.32 0.66 2.64 1 4 C2.98 3.67 4.96 3.34 7 3 C6.401875 3.99 5.80375 4.98 5.1875 6 C1.98464647 11.64203736 -0.97815896 17.37403624 0 24 C2.00268873 25.9129237 3.62874368 27.19418116 5.9375 28.625 C6.53578613 29.01034912 7.13407227 29.39569824 7.75048828 29.79272461 C9.48487254 30.88983108 11.23761115 31.94866747 13 33 C13.77214844 33.48339844 14.54429687 33.96679688 15.33984375 34.46484375 C22.09682661 38.10920495 29.54755923 37.35347545 37 37 C36.61328125 36.57589844 36.2265625 36.15179687 35.828125 35.71484375 C27.34336869 26.15899197 27.34336869 26.15899197 26.6875 20.125 C27 18 27 18 28 17 C33.95772484 17.29900752 37.47348445 19.17911227 42.1875 22.5 C47.18837933 26.14312989 47.18837933 26.14312989 53 28 C53.226875 27.278125 53.45375 26.55625 53.6875 25.8125 C55.31383265 22.32750146 57.03608717 20.45540464 60 18 C63.13452148 17.49584961 63.13452148 17.49584961 66.62109375 17.65234375 C67.88630859 17.68650391 69.15152344 17.72066406 70.45507812 17.75585938 C72.42637695 17.84577148 72.42637695 17.84577148 74.4375 17.9375 C77.03962427 18.04885505 79.64260754 18.14197263 82.24609375 18.21484375 C83.39779053 18.26761475 84.5494873 18.32038574 85.73608398 18.37475586 C89.73386025 17.91573974 91.79634975 16.3546294 95 14 C95.66 14 96.32 14 97 14 C97.33 13.01 97.66 12.02 98 11 C98.66015625 12.73046875 98.66015625 12.73046875 99 15 C97.44032912 18.28319823 95.1799102 21.10002896 93 24 C92.33097656 24.92039062 92.33097656 24.92039062 91.6484375 25.859375 C86.06752677 32.97422026 77.47505661 40.10461371 68.31640625 41.37109375 C59.96678731 41.57243208 59.96678731 41.57243208 56.5625 38.75 C55.09456508 37.17465521 53.62928387 35.5968066 52.171875 34.01171875 C49.81206823 31.8259265 47.54732476 30.52274998 44.6875 29.0625 C40.15303181 26.67369839 36.08571205 24.08698244 32 21 C33.1203573 26.24682179 36.03861271 29.31120852 40.1875 32.5625 C43.75197889 35.65171504 43.75197889 35.65171504 44 39 C33.9768795 42.24432585 22.60489602 43.31856712 12.93969727 38.48779297 C9.87860672 36.77511102 6.93243578 34.92272954 4 33 C2.88625 32.31035156 1.7725 31.62070312 0.625 30.91015625 C-1.94252077 29.30873067 -4.48079097 27.67598106 -7 26 C-7.33 26.66 -7.66 27.32 -8 28 C-8 27.01 -8 26.02 -8 25 C-7.01 25 -6.02 25 -5 25 C-4.67 23.02 -4.34 21.04 -4 19 C-4.99 19 -5.98 19 -7 19 C-6.41249992 14.5470164 -5.26681981 10.81179158 -3.5 6.6875 C-3.0565625 5.63949219 -2.613125 4.59148438 -2.15625 3.51171875 C-1 1 -1 1 0 0 Z " fill="#CACACB" transform="translate(204,568)"/>
<path d="M0 0 C13.17165079 6.28582033 19.56410084 19.75536315 24.32446289 32.84521484 C26 37.65809435 26 37.65809435 26 40 C26.66 40 27.32 40 28 40 C28.72724792 35.25024529 29.22649201 30.54849072 29.53515625 25.75390625 C29.59962196 24.76994118 29.59962196 24.76994118 29.66539001 23.76609802 C29.80028403 21.69838639 29.93145767 19.63045893 30.0625 17.5625 C30.15404953 16.1490725 30.24584418 14.73566085 30.33789062 13.32226562 C30.56142445 9.8816889 30.78162548 6.44090849 31 3 C40.49422388 15.47723938 45.20006361 31.39281233 45.0625 46.9375 C45.05798828 47.62134766 45.05347656 48.30519531 45.04882812 49.00976562 C45.0371956 50.67321604 45.01926694 52.3366205 45 54 C40.16940308 52.61562161 36.17513042 50.4863494 32 47.75 C31.07743408 47.15046509 31.07743408 47.15046509 30.13623047 46.53881836 C25.91571236 43.73995438 22.2524275 40.92204493 19 37 C19 36.34 19 35.68 19 35 C16.90371999 33.94946151 14.81279135 32.91536281 12.67578125 31.94921875 C9.99305876 30.51695534 8.05954224 29.25328241 6 27 C5.2951802 23.71230021 5.24979762 20.69097255 5.23828125 17.33203125 C4.92062067 12.8899907 3.30659665 9.8974839 1.05859375 6.12109375 C0 4 0 4 0 0 Z " fill="#626162" transform="translate(261,514)"/>
<path d="M0 0 C3.95962547 2.30431243 7.01875525 4.64044412 8.62109375 9.046875 C9.31666187 13.79258658 9.09664268 17.09577713 6.93359375 21.421875 C3.06861812 25.80914464 -0.7588881 27.57055682 -6.45703125 28.3203125 C-12.63008656 28.60898055 -16.7363078 27.17726188 -21.37890625 23.046875 C-24.14200837 19.16126265 -24.93726028 15.68552142 -24.72265625 11 C-23.86909963 6.15024647 -21.06737883 3.58079251 -17.31640625 0.671875 C-11.91630509 -2.07452838 -5.60512911 -2.24573318 0 0 Z " fill="#585858" transform="translate(444.37890625,447.953125)"/>
<path d="M0 0 C0.08636719 1.05058594 0.17273438 2.10117187 0.26171875 3.18359375 C1.24593787 14.95533416 1.24593787 14.95533416 7 25 C10.17473651 27.61080305 13.52605488 29.81164312 17 32 C20.09365194 34.32023895 21.85422331 35.78133496 24 39 C24 39.99 24 40.98 24 42 C22.4609375 43.0703125 22.4609375 43.0703125 20.375 44.125 C12.86457855 48.57021411 9.69927899 55.93224075 6.95703125 63.93359375 C6 66 6 66 3 68 C2.98018066 67.42145264 2.96036133 66.84290527 2.93994141 66.24682617 C2.09279753 42.68143205 2.09279753 42.68143205 -7.69921875 21.45703125 C-9.8947504 17.30991591 -8.94261396 13.45599327 -8 9 C-4.4 0 -4.4 0 0 0 Z " fill="#636363" transform="translate(227,472)"/>
<path d="M0 0 C3.37950314 2.1505929 5.78448151 4.13244117 7 8 C7.48290996 13.21542759 6.89584879 16.60629839 4 21 C1.26211268 23.21990864 -0.51431274 23.92917061 -4 24.4375 C-7.80060375 23.88324529 -9.33658366 22.73740012 -12 20 C-14.25059535 16.03466534 -14.47404865 12.50346218 -14 8 C-12.3562347 4.88858712 -10.96963114 2.71106283 -8.125 0.625 C-5.20173359 -0.23478424 -3.03665023 -0.37183472 0 0 Z " fill="#F8F8F8" transform="translate(671,505)"/>
<path d="M0 0 C3.49406769 1.66762322 4.82670681 2.74006022 7 6 C7.58190144 10.88192638 7.61701919 15.48830299 5.75 20.0625 C2.99814033 23.10920178 1.12486225 23.85640056 -2.9375 24.375 C-6.81080888 23.90071728 -8.29705739 22.77802435 -11 20 C-13.25059535 16.03466534 -13.47404865 12.50346218 -13 8 C-9.72246063 2.01001426 -6.98847813 -0.69884781 0 0 Z " fill="#F7F7F7" transform="translate(500,505)"/>
<path d="M0 0 C4.40587883 5.4548976 6.06857771 9.53815676 6.1875 16.5625 C6.30659081 21.11943133 6.30659081 21.11943133 8.66015625 24.77734375 C10.72705287 25.98657486 12.83296171 26.98484822 15 28 C16.70993434 29.6222454 18.37347684 31.29413425 20 33 C25.54854105 38.54854105 31.33682248 42.61321365 38.21459961 46.2980957 C44.25272363 49.54887378 44.25272363 49.54887378 46 52 C46.36328125 54.15625 46.36328125 54.15625 46.3125 56.5 C46.30863281 57.2734375 46.30476563 58.046875 46.30078125 58.84375 C46 61 46 61 44 64 C43.34 64 42.68 64 42 64 C40.75696384 60.40900664 41.31883985 57.68331043 42 54 C41.01 53.50371094 40.02 53.00742187 39 52.49609375 C28.69886779 47.23594113 21.25119953 41.79865971 13.87109375 32.81640625 C11.75124566 30.75851614 9.83852406 29.93991995 7.125 28.8125 C4.8203125 27.67578125 4.8203125 27.67578125 3 26 C1.9071669 21.64556706 2 17.46426947 2 13 C1.71181695 11.324936 1.39479105 9.6531875 1 8 C-0.32 8 -1.64 8 -3 8 C-3.4021875 8.86625 -3.4021875 8.86625 -3.8125 9.75 C-5.02929189 12.05550043 -6.30333879 14.02056192 -8 16 C-8.66 16 -9.32 16 -10 16 C-10.3125 13.3125 -10.3125 13.3125 -10 10 C-7.8125 7.4375 -7.8125 7.4375 -5 5 C-4.071875 4.071875 -3.14375 3.14375 -2.1875 2.1875 C-1.1046875 1.1046875 -1.1046875 1.1046875 0 0 Z " fill="#CBCBCC" transform="translate(261,518)"/>
<path d="M0 0 C2.50160818 1.87620613 3.61945652 3.23891303 5 6 C5.53118252 10.91996928 5.75105553 14.77327597 3.125 19.0625 C-0.18399186 22.07952199 -2.53963837 22.33369203 -7.02734375 22.29296875 C-9 22 -9 22 -11.4375 20.125 C-14.88277685 15.43942348 -14.6927424 10.65603795 -14 5 C-10.61571831 -0.56768923 -6.07776329 -1.26099388 0 0 Z " fill="#FBFBFB" transform="translate(761,506)"/>
<path d="M0 0 C3.3125 0.5625 3.3125 0.5625 6.3125 2.5625 C6.3125 1.9025 6.3125 1.2425 6.3125 0.5625 C7.3025 0.5625 8.2925 0.5625 9.3125 0.5625 C8.03663804 20.40551106 8.03663804 20.40551106 3.6875 24.625 C-0.686358 27.13591848 -2.719412 27.21405253 -7.6875 26.5625 C-9.6875 25.25 -9.6875 25.25 -10.6875 23.5625 C-10.6875 22.5725 -10.6875 21.5825 -10.6875 20.5625 C-5.8125 21.4375 -5.8125 21.4375 -4.6875 22.5625 C-3.02132885 22.60313832 -1.35361905 22.605221 0.3125 22.5625 C0.9725 20.9125 1.6325 19.2625 2.3125 17.5625 C1.6525 17.8925 0.9925 18.2225 0.3125 18.5625 C-2.5625 18.9375 -2.5625 18.9375 -5.6875 18.5625 C-8.48037497 16.06361187 -9.51720014 14.34587934 -10.3125 10.6875 C-9.13799249 4.81496246 -5.9910315 0.91388616 0 0 Z " fill="#757575" transform="translate(550.6875,573.4375)"/>
<path d="M0 0 C9.57 0 19.14 0 29 0 C29 23.76 29 47.52 29 72 C26.36 72 23.72 72 21 72 C21 71.67 21 71.34 21 71 C22.98 71 24.96 71 27 71 C27 48.23 27 25.46 27 2 C18.75 2 10.5 2 2 2 C2 25.1 2 48.2 2 72 C1.34 72 0.68 72 0 72 C0 48.24 0 24.48 0 0 Z " fill="#636363" transform="translate(422,481)"/>
<path d="M0 0 C1.73600464 0.0314209 1.73600464 0.0314209 3.50708008 0.06347656 C5.3875 0.0828125 5.3875 0.0828125 7.3059082 0.10253906 C8.61624023 0.13605469 9.92657227 0.16957031 11.27661133 0.20410156 C12.61187143 0.22416849 13.94716016 0.24241894 15.2824707 0.25878906 C18.55207279 0.30600353 21.82023325 0.37184972 25.08911133 0.45410156 C21.85135987 4.43770447 18.85766526 8.01092728 14.46411133 10.76660156 C13.7293457 11.23710938 12.99458008 11.70761719 12.23754883 12.19238281 C8.51327212 14.37954895 5.91772034 15.74431167 1.52661133 15.76660156 C0.37999023 15.79173828 0.37999023 15.79173828 -0.78979492 15.81738281 C-3.46917189 15.35848399 -4.33012017 14.64438268 -5.91088867 12.45410156 C-6.55755341 5.66412185 -6.55755341 5.66412185 -4.78710938 2.35131836 C-2.91088867 0.45410156 -2.91088867 0.45410156 0 0 Z " fill="#606060" transform="translate(267.910888671875,590.5458984375)"/>
<path d="M0 0 C1.32 0.66 2.64 1.32 4 2 C4.02886338 6.47915328 4.04675187 10.95828291 4.0625 15.4375 C4.07087891 16.71689453 4.07925781 17.99628906 4.08789062 19.31445312 C4.09111328 20.52939453 4.09433594 21.74433594 4.09765625 22.99609375 C4.10289307 24.12200928 4.10812988 25.2479248 4.11352539 26.40795898 C4 29 4 29 3 30 C-0.81046074 30.65322184 -1.96457938 30.02500279 -5.1875 27.75 C-8.75546337 24.2613247 -9.92216851 22.90687158 -10.125 17.9375 C-9.28705739 12.98504431 -5.82681405 9.30714082 -2.8125 5.453125 C-0.84755757 3.0583656 -0.84755757 3.0583656 0 0 Z " fill="#6C6C6C" transform="translate(209,505)"/>
<path d="M0 0 C15.89788676 7.40074039 23.37124769 20.3979206 30 36 C30.495 31.05 30.495 31.05 31 26 C31.66 27.32 32.32 28.64 33 30 C33.66 29.34 34.32 28.68 35 28 C34.22095672 41.6332574 34.22095672 41.6332574 32 48 C31.34 48 30.68 48 30 48 C29.7071814 47.19332886 29.7071814 47.19332886 29.40844727 46.37036133 C23.77905155 31.07191944 18.20906392 17.23757111 4 8 C4 9.65 4 11.3 4 13 C2.02 13.99 2.02 13.99 0 15 C-0.99 14.01 -1.98 13.02 -3 12 C-2.67 11.01 -2.34 10.02 -2 9 C-1.01 9 -0.02 9 1 9 C0.67 6.03 0.34 3.06 0 0 Z " fill="#D1D1D2" transform="translate(257,506)"/>
<path d="M0 0 C1.18851563 0.00902344 2.37703125 0.01804687 3.6015625 0.02734375 C4.51679687 0.03894531 5.43203125 0.05054688 6.375 0.0625 C5.89179152 6.2679142 5.04181876 12.06195246 3.375 18.0625 C2.385 18.0625 1.395 18.0625 0.375 18.0625 C0.375 17.4025 0.375 16.7425 0.375 16.0625 C-0.16125 16.3925 -0.6975 16.7225 -1.25 17.0625 C-4.28196965 18.3391188 -6.36503936 18.47866519 -9.625 18.0625 C-11.5 16.5625 -11.5 16.5625 -12.625 14.0625 C-13.15698011 9.274679 -13.35009014 7.19847455 -10.75 3.125 C-7.18169152 -0.33835823 -4.8813235 -0.04785611 0 0 Z " fill="#777777" transform="translate(665.625,573.9375)"/>
<path d="M0 0 C1.18851562 0.00902344 2.37703125 0.01804687 3.6015625 0.02734375 C4.51679688 0.03894531 5.43203125 0.05054688 6.375 0.0625 C6.06512383 2.31286286 5.75200182 4.56277894 5.4375 6.8125 C5.17646484 8.69195313 5.17646484 8.69195313 4.91015625 10.609375 C4.51450662 13.16232593 4.07053578 15.5811291 3.375 18.0625 C2.59125 17.876875 1.8075 17.69125 1 17.5 C-1.59589775 16.80287734 -1.59589775 16.80287734 -3.625 18.0625 C-8.92077465 18.62588028 -8.92077465 18.62588028 -11.5 16.5625 C-13.08052192 13.05022907 -13.31593766 9.80693637 -12.625 6.0625 C-8.96216477 0.32405814 -6.57441573 -0.06445506 0 0 Z " fill="#777777" transform="translate(476.625,573.9375)"/>
<path d="M0 0 C0.99 0.66 1.98 1.32 3 2 C3 1.34 3 0.68 3 0 C3.99 0 4.98 0 6 0 C5.69112547 2.43800966 5.37805338 4.87535367 5.0625 7.3125 C4.97548828 8.00279297 4.88847656 8.69308594 4.79882812 9.40429688 C4.40789865 12.40142288 3.9584996 15.12450119 3 18 C2.319375 17.814375 1.63875 17.62875 0.9375 17.4375 C-2.11209191 16.81712751 -2.11209191 16.81712751 -5.5625 17.6875 C-9 18 -9 18 -11.4375 16.5625 C-13.57047648 13.06441857 -13.79724989 9.93935238 -13 6 C-9.3126018 0.22307615 -6.70865382 -0.35308704 0 0 Z " fill="#747474" transform="translate(745,574)"/>
<path d="M0 0 C1.33333333 0.33333333 2.66666667 0.66666667 4 1 C4.33 0.67 4.66 0.34 5 0 C8.66344611 -0.13568319 11.50615721 -0.16461426 15 1 C15.66 0.67 16.32 0.34 17 0 C20.5 -0.1875 20.5 -0.1875 24 0 C26 2 26 2 26.265625 4.42578125 C26.26046875 5.37839844 26.2553125 6.33101562 26.25 7.3125 C26.25515625 8.25738281 26.2603125 9.20226562 26.265625 10.17578125 C25.98814045 13.12609489 25.23053508 15.31919144 24 18 C23.01 18 22.02 18 21 18 C21 13.38 21 8.76 21 4 C16.36980013 4.4452998 16.36980013 4.4452998 15 6 C14.60430892 8.01311449 14.25747809 10.03597208 13.9375 12.0625 C13.67259766 13.71958984 13.67259766 13.71958984 13.40234375 15.41015625 C13.26957031 16.26480469 13.13679687 17.11945312 13 18 C11.68 18 10.36 18 9 18 C9 13.38 9 8.76 9 4 C7.35 4 5.7 4 4 4 C2.56976822 8.67209049 1.59619955 13.13103697 1 18 C-0.32 18 -1.64 18 -3 18 C-2.69272975 15.18683642 -2.37944848 12.37457481 -2.0625 9.5625 C-1.97548828 8.76005859 -1.88847656 7.95761719 -1.79882812 7.13085938 C-1.11328125 1.11328125 -1.11328125 1.11328125 0 0 Z " fill="#767676" transform="translate(624,574)"/>
<path d="M0 0 C2.43816585 -0.0809723 4.87364384 -0.14046972 7.3125 -0.1875 C8.34793945 -0.22520508 8.34793945 -0.22520508 9.40429688 -0.26367188 C14.47699139 -0.33718919 14.47699139 -0.33718919 16.95703125 1.26171875 C18.20022158 3.33370263 18.40236315 4.59204293 18.375 7 C18.38273437 7.680625 18.39046875 8.36125 18.3984375 9.0625 C18 11 18 11 16.95703125 12.73828125 C13.92113939 14.69555285 10.79598107 14.31434945 7.3125 14.1875 C6.2596582 14.16719727 6.2596582 14.16719727 5.18554688 14.14648438 C3.45670171 14.11120182 1.72825235 14.05739583 0 14 C0 9.38 0 4.76 0 0 Z " fill="#FCFCFC" transform="translate(367,487)"/>
<path d="M0 0 C1.65 0.33 3.3 0.66 5 1 C5.50866669 3.35258344 6.0070625 5.70661404 6.5 8.0625 C6.71462891 9.04766602 6.71462891 9.04766602 6.93359375 10.05273438 C7.83952455 14.43139988 8.14031146 18.50418704 8 23 C7.01 23 6.02 23 5 23 C4.67 21.35 4.34 19.7 4 18 C2.54052295 18.06006078 1.08220728 18.1488689 -0.375 18.25 C-1.18710937 18.29640625 -1.99921875 18.3428125 -2.8359375 18.390625 C-5.18838927 18.7922092 -5.18838927 18.7922092 -6.2890625 21.046875 C-6.52367187 21.69140625 -6.75828125 22.3359375 -7 23 C-8.32 23 -9.64 23 -11 23 C-9.44347945 17.6462535 -7.0182491 12.99849053 -4.375 8.125 C-3.95476563 7.34125 -3.53453125 6.5575 -3.1015625 5.75 C-2.0718978 3.83107943 -1.03652433 1.91522397 0 0 Z " fill="#727272" transform="translate(581,569)"/>
<path d="M0 0 C2.57269392 0.62149347 3.53131627 1.37549738 5.0859375 3.50390625 C5.2734375 7.19140625 5.2734375 7.19140625 5.0859375 10.50390625 C0.7959375 10.50390625 -3.4940625 10.50390625 -7.9140625 10.50390625 C-7.2540625 11.82390625 -6.5940625 13.14390625 -5.9140625 14.50390625 C-2.88986725 13.91586828 0.10352203 13.27712507 3.0859375 12.50390625 C2.8359375 14.37890625 2.8359375 14.37890625 2.0859375 16.50390625 C-1.08188038 18.85043802 -4.07188135 18.83090039 -7.9140625 18.50390625 C-10.9140625 16.50390625 -10.9140625 16.50390625 -11.9140625 13.50390625 C-12.41432601 9.0849119 -12.18186919 6.97904715 -9.9765625 3.06640625 C-6.33417979 0.01869827 -4.57990268 -0.117233 0 0 Z " fill="#707070" transform="translate(724.9140625,573.49609375)"/>
<path d="M0 0 C1.32 0 2.64 0 4 0 C3.67 3.3 3.34 6.6 3 10 C7.455 9.505 7.455 9.505 12 9 C12.66 6.03 13.32 3.06 14 0 C15.32 0 16.64 0 18 0 C17.3622098 7.52592433 15.80110167 14.67098882 14 22 C13.01 22 12.02 22 11 22 C11 19.03 11 16.06 11 13 C8.03 13 5.06 13 2 13 C1.67 15.97 1.34 18.94 1 22 C-0.32 22.33 -1.64 22.66 -3 23 C-2.41993763 15.24548194 -1.37559416 7.65257723 0 0 Z " fill="#777777" transform="translate(694,569)"/>
<path d="M0 0 C1.32 0 2.64 0 4 0 C4 1.98 4 3.96 4 6 C5.918125 5.938125 5.918125 5.938125 7.875 5.875 C10.0546875 5.8046875 10.0546875 5.8046875 12 6 C14 8 14 8 14.23046875 9.91796875 C14.13989209 14.70206339 13.80325651 19.28086801 13 24 C11.68 24 10.36 24 9 24 C9 19.38 9 14.76 9 10 C7.35 10 5.7 10 4 10 C1.95698846 14.52381127 0.99043705 19.16371695 0 24 C-1.32 24 -2.64 24 -4 24 C-2.68 16.08 -1.36 8.16 0 0 Z " fill="#767676" transform="translate(776,568)"/>
<path d="M0 0 C2.4375 1.3125 2.4375 1.3125 4 3 C4 3.99 4 4.98 4 6 C2.68 6 1.36 6 0 6 C-0.33 5.34 -0.66 4.68 -1 4 C-2.65 4.33 -4.3 4.66 -6 5 C-6.33 5.99 -6.66 6.98 -7 8 C-6.278125 8.2475 -5.55625 8.495 -4.8125 8.75 C-1.65477374 10.15343389 0.5530258 11.5530258 3 14 C3.625 16.5 3.625 16.5 3 19 C0.19836311 22.14122924 -1.42701728 22.93084691 -5.625 23.4375 C-9 23 -9 23 -10.9375 21.75 C-12 20 -12 20 -12 16 C-8.125 16.875 -8.125 16.875 -7 18 C-5.33382885 18.04063832 -3.66611905 18.042721 -2 18 C-2 17.01 -2 16.02 -2 15 C-3.73439821 13.56506893 -3.73439821 13.56506893 -5.9375 12.375 C-9.97468354 10.02531646 -9.97468354 10.02531646 -11 9 C-11.43372673 5.79042223 -11.27027568 4.40000801 -9.4375 1.6875 C-6.09319128 -0.62779065 -3.9885942 -0.49857427 0 0 Z " fill="#727373" transform="translate(410,569)"/>
<path d="M0 0 C1.93681161 -0.08107583 3.8745934 -0.13922475 5.8125 -0.1875 C6.89144531 -0.22230469 7.97039063 -0.25710938 9.08203125 -0.29296875 C12 0 12 0 13.8671875 1.27734375 C15.8294705 4.2613672 15.3797151 7.58878897 15 11 C14.46989347 13.41039892 13.78240187 15.65279438 13 18 C11.68 18 10.36 18 9 18 C9.33 13.38 9.66 8.76 10 4 C8.35 4 6.7 4 5 4 C2.59009896 10.88824069 2.59009896 10.88824069 1 18 C-0.32 18 -1.64 18 -3 18 C-2.69112547 15.56199034 -2.37805338 13.12464633 -2.0625 10.6875 C-1.97548828 9.99720703 -1.88847656 9.30691406 -1.79882812 8.59570312 C-1.40789865 5.59857712 -0.9584996 2.87549881 0 0 Z " fill="#767676" transform="translate(524,574)"/>
<path d="M0 0 C1.32 0 2.64 0 4 0 C3.67 4.62 3.34 9.24 3 14 C4.98 13.67 6.96 13.34 9 13 C9.99 8.71 10.98 4.42 12 0 C13.32 0 14.64 0 16 0 C15.34 5.61 14.68 11.22 14 17 C8.9735954 18.25660115 5.07536521 17.93988245 0 17 C-2.37905675 12.2418865 -1.33431286 5.00367323 0 0 Z " fill="#777777" transform="translate(418,574)"/>
<path d="M0 0 C2.12438339 -0.08078641 4.2496323 -0.13909141 6.375 -0.1875 C7.55835938 -0.22230469 8.74171875 -0.25710938 9.9609375 -0.29296875 C11.46527344 -0.14794922 11.46527344 -0.14794922 13 0 C15.49153377 3.73730065 15.41025455 6.67654816 15 11 C14.47406064 13.4120667 13.78264271 15.65207188 13 18 C12.01 18 11.02 18 10 18 C10 13.38 10 8.76 10 4 C8.35 4 6.7 4 5 4 C3.30566082 7.0469629 2.50532888 9.82821466 1.875 13.25 C1.70742188 14.14203125 1.53984375 15.0340625 1.3671875 15.953125 C1.24601563 16.62859375 1.12484375 17.3040625 1 18 C0.01 18 -0.98 18 -2 18 C-1.85805236 15.93722893 -1.71127784 13.87478969 -1.5625 11.8125 C-1.48128906 10.66394531 -1.40007813 9.51539063 -1.31640625 8.33203125 C-1.04596188 5.48401829 -0.62478253 2.78789518 0 0 Z " fill="#777777" transform="translate(595,574)"/>
<path d="M0 0 C1.08152344 -0.01417969 2.16304688 -0.02835938 3.27734375 -0.04296875 C6.0625 0.1875 6.0625 0.1875 8.0625 2.1875 C8.29296875 4.61328125 8.29296875 4.61328125 8.25 7.5 C8.24355469 8.44488281 8.23710937 9.38976562 8.23046875 10.36328125 C8.06997977 13.06173557 7.66183915 15.55520247 7.0625 18.1875 C5.7425 18.1875 4.4225 18.1875 3.0625 18.1875 C3.3925 13.8975 3.7225 9.6075 4.0625 5.1875 C2.4125 4.8575 0.7625 4.5275 -0.9375 4.1875 C-3.46230693 6.71230693 -3.49488633 8.32573034 -4.0625 11.8125 C-4.23007812 12.81539062 -4.39765625 13.81828125 -4.5703125 14.8515625 C-4.69148438 15.62242187 -4.81265625 16.39328125 -4.9375 17.1875 C-6.2575 17.5175 -7.5775 17.8475 -8.9375 18.1875 C-7.22161555 0.04293469 -7.22161555 0.04293469 0 0 Z " fill="#747474" transform="translate(501.9375,573.8125)"/>
<path d="M0 0 C1.19109375 0.00773438 1.19109375 0.00773438 2.40625 0.015625 C3.2003125 0.01046875 3.994375 0.0053125 4.8125 0 C6.90625 0.265625 6.90625 0.265625 8.90625 2.265625 C8.90625 3.585625 8.90625 4.905625 8.90625 6.265625 C7.91625 6.265625 6.92625 6.265625 5.90625 6.265625 C5.24625 5.275625 4.58625 4.285625 3.90625 3.265625 C2.91625 3.265625 1.92625 3.265625 0.90625 3.265625 C0.90625 4.255625 0.90625 5.245625 0.90625 6.265625 C1.875625 6.74 2.845 7.214375 3.84375 7.703125 C6.90625 9.265625 6.90625 9.265625 7.90625 10.265625 C8.19417759 13.00093709 8.25068368 14.67806166 6.84375 17.078125 C3.81249457 18.93599123 1.37202141 18.63695765 -2.09375 18.265625 C-4.03125 16.953125 -4.03125 16.953125 -5.09375 15.265625 C-5.09375 14.275625 -5.09375 13.285625 -5.09375 12.265625 C-3.77375 12.265625 -2.45375 12.265625 -1.09375 12.265625 C-0.76375 12.925625 -0.43375 13.585625 -0.09375 14.265625 C1.93088255 14.91775792 1.93088255 14.91775792 3.90625 15.265625 C3.90625 13.945625 3.90625 12.625625 3.90625 11.265625 C3.143125 11.141875 2.38 11.018125 1.59375 10.890625 C-1.09375 10.265625 -1.09375 10.265625 -4.09375 8.265625 C-4.40625 5.265625 -4.40625 5.265625 -4.09375 2.265625 C-2.09375 0.265625 -2.09375 0.265625 0 0 Z " fill="#7A7A7A" transform="translate(441.09375,573.734375)"/>
<path d="M0 0 C0.99 0 1.98 0 3 0 C3 1.65 3 3.3 3 5 C3.99 5 4.98 5 6 5 C6 5.99 6 6.98 6 8 C4.68 8 3.36 8 2 8 C1.67 11.96 1.34 15.92 1 20 C1.99 20 2.98 20 4 20 C3.67 20.99 3.34 21.98 3 23 C1.33388095 23.042721 -0.33382885 23.04063832 -2 23 C-4.11925604 20.88074396 -3.41831017 16.3803907 -3.5625 13.4375 C-3.60568359 12.63119141 -3.64886719 11.82488281 -3.69335938 10.99414062 C-3.79975262 8.99631195 -3.90040888 6.9981793 -4 5 C-3.01 5 -2.02 5 -1 5 C-0.67 3.35 -0.34 1.7 0 0 Z " fill="#848484" transform="translate(457,569)"/>
<path d="M0 0 C0.99 0 1.98 0 3 0 C3 1.32 3 2.64 3 4 C3.99 4 4.98 4 6 4 C6 4.99 6 5.98 6 7 C4.68 7 3.36 7 2 7 C1.67 10.63 1.34 14.26 1 18 C2.32 18 3.64 18 5 18 C4.67 19.32 4.34 20.64 4 22 C1.625 22.125 1.625 22.125 -1 22 C-3 20 -3 20 -3.01171875 17.46875 C-2.90472656 16.4890625 -2.79773438 15.509375 -2.6875 14.5 C-2.58824219 13.5203125 -2.48898437 12.540625 -2.38671875 11.53125 C-2 9 -2 9 -1 7 C-1.66 7 -2.32 7 -3 7 C-3 6.01 -3 5.02 -3 4 C-2.01 4 -1.02 4 0 4 C0 2.68 0 1.36 0 0 Z " fill="#717271" transform="translate(765,570)"/>
<path d="M0 0 C0.33 1.32 0.66 2.64 1 4 C2.98 3.67 4.96 3.34 7 3 C6.00301745 4.72810308 5.0059026 6.45613011 4.0078125 8.18359375 C2.93368995 10.04940682 2.93368995 10.04940682 2 12.3125 C0.70748929 14.49361182 -0.68511037 15.07404415 -3 16 C-3 16.66 -3 17.32 -3 18 C-4.32 18.33 -5.64 18.66 -7 19 C-6.41249992 14.5470164 -5.26681981 10.81179158 -3.5 6.6875 C-3.0565625 5.63949219 -2.613125 4.59148438 -2.15625 3.51171875 C-1 1 -1 1 0 0 Z " fill="#C0C0C2" transform="translate(204,568)"/>
<path d="M0 0 C1.46015291 0.28241641 2.91809793 0.57626614 4.375 0.875 C5.18710937 1.03742187 5.99921875 1.19984375 6.8359375 1.3671875 C9 2 9 2 11 4 C10.46428571 7.53571429 10.46428571 7.53571429 9 9 C2.4 8.4 2.4 8.4 0 6 C0 5.01 0 4.02 0 3 C-9.24 3 -18.48 3 -28 3 C-28 2.67 -28 2.34 -28 2 C-18.76 2 -9.52 2 0 2 C0 1.34 0 0.68 0 0 Z " fill="#DFDFDF" transform="translate(828,525)"/>
<path d="M0 0 C2 2 2 2 2.1171875 3.875 C1.46478279 9.59932518 1.46478279 9.59932518 -0.8125 11.5625 C-3.27313799 12.0546276 -4.66597842 11.88531853 -7 11 C-8 10 -8 10 -8.25 6.625 C-8 3 -8 3 -6.8125 1.0625 C-4.37896796 -0.36405327 -2.77457104 -0.35571424 0 0 Z " fill="#F7F7F7" transform="translate(744,577)"/>
<path d="M0 0 C2.875 0.3125 2.875 0.3125 3.875 1.3125 C4.24864945 5.27318417 4.4454552 7.49756401 2.125 10.8125 C-0.125 12.3125 -0.125 12.3125 -2.25 12.1875 C-4.125 11.3125 -4.125 11.3125 -6.125 9.3125 C-6.51520396 6.34694993 -6.31300244 4.69894947 -5 2 C-3.125 0.3125 -3.125 0.3125 0 0 Z " fill="#F6F6F6" transform="translate(551.125,576.6875)"/>
<path d="M0 0 C2.4375 0.375 2.4375 0.375 4.4375 2.375 C4.25065164 5.80055325 4.02544945 8.43428088 2.1875 11.375 C0.4375 12.375 0.4375 12.375 -2.1875 12.125 C-4.5625 11.375 -4.5625 11.375 -5.5625 10.375 C-5.8542773 7.09250543 -5.86116591 4.97233181 -4.375 2 C-2.5625 0.375 -2.5625 0.375 0 0 Z " fill="#F8F8F8" transform="translate(662.5625,576.625)"/>
<path d="M0 0 C2.4375 0.375 2.4375 0.375 4.4375 2.375 C4.30078421 6.13468411 4.15994562 8.52354624 1.6875 11.4375 C-0.5625 12.375 -0.5625 12.375 -3.3125 11.5625 C-4.055 11.170625 -4.7975 10.77875 -5.5625 10.375 C-5.78429212 7.12204886 -5.84851103 4.94702207 -4.375 2 C-2.5625 0.375 -2.5625 0.375 0 0 Z " fill="#F7F7F7" transform="translate(473.5625,576.625)"/>
<path d="M0 0 C6.625 -0.25 6.625 -0.25 10 2 C10 1.34 10 0.68 10 0 C10.99 0 11.98 0 13 0 C12.85786703 1.89611434 12.71113093 3.79188394 12.5625 5.6875 C12.48128906 6.74324219 12.40007813 7.79898438 12.31640625 8.88671875 C12.03548319 11.65086297 11.59843148 14.28945741 11 17 C10.01 17 9.02 17 8 17 C7.14256349 12.60563789 6.91051442 8.47427924 7 4 C2.38492226 2.95785309 2.38492226 2.95785309 -2 4 C-1.34 2.68 -0.68 1.36 0 0 Z " fill="#727272" transform="translate(547,574)"/>
<path d="M0 0 C0.66 1.32 1.32 2.64 2 4 C2.66 3.34 3.32 2.68 4 2 C3.22095672 15.6332574 3.22095672 15.6332574 1 22 C0.34 22 -0.32 22 -1 22 C-5.59225513 10.47835991 -5.59225513 10.47835991 -5 5 C-3.29159719 6.63412443 -2.06546953 7.86906094 -1 10 C-0.67 6.7 -0.34 3.4 0 0 Z " fill="#DAD9DB" transform="translate(288,532)"/>
<path d="M0 0 C2.08901197 3.39464446 2.34361606 6.04841529 2 10 C0 12 0 12 -3 12.375 C-6.12114709 12.65930328 -6.12114709 12.65930328 -7.375 15.0625 C-7.58125 15.701875 -7.7875 16.34125 -8 17 C-9.32 17 -10.64 17 -12 17 C-10.8905928 13.51329166 -9.73662334 10.22515763 -8 7 C-6.68 7 -5.36 7 -4 7 C-2.68 4.69 -1.36 2.38 0 0 Z " fill="#757575" transform="translate(582,575)"/>
<path d="M0 0 C0.99 0 1.98 0 3 0 C2.52087184 8.24430867 1.02214499 16.00044527 -1 24 C-1.99 24 -2.98 24 -4 24 C-2.57943925 2.57943925 -2.57943925 2.57943925 0 0 Z " fill="#757575" transform="translate(757,568)"/>
<path d="M0 0 C0.99 0 1.98 0 3 0 C2.52087184 8.24430867 1.02214499 16.00044527 -1 24 C-1.99 24 -2.98 24 -4 24 C-3.52087184 15.75569133 -2.02214499 7.99955473 0 0 Z " fill="#747373" transform="translate(678,568)"/>
<path d="M0 0 C1.32 0 2.64 0 4 0 C3.3622098 7.52592433 1.80110167 14.67098882 0 22 C-0.99 22 -1.98 22 -3 22 C-2.67 18.7 -2.34 15.4 -2 12 C-2.66 12 -3.32 12 -4 12 C-4 11.34 -4 10.68 -4 10 C-3.34 9.67 -2.68 9.34 -2 9 C-1.31270746 6.88153715 -1.31270746 6.88153715 -0.875 4.4375 C-0.70742188 3.61121094 -0.53984375 2.78492188 -0.3671875 1.93359375 C-0.24601563 1.29550781 -0.12484375 0.65742187 0 0 Z " fill="#6D6D6D" transform="translate(708,569)"/>
<path d="M0 0 C3.4375 0.1875 3.4375 0.1875 7 1 C8.125 3 8.125 3 9 5 C11.55519921 5.81171228 11.55519921 5.81171228 14 6 C14 6.99 14 7.98 14 9 C8.04492601 8.6083965 3.37180176 7.62875405 -2 5 C-1.125 1.125 -1.125 1.125 0 0 Z " fill="#E9E9E9" transform="translate(831,500)"/>
<path d="M0 0 C2.64 1.32 5.28 2.64 8 4 C7.67 5.32 7.34 6.64 7 8 C6.01 8 5.02 8 4 8 C4 9.65 4 11.3 4 13 C2.02 13.99 2.02 13.99 0 15 C-0.99 14.01 -1.98 13.02 -3 12 C-2.67 11.01 -2.34 10.02 -2 9 C-1.01 9 -0.02 9 1 9 C0.67 6.03 0.34 3.06 0 0 Z " fill="#D6D6D7" transform="translate(257,506)"/>
<path d="M0 0 C1.32 0 2.64 0 4 0 C3.34 5.61 2.68 11.22 2 17 C0.68 17.33 -0.64 17.66 -2 18 C-3.12859476 14.61421572 -2.80828638 13.39881911 -2 10 C-1.82339844 9.11699219 -1.64679688 8.23398437 -1.46484375 7.32421875 C-0.9765625 4.8828125 -0.48828125 2.44140625 0 0 Z " fill="#7E7D7D" transform="translate(430,574)"/>
<path d="M0 0 C1.9375 0.75 1.9375 0.75 4 2 C4.75 4.125 4.75 4.125 5 6 C3.5625 7.5625 3.5625 7.5625 1 9 C-2.05380927 8.96846324 -4.99653222 8.53266629 -8 8 C-6.84826645 5.53199953 -5.95216435 3.95216435 -4 2 C-2.68 2 -1.36 2 0 2 C0 1.34 0 0.68 0 0 Z " fill="#808080" transform="translate(725,574)"/>
<path d="M0 0 C-0.33 2.97 -0.66 5.94 -1 9 C-4.96 9 -8.92 9 -13 9 C-13 8.34 -13 7.68 -13 7 C-10.6640625 5.2734375 -10.6640625 5.2734375 -7.625 3.375 C-6.62726563 2.74335938 -5.62953125 2.11171875 -4.6015625 1.4609375 C-2 0 -2 0 0 0 Z " fill="#949595" transform="translate(211,479)"/>
<path d="M0 0 C1.32 0 2.64 0 4 0 C3.57045059 6.25107435 2.98598493 12.04204521 1 18 C0.01 18 -0.98 18 -2 18 C-1.48758893 11.97099313 -0.930215 5.97995357 0 0 Z " fill="#7F7F7F" transform="translate(487,574)"/>
<path d="M0 0 C1.32 0 2.64 0 4 0 C4.25706972 5.91260345 3.2982126 11.23918159 2 17 C0.68 17.33 -0.64 17.66 -2 18 C-1.48758893 11.97099313 -0.930215 5.97995357 0 0 Z " fill="#7A7979" transform="translate(615,574)"/>
<path d="M0 0 C0.33 0 0.66 0 1 0 C1.3125 2.25 1.3125 2.25 1 5 C-1.80163689 8.14122924 -3.42701728 8.93084691 -7.625 9.4375 C-11 9 -11 9 -12.9375 7.75 C-14 6 -14 6 -14 2 C-10.125 2.875 -10.125 2.875 -9 4 C-5.79950343 4.17299981 -3.07045451 3.9097643 0 3 C0 2.01 0 1.02 0 0 Z " fill="#818181" transform="translate(412,583)"/>
<path d="M0 0 C0.99 0 1.98 0 3 0 C2.85805236 2.06277107 2.71127784 4.12521031 2.5625 6.1875 C2.48128906 7.33605469 2.40007813 8.48460937 2.31640625 9.66796875 C2.04596188 12.51598171 1.62478253 15.21210482 1 18 C-0.32 18 -1.64 18 -3 18 C-2.51679152 11.7945858 -1.66681876 6.00054754 0 0 Z " fill="#717172" transform="translate(516,574)"/>
<path d="M0 0 C0.33 0.66 0.66 1.32 1 2 C0.01 3.485 0.01 3.485 -1 5 C-1.37569856 8.75698557 -1.1642235 9.75366476 1 13 C0.67 13.33 0.34 13.66 0 14 C1.32 14.66 2.64 15.32 4 16 C1.25 16.3125 1.25 16.3125 -2 16 C-4.89648251 13.40841039 -5.87307907 11.7773907 -6.5 7.9375 C-5.88967138 4.35181933 -4.80986461 3.23136307 -2 1 C-1.34 0.67 -0.68 0.34 0 0 Z " fill="#7D7D7D" transform="translate(547,576)"/>
<path d="M0 0 C2.64 0 5.28 0 8 0 C8 0.33 8 0.66 8 1 C5.69 1 3.38 1 1 1 C1.66 2.32 2.32 3.64 3 5 C6.02419525 4.41196203 9.01758453 3.77321882 12 3 C11.75 4.875 11.75 4.875 11 7 C7.83218212 9.34653177 4.84218115 9.32699414 1 9 C-2 7 -2 7 -2.6875 4.875 C-2.790625 4.25625 -2.89375 3.6375 -3 3 C-2.01 3 -1.02 3 0 3 C0 2.01 0 1.02 0 0 Z " fill="#787878" transform="translate(716,583)"/>
<path d="M0 0 C0.99 0 1.98 0 3 0 C3 1.65 3 3.3 3 5 C3.99 5 4.98 5 6 5 C6 5.99 6 6.98 6 8 C4.68 8 3.36 8 2 8 C1.67 8.99 1.34 9.98 1 11 C0.01 10.67 -0.98 10.34 -2 10 C-2.33 8.35 -2.66 6.7 -3 5 C-2.34 5 -1.68 5 -1 5 C-0.67 3.35 -0.34 1.7 0 0 Z " fill="#797979" transform="translate(457,569)"/>
<path d="M0 0 C0.33 0 0.66 0 1 0 C1.04898438 0.90363281 1.09796875 1.80726563 1.1484375 2.73828125 C1.22320312 3.91777344 1.29796875 5.09726562 1.375 6.3125 C1.44460937 7.48425781 1.51421875 8.65601563 1.5859375 9.86328125 C1.78613747 13.15699887 1.78613747 13.15699887 4 16 C4.22705078 18.91088867 4.22705078 18.91088867 4.1953125 22.41796875 C4.18886719 23.67158203 4.18242187 24.92519531 4.17578125 26.21679688 C4.15902344 27.52712891 4.14226562 28.83746094 4.125 30.1875 C4.11496639 31.52277987 4.1058412 32.85806689 4.09765625 34.19335938 C4.07405292 37.46242015 4.04112594 40.73112028 4 44 C3.67 44 3.34 44 3 44 C2.98018066 43.22285645 2.96036133 42.44571289 2.93994141 41.64501953 C2.84492991 38.13799309 2.73515441 34.63158206 2.625 31.125 C2.5940625 29.90167969 2.563125 28.67835938 2.53125 27.41796875 C2.49257812 26.25136719 2.45390625 25.08476563 2.4140625 23.8828125 C2.3826416 22.80402832 2.3512207 21.72524414 2.31884766 20.61376953 C2.25323678 17.84238346 2.25323678 17.84238346 0 16 C-0.14507695 13.25514407 -0.18652423 10.61519457 -0.125 7.875 C-0.11146484 6.74384766 -0.11146484 6.74384766 -0.09765625 5.58984375 C-0.0740687 3.72642746 -0.03819719 1.86317407 0 0 Z " fill="#929292" transform="translate(210,489)"/>
<path d="M0 0 C0.99 0.33 1.98 0.66 3 1 C1.43910974 2.41844009 -0.1237889 3.83467025 -1.6875 5.25 C-2.55761719 6.03890625 -3.42773438 6.8278125 -4.32421875 7.640625 C-6.0796215 9.18845458 -7.88063082 10.68633691 -9.7265625 12.125 C-12.20883198 14.17223256 -13.39364148 16.24624254 -15 19 C-15.66 19 -16.32 19 -17 19 C-15.52736527 14.05158143 -12.67984563 11.29220584 -9.0625 7.8125 C-8.52431641 7.27947266 -7.98613281 6.74644531 -7.43164062 6.19726562 C-5.05430856 3.8668353 -2.776948 1.85129867 0 0 Z " fill="#B2B3B4" transform="translate(223,547)"/>
<path d="M0 0 C0.99 0 1.98 0 3 0 C3 1.32 3 2.64 3 4 C3.99 4 4.98 4 6 4 C6 4.99 6 5.98 6 7 C4.68 7 3.36 7 2 7 C2 8.65 2 10.3 2 12 C-0.5 9.6875 -0.5 9.6875 -3 7 C-3 6.01 -3 5.02 -3 4 C-2.01 4 -1.02 4 0 4 C0 2.68 0 1.36 0 0 Z " fill="#6E6E6E" transform="translate(765,570)"/>
<path d="M0 0 C0.66 0 1.32 0 2 0 C2.19392201 5.52677733 1.7479503 9.75614911 0 15 C-1.32 15 -2.64 15 -4 15 C-3.67 12.36 -3.34 9.72 -3 7 C-2.34 7.33 -1.68 7.66 -1 8 C-1.020625 7.05125 -1.04125 6.1025 -1.0625 5.125 C-1 2 -1 2 0 0 Z " fill="#808080" transform="translate(537,577)"/>
<path d="M0 0 C0.33 1.32 0.66 2.64 1 4 C2.98 3.67 4.96 3.34 7 3 C5.9375 5.5 5.9375 5.5 4 8 C0.3125 8.3125 0.3125 8.3125 -3 8 C-2.45276317 4.62537285 -1.9451 2.91765 0 0 Z " fill="#C7C7C9" transform="translate(204,568)"/>
<path d="M0 0 C3.63 0 7.26 0 11 0 C11 0.66 11 1.32 11 2 C8.18230651 4.17364926 6.7809319 5.08677021 3.1875 4.6875 C2.465625 4.460625 1.74375 4.23375 1 4 C0.67 2.68 0.34 1.36 0 0 Z " fill="#F0EFEF" transform="translate(717,584)"/>
<path d="M0 0 C1.32 0.66 2.64 1.32 4 2 C3.67 5.3 3.34 8.6 3 12 C1.68 12 0.36 12 -1 12 C-0.67 8.04 -0.34 4.08 0 0 Z " fill="#7F7F7F" transform="translate(622,580)"/>
<path d="M0 0 C1.093125 0.226875 2.18625 0.45375 3.3125 0.6875 C3.1989371 2.33416203 3.07132619 3.97986082 2.9375 5.625 C2.86789062 6.54152344 2.79828125 7.45804688 2.7265625 8.40234375 C2.58992187 9.15644531 2.45328125 9.91054688 2.3125 10.6875 C1.3225 11.1825 1.3225 11.1825 0.3125 11.6875 C-0.0175 9.0475 -0.3475 6.4075 -0.6875 3.6875 C-3.6575 3.1925 -3.6575 3.1925 -6.6875 2.6875 C-4.58035839 -0.41123767 -3.86755884 -0.32775922 0 0 Z " fill="#6D6D6D" transform="translate(534.6875,574.3125)"/>
<path d="M0 0 C4.51013391 0.53060399 7.38378219 2.30886117 11 5 C11 5.33 11 5.66 11 6 C3.5577342 6.36601307 3.5577342 6.36601307 1 4.6875 C0 3 0 3 0 0 Z " fill="#7C7C7B" transform="translate(540,594)"/>
<path d="M0 0 C0.66 0 1.32 0 2 0 C2.23828125 2.2890625 2.23828125 2.2890625 2 5 C0.35546875 6.8359375 0.35546875 6.8359375 -1.8125 8.375 C-2.87404297 9.16003906 -2.87404297 9.16003906 -3.95703125 9.9609375 C-4.63121094 10.30382812 -5.30539063 10.64671875 -6 11 C-6.99 10.67 -7.98 10.34 -9 10 C-8.2575 9.46375 -7.515 8.9275 -6.75 8.375 C-3.82869713 5.85205661 -2.11140321 3.20350831 0 0 Z " fill="#D0D0D1" transform="translate(233,536)"/>
<path d="M0 0 C0.33 0 0.66 0 1 0 C1.33 1.65 1.66 3.3 2 5 C2.66 5 3.32 5 4 5 C3.67 7.31 3.34 9.62 3 12 C1.68 12.33 0.36 12.66 -1 13 C-0.67 8.71 -0.34 4.42 0 0 Z " fill="#8A8A89" transform="translate(646,579)"/>
<path d="M0 0 C1.18414294 3.55242882 0.69535532 4.69830562 -0.4375 8.1875 C-0.72496094 9.08855469 -1.01242188 9.98960937 -1.30859375 10.91796875 C-1.53675781 11.60503906 -1.76492187 12.29210937 -2 13 C-2.99 12.67 -3.98 12.34 -5 12 C-5 9.69 -5 7.38 -5 5 C-4.34 5 -3.68 5 -3 5 C-3 4.34 -3 3.68 -3 3 C-2.34 3 -1.68 3 -1 3 C-0.67 2.01 -0.34 1.02 0 0 Z " fill="#D2D2D4" transform="translate(204,581)"/>
<path d="M0 0 C-0.14148989 1.6045556 -0.28835686 3.20863767 -0.4375 4.8125 C-0.51871094 5.70582031 -0.59992188 6.59914063 -0.68359375 7.51953125 C-1 10 -1 10 -2 13 C-2.99 13 -3.98 13 -5 13 C-4.19444444 0 -4.19444444 0 0 0 Z " fill="#6F6F6F" transform="translate(482,578)"/>
<path d="M0 0 C1.32 0 2.64 0 4 0 C3.67 2.97 3.34 5.94 3 9 C1.68 9 0.36 9 -1 9 C-0.67 6.03 -0.34 3.06 0 0 Z " fill="#7D7C7C" transform="translate(708,569)"/>
<path d="M0 0 C0.66 0.33 1.32 0.66 2 1 C1.91308261 3.77236494 1.80622639 6.54147078 1.6875 9.3125 C1.66494141 10.09818359 1.64238281 10.88386719 1.61914062 11.69335938 C1.58369141 12.45068359 1.54824219 13.20800781 1.51171875 13.98828125 C1.48553467 14.68477783 1.45935059 15.38127441 1.43237305 16.09887695 C0.88776232 18.49350359 -0.15829162 19.43272547 -2 21 C-2.625 17.625 -2.625 17.625 -3 14 C-2.34 13.34 -1.68 12.68 -1 12 C-0.53603307 9.10776497 -0.53603307 9.10776497 -0.375 5.875 C-0.30023438 4.77929688 -0.22546875 3.68359375 -0.1484375 2.5546875 C-0.09945313 1.71164062 -0.05046875 0.86859375 0 0 Z " fill="#EDEDED" transform="translate(291,516)"/>
<path d="M0 0 C1.85776765 3.13498292 2.20140476 5.37471432 2 9 C0.02 9 -1.96 9 -4 9 C-2.94124926 5.59687262 -1.99097846 2.98646769 0 0 Z " fill="#F0EFEF" transform="translate(582,575)"/>
<path d="M0 0 C0.99 0 1.98 0 3 0 C3 0.66 3 1.32 3 2 C3.66 2.33 4.32 2.66 5 3 C2.375 7.875 2.375 7.875 -1 9 C-1.09765625 2.84765625 -1.09765625 2.84765625 -1 1 C-0.67 0.67 -0.34 0.34 0 0 Z " fill="#707071" transform="translate(624,574)"/>
<path d="M0 0 C2.97 1.98 2.97 1.98 6 4 C5.67 5.32 5.34 6.64 5 8 C2.11424181 7.60196439 1.17810487 7.20990931 -0.75 4.9375 C-1.1625 4.298125 -1.575 3.65875 -2 3 C-1.34 2.01 -0.68 1.02 0 0 Z " fill="#CCCCCC" transform="translate(265,511)"/>
<path d="M0 0 C2.56687367 3.8503105 1.83288724 5.58569763 1 10 C1.33 10 1.66 10 2 10 C2 11.65 2 13.3 2 15 C0.68 15 -0.64 15 -2 15 C-1.03644647 4.44191344 -1.03644647 4.44191344 0 0 Z " fill="#808080" transform="translate(515,577)"/>
<path d="M0 0 C2.29633824 3.44450737 2.54016485 5.93812283 3 10 C1.68 10.33 0.36 10.66 -1 11 C-0.67 7.37 -0.34 3.74 0 0 Z " fill="#7E7D7D" transform="translate(692,581)"/>
<path d="M0 0 C1.32 0 2.64 0 4 0 C3.67 2.64 3.34 5.28 3 8 C2.01 8.33 1.02 8.66 0 9 C0 6.03 0 3.06 0 0 Z " fill="#787878" transform="translate(487,574)"/>
<path d="M0 0 C1.9375 0.3125 1.9375 0.3125 4 1 C4.33 1.99 4.66 2.98 5 4 C5.99 4.33 6.98 4.66 8 5 C7 6 7 6 4.5625 6.1875 C2 6 2 6 0 4 C0 2.68 0 1.36 0 0 Z " fill="#757575" transform="translate(398,585)"/>
<path d="M0 0 C1.65 0 3.3 0 5 0 C5.33 1.32 5.66 2.64 6 4 C3.36 4 0.72 4 -2 4 C-1.34 2.68 -0.68 1.36 0 0 Z " fill="#FAFAFA" transform="translate(720,577)"/>
<path d="M0 0 C0.66 0 1.32 0 2 0 C2 2.64 2 5.28 2 8 C0.68 8 -0.64 8 -2 8 C-1.125 1.125 -1.125 1.125 0 0 Z " fill="#808080" transform="translate(507,584)"/>
<path d="M0 0 C0.99 0 1.98 0 3 0 C2.67 2.31 2.34 4.62 2 7 C1.01 7.33 0.02 7.66 -1 8 C-1.04241723 5.66705225 -1.04092937 3.33297433 -1 1 C-0.67 0.67 -0.34 0.34 0 0 Z " fill="#6F6F70" transform="translate(757,568)"/>
<path d="M0 0 C0.66 0.33 1.32 0.66 2 1 C1.42655063 3.86724686 1.1385485 4.8614515 -1 7 C-3.625 7.125 -3.625 7.125 -6 7 C-4.02 4.69 -2.04 2.38 0 0 Z " fill="#6B6B6B" transform="translate(554,592)"/>
<path d="M0 0 C1.98 0.99 1.98 0.99 4 2 C4 3.98 4 5.96 4 8 C2.68 8 1.36 8 0 8 C0 5.36 0 2.72 0 0 Z " fill="#8B8A8A" transform="translate(785,584)"/>
<path d="M0 0 C1.32 0 2.64 0 4 0 C3.125 5.75 3.125 5.75 2 8 C1.34 8 0.68 8 0 8 C0 5.36 0 2.72 0 0 Z " fill="#6E6E6E" transform="translate(776,568)"/>
<path d="M0 0 C0.99 0.66 1.98 1.32 3 2 C2.67 3.98 2.34 5.96 2 8 C1.67 7.34 1.34 6.68 1 6 C0.01 6.33 -0.98 6.66 -2 7 C-1.125 1.125 -1.125 1.125 0 0 Z " fill="#7E7E7E" transform="translate(655,577)"/>
<path d="M0 0 C2 3 2 3 1.625 5.6875 C1.41875 6.450625 1.2125 7.21375 1 8 C-0.32 8 -1.64 8 -3 8 C-1.125 2.25 -1.125 2.25 0 0 Z " fill="#7C7C7C" transform="translate(573,584)"/>
<path d="M0 0 C0.66 0.99 1.32 1.98 2 3 C1.34 4.32 0.68 5.64 0 7 C0.99 7.33 1.98 7.66 3 8 C0.03 7.505 0.03 7.505 -3 7 C-3.33 6.01 -3.66 5.02 -4 4 C-2.68 2.68 -1.36 1.36 0 0 Z " fill="#878687" transform="translate(477,584)"/>
<path d="M0 0 C1 3 1 3 0.375 5.625 C-0.305625 6.800625 -0.305625 6.800625 -1 8 C-2.65 8.33 -4.3 8.66 -6 9 C-4.02 6.03 -2.04 3.06 0 0 Z " fill="#696969" transform="translate(304,581)"/>
<path d="M0 0 C3.3 0 6.6 0 10 0 C10 0.33 10 0.66 10 1 C8.576875 1.12375 8.576875 1.12375 7.125 1.25 C3.89538209 1.65074923 3.89538209 1.65074923 2.625 4.0625 C2.41875 4.701875 2.2125 5.34125 2 6 C0 3 0 3 0 0 Z " fill="#8A8B8A" transform="translate(210,432)"/>
<path d="M0 0 C1.98 0.495 1.98 0.495 4 1 C3.67 2.32 3.34 3.64 3 5 C1.68 4.67 0.36 4.34 -1 4 C-0.67 2.68 -0.34 1.36 0 0 Z " fill="#868685" transform="translate(793,587)"/>
<path d="M0 0 C1.98 0.495 1.98 0.495 4 1 C4 1.99 4 2.98 4 4 C2.35 4.33 0.7 4.66 -1 5 C-0.67 3.35 -0.34 1.7 0 0 Z " fill="#828281" transform="translate(807,587)"/>
<path d="M0 0 C1.98 0.495 1.98 0.495 4 1 C3.67 2.32 3.34 3.64 3 5 C1.68 5 0.36 5 -1 5 C-0.67 3.35 -0.34 1.7 0 0 Z " fill="#8A8988" transform="translate(800,587)"/>
<path d="M0 0 C1.32 0.33 2.64 0.66 4 1 C3.67 2.65 3.34 4.3 3 6 C2.01 6 1.02 6 0 6 C0 4.02 0 2.04 0 0 Z " fill="#818080" transform="translate(613,586)"/>
<path d="M0 0 C1.98 0.495 1.98 0.495 4 1 C3.67 2.32 3.34 3.64 3 5 C1.68 4.67 0.36 4.34 -1 4 C-0.67 2.68 -0.34 1.36 0 0 Z " fill="#858585" transform="translate(489,567)"/>
<path d="M0 0 C0.33 0 0.66 0 1 0 C1 2.64 1 5.28 1 8 C-0.32 7.67 -1.64 7.34 -3 7 C-2.01 4.69 -1.02 2.38 0 0 Z " fill="#6D6D6D" transform="translate(669,580)"/>
<path d="M0 0 C0.99 0 1.98 0 3 0 C1.125 4.75 1.125 4.75 0 7 C-0.66 7 -1.32 7 -2 7 C-2.125 4.625 -2.125 4.625 -2 2 C-1.34 1.34 -0.68 0.68 0 0 Z " fill="#7A7A7A" transform="translate(401,571)"/>
<path d="M0 0 C1.32 0 2.64 0 4 0 C3.67 0.99 3.34 1.98 3 3 C0.4375 4.1875 0.4375 4.1875 -2 5 C-1.34 3.35 -0.68 1.7 0 0 Z " fill="#D3D3D5" transform="translate(288,596)"/>
<path d="M0 0 C1.98 0.99 1.98 0.99 4 2 C3.67 3.32 3.34 4.64 3 6 C2.01 6 1.02 6 0 6 C0 4.02 0 2.04 0 0 Z " fill="#7D7D7C" transform="translate(753,586)"/>
<path d="M0 0 C1.32 0 2.64 0 4 0 C3.67 1.65 3.34 3.3 3 5 C2.01 5 1.02 5 0 5 C0 3.35 0 1.7 0 0 Z " fill="#828282" transform="translate(493,587)"/>
<path d="M0 0 C0.99 0.99 1.98 1.98 3 3 C-0.75 6 -0.75 6 -3 6 C-1.125 1.125 -1.125 1.125 0 0 Z " fill="#7C7C7D" transform="translate(735,576)"/>
<path d="M0 0 C0.99 0.33 1.98 0.66 3 1 C3 2.98 3 4.96 3 7 C2.01 7 1.02 7 0 7 C-0.93423645 3.98968256 -1.04449911 3.13349732 0 0 Z " fill="#B9BABB" transform="translate(303,575)"/>
<path d="M0 0 C0.99 0.33 1.98 0.66 3 1 C2.01 2.32 1.02 3.64 0 5 C-0.99 4.67 -1.98 4.34 -3 4 C-2.67 3.01 -2.34 2.02 -2 1 C-1.34 0.67 -0.68 0.34 0 0 Z " fill="#727171" transform="translate(659,574)"/>
<path d="M0 0 C2.31 0 4.62 0 7 0 C5.515 2.475 5.515 2.475 4 5 C3.34 4.67 2.68 4.34 2 4 C2 3.34 2 2.68 2 2 C1.34 2 0.68 2 0 2 C0 1.34 0 0.68 0 0 Z " fill="#7F7F7F" transform="translate(524,574)"/>
<path d="M0 0 C1.98 0.99 1.98 0.99 4 2 C3.67 3.98 3.34 5.96 3 8 C0.37613513 4.93882432 0 4.26826873 0 0 Z " fill="#6F6F6F" transform="translate(261,514)"/>
<path d="M0 0 C1.32 0 2.64 0 4 0 C3.67 1.32 3.34 2.64 3 4 C1.35 4 -0.3 4 -2 4 C-1.34 3.67 -0.68 3.34 0 3 C0 2.01 0 1.02 0 0 Z " fill="#8C8B8A" transform="translate(766,588)"/>
<path d="M0 0 C-0.33 1.32 -0.66 2.64 -1 4 C-2.32 4 -3.64 4 -5 4 C-4.67 3.01 -4.34 2.02 -4 1 C-2 0 -2 0 0 0 Z " fill="#7C7B7B" transform="translate(728,586)"/>
<path d="M0 0 C0.66 0 1.32 0 2 0 C2 1.98 2 3.96 2 6 C1.01 6 0.02 6 -1 6 C-1.625 4.125 -1.625 4.125 -2 2 C-1.34 1.34 -0.68 0.68 0 0 Z " fill="#6B6B6B" transform="translate(556,585)"/>
<path d="M0 0 C0.99 0.33 1.98 0.66 3 1 C3 1.66 3 2.32 3 3 C2.01 3.33 1.02 3.66 0 4 C-1.20882096 6.00016466 -1.20882096 6.00016466 -2 8 C-2.125 5.125 -2.125 5.125 -2 2 C-1.34 1.34 -0.68 0.68 0 0 Z " fill="#838383" transform="translate(439,574)"/>
<path d="M0 0 C1.32 0.33 2.64 0.66 4 1 C3.67 2.32 3.34 3.64 3 5 C2.01 4.67 1.02 4.34 0 4 C0 2.68 0 1.36 0 0 Z " fill="#818181" transform="translate(517,567)"/>
</svg>
