<?xml version="1.0" encoding="UTF-8"?>
<svg version="1.1" xmlns="http://www.w3.org/2000/svg" width="254" height="253">
<path d="M0 0 C83.82 0 167.64 0 254 0 C254 83.49 254 166.98 254 253 C170.18 253 86.36 253 0 253 C0 169.51 0 86.02 0 0 Z " fill="#000000" transform="translate(0,0)"/>
<path d="M0 0 C3.46284252 2.21977085 4.82679079 3.47074964 6.125 7.4375 C6 11 6 11 4 13.8125 C0.55349695 16.32557514 -1.87278226 17.10981578 -6 18 C-5.113125 18.639375 -4.22625 19.27875 -3.3125 19.9375 C1.61254481 24.01058208 5.4943941 30.64847378 6.23828125 37.05078125 C6.41915946 42.56280683 5.78759517 45.70056765 2 50 C-1.64122319 53.12104845 -5.0462154 53.58971867 -9.70703125 53.41015625 C-13.62708961 52.70895331 -16.48386812 51.10037303 -19 48 C-19.77465239 44.44950989 -19.83154236 42.38388071 -17.9296875 39.21875 C-16.625 37.5625 -16.625 37.5625 -14 35 C-13.34 35 -12.68 35 -12 35 C-12.14107747 33.54119891 -12.28802415 32.08296449 -12.4375 30.625 C-12.51871094 29.81289062 -12.59992187 29.00078125 -12.68359375 28.1640625 C-12.89090114 25.95727195 -12.89090114 25.95727195 -14 24 C-14.33 26.97 -14.66 29.94 -15 33 C-16.32 32.67 -17.64 32.34 -19 32 C-18.33333333 28.66666667 -17.66666667 25.33333333 -17 22 C-17.66 21.67 -18.32 21.34 -19 21 C-18.01 20.67 -17.02 20.34 -16 20 C-16.495 19.5875 -16.99 19.175 -17.5 18.75 C-19 17 -19 17 -19 13 C-18.01 13 -17.02 13 -16 13 C-16 11.68 -16 10.36 -16 9 C-15.01 9 -14.02 9 -13 9 C-12.67 7.68 -12.34 6.36 -12 5 C-9.525 5.99 -9.525 5.99 -7 7 C-7.33 5.35 -7.66 3.7 -8 2 C-5.50638429 3.20381448 -3.31856917 4.45428722 -1 6 C-0.67 4.02 -0.34 2.04 0 0 Z " fill="#7B7B7B" transform="translate(73,99)"/>
<path d="M0 0 C2.31 0 4.62 0 7 0 C7 5.28 7 10.56 7 16 C9.31 16 11.62 16 14 16 C13.87625 14.4221875 13.87625 14.4221875 13.75 12.8125 C14.04534677 8.30846176 14.74052166 7.05053742 18 4 C22.74572738 3.32894126 27.18388274 3.77703161 32 4 C32 9.61 32 15.22 32 21 C27.38 21 22.76 21 18 21 C17.34 19.68 16.68 18.36 16 17 C15.34 17 14.68 17 14 17 C14 18.32 14 19.64 14 21 C9.38 21 4.76 21 0 21 C0 14.07 0 7.14 0 0 Z " fill="#D7D7D7" transform="translate(139,115)"/>
<path d="M0 0 C2.31 0 4.62 0 7 0 C7 7.26 7 14.52 7 22 C-3.546875 22.48828125 -3.546875 22.48828125 -7 22 C-9.42100558 19.73518833 -10.71536156 18.12390325 -11.53125 14.90234375 C-11.47810754 11.56101148 -11.18605685 9.30513323 -9.4375 6.4375 C-6.01492921 4.41906082 -3.77265569 5.12938715 0 6 C0 4.02 0 2.04 0 0 Z " fill="#E3E3E3" transform="translate(125,114)"/>
<path d="M0 0 C2.0625 -0.061875 4.125 -0.12375 6.25 -0.1875 C7.99023438 -0.23970703 7.99023438 -0.23970703 9.765625 -0.29296875 C13.25349554 0.02296155 14.62655781 0.45826973 17 3 C17.52238806 8.95522388 17.52238806 8.95522388 16 12 C15.34 12 14.68 12 14 12 C14.495 12.94875 14.99 13.8975 15.5 14.875 C17 18 17 18 17 20 C14.69 20 12.38 20 10 20 C9.34 18.68 8.68 17.36 8 16 C7.67 17.65 7.34 19.3 7 21 C4.69 21 2.38 21 0 21 C0 14.07 0 7.14 0 0 Z " fill="#E1E1E1" transform="translate(86,115)"/>
<path d="M0 0 C1.98 0 3.96 0 6 0 C6 1.98 6 3.96 6 6 C6.66 6 7.32 6 8 6 C8 5.34 8 4.68 8 4 C14.40703902 4.48355011 14.40703902 4.48355011 16.9375 6.6875 C18.34589562 9.75283164 18.47772045 11.65595685 18 15 C16.42578125 17.671875 16.42578125 17.671875 14 20 C9.25427262 20.67105874 4.81611726 20.22296839 0 20 C0 13.4 0 6.8 0 0 Z " fill="#F1F1F1" transform="translate(174,115)"/>
<path d="M0 0 C3.46284252 2.21977085 4.82679079 3.47074964 6.125 7.4375 C6 11 6 11 4.4375 13.875 C0.56317125 17.24302443 -4.85831996 16.71401596 -9.72265625 16.859375 C-12.86593236 16.88419196 -12.86593236 16.88419196 -15.30859375 17.578125 C-17 18 -17 18 -19 17 C-19 15.68 -19 14.36 -19 13 C-18.01 13 -17.02 13 -16 13 C-16 11.68 -16 10.36 -16 9 C-15.01 9 -14.02 9 -13 9 C-12.67 7.68 -12.34 6.36 -12 5 C-9.525 5.99 -9.525 5.99 -7 7 C-7.33 5.35 -7.66 3.7 -8 2 C-5.50638429 3.20381448 -3.31856917 4.45428722 -1 6 C-0.67 4.02 -0.34 2.04 0 0 Z " fill="#E6E6E6" transform="translate(73,99)"/>
<path d="M0 0 C1.9375 0.75 1.9375 0.75 4 2 C4.144375 2.61875 4.28875 3.2375 4.4375 3.875 C5.50877548 7.92204069 9.67538208 9.78358805 13 12 C13 12.66 13 13.32 13 14 C2.62642369 16.48063781 2.62642369 16.48063781 -3 15 C-2.67 16.32 -2.34 17.64 -2 19 C-3.98 18.67 -5.96 18.34 -8 18 C-9.25 14.8125 -9.25 14.8125 -10 11 C-7.96553389 7.53387255 -6.82852377 6.27617459 -3 5 C-1.30117552 2.50240018 -1.30117552 2.50240018 0 0 Z " fill="#F6F6F6" transform="translate(65,128)"/>
<path d="M0 0 C3.875 3.75 3.875 3.75 5 6 C5.99 4.68 6.98 3.36 8 2 C10.45314583 6.33716183 10.68811626 10.10672882 10 15 C7.80873223 19.38253554 5.58325461 22.16669816 1 24 C-3.86628499 24.82479407 -7.8059917 24.553569 -12.0625 21.9375 C-14.96502948 19.61012613 -14.98085833 19.166806 -15.4375 15.1875 C-15.293125 14.135625 -15.14875 13.08375 -15 12 C-14.01 12.495 -14.01 12.495 -13 13 C-12.375 15.0625 -12.375 15.0625 -12 17 C-10.35 17.33 -8.7 17.66 -7 18 C-7 17.01 -7 16.02 -7 15 C0.92 14.505 0.92 14.505 9 14 C6.16343011 10.96731398 6.16343011 10.96731398 3 9 C3 8.34 3 7.68 3 7 C2.01 6.67 1.02 6.34 0 6 C0 4.02 0 2.04 0 0 Z " fill="#7C7C7C" transform="translate(69,128)"/>
<path d="M0 0 C2.875 1.875 2.875 1.875 5 4 C5 4.66 5 5.32 5 6 C4.01 6.33 3.02 6.66 2 7 C2.99 7.66 3.98 8.32 5 9 C5.4375 11.4375 5.4375 11.4375 5 14 C2.63019586 16.7489728 1.12597587 16.98650259 -2.5 17.375 C-6.09887044 16.98940674 -7.56352232 16.63139589 -10 14 C-10 13.01 -10 12.02 -10 11 C-7.36 11 -4.72 11 -2 11 C-2.969375 10.690625 -3.93875 10.38125 -4.9375 10.0625 C-8 9 -8 9 -9 8 C-9.25 5.0625 -9.25 5.0625 -9 2 C-5.48746854 -0.34168764 -4.13530644 -0.49623677 0 0 Z " fill="#E5E5E5" transform="translate(203,119)"/>
<path d="M0 0 C0.66 0 1.32 0 2 0 C2 0.66 2 1.32 2 2 C4.97 2 7.94 2 11 2 C10.67 3.98 10.34 5.96 10 8 C7.61435923 7.42415568 5.33317216 6.77772405 3 6 C1.33378384 5.96125079 -0.33394172 5.9549714 -2 6 C-2.33 5.34 -2.66 4.68 -3 4 C-3.66 4.66 -4.32 5.32 -5 6 C-6.66666667 6 -8.33333333 6 -10 6 C-10.804375 6.165 -11.60875 6.33 -12.4375 6.5 C-16.97944286 7.13746566 -21.42222632 7.08142285 -26 7 C-26.33 5.35 -26.66 3.7 -27 2 C-23.98968256 1.06576355 -23.13349732 0.95550089 -20 2 C-15.83203363 2.26992544 -11.80479569 2.13666342 -7.6875 1.4375 C-5.03674815 1.00598226 -3.50843549 1.13169541 -1 2 C-0.67 1.34 -0.34 0.68 0 0 Z " fill="#6D6D6D" transform="translate(127,138)"/>
<path d="M0 0 C1.98 0 3.96 0 6 0 C6 5.28 6 10.56 6 16 C4.02 16 2.04 16 0 16 C0 10.72 0 5.44 0 0 Z " fill="#F0F0F0" transform="translate(106,119)"/>
<path d="M0 0 C1.423125 0.2784375 1.423125 0.2784375 2.875 0.5625 C6.95537588 1.17872003 10.70685604 0.66993007 14.765625 0.05859375 C17 0 17 0 20 2 C20 2.66 20 3.32 20 4 C21.32 4 22.64 4 24 4 C24 4.66 24 5.32 24 6 C18.85163471 6 14.10426344 5.74243832 9 5 C8.67 5 8.34 5 8 5 C5.33333333 5 2.66666667 5 0 5 C0 4.34 0 3.68 0 3 C-0.66 3 -1.32 3 -2 3 C-2.33 3.66 -2.66 4.32 -3 5 C-2.67 3.68 -2.34 2.36 -2 1 C-1.34 1.33 -0.68 1.66 0 2 C0 1.34 0 0.68 0 0 Z " fill="#585858" transform="translate(171,139)"/>
<path d="M0 0 C1.32 0 2.64 0 4 0 C4.33 4.95 4.66 9.9 5 15 C6.65 15.33 8.3 15.66 10 16 C10 16.66 10 17.32 10 18 C6.7 18 3.4 18 0 18 C0 12.06 0 6.12 0 0 Z " fill="#FEFEFE" transform="translate(141,116)"/>
<path d="M0 0 C4.00863462 -0.47721841 5.78014111 -0.12859671 9.3125 1.9375 C11.96546975 4.33417763 12.48128564 6.29679716 12.875 9.8125 C12.94326031 11.20728577 12.99391529 12.60355817 13 14 C12.236875 13.175 11.47375 12.35 10.6875 11.5 C8.24565858 8.65944803 8.24565858 8.65944803 5 9 C0 3.76744186 0 3.76744186 0 0 Z " fill="#EFEFEF" transform="translate(61,117)"/>
<path d="M0 0 C4.84417698 0.16147257 9.22874338 -0.04574868 14 -1 C13.67 0.98 13.34 2.96 13 5 C11.78763672 4.89171875 11.78763672 4.89171875 10.55078125 4.78125 C9.48214844 4.6884375 8.41351563 4.595625 7.3125 4.5 C6.25675781 4.4071875 5.20101562 4.314375 4.11328125 4.21875 C1.39363975 4.0276585 -1.27539856 3.95956065 -4 4 C-4.33 3.34 -4.66 2.68 -5 2 C-5.66 2.66 -6.32 3.32 -7 4 C-7 2.68 -7 1.36 -7 0 C-2.25 -1.125 -2.25 -1.125 0 0 Z " fill="#717171" transform="translate(152,140)"/>
<path d="M0 0 C1.2065625 0.0309375 1.2065625 0.0309375 2.4375 0.0625 C2.705625 0.68125 2.97375 1.3 3.25 1.9375 C4.39306848 4.3620233 4.39306848 4.3620233 7.4375 6.0625 C6.7775 7.3825 6.1175 8.7025 5.4375 10.0625 C3.93190461 8.09867993 2.54618317 6.27986634 1.4375 4.0625 C1.1075 7.0325 0.7775 10.0025 0.4375 13.0625 C-0.8825 12.7325 -2.2025 12.4025 -3.5625 12.0625 C-2.89583333 8.72916667 -2.22916667 5.39583333 -1.5625 2.0625 C-2.2225 1.7325 -2.8825 1.4025 -3.5625 1.0625 C-2.5625 0.0625 -2.5625 0.0625 0 0 Z " fill="#959595" transform="translate(57.5625,118.9375)"/>
<path d="M0 0 C0.99 0 1.98 0 3 0 C3 5.28 3 10.56 3 16 C4.98 16 6.96 16 9 16 C9 10.72 9 5.44 9 0 C9.33 0 9.66 0 10 0 C10 5.61 10 11.22 10 17 C7.36 17 4.72 17 2 17 C1.67 14.03 1.34 11.06 1 8 C-0.32 8.99 -1.64 9.98 -3 11 C-3 10.01 -3 9.02 -3 8 C-2.34 8 -1.68 8 -1 8 C-0.67 5.36 -0.34 2.72 0 0 Z " fill="#525252" transform="translate(103,119)"/>
<path d="M0 0 C2.00124361 0.32578384 4.00102872 0.66055205 6 1 C7.99965715 1.03703069 10.00056665 1.04760556 12 1 C12 2.32 12 3.64 12 5 C7.9472484 5.98248524 4.16138263 6.08159574 0 6 C-0.38218767 4.34385343 -0.71395102 2.67542976 -1 1 C-0.67 0.67 -0.34 0.34 0 0 Z " fill="#656565" transform="translate(101,139)"/>
<path d="M0 0 C3.875 3.75 3.875 3.75 5 6 C5.99 4.68 6.98 3.36 8 2 C9 3 9 3 9.09765625 5.06640625 C9.08605469 5.89011719 9.07445313 6.71382812 9.0625 7.5625 C9.05347656 8.38878906 9.04445313 9.21507812 9.03515625 10.06640625 C9.02355469 10.70449219 9.01195313 11.34257812 9 12 C7.02 11.01 5.04 10.02 3 9 C3 8.34 3 7.68 3 7 C2.01 6.67 1.02 6.34 0 6 C0 4.02 0 2.04 0 0 Z " fill="#AFAFAF" transform="translate(69,128)"/>
<path d="M0 0 C0.8353125 0.495 0.8353125 0.495 1.6875 1 C4.30284522 2.1309601 6.1806646 2.15662974 9 2 C7.24382798 4.44336977 5.87982422 5.83210694 2.87109375 6.40625 C-1.19164241 6.56688537 -3.28455904 6.55839295 -6.5625 4 C-7.2740625 3.01 -7.2740625 3.01 -8 2 C-5.36 2.33 -2.72 2.66 0 3 C0 2.01 0 1.02 0 0 Z " fill="#E7E7E7" transform="translate(65,146)"/>
<path d="M0 0 C0.99 0.495 0.99 0.495 2 1 C2.625 3.0625 2.625 3.0625 3 5 C4.65 5.33 6.3 5.66 8 6 C8 5.01 8 4.02 8 3 C10.97 3.495 10.97 3.495 14 4 C13.0625 6.5 13.0625 6.5 11 9 C7.96183742 9.45787911 5.05074215 9.28780586 2 9 C0.25434889 5.78360346 -0.204437 3.67986596 0 0 Z " fill="#A2A2A2" transform="translate(54,140)"/>
<path d="M0 0 C1.6254308 0.14095064 3.25034051 0.28792087 4.875 0.4375 C5.77992188 0.51871094 6.68484375 0.59992188 7.6171875 0.68359375 C10 1 10 1 12 2 C12 2.99 12 3.98 12 5 C8 5 4 5 0 5 C0 4.34 0 3.68 0 3 C-0.66 3 -1.32 3 -2 3 C-2.33 3.66 -2.66 4.32 -3 5 C-2.67 3.68 -2.34 2.36 -2 1 C-1.34 1.33 -0.68 1.66 0 2 C0 1.34 0 0.68 0 0 Z " fill="#6D6D6D" transform="translate(171,139)"/>
<path d="M0 0 C-0.33 1.32 -0.66 2.64 -1 4 C-1.33 3.34 -1.66 2.68 -2 2 C-2.66 2.66 -3.32 3.32 -4 4 C-5.66666667 4 -7.33333333 4 -9 4 C-10.33568021 4.32380126 -11.66923011 4.65657551 -13 5 C-13 3.35 -13 1.7 -13 0 C-4.57142857 -1.28571429 -4.57142857 -1.28571429 0 0 Z " fill="#6E6E6E" transform="translate(126,140)"/>
<path d="M0 0 C1.4540625 0.0309375 1.4540625 0.0309375 2.9375 0.0625 C2.980221 1.72861905 2.97813832 3.39632885 2.9375 5.0625 C1.9375 6.0625 1.9375 6.0625 -0.625 6.125 C-1.8315625 6.0940625 -1.8315625 6.0940625 -3.0625 6.0625 C-3.44468767 4.40635343 -3.77645102 2.73792976 -4.0625 1.0625 C-3.0625 0.0625 -3.0625 0.0625 0 0 Z " fill="#DADADA" transform="translate(109.0625,111.9375)"/>
<path d="M0 0 C0 3.3 0 6.6 0 10 C-2.97 10 -5.94 10 -9 10 C-9 9.67 -9 9.34 -9 9 C-6.69 9 -4.38 9 -2 9 C-2.66 7.02 -3.32 5.04 -4 3 C-1.125 0 -1.125 0 0 0 Z " fill="#232323" transform="translate(105,126)"/>
<path d="M0 0 C0.99 0 1.98 0 3 0 C3 3.3 3 6.6 3 10 C2.34 9.34 1.68 8.68 1 8 C-0.32 8.99 -1.64 9.98 -3 11 C-3 10.01 -3 9.02 -3 8 C-2.34 8 -1.68 8 -1 8 C-0.67 5.36 -0.34 2.72 0 0 Z " fill="#414141" transform="translate(103,119)"/>
<path d="M0 0 C0.99 0 1.98 0 3 0 C3.268125 0.61875 3.53625 1.2375 3.8125 1.875 C4.95556848 4.2995233 4.95556848 4.2995233 8 6 C7.34 7.32 6.68 8.64 6 10 C5.566875 9.401875 5.13375 8.80375 4.6875 8.1875 C3.10374619 6.00934997 3.10374619 6.00934997 1.3125 4.4375 C0 3 0 3 0 0 Z " fill="#E9E9E9" transform="translate(57,119)"/>
<path d="M0 0 C1.32 1.32 2.64 2.64 4 4 C3.34 6.31 2.68 8.62 2 11 C1.01 10.01 0.02 9.02 -1 8 C-0.34 7.67 0.32 7.34 1 7 C0.67 4.69 0.34 2.38 0 0 Z " fill="#5D5D5D" transform="translate(73,124)"/>
<path d="M0 0 C1.32 0 2.64 0 4 0 C3.67 1.65 3.34 3.3 3 5 C1.68 4.67 0.36 4.34 -1 4 C-0.67 2.68 -0.34 1.36 0 0 Z " fill="#2B2B2B" transform="translate(181,125)"/>
<path d="M0 0 C-0.33 1.98 -0.66 3.96 -1 6 C-2.65 6 -4.3 6 -6 6 C-5.6875 4.125 -5.6875 4.125 -5 2 C-2 0 -2 0 0 0 Z " fill="#4E4E4E" transform="translate(166,139)"/>
<path d="M0 0 C1.98 0 3.96 0 6 0 C6 1.32 6 2.64 6 4 C4.68 4.33 3.36 4.66 2 5 C1.34 3.35 0.68 1.7 0 0 Z " fill="#505050" transform="translate(107,140)"/>
<path d="M0 0 C1.32 0 2.64 0 4 0 C4 1.65 4 3.3 4 5 C2.68 5 1.36 5 0 5 C0 3.35 0 1.7 0 0 Z " fill="#242424" transform="translate(121,125)"/>
<path d="M0 0 C2.31 0 4.62 0 7 0 C6.67 0.99 6.34 1.98 6 3 C3.69 3 1.38 3 -1 3 C-0.67 2.01 -0.34 1.02 0 0 Z " fill="#D1D1D1" transform="translate(70,144)"/>
<path d="M0 0 C0.66 0.33 1.32 0.66 2 1 C2 3.31 2 5.62 2 8 C1.01 7.67 0.02 7.34 -1 7 C-0.67 4.69 -0.34 2.38 0 0 Z " fill="#DFDFDF" transform="translate(76,130)"/>
<path d="M0 0 C1.32 0 2.64 0 4 0 C4 1.65 4 3.3 4 5 C2.68 4.67 1.36 4.34 0 4 C0 2.68 0 1.36 0 0 Z " fill="#202020" transform="translate(160,125)"/>
<path d="M0 0 C0 0.99 0 1.98 0 3 C-2 3 -4 3 -6 3 C-6.33 2.01 -6.66 1.02 -7 0 C-4.3333581 -1.33332095 -2.83319697 -0.67102033 0 0 Z " fill="#7B7B7B" transform="translate(183,141)"/>
<path d="M0 0 C0.66 0 1.32 0 2 0 C2.33 1.98 2.66 3.96 3 6 C1.68 6 0.36 6 -1 6 C-0.67 4.02 -0.34 2.04 0 0 Z " fill="#515151" transform="translate(127,138)"/>
<path d="M0 0 C2.97 0 5.94 0 9 0 C9 0.66 9 1.32 9 2 C6.36 2.33 3.72 2.66 1 3 C0.67 2.01 0.34 1.02 0 0 Z " fill="#939393" transform="translate(199,123)"/>
</svg>
