<?xml version="1.0" encoding="UTF-8"?>
<svg version="1.1" xmlns="http://www.w3.org/2000/svg" width="1424" height="736">
<path d="M0 0 C469.92 0 939.84 0 1424 0 C1424 242.88 1424 485.76 1424 736 C954.08 736 484.16 736 0 736 C0 493.12 0 250.24 0 0 Z " fill="#FDFDFD" transform="translate(0,0)"/>
<path d="M0 0 C12.41293376 8.93818646 18.06610307 22.09940091 20.6171875 36.8125 C26.10581115 75.10652896 16.4488685 121.81927395 -6.80859375 153.171875 C-22.07976309 172.44458069 -41.94315092 187.3240664 -66.5625 191.83984375 C-76.51001494 192.87133323 -86.69638964 192.40376225 -96.6875 192.3125 C-96.74357422 193.33512939 -96.74357422 193.33512939 -96.80078125 194.37841797 C-97.46091648 204.48916567 -98.84961598 214.47279537 -100.27148438 224.5 C-100.69145599 227.46543336 -101.10395014 230.43184212 -101.515625 233.3984375 C-101.78081331 235.2891238 -102.04642268 237.1797511 -102.3125 239.0703125 C-102.43544434 239.95461945 -102.55838867 240.83892639 -102.68505859 241.75003052 C-102.80187988 242.56873627 -102.91870117 243.38744202 -103.0390625 244.23095703 C-103.14041504 244.94897491 -103.24176758 245.6669928 -103.34619141 246.4067688 C-103.6875 248.3125 -103.6875 248.3125 -104.6875 251.3125 C-123.8275 251.3125 -142.9675 251.3125 -162.6875 251.3125 C-162.6875 241.18789259 -162.6875 241.18789259 -162.00073242 237.61328125 C-161.85024948 236.80793945 -161.69976654 236.00259766 -161.54472351 235.17285156 C-161.37914444 234.33206055 -161.21356537 233.49126953 -161.04296875 232.625 C-160.87251541 231.72362305 -160.70206207 230.82224609 -160.52644348 229.89355469 C-159.9836469 227.03167397 -159.4297265 224.1720897 -158.875 221.3125 C-158.51419394 219.42593026 -158.15416204 217.53921229 -157.79492188 215.65234375 C-157.26312774 212.85920053 -156.73115689 210.0660977 -156.19699097 207.27340698 C-153.31677834 192.18816956 -150.78750521 177.04729751 -148.3125 161.89111328 C-147.03519293 154.07924963 -145.71420446 146.29343276 -144.12109375 138.5390625 C-142.71634612 131.65972913 -141.67850767 124.77022559 -140.75 117.8125 C-139.61156889 109.29723952 -138.2663945 100.85395483 -136.75390625 92.3984375 C-134.63351329 80.45593506 -133.04876899 68.47294111 -131.5625 56.4375 C-131.30907536 54.42181439 -131.05516969 52.4061892 -130.80078125 50.390625 C-127.84417398 27.39327001 -127.84417398 27.39327001 -125.6875 4.3125 C-120.17958288 2.61568446 -114.70255855 1.52214263 -109.01953125 0.5859375 C-107.64543343 0.35712387 -107.64543343 0.35712387 -106.24357605 0.12368774 C-104.31176049 -0.1961473 -102.37956625 -0.51370252 -100.44702148 -0.82910156 C-97.52478182 -1.30843505 -94.60524638 -1.80233627 -91.68554688 -2.296875 C-82.23142026 -3.86534341 -73.2910496 -5.12439274 -63.6875 -4.6875 C-64.6775 0.5925 -65.6675 5.8725 -66.6875 11.3125 C-64.686875 9.78625 -62.68625 8.26 -60.625 6.6875 C-43.5065255 -5.90123833 -19.08737109 -11.69459965 0 0 Z " fill="#525252" transform="translate(989.6875,293.6875)"/>
<path d="M0 0 C0.67848999 0.00304138 1.35697998 0.00608276 2.05603027 0.00921631 C20.49674925 0.13144461 35.63202301 4.03250755 49.33984375 17.0234375 C62.1590234 30.94655354 65.19070687 50.92784856 65.125 69.125 C65.12518127 69.90052216 65.12536255 70.67604431 65.12554932 71.47506714 C65.00212528 109.00027995 55.58362611 149.97048072 28.5625 177.4375 C27.80195312 178.2109375 27.04140625 178.984375 26.2578125 179.78125 C8.63549936 196.65244815 -13.66642564 201.81551285 -37.5 201.75 C-38.67626953 201.76611328 -39.85253906 201.78222656 -41.06445312 201.79882812 C-57.96876749 201.80817269 -73.13428098 196.54529173 -85.390625 184.609375 C-98.52461756 170.67330655 -101.02853198 151.04883782 -100.875 132.625 C-100.87229095 131.8611499 -100.86958191 131.0972998 -100.86679077 130.31030273 C-100.79407124 116.72325119 -99.50142762 103.70302586 -96.4375 90.4375 C-96.23962891 89.5722168 -96.04175781 88.70693359 -95.83789062 87.81542969 C-90.97499021 67.08121836 -83.77651011 48.21970988 -70.4375 31.4375 C-69.88578125 30.73238281 -69.3340625 30.02726562 -68.765625 29.30078125 C-51.44277718 8.30713948 -26.52829133 -0.20689309 0 0 Z " fill="#515151" transform="translate(603.4375,287.5625)"/>
<path d="M0 0 C2.40256851 -0.00439048 4.8033181 -0.04091752 7.20556641 -0.07861328 C21.10703901 -0.17912885 36.28173783 1.82543906 47.15478516 11.33935547 C57.66170537 22.30981628 58.6682346 35.44827666 58.45556641 49.94482422 C57.67553645 67.59986851 53.66192246 85.16058436 50.43746948 102.49838257 C48.90074685 110.78435931 47.40530335 119.07800926 45.90478516 127.37060547 C45.76486145 128.1419986 45.62493774 128.91339172 45.48077393 129.7081604 C44.57803428 134.69588907 43.69662151 139.68685274 42.84228516 144.68310547 C42.71471832 145.42800232 42.58715149 146.17289917 42.45571899 146.94036865 C40.24292032 160.01086967 38.78325164 173.0761654 37.75415039 186.28979492 C37.60248413 188.23631958 37.60248413 188.23631958 37.44775391 190.22216797 C37.36549561 191.36508301 37.2832373 192.50799805 37.19848633 193.68554688 C36.90478516 196.37060547 36.90478516 196.37060547 35.90478516 198.37060547 C17.42478516 198.37060547 -1.05521484 198.37060547 -20.09521484 198.37060547 C-20.09521484 194.41060547 -20.09521484 190.45060547 -20.09521484 186.37060547 C-21.62146484 187.40185547 -23.14771484 188.43310547 -24.72021484 189.49560547 C-40.52825945 199.49992638 -57.76330936 204.1282434 -76.34521484 200.30810547 C-85.22589542 197.8126108 -91.75860491 191.72722521 -97.09521484 184.37060547 C-98.52450653 181.70232628 -99.53814433 178.99693677 -100.47021484 176.12060547 C-100.72351563 175.34628174 -100.97681641 174.57195801 -101.23779297 173.77416992 C-107.23842322 153.64334938 -102.17282616 131.06513805 -92.51074219 112.95507812 C-88.66451194 106.17223449 -83.65042761 100.78632249 -78.09521484 95.37060547 C-77.43908203 94.70544922 -76.78294922 94.04029297 -76.10693359 93.35498047 C-58.15956766 76.29153192 -26.46674664 66.09460968 -1.98193359 65.26513672 C-1.35931641 65.29994141 -0.73669922 65.33474609 -0.09521484 65.37060547 C1.40744907 59.54778281 1.64442019 53.82064653 -0.09521484 48.05810547 C-3.21439099 43.86671252 -7.33020918 41.79243818 -12.50683594 41.00268555 C-15.11150292 40.8694837 -17.67554856 40.86636467 -20.28271484 40.93310547 C-21.21543213 40.94994385 -22.14814941 40.96678223 -23.10913086 40.98413086 C-36.1173515 41.36217839 -46.7302862 45.20269003 -58.58325195 50.3215332 C-59.95235718 50.90849976 -59.95235718 50.90849976 -61.34912109 51.50732422 C-62.16711182 51.86528076 -62.98510254 52.2232373 -63.82788086 52.59204102 C-66.09521484 53.37060547 -66.09521484 53.37060547 -70.09521484 53.37060547 C-69.40300777 45.47431739 -67.83874883 37.86061806 -66.15771484 30.12060547 C-65.8928125 28.86763672 -65.62791016 27.61466797 -65.35498047 26.32373047 C-65.09523438 25.11716797 -64.83548828 23.91060547 -64.56787109 22.66748047 C-64.21607788 21.03311035 -64.21607788 21.03311035 -63.85717773 19.36572266 C-63.13670707 16.53370274 -62.39462252 13.98891921 -61.09521484 11.37060547 C-58.18115234 9.92919922 -58.18115234 9.92919922 -54.47021484 8.80810547 C-53.80578369 8.60467529 -53.14135254 8.40124512 -52.45678711 8.19165039 C-50.34315022 7.55708891 -48.22217177 6.95886099 -46.09521484 6.37060547 C-45.41990723 6.18079102 -44.74459961 5.99097656 -44.04882812 5.79541016 C-29.40864795 1.73836435 -15.15548937 -0.00308854 0 0 Z " fill="#525252" transform="translate(1107.09521484375,287.62939453125)"/>
<path d="M0 0 C2.24467128 -0.00437037 4.48736351 -0.0408358 6.73168945 -0.07861328 C22.19922639 -0.19955509 38.47303451 2.27723413 50.09692383 13.43701172 C58.1560983 22.96149064 59.58142421 33.38062646 59.38208008 45.49560547 C59.38916992 46.68669922 59.39625977 47.87779297 59.40356445 49.10498047 C59.34242289 57.89055227 58.12055681 66.2235789 56.44033813 74.80871582 C55.46598214 79.84381815 54.56114007 84.89197649 53.63989258 89.93701172 C53.21953368 92.22481147 52.79895649 94.51257112 52.37817383 96.80029297 C48.25129572 119.27609717 44.15573467 141.74254722 40.94458008 164.37060547 C40.76419189 165.63670654 40.58380371 166.90280762 40.39794922 168.20727539 C39.45298985 175.03519078 38.651298 181.79506636 38.38208008 188.68310547 C38.07212122 196.11552318 38.07212122 196.11552318 36.94458008 198.37060547 C18.46458008 198.37060547 -0.01541992 198.37060547 -19.05541992 198.37060547 C-18.05541992 188.37060547 -18.05541992 188.37060547 -17.05541992 185.37060547 C-17.97581055 185.96228516 -18.89620117 186.55396484 -19.84448242 187.16357422 C-37.21500945 198.09500664 -54.73002814 202.82781248 -75.30541992 199.90966797 C-83.7915632 197.65553616 -91.33372167 191.7543888 -96.05541992 184.37060547 C-103.60550029 167.60605002 -103.76482359 145.46420766 -98.44604492 127.97216797 C-94.18832594 116.94515419 -89.07777452 107.16402482 -81.05541992 98.37060547 C-80.53850586 97.76216797 -80.0215918 97.15373047 -79.48901367 96.52685547 C-62.01842427 77.26104259 -32.59736945 70.25426587 -8.10473633 66.19433594 C-7.08557129 66.01273926 -6.06640625 65.83114258 -5.01635742 65.64404297 C-4.1067627 65.49370605 -3.19716797 65.34336914 -2.26000977 65.18847656 C0.06926149 64.56065241 0.06926149 64.56065241 1.23901367 62.53710938 C2.64949921 58.20608908 2.37289033 53.94107638 1.19458008 49.62060547 C-0.79382602 46.0414745 -2.7648312 43.93587117 -6.54370117 42.28076172 C-24.66610679 37.58385348 -42.76306091 42.96241138 -59.06811523 50.72802734 C-59.78966797 51.06898438 -60.5112207 51.40994141 -61.25463867 51.76123047 C-61.89232178 52.07092773 -62.53000488 52.380625 -63.18701172 52.69970703 C-65.05541992 53.37060547 -65.05541992 53.37060547 -69.05541992 53.37060547 C-68.40542016 45.81134892 -66.86742116 38.62120063 -65.11791992 31.24560547 C-64.85301758 30.10478516 -64.58811523 28.96396484 -64.31518555 27.78857422 C-63.80320065 25.60088689 -63.28195862 23.41533836 -62.75 21.23242188 C-62.33465894 19.52112911 -61.93548439 17.80559997 -61.56982422 16.08300781 C-60.92874601 13.31421004 -60.51995925 11.71535793 -58.19213867 9.98779297 C-56.97977539 9.62041016 -56.97977539 9.62041016 -55.74291992 9.24560547 C-54.76452148 8.94654297 -53.78612305 8.64748047 -52.77807617 8.33935547 C-51.54959961 8.01966797 -50.32112305 7.69998047 -49.05541992 7.37060547 C-48.27537598 7.16693359 -47.49533203 6.96326172 -46.69165039 6.75341797 C-31.1315944 2.74476555 -16.09511721 -0.0034887 0 0 Z " fill="#525252" transform="translate(356.055419921875,287.62939453125)"/>
<path d="M0 0 C-1.17855732 6.70774643 -2.47648314 13.36181939 -4 20 C-2.8553125 19.2265625 -2.8553125 19.2265625 -1.6875 18.4375 C-0.45889186 17.62415568 0.77036813 16.8117958 2 16 C2.77730469 15.47921875 3.55460938 14.9584375 4.35546875 14.421875 C9.47542472 11.0640309 14.68179321 7.98379957 20.125 5.1875 C21.22070312 4.62417969 22.31640625 4.06085938 23.4453125 3.48046875 C34.68379499 -1.20017396 49.04408556 -2.23323914 60.78515625 1.0625 C68.58551232 4.69148993 73.77099987 9.84944803 77.8125 17.375 C81.9446304 29.98887174 81.73537577 42.77537482 80.25390625 55.859375 C80.16881302 56.61482605 80.08371979 57.3702771 79.99604797 58.14862061 C78.605015 69.9023067 76.59783084 81.5722636 74.6875 93.25 C74.27863854 95.77012832 73.87011214 98.29031102 73.46191406 100.81054688 C71.23967237 114.50843003 68.98019887 128.19978217 66.68139648 141.88500977 C65.27666327 150.27211149 63.91285738 158.6652241 62.58581543 167.06494141 C62.36672363 168.44973536 62.14648102 169.83434788 61.92492676 171.21875 C60.77573661 178.41088767 59.75655011 185.55415773 59.23730469 192.8215332 C59 195 59 195 58 198 C38.86 198 19.72 198 0 198 C2.29904625 179.60762999 2.29904625 179.60762999 3.69921875 171.74609375 C3.85499893 170.85348846 4.01077911 169.96088318 4.17127991 169.04122925 C4.67297287 166.17265372 5.18019327 163.3050875 5.6875 160.4375 C6.0429407 158.40980147 6.39807899 156.38204991 6.75292969 154.35424805 C8.60288697 143.80492685 10.48947967 133.26257335 12.40457153 122.72489929 C14.87512481 109.12841983 17.33735001 95.53464526 19.4375 81.875 C19.6835498 80.33066284 19.6835498 80.33066284 19.93457031 78.75512695 C22.09727397 65.10228488 22.09727397 65.10228488 19 52 C16.0856657 49.11727454 13.86319469 48.54676127 9.8125 48.5 C2.52583547 48.70429901 -2.10061106 51.65553861 -7.6328125 56.12890625 C-10.74418778 59.902604 -11.26085907 63.00146799 -12 67.75 C-12.15460693 68.64106445 -12.30921387 69.53212891 -12.46850586 70.45019531 C-13.00801998 73.62942755 -13.50787666 76.81308644 -14 80 C-14.20125488 81.299375 -14.40250977 82.59875 -14.60986328 83.9375 C-15.49258605 89.66524472 -16.36213666 95.39490591 -17.21484375 101.12719727 C-18.42770807 109.28044381 -19.72207616 117.40454852 -21.1953125 125.515625 C-24.65897019 144.64221266 -27.63638542 163.8418781 -30.38818359 183.08178711 C-30.48894196 183.78181351 -30.58970032 184.4818399 -30.69351196 185.20307922 C-30.9664813 187.10207916 -31.23675334 189.00146626 -31.50683594 190.90087891 C-32 194 -32 194 -33 198 C-52.14 198 -71.28 198 -91 198 C-91 193.16410172 -90.94400656 189.88322328 -89.96875 185.37109375 C-89.73945801 184.27901611 -89.51016602 183.18693848 -89.27392578 182.06176758 C-88.89083252 180.26775513 -88.89083252 180.26775513 -88.5 178.4375 C-82.29340073 148.51069126 -77.45223129 118.30902002 -72.6875 88.125 C-72.52260071 87.08646881 -72.35770142 86.04793762 -72.18780518 84.97793579 C-70.08888079 71.7212453 -68.23940616 58.45336576 -66.63037109 45.12817383 C-65.9924945 39.86278267 -65.24017351 34.62071138 -64.46850586 29.37329102 C-63.90069289 25.28497842 -63.41623807 21.18982965 -62.94140625 17.08984375 C-62.85024536 16.30863159 -62.75908447 15.52741943 -62.66516113 14.72253418 C-62.44268913 12.8151103 -62.22123882 10.90756731 -62 9 C-55.18697852 7.87571253 -48.37336023 6.75509682 -41.55932617 5.63696289 C-39.24408481 5.2566122 -36.92897843 4.87543885 -34.61401367 4.4934082 C-31.27558466 3.94262845 -27.93667224 3.39486488 -24.59765625 2.84765625 C-23.57229263 2.6778273 -22.54692902 2.50799835 -21.49049377 2.33302307 C-7.20389205 0 -7.20389205 0 0 0 Z " fill="#525252" transform="translate(757,288)"/>
<path d="M0 0 C1.26328125 -0.00773438 2.5265625 -0.01546875 3.828125 -0.0234375 C21.72901371 0.0133956 37.69278116 3.96252491 54 11.25 C52.42719444 19.3228397 50.71431562 27.36481655 48.96826172 35.40161133 C48.65423414 36.85075528 48.34208091 38.30030657 48.03173828 39.75024414 C47.57746064 41.87219264 47.11748366 43.99283526 46.65625 46.11328125 C46.38619141 47.36407471 46.11613281 48.61486816 45.83789062 49.90356445 C45.10375937 52.8355974 44.20678397 55.48511069 43 58.25 C39.26267049 56.89279447 36.2196646 55.17016401 32.9375 52.9375 C20.98203244 45.19875816 8.61246553 41.3830992 -5.6484375 43.67578125 C-13.89177711 45.79512566 -21.41398682 50.2467165 -26.0625 57.5 C-29.63719342 63.86066444 -29.69573219 70.08805094 -29 77.25 C-24.73503917 91.95891368 -9.15209356 101.07335432 2.4375 109.85546875 C16.03653462 120.17650189 28.71582764 130.36845989 34 147.25 C34.33644531 148.25353516 34.33644531 148.25353516 34.6796875 149.27734375 C40.10481939 168.63688974 34.33970671 192.78888712 25.02734375 210.05322266 C13.03603567 231.18049407 -5.83267217 245.91679904 -29 253.25 C-31.75335924 253.92051739 -34.51598717 254.42127711 -37.3125 254.875 C-38.06249268 254.99979736 -38.81248535 255.12459473 -39.58520508 255.25317383 C-64.22284773 259.25284284 -98.17977753 260.79681498 -120 246.25 C-119.41201252 237.08644123 -117.27781086 228.43448314 -115.0625 219.5625 C-114.69797196 218.07762008 -114.33403569 216.59259476 -113.97070312 215.10742188 C-112.41719715 208.78941398 -110.81709208 202.4982376 -109 196.25 C-105.37262616 197.8535908 -102.53707875 200.10677515 -99.4375 202.5625 C-85.75105659 213.12836647 -72.79325936 214.4181437 -56 213.25 C-51.91029684 212.46867025 -48.62583745 211.270649 -45 209.25 C-44.195625 208.82589844 -43.39125 208.40179688 -42.5625 207.96484375 C-34.69182268 203.31751948 -29.99242345 196.29223437 -27.4765625 187.5625 C-25.69486968 178.91690861 -27.20372283 172.64315652 -32 165.25 C-34.25 162.5 -34.25 162.5 -37 160.25 C-37.5053125 159.77820313 -38.010625 159.30640625 -38.53125 158.8203125 C-43.00897263 154.71573342 -47.81317165 151.11123054 -52.6875 147.5 C-86.75277558 122.17885831 -86.75277558 122.17885831 -91.4375 101 C-94.47923494 78.37082908 -90.31674589 54.19241199 -76.9453125 35.35546875 C-75.01850573 32.93060061 -73.03701084 30.58257712 -71 28.25 C-70.22011719 27.2703125 -69.44023437 26.290625 -68.63671875 25.28125 C-51.87203565 5.16363028 -24.80916564 -0.15189285 0 0 Z " fill="#525252" transform="translate(217,232.75)"/>
<path d="M0 0 C0.77673065 -0.00570007 1.5534613 -0.01140015 2.35372925 -0.01727295 C3.98906114 -0.02665857 5.6244114 -0.03323106 7.25976562 -0.03710938 C9.71519459 -0.04676881 12.16976828 -0.07783449 14.625 -0.109375 C27.68518428 -0.19667812 39.26901842 1.73223619 51.6171875 6.203125 C50.70206191 12.93104243 49.41936183 19.56445983 48.08813477 26.21899414 C47.68020607 28.26302656 47.2784593 30.30821324 46.87695312 32.35351562 C46.61496041 33.66934597 46.35260292 34.98510375 46.08984375 36.30078125 C45.73805054 38.07207397 45.73805054 38.07207397 45.37915039 39.87915039 C44.64622508 43.07645191 43.70974079 46.11230672 42.6171875 49.203125 C37.48681719 47.31506965 32.82865237 44.67267793 28.05664062 42.03710938 C21.71433399 38.58867934 16.94627276 37.9773785 9.8671875 37.890625 C9.09375 37.86162109 8.3203125 37.83261719 7.5234375 37.80273438 C0.76686781 37.72904695 -4.38117658 39.50336138 -9.44140625 44.0546875 C-9.89644531 44.63992188 -10.35148437 45.22515625 -10.8203125 45.828125 C-11.29339844 46.41851562 -11.76648437 47.00890625 -12.25390625 47.6171875 C-15.57404275 52.2814623 -15.15985729 57.71524615 -14.3828125 63.203125 C-10.96976829 70.65582701 -1.97487851 75.08043602 4.60546875 79.47265625 C9.90922823 83.03723241 14.82355575 86.98016369 19.6171875 91.203125 C20.42929688 91.90824219 21.24140625 92.61335938 22.078125 93.33984375 C31.04129993 101.63301391 35.93949852 111.9988765 36.83203125 124.12109375 C37.3857423 142.3049645 31.72215841 158.89005139 20.6171875 173.203125 C19.9778125 174.09 19.3384375 174.976875 18.6796875 175.890625 C6.82263072 189.18490078 -10.68183012 198.88328742 -28.5501709 200.38531494 C-34.3052292 200.69096282 -40.058933 200.68063925 -45.8203125 200.640625 C-46.70144714 200.63858063 -47.58258179 200.63653625 -48.49041748 200.63442993 C-81.27573302 200.5104265 -81.27573302 200.5104265 -94.3828125 193.203125 C-93.6797775 185.38186064 -92.26464939 177.72307202 -90.79882812 170.01708984 C-90.37992698 167.81294216 -89.96694802 165.60774213 -89.5546875 163.40234375 C-87.52378791 152.62605124 -87.52378791 152.62605124 -86.3828125 149.203125 C-82.61250351 150.56800388 -79.56223488 152.31928104 -76.2578125 154.578125 C-69.33049552 159.06545584 -61.69457715 162.49574077 -53.3828125 163.203125 C-52.29613281 163.29787109 -52.29613281 163.29787109 -51.1875 163.39453125 C-43.55743569 163.76527105 -36.17536485 162.39756874 -30.203125 157.3671875 C-25.74254019 152.53642967 -23.72432044 148.33361442 -23.0078125 141.765625 C-23.76565918 134.5660815 -27.6391045 130.46670527 -32.984375 126.015625 C-36.65811631 123.2393775 -40.51100536 120.75410263 -44.36328125 118.234375 C-55.65874206 110.63587613 -66.26913228 102.12081521 -71.3828125 89.203125 C-71.74890625 88.33300781 -72.115 87.46289062 -72.4921875 86.56640625 C-73.73317924 81.88002955 -73.7235138 77.40667867 -73.6953125 72.578125 C-73.69039795 71.59408691 -73.6854834 70.61004883 -73.68041992 69.59619141 C-73.56492669 62.42613443 -72.86645181 55.97578 -70.3828125 49.203125 C-70.03089844 48.21441406 -69.67898438 47.22570312 -69.31640625 46.20703125 C-61.9086191 27.01523947 -48.76991853 14.33018182 -30.40234375 5.48828125 C-20.611541 1.32117374 -10.55021585 0.06191941 0 0 Z " fill="#525252" transform="translate(1251.3828125,287.796875)"/>
<path d="M0 0 C-0.0903037 2.16728872 -0.19837354 4.33383512 -0.3125 6.5 C-0.37050781 7.7065625 -0.42851563 8.913125 -0.48828125 10.15625 C-0.8855212 14.85571266 -1.78125734 19.43973501 -2.67506409 24.06668091 C-4.68484288 34.4756102 -6.45039114 44.92807282 -8.25 55.375 C-8.45676361 56.57422089 -8.66352722 57.77344177 -8.8765564 59.00900269 C-13.09899354 83.5284978 -17.21915276 108.06516539 -21.31828308 132.60553741 C-21.80555889 135.52097045 -22.29371241 138.43625524 -22.78210449 141.35150146 C-26.52048948 163.6753591 -30.14688782 186.00780133 -33.46511841 208.39830017 C-34.38308962 214.57958743 -35.3179203 220.75832677 -36.25 226.9375 C-37.25852986 233.63244637 -38.1904215 240.29132367 -38.74511719 247.04125977 C-39 249 -39 249 -40 251 C-59.8 251 -79.6 251 -100 251 C-98.28337772 240.70026631 -96.56853717 230.50181847 -94.44335938 220.29492188 C-94.22522583 219.24389282 -94.22522583 219.24389282 -94.00268555 218.17163086 C-93.71252563 216.78134158 -93.42089324 215.39135869 -93.12768555 214.00170898 C-91.13120169 204.50410197 -89.51260536 194.99782296 -88.1328125 185.390625 C-86.6935557 175.37708554 -85.07649327 165.40851089 -83.30078125 155.44921875 C-83.18187216 154.78099216 -83.06296307 154.11276558 -82.94045067 153.4242897 C-82.44846817 150.66049176 -81.95571508 147.89683262 -81.46198368 145.13334656 C-75.38356746 111.10491431 -70.14599752 77.00932452 -65.38751221 42.77209473 C-64.87896266 39.13415125 -64.35434369 35.49870901 -63.828125 31.86328125 C-63.1008156 26.79154739 -62.45221792 21.71587278 -61.875 16.625 C-61.78863281 15.87734375 -61.70226562 15.1296875 -61.61328125 14.359375 C-61.40717372 12.57310976 -61.20331598 10.78658513 -61 9 C-55.05906533 8.0088616 -49.11794247 7.01891744 -43.17578125 6.03515625 C-41.22135169 5.71095242 -39.26692466 5.38673338 -37.3125 5.0625 C-35.75982422 4.80581543 -35.75982422 4.80581543 -34.17578125 4.54394531 C-29.42680631 3.75489842 -24.68247732 2.95307565 -19.94921875 2.07421875 C-19.19020264 1.9342749 -18.43118652 1.79433105 -17.64916992 1.65014648 C-15.65039794 1.27800207 -13.65324967 0.89716559 -11.65625 0.515625 C-7.68369115 -0.04460766 -4.00535134 -0.08861397 0 0 Z " fill="#525252" transform="translate(513,235)"/>
<path d="M0 0 C3.92368171 1.91824439 5.5303277 4.51362669 7.3125 8.375 C12.62243327 24.67174642 8.60507362 44.49647595 6 61 C5.86609863 61.86334961 5.73219727 62.72669922 5.59423828 63.61621094 C3.94265867 73.87001793 1.34676077 83.69066524 -1.875 93.5625 C-2.19041748 94.53767578 -2.50583496 95.51285156 -2.83081055 96.51757812 C-6.48801253 107.2627291 -10.79636776 117.2959331 -20.96875 123.12890625 C-24.27497768 124.54676928 -27.5061318 124.52610371 -31 124 C-35.96936432 121.70644724 -37.98733492 118.87498117 -40.23828125 114.09765625 C-50.17995188 86.71982482 -37.51879538 42.10111827 -26 17 C-20.55752242 5.95497198 -13.12625858 -3.10513644 0 0 Z " fill="#FBFBFB" transform="translate(602,327)"/>
<path d="M0 0 C1.03769531 -0.02578125 2.07539062 -0.0515625 3.14453125 -0.078125 C6.63561966 0.29832099 8.4124229 1.12420437 11.1875 3.25 C12.515625 5.1171875 12.515625 5.1171875 13.4375 7.125 C13.75203125 7.78242188 14.0665625 8.43984375 14.390625 9.1171875 C22.35130787 30.42372108 14.16752435 63.40420341 5.37109375 83.5625 C-1.16304516 97.68073287 -8.20794607 106.36860944 -22.8125 112.25 C-26.73485679 113.64514723 -30.69397732 113.27104468 -34.8125 113.25 C-32.10611953 91.92955546 -28.92201376 70.71119289 -25.49694824 49.49572754 C-24.99210828 46.36280375 -24.49103514 43.22928223 -23.99004841 40.09574032 C-23.38667405 36.32271968 -22.7813686 32.55000973 -22.17578125 28.77734375 C-22.06270441 28.07208998 -21.94962757 27.3668362 -21.83312416 26.64021111 C-21.51391652 24.65181562 -21.19315012 22.66367056 -20.87231445 20.67553711 C-20.69118607 19.55134872 -20.51005768 18.42716034 -20.32344055 17.26890564 C-20.15483017 16.27266678 -19.98621979 15.27642792 -19.8125 14.25 C-19.6758342 13.33791275 -19.5391684 12.4258255 -19.39836121 11.48609924 C-18.49310531 8.03094298 -16.26052076 6.9662066 -13.375 5 C-12.38628906 4.31421875 -11.39757812 3.6284375 -10.37890625 2.921875 C-6.59126822 0.45443348 -4.5221489 0.06691219 0 0 Z " fill="#FBFBFB" transform="translate(935.8125,332.75)"/>
<path d="M0 0 C-0.53185518 9.01445786 -1.81815265 17.80111032 -3.41918945 26.67480469 C-3.81524112 28.89033394 -4.189941 31.10886616 -4.56445312 33.328125 C-4.81901633 34.75804386 -5.07483099 36.18774062 -5.33203125 37.6171875 C-5.55608643 38.89190918 -5.7801416 40.16663086 -6.01098633 41.47998047 C-7.63547683 47.26173906 -10.45796487 51.10942631 -15.5 54.3125 C-16.2528125 54.80363281 -17.005625 55.29476562 -17.78125 55.80078125 C-22.88743986 58.56064091 -28.31540971 58.48989152 -34 58 C-37.89903379 56.55905273 -40.33144635 54.1985256 -42.26953125 50.47265625 C-44.72581222 42.1580795 -43.96613342 31.58828254 -40.58203125 23.66015625 C-33.97211034 12.54569664 -24.2613909 4.50353836 -11.75 1.125 C-7.73600875 0.18116963 -4.11480167 -0.04059254 0 0 Z " fill="#FBFBFB" transform="translate(352,388)"/>
<path d="M0 0 C-1.82256552 12.41805897 -3.66167626 24.84316708 -5.9375 37.1875 C-6.0705957 37.9805957 -6.20369141 38.77369141 -6.34082031 39.59082031 C-7.53292695 45.77537353 -9.90230854 50.78736324 -15.1328125 54.5234375 C-15.79023437 54.80445313 -16.44765625 55.08546875 -17.125 55.375 C-18.11886719 55.81972656 -18.11886719 55.81972656 -19.1328125 56.2734375 C-24.45495744 58.34439767 -29.33427684 58.72035623 -35 58 C-38.39823677 56.38784437 -40.43139155 54.13133473 -42.1328125 50.74609375 C-44.73096714 42.51860405 -43.74954229 32.72316081 -40 25 C-38.49496038 22.20197101 -36.83228821 19.59390198 -35 17 C-34.29875 15.989375 -33.5975 14.97875 -32.875 13.9375 C-24.848677 4.69965655 -11.98636163 0 0 0 Z " fill="#FBFBFB" transform="translate(1102,388)"/>
<path d="M0 0 C4.708003 2.72719686 7.62183297 6.59936593 9.75 11.5625 C10.92849337 17.42777084 10.03554342 22.6145234 7.09375 27.8046875 C4.11837266 31.69689622 0.34779672 34.02990109 -4.25 35.5625 C-10.772173 36.34721904 -15.83723711 35.34284234 -21.25 31.5625 C-25.61647438 27.0811184 -27.33747752 22.93688386 -27.6875 16.75 C-27.54812319 11.24051665 -25.94952558 7.62207674 -22.25 3.5625 C-15.75436153 -2.35702863 -8.1058043 -3.34132391 0 0 Z " fill="#F5F5F4" transform="translate(1309.25,453.4375)"/>
<path d="M0 0 C4.708003 2.72719686 7.62183297 6.59936593 9.75 11.5625 C10.92849337 17.42777084 10.03554342 22.6145234 7.09375 27.8046875 C4.11837266 31.69689622 0.34779672 34.02990109 -4.25 35.5625 C-10.772173 36.34721904 -15.83723711 35.34284234 -21.25 31.5625 C-25.61647438 27.0811184 -27.33747752 22.93688386 -27.6875 16.75 C-27.54812319 11.24051665 -25.94952558 7.62207674 -22.25 3.5625 C-15.75436153 -2.35702863 -8.1058043 -3.34132391 0 0 Z M-22.125 8.625 C-23.89845467 13.2556872 -23.88275809 17.67300569 -23.25 22.5625 C-20.90241046 27.72719698 -17.48276078 30.58641523 -12.25 32.5625 C-6.74163303 33.46386914 -3.58485657 32.00345964 0.953125 29.14453125 C4.0891258 26.38348706 5.57286259 23.76256607 6.18359375 19.625 C6.24665882 13.32163671 6.24665882 13.32163671 4.125 7.5 C-1.04311876 3.28390312 -5.24700466 1.99257008 -11.84765625 2.2109375 C-16.47119193 2.88755248 -19.07945594 5.27490154 -22.125 8.625 Z " fill="#626261" transform="translate(1309.25,453.4375)"/>
<path d="M0 0 C2.0625 -0.061875 4.125 -0.12375 6.25 -0.1875 C7.99023438 -0.23970703 7.99023438 -0.23970703 9.765625 -0.29296875 C13.25414263 0.02302017 14.62112734 0.46446987 17 3 C17.46913089 7.37855495 17.46943529 9.29584707 15 13 C15.33 13.5775 15.66 14.155 16 14.75 C17 17 17 17 17 21 C15.68 21 14.36 21 13 21 C10 15.25 10 15.25 10 13 C8.02 13 6.04 13 4 13 C4 15.64 4 18.28 4 21 C2.68 21 1.36 21 0 21 C0 14.07 0 7.14 0 0 Z " fill="#6A6A69" transform="translate(1292,460)"/>
<path d="M0 0 C0.99 0.33 1.98 0.66 3 1 C3.49198679 6.90384154 2.50432079 11.14081099 -1 16 C-6.12814048 20.72022021 -10.79469333 22.27952815 -17.703125 22.234375 C-20.90650837 21.90749915 -23.28351508 20.67168303 -26 19 C-26 18.34 -26 17.68 -26 17 C-24.62328125 17.19529297 -24.62328125 17.19529297 -23.21875 17.39453125 C-13.76599688 18.53445432 -13.76599688 18.53445432 -5.484375 14.58984375 C-1.64318739 10.47572966 -0.66159662 5.42509225 0 0 Z " fill="#555554" transform="translate(1316,467)"/>
<path d="M0 0 C2.8125 -0.3125 2.8125 -0.3125 6 0 C8.31141604 2.85074644 9 4.3139451 9 8 C10.32 8 11.64 8 13 8 C13.33 7.34 13.66 6.68 14 6 C14.33 6.99 14.66 7.98 15 9 C10.16918575 12.15481747 6.96312018 13.91740311 1 13 C-0.9375 11 -0.9375 11 -2 9 C-1.34 8.67 -0.68 8.34 0 8 C0 5.36 0 2.72 0 0 Z " fill="#EEEEED" transform="translate(1296,473)"/>
<path d="M0 0 C5.10724823 2.16910157 7.79863348 5.56340147 10.83984375 10.10546875 C12.02131003 13.03688927 11.8089954 14.45969774 10.7734375 17.421875 C9.2109375 19.234375 9.2109375 19.234375 7.7734375 20.421875 C7.75925781 19.83019531 7.74507812 19.23851562 7.73046875 18.62890625 C7.46731178 14.26903545 7.23098617 12.00308547 4.4609375 8.484375 C-0.21565905 4.89535905 -4.24085563 3.93878771 -9.984375 2.984375 C-12.2265625 2.421875 -12.2265625 2.421875 -14.2265625 0.421875 C-9.97140113 -1.70570568 -4.50993321 -1.1710002 0 0 Z " fill="#5D5D5D" transform="translate(1307.2265625,452.578125)"/>
<path d="M0 0 C2.0625 -0.061875 4.125 -0.12375 6.25 -0.1875 C7.99023438 -0.23970703 7.99023438 -0.23970703 9.765625 -0.29296875 C13.2537738 0.02298676 14.63390128 0.44832491 17 3 C17.25 6.6875 17.25 6.6875 17 10 C16.01 10 15.02 10 14 10 C14 9.34 14 8.68 14 8 C13.01 8.495 13.01 8.495 12 9 C9.6670134 9.04022391 7.33293334 9.04320247 5 9 C5 7.35 5 5.7 5 4 C6.98 3.67 8.96 3.34 11 3 C7.7 2.34 4.4 1.68 1 1 C1 7.6 1 14.2 1 21 C0.67 21 0.34 21 0 21 C0 14.07 0 7.14 0 0 Z " fill="#6C6C6C" transform="translate(1292,460)"/>
<path d="M0 0 C3.3 0.33 6.6 0.66 10 1 C10 1.33 10 1.66 10 2 C7.69 2 5.38 2 3 2 C3 4.31 3 6.62 3 9 C5.31 9 7.62 9 10 9 C8 11 8 11 5.375 11.125 C4.59125 11.08375 3.8075 11.0425 3 11 C3 13.97 3 16.94 3 20 C2.01 20 1.02 20 0 20 C0 13.4 0 6.8 0 0 Z " fill="#4B4B4B" transform="translate(1293,461)"/>
<path d="M0 0 C-0.556875 0.391875 -1.11375 0.78375 -1.6875 1.1875 C-4.34928977 3.27376766 -6.63908836 5.58006557 -9 8 C-10.33333333 9.33333333 -11.66666667 10.66666667 -13 12 C-13.75 10.375 -13.75 10.375 -14 8 C-10.32818183 1.33632999 -7.70995895 -1.92748974 0 0 Z " fill="#505050" transform="translate(1297,455)"/>
<path d="M0 0 C2.64 0 5.28 0 8 0 C7.67 1.65 7.34 3.3 7 5 C4.69 5 2.38 5 0 5 C0 3.35 0 1.7 0 0 Z " fill="#F7F6F7" transform="translate(1297,464)"/>
<path d="M0 0 C0.99 0.33 1.98 0.66 3 1 C3.17835515 5.54805635 2.99785435 8.8794254 1 13 C0.34 13 -0.32 13 -1 13 C-0.67 8.71 -0.34 4.42 0 0 Z " fill="#4E4E4D" transform="translate(1316,467)"/>
<path d="M0 0 C0.91007812 0.00902344 1.82015625 0.01804687 2.7578125 0.02734375 C3.45648437 0.03894531 4.15515625 0.05054688 4.875 0.0625 C4.875 0.3925 4.875 0.7225 4.875 1.0625 C3.225 1.0625 1.575 1.0625 -0.125 1.0625 C-0.125 1.7225 -0.125 2.3825 -0.125 3.0625 C0.865 3.3925 1.855 3.7225 2.875 4.0625 C-2.54038462 4.43173077 -2.54038462 4.43173077 -5.5 2.5625 C-6.03625 2.0675 -6.5725 1.5725 -7.125 1.0625 C-4.60024538 -0.19987731 -2.81299534 -0.03606404 0 0 Z " fill="#6E6E6E" transform="translate(1300.125,451.9375)"/>
<path d="M0 0 C0 3 0 3 -2.25 5.625 C-4.85730848 7.87676642 -5.80056111 8.38472329 -9 9 C-8.07161713 7.68103535 -7.13194268 6.37001311 -6.1875 5.0625 C-5.66542969 4.33160156 -5.14335938 3.60070312 -4.60546875 2.84765625 C-3 1 -3 1 0 0 Z " fill="#5C5C5C" transform="translate(1027,387)"/>
<path d="M0 0 C1.125 1.75 1.125 1.75 2 4 C1.375 6.1875 1.375 6.1875 0 8 C-2.125 8.75 -2.125 8.75 -4 9 C-3.35455571 5.51460083 -1.89865603 2.97180943 0 0 Z " fill="#555555" transform="translate(1314,476)"/>
<path d="M0 0 C0.99 0 1.98 0 3 0 C1.25 5.75 1.25 5.75 -1 8 C-1.99 7.01 -2.98 6.02 -4 5 C-2.1875 2.5 -2.1875 2.5 0 0 Z " fill="#5B5B5B" transform="translate(533,319)"/>
<path d="M0 0 C0.99 0.33 1.98 0.66 3 1 C2.34 4.3 1.68 7.6 1 11 C0.34 10.67 -0.32 10.34 -1 10 C-0.67 6.7 -0.34 3.4 0 0 Z " fill="#5E5E5E" transform="translate(852,392)"/>
<path d="M0 0 C3.48331435 3.01887244 4.79157144 5.56909529 6 10 C5.34 10.66 4.68 11.32 4 12 C2.66666667 8 1.33333333 4 0 0 Z " fill="#565757" transform="translate(655,309)"/>
<path d="M0 0 C1.65 0 3.3 0 5 0 C4 3 4 3 2.125 4.25 C0 5 0 5 -3 4 C-2.67 3.34 -2.34 2.68 -2 2 C-1.34 2 -0.68 2 0 2 C0 1.34 0 0.68 0 0 Z " fill="#4B4B4B" transform="translate(1234,290)"/>
<path d="M0 0 C1.32 0.66 2.64 1.32 4 2 C1.6875 3.5625 1.6875 3.5625 -1 5 C-1.99 4.67 -2.98 4.34 -4 4 C-2.68 2.68 -1.36 1.36 0 0 Z " fill="#5B5B5A" transform="translate(325,477)"/>
<path d="M0 0 C1.32 0.33 2.64 0.66 4 1 C3.44855089 5.08072342 3.08669204 5.91330796 0 9 C0 6.03 0 3.06 0 0 Z " fill="#747474" transform="translate(1315,464)"/>
<path d="M0 0 C1.64350079 3.28700157 2.41321669 5.47930015 3 9 C1.68 9 0.36 9 -1 9 C-0.67 6.03 -0.34 3.06 0 0 Z " fill="#5A5A5A" transform="translate(1038,332)"/>
<path d="M0 0 C-0.8125 2.4375 -0.8125 2.4375 -2 5 C-2.99 5.33 -3.98 5.66 -5 6 C-4.625 3.5625 -4.625 3.5625 -4 1 C-2 0 -2 0 0 0 Z " fill="#4B4B49" transform="translate(1288,461)"/>
<path d="M0 0 C0.33 0 0.66 0 1 0 C1.19477739 1.62414378 1.38059458 3.24936423 1.5625 4.875 C1.66691406 5.77992188 1.77132813 6.68484375 1.87890625 7.6171875 C2 10 2 10 1 12 C0.01 11.67 -0.98 11.34 -2 11 C-1.34 7.37 -0.68 3.74 0 0 Z " fill="#7A7A7B" transform="translate(1235,342)"/>
<path d="M0 0 C1.65 0.33 3.3 0.66 5 1 C4.34 2.32 3.68 3.64 3 5 C1.68 4.67 0.36 4.34 -1 4 C-0.67 2.68 -0.34 1.36 0 0 Z " fill="#4A4A48" transform="translate(1267,458)"/>
<path d="M0 0 C0.66 0.66 1.32 1.32 2 2 C1.01 2 0.02 2 -1 2 C-1.33 2.99 -1.66 3.98 -2 5 C-2.66 5 -3.32 5 -4 5 C-4.33 5.66 -4.66 6.32 -5 7 C-5.33 6.01 -5.66 5.02 -6 4 C-4.02 2.68 -2.04 1.36 0 0 Z " fill="#5B5B5C" transform="translate(765,300)"/>
</svg>
