<?xml version="1.0" encoding="UTF-8"?>
<svg version="1.1" xmlns="http://www.w3.org/2000/svg" width="1028" height="1024">
<path d="M0 0 C339.24 0 678.48 0 1028 0 C1028 337.92 1028 675.84 1028 1024 C688.76 1024 349.52 1024 0 1024 C0 686.08 0 348.16 0 0 Z " fill="#FDFDFD" transform="translate(0,0)"/>
<path d="M0 0 C24.95034419 20.50933287 40.47466218 49.93636191 43.85473633 82.08227539 C45.31526116 116.25855641 36.90794064 148.95582141 13.74121094 174.89648438 C-6.8844548 197.33984163 -36.22030827 213.62942514 -67.14526367 215.08227539 C-103.0467865 216.4648957 -133.8135312 205.74702886 -160.63305664 181.48803711 C-177.71457993 165.60889421 -188.23198584 145.40836945 -194.14526367 123.08227539 C-194.46624023 121.90020508 -194.7872168 120.71813477 -195.11791992 119.50024414 C-199.23882043 101.50245074 -199.03716808 80.89994347 -194.14526367 63.08227539 C-193.8281543 61.88602539 -193.51104492 60.68977539 -193.18432617 59.45727539 C-183.99514695 28.69633502 -161.88824248 2.28858592 -133.90405273 -13.15454102 C-90.03058911 -36.2950614 -38.49052053 -30.82532792 0 0 Z " fill="#828282" transform="translate(598.145263671875,474.917724609375)"/>
<path d="M0 0 C2.36756815 3.23567648 2.51857418 5.29536106 2.31640625 9.234375 C1.61343892 12.94206111 -0.01118618 15.45783595 -2.125 18.5625 C-1.135 18.2325 -0.145 17.9025 0.875 17.5625 C9.57147059 17.14838235 9.57147059 17.14838235 12.875 19.5625 C15.35886059 23.28829089 15.2554212 25.14961402 14.875 29.5625 C13.5 32.3125 13.5 32.3125 11.875 34.5625 C11.215 35.5525 10.555 36.5425 9.875 37.5625 C11.36 37.0675 11.36 37.0675 12.875 36.5625 C17.48524548 36.10903323 20.53070983 35.83745523 24.3125 38.6875 C27.18329846 41.90839583 27.96245867 43.2770253 27.875 47.5625 C26.4396726 51.22258487 24.87060362 53.99483976 21.875 56.5625 C22.761875 56.48 23.64875 56.3975 24.5625 56.3125 C28.70126618 56.62485971 30.15586874 57.4434965 32.875 60.5625 C33.65033967 65.79604278 32.64698157 69.12732949 29.875 73.5625 C26.53258559 77.87498297 22.78566423 81.7668553 18.875 85.5625 C20.73451078 90.72359114 23.63900586 95.04080825 26.609375 99.625 C27.875 102.5625 27.875 102.5625 26.94921875 105.21484375 C26.59472656 105.98957031 26.24023438 106.76429688 25.875 107.5625 C26.53491277 109.46125737 26.53491277 109.46125737 27.9375 111.125 C30.3042931 114.55750381 32.12861049 117.99351301 33.8125 121.8125 C34.25464844 122.80765625 34.69679688 123.8028125 35.15234375 124.828125 C35.875 127.5625 35.875 127.5625 35.00390625 129.921875 C34.63136719 130.46328125 34.25882812 131.0046875 33.875 131.5625 C29.74285346 129.96643392 27.15269526 126.95926334 24.25 123.75 C23.76015625 123.22857422 23.2703125 122.70714844 22.765625 122.16992188 C20.00294277 119.14682288 18.106247 116.48076252 16.875 112.5625 C14.895 112.8925 12.915 113.2225 10.875 113.5625 C10.03594435 112.44176138 9.20392169 111.31575453 8.375 110.1875 C7.67890625 109.24777344 7.67890625 109.24777344 6.96875 108.2890625 C5.875 106.5625 5.875 106.5625 5.875 104.5625 C3.43019921 104.75078772 3.43019921 104.75078772 0.875 105.5625 C0.17105388 106.87653276 -0.48845658 108.2145257 -1.125 109.5625 C-2.50751953 110.66078125 -2.50751953 110.66078125 -3.91796875 111.78125 C-7.23863908 114.48298029 -9.38095036 117.624079 -11.5 121.3125 C-12.00273438 122.13814453 -12.00273438 122.13814453 -12.515625 122.98046875 C-20.9473421 137.28976966 -26.58704548 152.74710673 -32 168.375 C-32.73348997 170.4704678 -33.46772028 172.56567659 -34.20263672 174.66064453 C-36.52411729 181.28975085 -38.82668723 187.92533107 -41.125 194.5625 C-41.50454834 195.6581427 -41.88409668 196.7537854 -42.27514648 197.88262939 C-45.69765179 207.76457517 -49.11522405 217.64822187 -52.52612305 227.53417969 C-57.79907915 242.80514829 -63.18685659 258.03168758 -68.6484375 273.23608398 C-72.7711142 284.72143119 -76.80549309 296.23511372 -80.8012085 307.76519775 C-85.57536276 321.52624827 -90.37061992 335.28173904 -95.3583374 348.96707153 C-95.90213189 350.46429767 -96.44139814 351.9631779 -96.97564697 353.46383667 C-103.50645163 371.77312487 -103.50645163 371.77312487 -110.0770483 375.74144077 C-115.693774 378.32573108 -120.31616527 379.13712021 -126.46508789 379.06420898 C-127.79377647 379.07231346 -127.79377647 379.07231346 -129.14930725 379.08058167 C-132.04910701 379.09299035 -134.94789861 379.07663189 -137.84765625 379.05859375 C-139.87829134 379.05874891 -141.90892672 379.06024065 -143.93955994 379.06300354 C-148.18355492 379.06438397 -152.42721049 379.05188797 -156.67114258 379.02905273 C-162.09704437 379.00065127 -167.52238351 379.00341526 -172.94832706 379.01614285 C-177.13749454 379.02311401 -181.32653312 379.0152946 -185.51568413 379.00288582 C-187.51585838 378.99838658 -189.51604655 378.99802109 -191.516222 379.00195122 C-194.31586985 379.00487802 -197.11475541 378.98828707 -199.91430664 378.96655273 C-200.73167297 378.97105438 -201.54903931 378.97555603 -202.39117432 378.98019409 C-210.65366707 378.87420045 -217.1655248 376.55738759 -223.125 370.5625 C-224.9675293 367.44995117 -224.9675293 367.44995117 -226.51171875 363.91796875 C-226.79996017 363.26797409 -227.0882016 362.61797943 -227.38517761 361.94828796 C-228.31770144 359.82745314 -229.22374693 357.69679499 -230.125 355.5625 C-230.58232513 354.49180267 -230.58232513 354.49180267 -231.04888916 353.3994751 C-233.39021389 347.90976245 -235.66801599 342.39471427 -237.9375 336.875 C-238.67972089 335.07673592 -239.42215791 333.27856102 -240.16479492 331.48046875 C-242.49095446 325.84364405 -244.80917732 320.20357824 -247.125 314.5625 C-247.49383301 313.66416443 -247.86266602 312.76582886 -248.24267578 311.840271 C-253.4814061 299.07710935 -258.69991516 286.30571216 -263.91296387 273.53204346 C-265.60818777 269.37866807 -267.30422112 265.22562336 -269.00019836 261.07255554 C-273.65774546 249.66709673 -278.31280435 238.26062448 -282.96630859 226.85351562 C-284.29171521 223.604638 -285.61745748 220.35589807 -286.94384766 217.10742188 C-287.216147 216.44052338 -287.48844635 215.77362488 -287.76899719 215.08651733 C-288.1559803 214.13876938 -288.1559803 214.13876938 -288.55078125 213.171875 C-290.32030376 208.83802703 -292.08468325 204.50216367 -293.84375 200.1640625 C-295.40490506 196.31597567 -296.99178987 192.47970766 -298.59375 188.6484375 C-299.35423564 186.80732016 -300.11465606 184.96617587 -300.875 183.125 C-301.22336914 182.30668701 -301.57173828 181.48837402 -301.93066406 180.64526367 C-302.39037598 179.52341675 -302.39037598 179.52341675 -302.859375 178.37890625 C-303.12975586 177.73381104 -303.40013672 177.08871582 -303.67871094 176.42407227 C-304.22194627 174.15811526 -303.74579661 172.77765433 -303.125 170.5625 C-292.78082285 170.42344601 -282.43686822 170.31685174 -272.0919466 170.25162697 C-267.28825672 170.22032108 -262.48520649 170.17786227 -257.68188477 170.10986328 C-253.04584156 170.04464355 -248.41041334 170.00878837 -243.77394676 169.99323654 C-242.00564072 169.9821548 -240.23736814 169.96051393 -238.46932411 169.92811966 C-235.99093695 169.8845187 -233.51508627 169.87856699 -231.03637695 169.88134766 C-230.30629425 169.859776 -229.57621155 169.83820435 -228.82400513 169.815979 C-224.7294307 169.86564329 -223.28532278 170.41021493 -220.27835083 173.26643372 C-218.37600656 176.17829216 -216.96951524 178.73584564 -215.76000977 181.98071289 C-215.36457474 183.02347382 -214.96913971 184.06623474 -214.5617218 185.14059448 C-214.15076767 186.26079987 -213.73981354 187.38100525 -213.31640625 188.53515625 C-212.87326584 189.71336945 -212.43012543 190.89158264 -211.97355652 192.10549927 C-210.78087236 195.28287555 -209.59876249 198.46380457 -208.42118835 201.64678574 C-207.18789136 204.97207459 -205.94057567 208.29209388 -204.69433594 211.61254883 C-202.71905801 216.87963932 -200.75042886 222.14915741 -198.78759766 227.42089844 C-195.77736567 235.50214914 -192.73417657 243.57062145 -189.67654419 251.6340332 C-188.87669962 253.74551324 -188.07950603 255.85797713 -187.28295898 257.97070312 C-183.987645 266.70230734 -180.64142609 275.41335632 -177.2734375 284.1171875 C-176.01373241 287.37981577 -174.7544514 290.64260747 -173.49523926 293.90542603 C-172.27228024 297.06739431 -171.0419942 300.22644697 -169.81152344 303.38549805 C-169.06409918 305.32066411 -168.31701208 307.25596044 -167.5703125 309.19140625 C-167.22108734 310.08121185 -166.87186218 310.97101746 -166.51205444 311.88778687 C-166.19628448 312.71058136 -165.88051453 313.53337585 -165.55517578 314.38110352 C-165.27763458 315.09557144 -165.00009338 315.81003937 -164.71414185 316.54615784 C-164.125 318.5625 -164.125 318.5625 -164.125 322.5625 C-163.465 322.5625 -162.805 322.5625 -162.125 322.5625 C-161.95653564 321.48427979 -161.95653564 321.48427979 -161.78466797 320.38427734 C-161.08281001 317.38202928 -160.02611173 315.12725646 -158.5703125 312.4140625 C-158.03664063 311.40601563 -157.50296875 310.39796875 -156.953125 309.359375 C-156.39109375 308.31265625 -155.8290625 307.2659375 -155.25 306.1875 C-151.07181146 298.38684257 -147.12251303 290.5196948 -143.3359375 282.5234375 C-138.46887874 272.26155103 -133.43186292 262.09112927 -128.34375 251.9375 C-127.95241756 251.1563319 -127.56108513 250.3751638 -127.15789413 249.57032394 C-123.90575631 243.08002894 -120.64842763 236.59234242 -117.39093018 230.10473633 C-114.56034439 224.46683869 -111.73162474 218.82801109 -108.90625 213.1875 C-108.51768578 212.41180916 -108.12912155 211.63611832 -107.72878265 210.83692169 C-101.77848074 198.94994466 -95.96010842 187.0090414 -90.28175354 174.98936462 C-88.58106789 171.42133246 -86.84155254 167.8725958 -85.09989929 164.32441711 C-77.28367413 148.2955812 -71.42560314 131.86182757 -67.125 114.5625 C-66.80402344 113.29921875 -66.48304688 112.0359375 -66.15234375 110.734375 C-62.48424892 94.69712318 -64.05429656 79.3622362 -67.125 63.375 C-71.71351989 39.31606601 -71.71351989 39.31606601 -70.125 30.5625 C-66.94316561 26.97256234 -63.23652539 24.9736983 -59.125 22.5625 C-56.6906894 20.7598604 -54.34973301 18.84841208 -52 16.9375 C-48.05752708 13.81691068 -44.10607928 10.71647054 -40 7.8125 C-39.33742188 7.34328125 -38.67484375 6.8740625 -37.9921875 6.390625 C-36.125 5.5625 -36.125 5.5625 -34.0703125 5.796875 C-32.125 6.5625 -32.125 6.5625 -29.125 8.5625 C-27.76955078 7.60537109 -27.76955078 7.60537109 -26.38671875 6.62890625 C-25.1954474 5.7940783 -24.0040337 4.95945346 -22.8125 4.125 C-21.92014648 3.49368164 -21.92014648 3.49368164 -21.00976562 2.84960938 C-14.46639253 -1.71978524 -7.51344764 -3.45618591 0 0 Z " fill="#424242" transform="translate(424.125,306.4375)"/>
<path d="M0 0 C0.84111328 -0.0049649 1.68222656 -0.00992981 2.54882812 -0.01504517 C5.32756369 -0.02963453 8.10624221 -0.03646255 10.88500977 -0.04199219 C12.81787619 -0.04774522 14.75074261 -0.05350294 16.68360901 -0.05926514 C20.73455063 -0.06976519 24.78547247 -0.07561473 28.83642578 -0.07910156 C34.02617629 -0.08459164 39.21566516 -0.10863485 44.40533352 -0.13707352 C48.39704657 -0.15569707 52.38869647 -0.16090529 56.3804493 -0.16243744 C58.29380795 -0.1654639 60.2071655 -0.17349219 62.12048149 -0.18662262 C64.7966698 -0.20368112 67.47221685 -0.20180368 70.1484375 -0.1953125 C70.93769119 -0.20452728 71.72694489 -0.21374207 72.54011536 -0.22323608 C78.58588347 -0.17730961 81.72158841 1.22739149 85.92041016 5.4621582 C87.9755236 8.68978701 88.14161306 10.54324001 88.13500977 14.34472656 C88.1356543 15.51970703 88.13629883 16.6946875 88.13696289 17.90527344 C88.11698242 19.12408203 88.09700195 20.34289062 88.07641602 21.59863281 C88.08350586 22.81357422 88.0905957 24.02851563 88.09790039 25.28027344 C88.0220119 35.93384963 88.0220119 35.93384963 84.63891602 41.16113281 C80.34902098 44.57003205 77.53881773 45.65836524 72.08276367 45.61523438 C70.80188873 45.61493225 69.52101379 45.61463013 68.20132446 45.61431885 C66.81853604 45.59389693 65.43575408 45.57303302 64.05297852 45.55175781 C62.62666622 45.54428955 61.2003436 45.53859938 59.77401733 45.53460693 C56.0353724 45.51939629 52.29735744 45.48015538 48.55895996 45.43579102 C44.06526202 45.38751023 39.57135242 45.3692824 35.07746887 45.34597778 C28.26418091 45.30730002 21.4522729 45.23061747 14.63891602 45.16113281 C14.63891602 64.96113281 14.63891602 84.76113281 14.63891602 105.16113281 C28.71430413 105.00336693 28.71430413 105.00336693 42.7890625 104.80078125 C44.5710351 104.78908426 46.35301851 104.77889484 48.13500977 104.77050781 C49.03900513 104.75004395 49.94300049 104.72958008 50.87438965 104.70849609 C57.88893493 104.70469572 64.24121861 106.00885047 69.52561951 110.91156006 C74.69426163 116.53439662 76.10807871 121.75321826 75.95532227 129.30957031 C75.31210628 135.10645513 72.99439005 139.46679027 69.38891602 143.97363281 C62.56454988 149.40210587 56.87014905 150.74534289 48.23266602 150.55175781 C47.26735962 150.54609802 46.30205322 150.54043823 45.30749512 150.53460693 C42.25077885 150.51237244 39.19527273 150.46220056 36.13891602 150.41113281 C34.05559972 150.39105109 31.97226488 150.37280327 29.88891602 150.35644531 C24.80512262 150.31255006 19.72222387 150.24361285 14.63891602 150.16113281 C14.64779846 151.16622894 14.65668091 152.17132507 14.66583252 153.20687866 C14.74715789 162.71032896 14.80699594 172.21370801 14.8461647 181.71742821 C14.86697925 186.60261999 14.89518404 191.48752932 14.94067383 196.37255859 C14.98435136 201.09287898 15.00809918 205.81292884 15.01842499 210.53343582 C15.02577722 212.32825601 15.0401339 214.12306253 15.06183624 215.91776657 C15.20801239 228.51472769 14.75974607 238.91858041 5.52172852 248.46582031 C-1.21520708 254.53185775 -8.37741476 255.07586813 -17.21655273 254.66503906 C-24.0755002 254.04573152 -28.79825104 251.17528225 -33.22436523 245.96972656 C-38.00606905 239.22512762 -39.662684 233.08243693 -39.6217804 224.83146667 C-39.62560594 224.00781264 -39.62943149 223.18415861 -39.63337296 222.33554536 C-39.64366785 219.5835761 -39.63971748 216.83181686 -39.63574219 214.07983398 C-39.64009065 212.1034272 -39.64527425 210.1270221 -39.65122986 208.15061951 C-39.66461786 202.7868862 -39.66519865 197.42322337 -39.66266656 192.05947661 C-39.66159653 187.57897128 -39.66648113 183.0984802 -39.67127198 178.61797792 C-39.68236687 168.04503108 -39.68280492 157.47211977 -39.67675781 146.89916992 C-39.67071966 135.99967501 -39.6830251 125.10030924 -39.70432788 114.20083636 C-39.72195541 104.83673728 -39.72794334 95.47267926 -39.72469014 86.1085642 C-39.72287869 80.51863648 -39.72549954 74.92880084 -39.73940468 69.33888817 C-39.75199677 64.08000188 -39.75002573 58.82131651 -39.73699379 53.56243324 C-39.73463133 51.63597673 -39.7373508 49.70950602 -39.74561691 47.7830658 C-39.75611436 45.14572917 -39.7479598 42.50906298 -39.73530579 39.87174988 C-39.74268007 39.11608661 -39.75005436 38.36042335 -39.7576521 37.5818612 C-39.65469967 27.32646329 -35.49138838 18.65552333 -28.54467773 11.21582031 C-20.13065124 3.36272891 -11.34984867 0.01603423 0 0 Z " fill="#424242" transform="translate(820.361083984375,448.8388671875)"/>
<path d="M0 0 C6.77426667 5.78100517 10.52772234 12.24958008 12 21 C12.08263667 22.71758657 12.11787873 24.43790288 12.11352539 26.1574707 C12.11341209 27.65846062 12.11341209 27.65846062 12.11329651 29.18977356 C12.10813522 30.2576561 12.10297394 31.32553864 12.09765625 32.42578125 C12.0962413 33.52850876 12.09482635 34.63123627 12.09336853 35.76737976 C12.08778004 39.28244767 12.07522959 42.79745141 12.0625 46.3125 C12.05748352 48.69856679 12.05292087 51.08463457 12.04882812 53.47070312 C12.03781437 59.3138239 12.02108764 65.15690737 12 71 C13.30412842 70.97824707 14.60825684 70.95649414 15.9519043 70.93408203 C17.68017073 70.91648855 19.40844263 70.89942674 21.13671875 70.8828125 C22.42298157 70.85924683 22.42298157 70.85924683 23.73522949 70.83520508 C30.41776647 70.78704843 35.8209985 71.39988889 41 76 C45.02183257 80.6091996 47.33003149 85.084935 47.5625 91.25 C47.0109181 98.77263821 43.69806974 102.6388364 38.23046875 107.484375 C32.65614371 111.27218256 27.10467631 111.25934736 20.625 111.125 C19.79355469 111.11597656 18.96210937 111.10695313 18.10546875 111.09765625 C16.07018663 111.0742622 14.03505436 111.03839725 12 111 C12.06122011 123.80451433 12.1383332 136.60882499 12.23571491 149.41311836 C12.28043471 155.35873178 12.3196875 161.30427642 12.34643555 167.25 C12.37245215 172.98838199 12.41284343 178.72649953 12.46318626 184.46471786 C12.479866 186.65351954 12.49137337 188.84236697 12.49761391 191.0312233 C12.50724271 194.09808296 12.53528829 197.16426436 12.56762695 200.23095703 C12.56619186 201.13510849 12.56475677 202.03925995 12.5632782 202.97080994 C12.63911918 208.05937414 13.18824025 211.58549224 16 216 C19.84310072 219.59515874 23.55607808 220.14152632 28.6875 220.125 C29.47511719 220.12757813 30.26273438 220.13015625 31.07421875 220.1328125 C35.07318436 219.95128402 39.02696192 219.47791854 43 219 C43.14099121 219.76554199 43.28198242 220.53108398 43.42724609 221.31982422 C44.0757189 224.83836013 44.72535187 228.35668091 45.375 231.875 C45.59671875 233.07898438 45.8184375 234.28296875 46.046875 235.5234375 C47.18279206 241.67075336 48.34246959 247.80606981 49.65478516 253.91845703 C50 256 50 256 50 260 C48.00127261 260.48444764 46.00094063 260.9622766 44 261.4375 C42.329375 261.83775391 42.329375 261.83775391 40.625 262.24609375 C21.17137326 266.291945 -2.64939751 266.26721558 -20.109375 255.7265625 C-33.09708032 246.6150328 -39.04140377 234.26817777 -42 219 C-42.35973727 215.23053527 -42.38279741 211.50793272 -42.34057617 207.72363281 C-42.34123329 206.1409259 -42.34123329 206.1409259 -42.34190369 204.52624512 C-42.33983597 201.08500792 -42.31660091 197.64427566 -42.29296875 194.203125 C-42.28736562 191.79889187 -42.28309891 189.39465528 -42.28010559 186.99041748 C-42.26871337 180.69728958 -42.23929495 174.40437314 -42.20599365 168.11132812 C-42.17517104 161.67581034 -42.1615743 155.24025801 -42.14648438 148.8046875 C-42.11441957 136.20303538 -42.06387781 123.601529 -42 111 C-42.67256836 111.01812744 -43.34513672 111.03625488 -44.03808594 111.05493164 C-44.92786133 111.06903076 -45.81763672 111.08312988 -46.734375 111.09765625 C-48.05260254 111.12484741 -48.05260254 111.12484741 -49.39746094 111.15258789 C-55.39105175 110.8011813 -59.53634015 107.81124691 -63.4375 103.4375 C-68.10877577 97.72250594 -67.61121694 91.07265322 -67 84 C-64.68312577 78.9028767 -60.53696718 75.23166804 -56 72 C-52.85069107 70.95023036 -50.61185544 70.89868405 -47.3125 70.9375 C-46.31863281 70.94652344 -45.32476563 70.95554687 -44.30078125 70.96484375 C-43.54152344 70.97644531 -42.78226563 70.98804688 -42 71 C-42.00666183 70.36852554 -42.01332367 69.73705109 -42.02018738 69.08644104 C-42.08682265 62.48354205 -42.13191725 55.8807394 -42.16479492 49.27758789 C-42.1798334 46.81693641 -42.20026942 44.35631151 -42.22631836 41.89575195 C-42.26291856 38.34840308 -42.27977635 34.80141023 -42.29296875 31.25390625 C-42.31619453 29.61742882 -42.31619453 29.61742882 -42.33988953 27.94789124 C-42.34185439 18.92623713 -40.85967572 11.12663263 -35 4 C-24.74844326 -5.33384096 -12.18180149 -6.70985826 0 0 Z " fill="#444444" transform="translate(716,442)"/>
<path d="M0 0 C1.07121094 -0.09796875 2.14242187 -0.1959375 3.24609375 -0.296875 C8.73150481 1.43467996 10.68367742 5.99590069 13.5625 10.75 C14.43902222 12.13662842 14.43902222 12.13662842 15.33325195 13.55126953 C17.10872407 16.40140197 18.80967018 19.28618763 20.5 22.1875 C21.38268555 23.62706055 21.38268555 23.62706055 22.28320312 25.09570312 C26.05537197 31.60170862 27.96647058 37.18719278 26.5625 44.75 C23.74737554 48.69117425 22.11437445 49.44039432 17.41015625 50.37890625 C15.14222153 50.70289692 12.86650604 50.97735607 10.5859375 51.1953125 C7.2680808 51.80401489 5.94329729 52.40010561 3.5625 54.75 C3.09204587 57.27856818 3.09204587 57.27856818 3.34765625 60.1171875 C3.38310547 61.16777344 3.41855469 62.21835937 3.45507812 63.30078125 C3.56797146 65.50933827 3.68512981 67.71768158 3.80664062 69.92578125 C4.06753537 77.96921532 4.06753537 77.96921532 1.609375 81.76953125 C-2.19599564 84.24302216 -6.01724631 85.95525991 -10.25 87.5625 C-11.43239258 88.02946289 -11.43239258 88.02946289 -12.63867188 88.50585938 C-14.56707466 89.2655332 -16.50169228 90.00939881 -18.4375 90.75 C-16.97024764 94.61293559 -15.10635852 95.75032905 -11.5 97.625 C-7.19017971 100.10641168 -4.85718365 101.78110721 -3.4375 106.75 C-2.76778076 111.27060489 -3.18228248 113.65485061 -5.8125 117.25 C-9.23615598 122.14093711 -9.35047822 127.38820373 -9.78515625 133.1640625 C-10.67666769 138.06470624 -12.77665067 141.29046574 -16.5 144.5625 C-21.84438817 147.83809275 -28.12680917 147.09177013 -34.1875 147.1875 C-35.35539062 147.23326172 -36.52328125 147.27902344 -37.7265625 147.32617188 C-47.41370013 147.45247809 -47.41370013 147.45247809 -51.51171875 144.12109375 C-68.04050784 126.77174461 -71.18655214 101.21073272 -70.8125 78.48046875 C-69.8931312 55.05954867 -57.53307122 34.65170029 -40.8671875 18.76953125 C-32.65543118 11.30154275 -22.79645059 6.54093511 -12.4375 2.75 C-11.46554687 2.39164062 -10.49359375 2.03328125 -9.4921875 1.6640625 C-6.25937011 0.69669771 -3.36781038 0.21023546 0 0 Z " fill="#FCFCFC" transform="translate(504.4375,482.25)"/>
<path d="M0 0 C2.36756815 3.23567648 2.51857418 5.29536106 2.31640625 9.234375 C1.61343892 12.94206111 -0.01118618 15.45783595 -2.125 18.5625 C-1.135 18.2325 -0.145 17.9025 0.875 17.5625 C9.57147059 17.14838235 9.57147059 17.14838235 12.875 19.5625 C15.35886059 23.28829089 15.2554212 25.14961402 14.875 29.5625 C13.5 32.3125 13.5 32.3125 11.875 34.5625 C11.215 35.5525 10.555 36.5425 9.875 37.5625 C10.865 37.2325 11.855 36.9025 12.875 36.5625 C17.48524548 36.10903323 20.53070983 35.83745523 24.3125 38.6875 C27.18329846 41.90839583 27.96245867 43.2770253 27.875 47.5625 C26.4396726 51.22258487 24.87060362 53.99483976 21.875 56.5625 C22.761875 56.48 23.64875 56.3975 24.5625 56.3125 C28.70126618 56.62485971 30.15586874 57.4434965 32.875 60.5625 C33.65033967 65.79604278 32.64698157 69.12732949 29.875 73.5625 C26.53258559 77.87498297 22.78566423 81.7668553 18.875 85.5625 C20.73451078 90.72359114 23.63900586 95.04080825 26.609375 99.625 C27.875 102.5625 27.875 102.5625 26.94921875 105.21484375 C26.59472656 105.98957031 26.24023438 106.76429688 25.875 107.5625 C26.53491277 109.46125737 26.53491277 109.46125737 27.9375 111.125 C30.3042931 114.55750381 32.12861049 117.99351301 33.8125 121.8125 C34.25464844 122.80765625 34.69679688 123.8028125 35.15234375 124.828125 C35.875 127.5625 35.875 127.5625 35.00390625 129.921875 C34.63136719 130.46328125 34.25882812 131.0046875 33.875 131.5625 C29.74285346 129.96643392 27.15269526 126.95926334 24.25 123.75 C23.76015625 123.22857422 23.2703125 122.70714844 22.765625 122.16992188 C20.00294277 119.14682288 18.106247 116.48076252 16.875 112.5625 C13.905 113.0575 13.905 113.0575 10.875 113.5625 C10.03594435 112.44176138 9.20392169 111.31575453 8.375 110.1875 C7.9109375 109.56101562 7.446875 108.93453125 6.96875 108.2890625 C5.875 106.5625 5.875 106.5625 5.875 104.5625 C3.895 105.0575 3.895 105.0575 1.875 105.5625 C1.400625 104.36625 0.92625 103.17 0.4375 101.9375 C-1.35524177 98.27490929 -3.13865056 96.6416738 -6.625 94.5625 C-11.52153264 91.64232732 -13.044166 88.80982053 -15.125 83.5625 C-18.52951771 84.69733924 -18.7255564 85.11527937 -20.3125 88.125 C-20.910625 89.259375 -21.50875 90.39375 -22.125 91.5625 C-23.125 89.5625 -23.125 89.5625 -22.12890625 86.5234375 C-21.65324219 85.34007812 -21.17757813 84.15671875 -20.6875 82.9375 C-20.21441406 81.74898438 -19.74132812 80.56046875 -19.25390625 79.3359375 C-18.69509766 77.96308594 -18.69509766 77.96308594 -18.125 76.5625 C-20.6 77.0575 -20.6 77.0575 -23.125 77.5625 C-27.125 70.8125 -27.125 70.8125 -27.125 68.5625 C-30.93484844 71.33329887 -31.19340752 75.19118145 -32.125 79.5625 C-32.455 79.5625 -32.785 79.5625 -33.125 79.5625 C-33.17398437 78.36753906 -33.22296875 77.17257812 -33.2734375 75.94140625 C-33.74178387 59.75602106 -33.74178387 59.75602106 -40.8828125 45.60546875 C-42.125 43.5625 -42.125 43.5625 -42.125 39.5625 C-40.625 37.3125 -40.625 37.3125 -39.125 35.5625 C-36.51577566 36.55559796 -34.04634991 37.60454336 -31.58203125 38.921875 C-25.60848999 42.0630577 -21.80111051 43.09148343 -15.21875 41.37109375 C-12.8756771 40.55351037 -12.8756771 40.55351037 -10.125 38.5625 C-9.12164827 33.96380458 -9.31347564 31.83827479 -11.859375 27.8359375 C-15.97369583 22.68594281 -20.33817106 18.17870765 -25.59375 14.1953125 C-27.56231424 12.09618022 -27.78191301 10.3739073 -28.125 7.5625 C-26.19037998 6.24575862 -24.25220303 4.93424202 -22.3125 3.625 C-21.23355469 2.89410156 -20.15460938 2.16320312 -19.04296875 1.41015625 C-13.1839643 -2.29976223 -6.33662513 -2.91484756 0 0 Z " fill="#F6F6F6" transform="translate(424.125,306.4375)"/>
<path d="M0 0 C6.25710947 0.21969045 11.33560009 2.68595278 16.9375 5.3125 C17.79279297 5.70373047 18.64808594 6.09496094 19.52929688 6.49804688 C21.21797147 7.27475991 22.90221434 8.06119164 24.58154297 8.85791016 C26.16970714 9.60790329 27.76768251 10.33752783 29.37548828 11.04443359 C34.76211224 13.49944719 34.76211224 13.49944719 35.90478516 15.90380859 C36 18 36 18 34.80004883 19.75170898 C34.19185303 20.32735596 33.58365723 20.90300293 32.95703125 21.49609375 C32.29509766 22.13740234 31.63316406 22.77871094 30.95117188 23.43945312 C30.24541016 24.09880859 29.53964844 24.75816406 28.8125 25.4375 C27.44181746 26.7464053 26.07327199 28.05755275 24.70703125 29.37109375 C24.05428223 29.99097168 23.4015332 30.61084961 22.72900391 31.24951172 C20.81972413 33.09465153 20.81972413 33.09465153 18.88671875 35.91015625 C16.32981117 38.74234167 14.77490526 38.7862095 11 39 C7.7890625 37.78515625 7.7890625 37.78515625 4.625 36.0625 C3.56539062 35.49660156 2.50578125 34.93070313 1.4140625 34.34765625 C0.61742187 33.90292969 -0.17921875 33.45820312 -1 33 C-0.18653633 70.75992561 3.23415767 107.11048241 13.36572266 143.63574219 C15.66562745 152.20859747 17.89055258 161.0944742 17 170 C15.06169098 172.42572006 14.02558953 172.99147016 11 174 C8.94312467 174.19696481 6.87782521 174.31204753 4.8125 174.375 C3.72582031 174.42398438 2.63914062 174.47296875 1.51953125 174.5234375 C-2.36631537 173.94552024 -5.18911947 173.32283278 -8.44995117 171.10498047 C-12.1047698 166.14170338 -10.50255135 158.7516915 -10.0625 152.875 C-9.98262261 151.40123783 -9.90641639 149.92727185 -9.83398438 148.453125 C-9.5145054 142.35261015 -9.04364311 136.2712525 -8.4453125 130.19140625 C-7.90406404 124.47804965 -7.80819124 118.79917713 -7.8125 113.0625 C-7.81330566 111.89444824 -7.81411133 110.72639648 -7.81494141 109.52294922 C-7.93217261 91.44865634 -8.87211354 73.38831372 -9.87042236 55.34448242 C-9.98654314 53.24347855 -10.09875262 51.14225935 -10.21044922 49.04101562 C-10.72157796 35.26838473 -10.72157796 35.26838473 -16.07421875 22.8046875 C-17 21 -17 21 -16.76953125 18.8828125 C-16 17 -16 17 -14 15 C-13.61289619 12.63269799 -13.61289619 12.63269799 -13.5 10 C-13.22222222 5.22222222 -13.22222222 5.22222222 -11 3 C-8.69640663 2.6217981 -6.42238974 2.49496037 -4.09375 2.34375 C-1.78487741 2.17368193 -1.78487741 2.17368193 0 0 Z " fill="#F9F9F9" transform="translate(701,512)"/>
<path d="M0 0 C4.03449937 3.11232808 5.39433848 8.84578425 6.1328125 13.71484375 C6.32754537 18.9819043 5.84694254 24.95617698 2.77734375 29.37109375 C-0.1802326 30.72402761 -2.99251895 31.16116868 -6.22265625 31.37109375 C-4.26255067 31.37109375 -2.30369522 31.24728981 -0.34765625 31.12109375 C2.6579606 31.13745827 3.60255217 31.25904787 6.21484375 32.93359375 C8.21390589 36.05213069 8.49594851 38.71295558 8.77734375 42.37109375 C7.68421875 42.20609375 6.59109375 42.04109375 5.46484375 41.87109375 C-1.90260491 41.81865639 -7.58137748 48.10825522 -12.8671875 52.63671875 C-15.22265625 54.37109375 -15.22265625 54.37109375 -18.22265625 54.37109375 C-19.609375 52.69140625 -19.609375 52.69140625 -20.91015625 50.49609375 C-21.34714844 49.77679688 -21.78414063 49.0575 -22.234375 48.31640625 C-23.22265625 46.37109375 -23.22265625 46.37109375 -23.22265625 44.37109375 C-24.50140625 44.49484375 -25.78015625 44.61859375 -27.09765625 44.74609375 C-34.01870346 44.73519446 -39.38029686 41.20215151 -44.1875 36.4140625 C-45.59647668 34.78628002 -46.91998475 33.08513519 -48.22265625 31.37109375 C-41.50988752 16.71326057 -25.91624755 7.57656499 -11.5078125 1.91015625 C-3.15024211 -0.89136903 -3.15024211 -0.89136903 0 0 Z " fill="#444544" transform="translate(385.22265625,269.62890625)"/>
<path d="M0 0 C4.95 0 9.9 0 15 0 C18.48427907 6.66990565 21.38076543 13.34910119 23.984375 20.41015625 C24.75820577 22.8915863 24.75820577 22.8915863 26 24 C29.3 16.08 32.6 8.16 36 0 C40.95 0 45.9 0 51 0 C51 14.52 51 29.04 51 44 C47.04 44 43.08 44 39 44 C38.505 33.605 38.505 33.605 38 23 C37.43410156 24.43214844 36.86820313 25.86429688 36.28515625 27.33984375 C35.54440649 29.20578303 34.80351369 31.07166552 34.0625 32.9375 C33.68931641 33.88302734 33.31613281 34.82855469 32.93164062 35.80273438 C32.57392578 36.70185547 32.21621094 37.60097656 31.84765625 38.52734375 C31.51773682 39.35999756 31.18781738 40.19265137 30.84790039 41.05053711 C30 43 30 43 29 44 C26.66702567 44.04092937 24.33294775 44.04241723 22 44 C21.24655149 42.23063117 20.49748383 40.4593969 19.75 38.6875 C19.33234375 37.70136719 18.9146875 36.71523438 18.484375 35.69921875 C16.53682217 30.84571208 14.78720477 25.91481313 13 21 C12.67 28.92 12.34 36.84 12 45 C8.04 45 4.08 45 0 45 C0 30.15 0 15.3 0 0 Z " fill="#898988" transform="translate(692,728)"/>
<path d="M0 0 C9.23724795 2.92512852 14.29433704 14.17056456 18.75146484 22.25927734 C21.23415607 27.05348157 23.05663067 32.07166692 24.75 37.1875 C25.1625 38.425 25.575 39.6625 26 40.9375 C31.22374024 63.57370772 27.01537815 87.29561498 15.546875 107.3359375 C13.40089736 110.74151072 11.17716772 114.05532776 8.8125 117.3125 C8.22045776 118.16618164 8.22045776 118.16618164 7.61645508 119.03710938 C5.25222987 122.1645281 3.90163071 123.14919161 0.0546875 124.12109375 C-3.25 124.1875 -3.25 124.1875 -5.1875 123.125 C-6.73098305 120.31041326 -6.56892777 118.36510965 -6.25 115.1875 C-4.52734375 112.6875 -4.52734375 112.6875 -2.1875 110.1875 C8.91375001 97.35550393 15.160571 80.08347334 15.125 63.125 C15.12338867 62.30717041 15.12177734 61.48934082 15.12011719 60.64672852 C14.77484261 43.16466403 8.29599391 25.23671687 -3.6875 12.375 C-5.85200998 9.96162924 -6.2305679 9.29977436 -6.8125 5.9375 C-6.25 3.1875 -6.25 3.1875 -5.1875 1.25 C-3.25 0.1875 -3.25 0.1875 0 0 Z " fill="#FAFAFA" transform="translate(588.25,517.8125)"/>
<path d="M0 0 C5.71668976 2.40586558 8.68248723 7.07622167 11.5234375 12.4140625 C13.63161104 18.73858313 13.33780172 26.36317943 10.5234375 32.4140625 C7.49457642 37.63623677 4.37777491 41.05485421 -1.1015625 43.6640625 C-8.26919739 45.25687025 -15.25904265 45.51484757 -21.7578125 41.74609375 C-26.40299026 38.14608098 -29.26908505 33.12213773 -30.4765625 27.4140625 C-31.20465979 18.96293318 -30.37532474 11.96025603 -25.1640625 5.1015625 C-18.24481466 -1.81768534 -9.22344754 -2.18220368 0 0 Z " fill="#888887" transform="translate(244.4765625,728.5859375)"/>
<path d="M0 0 C5.90688584 3.34309409 9.30882754 8.82882637 11.41796875 15.15625 C12.00729133 22.06945724 11.9083383 28.99882067 8.41796875 35.15625 C3.94096671 40.32506251 -0.75984549 43.66952471 -7.671875 44.3671875 C-13.86171057 44.6422913 -19.48573866 43.80421063 -24.30859375 39.6796875 C-29.96729054 33.57498505 -32.21400705 26.96462597 -31.93359375 18.6796875 C-30.98271834 11.85451515 -27.87573463 6.54615036 -22.58203125 2.15625 C-16.29287572 -2.41565384 -7.27705544 -2.37797878 0 0 Z " fill="#878787" transform="translate(395.58203125,728.84375)"/>
<path d="M0 0 C5.4759375 -0.0928125 5.4759375 -0.0928125 11.0625 -0.1875 C12.76805054 -0.22846802 12.76805054 -0.22846802 14.50805664 -0.27026367 C20.4716648 -0.31902108 24.77708735 0.03355433 30 3 C34.49601094 7.85095917 35.34516162 10.98847047 35.2890625 17.44921875 C34.87181114 21.13118006 33.44497358 23.27560087 31 26 C30.01 26.33 29.02 26.66 28 27 C28.5775 27.97582031 29.155 28.95164062 29.75 29.95703125 C30.50034023 31.24198889 31.2503216 32.52715612 32 33.8125 C32.3815625 34.45509766 32.763125 35.09769531 33.15625 35.75976562 C36 40.66015625 36 40.66015625 36 44 C31.71 44 27.42 44 23 44 C21.99515796 42.04414675 20.99626195 40.08523763 20 38.125 C19.443125 37.03445313 18.88625 35.94390625 18.3125 34.8203125 C17 32 17 32 17 30 C15.35 30 13.7 30 12 30 C12 34.62 12 39.24 12 44 C8.04 44 4.08 44 0 44 C0 29.48 0 14.96 0 0 Z " fill="#878787" transform="translate(654,728)"/>
<path d="M0 0 C5.4759375 -0.0928125 5.4759375 -0.0928125 11.0625 -0.1875 C12.76805054 -0.22846802 12.76805054 -0.22846802 14.50805664 -0.27026367 C20.4716648 -0.31902108 24.77708735 0.03355433 30 3 C34.28366233 7.6218462 35.2978649 10.53448698 35.21875 16.67578125 C34.90542425 20.00486735 33.8754099 22.25386408 32 25 C29.890625 26.16015625 29.890625 26.16015625 28 27 C28.5775 28.05960938 29.155 29.11921875 29.75 30.2109375 C30.50021788 31.59884058 31.25020601 32.98686787 32 34.375 C32.3815625 35.07367187 32.763125 35.77234375 33.15625 36.4921875 C36 41.7734375 36 41.7734375 36 44 C31.71 44 27.42 44 23 44 C21.99515796 42.04414675 20.99626195 40.08523763 20 38.125 C19.443125 37.03445313 18.88625 35.94390625 18.3125 34.8203125 C17 32 17 32 17 30 C15.35 30 13.7 30 12 30 C12 34.62 12 39.24 12 44 C8.04 44 4.08 44 0 44 C0 29.48 0 14.96 0 0 Z " fill="#868685" transform="translate(782,728)"/>
<path d="M0 0 C1.48831242 0.00667405 2.97660807 0.01863442 4.46484375 0.03515625 C5.22345703 0.03966797 5.98207031 0.04417969 6.76367188 0.04882812 C8.64326246 0.06064945 10.52281274 0.07858547 12.40234375 0.09765625 C15.74631774 8.0863082 18.59948175 16.22505791 21.40380859 24.4140625 C22.16087719 26.62254963 22.92398058 28.8288921 23.6875 31.03515625 C24.17093332 32.44128239 24.65401937 33.84752799 25.13671875 35.25390625 C25.3647821 35.91217407 25.59284546 36.57044189 25.82781982 37.24865723 C27.40234375 41.86805619 27.40234375 41.86805619 27.40234375 44.09765625 C23.11234375 44.09765625 18.82234375 44.09765625 14.40234375 44.09765625 C12.40234375 39.09765625 12.40234375 39.09765625 12.40234375 36.09765625 C7.45234375 36.09765625 2.50234375 36.09765625 -2.59765625 36.09765625 C-3.25765625 38.40765625 -3.91765625 40.71765625 -4.59765625 43.09765625 C-5.59765625 44.09765625 -5.59765625 44.09765625 -8.3203125 44.1953125 C-9.42246094 44.18371094 -10.52460937 44.17210937 -11.66015625 44.16015625 C-12.76488281 44.15113281 -13.86960937 44.14210938 -15.0078125 44.1328125 C-16.28978516 44.11541016 -16.28978516 44.11541016 -17.59765625 44.09765625 C-16.17520234 35.52034434 -13.58472927 27.50932695 -10.80200195 19.29907227 C-10.02695252 17.01093682 -9.2618543 14.71964423 -8.49804688 12.42773438 C-8.0096854 10.97246457 -7.52077374 9.51737925 -7.03125 8.0625 C-6.80207382 7.37719711 -6.57289764 6.69189423 -6.33677673 5.98582458 C-4.34105945 0.11783549 -4.34105945 0.11783549 0 0 Z " fill="#888888" transform="translate(624.59765625,727.90234375)"/>
<path d="M0 0 C3.96 0 7.92 0 12 0 C12 5.61 12 11.22 12 17 C17.28 17 22.56 17 28 17 C28 11.39 28 5.78 28 0 C31.96 0 35.92 0 40 0 C40 14.52 40 29.04 40 44 C36.04 44 32.08 44 28 44 C28 38.39 28 32.78 28 27 C22.72 27 17.44 27 12 27 C12 32.61 12 38.22 12 44 C8.04 44 4.08 44 0 44 C0 29.48 0 14.96 0 0 Z " fill="#898988" transform="translate(492,728)"/>
<path d="M0 0 C3.90094598 2.74755894 7.50302065 5.88732812 10 10 C10 10.66 10 11.32 10 12 C9.09121094 12.1959375 8.18242187 12.391875 7.24609375 12.59375 C-9.86773219 16.66596294 -23.56889779 24.45925547 -34.7109375 38.3359375 C-35.46632813 39.21507812 -36.22171875 40.09421875 -37 41 C-37.66 41 -38.32 41 -39 41 C-44.02672869 33.45990697 -43.98338609 25.72863936 -43 17 C-40.63108953 8.58327201 -35.15613467 3.18828878 -27.87109375 -1.31640625 C-18.58145069 -6.08586521 -8.96682606 -4.97987273 0 0 Z " fill="#444444" transform="translate(373,255)"/>
<path d="M0 0 C3.5012759 2.23485696 5.08365916 4.16731832 6.9375 7.875 C6.9375 9.525 6.9375 11.175 6.9375 12.875 C3.3075 12.875 -0.3225 12.875 -4.0625 12.875 C-4.3925 11.885 -4.7225 10.895 -5.0625 9.875 C-7.80155345 8.50547327 -10.03337332 8.74878639 -13.0625 8.875 C-14.0525 9.37 -14.0525 9.37 -15.0625 9.875 C-15.04663751 11.84414095 -15.04663751 11.84414095 -14.0625 13.875 C-11.25965074 15.10564502 -11.25965074 15.10564502 -7.875 15.875 C-1.70580624 17.60480679 2.19526286 19.22417076 6.8125 23.6875 C8.47366141 26.91753607 8.308435 29.28929498 7.9375 32.875 C5.85418295 38.29162433 3.58676363 40.61659977 -1.5625 43.0625 C-7.87901177 44.52883309 -14.30330312 44.77800989 -20.5 42.75 C-25.05089174 39.42007921 -27.70148135 36.59678126 -28.875 31 C-28.936875 29.96875 -28.99875 28.9375 -29.0625 27.875 C-25.1025 27.875 -21.1425 27.875 -17.0625 27.875 C-16.7325 29.525 -16.4025 31.175 -16.0625 32.875 C-12.4325 32.875 -8.8025 32.875 -5.0625 32.875 C-5.0625 31.225 -5.0625 29.575 -5.0625 27.875 C-5.908125 27.71644531 -6.75375 27.55789063 -7.625 27.39453125 C-23.13758472 24.20387462 -23.13758472 24.20387462 -27.625 17.5625 C-28.44650357 12.51612094 -28.02380084 8.47716807 -25.375 4.0625 C-18.64102932 -2.30747227 -8.68632679 -3.15866429 0 0 Z " fill="#888888" transform="translate(848.0625,729.125)"/>
<path d="M0 0 C2.89229884 1.24034068 3.81611502 2.54978758 6 5 C7.31116277 8.62497942 7.21624777 10.35125669 6 14 C1.49737964 20.75393054 -5.37777771 24.68139889 -12.3125 28.625 C-13.10333984 29.0890625 -13.89417969 29.553125 -14.70898438 30.03125 C-31.01445529 39.40921377 -31.01445529 39.40921377 -39 38 C-42.80870487 34.85367858 -44.7062174 32.66476806 -45.5625 27.8125 C-44.85095563 22.98981035 -43.44779969 21.81565955 -39.72265625 18.87890625 C-34.6293558 15.36401742 -29.33625787 12.22835803 -23.97119141 9.14941406 C-22.02538042 8.01479948 -20.11119563 6.83901672 -18.19921875 5.6484375 C-16.98716856 4.91114689 -15.77493632 4.17415546 -14.5625 3.4375 C-12.95568359 2.44556641 -12.95568359 2.44556641 -11.31640625 1.43359375 C-7.08617559 -0.39502186 -4.57884433 -0.41839543 0 0 Z " fill="#424242" transform="translate(445,343)"/>
<path d="M0 0 C7.66337749 2.80008024 11.05626113 10.27984136 14.5625 17.1875 C15.06885986 18.18342163 15.06885986 18.18342163 15.58544922 19.19946289 C21.78450813 31.96601239 22.72849771 47.77462739 18.125 61.25 C14.70409391 70.11544677 10.94421813 79.25654019 3.25 85.1875 C-0.10554876 85.77965566 -1.74032034 85.82696378 -4.625 84 C-6.1433915 81.55370258 -6.01273996 80.03526215 -5.75 77.1875 C-4.578125 75.23046875 -4.578125 75.23046875 -3 73.375 C0.07307818 69.53365228 2.24739441 65.66675791 4.25 61.1875 C4.8378125 59.888125 4.8378125 59.888125 5.4375 58.5625 C9.26070884 47.38696647 8.4132534 34.77935295 3.75 24.1015625 C1.15538204 19.06097657 -1.87570609 14.50433552 -5.4375 10.1015625 C-6.75 8.1875 -6.75 8.1875 -6.625 5.625 C-5.2202083 1.71165171 -4.27933336 0.29177273 0 0 Z " fill="#FAFAFA" transform="translate(563.75,536.8125)"/>
<path d="M0 0 C10.23 0 20.46 0 31 0 C31 3.3 31 6.6 31 10 C24.73 10 18.46 10 12 10 C12 12.31 12 14.62 12 17 C17.94 17 23.88 17 30 17 C30 20.3 30 23.6 30 27 C24.06 27 18.12 27 12 27 C12 29.64 12 32.28 12 35 C18.27 35 24.54 35 31 35 C31 37.97 31 40.94 31 44 C20.77 44 10.54 44 0 44 C0 29.48 0 14.96 0 0 Z " fill="#888887" transform="translate(747,728)"/>
<path d="M0 0 C10.23 0 20.46 0 31 0 C31 3.3 31 6.6 31 10 C24.73 10 18.46 10 12 10 C12 12.31 12 14.62 12 17 C17.94 17 23.88 17 30 17 C30 20.3 30 23.6 30 27 C24.06 27 18.12 27 12 27 C12 29.64 12 32.28 12 35 C18.27 35 24.54 35 31 35 C31 37.97 31 40.94 31 44 C20.77 44 10.54 44 0 44 C0 29.48 0 14.96 0 0 Z " fill="#8A8989" transform="translate(320,728)"/>
<path d="M0 0 C4.29 0 8.58 0 13 0 C17.78058093 14.17168261 17.78058093 14.17168261 19.8125 20.6875 C20.04582031 21.43386719 20.27914062 22.18023438 20.51953125 22.94921875 C21 25 21 25 21 29 C21.66 29 22.32 29 23 29 C23.26683594 27.72125 23.53367188 26.4425 23.80859375 25.125 C24.95083943 19.98841677 26.45693032 15.00812732 28.0625 10 C28.33126953 9.14277344 28.60003906 8.28554688 28.87695312 7.40234375 C30.86998222 1.13001778 30.86998222 1.13001778 32 0 C34.18639453 -0.07258946 36.37500389 -0.08373783 38.5625 -0.0625 C40.35880859 -0.04896484 40.35880859 -0.04896484 42.19140625 -0.03515625 C43.11824219 -0.02355469 44.04507813 -0.01195312 45 0 C42.38104035 9.35946516 39.06895446 18.47414377 35.8125 27.625 C35.24782642 29.21736976 34.68337155 30.80981709 34.11914062 32.40234375 C32.74901477 36.26927751 31.37441909 40.1345795 30 44 C24.72 44 19.44 44 14 44 C12.00033137 38.21790344 10.00666021 32.43378769 8.01855469 26.64770508 C7.34117045 24.67903684 6.66214159 22.71093371 5.98144531 20.7434082 C5.00414548 17.91764402 4.03274961 15.08991021 3.0625 12.26171875 C2.75626709 11.38037766 2.45003418 10.49903656 2.13452148 9.59098816 C1.71408569 8.3600518 1.71408569 8.3600518 1.28515625 7.10424805 C1.03644775 6.38254929 0.78773926 5.66085052 0.53149414 4.9172821 C0 3 0 3 0 0 Z " fill="#878787" transform="translate(170,728)"/>
<path d="M0 0 C10.23 0 20.46 0 31 0 C31 3.3 31 6.6 31 10 C24.73 10 18.46 10 12 10 C12 12.64 12 15.28 12 18 C17.61 18 23.22 18 29 18 C29 20.97 29 23.94 29 27 C23.39 27 17.78 27 12 27 C12 29.64 12 32.28 12 35 C18.27 35 24.54 35 31 35 C31 37.97 31 40.94 31 44 C20.77 44 10.54 44 0 44 C0 29.48 0 14.96 0 0 Z " fill="#868686" transform="translate(536,728)"/>
<path d="M0 0 C3.74319913 2.27811904 6.75964489 5.35579478 8.4375 9.4375 C8.4375 11.4175 8.4375 13.3975 8.4375 15.4375 C4.4775 15.4375 0.5175 15.4375 -3.5625 15.4375 C-4.2225 13.7875 -4.8825 12.1375 -5.5625 10.4375 C-8.55247825 8.94251087 -11.26292775 9.32172554 -14.5625 9.4375 C-15.5525 9.7675 -16.5425 10.0975 -17.5625 10.4375 C-18.66361689 13.74085066 -18.76476528 16.33582137 -18.8125 19.8125 C-18.83828125 20.93398438 -18.8640625 22.05546875 -18.890625 23.2109375 C-18.52658677 26.79064675 -17.77593844 28.62225111 -15.5625 31.4375 C-12.20657137 32.77410145 -12.20657137 32.77410145 -8.5625 32.4375 C-5.64459475 30.1870803 -5.64459475 30.1870803 -3.5625 27.4375 C-2.5625 26.4375 -2.5625 26.4375 -0.05859375 26.33984375 C0.95074219 26.35144531 1.96007812 26.36304688 3 26.375 C4.01191406 26.38402344 5.02382813 26.39304687 6.06640625 26.40234375 C6.84886719 26.41394531 7.63132812 26.42554688 8.4375 26.4375 C8.21320339 31.93276683 6.96740001 34.92587145 3.15625 38.92578125 C-2.18135379 43.62044641 -7.73177225 44.03653978 -14.62109375 43.85546875 C-20.42079486 43.03134124 -23.99818361 40.08414883 -27.9375 35.9375 C-32.68305304 28.63664917 -32.34703862 20.81967578 -31.5625 12.4375 C-30.05665063 7.28959635 -27.34175187 3.65771866 -23.125 0.375 C-16.38059838 -3.3107451 -6.96581411 -3.04010863 0 0 Z " fill="#878786" transform="translate(307.5625,729.5625)"/>
<path d="M0 0 C2.36756815 3.23567648 2.51857418 5.29536106 2.31640625 9.234375 C1.61343892 12.94206111 -0.01118618 15.45783595 -2.125 18.5625 C-1.135 18.2325 -0.145 17.9025 0.875 17.5625 C9.57147059 17.14838235 9.57147059 17.14838235 12.875 19.5625 C15.35886059 23.28829089 15.2554212 25.14961402 14.875 29.5625 C11.34448947 36.80457288 3.21489258 41.660682 -4.125 44.5625 C-7 44.75 -7 44.75 -9.125 44.5625 C-9.455 43.9025 -9.785 43.2425 -10.125 42.5625 C-9.815625 41.840625 -9.50625 41.11875 -9.1875 40.375 C-7.63404388 36.26291027 -7.31370845 32.38790598 -9.125 28.3125 C-9.455 27.735 -9.785 27.1575 -10.125 26.5625 C-10.125 25.5725 -10.125 24.5825 -10.125 23.5625 C-8.125 21.875 -8.125 21.875 -6.125 20.5625 C-6.8675 20.913125 -7.61 21.26375 -8.375 21.625 C-11.38410312 22.65083061 -12.22087455 22.61199328 -15.125 21.5625 C-16.68066406 20.34741211 -16.68066406 20.34741211 -18.140625 18.83984375 C-18.66914063 18.30166016 -19.19765625 17.76347656 -19.7421875 17.20898438 C-20.28101563 16.64501953 -20.81984375 16.08105469 -21.375 15.5 C-21.92929687 14.93216797 -22.48359375 14.36433594 -23.0546875 13.77929688 C-24.41834214 12.38037531 -25.77260417 10.97230886 -27.125 9.5625 C-25.67866256 5.95838346 -23.93363332 4.44847432 -20.6875 2.375 C-19.90503906 1.86582031 -19.12257813 1.35664063 -18.31640625 0.83203125 C-12.6735303 -2.43701453 -5.89051848 -2.7096385 0 0 Z " fill="#444443" transform="translate(424.125,306.4375)"/>
<path d="M0 0 C10.23 0 20.46 0 31 0 C31 3.3 31 6.6 31 10 C24.73 10 18.46 10 12 10 C12 12.64 12 15.28 12 18 C17.61 18 23.22 18 29 18 C29 20.97 29 23.94 29 27 C23.39 27 17.78 27 12 27 C12 32.61 12 38.22 12 44 C8.04 44 4.08 44 0 44 C0 29.48 0 14.96 0 0 Z " fill="#878887" transform="translate(581,728)"/>
<path d="M0 0 C10.23 0 20.46 0 31 0 C31 3.3 31 6.6 31 10 C24.73 10 18.46 10 12 10 C12 12.64 12 15.28 12 18 C17.61 18 23.22 18 29 18 C29 20.97 29 23.94 29 27 C23.39 27 17.78 27 12 27 C12 32.61 12 38.22 12 44 C8.04 44 4.08 44 0 44 C0 29.48 0 14.96 0 0 Z " fill="#888888" transform="translate(410,728)"/>
<path d="M0 0 C1.875 1.125 1.875 1.125 3 3 C3.76132462 9.72503414 1.61989152 14.04914519 -2.3125 19.3125 C-8.69604879 26.51404123 -19.79313295 33.50376463 -29.2578125 35.46875 C-33.01691678 35.53166388 -34.89208197 35.07419365 -38 32.9375 C-40.52975133 29.22192774 -40.7878128 27.4117517 -40 23 C-38.36980192 20.80766465 -37.13040924 19.62830838 -35 18 C-34.29101562 17.43925781 -33.58203125 16.87851562 -32.8515625 16.30078125 C-27.00947848 11.86978521 -20.8740314 7.86758968 -14.6875 3.9375 C-13.92284424 3.43589355 -13.15818848 2.93428711 -12.37036133 2.41748047 C-7.92043679 -0.35198836 -5.26965797 -1.79920037 0 0 Z " fill="#434342" transform="translate(454,364)"/>
<path d="M0 0 C12.54 0 25.08 0 38 0 C38 3.3 38 6.6 38 10 C33.71 10 29.42 10 25 10 C25 21.22 25 32.44 25 44 C21.04 44 17.08 44 13 44 C13 32.78 13 21.56 13 10 C8.71 10 4.42 10 0 10 C0 6.7 0 3.4 0 0 Z " fill="#878787" transform="translate(452,728)"/>
<path d="M0 0 C1.6953125 2.01171875 1.6953125 2.01171875 3.125 4.6875 C3.60195313 5.55761719 4.07890625 6.42773438 4.5703125 7.32421875 C5.04210937 8.20722656 5.51390625 9.09023438 6 10 C6.5775 10.886875 7.155 11.77375 7.75 12.6875 C8.1625 13.450625 8.575 14.21375 9 15 C8.62875 15.763125 8.2575 16.52625 7.875 17.3125 C6.70265618 19.86763546 6.70265618 19.86763546 7.79296875 21.671875 C8.67902056 22.99141062 9.57431178 24.30476846 10.4765625 25.61328125 C12.25418603 28.39822478 13.60473161 31.22734019 14.9375 34.25 C15.37964844 35.24515625 15.82179688 36.2403125 16.27734375 37.265625 C17 40 17 40 16.12890625 42.359375 C15.75636719 42.90078125 15.38382812 43.4421875 15 44 C10.86785346 42.40393392 8.27769526 39.39676334 5.375 36.1875 C4.88515625 35.66607422 4.3953125 35.14464844 3.890625 34.60742188 C1.12794277 31.58432288 -0.768753 28.91826252 -2 25 C-3.98 25.33 -5.96 25.66 -8 26 C-16.4546773 14.19670051 -16.4546773 14.19670051 -19 9 C-18 6 -18 6 -15.8203125 4.90234375 C-14.93085938 4.58394531 -14.04140625 4.26554687 -13.125 3.9375 C-1.56055046 -0.26009174 -1.56055046 -0.26009174 0 0 Z " fill="#434342" transform="translate(443,394)"/>
<path d="M0 0 C5.87915421 4.68628234 8.50716225 10.9228877 9.38671875 18.19921875 C9.82184006 26.98866922 8.08857662 33.75227963 3 41 C0.66752081 43.06043095 -0.48462588 43.9120093 -3.5625 44.4375 C-6 44 -6 44 -7.8125 42.3125 C-9.30473074 39.40657698 -9.58894506 38.23919781 -9 35 C-8.19569228 33.75164739 -7.35830175 32.52436354 -6.5 31.3125 C-3.40429561 26.60702932 -2.89136603 22.50905803 -4 17 C-5.13274929 14.53919982 -6.39080523 12.34916892 -7.90625 10.10546875 C-9.23612189 7.54546535 -9.27446036 5.84870928 -9 3 C-6.73377119 -0.65114641 -4.03390382 -0.79096153 0 0 Z " fill="#FAFBFA" transform="translate(543,558)"/>
<path d="M0 0 C3.96 0 7.92 0 12 0 C12 14.52 12 29.04 12 44 C8.04 44 4.08 44 0 44 C0 29.48 0 14.96 0 0 Z " fill="#878786" transform="translate(260,728)"/>
<path d="M0 0 C3.69501767 2.97207943 5.6808316 5.25305882 6.23828125 10.05078125 C6.4194823 15.57264493 5.72103642 18.64107162 2 23 C-1 25 -1 25 -4.4375 24.9375 C-8.64636465 23.82990404 -9.71022453 22.61079978 -12 19 C-13.85270108 15.29459784 -13.53759832 10.90940092 -12.43359375 6.98828125 C-9.86342529 0.56958829 -6.74108687 -0.81357945 0 0 Z " fill="#F8F8F8" transform="translate(239,738)"/>
<path d="M0 0 C4.07562329 0.69372311 5.99087736 1.3843376 8.6875 4.5625 C10.92004468 9.80897999 10.65130415 14.5727288 8.6875 19.875 C5.85641892 24.12162162 5.85641892 24.12162162 2.9375 25.5 C-1.20130201 25.5 -3.26483742 25.28910091 -6.24609375 22.33984375 C-9.41461311 17.38605111 -8.88005133 12.17309534 -8.0625 6.5 C-6.39337549 2.53671713 -4.35533061 0.71107438 0 0 Z " fill="#F9F9F9" transform="translate(385.0625,737.5)"/>
<path d="M0 0 C0.639375 0.639375 1.27875 1.27875 1.9375 1.9375 C2.39125 2.38222656 2.845 2.82695312 3.3125 3.28515625 C4.61906672 4.61289419 5.88176274 5.98387865 7.125 7.37109375 C7.888125 8.19738281 8.65125 9.02367187 9.4375 9.875 C10.15808594 10.67679687 10.87867188 11.47859375 11.62109375 12.3046875 C13.94085961 14.33612491 13.94085961 14.33612491 17.13671875 13.79296875 C18.08160156 13.53128906 19.02648437 13.26960938 20 13 C21.175625 12.7215625 21.175625 12.7215625 22.375 12.4375 C22.91125 12.293125 23.4475 12.14875 24 12 C22.71034824 13.37562854 21.37310707 14.70766393 20 16 C19.34 16 18.68 16 18 16 C18.495 17.010625 18.99 18.02125 19.5 19.0625 C22.03340489 25.01780249 21.31948496 30.0563198 19 36 C25.07032142 35.73607298 28.75725749 33.55489169 33.765625 30.1796875 C34.87164062 29.59574219 34.87164062 29.59574219 36 29 C36.99 29.33 37.98 29.66 39 30 C35.24408647 33.17972225 31.29003424 35.68373101 27 38.0625 C22.1527057 40.75519295 22.1527057 40.75519295 17.46875 43.71875 C14.34055111 45.34224562 12.01103186 45.43339833 8.5 45.4375 C7.3965625 45.45683594 6.293125 45.47617187 5.15625 45.49609375 C1.29857781 44.88975171 -0.37072769 43.86963489 -3 41 C-3.3125 38.25 -3.3125 38.25 -3 36 C-1.98679687 35.89042969 -0.97359375 35.78085937 0.0703125 35.66796875 C1.42194461 35.50840107 2.77350343 35.34821167 4.125 35.1875 C4.79015625 35.11724609 5.4553125 35.04699219 6.140625 34.97460938 C10.64054021 34.42314918 14.06760451 33.23570772 18 31 C18.76488376 26.49568455 18.75145038 24.19277838 16.27734375 20.265625 C12.14339613 15.13187187 7.78748755 10.61670683 2.53125 6.6328125 C0.56268576 4.53368022 0.34308699 2.8114073 0 0 Z " fill="#D6D6D6" transform="translate(396,314)"/>
<path d="M0 0 C7.00897689 1.72931766 13.50288191 3.83967342 20 7 C20 7.66 20 8.32 20 9 C19.01 9 18.02 9 17 9 C16.62746094 10.18722656 16.25492187 11.37445313 15.87109375 12.59765625 C13.6196381 19.34938219 10.81235456 25.87809897 8.0625 32.4375 C7.01056415 34.95655029 5.9603084 37.47629944 4.91015625 39.99609375 C4.41402832 41.1857373 3.91790039 42.37538086 3.40673828 43.60107422 C1.56470778 48.05174216 -0.2303684 52.52011003 -2 57 C-3.30683085 53.07950745 -2.38757508 51.48526055 -1.05078125 47.6015625 C-0.83689255 46.97075775 -0.62300385 46.339953 -0.40263367 45.69003296 C0.28565012 43.66536094 0.98606589 41.64514952 1.6875 39.625 C2.59044058 36.99327824 3.48902431 34.36007793 4.38671875 31.7265625 C4.6072995 31.0798761 4.82788025 30.4331897 5.05514526 29.76690674 C6.52253259 25.44879865 7.95359097 21.1209664 9.33203125 16.7734375 C9.65534424 15.75427246 9.97865723 14.73510742 10.31176758 13.68505859 C11.16552847 10.8161865 11.16552847 10.8161865 11 7 C8.03 6.505 8.03 6.505 5 6 C-3.5429448 28.48379923 -3.5429448 28.48379923 -12 51 C-13.33017715 47.00946856 -12.29296116 45.37297902 -10.875 41.4375 C-8.54522924 34.8102134 -6.58325832 28.13446497 -4.78857422 21.34350586 C-3.81430144 17.71366031 -2.73520313 14.21605636 -1.36328125 10.71484375 C0.1183335 6.67754969 0.26359983 4.21759721 0 0 Z " fill="#ECECEC" transform="translate(374,414)"/>
<path d="M0 0 C0.99 0.33 1.98 0.66 3 1 C2.3702124 1.39791748 1.7404248 1.79583496 1.09155273 2.20581055 C-1.79446365 4.03094353 -4.67849165 5.85919578 -7.5625 7.6875 C-8.55314453 8.31333984 -9.54378906 8.93917969 -10.56445312 9.58398438 C-20.29359085 15.19007741 -20.29359085 15.19007741 -28 23 C-28.41857482 26.83693587 -28.54644269 29.11203064 -26.5 32.4375 C-23.78684989 34.13321882 -21.76820224 34.73288232 -18.55859375 34.60546875 C-14.34628031 33.60866175 -10.61505633 31.55072413 -6.83642578 29.4909668 C-2.26257731 27 -2.26257731 27 1 27 C-1.46546667 30.6982 -4.02268905 31.46970976 -8 33 C-9.81284637 33.72830509 -11.6253378 34.45749423 -13.4375 35.1875 C-14.95799227 35.7925245 -16.47870673 36.3969924 -18 37 C-16.8905928 40.48670834 -15.73662334 43.77484237 -14 47 C-15.485 47.495 -15.485 47.495 -17 48 C-17.474375 46.80375 -17.94875 45.6075 -18.4375 44.375 C-20.23024177 40.71240929 -22.01365056 39.0791738 -25.5 37 C-30.39653264 34.07982732 -31.919166 31.24732053 -34 26 C-37.40451771 27.13483924 -37.6005564 27.55277937 -39.1875 30.5625 C-40.0846875 32.2640625 -40.0846875 32.2640625 -41 34 C-41.33 33.34 -41.66 32.68 -42 32 C-41.2578125 29.79296875 -41.2578125 29.79296875 -40.125 27.1875 C-38.6544123 23.78869415 -37.6170771 20.65651005 -37 17 C-36.40316406 16.96003906 -35.80632812 16.92007812 -35.19140625 16.87890625 C-22.91719708 15.40162402 -11.40821483 8.23566774 -1.6640625 0.8984375 C-1.11492187 0.60195313 -0.56578125 0.30546875 0 0 Z " fill="#EBEBEA" transform="translate(443,364)"/>
<path d="M0 0 C3.24969769 -0.11638036 6.4988583 -0.18730581 9.75 -0.25 C10.67039062 -0.28351563 11.59078125 -0.31703125 12.5390625 -0.3515625 C19.40898911 -0.45112665 19.40898911 -0.45112665 22.640625 2.015625 C23.08921875 2.67046875 23.5378125 3.3253125 24 4 C23.44570313 3.83757812 22.89140625 3.67515625 22.3203125 3.5078125 C19.77480661 2.95071525 17.47882312 2.86722739 14.875 2.875 C14.00617188 2.87242187 13.13734375 2.86984375 12.2421875 2.8671875 C9.96280551 2.85462066 9.96280551 2.85462066 8 4 C11.96 4.33 15.92 4.66 20 5 C19 7 19 7 17 8.125 C12.92362534 9.31394261 9.21108984 9.61681424 5 9 C1.9375 7.3125 1.9375 7.3125 0 5 C-0.12109375 2.35546875 -0.12109375 2.35546875 0 0 Z " fill="#474747" transform="translate(393,350)"/>
<path d="M0 0 C7.33834586 -0.36090226 7.33834586 -0.36090226 10.0625 1.125 C11.495401 3.990802 10.84910305 5.99548152 10 9 C6.78548731 10.60725635 3.56387464 10.05748185 0 10 C0 6.7 0 3.4 0 0 Z " fill="#FAFAF9" transform="translate(794,738)"/>
<path d="M0 0 C7.33834586 -0.36090226 7.33834586 -0.36090226 10.0625 1.125 C11.495401 3.990802 10.84910305 5.99548152 10 9 C6.78548731 10.60725635 3.56387464 10.05748185 0 10 C0 6.7 0 3.4 0 0 Z " fill="#F9F9F9" transform="translate(666,738)"/>
<path d="M0 0 C2.98479194 4.47718792 4 8.63824093 4 14 C1.36 14 -1.28 14 -4 14 C-3.46148032 8.72250715 -2.22656164 4.74354436 0 0 Z " fill="#F4F4F4" transform="translate(629,741)"/>
<path d="M0 0 C0.639375 0.639375 1.27875 1.27875 1.9375 1.9375 C2.618125 2.60458984 2.618125 2.60458984 3.3125 3.28515625 C4.61906672 4.61289419 5.88176274 5.98387865 7.125 7.37109375 C7.888125 8.19738281 8.65125 9.02367187 9.4375 9.875 C10.15808594 10.67679687 10.87867188 11.47859375 11.62109375 12.3046875 C13.94085961 14.33612491 13.94085961 14.33612491 17.13671875 13.79296875 C18.08160156 13.53128906 19.02648437 13.26960938 20 13 C21.175625 12.7215625 21.175625 12.7215625 22.375 12.4375 C22.91125 12.293125 23.4475 12.14875 24 12 C22.71034824 13.37562854 21.37310707 14.70766393 20 16 C19.34 16 18.68 16 18 16 C18.350625 16.763125 18.70125 17.52625 19.0625 18.3125 C20 21 20 21 19 24 C18.28714844 23.13117188 17.57429688 22.26234375 16.83984375 21.3671875 C10.83843971 13.96324225 10.83843971 13.96324225 3.875 7.5 C1 5 1 5 0.0625 2.125 C0.041875 1.42375 0.02125 0.7225 0 0 Z " fill="#EAEAEA" transform="translate(396,314)"/>
<path d="M0 0 C0.99 0.99 1.98 1.98 3 3 C1.55086744 7.12829098 0.08915372 11.25201497 -1.375 15.375 C-1.7875 16.550625 -2.2 17.72625 -2.625 18.9375 C-3.02460938 20.05898438 -3.42421875 21.18046875 -3.8359375 22.3359375 C-4.20251465 23.37282715 -4.5690918 24.4097168 -4.94677734 25.47802734 C-6 28 -6 28 -8 30 C-6.56745232 23.21973791 -4.81020502 16.59034598 -2.875 9.9375 C-2.59785156 8.97650391 -2.32070313 8.01550781 -2.03515625 7.02539062 C-1.35920711 4.68287721 -0.68078301 2.34111223 0 0 Z " fill="#D3D3D1" transform="translate(369,435)"/>
<path d="M0 0 C0.33 0.99 0.66 1.98 1 3 C-0.32 3 -1.64 3 -3 3 C-7.49182273 3.47551869 -10.05996813 5.22198675 -13.625 7.9375 C-15.03652344 9.00291016 -15.03652344 9.00291016 -16.4765625 10.08984375 C-17.72566406 11.03537109 -17.72566406 11.03537109 -19 12 C-19.99 12.66 -20.98 13.32 -22 14 C-22 13.01 -22 12.02 -22 11 C-19.85010561 9.10654239 -17.76172495 7.46324133 -15.4375 5.8125 C-14.82841797 5.34908203 -14.21933594 4.88566406 -13.59179688 4.40820312 C-9.2574852 1.29391992 -6.47386888 0.57893316 -1 1 C-0.67 0.67 -0.34 0.34 0 0 Z " fill="#D7D7D8" transform="translate(394,310)"/>
<path d="M0 0 C0.90105469 0.00902344 1.80210937 0.01804687 2.73046875 0.02734375 C3.41753906 0.03894531 4.10460937 0.05054688 4.8125 0.0625 C5.1425 1.0525 5.4725 2.0425 5.8125 3.0625 C1.5225 3.0625 -2.7675 3.0625 -7.1875 3.0625 C-7.5175 2.4025 -7.8475 1.7425 -8.1875 1.0625 C-5.17259443 0.05753148 -3.14568308 -0.04085303 0 0 Z " fill="#E8E8E8" transform="translate(408.1875,351.9375)"/>
<path d="M0 0 C1.32 0 2.64 0 4 0 C4 2.64 4 5.28 4 8 C2.02 8 0.04 8 -2 8 C-1.34 7.67 -0.68 7.34 0 7 C0 4.69 0 2.38 0 0 Z " fill="#919291" transform="translate(560,747)"/>
<path d="M0 0 C4.29 0 8.58 0 13 0 C12.67 0.66 12.34 1.32 12 2 C9.24921116 2.91692961 7.64051087 3.10886083 4.8125 3.0625 C2.9253125 3.0315625 2.9253125 3.0315625 1 3 C0.67 2.01 0.34 1.02 0 0 Z " fill="#3C3C3C" transform="translate(400,355)"/>
<path d="M0 0 C0.99 0.33 1.98 0.66 3 1 C2.44271087 4.34373475 1.64826111 7.03312999 0 10 C-0.66 9.67 -1.32 9.34 -2 9 C-1.125 2.25 -1.125 2.25 0 0 Z " fill="#E6E7E6" transform="translate(372,427)"/>
<path d="M0 0 C0.99 0.33 1.98 0.66 3 1 C2.54917531 2.46067199 2.08906463 3.91848032 1.625 5.375 C1.36976563 6.18710937 1.11453125 6.99921875 0.8515625 7.8359375 C0 10 0 10 -2 12 C-1.85831863 10.56208484 -1.71148957 9.1246763 -1.5625 7.6875 C-1.48128906 6.88699219 -1.40007812 6.08648437 -1.31640625 5.26171875 C-1 3 -1 3 0 0 Z " fill="#E3E3E4" transform="translate(380,441)"/>
<path d="M0 0 C0.66 0.33 1.32 0.66 2 1 C-1.3 3.31 -4.6 5.62 -8 8 C-8.33 7.34 -8.66 6.68 -9 6 C-6.45368965 3.02930459 -3.57769851 1.5224249 0 0 Z " fill="#E7E8E7" transform="translate(429,373)"/>
<path d="M0 0 C0.99 0.33 1.98 0.66 3 1 C1.5361389 5.39158329 -0.97831338 5.87947433 -5 8 C-5.66 7.34 -6.32 6.68 -7 6 C-6.21625 5.566875 -5.4325 5.13375 -4.625 4.6875 C-1.78301625 3.10779753 -1.78301625 3.10779753 0 0 Z " fill="#CCCECD" transform="translate(416,351)"/>
<path d="M0 0 C0.66 0.33 1.32 0.66 2 1 C-0.97 3.64 -3.94 6.28 -7 9 C-7.66 8.34 -8.32 7.68 -9 7 C-6.03 4.69 -3.06 2.38 0 0 Z " fill="#E7E7E6" transform="translate(380,315)"/>
<path d="M0 0 C1.37562854 1.28965176 2.70766393 2.62689293 4 4 C4 4.66 4 5.32 4 6 C-0.455 6.495 -0.455 6.495 -5 7 C-4.34 6.34 -3.68 5.68 -3 5 C-1.68 5 -0.36 5 1 5 C0.67 3.35 0.34 1.7 0 0 Z " fill="#565657" transform="translate(379,261)"/>
<path d="M0 0 C0.33 0.99 0.66 1.98 1 3 C-1.97 5.475 -1.97 5.475 -5 8 C-5.66 7.67 -6.32 7.34 -7 7 C-4.66666667 4.66666667 -2.33333333 2.33333333 0 0 Z " fill="#4C4D4C" transform="translate(421,380)"/>
<path d="M0 0 C0.99 0.33 1.98 0.66 3 1 C-1.75 5 -1.75 5 -4 5 C-2.25 1.125 -2.25 1.125 0 0 Z " fill="#E7E7E7" transform="translate(422,349)"/>
</svg>
