<?xml version="1.0" encoding="UTF-8"?>
<svg version="1.1" xmlns="http://www.w3.org/2000/svg" width="438" height="137">
<path d="M0 0 C144.54 0 289.08 0 438 0 C438 45.21 438 90.42 438 137 C293.46 137 148.92 137 0 137 C0 91.79 0 46.58 0 0 Z " fill="#010101" transform="translate(0,0)"/>
<path d="M0 0 C0.94147888 -0.01283524 1.88295776 -0.02567047 2.85296631 -0.03889465 C4.38416107 -0.04997505 4.38416107 -0.04997505 5.94628906 -0.0612793 C6.99463928 -0.06935104 8.0429895 -0.07742279 9.12310791 -0.08573914 C11.34572695 -0.09958739 13.56836733 -0.11030621 15.79101562 -0.11816406 C19.18433183 -0.13535829 22.57666923 -0.1792365 25.96972656 -0.22338867 C28.12857356 -0.2335171 30.28742885 -0.24203273 32.44628906 -0.2487793 C33.96533844 -0.27504143 33.96533844 -0.27504143 35.51507568 -0.30183411 C41.34259993 -0.28396487 44.92277589 0.13851707 49.46191406 4.17700195 C52.14218919 7.18562923 52.83418945 9.02211971 52.80249023 13.03735352 C52.80226364 13.99804749 52.80203705 14.95874146 52.80180359 15.94854736 C52.78631973 16.97784363 52.77083588 18.00713989 52.75488281 19.06762695 C52.75063797 20.12737732 52.74639313 21.18712769 52.74201965 22.2789917 C52.72523437 25.66192082 52.68758161 29.04425305 52.64941406 32.42700195 C52.63436707 34.72126418 52.62067869 37.01553575 52.60839844 39.30981445 C52.57533134 44.93241376 52.5251331 50.55466521 52.46191406 56.17700195 C51.80191406 56.17700195 51.14191406 56.17700195 50.46191406 56.17700195 C50.36910156 57.04325195 50.36910156 57.04325195 50.27441406 57.92700195 C49.03975523 61.34605718 47.58996697 62.28731419 44.46191406 64.17700195 C40.79891174 64.78587744 37.17258712 64.76130669 33.46582031 64.7434082 C32.39951889 64.74960678 31.33321747 64.75580536 30.23460388 64.76219177 C27.98282788 64.76928575 25.73099938 64.76612337 23.47924805 64.75341797 C20.03954189 64.73956289 16.60256201 64.77361954 13.16308594 64.81176758 C10.97233007 64.81271891 8.7815708 64.8108592 6.59082031 64.8059082 C5.05307701 64.82579552 5.05307701 64.82579552 3.48426819 64.84608459 C-4.48389088 64.74253501 -4.48389088 64.74253501 -8.10864258 61.88769531 C-11.47017122 58.13701171 -12.77493972 55.55413751 -12.86035156 50.51953125 C-12.87956665 49.60145187 -12.89878174 48.6833725 -12.9185791 47.73747253 C-12.92707886 46.75200943 -12.93557861 45.76654633 -12.94433594 44.7512207 C-12.96143616 43.21979179 -12.96143616 43.21979179 -12.97888184 41.65742493 C-12.99776172 39.4980584 -13.01084184 37.33863451 -13.01855469 35.17919922 C-13.03795678 31.88642111 -13.10000675 28.59614668 -13.16308594 25.30395508 C-13.17614824 23.2030584 -13.18664831 21.10214392 -13.19433594 19.0012207 C-13.21902954 18.02183029 -13.24372314 17.04243988 -13.26916504 16.03337097 C-13.23018807 10.01015434 -12.26960332 6.77405217 -8.02282715 2.42536926 C-5.32765313 0.15927258 -3.43770271 0.04076418 0 0 Z " fill="#F7F7F7" transform="translate(63.5380859375,31.822998046875)"/>
<path d="M0 0 C6.31577237 3.75761919 10.23707207 9.71108095 12.6640625 16.55078125 C14.90302161 26.15578335 13.88903414 35.65012219 9.32421875 44.3828125 C5.15187275 50.99931385 -0.40934548 53.96066724 -7.67578125 56.3828125 C-14.5488263 57.12749411 -19.93212417 56.34898679 -25.67578125 52.3828125 C-26.66578125 51.3928125 -27.65578125 50.4028125 -28.67578125 49.3828125 C-29.00578125 60.2728125 -29.33578125 71.1628125 -29.67578125 82.3828125 C-35.28578125 82.3828125 -40.89578125 82.3828125 -46.67578125 82.3828125 C-46.67578125 54.6628125 -46.67578125 26.9428125 -46.67578125 -1.6171875 C-41.06578125 -1.6171875 -35.45578125 -1.6171875 -29.67578125 -1.6171875 C-29.34578125 0.3628125 -29.01578125 2.3428125 -28.67578125 4.3828125 C-28.13308594 3.96128906 -27.59039062 3.53976563 -27.03125 3.10546875 C-26.31582031 2.55761719 -25.60039062 2.00976562 -24.86328125 1.4453125 C-24.15558594 0.90003906 -23.44789063 0.35476562 -22.71875 -0.20703125 C-15.99844345 -4.84571321 -7.00937735 -3.14706738 0 0 Z " fill="#FBFBFB" transform="translate(388.67578125,43.6171875)"/>
<path d="M0 0 C18 0 18 0 21.8203125 3.3125 C23.03808594 5.53979492 23.03808594 5.53979492 24.125 8 C25.04321111 9.72860452 25.96805877 11.45369512 26.8984375 13.17578125 C27.37893555 14.10729004 27.85943359 15.03879883 28.35449219 15.99853516 C31.44409917 21.63408832 35.14032027 26.8765936 38.75 32.1875 C42.33875 37.5396875 42.33875 37.5396875 46 43 C46.33 28.81 46.66 14.62 47 0 C52.61 0 58.22 0 64 0 C64 23.76 64 47.52 64 72 C46 72 46 72 41.49389648 68.26806641 C39.86973572 65.80020142 39.86973572 65.80020142 38.37109375 63.1015625 C37.79964127 62.19626801 37.22818878 61.29097351 36.63941956 60.35824585 C34.84245349 57.48070248 33.14140954 54.55839815 31.4375 51.625 C30.23313161 49.66302153 29.02289074 47.70463511 27.80664062 45.75 C20.30876709 33.61753418 20.30876709 33.61753418 18 29 C17.67 43.19 17.34 57.38 17 72 C11.39 72 5.78 72 0 72 C0 48.24 0 24.48 0 0 Z " fill="#FDFDFD" transform="translate(159,27)"/>
<path d="M0 0 C8.33843586 4.42542686 13.92407677 10.29543125 16.71484375 19.3515625 C17.19890875 21.81337879 17.2574091 24.11701816 17.25 26.625 C17.25386719 27.94564453 17.25386719 27.94564453 17.2578125 29.29296875 C17.125 31.4375 17.125 31.4375 16.125 32.4375 C13.2406618 32.52615208 10.38037842 32.55271296 7.49609375 32.53515625 C6.19974754 32.53303383 6.19974754 32.53303383 4.87721252 32.53086853 C2.10560708 32.52525239 -0.6659188 32.51269719 -3.4375 32.5 C-5.3118478 32.49498708 -7.18619685 32.49042381 -9.06054688 32.48632812 C-13.66539544 32.47527772 -18.27018421 32.4580023 -22.875 32.4375 C-22.25745741 33.75352523 -21.63071258 35.06523556 -21 36.375 C-20.65195312 37.10589844 -20.30390625 37.83679688 -19.9453125 38.58984375 C-19.0065023 40.60082459 -19.0065023 40.60082459 -16.875 41.4375 C-14.80153207 41.71092893 -14.80153207 41.71092893 -12.5 41.75 C-11.72914063 41.78738281 -10.95828125 41.82476562 -10.1640625 41.86328125 C-7.6958353 41.65520372 -7.6958353 41.65520372 -6.1953125 39.43359375 C-2.54126218 36.29012622 1.22777435 37.00902457 5.875 37.1875 C6.76316406 37.20554688 7.65132813 37.22359375 8.56640625 37.2421875 C10.75370848 37.28922626 12.93879816 37.35492991 15.125 37.4375 C14.18589151 43.65504584 11.08444988 48.13699013 6.125 51.9921875 C-1.80557112 57.06895462 -8.45991988 58.31434099 -17.875 57.4375 C-25.97906316 55.46472667 -32.79402213 51.17762318 -37.1875 44 C-41.04836815 35.84927835 -42.35360182 27.59096265 -40.22265625 18.72265625 C-37.47287067 11.06338225 -32.95629289 4.75998293 -25.625 1 C-17.73731663 -2.51790678 -8.13232646 -3.32686082 0 0 Z " fill="#F7F7F7" transform="translate(319.875,42.5625)"/>
<path d="M0 0 C5.94 0 11.88 0 18 0 C18 25.08 18 50.16 18 76 C12.06 76 6.12 76 0 76 C0 50.92 0 25.84 0 0 Z " fill="#F7F7F7" transform="translate(257,23)"/>
<path d="M0 0 C5.94 0 11.88 0 18 0 C18 18.81 18 37.62 18 57 C12.06 57 6.12 57 0 57 C0 38.19 0 19.38 0 0 Z " fill="#F8F8F8" transform="translate(231,42)"/>
<path d="M0 0 C4.03508571 2.01754286 6.17538418 3.93907474 9.3125 7.125 C10.04098145 7.86314941 10.04098145 7.86314941 10.78417969 8.61621094 C14.11628666 12.01916669 17.28285158 15.53244885 20.375 19.15234375 C23.60463043 22.82449566 27.11271834 26.25556305 30.703125 29.57421875 C32 31 32 31 32 33 C21.44 33 10.88 33 0 33 C0 22.11 0 11.22 0 0 Z " fill="#0B0B0B" transform="translate(67,53)"/>
<path d="M0 0 C10.56 0 21.12 0 32 0 C32 11.22 32 22.44 32 34 C24.12172775 27.24719521 24.12172775 27.24719521 21.1328125 24.046875 C20.47861328 23.34949219 19.82441406 22.65210937 19.15039062 21.93359375 C18.48201172 21.21300781 17.81363281 20.49242188 17.125 19.75 C16.42826172 19.00363281 15.73152344 18.25726563 15.01367188 17.48828125 C13.00362884 15.33052343 11.00006992 13.16700162 9 11 C8.46858398 10.42443359 7.93716797 9.84886719 7.38964844 9.25585938 C0 1.22473086 0 1.22473086 0 0 Z " fill="#090909" transform="translate(68,42)"/>
<path d="M0 0 C3.36920683 2.54409495 6.66178152 5.69396489 7.30078125 10.05078125 C7.33389192 16.44114148 6.22664724 20.43598197 1.9375 25.375 C-2.35003911 27.74683015 -6.2099225 27.91389637 -11 27 C-14.75844258 24.25946895 -16.87218745 21.51125021 -18 17 C-18.58360298 12.16058454 -18.49358161 8.93610304 -16.1875 4.5625 C-11.54421788 -0.87677334 -6.77599838 -0.99209347 0 0 Z " fill="#040404" transform="translate(377,57)"/>
<path d="M0 0 C2.87305972 1.40460697 4.74510999 2.74510999 7 5 C7.50431963 8.03764616 7.44942707 10.95689139 7 14 C4.80168636 17.03215675 3.55036806 17.81654398 0 19 C-4.19987818 19.38887761 -6.29607238 19.45908323 -9.875 17.125 C-12.77371342 14.22628658 -12.95733329 13.37180992 -13.4375 9.1875 C-13.38347254 5.4798656 -13.03761463 5.04403664 -10.4375 2 C-6.46412407 -0.31178236 -4.51990817 -0.65744119 0 0 Z " fill="#F8F8F8" transform="translate(243,17)"/>
<path d="M0 0 C3.65409572 1.6609526 5.94545919 3.53972074 8 7 C8 7.99 8 8.98 8 10 C0.74 10 -6.52 10 -14 10 C-13.02646068 5.13230342 -12.56543374 3.85264987 -8.74609375 0.94921875 C-5.7241809 -0.69356609 -3.33320407 -0.48482968 0 0 Z " fill="#0C0C0C" transform="translate(311,55)"/>
<path d="M0 0 C3.63 0 7.26 0 11 0 C11.33 1.65 11.66 3.3 12 5 C11 6 11 6 8.49609375 6.09765625 C6.98208984 6.08025391 6.98208984 6.08025391 5.4375 6.0625 C4.42558594 6.05347656 3.41367188 6.04445313 2.37109375 6.03515625 C1.58863281 6.02355469 0.80617188 6.01195313 0 6 C0 4.02 0 2.04 0 0 Z " fill="#D6D6D6" transform="translate(118,61)"/>
<path d="M0 0 C1.51400391 0.01740234 1.51400391 0.01740234 3.05859375 0.03515625 C4.07050781 0.04417969 5.08242188 0.05320313 6.125 0.0625 C7.29869141 0.07990234 7.29869141 0.07990234 8.49609375 0.09765625 C8.49609375 2.07765625 8.49609375 4.05765625 8.49609375 6.09765625 C4.86609375 6.09765625 1.23609375 6.09765625 -2.50390625 6.09765625 C-2.83390625 4.44765625 -3.16390625 2.79765625 -3.50390625 1.09765625 C-2.50390625 0.09765625 -2.50390625 0.09765625 0 0 Z " fill="#D4D3D4" transform="translate(40.50390625,60.90234375)"/>
<path d="M0 0 C1.65 0 3.3 0 5 0 C5 3.63 5 7.26 5 11 C3.35 11 1.7 11 0 11 C0 7.37 0 3.74 0 0 Z " fill="#F1F1F1" transform="translate(81,99)"/>
<path d="M0 0 C1.98 0.495 1.98 0.495 4 1 C4 4.3 4 7.6 4 11 C2.35 11 0.7 11 -1 11 C-1.02688151 9.35425434 -1.04634123 7.70838587 -1.0625 6.0625 C-1.07410156 5.14597656 -1.08570312 4.22945312 -1.09765625 3.28515625 C-1 1 -1 1 0 0 Z " fill="#F6F5F6" transform="translate(82,17)"/>
<path d="M0 0 C1.67542976 0.28604898 3.34385343 0.61781233 5 1 C5 2.98 5 4.96 5 7 C3.02 7 1.04 7 -1 7 C-1.04254356 5.00045254 -1.04080783 2.99958364 -1 1 C-0.67 0.67 -0.34 0.34 0 0 Z " fill="#C8C8C8" transform="translate(92,22)"/>
<path d="M0 0 C1.67542976 0.28604898 3.34385343 0.61781233 5 1 C5 2.98 5 4.96 5 7 C3.02 7 1.04 7 -1 7 C-1.04254356 5.00045254 -1.04080783 2.99958364 -1 1 C-0.67 0.67 -0.34 0.34 0 0 Z " fill="#CECDCE" transform="translate(71,22)"/>
<path d="M0 0 C1.98 0 3.96 0 6 0 C6 1.65 6 3.3 6 5 C4.02 5.99 4.02 5.99 2 7 C0 5 0 5 -0.125 2.375 C-0.08375 1.59125 -0.0425 0.8075 0 0 Z " fill="#DAD9D9" transform="translate(70,99)"/>
<path d="M0 0 C1.98 0 3.96 0 6 0 C6 1.65 6 3.3 6 5 C4.34385343 5.38218767 2.67542976 5.71395102 1 6 C0 5 0 5 -0.0625 2.4375 C-0.041875 1.633125 -0.02125 0.82875 0 0 Z " fill="#DADADA" transform="translate(91,99)"/>
<path d="M0 0 C1.98 0 3.96 0 6 0 C6 1.65 6 3.3 6 5 C4.35 5 2.7 5 1 5 C0.67 3.35 0.34 1.7 0 0 Z " fill="#EEEEEE" transform="translate(42,72)"/>
<path d="M0 0 C1.98 0 3.96 0 6 0 C5.67 1.65 5.34 3.3 5 5 C3.35 5 1.7 5 0 5 C0 3.35 0 1.7 0 0 Z " fill="#EDEEEE" transform="translate(119,72)"/>
<path d="M0 0 C1.65 0 3.3 0 5 0 C5.5625 1.9375 5.5625 1.9375 6 4 C5 5 5 5 2.4375 5.0625 C1.2309375 5.0315625 1.2309375 5.0315625 0 5 C0 3.35 0 1.7 0 0 Z " fill="#EFEFEF" transform="translate(119,51)"/>
<path d="M0 0 C1.2065625 0.0309375 1.2065625 0.0309375 2.4375 0.0625 C2.4375 1.7125 2.4375 3.3625 2.4375 5.0625 C0.7875 5.0625 -0.8625 5.0625 -2.5625 5.0625 C-3.125 3.125 -3.125 3.125 -3.5625 1.0625 C-2.5625 0.0625 -2.5625 0.0625 0 0 Z " fill="#EEEEEE" transform="translate(45.5625,50.9375)"/>
</svg>
