<?xml version="1.0" encoding="UTF-8"?>
<svg version="1.1" xmlns="http://www.w3.org/2000/svg" width="961" height="307">
<path d="M0 0 C317.13 0 634.26 0 961 0 C961 101.31 961 202.62 961 307 C643.87 307 326.74 307 0 307 C0 205.69 0 104.38 0 0 Z " fill="#FDFDFD" transform="translate(0,0)"/>
<path d="M0 0 C0.96046234 -0.00817749 1.92092468 -0.01635498 2.91049194 -0.02478027 C6.06548464 -0.04944342 9.22043307 -0.06609733 12.37548828 -0.08056641 C13.45892643 -0.08589008 14.54236458 -0.09121376 15.65863419 -0.09669876 C21.38895202 -0.12334208 27.1192487 -0.14274854 32.84960938 -0.15722656 C37.57701911 -0.17057945 42.30399864 -0.19847048 47.03125 -0.23925781 C52.75934089 -0.28866417 58.48704101 -0.31335628 64.21533585 -0.32045364 C66.38974408 -0.32714718 68.56414422 -0.34231941 70.73843002 -0.36634445 C73.78701624 -0.39812077 76.83410277 -0.39801434 79.8828125 -0.390625 C80.76936523 -0.40703033 81.65591797 -0.42343567 82.56933594 -0.44033813 C91.36600376 -0.35359696 99.06845777 3.47530195 105.53564453 9.39208984 C112.39158412 17.43429888 113.2138592 26.45704622 113.26367188 36.57202148 C113.27593811 37.96115753 113.27593811 37.96115753 113.28845215 39.37835693 C113.31319 42.43240737 113.32979462 45.48641159 113.34423828 48.54052734 C113.34956196 49.5889575 113.35488564 50.63738766 113.36037064 51.71758842 C113.38705502 57.26980735 113.4064428 62.82200419 113.42089844 68.37426758 C113.43421743 72.94934164 113.46203993 77.52396758 113.50292969 82.09887695 C113.55247031 87.64313021 113.57704567 93.1869783 113.58412552 98.73144341 C113.59080203 100.83359646 113.60592902 102.93574176 113.63001633 105.03776741 C113.78183546 119.09090786 113.64998703 131.92478641 103.59814453 142.92333984 C101.87009107 144.35970141 100.08322844 145.20686236 98.07080078 146.19287109 C97.39017578 146.87349609 96.70955078 147.55412109 96.00830078 148.25537109 C93.18916238 151.07450949 90.74254746 151.31785016 86.92951965 151.32658386 C85.66593124 151.33298134 85.66593124 151.33298134 84.3768158 151.33950806 C83.45574539 151.33905487 82.53467499 151.33860168 81.58569336 151.33813477 C80.12664581 151.34317268 80.12664581 151.34317268 78.63812256 151.34831238 C75.41384614 151.35783143 72.18962164 151.35976621 68.96533203 151.36083984 C66.72433958 151.36405262 64.48334735 151.3674167 62.24235535 151.3709259 C57.53892531 151.37692016 52.83551366 151.37876558 48.13208008 151.37817383 C42.11424109 151.37807238 36.09652056 151.39170492 30.0787096 151.40894604 C25.44692955 151.42008451 20.81517792 151.42209244 16.18338585 151.4215641 C13.96549765 151.42274219 11.74760866 151.42715432 9.52973366 151.43489647 C6.42069942 151.44473007 3.31191948 151.44180454 0.20288086 151.43579102 C-0.70806839 151.44141052 -1.61901764 151.44703003 -2.55757141 151.45281982 C-12.99497293 151.40170482 -21.00001013 148.80653792 -28.69091797 141.52490234 C-35.25832497 134.29579186 -37.53151669 127.55460138 -37.4309082 117.86474609 C-37.43901268 116.36071228 -37.43901268 116.36071228 -37.44728088 114.82629395 C-37.45972721 111.53151387 -37.44330377 108.23761462 -37.42529297 104.94287109 C-37.42544805 102.64176386 -37.42693856 100.34065636 -37.42970276 98.03955078 C-37.43108493 93.22465419 -37.41855877 88.41005614 -37.39575195 83.59521484 C-37.36736831 77.43504798 -37.3701073 71.27537689 -37.38284206 65.11517334 C-37.38980947 60.36584263 -37.38199775 55.61662574 -37.36958504 50.86730957 C-37.36508089 48.5963993 -37.36472464 46.32547677 -37.36865044 44.05456543 C-37.371573 40.87645577 -37.35500503 37.69902037 -37.33325195 34.52099609 C-37.3377536 33.58984985 -37.34225525 32.65870361 -37.34689331 31.69934082 C-37.24433151 22.64386891 -34.67334257 14.83919706 -28.03466797 8.33740234 C-19.27450576 0.45488162 -11.43739831 0.05470769 0 0 Z " fill="#040404" transform="translate(147.92919921875,70.80712890625)"/>
<path d="M0 0 C0.71607422 0.00064453 1.43214844 0.00128906 2.16992188 0.00195312 C6.68175342 0.0389017 10.98562083 0.45624521 15.4375 1.1875 C15.4375 1.8475 15.4375 2.5075 15.4375 3.1875 C16.31664062 3.12433594 17.19578125 3.06117187 18.1015625 2.99609375 C26.37217389 3.47063703 34.87698948 11.32069017 40.4375 17.1875 C43.00033429 20.39104286 45.2684735 23.70709778 47.4375 27.1875 C48.04078125 28.14076172 48.04078125 28.14076172 48.65625 29.11328125 C51.69665175 34.49156768 52.68060467 40.28385589 53.82421875 46.30859375 C54.13971348 49.07113432 54.13971348 49.07113432 55.4375 50.1875 C56.57165085 64.06022699 57.27484841 82.11202025 49.4375 94.1875 C48.74170546 96.37880534 48.74170546 96.37880534 48.4375 98.1875 C47.7775 98.1875 47.1175 98.1875 46.4375 98.1875 C46.23125 98.8475 46.025 99.5075 45.8125 100.1875 C41.05819303 110.56053339 31.86938719 118.72256998 21.4375 123.1875 C20.4475 123.1875 19.4575 123.1875 18.4375 123.1875 C18.4375 124.1775 18.4375 125.1675 18.4375 126.1875 C4.7278563 128.88555788 -12.47471949 128.94702843 -24.5703125 121.28125 C-28.52890165 118.18824157 -32.01831865 114.73769078 -35.5625 111.1875 C-35.57280746 112.09982895 -35.58311493 113.0121579 -35.59373474 113.95213318 C-35.69153261 122.53140004 -35.79402128 131.11059507 -35.90183926 139.68974209 C-35.95710832 144.100834 -36.01053454 148.51193249 -36.05981445 152.9230957 C-36.10739945 157.17656987 -36.15973986 161.42996089 -36.21544075 165.68333626 C-36.23589098 167.30969243 -36.25459956 168.93607142 -36.27157402 170.56246758 C-36.29555927 172.83266363 -36.32562135 175.10270113 -36.35717773 177.37280273 C-36.37272202 178.66741928 -36.3882663 179.96203583 -36.40428162 181.29588318 C-36.5625 184.1875 -36.5625 184.1875 -37.5625 185.1875 C-40.3741338 185.27611992 -43.16108255 185.30272355 -45.97265625 185.28515625 C-46.81469101 185.2837413 -47.65672577 185.28232635 -48.52427673 185.28086853 C-51.22455335 185.27525263 -53.92474828 185.26269748 -56.625 185.25 C-58.45117068 185.24498705 -60.27734266 185.24042379 -62.10351562 185.23632812 C-66.58987542 185.22527804 -71.07617384 185.20800279 -75.5625 185.1875 C-75.58582627 161.34453607 -75.60347784 137.50157384 -75.61431217 113.65860081 C-75.61947571 102.58872154 -75.6265195 91.51884934 -75.63793945 80.44897461 C-75.64788454 70.80418946 -75.65435301 61.15940943 -75.65658849 51.51461929 C-75.6578959 46.40443439 -75.66098364 41.29426415 -75.66823006 36.18408394 C-75.6749875 31.38007441 -75.67711753 26.57608567 -75.67560768 21.77207184 C-75.67588413 20.00351537 -75.67789088 18.23495825 -75.68170547 16.46640587 C-75.68663843 14.06262527 -75.68549978 11.65892443 -75.68275452 9.25514221 C-75.68566736 8.54601152 -75.6885802 7.83688082 -75.69158131 7.10626131 C-75.67662121 2.30162121 -75.67662121 2.30162121 -74.5625 1.1875 C-71.83525721 1.08650512 -69.13387477 1.04779471 -66.40625 1.0546875 C-65.58878296 1.05373077 -64.77131592 1.05277405 -63.92907715 1.05178833 C-62.19734622 1.05110655 -60.46561276 1.05296071 -58.73388672 1.05712891 C-56.07383518 1.06247721 -53.4139525 1.05718388 -50.75390625 1.05078125 C-49.07552046 1.05144203 -47.39713477 1.0527232 -45.71875 1.0546875 C-44.91771851 1.05266327 -44.11668701 1.05063904 -43.29138184 1.04855347 C-37.67745079 1.07254921 -37.67745079 1.07254921 -36.5625 2.1875 C-36.32722227 4.53737262 -36.14863583 6.89306039 -36 9.25 C-35.91621094 10.54035156 -35.83242188 11.83070312 -35.74609375 13.16015625 C-35.68550781 14.15917969 -35.62492188 15.15820312 -35.5625 16.1875 C-34.88767578 15.42566406 -34.88767578 15.42566406 -34.19921875 14.6484375 C-24.73047772 4.51555632 -13.78270878 -0.23698775 0 0 Z " fill="#020202" transform="translate(818.5625,96.8125)"/>
<path d="M0 0 C12.54 0 25.08 0 38 0 C46.94848795 9.28744583 46.94848795 9.28744583 49.89355469 16.47314453 C51.57945658 20.32333971 53.94591661 23.58987167 56.375 27 C57.19031144 28.21513377 58.00042388 29.43377593 58.8046875 30.65625 C59.17948242 31.22472656 59.55427734 31.79320313 59.94042969 32.37890625 C62.04617087 35.60059323 64.09508372 38.85808297 66.1484375 42.11328125 C68.42893349 45.66873808 70.7744709 49.1781074 73.125 52.6875 C83 67.45927072 83 67.45927072 83 70 C83.66 70 84.32 70 85 70 C86.13669755 71.74553555 87.18312389 73.55011526 88.1875 75.375 C91.0741971 80.48269885 94.18541079 85.28382033 97.6171875 90.0390625 C99 92 99 92 100 94 C100.33 62.98 100.66 31.96 101 0 C113.54 0 126.08 0 139 0 C139 51.15 139 102.3 139 155 C126.13 155 113.26 155 100 155 C98.35 152.03 96.7 149.06 95 146 C94.0356138 144.47855329 93.0486155 142.97064157 92.01953125 141.4921875 C91.50076416 140.74155029 90.98199707 139.99091309 90.44750977 139.2175293 C89.90795654 138.44449463 89.36840332 137.67145996 88.8125 136.875 C87.65042526 135.19183165 86.48897276 133.50823356 85.328125 131.82421875 C84.47637695 130.59131104 84.47637695 130.59131104 83.60742188 129.33349609 C77.29455522 120.16910067 71.25491472 110.84556978 65.3125 101.4375 C58.65694215 90.90466816 51.69086366 80.60138675 44.60888672 70.3515625 C42.71533203 67.58392688 40.86013699 64.79020548 39 62 C38.67 92.69 38.34 123.38 38 155 C25.46 155 12.92 155 0 155 C0 103.85 0 52.7 0 0 Z " fill="#040404" transform="translate(349,67)"/>
<path d="M0 0 C7.84443701 6.67661857 13.72180529 14.22950161 17.34765625 23.8984375 C17.67765625 24.5584375 18.00765625 25.2184375 18.34765625 25.8984375 C20.43826525 37.00765906 20.34765625 47.48511437 20.34765625 58.8984375 C-8.03234375 58.8984375 -36.41234375 58.8984375 -65.65234375 58.8984375 C-64.22639094 67.88858076 -64.22639094 67.88858076 -59.83984375 74.3359375 C-59.17339844 75.13902344 -58.50695312 75.94210938 -57.8203125 76.76953125 C-52.70106174 81.79654326 -48.63093769 82.42102066 -41.71484375 82.3984375 C-40.92916016 82.42679687 -40.14347656 82.45515625 -39.33398438 82.484375 C-35.03160789 82.49877626 -33.03946044 82.15013174 -29.3359375 79.7421875 C-26.54455562 77.05228445 -26.54455562 77.05228445 -25.0559082 73.75732422 C-22.65234375 70.8984375 -22.65234375 70.8984375 -20.75254822 70.37322998 C-18.31778514 70.2026739 -15.95092244 70.22408138 -13.51171875 70.3125 C-12.62953674 70.32098969 -11.74735474 70.32947937 -10.83843994 70.33822632 C-8.025157 70.37177192 -5.21475769 70.44704976 -2.40234375 70.5234375 C-0.49353103 70.55353577 1.4153267 70.58091182 3.32421875 70.60546875 C7.99980629 70.6715667 12.6732427 70.77509371 17.34765625 70.8984375 C17.34765625 72.5484375 17.34765625 74.1984375 17.34765625 75.8984375 C16.68765625 75.8984375 16.02765625 75.8984375 15.34765625 75.8984375 C15.01765625 77.1565625 14.68765625 78.4146875 14.34765625 79.7109375 C9.81974178 93.20964965 -0.59857448 101.62683936 -12.81689453 107.76660156 C-15.62632178 109.11718289 -17.49479029 109.8984375 -20.65234375 109.8984375 C-21.14734375 111.3834375 -21.14734375 111.3834375 -21.65234375 112.8984375 C-28.08624481 114.03978762 -34.44096307 114.11753694 -40.96484375 114.1484375 C-42.58036133 114.179375 -42.58036133 114.179375 -44.22851562 114.2109375 C-54.36375966 114.26004831 -62.04011311 112.09827487 -70.65234375 106.8984375 C-71.74804688 106.47175781 -72.84375 106.04507813 -73.97265625 105.60546875 C-77.93973116 103.93484579 -80.74785681 101.53317603 -83.83984375 98.5859375 C-84.34708984 98.12509766 -84.85433594 97.66425781 -85.37695312 97.18945312 C-88.74345014 94.05000909 -91.30721024 90.86669445 -93.65234375 86.8984375 C-93.65234375 86.2384375 -93.65234375 85.5784375 -93.65234375 84.8984375 C-94.31234375 84.8984375 -94.97234375 84.8984375 -95.65234375 84.8984375 C-96.67033836 82.57159267 -97.66763338 80.2393626 -98.65234375 77.8984375 C-98.9153125 77.29644531 -99.17828125 76.69445312 -99.44921875 76.07421875 C-105.73612848 60.77393333 -105.85370525 40.47090636 -99.93603516 25.02929688 C-93.32486718 9.52612826 -83.18975911 -1.70585815 -67.81640625 -8.84765625 C-45.21638468 -17.80396109 -19.01323906 -15.06498176 0 0 Z " fill="#050505" transform="translate(712.65234375,110.1015625)"/>
<path d="M0 0 C12.87 0 25.74 0 39 0 C39.02254531 21.36567426 39.04097817 42.73133894 39.05181217 64.09702206 C39.05697556 74.01675275 39.06401907 83.93647555 39.07543945 93.85620117 C39.08538498 102.49896979 39.09185311 111.14173268 39.09408849 119.78450686 C39.09539583 124.36372463 39.09848308 128.94292605 39.10573006 133.5221386 C39.11248821 137.82711706 39.11461738 142.13207233 39.11310768 146.43705559 C39.1133841 148.02178066 39.11539044 149.60650646 39.11920547 151.19122696 C39.12413953 153.34540411 39.12299937 155.4994923 39.12025452 157.65367126 C39.12117631 158.86214187 39.1220981 160.07061247 39.12304783 161.31570339 C39 164 39 164 38 165 C25.46 165 12.92 165 0 165 C0 110.55 0 56.1 0 0 Z " fill="#070707" transform="translate(561,58)"/>
<path d="M0 0 C12.54 0 25.08 0 38 0 C38 40.59 38 81.18 38 123 C25.46 123 12.92 123 0 123 C0 82.41 0 41.82 0 0 Z " fill="#050505" transform="translate(506,99)"/>
<path d="M0 0 C4.15160802 2.07580401 5.94902854 3.88469724 9 7.3125 C9.98272099 8.40656621 10.96580624 9.50030532 11.94921875 10.59375 C12.45372559 11.15835938 12.95823242 11.72296875 13.47802734 12.3046875 C15.89636803 14.99845678 18.35389271 17.65551897 20.8125 20.3125 C21.55536255 21.116875 21.55536255 21.116875 22.31323242 21.9375 C29.78359143 30.02155096 37.30046591 38.0625851 44.8359375 46.0859375 C46.11980531 47.45311219 47.40365954 48.82029963 48.6875 50.1875 C49.3151123 50.85563721 49.94272461 51.52377441 50.58935547 52.2121582 C54.40424883 56.27941221 58.18467547 60.37547092 61.9375 64.5 C65.70613232 68.64098222 69.57722872 72.62045373 73.63671875 76.4765625 C75 78 75 78 75 80 C50.25 80 25.5 80 0 80 C0 53.6 0 27.2 0 0 Z " fill="#F6F6F6" transform="translate(148,118)"/>
<path d="M0 0 C24.42 0 48.84 0 74 0 C74 26.4 74 52.8 74 80 C69.54741278 76.18349667 65.82074334 72.89884431 62 68.625 C61.05306207 67.57463764 60.10508654 66.52521008 59.15625 65.4765625 C58.65222656 64.9187207 58.14820313 64.36087891 57.62890625 63.78613281 C54.62271468 60.48977527 51.55782411 57.24838361 48.5 54 C43.22084161 48.38357858 37.98854848 42.72935541 32.7890625 37.0390625 C29.65029293 33.61146294 26.48333476 30.21042373 23.3125 26.8125 C22.73862549 26.19665039 22.16475098 25.58080078 21.57348633 24.94628906 C18.25308471 21.38959395 14.91182541 17.85427012 11.55078125 14.3359375 C10.44512817 13.17421021 10.44512817 13.17421021 9.31713867 11.98901367 C7.87486014 10.47477381 6.42850911 8.96440071 4.9777832 7.45825195 C4.32769287 6.774646 3.67760254 6.09104004 3.0078125 5.38671875 C2.42660645 4.78045654 1.84540039 4.17419434 1.24658203 3.54956055 C0 2 0 2 0 0 Z " fill="#FCFCFC" transform="translate(150,95)"/>
<path d="M0 0 C0 0.66 0 1.32 0 2 C0.59683594 2.268125 1.19367187 2.53625 1.80859375 2.8125 C6.98265604 5.61626994 10.02925464 10.25650197 11.875 15.75 C14.58553989 26.3824154 13.17170689 35.73977315 7.75 45.1875 C4.54052547 50.02104598 0.71865212 54.19018873 -4.9375 55.875 C-5.618125 55.91625 -6.29875 55.9575 -7 56 C-7 56.66 -7 57.32 -7 58 C-18.56495793 58.6434907 -25.85062387 57.09020929 -34.6875 49.5625 C-36.21377909 47.74550109 -36.60067044 46.31611144 -37 44 C-37.66 44 -38.32 44 -39 44 C-43.61301293 34.38955639 -43.23438809 23.52934695 -40.02734375 13.46484375 C-37.11068678 6.467085 -32.53573161 1.73395701 -25.91015625 -1.93359375 C-17.27907104 -5.0963941 -8.25933839 -3.41765726 0 0 Z " fill="#F8F8F8" transform="translate(823,133)"/>
<path d="M0 0 C4.93914697 2.67091974 9.39208805 5.52782664 11.22265625 11.01953125 C11.88265625 11.34953125 12.54265625 11.67953125 13.22265625 12.01953125 C13.358253 14.5838164 13.45698813 17.14088341 13.53515625 19.70703125 C13.57705078 20.42826172 13.61894531 21.14949219 13.66210938 21.89257812 C13.75758944 26.07460476 13.61879884 27.53695755 10.859375 30.8984375 C9.98925781 31.59839844 9.11914062 32.29835937 8.22265625 33.01953125 C7.39765625 33.76203125 6.57265625 34.50453125 5.72265625 35.26953125 C3.12516709 37.08777366 1.34254435 37.66297261 -1.77734375 38.01953125 C-1.77734375 38.67953125 -1.77734375 39.33953125 -1.77734375 40.01953125 C-17.36840979 41.22473022 -17.36840979 41.22473022 -23.21484375 36.70703125 C-25.75581267 34.40714098 -26.67895914 33.31468508 -27.77734375 30.01953125 C-28.43734375 30.01953125 -29.09734375 30.01953125 -29.77734375 30.01953125 C-32.36080898 24.38757705 -32.43332197 19.12261977 -31.77734375 13.01953125 C-26.08353865 0.72091224 -12.7223532 -4.49129487 0 0 Z " fill="#070707" transform="translate(533.77734375,45.98046875)"/>
<path d="M0 0 C4.82976072 3.59640981 6.88252783 6.9656503 8 13 C8 14.32 8 15.64 8 17 C-7.18 17 -22.36 17 -38 17 C-35.50649351 4.53246753 -35.50649351 4.53246753 -30.1015625 0.62890625 C-20.63754285 -5.5807572 -9.78194122 -6.14701754 0 0 Z " fill="#F8F8F8" transform="translate(686,131)"/>
<path d="M0 0 C0.80103149 0.00202423 1.60206299 0.00404846 2.42736816 0.00613403 C3.24483521 0.00517731 4.06230225 0.00422058 4.90454102 0.00323486 C6.63627194 0.00255308 8.3680054 0.00440724 10.09973145 0.00857544 C12.75978298 0.01392374 15.41966566 0.00863041 18.07971191 0.00222778 C19.75809771 0.00288857 21.43648339 0.00416973 23.11486816 0.00613403 C23.91589966 0.0041098 24.71693115 0.00208557 25.54223633 0 C31.15616738 0.02399575 31.15616738 0.02399575 32.27111816 1.13894653 C32.50639589 3.48881915 32.68498233 5.84450692 32.83361816 8.20144653 C32.91740723 9.4917981 33.00119629 10.78214966 33.08752441 12.11160278 C33.14811035 13.11062622 33.20869629 14.10964966 33.27111816 15.13894653 C35.91111816 12.49894653 38.55111816 9.85894653 41.27111816 7.13894653 C41.93111816 7.46894653 42.59111816 7.79894653 43.27111816 8.13894653 C41.84086622 9.79108242 40.40166272 11.43547242 38.95861816 13.07644653 C37.75785645 14.45123169 37.75785645 14.45123169 36.53283691 15.85379028 C34.27111816 18.13894653 34.27111816 18.13894653 31.27111816 19.13894653 C31.27111816 13.52894653 31.27111816 7.91894653 31.27111816 2.13894653 C19.39111816 2.13894653 7.51111816 2.13894653 -4.72888184 2.13894653 C-4.72888184 61.53894653 -4.72888184 120.93894653 -4.72888184 182.13894653 C7.15111816 182.13894653 19.03111816 182.13894653 31.27111816 182.13894653 C31.27111816 157.71894653 31.27111816 133.29894653 31.27111816 108.13894653 C32.26111816 108.63394653 32.26111816 108.63394653 33.27111816 109.13894653 C33.16377908 118.77015179 33.05117929 128.40127671 32.93177891 138.03234005 C32.87650939 142.50396647 32.82308309 146.97559938 32.77380371 151.44729614 C32.72621939 155.7591242 32.67387901 160.07087021 32.61817741 164.38260078 C32.59772688 166.03128593 32.57901835 167.67999359 32.56204414 169.32871819 C32.53805957 171.63004613 32.5079974 173.93121763 32.47644043 176.23245239 C32.46089615 177.54483383 32.44535187 178.85721527 32.42933655 180.20936584 C32.27111816 183.13894653 32.27111816 183.13894653 31.27111816 184.13894653 C28.45948437 184.22756646 25.67253561 184.25417008 22.86096191 184.23660278 C22.01892715 184.23518784 21.1768924 184.23377289 20.30934143 184.23231506 C17.60906482 184.22669917 14.90886989 184.21414402 12.20861816 184.20144653 C10.38244748 184.19643358 8.55627551 184.19187032 6.73010254 184.18777466 C2.24374274 184.17672457 -2.24255568 184.15944932 -6.72888184 184.13894653 C-6.75220811 160.2959826 -6.76985967 136.45302037 -6.78069401 112.61004734 C-6.78585754 101.54016807 -6.79290133 90.47029587 -6.80432129 79.40042114 C-6.81426637 69.75563599 -6.82073484 60.11085596 -6.82297033 50.46606582 C-6.82427774 45.35588093 -6.82736547 40.24571069 -6.83461189 35.13553047 C-6.84136934 30.33152095 -6.84349936 25.5275322 -6.84198952 20.72351837 C-6.84226597 18.9549619 -6.84427272 17.18640478 -6.84808731 15.4178524 C-6.85302027 13.0140718 -6.85188161 10.61037097 -6.84913635 8.20658875 C-6.85204919 7.49745805 -6.85496204 6.78832735 -6.85796314 6.05770785 C-6.83867027 -0.13846139 -6.11330308 0.02613022 0 0 Z " fill="#666666" transform="translate(749.7288818359375,97.86105346679688)"/>
<path d="M0 0 C1.03688965 0.01047363 2.0737793 0.02094727 3.14208984 0.03173828 C4.26357422 0.03818359 5.38505859 0.04462891 6.54052734 0.05126953 C7.71615234 0.06802734 8.89177734 0.08478516 10.10302734 0.10205078 C11.28638672 0.11107422 12.46974609 0.12009766 13.68896484 0.12939453 C16.61873791 0.15302173 19.54840748 0.18889365 22.47802734 0.22705078 C22.47802734 4.51705078 22.47802734 8.80705078 22.47802734 13.22705078 C18.37316602 13.33468007 14.27110683 13.41419883 10.16552734 13.47705078 C8.99828125 13.51056641 7.83103516 13.54408203 6.62841797 13.57861328 C5.51015625 13.59150391 4.39189453 13.60439453 3.23974609 13.61767578 C1.69226685 13.64909668 1.69226685 13.64909668 0.11352539 13.68115234 C-2.52197266 13.22705078 -2.52197266 13.22705078 -4.39379883 11.42919922 C-6.08667426 8.12477671 -5.37036255 5.75113189 -4.52197266 2.22705078 C-2.52197266 0.22705078 -2.52197266 0.22705078 0 0 Z " fill="#1B1B1B" transform="translate(82.52197265625,139.77294921875)"/>
<path d="M0 0 C4.10486132 -0.10762928 8.20692052 -0.18714805 12.3125 -0.25 C13.47974609 -0.28351563 14.64699219 -0.31703125 15.84960938 -0.3515625 C17.52700195 -0.37089844 17.52700195 -0.37089844 19.23828125 -0.390625 C20.26993408 -0.41157227 21.30158691 -0.43251953 22.36450195 -0.45410156 C25 0 25 0 26.83666992 1.86425781 C28.27670416 4.50799748 28.45676787 6.03100884 28 9 C26.83666992 10.6340332 26.83666992 10.6340332 25 12 C22.36450195 12.34057617 22.36450195 12.34057617 19.23828125 12.29296875 C18.12001953 12.28330078 17.00175781 12.27363281 15.84960938 12.26367188 C14.68236328 12.23853516 13.51511719 12.21339844 12.3125 12.1875 C11.13365234 12.17396484 9.95480469 12.16042969 8.74023438 12.14648438 C5.82662867 12.11109645 2.91325736 12.05728911 0 12 C0 8.04 0 4.08 0 0 Z " fill="#131313" transform="translate(266,140)"/>
<path d="M0 0 C3.4375 0.8125 3.4375 0.8125 5.4375 2.8125 C5.66455078 5.33447266 5.66455078 5.33447266 5.6328125 8.4765625 C5.62314453 10.15878906 5.62314453 10.15878906 5.61328125 11.875 C5.59652344 13.050625 5.57976562 14.22625 5.5625 15.4375 C5.55347656 16.62085937 5.54445312 17.80421875 5.53515625 19.0234375 C5.51152905 21.95321057 5.47565713 24.88288014 5.4375 27.8125 C1.4775 27.8125 -2.4825 27.8125 -6.5625 27.8125 C-6.64321599 23.70794235 -6.70286813 19.60496164 -6.75 15.5 C-6.77513672 14.33275391 -6.80027344 13.16550781 -6.82617188 11.96289062 C-6.84067383 10.28549805 -6.84067383 10.28549805 -6.85546875 8.57421875 C-6.8711792 7.54256592 -6.88688965 6.51091309 -6.90307617 5.44799805 C-6.5625 2.8125 -6.5625 2.8125 -5.2668457 0.94067383 C-3.5625 -0.1875 -3.5625 -0.1875 0 0 Z " fill="#101010" transform="translate(186.5625,36.1875)"/>
<path d="M0 0 C3.96 0 7.92 0 12 0 C12.0807316 3.93790783 12.14037469 7.87417069 12.1875 11.8125 C12.21263672 12.93205078 12.23777344 14.05160156 12.26367188 15.20507812 C12.27817383 16.81479492 12.27817383 16.81479492 12.29296875 18.45703125 C12.31653442 19.9416687 12.31653442 19.9416687 12.34057617 21.45629883 C12 24 12 24 10.66918945 25.82299805 C8.07465387 27.65249286 6.07930729 27.38491341 3 27 C1.33081055 25.82299805 1.33081055 25.82299805 0 24 C-0.34057617 21.45629883 -0.34057617 21.45629883 -0.29296875 18.45703125 C-0.28330078 17.38388672 -0.27363281 16.31074219 -0.26367188 15.20507812 C-0.23853516 14.08552734 -0.21339844 12.96597656 -0.1875 11.8125 C-0.16719727 10.11577148 -0.16719727 10.11577148 -0.14648438 8.38476562 C-0.11110305 5.58964118 -0.05729579 2.79476111 0 0 Z " fill="#0D0D0D" transform="translate(180,228)"/>
<path d="M0 0 C2.10353495 -0.0810206 4.20795952 -0.13919907 6.3125 -0.1875 C7.48425781 -0.22230469 8.65601563 -0.25710937 9.86328125 -0.29296875 C13 0 13 0 14.8984375 1.2578125 C16.92807135 4.46780079 16.29511215 7.28158685 16 11 C14 13 14 13 10.99609375 13.23046875 C9.82175781 13.21628906 8.64742188 13.20210937 7.4375 13.1875 C5.67212891 13.17783203 5.67212891 13.17783203 3.87109375 13.16796875 C1 13 1 13 0 12 C-0.07244053 9.98035801 -0.08377188 7.95832876 -0.0625 5.9375 C-0.05347656 4.83277344 -0.04445313 3.72804687 -0.03515625 2.58984375 C-0.02355469 1.73519531 -0.01195312 0.88054687 0 0 Z " fill="#060606" transform="translate(266,164)"/>
<path d="M0 0 C0 4.29 0 8.58 0 13 C-4.62 13 -9.24 13 -14 13 C-16.27139251 8.45721498 -16.16188936 6.82630965 -15 2 C-10.25368713 -1.16420858 -5.63243123 -0.12112755 0 0 Z " fill="#222222" transform="translate(105,164)"/>
<path d="M0 0 C1.76923828 0.04060547 1.76923828 0.04060547 3.57421875 0.08203125 C4.47785156 0.11683594 5.38148437 0.15164062 6.3125 0.1875 C6.3125 4.1475 6.3125 8.1075 6.3125 12.1875 C4.18756859 12.21443575 2.06254088 12.23386628 -0.0625 12.25 C-1.24585937 12.26160156 -2.42921875 12.27320313 -3.6484375 12.28515625 C-6.6875 12.1875 -6.6875 12.1875 -8.6875 11.1875 C-10.19225898 4.01095717 -10.19225898 4.01095717 -8.6171875 1.44140625 C-5.74750044 -0.42330943 -3.3789419 -0.10036461 0 0 Z " fill="#191919" transform="translate(98.6875,115.8125)"/>
<path d="M0 0 C2.5625 0.5 2.5625 0.5 4.875 2.3125 C7.41541026 7.11105272 6.8221995 11.11123531 6.5625 16.5 C2.6025 16.5 -1.3575 16.5 -5.4375 16.5 C-5.5185206 14.39646505 -5.57669907 12.29204048 -5.625 10.1875 C-5.65980469 9.01574219 -5.69460937 7.84398437 -5.73046875 6.63671875 C-5.4375 3.5 -5.4375 3.5 -4.078125 1.61328125 C-2.4375 0.5 -2.4375 0.5 0 0 Z " fill="#151515" transform="translate(161.4375,47.5)"/>
<path d="M0 0 C0.99 0.66 1.98 1.32 3 2 C3.29296875 5.0390625 3.29296875 5.0390625 3.1875 8.625 C3.16042969 9.81351563 3.13335937 11.00203125 3.10546875 12.2265625 C3.07066406 13.14179687 3.03585938 14.05703125 3 15 C-0.96 15 -4.92 15 -9 15 C-9 10.71 -9 6.42 -9 2 C-5.23348176 0.11674088 -3.98479196 -0.40869661 0 0 Z " fill="#111111" transform="translate(213,49)"/>
<path d="M0 0 C3.96 0 7.92 0 12 0 C12.3698515 11.46539647 12.3698515 11.46539647 10.7109375 13.86328125 C7.84962031 15.76429336 5.31174244 15.36128099 2 15 C-1.16420858 10.25368713 -0.12112755 5.63243123 0 0 Z " fill="#111111" transform="translate(156,228)"/>
<path d="M0 0 C3.96 0 7.92 0 12 0 C12.36954087 11.45576708 12.36954087 11.45576708 10.7109375 13.8984375 C9 15 9 15 5.4375 14.8125 C2 14 2 14 0 12 C-0.27783543 7.98805634 -0.0856495 4.02552638 0 0 Z " fill="#101010" transform="translate(204,228)"/>
<path d="M0 0 C1.918125 -0.0825 3.83625 -0.165 5.8125 -0.25 C7.43091797 -0.31960937 7.43091797 -0.31960937 9.08203125 -0.390625 C12 0 12 0 13.86328125 1.85546875 C15.26686583 4.50346852 15.45494208 6.04287647 15 9 C13.86328125 10.640625 13.86328125 10.640625 12 12 C7.96740923 12.40487859 4.06287095 12.13106035 0 12 C0 8.04 0 4.08 0 0 Z " fill="#101010" transform="translate(267,116)"/>
<path d="M0 0 C24.42 0 48.84 0 74 0 C74 26.4 74 52.8 74 80 C73.01 79.01 72.02 78.02 71 77 C71.66 77 72.32 77 73 77 C73 51.92 73 26.84 73 1 C50.0980191 1.32886781 50.0980191 1.32886781 27.19604492 1.65820312 C22.76623535 1.72167969 22.76623535 1.72167969 20.69233704 1.75134277 C19.24413441 1.77209719 17.79593299 1.79293649 16.34773254 1.81384277 C14.15394365 1.84549591 11.96015104 1.87687954 9.76635742 1.90820312 C8.52947678 1.92596802 7.29259613 1.94373291 6.01823425 1.96203613 C4.01227493 1.98726743 2.006118 2 0 2 C0 1.34 0 0.68 0 0 Z " fill="#C6C6C6" transform="translate(150,95)"/>
<path d="M0 0 C5.25105442 -0.02464928 10.50207545 -0.04283568 15.75317383 -0.05493164 C17.54094021 -0.05997218 19.32870245 -0.06680454 21.11645508 -0.07543945 C23.68051168 -0.0875173 26.24451397 -0.09323094 28.80859375 -0.09765625 C29.6127623 -0.10281754 30.41693085 -0.10797882 31.24546814 -0.11329651 C33.16401715 -0.11349215 35.08245368 -0.06201983 37 0 C38.94090826 1.94090826 38.39919435 5.47293902 38.5625 8.0625 C38.64628906 9.35285156 38.73007812 10.64320312 38.81640625 11.97265625 C38.87699219 12.97167969 38.93757812 13.97070312 39 15 C41.64 12.36 44.28 9.72 47 7 C47.66 7.33 48.32 7.66 49 8 C47.56974806 9.65213589 46.13054455 11.29652589 44.6875 12.9375 C43.48673828 14.31228516 43.48673828 14.31228516 42.26171875 15.71484375 C40 18 40 18 37 19 C37 13.39 37 7.78 37 2 C24.79 2 12.58 2 0 2 C0 1.34 0 0.68 0 0 Z " fill="#696969" transform="translate(744,98)"/>
<path d="M0 0 C24.42 0 48.84 0 74 0 C74 0.33 74 0.66 74 1 C64.79456521 1.13063238 55.58912724 1.26103755 46.38368511 1.39115143 C42.10938548 1.45157348 37.835087 1.51207424 33.56079102 1.57275391 C29.43704801 1.63129338 25.31330215 1.68962738 21.18955421 1.74781799 C19.61506865 1.77007201 18.04058414 1.79240047 16.46610069 1.81480408 C14.26345462 1.84613329 12.06080498 1.87719949 9.8581543 1.90820312 C8.60350876 1.92596802 7.34886322 1.94373291 6.05619812 1.96203613 C4.03758148 1.98711124 2.01877237 2 0 2 C0 1.34 0 0.68 0 0 Z " fill="#BFBFBF" transform="translate(150,95)"/>
<path d="M0 0 C4.29 0 8.58 0 13 0 C13.33 0.66 13.66 1.32 14 2 C10.04 2 6.08 2 2 2 C2 5.3 2 8.6 2 12 C3.77155654 11.88570603 5.54226229 11.75816963 7.3125 11.625 C8.29863281 11.55539063 9.28476562 11.48578125 10.30078125 11.4140625 C13.21528433 11.16134528 13.21528433 11.16134528 16 9 C15.34 10.32 14.68 11.64 14 13 C11.85423363 13.02685938 9.70837355 13.04633088 7.5625 13.0625 C6.36753906 13.07410156 5.17257812 13.08570313 3.94140625 13.09765625 C1 13 1 13 0 12 C-0.14355117 7.99779347 -0.04216403 4.00558317 0 0 Z " fill="#696969" transform="translate(266,164)"/>
<path d="M0 0 C1.02802734 0.00322266 2.05605469 0.00644531 3.11523438 0.00976562 C4.72301758 0.02233398 4.72301758 0.02233398 6.36328125 0.03515625 C7.44673828 0.03966797 8.53019531 0.04417969 9.64648438 0.04882812 C12.3229721 0.06061882 14.99934902 0.07707562 17.67578125 0.09765625 C17.67578125 0.42765625 17.67578125 0.75765625 17.67578125 1.09765625 C16.69182373 1.12738525 16.69182373 1.12738525 15.68798828 1.15771484 C12.72517056 1.25278132 9.76307593 1.36253377 6.80078125 1.47265625 C5.25197266 1.5190625 5.25197266 1.5190625 3.671875 1.56640625 C2.19267578 1.62441406 2.19267578 1.62441406 0.68359375 1.68359375 C-0.2276123 1.71501465 -1.13881836 1.74643555 -2.07763672 1.77880859 C-4.52353061 1.89648136 -4.52353061 1.89648136 -6.32421875 4.09765625 C-6.97189668 6.66826936 -6.97189668 6.66826936 -7.32421875 9.09765625 C-7.98421875 8.76765625 -8.64421875 8.43765625 -9.32421875 8.09765625 C-8.99421875 5.78765625 -8.66421875 3.47765625 -8.32421875 1.09765625 C-5.26502487 0.07792496 -3.2000385 -0.01767977 0 0 Z " fill="#222222" transform="translate(86.32421875,140.90234375)"/>
<path d="M0 0 C0.66 0.33 1.32 0.66 2 1 C-0.64 3.97 -3.28 6.94 -6 10 C-6.33 9.01 -6.66 8.02 -7 7 C-4.69 4.69 -2.38 2.38 0 0 Z M-10 10 C-9.01 10.33 -8.02 10.66 -7 11 C-7.99 11.33 -8.98 11.66 -10 12 C-10 11.34 -10 10.68 -10 10 Z " fill="#292929" transform="translate(791,105)"/>
<path d="M0 0 C0.66 0.33 1.32 0.66 2 1 C1.04882866 2.1725131 0.08882991 3.33787015 -0.875 4.5 C-1.40867187 5.1496875 -1.94234375 5.799375 -2.4921875 6.46875 C-2.98976563 6.9740625 -3.48734375 7.479375 -4 8 C-4.66 8 -5.32 8 -6 8 C-6 8.99 -6 9.98 -6 11 C-6.66 11 -7.32 11 -8 11 C-6.52670958 5.99081256 -3.72484762 3.48192278 0 0 Z " fill="#464646" transform="translate(123,76)"/>
<path d="M0 0 C0.66 0.33 1.32 0.66 2 1 C0.88200014 2.33920838 -0.24461897 3.67122556 -1.375 5 C-2.00148438 5.7425 -2.62796875 6.485 -3.2734375 7.25 C-4.12808594 8.11625 -4.12808594 8.11625 -5 9 C-5.66 9 -6.32 9 -7 9 C-5.44499019 5.18315774 -2.96404505 2.80804268 0 0 Z " fill="#2F2F2F" transform="translate(511,48)"/>
</svg>
