<?xml version="1.0" encoding="UTF-8"?>
<svg version="1.1" xmlns="http://www.w3.org/2000/svg" width="2458" height="2621">
<path d="M0 0 C811.14 0 1622.28 0 2458 0 C2458 864.93 2458 1729.86 2458 2621 C1646.86 2621 835.72 2621 0 2621 C0 1756.07 0 891.14 0 0 Z " fill="#000000" transform="translate(0,0)"/>
<path d="M0 0 C4.38566313 0.0086137 8.77129909 -0.00041519 13.15696081 -0.00706416 C20.82209383 -0.01630711 28.48716107 -0.0145466 36.15229323 -0.00533163 C47.55089732 0.00833372 58.94945141 0.00468128 70.34805923 -0.00229023 C90.71102533 -0.01418791 111.07396037 -0.00915322 131.43692474 0.00298804 C149.25541574 0.01353942 167.07389617 0.01806159 184.89239027 0.01669253 C186.07600596 0.0166085 187.25962164 0.01652447 188.47910447 0.01643789 C193.28419326 0.01608562 198.08928204 0.0157016 202.89437083 0.01527231 C247.93285565 0.01131077 292.97132181 0.02400895 338.00980129 0.04479888 C377.99778577 0.06317073 417.98575236 0.06897989 457.9737406 0.06352747 C460.54192697 0.06318104 463.11011334 0.06283494 465.67829971 0.06248918 C466.94798142 0.06231819 468.21766314 0.06214719 469.52582005 0.06197102 C475.91764087 0.06111743 482.3094617 0.06029365 488.70128252 0.05950201 C489.96237636 0.05934493 491.22347019 0.05918785 492.52277898 0.05902601 C525.96899008 0.0550337 559.41519946 0.06051451 592.86140951 0.06901331 C596.46128827 0.06992032 600.06116702 0.07082596 603.66104578 0.07172854 C606.04895338 0.07232965 608.43686098 0.07293827 610.82476858 0.07355445 C627.45266778 0.07777114 644.08056361 0.07835603 660.70846317 0.07644895 C682.13741358 0.07400338 703.56634587 0.07809895 724.99529134 0.09365895 C736.32009473 0.10169322 747.64486797 0.10432255 758.96967315 0.0990166 C766.54318591 0.09603009 774.11667211 0.10037177 781.69017853 0.11056517 C785.99902853 0.11616747 790.30781722 0.11873459 794.61666761 0.1123986 C815.36547127 0.08444463 835.88349746 0.24857624 856.30650427 4.4417013 C857.84866614 4.75760218 857.84866614 4.75760218 859.42198279 5.0798849 C903.28982676 14.52308642 944.59179079 34.03214969 979.36900427 62.3792013 C979.87818396 62.78686732 980.38736365 63.19453333 980.91197302 63.61455286 C989.32175756 70.37871907 997.03381789 77.83812477 1004.68150427 85.4417013 C1005.60052527 86.35145716 1006.51954627 87.26121302 1007.46641638 88.19853724 C1013.52437672 94.28439932 1019.05689506 100.63537643 1024.36900427 107.3792013 C1024.90243445 108.04798304 1025.43586462 108.71676478 1025.98545935 109.40581263 C1068.89027357 163.67575259 1085.93705267 228.10814614 1085.74820557 296.26088871 C1085.73956136 300.61227911 1085.74862994 304.96364286 1085.75526973 309.31503189 C1085.76449604 316.91375788 1085.76276681 324.51241743 1085.7535372 332.11114252 C1085.73985035 343.41088268 1085.74353123 354.71057251 1085.7504958 366.01031645 C1085.76238247 386.19730499 1085.75736726 406.38426217 1085.74521753 426.57124896 C1085.73466069 444.2327554 1085.73014468 461.89425118 1085.73151305 479.55576075 C1085.73163909 481.31643288 1085.73163909 481.31643288 1085.73176768 483.11267415 C1085.73211996 487.87794028 1085.73250398 492.64320641 1085.73293326 497.40847253 C1085.73689317 542.05606431 1085.72420364 586.70363725 1085.7034067 631.35122365 C1085.68502933 670.99076262 1085.67922734 710.63028353 1085.6846781 750.2698263 C1085.68502454 752.81640211 1085.68537063 755.36297791 1085.68571639 757.90955372 C1085.68597288 759.79805418 1085.68597288 759.79805418 1085.68623456 761.72470616 C1085.68708814 768.06277731 1085.68791193 774.40084847 1085.68870356 780.73891962 C1085.68893918 782.61466396 1085.68893918 782.61466396 1085.68917956 784.52830213 C1085.69317139 817.6894047 1085.68769185 850.85050554 1085.67919227 884.01160706 C1085.67828526 887.58044015 1085.67737961 891.14927324 1085.67647704 894.71810633 C1085.67587593 897.08539088 1085.67526731 899.45267543 1085.67465113 901.81995998 C1085.67043434 918.30447387 1085.66984956 934.78898435 1085.67175662 951.27349861 C1085.67420172 972.51362483 1085.67011007 993.75373277 1085.65454662 1014.99385399 C1085.64651058 1026.21890791 1085.64388437 1037.44393138 1085.64918898 1048.6689871 C1085.65217435 1056.17459153 1085.64783742 1063.68016916 1085.6376404 1071.18576719 C1085.63203543 1075.45658085 1085.6294752 1079.72733264 1085.63580698 1083.99814672 C1085.66370262 1104.55361649 1085.44027341 1124.64589201 1080.93150427 1144.8167013 C1080.62502966 1146.25432825 1080.62502966 1146.25432825 1080.31236365 1147.72099818 C1075.42771185 1170.34865307 1068.59846941 1192.56919544 1058.36900427 1213.3792013 C1057.95344275 1214.23868372 1057.53788123 1215.09816615 1057.10972693 1215.98369349 C1046.47979173 1237.79877268 1033.34291897 1258.08991865 1017.36900427 1276.3792013 C1016.9178324 1276.89804896 1016.46666052 1277.41689661 1016.00181677 1277.95146693 C1004.82313554 1290.70111668 992.83157656 1303.04291576 979.36900427 1313.3792013 C978.36740271 1314.17455286 977.36580115 1314.96990443 976.33384802 1315.78935755 C968.3179113 1322.12284602 959.99275536 1327.90540458 951.36900427 1333.3792013 C950.73043494 1333.78638392 950.0918656 1334.19356654 949.43394568 1334.61308802 C931.96487164 1345.63123554 912.95862947 1353.93656251 893.46080115 1360.65459193 C891.51186507 1361.32971357 889.57276983 1362.0330607 887.63462927 1362.7385763 C876.78218674 1366.57721318 865.63407126 1369.07122628 854.36900427 1371.3792013 C853.12086951 1371.63564417 853.12086951 1371.63564417 851.8475199 1371.89726771 C849.02816629 1372.44358396 846.20318748 1372.91556492 843.36900427 1373.3792013 C841.83775602 1373.63862278 841.83775602 1373.63862278 840.27557346 1373.90328509 C825.18563698 1376.06250605 809.95041439 1375.66482298 794.74325456 1375.64233777 C790.39843333 1375.63813737 786.05362859 1375.64558637 781.70881149 1375.65149028 C774.10579432 1375.66022544 766.50280409 1375.66157397 758.89978316 1375.65798701 C747.59289747 1375.65266681 736.28603773 1375.65878866 724.97915486 1375.66706994 C703.60485997 1375.68229477 682.23057694 1375.68401644 660.85627776 1375.68154691 C644.34330339 1375.67971242 627.83033289 1375.68147714 611.31735899 1375.68577135 C608.94274546 1375.68637376 606.56813192 1375.68697496 604.19351839 1375.68757496 C600.61488931 1375.68848224 597.03626023 1375.68939091 593.45763115 1375.69030731 C560.19084407 1375.69873505 526.92405845 1375.70307391 493.65727045 1375.69890059 C492.4036352 1375.69874421 491.14999994 1375.69858784 489.85837574 1375.69842672 C483.50487523 1375.69762097 477.15137472 1375.6967752 470.79787421 1375.69591342 C469.53611825 1375.69574233 468.2743623 1375.69557124 466.97437131 1375.69539497 C464.42279251 1375.69504831 461.87121371 1375.69469979 459.31963491 1375.69434939 C419.64133973 1375.68899545 379.96306679 1375.69691401 340.28477576 1375.71538294 C295.6722837 1375.73612442 251.05980541 1375.74682133 206.44730827 1375.74280746 C201.68495701 1375.74241213 196.92260576 1375.74205058 192.1602545 1375.74171008 C190.40143271 1375.74157398 190.40143271 1375.74157398 188.60707916 1375.74143513 C170.94572258 1375.74027166 153.28437996 1375.74689859 135.62302687 1375.757522 C115.51928417 1375.76960242 95.41557209 1375.77110054 75.31182891 1375.75873183 C64.07801337 1375.75212863 52.84427118 1375.75367524 41.61046159 1375.76732034 C34.08462495 1375.77561886 26.55884275 1375.77279788 19.03301045 1375.76134508 C14.75946218 1375.7551415 10.48605606 1375.75334824 6.21251649 1375.76520841 C-68.59049098 1375.95832294 -138.11267464 1355.06545737 -194.63099573 1304.3792013 C-195.51948206 1303.58328577 -195.51948206 1303.58328577 -196.4259176 1302.77129115 C-210.14655594 1290.39630334 -222.59306877 1277.20533857 -233.63099573 1262.3792013 C-234.10891565 1261.7417599 -234.58683557 1261.10431849 -235.07923791 1260.44756068 C-260.42750867 1226.39365442 -278.06143689 1186.16316607 -285.63099573 1144.3792013 C-285.79196741 1143.49909388 -285.95293909 1142.61898646 -286.1187887 1141.71220911 C-286.67762296 1138.62420727 -287.21958197 1135.53367341 -287.75599573 1132.4417013 C-288.01255945 1130.99428553 -288.01255945 1130.99428553 -288.27430627 1129.51762904 C-290.44886671 1116.5646239 -290.78032095 1103.58303517 -290.75963018 1090.47520293 C-290.76098061 1089.03170788 -290.76276662 1087.5882132 -290.76494241 1086.14471916 C-290.76962985 1082.20661714 -290.76818472 1078.2685385 -290.76566464 1074.3304354 C-290.76402127 1070.03515956 -290.7681809 1065.73988851 -290.77157382 1061.44461424 C-290.7767126 1053.92590139 -290.77814767 1046.40719498 -290.77711771 1038.88848055 C-290.77558984 1027.70766853 -290.77976098 1016.5268636 -290.78499233 1005.34605295 C-290.79465358 984.21449978 -290.79747609 963.08294904 -290.79804939 941.95139392 C-290.79850919 925.63371395 -290.80056889 909.31603494 -290.80375001 892.99835528 C-290.80464757 888.29888681 -290.80553739 883.59941833 -290.80642489 878.89994986 C-290.80664594 877.73161356 -290.80686699 876.56327725 -290.80709474 875.35953682 C-290.81324704 842.50641697 -290.81719548 809.65329744 -290.81675146 776.80017699 C-290.81673588 775.56205096 -290.8167203 774.32392494 -290.81670425 773.04827995 C-290.81662114 766.7731249 -290.8165221 760.49796986 -290.81641954 754.22281481 C-290.8163996 752.97657269 -290.81637965 751.73033056 -290.8163591 750.44632353 C-290.81631866 747.92612138 -290.81627687 745.40591924 -290.81623371 742.8857171 C-290.81562078 703.66438456 -290.82313151 664.44306066 -290.83680627 625.2217306 C-290.85216743 581.14555665 -290.86077252 537.06938837 -290.85984305 492.99321158 C-290.85976842 488.29342875 -290.85971971 483.59364592 -290.85968874 478.89386309 C-290.85967708 477.73667611 -290.85966543 476.57948913 -290.85965342 475.38723588 C-290.85962265 456.76944881 -290.86600694 438.15166925 -290.874621 419.53388441 C-290.88309841 400.82460975 -290.88408669 382.11534607 -290.87751168 363.40607055 C-290.87381697 352.29375555 -290.8756461 341.18147393 -290.88545402 330.06916247 C-290.89145507 322.6421149 -290.89015714 315.21509149 -290.88298352 307.78804503 C-290.87910319 303.55942319 -290.87832303 299.3308659 -290.88644087 295.10224862 C-290.89377746 291.24671727 -290.89171613 287.39130359 -290.88251701 283.53577727 C-290.88001462 281.51400799 -290.88721166 279.49223356 -290.89493979 277.4704775 C-290.85959738 268.28487895 -289.93757401 259.4579313 -288.63099573 250.3792013 C-288.47118076 249.24762417 -288.31136579 248.11604703 -288.14670794 246.95017968 C-280.49818391 193.55513404 -259.87100251 145.14082237 -225.63099573 103.3792013 C-225.16612756 102.80991907 -224.7012594 102.24063685 -224.22230432 101.65410365 C-214.00977457 89.22739935 -202.93917729 77.41732419 -190.26771448 67.4651388 C-188.48536639 66.05510343 -186.73794065 64.59995384 -185.02552698 63.1057638 C-171.03075436 50.90721729 -155.01660435 41.03165385 -138.63099573 32.3792013 C-137.72365686 31.88976038 -137.72365686 31.88976038 -136.79798791 31.39043177 C-116.84812752 20.67070679 -95.51128055 13.0606476 -73.63099573 7.3792013 C-72.83145471 7.17069544 -72.0319137 6.96218958 -71.20814416 6.74736536 C-47.67620242 0.75061356 -24.14592316 -0.0660773 0 0 Z " fill="#FEFEFE" transform="translate(821.6309957271442,650.6207986986265)"/>
<path d="M0 0 C4.31411192 3.69781022 7.82982234 6.71491801 11.4375 10.875 C14.24744169 14.06182691 17.09442362 17.14718027 20.125 20.125 C23.33331229 23.28258798 26.28615748 26.5875287 29.21875 30 C31.0742521 32.08337078 33.01223101 34.04281207 35 36 C37.59982183 38.55990134 40.06268398 41.1677954 42.4375 43.9375 C45.00665271 46.92801716 47.69317256 49.73116684 50.5 52.5 C53.9071879 55.86114482 57.07458174 59.33701203 60.1875 62.96875 C62.92777083 66.03974317 65.87946902 68.88786876 68.80859375 71.77734375 C71.42101068 74.4270144 73.83302621 77.21172803 76.25390625 80.03515625 C78.72481389 82.81561832 81.3816694 85.39118218 84.03125 88 C86.55425459 90.56305228 88.87562817 93.27345824 91.21875 96 C93.0742521 98.08337078 95.01223101 100.04281207 97 102 C99.59982183 104.55990134 102.06268398 107.1677954 104.4375 109.9375 C107.00665271 112.92801716 109.69317256 115.73116684 112.5 118.5 C115.9288279 121.88241399 119.12048518 125.38070442 122.25390625 129.03515625 C124.09615675 131.10820324 126.02401662 133.05435802 128 135 C130.59982183 137.55990134 133.06268398 140.1677954 135.4375 142.9375 C138.00665271 145.92801716 140.69317256 148.73116684 143.5 151.5 C146.9288279 154.88241399 150.12048518 158.38070442 153.25390625 162.03515625 C155.09615675 164.10820324 157.02401662 166.05435802 159 168 C161.59982183 170.55990134 164.06268398 173.1677954 166.4375 175.9375 C169.00665271 178.92801716 171.69317256 181.73116684 174.5 184.5 C177.9288279 187.88241399 181.12048518 191.38070442 184.25390625 195.03515625 C186.72481389 197.81561832 189.3816694 200.39118218 192.03125 203 C194.55425459 205.56305228 196.87562817 208.27345824 199.21875 211 C201.0742521 213.08337078 203.01223101 215.04281207 205 217 C207.59982183 219.55990134 210.06268398 222.1677954 212.4375 224.9375 C215.00665271 227.92801716 217.69317256 230.73116684 220.5 233.5 C223.9288279 236.88241399 227.12048518 240.38070442 230.25390625 244.03515625 C232.09615675 246.10820324 234.02401662 248.05435802 236 250 C238.59982183 252.55990134 241.06268398 255.1677954 243.4375 257.9375 C246.00665271 260.92801716 248.69317256 263.73116684 251.5 266.5 C254.9071879 269.86114482 258.07458174 273.33701203 261.1875 276.96875 C263.92777083 280.03974317 266.87946902 282.88786876 269.80859375 285.77734375 C272.42101068 288.4270144 274.83302621 291.21172803 277.25390625 294.03515625 C279.09615675 296.10820324 281.02401662 298.05435802 283 300 C285.59982183 302.55990134 288.06268398 305.1677954 290.4375 307.9375 C293.71010493 311.74684196 297.23100437 315.24821109 300.8046875 318.7734375 C303.44006743 321.44633174 305.87766489 324.25368303 308.3203125 327.1015625 C309.98204576 328.97970753 311.71125525 330.74305516 313.5 332.5 C315.91332717 334.87042357 318.17271853 337.30736308 320.375 339.875 C322.96634205 342.8846753 325.67254783 345.71088616 328.5 348.5 C331.9071879 351.86114482 335.07458174 355.33701203 338.1875 358.96875 C340.92777083 362.03974317 343.87946902 364.88786876 346.80859375 367.77734375 C349.42101068 370.4270144 351.83302621 373.21172803 354.25390625 376.03515625 C356.09615675 378.10820324 358.02401662 380.05435802 360 382 C362.59982183 384.55990134 365.06268398 387.1677954 367.4375 389.9375 C370.00665271 392.92801716 372.69317256 395.73116684 375.5 398.5 C378.9288279 401.88241399 382.12048518 405.38070442 385.25390625 409.03515625 C387.09615675 411.10820324 389.02401662 413.05435802 391 415 C393.59982183 417.55990134 396.06268398 420.1677954 398.4375 422.9375 C401.00665271 425.92801716 403.69317256 428.73116684 406.5 431.5 C409.9288279 434.88241399 413.12048518 438.38070442 416.25390625 442.03515625 C418.09615675 444.10820324 420.02401662 446.05435802 422 448 C424.59982183 450.55990134 427.06268398 453.1677954 429.4375 455.9375 C432.00665271 458.92801716 434.69317256 461.73116684 437.5 464.5 C440.9288279 467.88241399 444.12048518 471.38070442 447.25390625 475.03515625 C449.09615675 477.10820324 451.02401662 479.05435802 453 481 C455.59982183 483.55990134 458.06268398 486.1677954 460.4375 488.9375 C463.00665271 491.92801716 465.69317256 494.73116684 468.5 497.5 C471.9288279 500.88241399 475.12048518 504.38070442 478.25390625 508.03515625 C480.72481389 510.81561832 483.3816694 513.39118218 486.03125 516 C488.55425459 518.56305228 490.87562817 521.27345824 493.21875 524 C495.0742521 526.08337078 497.01223101 528.04281207 499 530 C501.59982183 532.55990134 504.06268398 535.1677954 506.4375 537.9375 C509.00665271 540.92801716 511.69317256 543.73116684 514.5 546.5 C517.9288279 549.88241399 521.12048518 553.38070442 524.25390625 557.03515625 C526.72481389 559.81561832 529.3816694 562.39118218 532.03125 565 C534.55425459 567.56305228 536.87562817 570.27345824 539.21875 573 C541.0742521 575.08337078 543.01223101 577.04281207 545 579 C547.59982183 581.55990134 550.06268398 584.1677954 552.4375 586.9375 C555.00665271 589.92801716 557.69317256 592.73116684 560.5 595.5 C563.9071879 598.86114482 567.07458174 602.33701203 570.1875 605.96875 C572.92777083 609.03974317 575.87946902 611.88786876 578.80859375 614.77734375 C581.42101068 617.4270144 583.83302621 620.21172803 586.25390625 623.03515625 C588.09615675 625.10820324 590.02401662 627.05435802 592 629 C594.59982183 631.55990134 597.06268398 634.1677954 599.4375 636.9375 C602.00665271 639.92801716 604.69317256 642.73116684 607.5 645.5 C610.9288279 648.88241399 614.12048518 652.38070442 617.25390625 656.03515625 C619.72481389 658.81561832 622.3816694 661.39118218 625.03125 664 C627.55425459 666.56305228 629.87562817 669.27345824 632.21875 672 C634.0742521 674.08337078 636.01223101 676.04281207 638 678 C640.59982183 680.55990134 643.06268398 683.1677954 645.4375 685.9375 C648.00665271 688.92801716 650.69317256 691.73116684 653.5 694.5 C656.9071879 697.86114482 660.07458174 701.33701203 663.1875 704.96875 C665.92777083 708.03974317 668.87946902 710.88786876 671.80859375 713.77734375 C674.41287337 716.41876105 676.81923306 719.19186572 679.2265625 722.01171875 C681.83625686 724.93756551 684.65838479 727.63284472 687.49609375 730.3359375 C689 732 689 732 689 734 C461.63 734 234.26 734 0 734 C0 491.78 0 249.56 0 0 Z " fill="#000000" transform="translate(870,1070)"/>
<path d="M0 0 C227.37 0 454.74 0 689 0 C689 241.89 689 483.78 689 733 C681.13006338 726.25434004 681.13006338 726.25434004 678.28125 723.16015625 C677.65863281 722.48919922 677.03601562 721.81824219 676.39453125 721.12695312 C675.76933594 720.44568359 675.14414063 719.76441406 674.5 719.0625 C670.24964586 714.45721938 665.95613297 709.92819938 661.50488281 705.51635742 C659.78964203 703.78803807 658.19094582 701.98922122 656.625 700.125 C654.03365795 697.1153247 651.32745217 694.28911384 648.5 691.5 C645.0711721 688.11758601 641.87951482 684.61929558 638.74609375 680.96484375 C636.27518611 678.18438168 633.6183306 675.60881782 630.96875 673 C628.44574541 670.43694772 626.12437183 667.72654176 623.78125 665 C621.9257479 662.91662922 619.98776899 660.95718793 618 659 C615.40017817 656.44009866 612.93731602 653.8322046 610.5625 651.0625 C607.99334729 648.07198284 605.30682744 645.26883316 602.5 642.5 C599.0711721 639.11758601 595.87951482 635.61929558 592.74609375 631.96484375 C590.90384325 629.89179676 588.97598338 627.94564198 587 626 C584.40017817 623.44009866 581.93731602 620.8322046 579.5625 618.0625 C576.99334729 615.07198284 574.30682744 612.26883316 571.5 609.5 C568.0711721 606.11758601 564.87951482 602.61929558 561.74609375 598.96484375 C559.27518611 596.18438168 556.6183306 593.60881782 553.96875 591 C551.44574541 588.43694772 549.12437183 585.72654176 546.78125 583 C544.9257479 580.91662922 542.98776899 578.95718793 541 577 C538.40017817 574.44009866 535.93731602 571.8322046 533.5625 569.0625 C530.99334729 566.07198284 528.30682744 563.26883316 525.5 560.5 C522.0711721 557.11758601 518.87951482 553.61929558 515.74609375 549.96484375 C513.90384325 547.89179676 511.97598338 545.94564198 510 544 C507.40017817 541.44009866 504.93731602 538.8322046 502.5625 536.0625 C499.99334729 533.07198284 497.30682744 530.26883316 494.5 527.5 C491.0928121 524.13885518 487.92541826 520.66298797 484.8125 517.03125 C482.07222917 513.96025683 479.12053098 511.11213124 476.19140625 508.22265625 C473.57898932 505.5729856 471.16697379 502.78827197 468.74609375 499.96484375 C466.90384325 497.89179676 464.97598338 495.94564198 463 494 C460.40017817 491.44009866 457.93731602 488.8322046 455.5625 486.0625 C452.99334729 483.07198284 450.30682744 480.26883316 447.5 477.5 C444.0711721 474.11758601 440.87951482 470.61929558 437.74609375 466.96484375 C435.90384325 464.89179676 433.97598338 462.94564198 432 461 C429.40017817 458.44009866 426.93731602 455.8322046 424.5625 453.0625 C421.99334729 450.07198284 419.30682744 447.26883316 416.5 444.5 C413.0711721 441.11758601 409.87951482 437.61929558 406.74609375 433.96484375 C404.27518611 431.18438168 401.6183306 428.60881782 398.96875 426 C396.44574541 423.43694772 394.12437183 420.72654176 391.78125 418 C389.9257479 415.91662922 387.98776899 413.95718793 386 412 C383.40017817 409.44009866 380.93731602 406.8322046 378.5625 404.0625 C375.99334729 401.07198284 373.30682744 398.26883316 370.5 395.5 C367.0711721 392.11758601 363.87951482 388.61929558 360.74609375 384.96484375 C358.90384325 382.89179676 356.97598338 380.94564198 355 379 C352.40017817 376.44009866 349.93731602 373.8322046 347.5625 371.0625 C344.99334729 368.07198284 342.30682744 365.26883316 339.5 362.5 C336.0711721 359.11758601 332.87951482 355.61929558 329.74609375 351.96484375 C327.90384325 349.89179676 325.97598338 347.94564198 324 346 C321.40017817 343.44009866 318.93731602 340.8322046 316.5625 338.0625 C313.99334729 335.07198284 311.30682744 332.26883316 308.5 329.5 C305.0711721 326.11758601 301.87951482 322.61929558 298.74609375 318.96484375 C296.90384325 316.89179676 294.97598338 314.94564198 293 313 C290.40017817 310.44009866 287.93731602 307.8322046 285.5625 305.0625 C282.99334729 302.07198284 280.30682744 299.26883316 277.5 296.5 C274.0711721 293.11758601 270.87951482 289.61929558 267.74609375 285.96484375 C265.90384325 283.89179676 263.97598338 281.94564198 262 280 C259.40017817 277.44009866 256.93731602 274.8322046 254.5625 272.0625 C251.99334729 269.07198284 249.30682744 266.26883316 246.5 263.5 C243.0711721 260.11758601 239.87951482 256.61929558 236.74609375 252.96484375 C234.27518611 250.18438168 231.6183306 247.60881782 228.96875 245 C226.44574541 242.43694772 224.12437183 239.72654176 221.78125 237 C219.9257479 234.91662922 217.98776899 232.95718793 216 231 C213.40017817 228.44009866 210.93731602 225.8322046 208.5625 223.0625 C205.99334729 220.07198284 203.30682744 217.26883316 200.5 214.5 C197.0711721 211.11758601 193.87951482 207.61929558 190.74609375 203.96484375 C188.90384325 201.89179676 186.97598338 199.94564198 185 198 C182.40017817 195.44009866 179.93731602 192.8322046 177.5625 190.0625 C174.99334729 187.07198284 172.30682744 184.26883316 169.5 181.5 C166.0711721 178.11758601 162.87951482 174.61929558 159.74609375 170.96484375 C157.90384325 168.89179676 155.97598338 166.94564198 154 165 C151.40017817 162.44009866 148.93731602 159.8322046 146.5625 157.0625 C143.99334729 154.07198284 141.30682744 151.26883316 138.5 148.5 C135.0711721 145.11758601 131.87951482 141.61929558 128.74609375 137.96484375 C126.90384325 135.89179676 124.97598338 133.94564198 123 132 C120.40017817 129.44009866 117.93731602 126.8322046 115.5625 124.0625 C112.99334729 121.07198284 110.30682744 118.26883316 107.5 115.5 C104.0711721 112.11758601 100.87951482 108.61929558 97.74609375 104.96484375 C95.90384325 102.89179676 93.97598338 100.94564198 92 99 C89.40017817 96.44009866 86.93731602 93.8322046 84.5625 91.0625 C81.99334729 88.07198284 79.30682744 85.26883316 76.5 82.5 C73.0928121 79.13885518 69.92541826 75.66298797 66.8125 72.03125 C64.07222917 68.96025683 61.12053098 66.11213124 58.19140625 63.22265625 C55.57898932 60.5729856 53.16697379 57.78827197 50.74609375 54.96484375 C48.27518611 52.18438168 45.6183306 49.60881782 42.96875 47 C40.44574541 44.43694772 38.12437183 41.72654176 35.78125 39 C33.9257479 36.91662922 31.98776899 34.95718793 30 33 C26.74970017 29.79970478 23.75275755 26.45775424 20.78125 23 C18.9257479 20.91662922 16.98776899 18.95718793 15 17 C9.58201359 11.6555134 4.75244571 5.94055714 0 0 Z " fill="#000000" transform="translate(879,873)"/>
<path d="M0 0 C0.84956746 -0.00085442 1.69913493 -0.00170885 2.57444686 -0.00258917 C5.41958172 -0.00423554 8.26465756 0.00126364 11.10978699 0.00672913 C13.14990742 0.00701121 15.19002795 0.00685286 17.23014832 0.00628662 C22.76894067 0.00599946 28.3077114 0.01188317 33.84649873 0.01886058 C39.63475577 0.02510753 45.4230133 0.02569898 51.21127319 0.02688599 C62.17235334 0.02999533 73.13342353 0.0382034 84.09449929 0.04823548 C98.90607544 0.06149773 113.7176543 0.06689972 128.52923489 0.07273769 C151.86623302 0.08214354 175.20321014 0.10206512 198.54020691 0.12025452 C198.54020691 36.75025452 198.54020691 73.38025452 198.54020691 111.12025452 C147.48521878 111.28146665 147.48521878 111.28146665 126.04606628 111.31556702 C111.25881891 111.33927635 96.47166288 111.36710782 81.68449402 111.42201233 C70.91376965 111.46198466 60.14311959 111.48771211 49.3723231 111.4966085 C43.67362773 111.50180564 37.97514487 111.51394945 32.27651787 111.54317474 C26.9027733 111.57050824 21.52932697 111.57866351 16.15551949 111.57268524 C14.19287109 111.5737775 12.23021177 111.5816237 10.2676239 111.59707642 C-9.01336361 111.74132505 -24.77503087 108.90585403 -39.42463684 95.31556702 C-50.51373994 83.35380897 -54.03864696 67.36883131 -53.70198059 51.58900452 C-53.14345572 38.42772533 -47.61637145 24.43337241 -38.38557434 14.85462952 C-27.40751425 4.96769507 -14.72416679 -0.0542309 0 0 Z " fill="#FDFDFD" transform="translate(277.4597930908203,1282.8797454833984)"/>
<path d="M0 0 C50.88481976 -0.1209091 50.88481976 -0.1209091 72.23632812 -0.14648438 C86.96886331 -0.1642732 101.70134696 -0.18516609 116.43383789 -0.22631836 C127.16425692 -0.25627728 137.89463407 -0.27558843 148.62509376 -0.28226548 C154.30356363 -0.28616673 159.98191371 -0.2952967 165.66034508 -0.31719017 C171.01270911 -0.33765792 176.36490478 -0.34381308 181.71730423 -0.33932304 C183.67433527 -0.34014366 185.63137235 -0.34604763 187.58836937 -0.35761642 C205.39784754 -0.45767125 222.52646253 1.12554883 236.19140625 14.0234375 C248.12731207 27.06786157 252.98908983 42.91518846 252.41796875 60.38671875 C251.39600882 75.71611769 244.12416517 89.60093939 233 100 C227.20245787 104.33222928 220.99359141 107.20508765 214 109 C213.37271848 109.16222986 212.74543696 109.32445972 212.0991469 109.49160564 C206.69378709 110.80151016 201.68438652 111.28241606 196.13511658 111.24050903 C194.86788949 111.24307231 194.86788949 111.24307231 193.57506186 111.24568737 C190.76992312 111.24895777 187.96502847 111.23801929 185.15991211 111.22705078 C183.1389059 111.22648614 181.11789928 111.22680427 179.09689331 111.22793579 C173.62855618 111.22850822 168.16030729 111.21677157 162.69199061 111.20278788 C156.97049202 111.19026232 151.24899127 111.18910858 145.52748108 111.18673706 C134.70110015 111.18052766 123.87475975 111.16412413 113.04839665 111.14403808 C98.41299906 111.11747615 83.77759034 111.10670208 69.14217472 111.09503365 C46.09475281 111.07624317 23.0474164 111.03639385 0 111 C0 74.37 0 37.74 0 0 Z " fill="#FDFDFD" transform="translate(1960,1283)"/>
<path d="M0 0 C11.09721105 8.25707737 18.21736007 18.89382488 21.4921875 32.40234375 C21.75712825 35.34404957 21.75428255 38.26447474 21.73269653 41.21653748 C21.73440538 42.08006445 21.73611423 42.94359141 21.73787487 43.83328587 C21.74115725 46.71373129 21.73018672 49.59394143 21.71923828 52.47436523 C21.7186739 54.5443369 21.71899126 56.61430896 21.72012329 58.6842804 C21.72069674 64.29529235 21.70894359 69.90621866 21.69497538 75.51721072 C21.6824668 81.38419583 21.68129741 87.25118294 21.67892456 93.11817932 C21.67271018 104.22441246 21.65629989 115.3306062 21.63622558 126.436822 C21.60968371 141.44730867 21.5988936 156.45780613 21.58722115 171.46831036 C21.5684193 195.11301767 21.52857329 218.75764182 21.4921875 242.40234375 C-14.8078125 242.40234375 -51.1078125 242.40234375 -88.5078125 242.40234375 C-88.66902464 190.76520069 -88.66902464 190.76520069 -88.703125 169.09960938 C-88.72684435 154.14976503 -88.75470403 139.20001097 -88.80957031 124.25024414 C-88.84951291 113.36161167 -88.87526309 102.47305256 -88.88416648 91.58434886 C-88.88936862 85.8220023 -88.90154467 80.05986557 -88.93073273 74.29758644 C-88.95801906 68.86639461 -88.96623084 63.43549772 -88.96024323 58.00424385 C-88.96133757 56.01817977 -88.96921218 54.03210512 -88.9846344 52.04610062 C-89.11986401 33.72261142 -86.19771631 18.6534541 -73.2109375 4.828125 C-53.00604987 -13.3037178 -22.65488688 -14.43278619 0 0 Z " fill="#FEFEFE" transform="translate(1252.5078125,348.59765625)"/>
<path d="M0 0 C36.3 0 72.6 0 110 0 C110.16121214 51.8879175 110.16121214 51.8879175 110.1953125 73.65820312 C110.21903214 88.68047559 110.24689264 103.7026582 110.30175781 118.72485352 C110.34169955 129.6662237 110.36745039 140.60752087 110.37635398 151.54896194 C110.38155627 157.33925373 110.39373324 163.1293367 110.42292023 168.91956139 C110.45020519 174.37701767 110.45841861 179.83418044 110.45243073 185.29169846 C110.45352513 187.28743781 110.46140056 189.28318765 110.4768219 191.27886772 C110.6063684 208.91871593 108.1974809 223.15672828 95.8125 236.75 C87.2606939 244.67467365 77.15547593 248.32613592 66 251 C65.03707031 251.28810547 65.03707031 251.28810547 64.0546875 251.58203125 C50.15178844 254.41018752 35.63478016 250.82726772 23.59765625 243.75390625 C10.17135953 234.68863223 3.18212386 222.78387831 0 207 C-0.82613598 200.09262375 -0.63575932 193.12518912 -0.56762695 186.18164062 C-0.56621329 184.13989802 -0.56701467 182.09815288 -0.56983948 180.05641174 C-0.57126259 174.5635047 -0.5420531 169.07115371 -0.50696969 163.57837486 C-0.47552051 157.81957258 -0.4727609 152.0607548 -0.46684265 146.30187988 C-0.45135846 135.41896425 -0.41040388 124.53630248 -0.3600952 113.65349817 C-0.29353078 98.93182215 -0.26672336 84.21007574 -0.23758411 69.48828697 C-0.19069777 46.32533484 -0.09104921 23.16291818 0 0 Z " fill="#FEFEFE" transform="translate(1164,2081)"/>
<path d="M0 0 C15.015 -0.0825 30.03 -0.165 45.5 -0.25 C50.20958984 -0.28641602 54.91917969 -0.32283203 59.77148438 -0.36035156 C65.60253906 -0.37841797 65.60253906 -0.37841797 68.34777832 -0.3817749 C70.23128053 -0.38784531 72.11476897 -0.40176081 73.99816895 -0.42230225 C93.62416856 -0.62531856 111.78381069 1.38336004 126.67578125 15.48046875 C137.58059958 27.30165837 142.58666368 42.29923575 142.3125 58.18359375 C141.06618939 73.40416202 135.58345135 88.63062173 124 99 C107.68172042 111.0623594 91.75626513 111.29929945 72.265625 111.1953125 C70.4112968 111.1923659 68.55696692 111.19032927 66.70263672 111.18920898 C59.88506551 111.17879317 53.06753008 111.15087081 46.25 111.125 C30.9875 111.08375 15.725 111.0425 0 111 C0 74.37 0 37.74 0 0 Z " fill="#FDFDFD" transform="translate(1960,1062)"/>
<path d="M0 0 C0.94238085 -0.00012053 1.8847617 -0.00024107 2.85569954 -0.00036526 C5.8922681 0.00037839 8.92877452 0.00798162 11.96533203 0.01586914 C13.84562144 0.01734026 15.72591127 0.01835992 17.60620117 0.0189209 C24.56185522 0.02415412 31.51750049 0.03811537 38.47314453 0.05102539 C54.02439453 0.07165039 69.57564453 0.09227539 85.59814453 0.11352539 C85.59814453 36.74352539 85.59814453 73.37352539 85.59814453 111.11352539 C62.20939453 111.20633789 62.20939453 111.20633789 38.34814453 111.30102539 C30.9942041 111.34199341 30.9942041 111.34199341 23.49169922 111.38378906 C17.45214844 111.39733887 17.45214844 111.39733887 14.61456299 111.39985657 C12.65506947 111.40442893 10.69558379 111.41490793 8.73614502 111.43025208 C-9.98352413 111.56937038 -27.1291806 110.00856189 -41.37451172 96.35571289 C-53.63134343 82.79998764 -56.43187633 67.4089439 -55.81591797 49.74633789 C-54.99009408 35.7811484 -49.03208793 22.53845094 -38.69873047 12.92602539 C-26.88503865 3.60365634 -14.81038887 -0.06136461 0 0 Z " fill="#FDFDFD" transform="translate(390.40185546875,1061.886474609375)"/>
<path d="M0 0 C1.46711426 0.00737183 1.46711426 0.00737183 2.96386719 0.01489258 C18.73525893 0.27041114 31.83662002 5.32495534 43.3125 16.3125 C53.51838918 27.76954898 57.48846086 40.64551497 57.42602539 55.71435547 C57.42614593 56.65673632 57.42626646 57.59911716 57.42639065 58.57005501 C57.425647 61.60662357 57.41804377 64.64312999 57.41015625 67.6796875 C57.40868513 69.55997691 57.40766547 71.44026674 57.40710449 73.32055664 C57.40187127 80.27621069 57.38791002 87.23185596 57.375 94.1875 C57.354375 109.73875 57.33375 125.29 57.3125 141.3125 C20.6825 141.3125 -15.9475 141.3125 -53.6875 141.3125 C-53.749375 125.905625 -53.81125 110.49875 -53.875 94.625 C-53.90231201 89.78368408 -53.92962402 84.94236816 -53.95776367 79.9543457 C-53.97131348 73.98278809 -53.97131348 73.98278809 -53.97383118 71.17570496 C-53.97839862 69.24042178 -53.98886703 67.30514644 -54.00422668 65.36991882 C-54.14808976 46.26739226 -52.72364906 29.83462371 -39.25 15 C-28.53582437 4.92670298 -14.51265142 -0.08552895 0 0 Z " fill="#FDFDFD" transform="translate(996.6875,449.6875)"/>
<path d="M0 0 C36.63 0 73.26 0 111 0 C111.12375 23.079375 111.12375 23.079375 111.25 46.625 C111.28641602 51.45721191 111.32283203 56.28942383 111.36035156 61.26806641 C111.37841797 67.23510742 111.37841797 67.23510742 111.3817749 70.04135132 C111.38785904 71.97327374 111.4018045 73.90518236 111.42230225 75.83700562 C111.61683458 95.16126828 109.25630886 112.15702079 95.375 126.74609375 C82.12314514 139.32227838 65.9407634 141.51165203 48.44140625 141.27734375 C42.05668726 141.05815869 36.75761001 139.77893696 31 137 C30.07316406 136.5875 29.14632812 136.175 28.19140625 135.75 C14.82648682 129.22510175 7.0916601 118.56571072 2.2102356 104.76760864 C-0.88731708 94.34367888 -0.37816551 83.80957345 -0.29296875 73.046875 C-0.28854899 71.17269153 -0.28549395 69.29850434 -0.28381348 67.42431641 C-0.2681881 60.53282054 -0.2263045 53.64140433 -0.1875 46.75 C-0.125625 31.3225 -0.06375 15.895 0 0 Z " fill="#FDFDFD" transform="translate(943,2081)"/>
<path d="M0 0 C15.860625 -0.103125 31.72125 -0.20625 48.0625 -0.3125 C53.042229 -0.35802002 58.02195801 -0.40354004 63.15258789 -0.45043945 C69.30554199 -0.47302246 69.30554199 -0.47302246 72.19993591 -0.47721863 C74.1910005 -0.48481991 76.1820443 -0.50224347 78.17295837 -0.52787781 C95.20441832 -0.73591443 109.43183589 0.57671441 123 12 C123.69480469 12.54914063 124.38960937 13.09828125 125.10546875 13.6640625 C135.42717615 22.72799898 141.05467554 37.92451647 142.30859375 51.2890625 C142.92613124 67.86900856 137.74345494 84.0479818 126.4375 96.375 C115.64168498 106.47961955 102.50999785 110.34508554 87.98217773 110.22705078 C87.00969872 110.22729185 86.03721972 110.22753292 85.03527164 110.2277813 C81.91794939 110.2263002 78.80087267 110.21112303 75.68359375 110.1953125 C73.74678665 110.19236833 71.80997796 110.19033019 69.87316895 110.18920898 C62.72792154 110.17876499 55.5827083 110.15084245 48.4375 110.125 C32.453125 110.08375 16.46875 110.0425 0 110 C0 73.7 0 37.4 0 0 Z " fill="#FEFEFE" transform="translate(1960,1504)"/>
<path d="M0 0 C1.93273455 0.00589388 3.86547553 0.00996673 5.79821777 0.01220703 C12.90073323 0.03303098 20.00311129 0.08887574 27.10546875 0.140625 C50.95828125 0.264375 50.95828125 0.264375 75.29296875 0.390625 C75.29296875 36.690625 75.29296875 72.990625 75.29296875 110.390625 C59.04046875 110.473125 42.78796875 110.555625 26.04296875 110.640625 C20.93151367 110.67704102 15.82005859 110.71345703 10.55371094 110.75097656 C4.26025391 110.76904297 4.26025391 110.76904297 1.30401611 110.7723999 C-0.73882544 110.77849919 -2.78165356 110.7924773 -4.82440186 110.81292725 C-22.90168172 110.9846837 -37.36065124 109.05404296 -51.33203125 96.515625 C-63.67118707 83.62854929 -66.30297596 67.42579393 -66.01953125 50.30859375 C-65.75961891 43.41550203 -64.58879796 37.71250071 -61.70703125 31.390625 C-61.29453125 30.44445313 -60.88203125 29.49828125 -60.45703125 28.5234375 C-54.2689254 15.83078856 -43.48230989 6.97260495 -30.30200195 2.25097656 C-20.39686189 -0.69575463 -10.2426372 -0.10496401 0 0 Z " fill="#FEFEFE" transform="translate(400.70703125,1503.609375)"/>
<path d="M0 0 C11.87517109 8.31440015 20.15383914 19.27089012 23.0625 33.75 C23.3290451 37.04716405 23.31592109 40.32618754 23.28955078 43.63256836 C23.28979185 44.61471848 23.29003292 45.59686861 23.2902813 46.60878086 C23.28879561 49.76922922 23.27359697 52.92943791 23.2578125 56.08984375 C23.25486976 58.04854214 23.25283074 60.0072421 23.25170898 61.96594238 C23.24124843 69.20648567 23.21332589 76.44699522 23.1875 83.6875 C23.14625 99.878125 23.105 116.06875 23.0625 132.75 C-13.2375 132.75 -49.5375 132.75 -86.9375 132.75 C-86.97875 117.301875 -87.02 101.85375 -87.0625 85.9375 C-87.08070801 81.07797607 -87.09891602 76.21845215 -87.11767578 71.21166992 C-87.12670898 65.2310791 -87.12670898 65.2310791 -87.12838745 62.4223175 C-87.13143822 60.48029155 -87.1384296 58.53826915 -87.14865112 56.5962677 C-87.24152376 38.00557654 -86.56376282 20.7012827 -72.86328125 6.484375 C-52.78430517 -11.59892191 -23.06092799 -13.6645554 0 0 Z " fill="#FEFEFE" transform="translate(1471.9375,458.25)"/>
<path d="M0 0 C36.3 0 72.6 0 110 0 C110.04125 15.84 110.0825 31.68 110.125 48 C110.14320801 52.99125 110.16141602 57.9825 110.18017578 63.125 C110.18920898 69.24609375 110.18920898 69.24609375 110.19088745 72.11669922 C110.19394741 74.11052342 110.20095823 76.10434404 110.21115112 78.09814453 C110.22585885 81.12799455 110.22780969 84.15761946 110.22705078 87.1875 C110.234247 88.06744629 110.24144321 88.94739258 110.2488575 89.85400391 C110.20476056 103.06684403 105.62412955 115.24584953 96.37890625 124.75 C84.51017087 135.97560193 71.02740421 141.41588907 54.6875 141.3125 C53.75687744 141.30686035 52.82625488 141.3012207 51.86743164 141.29541016 C45.17853787 141.177147 39.22526384 140.60615311 33 138 C32.00871094 137.58621094 31.01742188 137.17242188 29.99609375 136.74609375 C15.74417815 130.19984466 7.52858283 119.98617736 1.7265625 105.58203125 C-0.13682794 98.95998241 -0.1420367 92.19529498 -0.11352539 85.37109375 C-0.11364593 84.42847183 -0.11376646 83.48584991 -0.11389065 82.5146637 C-0.11314929 79.48891775 -0.1055567 76.46323481 -0.09765625 73.4375 C-0.09618442 71.55924509 -0.0951652 69.68098978 -0.09460449 67.80273438 C-0.08937951 60.86848329 -0.07541825 53.93424102 -0.0625 47 C-0.041875 31.49 -0.02125 15.98 0 0 Z " fill="#FEFEFE" transform="translate(1385,2081)"/>
</svg>
