<?xml version="1.0" encoding="UTF-8"?>
<svg version="1.1" xmlns="http://www.w3.org/2000/svg" width="2077" height="2124">
<path d="M0 0 C685.41 0 1370.82 0 2077 0 C2077 700.92 2077 1401.84 2077 2124 C1391.59 2124 706.18 2124 0 2124 C0 1423.08 0 722.16 0 0 Z " fill="#FEFEFE" transform="translate(0,0)"/>
<path d="M0 0 C4.36976035 0.00862884 8.7394938 -0.00041976 13.10925276 -0.00706416 C20.74339293 -0.01629888 28.377467 -0.01455383 36.01160629 -0.00533163 C47.36414588 0.00834442 58.71663532 0.0046778 70.06917866 -0.00229023 C90.35059932 -0.01418262 110.63198877 -0.00915721 130.9134077 0.00298804 C148.6599899 0.01354248 166.4065615 0.0180612 184.15314681 0.01669253 C185.33232085 0.0166085 186.51149489 0.01652447 187.72640148 0.01643789 C192.51353556 0.01608562 197.30066963 0.0157016 202.0878037 0.01527231 C246.95014273 0.01131152 291.81246302 0.02400556 336.67479669 0.04479888 C376.50199896 0.06317169 416.32918326 0.06897951 456.15638931 0.06352747 C458.71442231 0.06318104 461.27245531 0.06283494 463.83048831 0.06248918 C465.09515371 0.06231819 466.35981911 0.06214719 467.6628077 0.06197102 C474.02944392 0.06111743 480.39608014 0.06029364 486.76271636 0.05950201 C488.01885586 0.05934493 489.27499536 0.05918785 490.56919969 0.05902601 C523.8868831 0.05503337 557.20456479 0.06051492 590.52224715 0.06901331 C594.10842116 0.06992031 597.69459518 0.07082596 601.2807692 0.07172854 C603.65955771 0.07232965 606.03834621 0.07293826 608.41713471 0.07355445 C624.97833966 0.07777037 641.53954121 0.07835636 658.10074653 0.07644895 C679.4434366 0.07400298 700.78610847 0.07810223 722.12879358 0.09365895 C733.4067395 0.10169072 744.68465514 0.1043244 755.96260285 0.0990166 C763.50608724 0.09602864 771.04954497 0.10037634 778.593023 0.11056517 C782.88386673 0.11616391 787.17464895 0.1187402 791.46549306 0.1123986 C814.07163427 0.08187657 836.08315407 0.42415228 858.17299087 5.7542013 C859.43949478 6.04552943 860.70599868 6.33685755 862.01088149 6.6370138 C900.79741397 15.69316271 936.19444557 31.78639165 968.23549087 55.3792013 C969.08498306 56.00439661 969.93447524 56.62959193 970.80970962 57.27373255 C972.99168049 58.9313851 975.11779046 60.6401869 977.23549087 62.3792013 C978.65861587 63.5258224 978.65861587 63.5258224 980.11049087 64.69560755 C988.00299945 71.18104515 995.31083654 78.24138192 1002.54799087 85.4417013 C1003.4666896 86.35121546 1004.38538833 87.26072962 1005.33192642 88.19780482 C1022.45647272 105.39964888 1036.26078236 125.34710953 1048.23549087 146.3792013 C1048.60335708 147.01180872 1048.97122329 147.64441615 1049.35023696 148.29619349 C1072.96067099 189.0193979 1083.4373998 236.46799745 1083.36412532 283.22706545 C1083.36547533 284.67671164 1083.3672611 286.12635748 1083.36943756 287.57600267 C1083.37413071 291.53587302 1083.37267796 295.49572016 1083.37015979 299.4555916 C1083.36851789 303.77278558 1083.37267484 308.08997478 1083.37606896 312.4071672 C1083.38121018 319.96603329 1083.38264238 327.52489297 1083.38161285 335.08376063 C1083.38008559 346.32450983 1083.38425484 357.56525196 1083.38948747 368.80599979 C1083.39915152 390.05204981 1083.40197136 411.29809741 1083.40254453 432.54414936 C1083.40300431 448.95287533 1083.40506387 465.36160036 1083.40824516 481.77032603 C1083.40914272 486.49583325 1083.41003253 491.22134047 1083.41092004 495.94684769 C1083.41114108 497.12166569 1083.41136213 498.2964837 1083.41158988 499.50690225 C1083.41774288 532.54613564 1083.42169056 565.5853687 1083.4212466 598.62460268 C1083.42123102 599.86990815 1083.42121544 601.11521362 1083.42119939 602.39825561 C1083.42111629 608.70979238 1083.42101724 615.02132915 1083.42091468 621.33286592 C1083.42088477 623.21306248 1083.42088477 623.21306248 1083.42085424 625.13124281 C1083.42081381 627.66605233 1083.42077201 630.20086184 1083.42072885 632.73567136 C1083.42011612 672.17170196 1083.42762276 711.60772395 1083.44130142 751.04375208 C1083.45666774 795.36350297 1083.46526732 839.68324821 1083.46433819 884.00300194 C1083.46426357 888.73039529 1083.46421486 893.45778863 1083.46418388 898.18518198 C1083.46417222 899.34916152 1083.46416057 900.51314106 1083.46414856 901.71239271 C1083.46411781 920.4289369 1083.47049866 939.14547361 1083.47911614 957.86201557 C1083.48760009 976.67790117 1083.48857674 995.49377585 1083.48200682 1014.30966231 C1083.47831622 1025.48111923 1083.48012893 1036.65254296 1083.48994916 1047.82399635 C1083.49596094 1055.29560723 1083.4946404 1062.76719412 1083.48747866 1070.23880391 C1083.48360729 1074.48961496 1083.48279209 1078.74036188 1083.49093601 1082.99116834 C1083.52828417 1103.85246011 1083.41448136 1124.4122837 1078.79799087 1144.8792013 C1078.59367446 1145.83310755 1078.38935806 1146.7870138 1078.17885024 1147.7698263 C1073.26488287 1170.42612447 1066.32772597 1192.47893374 1056.23549087 1213.3792013 C1055.92289321 1214.04387415 1055.61029556 1214.708547 1055.28822524 1215.39336146 C1047.60685965 1231.72222715 1038.08306276 1246.97266013 1027.23549087 1261.3792013 C1026.80268814 1261.9562179 1026.3698854 1262.5332345 1025.92396743 1263.12773646 C1019.20000703 1272.03489656 1011.99095882 1280.35798345 1004.23549087 1288.3792013 C1003.60417251 1289.03243372 1002.97285415 1289.68566615 1002.32240493 1290.35869349 C994.34941746 1298.56334161 986.32290864 1306.40093222 977.23549087 1313.3792013 C975.96126186 1314.39252971 974.68788898 1315.40693523 973.41517837 1316.42217005 C963.4842554 1324.26825071 953.18005687 1331.04011629 942.23549087 1337.3792013 C941.51812759 1337.8029806 940.80076431 1338.2267599 940.06166274 1338.66338099 C894.2144157 1365.70203394 843.94761869 1375.7198333 791.3578519 1375.64233777 C786.99388471 1375.63813414 782.62993387 1375.64558815 778.26597078 1375.65149028 C770.63100784 1375.66022189 762.99607172 1375.66157525 755.36110504 1375.65798701 C744.00694654 1375.65266502 732.65281387 1375.65879037 721.29865818 1375.66706994 C699.83628847 1375.6822909 678.37393059 1375.68401692 656.91155661 1375.68154691 C640.33325904 1375.67971236 623.75496533 1375.68147726 607.17666824 1375.68577135 C604.79261482 1375.68637376 602.4085614 1375.68697496 600.02450798 1375.68757496 C596.43168633 1375.68848224 592.83886467 1375.68939091 589.24604302 1375.69030731 C555.85100273 1375.69873418 522.45596389 1375.70307442 489.06092269 1375.69890059 C487.802604 1375.69874421 486.5442853 1375.69858784 485.24783574 1375.69842672 C478.87058456 1375.69762097 472.49333338 1375.6967752 466.1160822 1375.69591342 C464.84960498 1375.69574233 463.58312775 1375.69557124 462.27827242 1375.69539497 C459.71714828 1375.69504832 457.15602414 1375.69469979 454.5949 1375.69434939 C414.75536164 1375.68899374 374.91584542 1375.69691925 335.07631118 1375.71538294 C290.28549438 1375.73611715 245.49469129 1375.74682286 200.70386941 1375.74280746 C195.92419282 1375.74241213 191.14451622 1375.74205058 186.36483962 1375.74171008 C185.18801912 1375.74161934 184.01119861 1375.74152861 182.79871688 1375.74143513 C165.06301072 1375.74027102 147.32731844 1375.74690332 129.59161575 1375.757522 C109.40982963 1375.76959308 89.22807402 1375.77111107 69.04628743 1375.75873183 C57.76496833 1375.75212098 46.48372225 1375.75369316 35.20240905 1375.76732034 C27.65004879 1375.7756034 20.09774287 1375.77281756 12.54538698 1375.76134508 C8.25342655 1375.75512659 3.96160793 1375.75338823 -0.33034395 1375.76520841 C-24.46497327 1375.82716266 -48.33541675 1375.04038553 -71.88950913 1369.1917013 C-73.7561522 1368.73996546 -73.7561522 1368.73996546 -75.66050522 1368.27910365 C-120.87939108 1357.03358432 -162.92597861 1334.9834229 -197.38950913 1303.5354513 C-199.52837471 1301.5935865 -201.69870298 1299.69942534 -203.88950913 1297.8167013 C-210.73991056 1291.83466062 -216.86264211 1285.28438571 -222.76450913 1278.3792013 C-223.55341538 1277.49103724 -224.34232163 1276.60287318 -225.15513413 1275.68779505 C-273.93650839 1220.23826655 -293.34591057 1148.46740836 -293.14371043 1076.00295585 C-293.13507925 1071.69034856 -293.14413088 1067.37776849 -293.15077459 1063.06516261 C-293.16000791 1055.53151897 -293.1582655 1047.99794231 -293.14904206 1040.46429957 C-293.13536445 1029.26146431 -293.13903307 1018.05867985 -293.14600066 1006.85584079 C-293.15789162 986.84315611 -293.15286897 966.83050307 -293.14072239 946.81782016 C-293.13016862 929.30955652 -293.12564915 911.80130363 -293.1270179 894.29303683 C-293.12710193 893.12977333 -293.12718597 891.96650982 -293.12727254 890.76799591 C-293.12762481 886.04552901 -293.12800883 881.32306212 -293.12843812 876.60059522 C-293.13239858 832.34857771 -293.11970572 788.0965792 -293.09891156 743.84456712 C-293.0805327 704.54775745 -293.07473246 665.25096598 -293.08018296 625.95415247 C-293.08052939 623.42946991 -293.08087549 620.90478735 -293.08122125 618.38010478 C-293.08139224 617.13193383 -293.08156324 615.88376289 -293.08173942 614.59776858 C-293.08259299 608.3143463 -293.08341677 602.03092402 -293.08420842 595.74750174 C-293.0843655 594.50781416 -293.08452258 593.26812657 -293.08468442 591.9908727 C-293.08867524 559.12511656 -293.08319811 526.25936217 -293.07469713 493.39360709 C-293.07379011 489.85706525 -293.07288446 486.32052341 -293.0719819 482.78398157 C-293.07138079 480.43807504 -293.07077217 478.09216851 -293.07015599 475.74626199 C-293.06593748 459.40365508 -293.06535513 443.06105162 -293.06726148 426.71844435 C-293.0697054 405.66309814 -293.06562427 384.60777037 -293.05005148 363.5524292 C-293.04200887 352.42229139 -293.03939411 341.29218429 -293.04469383 330.16204465 C-293.04767534 322.72346681 -293.04335455 315.28491607 -293.03314526 307.84634471 C-293.02753082 303.61131755 -293.02499485 299.37635291 -293.03131184 295.1413253 C-293.03700168 291.2801 -293.03331839 287.41899553 -293.02251306 283.5577822 C-293.01915876 281.53301281 -293.02546868 279.5082342 -293.03230741 277.48347358 C-292.99317199 268.28946327 -292.03595237 259.46907194 -290.76450913 250.3792013 C-290.5451336 248.53613633 -290.33012015 246.69253277 -290.12388413 244.8479513 C-283.89558101 192.65374167 -260.90285058 143.81999456 -227.76450913 103.3792013 C-227.07518296 102.53325404 -227.07518296 102.53325404 -226.37193101 101.67021693 C-215.12723331 87.95450082 -202.76348055 75.29102091 -188.76450913 64.3792013 C-187.62532725 63.44208337 -186.48876816 62.50177126 -185.35435288 61.5588888 C-171.53804644 50.14485716 -156.54413296 40.82775931 -140.76450913 32.3792013 C-139.84846909 31.8832345 -139.84846909 31.8832345 -138.91392319 31.37724818 C-118.96429286 20.6621771 -97.63616891 13.07692717 -75.76450913 7.3792013 C-74.97560288 7.17069544 -74.18669663 6.96218958 -73.37388413 6.74736536 C-49.24440159 0.49352658 -24.76117473 -0.06816416 0 0 Z " fill="#000000" transform="translate(632.7645091302693,381.62079869862646)"/>
<path d="M0 0 C4.43511569 3.80152773 8.13757245 7.05682749 11.9375 11.3125 C12.88816879 12.36692712 13.84006802 13.42024573 14.79296875 14.47265625 C15.3039209 15.03742676 15.81487305 15.60219727 16.34130859 16.18408203 C19.4390184 19.57542226 22.5972 22.90995749 25.75 26.25 C27.12894119 27.71220664 28.50784722 29.17444643 29.88671875 30.63671875 C30.57169434 31.36294434 31.25666992 32.08916992 31.96240234 32.83740234 C35.16845107 36.24013175 38.3659033 39.65089312 41.5625 43.0625 C42.17706055 43.71831055 42.79162109 44.37412109 43.42480469 45.04980469 C44.66362333 46.37186154 45.90239297 47.6939643 47.14111328 49.01611328 C50.26002154 52.34475112 53.38007087 55.67231906 56.5 59 C57.75000541 60.33332826 59.00000541 61.66666159 60.25 63 C60.86875 63.66 61.4875 64.32 62.125 65 C67.75 71 67.75 71 69.62695312 73.00219727 C70.87029096 74.32834867 72.11377925 75.65435903 73.35742188 76.98022461 C76.58563484 80.42226858 79.81077699 83.86711833 83.03125 87.31640625 C83.69576172 88.02732422 84.36027344 88.73824219 85.04492188 89.47070312 C86.30241832 90.81613639 87.55900418 92.1624216 88.81445312 93.50976562 C91.73593031 96.63362447 94.69126861 99.70895733 97.7265625 102.72265625 C100.04944799 105.0296715 102.26784271 107.36647942 104.375 109.875 C106.96634205 112.8846753 109.67254783 115.71088616 112.5 118.5 C115.9288279 121.88241399 119.12048518 125.38070442 122.25390625 129.03515625 C124.09615675 131.10820324 126.02401662 133.05435802 128 135 C130.59982183 137.55990134 133.06268398 140.1677954 135.4375 142.9375 C138.00665271 145.92801716 140.69317256 148.73116684 143.5 151.5 C146.9288279 154.88241399 150.12048518 158.38070442 153.25390625 162.03515625 C155.09615675 164.10820324 157.02401662 166.05435802 159 168 C161.59982183 170.55990134 164.06268398 173.1677954 166.4375 175.9375 C169.00665271 178.92801716 171.69317256 181.73116684 174.5 184.5 C177.9288279 187.88241399 181.12048518 191.38070442 184.25390625 195.03515625 C186.72481389 197.81561832 189.3816694 200.39118218 192.03125 203 C194.55425459 205.56305228 196.87562817 208.27345824 199.21875 211 C201.0742521 213.08337078 203.01223101 215.04281207 205 217 C207.59982183 219.55990134 210.06268398 222.1677954 212.4375 224.9375 C215.00665271 227.92801716 217.69317256 230.73116684 220.5 233.5 C223.9071879 236.86114482 227.07458174 240.33701203 230.1875 243.96875 C232.92777083 247.03974317 235.87946902 249.88786876 238.80859375 252.77734375 C241.42101068 255.4270144 243.83302621 258.21172803 246.25390625 261.03515625 C248.09615675 263.10820324 250.02401662 265.05435802 252 267 C254.59982183 269.55990134 257.06268398 272.1677954 259.4375 274.9375 C262.00665271 277.92801716 264.69317256 280.73116684 267.5 283.5 C270.9288279 286.88241399 274.12048518 290.38070442 277.25390625 294.03515625 C279.72481389 296.81561832 282.3816694 299.39118218 285.03125 302 C287.55425459 304.56305228 289.87562817 307.27345824 292.21875 310 C294.0742521 312.08337078 296.01223101 314.04281207 298 316 C300.59982183 318.55990134 303.06268398 321.1677954 305.4375 323.9375 C308.00665271 326.92801716 310.69317256 329.73116684 313.5 332.5 C316.9288279 335.88241399 320.12048518 339.38070442 323.25390625 343.03515625 C325.09615675 345.10820324 327.02401662 347.05435802 329 349 C331.59982183 351.55990134 334.06268398 354.1677954 336.4375 356.9375 C339.00665271 359.92801716 341.69317256 362.73116684 344.5 365.5 C347.9071879 368.86114482 351.07458174 372.33701203 354.1875 375.96875 C356.92777083 379.03974317 359.87946902 381.88786876 362.80859375 384.77734375 C365.42101068 387.4270144 367.83302621 390.21172803 370.25390625 393.03515625 C372.72481389 395.81561832 375.3816694 398.39118218 378.03125 401 C380.55425459 403.56305228 382.87562817 406.27345824 385.21875 409 C387.0742521 411.08337078 389.01223101 413.04281207 391 415 C393.59982183 417.55990134 396.06268398 420.1677954 398.4375 422.9375 C401.00665271 425.92801716 403.69317256 428.73116684 406.5 431.5 C409.9288279 434.88241399 413.12048518 438.38070442 416.25390625 442.03515625 C418.72481389 444.81561832 421.3816694 447.39118218 424.03125 450 C426.55425459 452.56305228 428.87562817 455.27345824 431.21875 458 C433.0742521 460.08337078 435.01223101 462.04281207 437 464 C439.59982183 466.55990134 442.06268398 469.1677954 444.4375 471.9375 C447.00665271 474.92801716 449.69317256 477.73116684 452.5 480.5 C455.9288279 483.88241399 459.12048518 487.38070442 462.25390625 491.03515625 C464.09615675 493.10820324 466.02401662 495.05435802 468 497 C470.5792506 499.53972186 473.02217389 502.12451314 475.375 504.875 C478.90356599 508.98360423 482.73105978 512.7464176 486.58203125 516.55078125 C489.30649918 519.3104604 491.83547376 522.19180657 494.35546875 525.13671875 C496.54516996 527.61768663 498.89808131 529.90878208 501.2578125 532.2265625 C503.04715827 534.04800415 504.71288532 535.93714279 506.375 537.875 C508.96634205 540.8846753 511.67254783 543.71088616 514.5 546.5 C517.9071879 549.86114482 521.07458174 553.33701203 524.1875 556.96875 C526.92777083 560.03974317 529.87946902 562.88786876 532.80859375 565.77734375 C535.42101068 568.4270144 537.83302621 571.21172803 540.25390625 574.03515625 C542.09615675 576.10820324 544.02401662 578.05435802 546 580 C548.59982183 582.55990134 551.06268398 585.1677954 553.4375 587.9375 C556.00665271 590.92801716 558.69317256 593.73116684 561.5 596.5 C564.9288279 599.88241399 568.12048518 603.38070442 571.25390625 607.03515625 C573.09615675 609.10820324 575.02401662 611.05435802 577 613 C579.59982183 615.55990134 582.06268398 618.1677954 584.4375 620.9375 C587.00665271 623.92801716 589.69317256 626.73116684 592.5 629.5 C595.9288279 632.88241399 599.12048518 636.38070442 602.25390625 640.03515625 C604.72481389 642.81561832 607.3816694 645.39118218 610.03125 648 C612.55425459 650.56305228 614.87562817 653.27345824 617.21875 656 C619.0742521 658.08337078 621.01223101 660.04281207 623 662 C625.59982183 664.55990134 628.06268398 667.1677954 630.4375 669.9375 C633.00665271 672.92801716 635.69317256 675.73116684 638.5 678.5 C641.9288279 681.88241399 645.12048518 685.38070442 648.25390625 689.03515625 C650.72481389 691.81561832 653.3816694 694.39118218 656.03125 697 C658.55425459 699.56305228 660.87562817 702.27345824 663.21875 705 C665.0742521 707.08337078 667.01223101 709.04281207 669 711 C671.5792506 713.53972186 674.02217389 716.12451314 676.375 718.875 C680.03933465 723.15147408 684.03058708 727.06413493 688.05859375 730.99609375 C690 733 690 733 690 734 C462.3 734 234.6 734 0 734 C0 491.78 0 249.56 0 0 Z " fill="#FEFEFE" transform="translate(679,801)"/>
<path d="M0 0 C227.37 0 454.74 0 689 0 C689 241.89 689 483.78 689 733 C681.12983256 726.25414219 681.12983256 726.25414219 678.0625 722.94140625 C677.39476562 722.22533203 676.72703125 721.50925781 676.0390625 720.77148438 C675.36617187 720.04251953 674.69328125 719.31355469 674 718.5625 C669.57475895 713.79392128 665.11699218 709.08720877 660.49609375 704.50756836 C658.74303302 702.74106216 657.10587211 700.90082822 655.5 699 C653.2544206 696.39352391 650.95448488 693.91065479 648.5 691.5 C646.08667283 689.12957643 643.82728147 686.69263692 641.625 684.125 C639.03365795 681.1153247 636.32745217 678.28911384 633.5 675.5 C630.0711721 672.11758601 626.87951482 668.61929558 623.74609375 664.96484375 C621.90384325 662.89179676 619.97598338 660.94564198 618 659 C615.40017817 656.44009866 612.93731602 653.8322046 610.5625 651.0625 C607.99334729 648.07198284 605.30682744 645.26883316 602.5 642.5 C599.0711721 639.11758601 595.87951482 635.61929558 592.74609375 631.96484375 C590.27518611 629.18438168 587.6183306 626.60881782 584.96875 624 C582.44574541 621.43694772 580.12437183 618.72654176 577.78125 616 C575.9257479 613.91662922 573.98776899 611.95718793 572 610 C569.40017817 607.44009866 566.93731602 604.8322046 564.5625 602.0625 C561.99334729 599.07198284 559.30682744 596.26883316 556.5 593.5 C553.0928121 590.13885518 549.92541826 586.66298797 546.8125 583.03125 C544.7890712 580.76361428 542.66346653 578.6342305 540.5 576.5 C537.0928121 573.13885518 533.92541826 569.66298797 530.8125 566.03125 C528.07222917 562.96025683 525.12053098 560.11213124 522.19140625 557.22265625 C519.57898932 554.5729856 517.16697379 551.78827197 514.74609375 548.96484375 C512.27518611 546.18438168 509.6183306 543.60881782 506.96875 541 C504.44574541 538.43694772 502.12437183 535.72654176 499.78125 533 C497.9257479 530.91662922 495.98776899 528.95718793 494 527 C491.40017817 524.44009866 488.93731602 521.8322046 486.5625 519.0625 C483.99334729 516.07198284 481.30682744 513.26883316 478.5 510.5 C475.0711721 507.11758601 471.87951482 503.61929558 468.74609375 499.96484375 C466.90384325 497.89179676 464.97598338 495.94564198 463 494 C460.40017817 491.44009866 457.93731602 488.8322046 455.5625 486.0625 C452.99334729 483.07198284 450.30682744 480.26883316 447.5 477.5 C444.0711721 474.11758601 440.87951482 470.61929558 437.74609375 466.96484375 C435.90384325 464.89179676 433.97598338 462.94564198 432 461 C429.4207494 458.46027814 426.97782611 455.87548686 424.625 453.125 C421.88378551 449.93317491 418.99314112 446.95697023 416 444 C412.39280873 440.43640017 409.00522111 436.78075144 405.7109375 432.9296875 C403.25426881 430.15892418 400.60640023 427.597071 397.96875 425 C395.44574541 422.43694772 393.12437183 419.72654176 390.78125 417 C388.9257479 414.91662922 386.98776899 412.95718793 385 411 C381.74970017 407.79970478 378.75275755 404.45775424 375.78125 401 C373.36902191 398.29153337 370.79591903 395.76847355 368.1875 393.25 C366.29924898 391.30779895 364.5209896 389.32578527 362.74609375 387.28125 C358.95656414 382.91920153 355.02957015 378.70042722 351.0625 374.5 C350.39798828 373.79230469 349.73347656 373.08460938 349.04882812 372.35546875 C345.04151225 368.10328294 340.96597512 363.93497991 336.80224609 359.83569336 C334.97357567 357.97308527 333.26003964 356.04473959 331.5625 354.0625 C328.28989507 350.25315804 324.76899563 346.75178891 321.1953125 343.2265625 C318.55993257 340.55366826 316.12233511 337.74631697 313.6796875 334.8984375 C312.01795424 333.02029247 310.28874475 331.25694484 308.5 329.5 C306.10722509 327.14966899 303.86808888 324.735776 301.6875 322.1875 C298.92381971 318.97666245 296.01380404 315.97732835 293 313 C289.39280873 309.43640017 286.00522111 305.78075144 282.7109375 301.9296875 C280.25426881 299.15892418 277.60640023 296.597071 274.96875 294 C272.44574541 291.43694772 270.12437183 288.72654176 267.78125 286 C265.9257479 283.91662922 263.98776899 281.95718793 262 280 C259.40017817 277.44009866 256.93731602 274.8322046 254.5625 272.0625 C251.99334729 269.07198284 249.30682744 266.26883316 246.5 263.5 C243.0711721 260.11758601 239.87951482 256.61929558 236.74609375 252.96484375 C234.27518611 250.18438168 231.6183306 247.60881782 228.96875 245 C226.44574541 242.43694772 224.12437183 239.72654176 221.78125 237 C219.9257479 234.91662922 217.98776899 232.95718793 216 231 C213.40017817 228.44009866 210.93731602 225.8322046 208.5625 223.0625 C205.99334729 220.07198284 203.30682744 217.26883316 200.5 214.5 C197.0711721 211.11758601 193.87951482 207.61929558 190.74609375 203.96484375 C188.90384325 201.89179676 186.97598338 199.94564198 185 198 C182.40017817 195.44009866 179.93731602 192.8322046 177.5625 190.0625 C174.99334729 187.07198284 172.30682744 184.26883316 169.5 181.5 C166.0711721 178.11758601 162.87951482 174.61929558 159.74609375 170.96484375 C157.27518611 168.18438168 154.6183306 165.60881782 151.96875 163 C149.44574541 160.43694772 147.12437183 157.72654176 144.78125 155 C142.9257479 152.91662922 140.98776899 150.95718793 139 149 C136.4207494 146.46027814 133.97782611 143.87548686 131.625 141.125 C128.16446982 137.09561554 124.42905801 133.39145122 120.625 129.6875 C117.92784683 126.9261289 115.41037562 124.05642756 112.8828125 121.14111328 C109.67457431 117.49274076 106.33616035 113.96858926 103 110.4375 C101.99066406 109.36338867 101.99066406 109.36338867 100.9609375 108.26757812 C97.75655966 104.86833947 94.52608838 101.50635875 91.2109375 98.21484375 C88.90898234 95.92886533 86.7130916 93.61082334 84.625 91.125 C82.03365795 88.1153247 79.32745217 85.28911384 76.5 82.5 C73.0711721 79.11758601 69.87951482 75.61929558 66.74609375 71.96484375 C64.90384325 69.89179676 62.97598338 67.94564198 61 66 C58.40017817 63.44009866 55.93731602 60.8322046 53.5625 58.0625 C50.99334729 55.07198284 48.30682744 52.26883316 45.5 49.5 C42.0711721 46.11758601 38.87951482 42.61929558 35.74609375 38.96484375 C33.90384325 36.89179676 31.97598338 34.94564198 30 33 C27.40017817 30.44009866 24.93731602 27.8322046 22.5625 25.0625 C19.99334729 22.07198284 17.30682744 19.26883316 14.5 16.5 C9.24250166 11.30530454 4.43479471 5.91305962 0 0 Z " fill="#FEFEFE" transform="translate(688,604)"/>
<path d="M0 0 C0.84633834 -0.00085442 1.69267667 -0.00170885 2.56466162 -0.00258917 C5.39287108 -0.00423271 8.22102088 0.00125897 11.04922485 0.00672913 C13.07964069 0.00701127 15.11005663 0.00685274 17.14047241 0.00628662 C22.64821486 0.0059997 28.15593554 0.01187955 33.66367292 0.01886058 C39.4212276 0.0251115 45.17878278 0.02569929 50.93634033 0.02688599 C61.83718006 0.02999416 72.73800977 0.03820065 83.63884509 0.04823548 C98.37050301 0.06150243 113.10216367 0.06690067 127.83382607 0.07273769 C151.04186364 0.08214087 174.24988006 0.10206323 197.45791626 0.12025452 C197.45791626 36.75025452 197.45791626 73.38025452 197.45791626 111.12025452 C146.4521874 111.20086059 146.4521874 111.20086059 125.07510376 111.21791077 C110.31597504 111.22977706 95.55686915 111.24372556 80.79776001 111.27113342 C70.04869217 111.29108505 59.29964286 111.30397518 48.55055702 111.30843151 C42.86047501 111.31103587 37.17044601 111.31714525 31.48038101 111.33171463 C26.12066399 111.34532649 20.76102165 111.34946986 15.40128899 111.34646988 C13.43816535 111.34701843 11.47503912 111.35097432 9.51193047 111.35866547 C-9.18276699 111.42829299 -25.35483011 109.74100323 -39.54208374 96.12025452 C-50.62886924 84.31889104 -55.09182421 68.9727006 -54.89120483 52.9969635 C-54.40661691 39.29828911 -49.10412299 24.85411676 -39.46786499 14.85462952 C-28.09687259 4.61381689 -15.21280839 -0.05651684 0 0 Z " fill="#010101" transform="translate(87.54208374023438,1013.8797454833984)"/>
<path d="M0 0 C51.09529116 -0.16121214 51.09529116 -0.16121214 72.54296875 -0.1953125 C87.3390865 -0.21902655 102.13511299 -0.24687131 116.93115234 -0.30175781 C127.70809306 -0.34171614 138.48495957 -0.36745429 149.26197231 -0.37635398 C154.96454805 -0.38155348 160.66691159 -0.39371248 166.3694191 -0.42292023 C171.74562285 -0.4502315 177.12152857 -0.45841339 182.4977951 -0.45243073 C184.46247608 -0.45352396 186.42716786 -0.46138357 188.39178848 -0.4768219 C205.78580613 -0.60671043 222.82806459 1.56093139 236.125 14 C248.53031218 27.23233299 252.77222257 43.44543992 252.3828125 61.125 C251.59964425 75.45866934 244.42592381 89.29981961 234 99 C222.82345178 107.51860987 210.10422508 111.34600107 196.13511658 111.24050903 C194.86788949 111.24307231 194.86788949 111.24307231 193.57506186 111.24568737 C190.76992312 111.24895777 187.96502847 111.23801929 185.15991211 111.22705078 C183.1389059 111.22648614 181.11789928 111.22680427 179.09689331 111.22793579 C173.62855618 111.22850822 168.16030729 111.21677157 162.69199061 111.20278788 C156.97049202 111.19026232 151.24899127 111.18910858 145.52748108 111.18673706 C134.70110015 111.18052766 123.87475975 111.16412413 113.04839665 111.14403808 C98.41299906 111.11747615 83.77759034 111.10670208 69.14217472 111.09503365 C46.09475281 111.07624317 23.0474164 111.03639385 0 111 C0 74.37 0 37.74 0 0 Z " fill="#010101" transform="translate(1769,1014)"/>
<path d="M0 0 C10.93804049 8.24783024 17.96755559 18.60543236 21 32 C21.72535448 38.84579692 21.50685483 45.76616184 21.45410156 52.63964844 C21.45297162 54.71035744 21.4536098 56.78106805 21.45587158 58.85177612 C21.45701393 64.44193872 21.43358238 70.03175433 21.40557575 75.62183666 C21.38048193 81.47543237 21.37821382 87.32903702 21.37347412 93.18267822 C21.36106776 104.25338624 21.32827782 115.32393527 21.28807616 126.39457345 C21.23490189 141.36419437 21.21339408 156.3338591 21.19006729 171.30355072 C21.15251475 194.86915278 21.07280818 218.43441942 21 242 C-15.3 242 -51.6 242 -89 242 C-89.16121214 190.36285694 -89.16121214 190.36285694 -89.1953125 168.69726562 C-89.21903185 153.74742128 -89.24689153 138.79766722 -89.30175781 123.84790039 C-89.34170041 112.95926792 -89.36745059 102.07070881 -89.37635398 91.18200511 C-89.38155612 85.41965855 -89.39373217 79.65752182 -89.42292023 73.89524269 C-89.45020656 68.46405086 -89.45841834 63.03315397 -89.45243073 57.6019001 C-89.45352507 55.61583602 -89.46139968 53.62976137 -89.4768219 51.64375687 C-89.61448707 32.9902518 -86.52915915 18.3436935 -73.3984375 4.296875 C-53.90569686 -14.37044014 -21.79225358 -14.90523604 0 0 Z " fill="#000000" transform="translate(1062,80)"/>
<path d="M0 0 C36.3 0 72.6 0 110 0 C110.1209091 51.71774913 110.1209091 51.71774913 110.14648438 73.40039062 C110.16428085 88.36795131 110.18519525 103.33546131 110.22631836 118.30297852 C110.25625461 129.20404337 110.27558307 140.10506707 110.28226548 151.00617188 C110.28617056 156.77623889 110.29532506 162.5461882 110.31719017 168.31621742 C110.337622 173.75229368 110.34382025 179.18820425 110.33932304 184.62431526 C110.34014525 186.61443737 110.3460708 188.60456529 110.35761642 190.59465408 C110.45612049 208.45660403 108.3120044 223.18026191 95.515625 236.67578125 C82.92007117 248.31297773 66.68024527 252.58355234 49.875 252.3125 C34.69792067 251.08854199 21.25921506 244.14269755 11 233 C3.0420271 222.42359731 -0.16883196 210.53365392 -0.12025452 197.45791626 C-0.12110894 196.61157792 -0.12196337 195.76523959 -0.12284368 194.89325464 C-0.12448723 192.06504518 -0.11899555 189.23689538 -0.11352539 186.40869141 C-0.11324325 184.37827557 -0.11340178 182.34785963 -0.1139679 180.31744385 C-0.11425482 174.8097014 -0.10837496 169.30198072 -0.10139394 163.79424334 C-0.09514301 158.03668866 -0.09455522 152.27913348 -0.09336853 146.52157593 C-0.09026035 135.6207362 -0.08205386 124.71990649 -0.07201904 113.81907117 C-0.05875208 99.08741325 -0.05335385 84.35575259 -0.04751682 69.62409019 C-0.03811365 46.41605262 -0.01819128 23.2080362 0 0 Z " fill="#000000" transform="translate(973,1812)"/>
<path d="M0 0 C0.94238085 -0.00012053 1.8847617 -0.00024107 2.85569954 -0.00036526 C5.8922681 0.00037839 8.92877452 0.00798162 11.96533203 0.01586914 C13.84562144 0.01734026 15.72591127 0.01835992 17.60620117 0.0189209 C24.56185522 0.02415412 31.51750049 0.03811537 38.47314453 0.05102539 C54.02439453 0.07165039 69.57564453 0.09227539 85.59814453 0.11352539 C85.59814453 36.74352539 85.59814453 73.37352539 85.59814453 111.11352539 C62.70439453 111.17540039 62.70439453 111.17540039 39.34814453 111.23852539 C34.54993164 111.2567334 29.75171875 111.27494141 24.80810547 111.29370117 C18.89550781 111.30273438 18.89550781 111.30273438 16.11724854 111.30441284 C14.19943307 111.30746033 12.28162116 111.31444467 10.36383057 111.32467651 C-8.9666607 111.42254793 -26.65902674 110.70690703 -41.37451172 96.45727539 C-52.28042125 83.84928749 -56.84841725 68.2396012 -56.67919922 51.75024414 C-55.49230837 36.18692888 -48.8189686 22.64963294 -37.40185547 12.11352539 C-26.04090726 3.32772545 -14.15358945 -0.05864326 0 0 Z " fill="#020202" transform="translate(199.40185546875,792.886474609375)"/>
<path d="M0 0 C15.38625 -0.0825 30.7725 -0.165 46.625 -0.25 C51.45721191 -0.28641602 56.28942383 -0.32283203 61.26806641 -0.36035156 C67.23510742 -0.37841797 67.23510742 -0.37841797 70.04135132 -0.3817749 C71.97327374 -0.38785904 73.90518236 -0.4018045 75.83700562 -0.42230225 C95.4931064 -0.62017511 112.59073731 1.93090654 127.38671875 16.078125 C137.5986804 27.49598347 142.87009372 42.4200417 142.32421875 57.7421875 C140.66280419 74.43640131 135.25567841 89.25117216 122.25 100.375 C111.26368868 108.59788332 98.62464182 111.34064304 85.14404297 111.22705078 C84.20117998 111.22729185 83.25831699 111.22753292 82.2868824 111.2277813 C79.27188393 111.22630311 76.25714101 111.21113975 73.2421875 111.1953125 C71.36596801 111.19236742 69.48974686 111.19032985 67.61352539 111.18920898 C60.70065833 111.17877553 53.78782659 111.15085303 46.875 111.125 C31.40625 111.08375 15.9375 111.0425 0 111 C0 74.37 0 37.74 0 0 Z " fill="#010101" transform="translate(1769,793)"/>
<path d="M0 0 C0.97235847 -0.00024107 1.94471695 -0.00048214 2.94654083 -0.00073051 C6.06927394 0.0007528 9.19176317 0.01594037 12.31445312 0.03173828 C14.25227748 0.03468176 16.19010342 0.03672032 18.12792969 0.0378418 C25.28387854 0.0482938 32.43979327 0.07621635 39.59570312 0.10205078 C63.60320312 0.16392578 63.60320312 0.16392578 88.09570312 0.22705078 C88.09570312 36.85705078 88.09570312 73.48705078 88.09570312 111.22705078 C65.51132812 111.31986328 65.51132812 111.31986328 42.47070312 111.41455078 C37.74290527 111.44186279 33.01510742 111.4691748 28.14404297 111.49731445 C22.30395508 111.51086426 22.30395508 111.51086426 19.55703735 111.51338196 C17.66679761 111.5179437 15.77656576 111.52839977 13.88638306 111.54377747 C-5.94069213 111.69680819 -23.61567049 110.11371257 -38.65429688 95.62939453 C-47.52875495 86.1540617 -53.270157 74.33260814 -53.90429688 61.22705078 C-53.96617187 60.37369141 -54.02804688 59.52033203 -54.09179688 58.64111328 C-54.72043964 43.98587882 -50.25889472 29.18088429 -40.65429688 18.03955078 C-29.10059527 5.85460389 -16.84590212 -0.13631481 0 0 Z " fill="#010101" transform="translate(196.904296875,1234.77294921875)"/>
<path d="M0 0 C11.76157305 8.57032106 18.65989452 20.65406938 21 35 C21.66901187 42.43295926 21.46886297 49.91309906 21.390625 57.3671875 C21.38472932 59.25919115 21.38065759 61.15120138 21.37841797 63.04321289 C21.35761484 69.9872427 21.30177034 76.93113201 21.25 83.875 C21.1675 99.42625 21.085 114.9775 21 131 C-15.63 131 -52.26 131 -90 131 C-90.061875 115.4075 -90.12375 99.815 -90.1875 83.75 C-90.21481201 78.84737305 -90.24212402 73.94474609 -90.27026367 68.89355469 C-90.28381348 62.85400391 -90.28381348 62.85400391 -90.28633118 60.01641846 C-90.29090354 58.05692494 -90.30138254 56.09743926 -90.31672668 54.13800049 C-90.453976 35.6698215 -89.19768426 19.16149529 -75.75 5.125 C-54.87172629 -14.43079545 -23.68627788 -15.43972116 0 0 Z " fill="#010101" transform="translate(842,191)"/>
<path d="M0 0 C36.63 0 73.26 0 111 0 C111.061875 15.241875 111.12375 30.48375 111.1875 46.1875 C111.22846802 53.37116333 111.22846802 53.37116333 111.27026367 60.69995117 C111.28381348 66.60803223 111.28381348 66.60803223 111.28633118 69.38545227 C111.29089801 71.29990234 111.30136512 73.21434451 111.31672668 75.1287384 C111.46628207 94.77124852 109.69938839 111.88518701 95.41796875 126.8125 C88.95439059 132.66000205 81.19021079 136.20643973 73 139 C71.97261719 139.35707031 70.94523438 139.71414063 69.88671875 140.08203125 C54.93246433 143.61394058 38.52781834 141.94172761 25.1484375 134.390625 C22.61780788 132.72392634 20.3146399 130.95349041 18 129 C17.29359375 128.42765625 16.5871875 127.8553125 15.859375 127.265625 C6.42117533 118.83608789 0.74443416 105.2476942 -0.16576195 92.71816254 C-0.42222629 86.16317251 -0.34488394 79.60519381 -0.29296875 73.046875 C-0.28854899 71.17269153 -0.28549395 69.29850434 -0.28381348 67.42431641 C-0.2681881 60.53282054 -0.2263045 53.64140433 -0.1875 46.75 C-0.125625 31.3225 -0.06375 15.895 0 0 Z " fill="#010101" transform="translate(752,1812)"/>
<path d="M0 0 C15.675 -0.103125 31.35 -0.20625 47.5 -0.3125 C52.41841797 -0.35802002 57.33683594 -0.40354004 62.40429688 -0.45043945 C68.48925781 -0.47302246 68.48925781 -0.47302246 71.35314941 -0.47721863 C73.32000412 -0.48481165 75.28683807 -0.50221718 77.25354004 -0.52787781 C94.24445564 -0.73815723 109.51433505 0.43738113 123 12 C124.04027344 12.84111328 124.04027344 12.84111328 125.1015625 13.69921875 C129.59111441 17.6947466 132.52674516 22.21115368 135.375 27.4375 C135.70902832 28.0459375 136.04305664 28.654375 136.38720703 29.28125 C143.01153121 42.12759766 143.68349862 61.16892104 139.375 74.8125 C138.63608485 76.5648578 137.84521358 78.29636639 137 80 C136.5875 80.92425781 136.175 81.84851562 135.75 82.80078125 C130.33777456 93.9173693 121.5077511 102.38827952 110 107 C109.36881256 107.25357269 108.73762512 107.50714539 108.08731079 107.7684021 C97.81804442 111.20997615 86.95664073 110.3738408 76.26953125 110.29296875 C74.31490333 110.28855054 72.36027184 110.28549454 70.40563965 110.28381348 C63.20787183 110.26817014 56.01018031 110.2262864 48.8125 110.1875 C32.704375 110.125625 16.59625 110.06375 0 110 C0 73.7 0 37.4 0 0 Z " fill="#000000" transform="translate(1769,1235)"/>
<path d="M0 0 C1.38297629 1.02471957 2.73746786 2.08888112 4.0625 3.1875 C5.19751953 4.12142578 5.19751953 4.12142578 6.35546875 5.07421875 C14.63338484 12.5756469 21.32667103 24.08529231 22.24147415 35.40141106 C22.30744822 37.95985388 22.30996206 40.51084681 22.28955078 43.07006836 C22.28979185 44.05221848 22.29003292 45.03436861 22.2902813 46.04628086 C22.28879561 49.20672922 22.27359697 52.36693791 22.2578125 55.52734375 C22.25486976 57.48604214 22.25283074 59.4447421 22.25170898 61.40344238 C22.24124843 68.64398567 22.21332589 75.88449522 22.1875 83.125 C22.14625 99.315625 22.105 115.50625 22.0625 132.1875 C-14.2375 132.1875 -50.5375 132.1875 -87.9375 132.1875 C-87.97875 116.739375 -88.02 101.29125 -88.0625 85.375 C-88.08070801 80.51547607 -88.09891602 75.65595215 -88.11767578 70.64916992 C-88.12670898 64.6685791 -88.12670898 64.6685791 -88.12838745 61.8598175 C-88.13143822 59.91779155 -88.1384296 57.97576915 -88.14865112 56.0337677 C-88.24162076 37.42365974 -87.54771727 20.17836822 -73.875 5.92578125 C-67.29803408 0.02507594 -60.32727144 -4.06793911 -51.9375 -6.8125 C-50.91914062 -7.16699219 -49.90078125 -7.52148438 -48.8515625 -7.88671875 C-32.20241702 -12.51782946 -14.42635966 -8.81885342 0 0 Z " fill="#000000" transform="translate(1281.9375,189.8125)"/>
<path d="M0 0 C36.3 0 72.6 0 110 0 C110.12375 16.005 110.2475 32.01 110.375 48.5 C110.45693604 56.03424805 110.45693604 56.03424805 110.54052734 63.72070312 C110.56762695 69.93261719 110.56762695 69.93261719 110.57266235 72.85583496 C110.58177687 74.86438004 110.60267005 76.87289573 110.63345337 78.88122559 C110.87025554 95.1680056 109.64376244 110.47585553 98 123 C97.45085937 123.66128906 96.90171875 124.32257813 96.3359375 125.00390625 C90.65589676 131.372803 83.71538704 134.7268055 76 138 C75.15050781 138.36351562 74.30101562 138.72703125 73.42578125 139.1015625 C60.29574376 143.62624531 42.57848318 142.7629079 30 137 C15.97589456 130.01812828 7.4118563 119.94601461 1.7265625 105.38671875 C-0.09102723 99.41603422 -0.1385825 93.59258292 -0.11352539 87.41455078 C-0.11364593 86.45234556 -0.11376646 85.49014034 -0.11389065 84.49877739 C-0.11314686 81.39759856 -0.10554297 78.29648052 -0.09765625 75.1953125 C-0.09618518 73.27530954 -0.09516549 71.35530618 -0.09460449 69.43530273 C-0.08937077 62.33186236 -0.07540951 55.22843058 -0.0625 48.125 C-0.041875 32.24375 -0.02125 16.3625 0 0 Z " fill="#000000" transform="translate(1194,1812)"/>
<path d="M0 0 C1.134375 0.020625 2.26875 0.04125 3.4375 0.0625 C3.4375 0.7225 3.4375 1.3825 3.4375 2.0625 C0.4675 3.3825 -2.5025 4.7025 -5.5625 6.0625 C-4.48849278 0.07874549 -4.48849278 0.07874549 0 0 Z " fill="#F1F1F1" transform="translate(1001.5625,72.9375)"/>
<path d="M0 0 C0.33 0.66 0.66 1.32 1 2 C0.01 2.66 -0.98 3.32 -2 4 C-2 4.66 -2 5.32 -2 6 C-4.49064888 6.68707555 -6.37886292 7 -9 7 C-9 6.34 -9 5.68 -9 5 C-6.03 3.35 -3.06 1.7 0 0 Z " fill="#E6E6E6" transform="translate(1577,1717)"/>
<path d="M0 0 C0.99 0.33 1.98 0.66 3 1 C2.34 2.65 1.68 4.3 1 6 C-0.32 4.68 -1.64 3.36 -3 2 C-2.01 1.34 -1.02 0.68 0 0 Z " fill="#F4F4F4" transform="translate(1343,1296)"/>
<path d="M0 0 C1.32 1.32 2.64 2.64 4 4 C1 6 1 6 -1.1875 5.625 C-1.785625 5.41875 -2.38375 5.2125 -3 5 C-2.67 4.34 -2.34 3.68 -2 3 C-1.34 3 -0.68 3 0 3 C0 2.01 0 1.02 0 0 Z " fill="#101010" transform="translate(1659,496)"/>
<path d="M0 0 C0.66 0.33 1.32 0.66 2 1 C2 1.66 2 2.32 2 3 C0 4.625 0 4.625 -2 6 C-2.66 5.67 -3.32 5.34 -4 5 C-4 4.34 -4 3.68 -4 3 C-2 1.375 -2 1.375 0 0 Z " fill="#F1F1F1" transform="translate(1598,1703)"/>
</svg>
