<?xml version="1.0" encoding="UTF-8"?>
<svg version="1.1" xmlns="http://www.w3.org/2000/svg" width="438" height="204">
<path d="M0 0 C144.54 0 289.08 0 438 0 C438 67.32 438 134.64 438 204 C293.46 204 148.92 204 0 204 C0 136.68 0 69.36 0 0 Z " fill="#323030" transform="translate(0,0)"/>
<path d="M0 0 C0.92838181 -0.00902847 1.85676361 -0.01805695 2.8132782 -0.02735901 C4.77416776 -0.04183868 6.73510539 -0.05074256 8.69604492 -0.05444336 C11.67906132 -0.06632595 14.65999869 -0.11552188 17.64257812 -0.16601562 C19.55337539 -0.17548251 21.46418528 -0.18271627 23.375 -0.1875 C24.70039543 -0.21679848 24.70039543 -0.21679848 26.05256653 -0.24668884 C32.28563926 -0.20181182 36.63164627 1.25225641 41.38671875 5.37109375 C44.03238109 8.29445995 44.7633487 10.13457401 44.77490234 14.06030273 C44.78435883 14.98483749 44.79381531 15.90937225 44.80355835 16.86192322 C44.79748566 17.85366043 44.79141296 18.84539764 44.78515625 19.8671875 C44.78802643 20.89288345 44.79089661 21.91857941 44.79385376 22.97535706 C44.79589397 25.14316358 44.79036715 27.31098853 44.77783203 29.47875977 C44.76179469 32.79290074 44.77767423 36.10581911 44.796875 39.41992188 C44.79489224 41.52734644 44.79104789 43.63477024 44.78515625 45.7421875 C44.79122894 46.73190048 44.79730164 47.72161346 44.80355835 48.74131775 C44.75252178 53.74803818 44.71074048 57.34416231 41.38671875 61.37109375 C37.39177066 64.96654703 34.45766375 66.47844367 29.10229492 66.5480957 C28.24097458 66.56093094 27.37965424 66.57376617 26.49223328 66.58699036 C25.56409317 66.59437729 24.63595306 66.60176422 23.6796875 66.609375 C22.24246086 66.62148262 22.24246086 66.62148262 20.77619934 66.63383484 C18.74787196 66.64766568 16.71952139 66.65839231 14.69116211 66.66625977 C11.59639174 66.68347044 8.50269038 66.72736544 5.40820312 66.77148438 C3.43620576 66.78161187 1.46419933 66.7901278 -0.5078125 66.796875 C-1.42987991 66.81438309 -2.35194733 66.83189117 -3.30195618 66.84992981 C-10.19608245 66.82676747 -13.22543256 65.29165297 -18.42578125 60.80859375 C-20.69872588 58.05713446 -20.7549421 55.23749566 -20.82202148 51.82714844 C-20.85095741 50.44991608 -20.85095741 50.44991608 -20.88047791 49.04486084 C-20.93837895 44.84619244 -20.98749534 40.64769192 -21.01831055 36.44873047 C-21.03988935 34.23730858 -21.07399052 32.02597208 -21.12084961 29.81494141 C-21.18792373 26.61973081 -21.21532204 23.42628452 -21.234375 20.23046875 C-21.26220566 19.24794128 -21.29003632 18.26541382 -21.31871033 17.25311279 C-21.30422646 12.39420877 -20.99206611 9.17717315 -17.88696289 5.31738281 C-12.49317129 0.01102952 -7.23055158 0.04358392 0 0 Z " fill="#F6F6F6" transform="translate(71.61328125,72.62890625)"/>
<path d="M0 0 C6.67889366 5.54233241 10.41283679 12.78816985 11.37890625 21.36328125 C11.70043346 30.85351975 10.16654777 39.30741654 4.25 46.9375 C-0.66373345 52.15130877 -7.56922575 55.10018099 -14.6875 55.3125 C-21.61320758 55.25174818 -26.16497457 52.83502543 -31 48 C-31.33 58.89 -31.66 69.78 -32 81 C-37.61 81 -43.22 81 -49 81 C-49 53.28 -49 25.56 -49 -3 C-43.39 -3 -37.78 -3 -32 -3 C-31.67 -1.02 -31.34 0.96 -31 3 C-30.113125 2.21625 -29.22625 1.4325 -28.3125 0.625 C-19.83063652 -6.32186266 -9.2024066 -5.47504527 0 0 Z " fill="#FCFCFC" transform="translate(391,87)"/>
<path d="M0 0 C18 0 18 0 22.328125 4.07421875 C23.36882021 5.90903213 24.34069458 7.78414761 25.25 9.6875 C26.35823846 11.69607891 27.47033283 13.70253432 28.5859375 15.70703125 C29.13604492 16.7429541 29.68615234 17.77887695 30.25292969 18.84619141 C33.1446118 24.06625142 36.5160068 28.94829295 39.875 33.875 C41.89625 36.88625 43.9175 39.8975 46 43 C46.33 28.81 46.66 14.62 47 0 C52.61 0 58.22 0 64 0 C64 23.76 64 47.52 64 72 C46 72 46 72 41.49389648 68.26806641 C39.86973572 65.80020142 39.86973572 65.80020142 38.37109375 63.1015625 C37.79964127 62.19626801 37.22818878 61.29097351 36.63941956 60.35824585 C34.84245349 57.48070248 33.14140954 54.55839815 31.4375 51.625 C30.23313161 49.66302153 29.02289074 47.70463511 27.80664062 45.75 C20.30876709 33.61753418 20.30876709 33.61753418 18 29 C17.67 43.19 17.34 57.38 17 72 C11.39 72 5.78 72 0 72 C0 48.24 0 24.48 0 0 Z " fill="#FDFDFD" transform="translate(159,69)"/>
<path d="M0 0 C8.33843586 4.42542686 13.92407677 10.29543125 16.71484375 19.3515625 C17.19890875 21.81337879 17.2574091 24.11701816 17.25 26.625 C17.25386719 27.94564453 17.25386719 27.94564453 17.2578125 29.29296875 C17.125 31.4375 17.125 31.4375 16.125 32.4375 C13.2406618 32.52615208 10.38037842 32.55271296 7.49609375 32.53515625 C6.19974754 32.53303383 6.19974754 32.53303383 4.87721252 32.53086853 C2.10560708 32.52525239 -0.6659188 32.51269719 -3.4375 32.5 C-5.3118478 32.49498708 -7.18619685 32.49042381 -9.06054688 32.48632812 C-13.66539544 32.47527772 -18.27018421 32.4580023 -22.875 32.4375 C-22.25745741 33.75352523 -21.63071258 35.06523556 -21 36.375 C-20.65195312 37.10589844 -20.30390625 37.83679688 -19.9453125 38.58984375 C-19.0065023 40.60082459 -19.0065023 40.60082459 -16.875 41.4375 C-14.80153207 41.71092893 -14.80153207 41.71092893 -12.5 41.75 C-11.72914063 41.78738281 -10.95828125 41.82476562 -10.1640625 41.86328125 C-7.6958353 41.65520372 -7.6958353 41.65520372 -6.1953125 39.43359375 C-2.54126218 36.29012622 1.22777435 37.00902457 5.875 37.1875 C6.76316406 37.20554688 7.65132813 37.22359375 8.56640625 37.2421875 C10.75370848 37.28922626 12.93879816 37.35492991 15.125 37.4375 C14.18589151 43.65504584 11.08444988 48.13699013 6.125 51.9921875 C-1.80557112 57.06895462 -8.45991988 58.31434099 -17.875 57.4375 C-25.97906316 55.46472667 -32.79402213 51.17762318 -37.1875 44 C-41.45682344 34.98698385 -42.39824765 26.29860111 -39.3125 16.75 C-36.12273611 8.91549219 -31.41544508 3.5825385 -23.671875 0.12890625 C-16.37281017 -2.67964696 -7.31805775 -2.9937509 0 0 Z " fill="#FAF9F9" transform="translate(319.875,84.5625)"/>
<path d="M0 0 C5.94 0 11.88 0 18 0 C18 25.08 18 50.16 18 76 C12.06 76 6.12 76 0 76 C0 50.92 0 25.84 0 0 Z " fill="#F9F9F9" transform="translate(257,65)"/>
<path d="M0 0 C5.94 0 11.88 0 18 0 C18 18.81 18 37.62 18 57 C12.06 57 6.12 57 0 57 C0 38.19 0 19.38 0 0 Z " fill="#F9F9F9" transform="translate(231,84)"/>
<path d="M0 0 C7.88069563 3.94034782 13.59719134 11.41952685 19.2734375 18.05078125 C22.86731061 22.10811764 26.7573033 25.92399021 30.734375 29.60546875 C32 31 32 31 32 33 C21.44 33 10.88 33 0 33 C0 22.11 0 11.22 0 0 Z " fill="#3C3A3A" transform="translate(67,95)"/>
<path d="M0 0 C10.56 0 21.12 0 32 0 C32 11.22 32 22.44 32 34 C26.23131598 29.38505279 21.28918537 24.29609062 16.3125 18.875 C15.79719727 18.31458008 15.28189453 17.75416016 14.75097656 17.17675781 C13.6903287 16.02235103 12.63026995 14.86740271 11.57080078 13.71191406 C10.0485327 12.05289265 8.52252477 10.397378 6.99609375 8.7421875 C6.08049793 7.74500393 5.16512222 6.74761821 4.25 5.75 C3.43015625 4.85796875 2.6103125 3.9659375 1.765625 3.046875 C0 1 0 1 0 0 Z " fill="#3A3838" transform="translate(68,84)"/>
<path d="M0 0 C3.36920683 2.54409495 6.66178152 5.69396489 7.30078125 10.05078125 C7.33389192 16.44114148 6.22664724 20.43598197 1.9375 25.375 C-2.35003911 27.74683015 -6.2099225 27.91389637 -11 27 C-14.75844258 24.25946895 -16.87218745 21.51125021 -18 17 C-18.58360298 12.16058454 -18.49358161 8.93610304 -16.1875 4.5625 C-11.54421788 -0.87677334 -6.77599838 -0.99209347 0 0 Z " fill="#353333" transform="translate(377,99)"/>
<path d="M0 0 C2.87305972 1.40460697 4.74510999 2.74510999 7 5 C7.50431963 8.03764616 7.44942707 10.95689139 7 14 C4.80168636 17.03215675 3.55036806 17.81654398 0 19 C-4.19987818 19.38887761 -6.29607238 19.45908323 -9.875 17.125 C-12.77371342 14.22628658 -12.95733329 13.37180992 -13.4375 9.1875 C-13.38347254 5.4798656 -13.03761463 5.04403664 -10.4375 2 C-6.46412407 -0.31178236 -4.51990817 -0.65744119 0 0 Z " fill="#FAFAFA" transform="translate(243,59)"/>
<path d="M0 0 C3.65409572 1.6609526 5.94545919 3.53972074 8 7 C8 7.99 8 8.98 8 10 C0.74 10 -6.52 10 -14 10 C-13.02646068 5.13230342 -12.56543374 3.85264987 -8.74609375 0.94921875 C-5.7241809 -0.69356609 -3.33320407 -0.48482968 0 0 Z " fill="#3C3A3A" transform="translate(311,97)"/>
<path d="M0 0 C3.63 0 7.26 0 11 0 C11.33 1.65 11.66 3.3 12 5 C11 6 11 6 8.49609375 6.09765625 C6.98208984 6.08025391 6.98208984 6.08025391 5.4375 6.0625 C4.42558594 6.05347656 3.41367188 6.04445313 2.37109375 6.03515625 C1.58863281 6.02355469 0.80617188 6.01195313 0 6 C0 4.02 0 2.04 0 0 Z " fill="#DFDFDF" transform="translate(118,103)"/>
<path d="M0 0 C1.51400391 0.01740234 1.51400391 0.01740234 3.05859375 0.03515625 C4.07050781 0.04417969 5.08242188 0.05320312 6.125 0.0625 C7.29869141 0.07990234 7.29869141 0.07990234 8.49609375 0.09765625 C8.49609375 2.07765625 8.49609375 4.05765625 8.49609375 6.09765625 C4.86609375 6.09765625 1.23609375 6.09765625 -2.50390625 6.09765625 C-2.83390625 4.44765625 -3.16390625 2.79765625 -3.50390625 1.09765625 C-2.50390625 0.09765625 -2.50390625 0.09765625 0 0 Z " fill="#DFDEDE" transform="translate(40.50390625,102.90234375)"/>
<path d="M0 0 C1.65 0 3.3 0 5 0 C5 3.63 5 7.26 5 11 C3.68 11.33 2.36 11.66 1 12 C0 11 0 11 -0.09765625 8.49609375 C-0.08605469 7.48675781 -0.07445313 6.47742188 -0.0625 5.4375 C-0.05347656 4.42558594 -0.04445313 3.41367188 -0.03515625 2.37109375 C-0.02355469 1.58863281 -0.01195313 0.80617187 0 0 Z " fill="#F0F0F0" transform="translate(81,141)"/>
<path d="M0 0 C1.98 0.495 1.98 0.495 4 1 C4 4.3 4 7.6 4 11 C2.35 11 0.7 11 -1 11 C-1.0270043 9.54176788 -1.04639787 8.08339325 -1.0625 6.625 C-1.07410156 5.81289062 -1.08570312 5.00078125 -1.09765625 4.1640625 C-1 2 -1 2 0 0 Z " fill="#FAFAFA" transform="translate(82,59)"/>
<path d="M0 0 C1.67542976 0.28604898 3.34385343 0.61781233 5 1 C5 2.98 5 4.96 5 7 C3.02 7 1.04 7 -1 7 C-1.04254356 5.00045254 -1.04080783 2.99958364 -1 1 C-0.67 0.67 -0.34 0.34 0 0 Z " fill="#D7D6D6" transform="translate(92,64)"/>
<path d="M0 0 C1.67542976 0.28604898 3.34385343 0.61781233 5 1 C5 2.98 5 4.96 5 7 C3.02 7 1.04 7 -1 7 C-1.04254356 5.00045254 -1.04080783 2.99958364 -1 1 C-0.67 0.67 -0.34 0.34 0 0 Z " fill="#DBDADA" transform="translate(71,64)"/>
<path d="M0 0 C1.98 0 3.96 0 6 0 C6 1.65 6 3.3 6 5 C4.34385343 5.38218767 2.67542976 5.71395102 1 6 C0 5 0 5 -0.0625 2.4375 C-0.041875 1.633125 -0.02125 0.82875 0 0 Z " fill="#E3E3E3" transform="translate(91,141)"/>
<path d="M0 0 C1.98 0 3.96 0 6 0 C6 1.65 6 3.3 6 5 C4.34385343 5.38218767 2.67542976 5.71395102 1 6 C0 5 0 5 -0.0625 2.4375 C-0.041875 1.633125 -0.02125 0.82875 0 0 Z " fill="#E7E7E7" transform="translate(70,141)"/>
<path d="M0 0 C1.98 0 3.96 0 6 0 C5.67 1.65 5.34 3.3 5 5 C3.35 5 1.7 5 0 5 C0 3.35 0 1.7 0 0 Z " fill="#F1F1F1" transform="translate(119,114)"/>
<path d="M0 0 C1.98 0 3.96 0 6 0 C6 1.65 6 3.3 6 5 C4.35 5 2.7 5 1 5 C0.67 3.35 0.34 1.7 0 0 Z " fill="#F2F2F2" transform="translate(42,114)"/>
<path d="M0 0 C1.98 0 3.96 0 6 0 C6 1.65 6 3.3 6 5 C4.35 5 2.7 5 1 5 C0.67 3.35 0.34 1.7 0 0 Z " fill="#EFEFEF" transform="translate(42,93)"/>
<path d="M0 0 C1.65 0 3.3 0 5 0 C5.5625 1.9375 5.5625 1.9375 6 4 C5 5 5 5 2.4375 5.0625 C1.2309375 5.0315625 1.2309375 5.0315625 0 5 C0 3.35 0 1.7 0 0 Z " fill="#F2F2F2" transform="translate(119,93)"/>
</svg>
